<?xml version="1.0" standalone="no"?>
<!DOCTYPE svg PUBLIC "-//W3C//DTD SVG 1.1//EN" "http://www.w3.org/Graphics/SVG/1.1/DTD/svg11.dtd" >
<svg xmlns="http://www.w3.org/2000/svg" xmlns:xlink="http://www.w3.org/1999/xlink" version="1.1">
<metadata>
Created by FontForge 20230101 at Sun Aug 24 15:44:19 2025
 By 
Copyright (c) 2016 by Julia Martinez Diana, Antipixel. All rights reserved.
</metadata>
<defs>
<font id="AustralSlabBlur-Regular" horiz-adv-x="528" >
  <font-face 
    font-family="Austral Slab Blur Reg"
    font-weight="400"
    font-stretch="normal"
    units-per-em="1000"
    panose-1="2 0 5 3 0 0 0 0 0 0"
    ascent="767"
    descent="-233"
    x-height="535"
    cap-height="750"
    bbox="-104.444 -272 1090.04 1133.26"
    underline-thickness="53"
    underline-position="-159"
    unicode-range="U+000D-FB04"
  />
    <missing-glyph />
    <glyph glyph-name=".null" horiz-adv-x="0" 
 />
    <glyph glyph-name="nonmarkingreturn" unicode="&#xd;" horiz-adv-x="333" 
 />
    <glyph glyph-name="NULL" horiz-adv-x="399" 
d="M101 519c6 1 14 -4 23 -15l10 -10c5 -4 8 -7 9 -8c23 -21 36 -33 41 -35c10 -5 20 -6 30 -2c9 3 23 14 42 33l10 10c4 4 7 7 10 9c10 12 17 18 20 18c6 0 12 -5 19 -15c4 -4 10 -10 17 -18l16 -16c10 -7 15 -13 15 -18c0 -3 -1 -5 -3 -8s-5 -6 -8 -9c-4 -3 -6 -6 -7 -7
c-5 -5 -11 -13 -19 -22l-14 -14c-7 -7 -12 -12 -16 -17c-3 -5 -5 -10 -6 -15c-1 -3 -1 -5 -1 -7s0 -4 1 -6v-5c1 -2 2 -4 2 -6c2 -1 2 -2 3 -4l3 -4c1 -2 2 -3 4 -4c0 -1 2 -2 4 -4l3 -3c3 -3 9 -9 15 -18c8 -9 14 -15 19 -20c11 -11 16 -17 16 -19s-1 -4 -3 -6
c-1 -3 -3 -5 -6 -8s-4 -5 -5 -6c-4 -3 -15 -14 -33 -32c-10 -10 -16 -15 -18 -15s-4 1 -7 3s-5 5 -9 8c-2 3 -5 5 -6 6c-2 3 -4 5 -6 7c-3 2 -5 4 -8 7l-6 6l-12 12c-6 6 -11 11 -16 15s-9 7 -14 8c-9 3 -18 2 -29 -2c-3 -2 -7 -5 -11 -9c-5 -4 -10 -9 -15 -14l-12 -12
c-2 -3 -5 -6 -9 -10c-4 -5 -7 -8 -8 -9c-11 -11 -17 -16 -19 -16c-5 0 -11 5 -19 15c-2 2 -7 7 -16 14c-9 8 -15 14 -20 19c-11 10 -16 16 -16 19c0 2 1 4 3 8c2 2 5 6 8 9l6 6c2 3 8 9 17 17c9 10 17 17 22 24c1 1 2 3 4 6c3 4 4 6 6 8l4 6c1 3 2 6 2 8v10c-1 3 -2 7 -3 10
s-4 6 -8 12c-4 4 -7 8 -8 9c-4 4 -10 10 -17 19c-7 8 -14 15 -19 20c-11 11 -17 18 -17 20s1 4 2 6c2 3 4 5 7 8l5 5l9 9c3 4 6 7 7 8l11 11l12 12c3 3 7 6 11 8h1z" />
    <glyph glyph-name="space" unicode=" " horiz-adv-x="272" 
 />
    <glyph glyph-name="exclam" unicode="!" horiz-adv-x="188" 
d="M92 750c4 0 13 -1 28 -2c16 0 25 -1 27 -2c1 -1 2 -10 4 -29c0 -5 0 -11 -1 -17v-15v-62c0 -5 0 -26 -2 -63c0 -37 0 -57 1 -61c1 -27 2 -47 2 -62c0 -55 0 -97 -1 -125c-1 -17 -2 -27 -1 -31c0 -3 0 -8 1 -15v-15v-27c-1 -12 -1 -21 -1 -28c0 -10 -1 -16 -4 -19
c-2 -2 -6 -3 -11 -3c-6 -1 -14 -1 -22 0c-10 1 -15 1 -17 1c-30 -2 -47 -1 -50 2c-1 1 -2 13 -2 36c0 13 0 31 1 55v55v23v28v21v37c-1 16 -1 29 0 37c0 4 1 10 2 17s2 12 2 15c1 7 2 19 2 34c-1 4 -1 10 0 18s1 13 1 16v43v54v47c0 19 1 30 3 33c2 1 8 2 19 2
c3 0 10 1 19 2zM89 115c25 1 43 -6 54 -21c9 -16 14 -29 14 -40c1 -11 -3 -24 -11 -39c-5 -8 -13 -15 -24 -21c-12 -6 -24 -8 -35 -7c-9 1 -18 4 -27 10s-16 13 -20 20c-7 11 -10 24 -7 39c2 21 10 37 25 49c8 7 18 10 31 10z" />
    <glyph glyph-name="quotedbl" unicode="&#x22;" horiz-adv-x="297" 
d="M201 749c7 1 17 1 30 0c15 0 24 -1 26 -3c3 -2 4 -17 4 -46c0 -6 0 -14 1 -26c1 -10 1 -18 1 -22c0 -38 -1 -66 -2 -84c0 -13 -1 -21 -4 -24c-4 -4 -18 -5 -43 -2h-24c-12 0 -19 1 -20 3c-1 1 -2 5 -2 13c-1 6 -1 13 0 20c0 7 0 12 -1 17c-1 15 -1 35 1 63
c0 26 1 48 0 64c0 13 1 21 2 23c2 3 12 4 31 4zM45 749c1 1 8 1 21 0s20 -1 21 -1c25 0 39 -1 40 -2s1 -10 1 -25c0 -12 0 -32 2 -60c0 -28 1 -51 0 -69c-1 -9 -2 -18 -2 -25c0 -15 -1 -23 -2 -24c-2 -3 -6 -4 -12 -4c-5 0 -12 1 -18 1c-8 2 -12 2 -14 2s-7 0 -15 -1
s-15 -1 -20 -1c-5 1 -9 2 -11 5c-1 2 -2 14 -2 35c0 3 0 8 -1 13s-1 10 -1 13c-1 4 -1 7 -1 9c0 3 1 7 3 15c1 6 2 12 2 16v19c-1 8 -1 14 -1 17c0 9 1 26 2 51c0 9 3 15 8 16z" />
    <glyph glyph-name="numbersign" unicode="#" horiz-adv-x="639" 
d="M465 752c2 0 6 0 13 -2c6 0 11 -1 15 -1c1 0 4 0 9 -1h12c3 -1 5 -1 6 -2c2 -2 2 -17 0 -45c-3 -55 -5 -85 -6 -91c-3 -12 -4 -25 -4 -39s4 -23 12 -28c7 -5 28 -8 62 -8c11 0 18 -1 21 -3c1 -1 1 -8 1 -22c0 -23 0 -40 -1 -51c0 -13 -1 -20 -4 -22c-3 -3 -18 -3 -45 -1
c-30 1 -48 -4 -55 -16c-4 -6 -7 -19 -8 -39c-3 -15 -3 -30 -2 -43s7 -22 18 -27c4 -2 14 -4 29 -5c18 0 28 -1 30 -4c1 -1 1 -8 1 -23c-1 -6 -1 -14 -1 -25c0 -10 0 -18 -1 -24c0 -13 -1 -21 -3 -23c-1 -1 -13 -2 -34 -2c-29 0 -46 -6 -51 -19c-3 -5 -5 -20 -6 -46
c0 -4 -2 -19 -6 -45c-2 -12 -4 -35 -7 -70c0 -11 -1 -19 -3 -22c-4 -5 -14 -7 -29 -5c-20 2 -30 3 -31 3c-2 0 -6 0 -13 -1s-12 -1 -16 0c-5 0 -8 1 -9 2s-2 5 -2 10s0 12 1 18c1 8 1 12 1 14c2 25 3 39 3 44c0 4 0 11 2 20c0 10 1 17 2 22s2 13 2 23c2 23 -2 37 -12 44
c-11 6 -32 9 -65 9c-30 0 -49 -6 -56 -19c-2 -3 -4 -18 -7 -45c-1 -5 -2 -13 -2 -24c-2 -11 -2 -19 -3 -24c-1 -9 -2 -20 -3 -35s-2 -26 -3 -35c-2 -14 -4 -22 -5 -23c-4 -3 -20 -3 -47 -1c-11 0 -19 0 -25 -1c-13 0 -20 1 -22 4v23c1 8 2 20 4 34c1 16 2 26 3 31
c0 3 0 11 1 21c0 12 0 20 1 26c0 3 1 8 2 14c1 7 2 12 3 15c0 3 -1 8 -2 15c-1 6 -4 11 -8 14c-3 4 -8 7 -12 8c-6 1 -11 2 -18 2c-6 1 -13 1 -20 1h-23c-8 0 -13 1 -14 2c-3 3 -4 12 -4 26c0 3 1 7 1 11l3 13c1 3 1 8 1 16s0 15 2 21c0 7 2 11 4 13c2 1 8 2 19 2
c4 0 11 0 19 -1c10 -1 17 -1 24 0c7 0 12 1 17 2s9 3 12 6c3 2 6 6 8 10c2 6 3 10 5 12c0 4 2 9 3 16c1 8 2 13 3 15c7 32 4 52 -11 61c-4 3 -16 5 -35 6c-25 0 -39 1 -40 2c-2 1 -3 10 -3 25c-1 8 0 24 3 49c2 15 4 22 5 23c1 2 8 3 19 3h14h14h12c6 1 10 1 13 2s6 2 10 3
s7 3 9 5c3 3 5 5 6 8c3 5 5 21 7 46c1 9 3 26 4 49c1 5 1 13 3 24c0 11 1 19 2 24c1 3 1 8 2 15c0 8 0 14 2 20c0 4 2 8 4 10c3 2 17 3 43 3c3 0 6 0 11 -1h11c13 0 20 -1 21 -2c2 -3 2 -10 1 -23c-6 -63 -10 -102 -12 -119c-2 -13 -2 -25 -1 -38c1 -12 6 -20 14 -24
c5 -3 22 -4 51 -4h13h12h10c5 0 8 0 11 1s5 1 9 3c2 0 5 2 8 4c2 1 4 3 5 6c4 7 8 21 11 44c1 6 1 15 2 27v24c4 30 6 55 7 74c1 15 3 24 5 25c2 2 8 3 19 3c3 0 7 1 12 1c5 2 8 2 10 2zM247 380c-2 -33 -2 -52 1 -58c1 -3 3 -6 6 -8s5 -4 8 -5s6 -2 12 -3h11h13h14
c35 0 55 3 61 10c6 6 11 18 13 36c4 18 5 34 4 49c-1 10 -4 17 -10 23c-5 4 -11 8 -18 8c-7 2 -17 2 -30 2c-4 0 -12 0 -24 1c-11 1 -20 1 -26 0c-13 -1 -21 -7 -26 -15c-4 -10 -7 -23 -9 -40z" />
    <glyph glyph-name="dollar" unicode="$" horiz-adv-x="554" 
d="M270 869c7 1 15 1 25 0c13 0 21 -1 22 -4c1 -1 1 -9 1 -24c0 -39 3 -63 8 -72c3 -6 11 -13 23 -20c4 -2 9 -5 15 -8c7 -3 11 -6 14 -7c9 -3 17 -3 24 -1c3 1 6 3 10 7c4 5 8 7 12 8c2 1 17 1 46 1c26 0 41 -1 44 -3c2 -2 4 -6 4 -11c2 -5 2 -12 2 -21v-15v-14
c1 -9 1 -13 0 -13c-1 -5 -2 -12 -3 -23c0 -6 0 -15 1 -26s1 -20 1 -27c0 -3 0 -7 -1 -12v-13c0 -15 -1 -24 -2 -25s-5 -2 -10 -2c-5 -1 -10 -1 -16 0c-4 0 -9 0 -14 -1c-19 -1 -32 -1 -39 2c-3 1 -7 8 -13 20c-13 29 -32 50 -56 63c-24 11 -46 19 -66 24c-21 5 -39 7 -54 6
c-11 -1 -26 -5 -47 -12c-31 -9 -47 -33 -48 -72c0 -21 3 -38 9 -52c7 -11 16 -22 27 -33c7 -7 16 -15 27 -21c10 -8 18 -12 23 -16c5 -2 17 -8 34 -16c17 -9 27 -13 28 -14c6 -3 20 -9 42 -18c8 -2 22 -8 41 -19c4 -3 11 -6 20 -10s16 -7 20 -10c3 -2 8 -6 14 -11
c5 -5 9 -9 11 -10c3 -2 7 -5 13 -9c5 -4 9 -7 12 -9c5 -3 12 -11 21 -24l8 -12c4 -6 7 -10 8 -13l5 -15c2 -8 3 -12 4 -14c6 -12 9 -22 10 -29c3 -18 2 -41 -1 -70c-1 -9 -7 -29 -18 -58c-2 -3 -4 -8 -7 -13c-2 -6 -4 -10 -6 -13c-1 -1 -3 -5 -7 -12l-9 -15
c-1 -1 -9 -8 -26 -21c-15 -14 -31 -23 -47 -26c-3 -1 -6 -1 -11 -3c-4 0 -7 -1 -9 -1c-5 -1 -12 -1 -23 -3c-10 0 -17 -2 -22 -3c-6 -2 -11 -5 -14 -8s-6 -8 -7 -14s-2 -11 -3 -15c-1 -5 -1 -12 -1 -21v-22c-2 -13 -3 -20 -4 -21c-2 -1 -9 -2 -20 -2h-23c-9 1 -17 1 -23 1
c-11 0 -18 1 -20 3c-5 5 -6 20 -3 43c2 29 -4 49 -18 58c-1 1 -5 3 -10 6c-6 3 -11 6 -14 8l-12 7c-6 4 -9 6 -11 7c-13 5 -24 1 -31 -11c-3 -7 -6 -11 -8 -12c-5 -2 -21 -2 -48 0h-25c-11 0 -18 1 -20 3s-3 6 -4 13s-1 13 -1 20c1 6 1 11 0 16c-1 7 0 41 2 104v27
c0 14 1 22 2 23c2 3 9 4 22 4c16 1 32 1 47 0c9 0 17 -1 22 -4c3 -2 8 -9 15 -20c14 -27 30 -46 49 -56c5 -3 15 -8 29 -12c14 -6 21 -8 22 -8c26 -7 58 -8 96 -5c33 2 56 14 69 36c10 17 14 36 12 56c-2 19 -9 36 -21 51c-12 14 -24 24 -36 30c-11 6 -28 13 -50 22
c-7 3 -15 7 -26 12c-11 6 -18 10 -21 11s-20 8 -50 21c-29 11 -59 27 -92 47c-21 13 -38 32 -51 55c-1 2 -4 6 -8 10c-4 6 -7 9 -8 12c-3 12 -6 20 -7 23c-7 12 -10 19 -11 21c-8 23 -10 44 -6 65c1 4 2 9 2 17c2 6 2 12 2 15v18c1 8 1 14 2 17c2 12 11 29 26 50
c13 21 24 34 32 41c3 3 15 9 36 18c19 10 37 17 54 22c26 4 41 12 45 24c2 5 3 25 3 60c0 11 1 18 3 19c1 2 15 3 41 3z" />
    <glyph glyph-name="percent" unicode="%" horiz-adv-x="801" 
d="M503 788c5 1 22 1 49 -1c10 0 18 0 25 -1c13 0 20 -1 21 -3s-1 -11 -6 -26c-23 -63 -44 -122 -63 -178c-2 -7 -5 -16 -10 -27s-8 -19 -9 -23c-3 -7 -8 -24 -16 -53c-2 -5 -7 -20 -16 -46c-8 -24 -15 -43 -20 -56c-3 -5 -6 -14 -10 -26c-3 -11 -6 -20 -8 -25
c-4 -9 -10 -27 -17 -52c-15 -45 -26 -79 -35 -102c-3 -12 -5 -21 -8 -27c-1 -3 -2 -8 -4 -14c-3 -7 -4 -11 -5 -12c-3 -7 -6 -16 -9 -30c-3 -12 -5 -20 -6 -22l-12 -36c-5 -19 -10 -33 -14 -43c-4 -14 -8 -22 -13 -25c-1 0 -9 -1 -25 -3c-5 0 -14 0 -26 1s-22 1 -29 1
c-15 0 -23 1 -24 3c-2 2 0 11 7 27c5 16 8 25 9 27c2 6 5 15 9 26s7 20 9 25c1 3 3 11 7 25c3 13 6 23 9 29c2 6 5 15 9 25c5 12 8 20 10 26l18 51c19 59 31 94 35 105c2 5 5 14 9 25c3 11 6 20 9 27c7 18 13 35 18 52c2 7 5 16 8 26c1 3 2 7 5 12s4 10 5 13s3 8 5 15
c1 7 2 11 3 13c9 25 18 51 26 78c2 7 5 16 9 28c5 12 8 20 9 24c3 6 6 15 10 27s7 20 8 23c4 9 13 35 28 78c3 12 9 18 16 19zM167 710c10 2 24 1 41 -3c16 -4 28 -8 35 -11c3 -2 5 -4 7 -6s4 -4 7 -8c3 -2 5 -5 7 -7c8 -11 14 -19 17 -24c13 -20 22 -39 26 -56
c1 -3 1 -7 1 -13c1 -4 1 -10 2 -16v-14c1 -16 2 -28 2 -36c-1 -7 -2 -18 -5 -33c-8 -34 -20 -61 -35 -82c-9 -13 -22 -25 -41 -36c-12 -5 -27 -9 -44 -11c-17 -1 -34 0 -49 3c-16 3 -29 8 -39 15c-25 17 -42 33 -49 50c-8 17 -13 28 -14 32c-5 17 -8 38 -8 65
c0 35 1 59 3 70c4 24 15 50 34 77c2 2 5 6 9 11c3 5 6 9 8 10c9 5 21 11 37 17c11 4 27 6 48 6zM122 571c-7 -44 -6 -75 3 -92c5 -14 15 -23 30 -28c21 -9 38 -3 51 19c9 15 13 37 13 64c0 28 -4 49 -13 64s-22 23 -41 22c-14 -2 -24 -7 -30 -15s-10 -19 -13 -34zM615 394
c33 3 60 -2 81 -13l18 -12c1 -1 7 -6 17 -14c2 -3 5 -7 8 -13s6 -10 8 -13l7 -13c2 -6 5 -11 7 -14c7 -21 11 -43 11 -68c2 -48 -2 -84 -12 -109c-1 -3 -6 -12 -13 -28c-7 -11 -17 -22 -31 -31c-19 -13 -32 -21 -38 -22c-15 -5 -32 -8 -52 -7s-37 4 -52 10
c-16 5 -31 17 -44 34c-6 8 -15 25 -28 51c-9 26 -13 49 -12 68v12c1 4 1 9 2 13c0 4 0 8 1 12c0 23 0 35 1 38c2 16 10 35 24 58c7 9 13 17 18 24c1 1 4 4 6 7c4 4 6 7 8 10c3 2 5 3 8 4c5 3 14 6 27 10c10 3 20 5 30 6zM593 281c-10 -17 -14 -41 -11 -75
c2 -32 9 -55 22 -66c11 -9 24 -11 36 -8c14 4 24 11 31 22c15 21 17 53 7 94c-5 20 -7 31 -8 32c-9 17 -24 24 -43 22c-16 -2 -27 -9 -34 -21z" />
    <glyph glyph-name="ampersand" unicode="&#x26;" horiz-adv-x="671" 
d="M243 767c33 3 61 -1 83 -10c7 -3 14 -8 22 -16c2 -1 5 -3 10 -6s8 -5 10 -7c9 -11 18 -27 25 -46c4 -8 7 -17 9 -28c0 -3 1 -8 2 -15l3 -15c1 -15 -1 -32 -6 -50c-2 -5 -5 -13 -8 -22c-3 -10 -6 -17 -7 -20s-4 -7 -8 -14c-3 -7 -6 -12 -8 -16c-9 -17 -22 -37 -37 -58
c-1 -1 -4 -4 -7 -8c-4 -5 -7 -8 -8 -11c-2 -3 -4 -6 -6 -11c-1 -4 -2 -8 -2 -12c1 -5 2 -9 4 -14c3 -5 11 -15 26 -32l7 -14c4 -8 8 -14 11 -18c13 -21 27 -40 41 -57c12 -13 20 -21 25 -23c17 -7 28 -1 33 17c3 3 4 10 1 21c-2 10 -9 16 -20 18c-15 4 -22 7 -23 8
c-2 2 -3 14 -5 34c0 22 0 33 3 36c2 1 10 2 24 2h13c5 1 9 1 10 1c4 1 19 -1 44 -4c19 -3 35 -4 46 -3c28 0 43 -1 45 -3c1 -2 2 -5 3 -11v-14c-1 -5 -1 -9 0 -13c4 -21 3 -33 -2 -36c-2 -1 -6 -2 -12 -3s-10 -1 -11 -2c-7 -2 -12 -6 -15 -12c-3 -4 -5 -19 -6 -46
c0 -3 -1 -7 -2 -12s-2 -10 -3 -13s-1 -7 -2 -13c-1 -5 -1 -9 -2 -12c-1 -4 -4 -10 -8 -16c-4 -8 -7 -14 -10 -22c-3 -6 -4 -14 -3 -22c1 -11 6 -19 16 -22c8 -4 19 -4 31 -1c2 1 5 2 8 4s7 3 9 5c4 0 6 1 9 1s9 -5 17 -14c2 -3 6 -7 12 -15c7 -6 12 -13 16 -18
c1 -1 2 -2 4 -5s4 -5 5 -8s2 -5 2 -7s-1 -4 -3 -6c-2 -3 -5 -5 -8 -8l-4 -3c-15 -14 -33 -23 -54 -26c-17 -3 -31 -5 -44 -4c-13 2 -25 6 -36 12c-3 2 -8 5 -14 9c-6 5 -11 8 -15 10c-13 5 -27 3 -42 -8c-11 -7 -23 -13 -37 -19c-21 -8 -35 -13 -43 -14
c-20 -4 -55 -6 -104 -6c-31 0 -50 0 -55 1c-6 1 -15 2 -26 5s-18 4 -20 4c-20 4 -34 9 -42 14c-3 1 -6 4 -10 7l-6 7c-2 2 -5 5 -8 7c-3 4 -6 6 -7 7c-6 7 -13 20 -21 40c-9 19 -14 34 -16 43c-1 6 -2 16 -3 29s-1 22 -2 25c0 1 1 12 3 35c3 13 5 23 8 30c1 3 3 8 6 13
s4 9 5 12c1 1 4 10 11 25c7 14 24 35 49 63c1 1 7 9 16 22c1 1 5 4 13 11c7 7 12 13 14 19c3 6 3 13 0 22c-1 3 -3 8 -8 14c-5 7 -7 11 -8 12c-1 2 -3 6 -5 11s-4 9 -6 12c-3 5 -10 20 -21 46c-1 3 -3 7 -6 12s-4 9 -5 12c-8 21 -12 40 -12 55s1 25 2 32c1 17 3 28 4 31
c1 5 5 14 12 26c9 20 19 36 32 47s21 17 22 18c2 1 5 3 11 4c4 1 7 2 8 2c6 3 13 5 20 7c11 3 26 4 47 4zM206 668c-17 -11 -24 -31 -23 -62c1 -18 5 -34 10 -47c1 -3 4 -7 7 -12s6 -8 7 -11c1 -2 3 -5 5 -10s4 -8 5 -10l6 -6s6 -5 9 -6c4 -3 8 -4 14 -2c4 1 8 2 10 2
c2 -1 5 1 8 6c4 4 6 7 8 8c0 1 2 4 6 9c2 5 4 8 5 9c13 21 20 35 23 41c4 10 6 23 5 40s-4 29 -9 38c-9 17 -26 26 -52 26c-16 0 -31 -4 -44 -13zM192 296c-5 -5 -12 -15 -21 -30c-2 -3 -6 -7 -11 -13c-6 -6 -10 -11 -13 -15c-7 -13 -11 -30 -12 -53c0 -3 0 -8 1 -13
s1 -10 1 -13c1 -3 1 -8 1 -15v-13c3 -14 11 -25 25 -34c2 -1 6 -2 11 -5c6 -3 11 -5 14 -7c2 -1 6 -2 11 -5s10 -4 13 -5c37 -12 77 -10 118 7c23 10 37 20 41 30c5 12 1 26 -10 42c-3 5 -11 15 -21 32c-12 16 -20 28 -27 36c-5 6 -10 14 -17 24c-7 11 -12 18 -15 23
c-1 2 -4 5 -9 10c-4 5 -7 9 -9 12c-1 1 -2 3 -5 5c-3 4 -4 6 -5 6c-1 2 -2 3 -5 5s-5 3 -7 4s-5 1 -7 1c-4 1 -7 1 -10 1c-9 -1 -20 -7 -32 -17z" />
    <glyph glyph-name="quotesingle" unicode="'" horiz-adv-x="162" 
d="M61 748c10 1 22 1 35 0c21 0 32 -1 33 -3c1 -1 1 -8 1 -19v-19c0 -1 -1 -9 -2 -23c-1 -15 -2 -26 -2 -34v-77c0 -17 -1 -26 -3 -27c-1 -1 -2 -1 -5 -2h-10c-3 -1 -6 -1 -7 -1c-6 0 -13 0 -22 -1s-16 -1 -22 -1c-12 1 -19 3 -21 4c-1 1 -1 11 -1 32c0 3 0 11 -1 23
s-1 21 0 28c1 5 1 22 0 49s-1 42 -1 44l3 25c1 1 10 2 25 2z" />
    <glyph glyph-name="parenleft" unicode="(" horiz-adv-x="290" 
d="M214 785c4 -5 13 -17 27 -37c8 -10 12 -16 12 -19c0 -2 -1 -5 -4 -7c-3 -4 -6 -7 -10 -10c-4 -4 -6 -7 -7 -8c-25 -29 -43 -57 -54 -84c-9 -23 -17 -46 -23 -68c-1 -4 -3 -10 -5 -18c-2 -9 -3 -15 -4 -19c-1 -3 -2 -7 -3 -13c-1 -4 -3 -9 -3 -13c-2 -4 -2 -8 -2 -11
c-5 -42 -7 -71 -7 -87c0 -46 1 -75 4 -88c3 -17 5 -30 7 -39c1 -5 2 -12 2 -20c2 -10 2 -16 3 -20s2 -10 5 -18s4 -14 5 -18c1 -2 2 -7 5 -16c2 -9 4 -15 6 -19c1 -3 4 -7 7 -12s5 -8 6 -10s1 -5 2 -9s1 -7 2 -9c1 -3 7 -12 16 -25c12 -21 23 -37 34 -48c1 -1 4 -4 7 -6
c3 -4 6 -6 8 -9s3 -5 3 -7c1 -6 -3 -13 -12 -20c-3 -4 -7 -10 -13 -17s-11 -14 -14 -19c-9 -11 -14 -16 -16 -16c-5 0 -17 9 -36 28c-8 8 -17 20 -28 36c-3 3 -11 16 -24 39c-2 4 -6 11 -10 21c-6 9 -9 17 -11 22c-11 23 -22 55 -32 95c-5 17 -9 35 -11 53c0 2 -1 10 -4 24
s-4 24 -5 31c0 3 0 10 -1 20c0 10 0 18 -1 23c0 3 -1 9 -2 20c-1 8 -2 14 -2 19c0 3 1 8 1 14c2 6 2 10 2 12c1 6 2 19 4 37c1 20 3 34 4 43c1 13 4 30 8 50c6 33 9 49 9 50c3 13 9 27 17 42c3 5 6 13 9 22s6 16 8 20c3 5 10 17 21 37c23 37 39 60 48 70c1 1 4 4 8 9
c5 5 9 9 13 12s8 5 11 5s5 0 7 -2c2 0 3 -2 5 -2c0 -2 2 -3 4 -6c2 -2 3 -4 4 -5z" />
    <glyph glyph-name="parenright" unicode=")" horiz-adv-x="290" 
d="M92 800c5 1 14 -4 28 -17c9 -8 22 -24 39 -49c1 -1 4 -5 9 -11c6 -6 10 -11 11 -14c2 -3 4 -9 5 -17c2 -5 6 -13 10 -24c6 -10 9 -17 10 -22c12 -28 20 -50 25 -65c1 -6 3 -18 8 -35c1 -4 2 -10 5 -18s4 -14 5 -17c1 -5 1 -11 1 -21c1 -8 1 -15 2 -20c1 -9 3 -22 4 -39
c2 -51 3 -79 2 -84c0 -5 0 -11 -2 -20c0 -9 -1 -15 -2 -20c-1 -19 -4 -46 -9 -79l-9 -36c-3 -13 -6 -25 -9 -35c-5 -23 -8 -34 -9 -35c-2 -6 -6 -14 -13 -25c-5 -7 -9 -16 -12 -25c-5 -12 -13 -28 -26 -48c-17 -28 -33 -49 -50 -64c-11 -9 -19 -14 -23 -13c-2 0 -4 1 -6 2
c-1 1 -2 3 -4 3c0 2 -2 3 -3 6s-2 4 -3 5c-3 3 -7 9 -13 17s-11 14 -15 19c-8 11 -12 17 -12 18c-1 2 4 8 13 17c26 26 46 56 61 90c1 3 7 17 16 44c8 25 13 40 14 46s3 15 4 26c2 11 4 20 5 26c0 5 1 11 1 16c2 5 3 11 4 18c2 7 3 12 4 16c1 5 1 11 1 18c0 6 0 13 -1 21v18
v15c1 6 1 12 1 15c-1 26 -3 53 -8 81c-7 29 -10 46 -11 49c-1 11 -6 27 -14 47c-9 27 -15 41 -16 44c-6 15 -13 28 -20 39c-10 13 -19 25 -27 35c-1 1 -4 4 -7 8c-3 3 -6 6 -7 8c-9 7 -13 12 -13 16c0 2 0 4 2 6c0 3 2 5 6 8c2 3 4 4 4 5c3 3 7 9 12 17c6 7 11 13 15 17
c9 11 14 16 17 17z" />
    <glyph glyph-name="asterisk" unicode="*" horiz-adv-x="359" 
d="M171 751c4 1 9 0 15 -1s11 -2 14 -2h8c3 -1 6 -1 8 -2c3 0 5 0 6 -1c2 -3 3 -9 3 -19c5 -19 15 -29 30 -28c5 0 9 1 14 3c7 3 11 4 14 3s7 -6 13 -17c2 -3 5 -9 10 -17c5 -9 8 -16 10 -21c6 -12 9 -20 8 -23c-1 -5 -8 -9 -22 -14c-12 -6 -19 -11 -21 -14
c-12 -13 -8 -31 12 -53c9 -9 14 -15 14 -17c0 -1 -4 -7 -13 -18c-4 -4 -10 -9 -16 -14c-8 -6 -13 -11 -17 -15c-1 -1 -4 -3 -8 -7s-7 -6 -9 -7c-4 0 -12 6 -25 19c-9 12 -16 20 -21 23c-16 10 -34 3 -55 -21c-1 -1 -2 -2 -5 -6c-3 -2 -5 -5 -6 -6c-2 -2 -4 -4 -7 -6
s-5 -3 -6 -3c-4 0 -10 4 -18 12c-8 7 -17 16 -28 25c-8 6 -12 11 -12 14s1 5 1 8c2 3 3 6 6 9s4 5 5 6c9 17 10 34 2 49c-1 1 -8 7 -21 17c-13 7 -19 13 -20 17c-1 3 2 10 9 21c10 21 17 35 20 40c4 10 8 15 13 16c3 1 7 0 13 -2s11 -3 14 -3c17 0 26 10 28 29
c2 13 3 20 4 21s6 2 17 3c6 0 12 1 19 2z" />
    <glyph glyph-name="plus" unicode="+" horiz-adv-x="439" 
d="M197 535c17 0 29 0 38 -1c22 0 34 -1 35 -3c1 -1 2 -4 2 -7c1 -3 1 -7 0 -12s-1 -8 -1 -9c1 -13 1 -26 1 -38c-2 -12 -1 -23 2 -35c3 -10 8 -18 16 -22c4 -3 10 -4 18 -5c7 -1 17 -1 28 -1c11 -1 19 -1 23 -2c27 0 41 -1 43 -4c1 -1 2 -12 2 -33v-13v-13v-10
c0 -17 0 -26 -1 -27c-2 -2 -12 -3 -29 -3c-7 1 -17 1 -30 1c-39 0 -61 -6 -67 -18c-3 -5 -5 -13 -5 -22c-2 -10 -2 -22 -2 -36c1 -15 1 -24 1 -29c0 -15 -1 -24 -3 -26c-1 -1 -7 -3 -19 -5c-3 0 -7 0 -11 -1c-5 -1 -8 -1 -9 -1s-5 0 -13 1s-14 1 -17 0c-18 0 -27 1 -28 2
c-2 3 -3 12 -3 29v14c-1 6 -1 11 -1 15c0 3 0 9 1 19v18c-1 3 -2 8 -2 14c-2 5 -3 10 -6 12c-2 4 -5 6 -9 8c-9 5 -27 7 -56 7c-3 0 -7 0 -15 1h-16h-10h-12c-3 1 -6 2 -7 3l-3 24c0 20 0 37 1 50c0 13 1 20 3 22c2 1 11 2 27 2c39 0 65 2 79 5c5 1 10 3 13 6c3 2 6 4 7 7
c2 3 4 7 4 12c2 5 2 9 2 13c1 2 1 8 2 16v18v13c1 7 1 12 1 15c0 17 1 26 2 27s9 2 24 2z" />
    <glyph glyph-name="comma" unicode="," horiz-adv-x="196" 
d="M84 115c16 3 33 -1 50 -10c9 -8 16 -18 20 -30c5 -16 8 -29 9 -39c1 -11 0 -26 -5 -47c-1 -5 -4 -12 -9 -21c-5 -8 -7 -13 -8 -14c-3 -8 -10 -19 -20 -32c-1 -1 -4 -4 -7 -9c-4 -5 -8 -9 -10 -12c-4 -3 -6 -5 -9 -5c-6 0 -15 6 -26 17c-13 13 -19 20 -19 23
c-1 3 2 8 7 15c8 12 10 24 6 35c-1 5 -6 12 -15 20c-8 10 -13 18 -15 25c-2 15 -1 30 4 46c9 22 25 35 47 38z" />
    <glyph glyph-name="hyphen" unicode="-" horiz-adv-x="439" 
d="M130 327c13 2 28 2 45 -1c5 -1 19 -1 43 -1c5 0 12 0 23 -1s19 -1 24 -1c27 0 43 0 48 1c14 1 29 1 46 0h13h20c7 -1 11 -2 12 -3c1 -2 2 -15 2 -38c0 -3 0 -9 -2 -17c0 -10 -1 -16 -1 -21c1 -11 1 -18 0 -21c-3 -3 -19 -4 -48 -4h-25l-24 -3c-3 0 -8 0 -14 1
c-5 1 -9 1 -12 1h-27c-5 0 -14 0 -25 1c-12 1 -21 1 -27 1c-7 -1 -16 -1 -29 0c-12 1 -20 1 -25 1c-4 0 -12 0 -25 -1c-12 -1 -21 -1 -28 0c-3 0 -7 1 -12 1c-6 2 -11 2 -14 2c-19 0 -29 1 -31 2c-1 1 -2 12 -2 33c0 3 0 9 -1 17c-1 9 -1 14 -1 17c0 15 2 24 5 29
c4 3 15 4 34 4c4 0 10 0 18 -1c9 -1 14 -1 17 -1c14 2 22 3 23 3z" />
    <glyph glyph-name="period" unicode="." horiz-adv-x="189" 
d="M84 113c15 3 29 1 42 -6c19 -10 28 -25 29 -46c3 -25 -4 -45 -20 -60c-14 -13 -32 -17 -54 -12c-15 6 -25 12 -31 17c-12 12 -18 24 -19 37c0 13 3 24 10 34c8 21 22 33 43 36z" />
    <glyph glyph-name="slash" unicode="/" horiz-adv-x="424" 
d="M307 791c9 1 24 1 43 -1c19 -3 30 -4 32 -4c14 0 22 -1 23 -3s-1 -11 -8 -26c-37 -109 -58 -168 -62 -179c-2 -5 -5 -14 -9 -25c-5 -11 -8 -20 -10 -25c-8 -23 -14 -40 -17 -52c-2 -7 -7 -22 -15 -46c-8 -25 -15 -44 -20 -57c-15 -37 -26 -71 -35 -103
c-13 -39 -25 -73 -36 -103c-9 -29 -14 -46 -16 -53c-7 -25 -13 -43 -17 -52c-11 -41 -19 -67 -24 -79c-7 -15 -10 -22 -11 -23c-1 0 -10 -1 -27 -3c-7 0 -16 0 -26 1h-28c-16 2 -24 4 -25 5s2 10 7 26c3 7 7 20 14 37c6 17 10 31 13 40c2 5 5 14 8 27s6 22 8 28l20 50
c11 38 22 73 35 106c2 5 5 14 8 25c4 11 7 20 9 26c3 7 7 17 11 30s6 21 7 22c7 16 13 34 18 53c2 7 5 16 9 27c5 11 8 19 10 24c1 3 2 7 4 13c1 6 3 11 4 14c1 2 4 10 9 25c3 16 9 34 17 54c9 29 21 63 37 102c3 6 6 15 9 28c4 12 7 20 9 24c1 2 2 7 5 15c2 8 4 15 8 21
c2 6 6 10 9 11z" />
    <glyph glyph-name="zero" unicode="0" horiz-adv-x="650" 
d="M324 767c20 1 40 -1 60 -6c3 -1 7 -2 13 -3c6 -2 10 -3 13 -4s6 -1 12 -2c4 -1 9 -2 12 -2c3 -2 6 -3 9 -4s7 -4 13 -8c5 -5 10 -8 13 -10c11 -6 19 -13 26 -20c25 -23 39 -38 43 -43c9 -12 20 -30 33 -55s22 -46 25 -63c1 -5 2 -11 5 -19c3 -7 4 -12 5 -14
c3 -9 6 -36 9 -79c1 -5 1 -12 0 -21s-1 -16 -1 -20c0 -49 0 -77 -1 -83c0 -1 -2 -9 -5 -23s-5 -25 -5 -33c0 -9 -1 -16 -2 -21c-1 -7 -3 -14 -6 -21c-3 -9 -5 -17 -6 -22s-3 -9 -5 -13c-1 -5 -3 -10 -5 -14c-2 -6 -4 -9 -5 -12c-3 -4 -5 -8 -6 -12l-6 -15
c-1 -5 -3 -9 -4 -12c-7 -11 -14 -22 -23 -33c-11 -15 -19 -26 -24 -31c-2 -2 -5 -5 -9 -8s-8 -6 -11 -9s-7 -5 -10 -7c-2 -1 -7 -5 -15 -10c-7 -5 -13 -10 -17 -13c-13 -9 -25 -15 -38 -18c-21 -5 -56 -6 -103 -3c-16 0 -32 2 -49 5c-4 1 -11 4 -20 7s-17 6 -22 7
c-8 2 -20 8 -36 17c-8 5 -18 14 -29 27c-3 2 -7 6 -14 12s-12 11 -15 15c-3 3 -7 7 -12 14c-9 10 -13 16 -14 19c-1 2 -3 6 -5 12c-1 7 -3 11 -5 14c-1 3 -4 7 -7 12c-4 6 -7 11 -8 15c-2 4 -4 10 -6 18c-1 8 -3 14 -4 17c-2 7 -6 18 -10 32c-6 16 -9 27 -11 36
c-2 7 -3 14 -4 24c-1 8 -1 19 -1 31c-1 12 -1 21 -2 26s-1 13 0 22v21c-1 25 2 52 8 81c1 3 2 13 6 33c2 18 5 33 8 42c1 3 3 8 6 15c2 7 4 13 5 17c5 9 10 19 15 29c7 16 12 26 15 30c2 4 5 9 8 15c3 7 6 11 7 14s5 8 10 14c6 6 9 10 10 11c2 2 5 6 10 11c4 6 7 10 10 13
c3 5 13 13 29 24c15 11 26 17 31 20c14 8 51 13 112 14zM244 639c-6 -5 -14 -13 -24 -26l-20 -30l-23 -26c-10 -18 -17 -44 -22 -78c-1 -3 -1 -10 0 -23s1 -20 1 -23c1 -5 0 -11 -2 -19c-1 -9 -2 -15 -2 -18c-1 -4 0 -10 0 -16c2 -8 2 -13 2 -16c0 -2 0 -6 -1 -12
c-1 -7 -1 -12 0 -15c0 -3 1 -12 3 -26c1 -5 2 -14 2 -27c2 -12 3 -21 4 -27c1 -3 4 -7 6 -12c4 -5 5 -10 6 -13c1 -2 2 -6 3 -12s3 -11 4 -14c1 -2 2 -6 4 -11s4 -9 5 -11c3 -5 7 -13 13 -23s9 -16 10 -17c5 -10 14 -21 27 -34c33 -21 65 -30 97 -28c8 1 24 6 47 15
c12 5 24 13 37 25c1 1 4 4 8 6c4 4 7 6 9 8c6 7 16 27 31 62c11 26 16 41 17 45c3 11 7 27 12 50c7 28 9 55 7 82c-1 3 -1 8 -1 15c-1 7 -1 12 -1 15c0 7 -1 16 -3 29s-3 21 -4 25c-2 21 -5 38 -10 53c-1 1 -2 5 -4 10c-1 5 -2 10 -3 13s-2 7 -3 13c-1 5 -3 9 -4 12
c-2 5 -5 12 -10 21c-3 5 -8 13 -13 22c-6 7 -13 15 -22 22c-7 9 -14 16 -21 21c-17 15 -47 21 -90 20c-26 -3 -50 -12 -72 -27z" />
    <glyph glyph-name="one" unicode="1" horiz-adv-x="355" 
d="M129 749c5 0 15 0 31 -1c14 -1 26 -1 33 0c3 0 7 0 15 1c6 1 12 1 17 0c17 0 27 -1 29 -4c1 -2 2 -15 2 -38v-39c-1 -5 0 -11 1 -20s2 -15 2 -19s0 -10 -1 -19s-1 -15 -1 -20v-79v-40c0 -5 0 -11 -1 -20v-18c0 -2 0 -7 1 -15s1 -13 0 -15c-3 -77 -3 -137 -2 -180
c0 -7 1 -15 4 -26c0 -5 -1 -12 -1 -23c-2 -10 -2 -18 -1 -23c0 -28 5 -45 15 -52c8 -3 15 -5 22 -5h8h10c3 -1 4 -2 5 -3s2 -16 2 -44c2 -6 2 -13 0 -22c0 -15 0 -22 -1 -23c-1 -2 -10 -3 -27 -3c-19 2 -39 2 -61 1h-16c-6 -1 -12 -1 -15 -1c-4 0 -9 0 -16 1h-14h-63
c-19 0 -29 1 -30 2c-3 3 -4 14 -4 32c-1 7 0 18 2 33c0 15 0 22 1 23c2 2 10 3 24 3c23 1 38 7 43 18c6 10 8 23 7 38c-1 4 -1 9 -1 13v16c1 6 1 10 1 13c0 15 -1 37 -1 65c-2 30 -2 51 -2 65c0 5 0 11 -1 21c-1 8 -1 15 -1 20s0 12 1 20c1 10 1 16 2 21s1 13 -1 21
c0 10 -1 16 -1 19s1 11 4 23c1 8 0 20 -1 36s-2 28 -2 35c0 5 1 14 2 27c1 14 2 25 2 32c0 8 -2 16 -4 25c-4 9 -8 15 -15 18c-5 2 -12 3 -19 4s-17 1 -30 0c-12 -1 -20 -1 -23 -1c-15 0 -23 1 -24 3c-1 1 -2 9 -2 23c0 21 0 38 1 50c0 14 1 22 2 23c4 5 19 7 44 7h13
c5 -1 9 -1 12 -1s7 0 12 1c5 0 9 0 12 1z" />
    <glyph glyph-name="two" unicode="2" horiz-adv-x="553" 
d="M229 769h23h30h26c16 0 38 -3 67 -9c22 -7 41 -15 56 -24c23 -14 37 -26 42 -35c2 -3 4 -7 7 -13c2 -5 3 -9 4 -10c1 -2 4 -6 8 -12c5 -5 8 -10 9 -14c1 -5 3 -12 4 -21c0 -1 1 -4 3 -9c1 -6 2 -11 3 -14s1 -7 1 -12v-13c0 -3 0 -7 1 -11c1 -6 1 -9 2 -11
c1 -12 -1 -27 -6 -45l-6 -18s-5 -16 -7 -20c-5 -11 -19 -32 -41 -62c-3 -3 -7 -8 -13 -14c-5 -6 -9 -10 -11 -13c-5 -5 -13 -15 -24 -28c-13 -13 -22 -21 -27 -24c-3 -2 -8 -4 -14 -7c-5 -3 -9 -4 -10 -5c-7 -4 -16 -12 -27 -25c-3 -3 -7 -7 -13 -12c-7 -5 -11 -9 -14 -12
c-6 -7 -10 -12 -12 -13s-5 -3 -8 -5c-3 -3 -6 -5 -7 -6c-4 -3 -9 -7 -15 -13l-11 -11c-1 -1 -5 -4 -13 -10c-7 -5 -13 -10 -16 -13c-16 -13 -26 -20 -29 -22c-11 -6 -20 -15 -27 -27c-8 -13 -10 -25 -7 -38c3 -10 10 -16 19 -20c9 -2 24 -4 43 -2c19 0 32 1 37 0
c3 0 8 0 14 -1c7 -1 11 -1 14 -1h32c12 0 22 0 28 -1c39 -1 62 5 69 18c5 9 9 27 10 55c0 11 1 17 2 19c2 2 6 3 11 3c5 1 12 1 20 0s13 -1 14 -1c7 1 15 1 24 0c13 0 20 -1 22 -2c1 -2 2 -17 2 -46v-47c0 -5 0 -12 2 -22c0 -10 1 -18 0 -24v-12c-1 -4 -1 -9 -1 -12
c0 -1 0 -4 -1 -8v-8c-1 -3 -1 -4 -2 -5c-2 -1 -12 -2 -29 -2c-2 0 -7 1 -13 1c-8 2 -13 2 -16 2c-9 1 -20 1 -34 0s-23 -1 -28 -1c-21 1 -41 1 -61 0c-13 -1 -32 0 -59 1h-62c-7 0 -18 0 -30 -2c-14 0 -23 -1 -30 -1c-17 1 -27 2 -30 2c-6 0 -16 -1 -29 -2c-3 0 -8 0 -15 1
h-16h-9c-5 1 -9 1 -12 2c-3 0 -6 1 -7 2s-1 4 -1 8s0 8 1 12c0 4 0 8 -1 12c-1 15 0 49 2 102c1 19 6 37 15 55c1 3 4 7 6 11c4 6 6 9 7 12c1 2 3 6 7 12c2 6 5 10 8 13s9 8 20 16c7 5 26 21 58 50c9 7 16 12 20 16c10 9 17 14 20 16c11 5 24 16 41 31l16 16
c9 8 16 14 22 18c7 5 14 10 19 16l15 21c4 5 10 12 19 21c9 8 14 13 17 16c6 5 11 12 16 19c7 7 14 14 21 23c11 23 15 44 12 63c-1 10 -4 19 -9 28c-13 22 -28 36 -45 41c-16 5 -28 9 -35 11c-11 3 -25 3 -42 0c-14 -1 -27 -3 -39 -8c-27 -13 -45 -26 -55 -39
c-11 -13 -18 -29 -20 -49c-1 -11 -3 -18 -5 -19c-2 -3 -10 -4 -23 -4c-18 -1 -36 -1 -55 0c-13 0 -21 1 -23 3c-3 4 -4 18 -1 42c1 7 3 19 6 38c3 13 6 24 11 34c7 15 14 25 19 31l15 15c1 1 6 5 13 13c8 6 15 12 20 16s11 7 17 10c3 1 7 3 12 4l15 6c4 1 8 3 12 5
c10 4 25 7 45 8z" />
    <glyph glyph-name="three" unicode="3" horiz-adv-x="559" 
d="M249 769c7 1 15 0 25 -2h25c4 1 20 -1 48 -5c15 -1 29 -5 43 -12c4 -1 10 -5 18 -10c11 -4 18 -7 21 -9c9 -6 19 -18 31 -35c9 -12 13 -19 14 -20c9 -9 15 -17 17 -23c3 -9 6 -20 7 -35c0 -2 0 -8 2 -17c0 -9 1 -16 1 -21c1 -40 1 -65 -2 -75c-4 -12 -12 -28 -23 -48
s-18 -31 -19 -34c-1 -1 -2 -4 -5 -7c-2 -4 -3 -7 -4 -8c-1 -2 -2 -5 -2 -8c-2 -3 -2 -6 -2 -10c1 -2 2 -6 3 -9c1 -5 4 -9 7 -13c3 -5 8 -10 13 -16l11 -11c1 -2 4 -6 10 -11c4 -6 8 -11 12 -16c2 -5 5 -9 6 -14c5 -11 10 -35 16 -72c5 -25 4 -51 -3 -78
c-1 -5 -2 -12 -3 -21s-1 -15 -2 -18c-3 -15 -13 -34 -30 -58c-18 -19 -31 -31 -38 -35c-7 -3 -13 -7 -20 -12c-5 -3 -20 -9 -44 -17c-27 -7 -54 -11 -82 -10c-12 1 -22 2 -29 2c-31 -1 -50 -2 -58 -1c-7 1 -15 3 -26 7s-18 6 -21 7c-21 5 -36 11 -45 17c-3 1 -9 6 -18 13
l-18 12c-3 3 -7 9 -12 17c-8 11 -12 18 -13 19c-1 3 -4 7 -6 14c-4 7 -6 11 -7 14c-10 28 -15 51 -14 68c0 22 1 34 4 36s11 3 25 3c15 1 33 0 53 -2c15 0 23 -1 25 -3c1 -1 1 -2 2 -4c1 -3 1 -6 2 -8v-6c6 -44 29 -74 70 -89c21 -8 47 -12 78 -12c5 0 18 2 38 7
c23 6 38 11 43 16c5 4 10 11 17 20c7 11 12 18 13 23c9 25 11 46 7 63c-3 27 -15 51 -36 73c-7 7 -13 13 -16 15c-3 4 -9 7 -16 10s-16 6 -26 7c-5 1 -13 2 -23 4s-17 3 -22 4c-10 2 -27 3 -50 3c-11 1 -19 2 -24 2c-15 0 -23 1 -24 3s-2 10 -2 24v51c0 16 1 25 2 26
c2 1 6 2 13 3c6 1 13 1 21 1c8 1 13 1 14 1c5 1 11 1 21 2c8 1 15 1 20 2c4 1 9 1 16 3c7 0 13 2 18 4s11 4 16 7c2 1 5 2 9 5c4 2 7 3 9 4c1 1 4 1 6 2c4 1 6 1 7 2c1 0 3 0 5 2c3 0 5 2 6 2c1 2 3 3 4 4s2 3 3 5s2 6 3 12c0 6 0 10 1 12c1 5 4 10 8 17s6 11 7 14
c5 11 7 24 6 40c-1 25 -10 46 -29 62c-7 7 -16 11 -27 14c-2 1 -7 2 -14 4c-7 3 -13 4 -17 5c-29 7 -53 7 -71 0c-41 -15 -67 -44 -77 -87c-3 -19 -5 -28 -6 -29c-2 -3 -10 -4 -23 -4c-7 -1 -17 -1 -28 0c-12 1 -20 1 -25 1c-15 0 -23 1 -25 2c-3 3 -3 15 0 38
c1 17 3 30 4 39c1 7 6 17 13 31c7 17 11 28 14 32s8 9 16 16c2 2 5 5 7 10c4 4 6 7 7 8c7 9 19 19 36 28c14 8 50 15 108 21z" />
    <glyph glyph-name="four" unicode="4" horiz-adv-x="558" 
d="M369 749h11h16h16h13c7 0 13 0 17 -1c6 0 9 -1 11 -2c2 -2 3 -7 3 -14v-24c-1 -9 -1 -14 -1 -17c0 -6 0 -15 -1 -28v-26v-18v-22v-18c0 -5 0 -14 -2 -27c0 -12 -1 -21 0 -28v-28c0 -14 0 -24 1 -29c1 -24 2 -43 2 -56c0 -7 1 -16 1 -29c2 -12 2 -20 2 -25v-16v-15
c0 -4 0 -8 1 -13s2 -9 3 -12s3 -5 6 -9c3 -2 6 -5 10 -7c10 -2 17 -3 22 -3c12 0 19 -1 21 -3s3 -5 4 -10s1 -11 0 -19c-1 -9 -1 -14 -1 -16v-25c0 -12 -1 -19 -3 -21c-1 -1 -9 -2 -24 -2c-21 -1 -34 -8 -39 -19c-5 -12 -5 -25 -2 -39c3 -15 10 -24 19 -28c5 -2 11 -3 20 -3
c3 -1 5 -1 8 -1c3 1 5 1 8 0c3 0 4 -1 5 -2s2 -9 2 -22c0 -10 0 -18 1 -24c0 -29 -1 -44 -2 -45s-10 -2 -27 -2c-11 -1 -26 -1 -46 -1c-20 -1 -33 -1 -39 -1c-7 0 -16 0 -27 1c-12 0 -22 0 -30 -1c-3 0 -12 -1 -27 -2c-16 0 -25 1 -27 2c-1 2 -2 9 -2 22v8v9v8
c0 1 0 6 -1 15s-1 16 0 21s2 9 4 10s9 2 22 2c20 1 32 7 37 18c3 7 4 16 4 28c0 13 -1 22 -4 28c-7 19 -36 27 -89 24h-41c-21 0 -34 0 -39 -1c-9 0 -22 -1 -39 -2c-3 0 -9 0 -18 1s-16 1 -21 0c-7 0 -20 -1 -39 -2c-22 -2 -34 -2 -37 1c-2 2 -3 15 -3 40c0 23 0 36 1 40
c1 6 7 17 17 32c2 4 5 9 10 17c4 6 7 11 8 14c2 4 5 9 10 16s8 11 9 13c5 7 12 18 20 33s14 25 17 30c3 3 6 9 9 16s6 12 8 15c2 4 5 9 10 16s8 11 9 14c3 5 9 15 18 31c9 13 17 23 22 29c2 3 5 7 10 13s8 11 11 14c7 8 13 17 20 28c13 18 19 28 20 29c1 2 4 7 8 15
c4 7 8 13 11 16s6 8 10 15s7 11 9 14s5 8 9 15c5 7 8 12 10 15c8 16 16 25 23 27c5 2 15 3 32 3zM298 520c-2 -3 -6 -7 -10 -13c-6 -6 -9 -10 -11 -13c-5 -7 -12 -17 -19 -30c-8 -13 -14 -22 -17 -27c-8 -12 -14 -21 -18 -28c-4 -8 -10 -19 -17 -31c-7 -14 -13 -23 -16 -29
c-10 -19 -15 -30 -15 -33c-1 -7 1 -13 5 -18s10 -8 16 -8c8 -2 15 -2 24 -2c8 -1 16 -1 24 0c7 1 14 1 21 0c3 0 9 -1 18 -2c9 -2 15 -3 20 -3c19 0 32 2 39 7c11 5 18 28 19 67c0 12 -1 29 -2 51c-1 23 -2 37 -2 44v33c-1 30 -4 48 -9 53s-12 7 -21 6c-7 -1 -17 -9 -29 -24
z" />
    <glyph glyph-name="five" unicode="5" horiz-adv-x="547" 
d="M196 750c15 1 39 0 72 0c33 -2 54 -2 64 -2c23 0 58 1 103 2c19 0 29 -1 32 -3c1 -1 2 -8 4 -22c1 -10 1 -26 0 -48c0 -14 -1 -21 -2 -22s-13 -2 -34 -2c-16 0 -27 0 -32 1c-7 1 -15 1 -23 1s-17 0 -26 -1h-22c-6 0 -17 0 -33 -2c-16 0 -27 -1 -33 0
c-54 5 -85 -1 -93 -18c-3 -5 -4 -13 -5 -26s-1 -20 -2 -23c0 -3 -1 -9 -2 -16s-2 -13 -3 -17s-1 -10 -1 -18c-1 -9 -1 -15 -1 -19c-1 -11 -1 -20 0 -26s3 -12 7 -17c3 -6 9 -10 17 -12c9 -1 26 -1 52 2c47 5 80 5 99 -2c5 -2 13 -4 23 -6c10 -1 17 -3 21 -4c3 -1 6 -3 11 -6
s8 -5 10 -6s5 -3 9 -5c5 -2 8 -4 11 -6s10 -8 20 -18c23 -21 40 -43 50 -67c5 -9 11 -30 17 -61c7 -34 9 -69 4 -107c-5 -36 -15 -66 -30 -87c-2 -3 -5 -7 -10 -15c-5 -6 -9 -12 -12 -17c-4 -5 -8 -9 -12 -12c-32 -28 -66 -46 -102 -54l-10 -3c-4 0 -8 -1 -12 -2
c-3 -1 -7 -1 -10 -1c-8 -1 -21 -2 -38 -2c-45 2 -69 3 -74 4c-11 2 -21 5 -30 9c-11 3 -21 7 -29 10c-17 7 -32 17 -47 30c-17 15 -29 29 -35 43c-17 33 -25 64 -26 92c-3 19 -2 31 3 35c1 1 8 2 23 3c1 1 9 1 25 1c15 -1 23 -1 24 -1c14 0 22 -1 24 -3c1 -1 3 -7 5 -18
c1 -9 2 -16 3 -19c2 -8 7 -18 15 -30c13 -21 29 -35 49 -42c21 -7 47 -11 78 -13c29 -2 53 3 73 16c9 8 16 15 20 20c10 9 16 15 18 20c9 15 16 34 19 59c3 18 1 41 -6 69c-5 22 -14 39 -25 52c-15 18 -29 30 -44 35c-3 1 -8 3 -15 5c-6 2 -11 3 -14 4c-17 6 -42 7 -73 3
c-3 0 -14 -2 -33 -5c-11 -2 -21 -4 -30 -7c-3 -1 -8 -3 -14 -6s-11 -5 -14 -6c-2 -1 -18 -1 -47 -1h-25c-14 0 -22 1 -24 3c-1 1 -1 3 -1 7c0 2 0 6 -1 10v10v25v31v25c0 25 1 42 2 53c1 6 2 15 5 26s4 18 4 20c4 31 6 48 6 49c1 13 3 33 7 60c3 27 6 48 7 63
c1 16 3 24 5 25s11 2 28 2c3 0 8 0 14 -1h14c9 -1 19 0 32 0c12 2 21 2 26 2z" />
    <glyph glyph-name="six" unicode="6" horiz-adv-x="563" 
d="M244 769c9 1 25 1 50 1c35 0 63 -4 84 -13c2 -1 8 -2 18 -5c9 -2 16 -4 20 -6s12 -9 25 -20c25 -23 41 -43 48 -59c6 -11 10 -19 12 -26c7 -24 11 -44 12 -61c3 -19 2 -30 -1 -33c-2 -2 -6 -3 -12 -3c-6 -1 -13 -1 -20 0h-14c-9 0 -17 0 -24 1c-13 0 -20 1 -21 2
c-2 2 -3 8 -3 17c-5 43 -21 73 -48 89c-21 13 -41 19 -58 20c-33 3 -57 1 -73 -4c-21 -7 -37 -17 -48 -30c-9 -13 -15 -20 -17 -23c-12 -15 -23 -43 -34 -83c-1 -10 -3 -22 -4 -35c-2 -16 -1 -29 2 -38c4 -10 13 -15 27 -14c3 0 16 3 39 8c33 6 62 9 88 10c21 0 36 -1 45 -4
c19 -3 37 -8 52 -14c37 -15 64 -33 80 -54c4 -6 9 -12 15 -18l6 -6c2 -3 4 -5 6 -7s3 -4 4 -6c3 -7 5 -14 7 -23c12 -30 19 -53 21 -70c1 -13 2 -32 2 -58c-1 -11 -4 -28 -9 -51c-1 -14 -3 -23 -4 -26c-2 -8 -5 -15 -8 -21c-11 -25 -27 -48 -50 -71c-3 -3 -8 -7 -16 -14
c-7 -7 -12 -11 -16 -14c-3 -1 -9 -3 -17 -5s-14 -4 -17 -5c-10 -5 -21 -9 -33 -11c-25 -5 -67 -6 -126 -5c-10 1 -22 3 -37 7c-5 2 -11 4 -19 6c-7 2 -12 4 -15 5c-23 10 -41 22 -54 35c-1 2 -5 6 -9 11c-6 5 -9 10 -11 13c-17 24 -28 43 -31 58c-1 5 -2 11 -4 20
c-3 9 -4 14 -5 17c-3 16 -7 42 -11 78c0 4 0 11 -2 19c0 10 -1 16 -2 21c-1 9 -1 18 -1 28s0 21 1 33v27v87c0 19 1 33 2 42c1 5 2 11 4 20c1 9 2 15 3 19c4 35 9 59 14 74c1 4 3 10 5 17c2 8 4 14 5 17c3 5 8 16 14 31c9 17 23 34 41 49c19 15 37 27 52 35
c21 12 45 18 70 19zM269 363c-17 1 -37 -2 -59 -9c-20 -8 -35 -17 -45 -28c-24 -23 -34 -47 -30 -73c0 -2 1 -7 3 -14c1 -7 2 -13 2 -17c1 -14 3 -25 4 -32c13 -48 30 -79 53 -92c5 -3 14 -7 27 -11c9 -4 16 -7 21 -8c16 -5 32 -7 48 -6c38 3 66 10 85 23c8 6 16 14 24 23
c11 14 19 28 23 42c5 17 7 33 7 48v9v11v9c0 1 -3 13 -9 37c-1 2 -3 7 -5 15c-4 8 -6 14 -8 18c-9 15 -27 30 -56 45c-14 6 -22 9 -24 10c-7 2 -16 2 -26 1h-18c-8 -1 -14 -1 -17 -1z" />
    <glyph glyph-name="seven" unicode="7" horiz-adv-x="553" 
d="M95 749c5 0 14 0 27 -1c12 -1 21 -1 28 0h52c9 1 22 0 40 -1c17 -1 31 -2 40 -1c3 0 8 0 12 2c6 0 9 1 12 1c3 1 11 0 25 -2c9 -1 22 -1 41 0s32 1 41 1h26c13 1 22 1 28 0h7c3 -1 6 -1 9 -2s6 -1 8 -1c15 0 24 -1 26 -2c5 -5 6 -23 3 -56c0 -21 -3 -38 -8 -52
c-1 -2 -3 -8 -8 -19c-4 -10 -7 -18 -8 -24c-4 -11 -9 -25 -16 -44c-5 -11 -11 -25 -16 -44c-1 -3 -3 -10 -7 -20c-4 -12 -7 -20 -8 -26c-1 -3 -1 -7 -3 -12c0 -6 -1 -10 -2 -13c-1 -7 -10 -28 -25 -64c-5 -11 -10 -26 -15 -46c-1 -5 -4 -13 -7 -23c-3 -11 -6 -18 -7 -22
c-1 -5 -4 -12 -6 -23c-4 -11 -6 -19 -8 -24c-1 -4 -4 -11 -7 -22s-6 -19 -7 -24c-1 -3 -1 -8 -2 -13c-1 -6 -1 -10 -2 -13c-1 -1 -8 -24 -23 -67c-5 -22 -11 -45 -20 -70c-3 -13 -6 -20 -9 -21c-1 -3 -8 -3 -24 -3c-14 2 -24 2 -28 2c-32 0 -49 1 -50 4c-1 2 0 6 1 12
c1 5 3 11 5 17c3 6 4 10 4 11c5 15 8 28 10 39c7 25 11 38 12 40c2 9 6 22 12 38c4 19 8 32 11 41c1 2 2 8 5 18c2 9 4 16 6 20c8 20 13 33 14 38c4 17 7 30 10 39c1 4 4 10 6 19c4 9 6 15 7 20c5 17 9 30 12 38l12 39c1 5 3 13 7 25c2 11 6 21 8 29c4 8 7 16 10 23
c2 4 4 10 6 20c3 8 5 15 6 19c1 5 4 11 7 19c3 9 5 14 6 17c9 26 8 44 -2 55c-7 9 -23 13 -48 13c-27 0 -47 0 -60 -1c-7 -1 -18 -1 -31 -2h-28h-8h-12h-9c-24 2 -38 -4 -43 -19c-1 -1 -2 -11 -3 -31c0 -17 -1 -27 -3 -29c-3 -3 -11 -4 -24 -4c-11 -1 -28 -1 -51 -1
c-13 0 -21 1 -23 2c-3 4 -4 19 -1 44c1 11 1 26 0 45v45v22c-1 13 -1 20 1 22c1 1 11 2 29 2c13 0 23 0 30 1z" />
    <glyph glyph-name="eight" unicode="8" horiz-adv-x="573" 
d="M270 766c17 1 32 2 43 1c5 -1 17 -3 37 -6c5 -1 11 -2 20 -5c8 -3 13 -4 16 -5c17 -5 27 -9 32 -12c3 -2 7 -5 12 -11c6 -4 10 -8 12 -9c17 -13 29 -25 34 -34c1 -1 3 -4 4 -7c2 -4 3 -7 4 -8c1 -3 4 -8 10 -13c4 -5 8 -10 9 -13c3 -8 7 -29 12 -62c2 -13 1 -36 -2 -68
c-3 -28 -13 -54 -30 -79c-1 -1 -2 -3 -5 -5c-2 -4 -4 -6 -4 -7c-2 -1 -3 -3 -5 -7c-2 -2 -3 -5 -4 -7s-1 -4 -2 -7s-1 -6 -1 -8c1 -4 2 -6 3 -9c1 -5 3 -9 6 -13c3 -3 6 -7 11 -12l9 -9c5 -4 10 -10 14 -17c7 -6 13 -13 16 -20c9 -20 15 -53 19 -98c0 -25 -1 -43 -4 -54
c-4 -21 -7 -36 -10 -47c-5 -11 -11 -23 -20 -36c-20 -29 -38 -48 -53 -57c-4 -2 -10 -6 -17 -10c-8 -6 -14 -9 -17 -10c-7 -3 -15 -5 -23 -6c-2 -1 -5 -2 -10 -4c-5 -1 -8 -2 -11 -3c-10 -3 -26 -5 -48 -6c-48 -5 -83 -5 -104 0c-31 6 -58 15 -83 28c-35 19 -62 47 -81 84
c-8 13 -13 27 -16 40c-2 6 -3 15 -4 27c-1 11 -1 19 -2 23c-2 8 -3 16 -3 23c0 5 1 14 2 26c2 46 18 85 49 117c1 1 4 4 8 7c4 4 7 7 9 10c2 2 4 5 8 10c2 4 4 8 3 11s-1 8 -2 15c-1 1 -6 9 -16 23c-1 2 -4 6 -7 11c-4 6 -7 11 -8 14s-4 13 -9 30c-11 34 -14 68 -11 103
c2 21 7 41 16 62c1 5 6 13 15 24c8 13 13 20 16 23c27 28 48 45 65 52c4 2 14 5 30 9c28 7 51 10 68 11zM231 660c-15 -5 -27 -11 -35 -16c-8 -6 -15 -15 -22 -26c-13 -23 -19 -47 -19 -70c1 -34 12 -59 32 -76c11 -9 33 -19 66 -31c5 -1 12 -3 21 -5c10 -1 17 -2 20 -3
c22 -3 36 -4 43 -2c33 9 57 31 72 68c17 40 15 78 -5 114c-24 42 -67 61 -128 57c-17 -1 -32 -4 -45 -10zM230 337c-10 -4 -20 -9 -30 -16c-20 -12 -33 -21 -40 -28c-12 -13 -21 -36 -28 -68c-3 -17 0 -36 7 -55c1 -3 2 -7 3 -13s3 -10 4 -13c6 -11 12 -20 19 -25
c13 -13 28 -23 43 -29c15 -7 35 -11 60 -12c26 -2 48 -1 67 2c11 3 20 6 27 9c2 1 6 2 12 5c7 3 11 5 14 6c16 9 29 24 40 44c10 20 15 41 16 64c0 32 -10 57 -29 75c-5 5 -15 12 -31 21c-17 10 -29 16 -36 18c-4 1 -11 2 -20 4c-10 1 -17 3 -22 4s-12 2 -20 5
c-7 3 -14 5 -20 5c-7 2 -13 2 -20 1s-13 -3 -16 -4z" />
    <glyph glyph-name="nine" unicode="9" horiz-adv-x="557" 
d="M248 766c27 1 50 1 68 -2c25 -5 44 -9 59 -14c17 -5 27 -8 28 -9c7 -2 22 -11 43 -28c10 -9 20 -22 30 -39c6 -10 13 -25 21 -45c1 -1 2 -5 5 -11c3 -5 4 -10 5 -13c3 -8 5 -20 6 -36c0 -1 1 -10 4 -27c3 -18 4 -32 3 -42c-1 -14 -1 -26 1 -36c3 -15 3 -39 1 -74
s-2 -60 -1 -76c1 -11 1 -19 1 -24c-1 -5 -2 -14 -2 -24c-2 -12 -2 -20 -2 -25c-1 -9 -2 -22 -4 -38l-4 -32c0 -6 -3 -16 -8 -31c-1 -3 -2 -8 -4 -14c-1 -8 -3 -13 -4 -17c-8 -19 -17 -36 -27 -51c-3 -4 -8 -9 -15 -16c-7 -6 -12 -10 -13 -11c-13 -11 -21 -17 -24 -20
c-6 -4 -16 -9 -31 -14c-17 -6 -29 -10 -35 -11c-20 -4 -48 -6 -83 -6c-1 0 -15 1 -43 3c-13 1 -26 3 -38 6c-19 5 -39 14 -61 29c-9 7 -17 14 -24 22c-1 2 -5 6 -10 10c-6 6 -10 10 -12 13c-8 9 -17 30 -28 62c-3 11 -5 31 -8 59c0 12 0 18 1 19c3 3 10 4 21 2h49
c13 0 20 -1 22 -2c1 -1 2 -4 3 -8s1 -9 2 -13c0 -6 0 -9 1 -10c12 -53 44 -84 95 -93c23 -4 46 -4 69 1s41 12 55 23c13 9 24 23 33 41c11 20 17 38 20 55c1 2 3 13 6 33c3 30 -3 47 -17 50c-11 3 -27 1 -48 -6c-52 -14 -101 -16 -148 -5c-35 8 -61 19 -79 32
c-17 13 -27 22 -30 26c-13 15 -22 25 -25 30c-17 29 -28 55 -32 79c-5 19 -7 35 -7 50c-1 61 4 111 17 149c1 5 4 11 9 19s8 14 9 17c10 18 23 33 38 46c19 15 36 26 50 31c25 8 38 12 41 12c13 3 30 4 51 4zM218 665c-33 -10 -56 -26 -67 -49c-1 -2 -5 -10 -10 -23
c-4 -11 -6 -19 -7 -24c-1 -2 -1 -6 0 -12v-13s-1 -6 -2 -10s-2 -6 -2 -7c-3 -18 -3 -36 2 -54c1 -4 3 -10 4 -18c2 -8 3 -13 4 -15c8 -22 22 -40 43 -55c27 -19 63 -26 108 -20c20 1 33 3 40 5c9 1 19 6 30 14c2 1 6 4 13 8c7 3 12 6 15 8c9 7 19 19 28 37c5 13 6 28 5 46
c-2 37 -7 67 -15 90c-5 17 -10 29 -15 37c-8 15 -21 27 -38 37c-29 18 -63 26 -103 23c-3 0 -14 -2 -33 -5z" />
    <glyph glyph-name="colon" unicode=":" horiz-adv-x="191" 
d="M93 537c11 3 24 -1 38 -10c18 -11 27 -28 27 -51c1 -20 -4 -35 -17 -45c-11 -13 -24 -20 -38 -21c-12 -1 -24 1 -36 6c-12 6 -20 13 -25 21c-7 11 -10 23 -9 36c1 8 3 17 8 28c3 11 7 18 12 23c3 2 10 4 19 7c8 3 15 5 21 6zM84 113c32 3 54 -7 66 -29c7 -12 9 -25 8 -38
c0 -19 -6 -34 -18 -43c-14 -13 -32 -17 -54 -14c-23 3 -38 14 -45 31c-9 16 -10 34 -4 55c7 22 22 35 47 38z" />
    <glyph glyph-name="semicolon" unicode=";" horiz-adv-x="196" 
d="M88 534c10 1 21 -1 32 -4c11 -4 19 -9 23 -14c8 -9 13 -22 14 -38c1 -22 -5 -40 -19 -54c-15 -13 -32 -18 -51 -15c-1 0 -8 4 -23 11c-21 13 -31 31 -31 52c1 17 8 33 19 46c9 10 21 15 36 16zM91 113c26 1 44 -6 55 -22c15 -23 20 -47 16 -72c-3 -38 -20 -75 -51 -110
c-5 -8 -10 -12 -15 -12c-4 -1 -12 4 -23 13l-7 7c-2 3 -4 5 -5 6c-7 9 -10 14 -10 15c0 2 2 6 7 12c4 7 6 12 7 15c3 9 3 16 0 23c-3 6 -7 12 -13 18s-10 11 -11 14c-7 12 -9 25 -7 39c3 19 11 33 23 44c9 7 20 10 34 10z" />
    <glyph glyph-name="less" unicode="&#x3c;" horiz-adv-x="356" 
d="M265 546c5 1 11 -5 18 -16c3 -5 8 -12 13 -20c5 -10 10 -16 13 -21c7 -11 11 -18 10 -21c0 -4 -5 -9 -15 -14c-9 -5 -22 -15 -42 -29c-18 -14 -34 -24 -46 -31c-19 -11 -30 -20 -33 -25c-5 -10 -5 -20 0 -29c2 -4 5 -8 8 -10c3 -4 8 -7 15 -10c6 -4 10 -6 11 -7
c18 -11 30 -18 36 -22c7 -5 19 -13 34 -25c2 -1 5 -4 10 -6c5 -4 8 -5 9 -6c9 -7 13 -11 13 -14c1 -5 -2 -12 -10 -22c-11 -17 -20 -31 -27 -40c-7 -11 -12 -17 -15 -17c-3 -1 -8 2 -16 8c-4 2 -19 11 -45 28c-3 1 -22 14 -59 37c-9 6 -18 12 -29 18c-17 12 -27 19 -29 20
c-3 3 -8 6 -15 10c-6 4 -11 7 -14 10c-16 10 -25 17 -27 21c-1 4 -2 10 -2 17s0 16 1 24c1 10 1 16 1 20c0 11 0 18 1 21s2 5 6 7c2 3 7 6 12 8c5 4 9 5 10 6c3 2 7 5 14 10s11 8 14 9c7 5 17 11 30 20c12 9 21 15 26 18c3 3 8 6 16 9c6 4 11 7 14 9c7 4 17 10 30 19
s22 15 28 18c3 1 8 4 14 9c7 5 12 8 15 9h2z" />
    <glyph glyph-name="equal" unicode="=" horiz-adv-x="440" 
d="M222 506h8c4 -1 7 -1 10 -2c4 -1 7 -1 10 -1c7 0 20 0 38 1c17 1 31 1 40 0c16 -1 29 -2 38 -1c23 0 36 -1 37 -2s2 -9 2 -22c1 -17 1 -34 0 -52c0 -13 -1 -21 -2 -22c-3 -4 -18 -5 -43 -3h-48c-41 0 -72 -1 -93 -2c-5 -1 -21 0 -46 2h-46c-23 0 -38 0 -47 1
c-28 0 -43 1 -45 2c-1 1 -1 3 -1 7c-1 2 -1 6 0 8c0 4 0 6 -1 9c-1 10 0 27 1 51l3 22c2 1 17 2 46 2h29c14 1 25 1 36 1c10 0 19 0 28 -1h24c9 1 17 2 22 2zM63 301c17 0 30 0 38 -1c5 -1 13 -1 23 0c9 1 15 1 17 1c1 0 5 -1 10 -1c5 -2 9 -2 12 -2c6 0 16 0 29 2
c14 0 24 1 31 0s28 -1 61 -1c10 0 25 0 46 -1c20 -1 35 -1 46 -1c17 0 26 -1 28 -3c1 -1 2 -9 2 -23v-23c1 -11 1 -19 1 -25c1 -12 1 -20 -2 -23s-15 -4 -36 -4c-4 -1 -17 0 -39 2c-18 0 -31 0 -39 -1c-5 0 -11 -1 -20 -2s-15 -2 -19 -2c-3 0 -11 1 -23 3c-12 1 -22 2 -29 2
h-54c-24 1 -43 1 -56 1h-29c-13 0 -21 1 -25 3c-3 3 -4 20 -2 49c0 11 0 19 1 25c0 13 1 21 2 22s3 2 6 2c3 1 6 1 11 1h9z" />
    <glyph glyph-name="greater" unicode="&#x3e;" horiz-adv-x="357" 
d="M88 545c3 1 6 0 10 -2s8 -5 14 -8c4 -3 8 -5 9 -6c17 -12 37 -25 58 -38c9 -4 18 -11 28 -20c2 -1 5 -3 9 -5c5 -3 9 -5 12 -7l9 -6c2 -1 6 -5 13 -10c6 -5 11 -9 15 -11c1 -1 11 -6 31 -17c16 -12 25 -20 26 -23c1 -1 2 -8 2 -19c-1 -11 -1 -19 -1 -22
c0 -24 0 -37 -1 -39c-1 -3 -10 -10 -27 -22c-5 -4 -15 -10 -30 -19c-3 -2 -8 -5 -14 -10s-11 -8 -14 -10c-7 -4 -16 -10 -27 -17c-11 -8 -22 -15 -32 -22c-9 -6 -19 -12 -28 -18c-25 -16 -39 -25 -44 -28c-8 -5 -14 -8 -17 -8c-2 0 -4 1 -6 4c-2 2 -4 5 -5 8c-2 3 -3 5 -4 6
c-3 5 -12 19 -27 41c-1 1 -3 4 -7 9c-3 5 -5 9 -5 12c1 3 6 8 15 15c3 2 11 7 25 16s24 16 30 21c17 12 29 20 36 23c19 13 30 22 32 28c2 5 2 11 0 20c-1 3 -3 7 -6 9c-3 4 -5 6 -7 7c-1 1 -5 4 -10 7s-8 5 -9 6c-21 14 -33 22 -36 25c-5 3 -11 7 -19 13c-8 5 -14 9 -17 11
c-7 5 -13 9 -18 12c-11 8 -16 13 -16 15c0 3 4 10 11 22c2 3 4 7 8 12c2 5 6 10 10 15c3 5 6 9 8 12c8 11 13 17 16 18z" />
    <glyph glyph-name="question" unicode="?" horiz-adv-x="533" 
d="M293 772c7 0 18 -1 34 -4c19 -1 37 -6 55 -15c2 -1 6 -2 12 -5c7 -2 11 -4 13 -5c3 -3 8 -7 14 -14s11 -11 15 -13c1 -1 5 -4 14 -11c8 -7 13 -12 16 -17c1 -2 3 -6 6 -14c2 -6 4 -12 6 -16c1 -2 2 -5 4 -9c3 -4 5 -8 6 -11c2 -3 3 -6 3 -9c1 -1 3 -14 6 -38
c2 -14 3 -28 3 -41v-21c-1 -9 -1 -16 -2 -20c-1 -5 -4 -17 -11 -35c-7 -20 -16 -39 -29 -57c-2 -3 -6 -7 -11 -13c-5 -4 -9 -8 -10 -10c-2 -3 -5 -7 -9 -13c-3 -6 -6 -10 -8 -12c-2 -3 -11 -12 -27 -28c-3 -6 -7 -11 -12 -15l-13 -13c-3 -3 -8 -8 -13 -15s-8 -12 -9 -13
s-3 -4 -7 -9s-7 -8 -7 -9c-2 -1 -3 -4 -6 -9c-3 -4 -5 -8 -6 -10c-1 -4 -2 -7 -4 -12c0 -5 -1 -10 -2 -15v-17v-18c-1 -6 -2 -9 -3 -10c-2 -1 -11 -2 -26 -2h-13c-5 1 -9 1 -12 1c-11 -1 -19 -2 -25 -1c-15 1 -22 3 -23 4c-5 5 -5 23 0 54c0 26 2 44 6 54c5 14 18 36 39 67
l13 13c5 7 9 11 12 14l14 14c5 7 9 11 12 14c20 21 36 39 48 56c9 12 16 23 21 32c1 2 3 7 8 15s8 14 9 19c5 21 6 41 2 58c-5 18 -12 34 -22 48c-11 13 -24 23 -39 29c-6 2 -17 3 -31 4c-16 1 -25 1 -30 2c-18 3 -38 1 -60 -4c-14 -3 -28 -12 -43 -25
c-12 -11 -23 -34 -32 -69c-5 -16 -9 -24 -10 -25c-2 -1 -6 -2 -11 -3s-12 -1 -20 -1h-15h-24c-13 0 -21 1 -23 2c-5 2 -6 13 -4 32c9 37 14 58 16 63c1 3 4 8 7 13c3 6 6 10 7 13c6 13 11 22 14 25c10 14 23 27 39 40c2 1 5 4 10 9s8 8 11 9c1 1 3 1 6 2h7c3 1 5 1 6 1
c3 1 11 3 23 7s22 7 29 8c10 1 25 2 45 2c21 1 34 1 41 2zM255 115c15 2 28 0 40 -6s20 -14 23 -25c4 -8 6 -21 6 -39c-1 -19 -8 -33 -20 -43c-12 -9 -28 -14 -47 -14c-14 0 -26 5 -37 14c-13 11 -19 25 -20 42c0 16 1 28 4 36s10 16 20 23c9 7 20 11 31 12z" />
    <glyph glyph-name="at" unicode="@" horiz-adv-x="740" 
d="M393 631c3 1 24 -1 64 -5c20 -2 30 -3 31 -3c5 -1 14 -3 27 -8c20 -6 36 -12 49 -19c19 -9 34 -17 45 -25c21 -16 33 -26 37 -31c19 -22 29 -35 31 -39c8 -12 16 -27 24 -46c1 -1 3 -11 6 -28c1 -3 2 -7 4 -13c2 -7 3 -11 4 -14c1 -7 2 -19 2 -38c1 -11 0 -24 -2 -37
c-4 -31 -8 -53 -12 -66c-11 -35 -18 -55 -20 -59c-13 -21 -24 -36 -32 -46c-20 -21 -34 -34 -41 -39c-21 -11 -40 -19 -57 -23c-2 -1 -7 -2 -15 -4c-7 -2 -13 -3 -17 -4h-17c-8 1 -15 1 -21 1h-39c-3 0 -6 0 -12 -1h-14c-4 0 -8 0 -11 1c-1 1 -5 2 -11 5c-5 3 -9 4 -11 4
h-15c-4 -1 -8 -4 -13 -6c-5 -4 -9 -5 -12 -6c-16 -6 -34 -6 -53 1c-9 3 -22 11 -38 23c-24 18 -39 44 -44 78c-3 25 -1 62 8 111c3 19 8 35 14 47c5 9 8 16 11 20c4 12 7 20 10 25c9 9 19 17 29 22c17 11 28 17 33 18c32 12 61 11 86 -2c1 -1 5 -3 10 -8s11 -8 17 -10
c5 -2 11 -2 18 -1c4 1 8 3 12 8c5 5 9 7 14 8c1 1 6 2 17 1l16 -1c19 0 30 -1 31 -3c1 -1 2 -4 2 -8s0 -9 -1 -14s-1 -9 -1 -11c-2 -23 -3 -35 -4 -36c-1 -3 -5 -5 -10 -8s-9 -6 -11 -9l-5 -5c-3 -7 -8 -29 -13 -65c-8 -41 -9 -66 -2 -77c5 -9 14 -13 27 -12
c11 0 24 5 38 15c1 1 6 5 13 11c7 5 12 10 15 13c12 13 24 36 35 69c5 15 8 30 9 44v51c0 11 -3 25 -9 43c-8 22 -13 34 -14 37c-2 3 -5 6 -8 9c-3 4 -6 7 -7 8s-6 7 -14 17c-9 9 -22 18 -39 25c-19 9 -33 14 -44 17c-15 5 -33 8 -54 10c-29 3 -48 4 -59 2
c-7 -1 -15 -2 -25 -5l-27 -6c-1 0 -15 -6 -44 -19c-15 -6 -29 -12 -41 -19c-23 -13 -43 -34 -62 -64c-3 -5 -11 -19 -22 -41c-2 -5 -6 -12 -13 -21c-6 -8 -10 -13 -11 -16c-7 -12 -12 -28 -15 -48c-7 -31 -10 -48 -11 -53c-1 -24 0 -44 3 -59c1 -9 3 -18 6 -25
c3 -17 5 -27 6 -28c1 -3 3 -8 6 -15c3 -6 5 -10 6 -11c7 -15 11 -24 13 -26c9 -18 20 -32 34 -43c5 -5 13 -10 25 -16c10 -7 18 -11 22 -14c12 -7 32 -13 60 -16c31 -5 54 -7 71 -6c7 1 19 2 35 2c17 2 29 2 37 3c13 1 35 5 65 12c23 6 37 11 44 14s11 5 14 4s6 -7 9 -17
c7 -17 11 -31 12 -42c2 -14 3 -22 2 -23c-1 -4 -11 -9 -30 -14c-11 -5 -22 -8 -34 -10c-6 -1 -14 -3 -23 -5c-10 -3 -19 -5 -27 -6c-8 -2 -16 -3 -24 -3c-3 0 -9 -1 -18 -2s-16 -2 -21 -2c-28 -2 -56 -1 -83 3c-1 0 -6 0 -17 1c-10 1 -18 1 -23 2c-29 5 -52 11 -69 20
c-1 1 -6 2 -14 5c-7 3 -13 5 -17 7c-19 11 -44 30 -73 58c-5 3 -12 11 -21 24c-1 1 -4 5 -9 11c-5 7 -8 12 -9 15s-4 9 -7 19c-3 8 -6 15 -8 20c-11 38 -18 66 -20 85c-3 25 -5 40 -5 47c0 57 6 104 17 142l6 21c1 11 3 18 4 21c3 6 7 14 12 23c1 1 4 10 11 25
c5 10 16 23 31 40c2 2 6 8 14 18c6 9 12 16 17 20c4 4 11 9 20 16s16 12 19 15c2 1 5 4 10 7c5 4 8 7 11 8c2 1 6 3 11 6c6 2 10 4 13 6c13 6 20 10 23 11c1 1 10 4 26 9c30 11 70 18 121 21zM317 310c-5 -10 -10 -28 -15 -54c-5 -39 3 -63 24 -74c13 -6 27 -7 41 -4
c14 4 25 11 32 21c4 6 7 22 10 47c0 3 1 10 3 21s2 20 1 28c-1 14 -7 25 -18 34s-23 12 -38 10c-17 -2 -31 -12 -40 -29z" />
    <glyph glyph-name="A" unicode="A" horiz-adv-x="683" 
d="M395 753c5 1 11 0 19 -1c8 -2 14 -3 19 -3h9c6 0 10 0 14 -1s7 -2 8 -3c2 -3 2 -9 1 -20c0 -4 0 -11 1 -21c1 -9 1 -18 1 -25s-1 -13 -2 -17c-1 -3 -3 -6 -9 -10c-4 -3 -8 -7 -9 -10c-2 -4 -3 -9 -3 -14s0 -10 2 -14c0 -5 2 -10 4 -16c2 -7 3 -11 4 -14
c2 -9 6 -20 11 -32c3 -7 6 -18 11 -32c4 -14 7 -24 9 -30c3 -8 7 -20 10 -34c3 -16 6 -26 8 -31c7 -19 11 -29 12 -31c4 -13 8 -24 11 -31c4 -11 8 -28 14 -51c4 -22 9 -38 12 -48c1 -3 4 -8 6 -14c4 -7 6 -12 7 -15c1 -4 2 -10 3 -17c1 -8 3 -14 4 -18c2 -11 5 -22 9 -32
c16 -39 24 -58 25 -59c6 -11 17 -18 33 -20c15 -1 23 -3 24 -5c2 -3 3 -16 3 -40c0 -3 0 -7 1 -14s1 -12 1 -16c-1 -5 -2 -8 -3 -10c-3 -3 -21 -4 -54 -4c-13 0 -23 0 -28 -1c-2 0 -6 -1 -12 -3s-11 -3 -15 -2c-1 0 -8 2 -21 5c-4 1 -11 1 -22 1c-29 0 -44 1 -46 3
c-1 1 -2 5 -3 9c-1 6 -1 11 -1 18v12c0 25 1 39 2 41c1 3 5 5 11 7l8 3c11 7 15 19 12 38c-1 2 -2 5 -4 10c-1 5 -2 8 -3 10c-11 35 -21 55 -29 62c-7 5 -24 9 -53 10h-61h-31c-4 0 -9 0 -16 -1h-15h-12h-12h-10c-5 -1 -8 -1 -11 -2s-5 -2 -9 -2c-2 -2 -5 -3 -7 -4
c-2 -2 -4 -4 -6 -7c-3 -4 -5 -8 -6 -13s-3 -10 -4 -18c-1 -6 -3 -12 -4 -16c-1 -2 -3 -7 -5 -14c-4 -8 -5 -14 -6 -16c0 -4 0 -9 1 -18c3 -9 8 -15 15 -17l8 -1c5 -1 9 -3 12 -6c1 -2 2 -9 2 -21v-45c0 -11 -1 -18 -2 -19c-2 -2 -10 -3 -25 -3h-41c-17 -1 -30 -1 -39 -1
c-5 0 -14 0 -27 1c-12 1 -21 1 -27 1c-1 0 -6 0 -15 -1c-8 -1 -15 -1 -22 -1c-6 0 -10 1 -13 3c-1 1 -1 2 -1 5c-1 3 -1 6 -2 9v8c-1 6 -1 14 0 24c1 9 1 16 1 20c0 13 1 21 2 22c2 2 8 3 18 3c19 1 32 8 39 22c1 3 3 7 6 15c2 6 4 11 6 14c2 6 5 16 8 30c4 14 7 25 10 33
c1 3 2 9 3 17c1 7 3 13 4 16s2 6 5 11c2 5 3 8 4 10c5 13 12 34 20 65c3 13 12 42 27 85c1 5 4 12 9 21c4 9 7 15 8 19c4 10 9 24 16 42s12 31 15 39c2 5 4 13 6 23s4 18 5 23s4 11 10 20c4 9 8 16 9 21c3 14 1 25 -8 32c-1 1 -5 3 -10 5c-5 3 -9 5 -10 7c-1 1 -1 9 -1 22
c0 1 0 7 -2 18c0 11 -1 20 0 27c0 8 1 13 4 16c1 1 5 2 11 2c6 1 12 1 17 0c6 0 11 0 16 1c31 1 61 1 90 0c9 0 16 0 21 1h6c2 1 5 1 7 2c4 1 6 1 7 1zM302 483c-1 -5 -4 -13 -7 -21c-3 -10 -6 -17 -8 -24c-4 -17 -9 -32 -15 -44c-9 -17 -13 -33 -12 -46
c2 -24 27 -34 75 -30c5 1 12 1 23 2c11 0 20 1 27 2s13 3 18 6c15 9 16 34 1 75c-5 9 -11 25 -18 48c-8 23 -13 37 -15 42c-9 19 -17 31 -24 34c-5 2 -10 3 -16 2s-11 -3 -15 -7c-3 -5 -6 -12 -9 -22s-4 -16 -5 -17z" />
    <glyph glyph-name="B" unicode="B" horiz-adv-x="590" 
d="M201 749c9 1 22 1 41 -1c18 0 31 -1 38 -1c28 0 54 -1 78 -3c33 -4 56 -8 68 -13c6 -3 12 -6 16 -9c6 -4 11 -9 17 -14c6 -6 10 -10 13 -12c15 -15 27 -30 34 -47c3 -7 7 -17 11 -30c5 -13 8 -24 9 -32c3 -29 3 -54 -1 -75c-6 -25 -13 -46 -20 -61c-1 -3 -5 -7 -11 -15
c-5 -6 -9 -14 -12 -20c-3 -8 -3 -15 0 -23c1 -3 3 -7 6 -10s6 -7 10 -10s7 -6 8 -8c4 -4 12 -13 23 -28c11 -14 20 -39 29 -74c4 -19 7 -33 8 -43c1 -25 -2 -55 -9 -92c-4 -18 -8 -30 -13 -37c-16 -25 -32 -44 -48 -55c-21 -14 -46 -23 -75 -27c-3 -1 -10 -2 -20 -3
c-10 -2 -18 -3 -24 -4c-13 -1 -34 -2 -61 -3c-28 -1 -48 -2 -61 -3c-2 0 -5 -1 -11 -2c-4 -2 -8 -3 -11 -3s-7 1 -12 3c-5 1 -9 2 -11 3c-4 1 -28 1 -73 1h-24c-11 1 -21 1 -28 1h-26c-13 0 -21 1 -23 3s-3 12 -3 30c0 5 0 10 -1 17s-1 11 -1 14c0 18 2 29 7 32
c3 1 7 3 14 3c7 2 11 2 13 3c10 4 17 10 20 19s4 31 3 64s-1 54 0 64c2 23 3 45 2 64v32c0 14 0 25 -1 32c-1 15 -1 36 -1 66c0 28 0 50 -1 65c-2 24 -3 46 -2 67c3 17 4 33 1 48c-2 16 -9 26 -21 31c-3 1 -7 1 -11 1c-6 1 -10 1 -14 2c-3 1 -5 2 -6 3s-1 7 -1 20
c1 11 2 18 2 22c0 1 0 5 -1 13s-1 15 0 20c0 5 1 9 3 11c2 1 15 2 40 2c20 0 34 0 41 1h12h16h13c11 -1 25 0 42 1zM201 599c-1 -41 -2 -74 -2 -97c0 -24 2 -39 5 -46c1 -3 3 -5 4 -6c2 -2 4 -4 7 -4c3 -2 5 -2 7 -3s5 -1 10 -1c4 -1 7 -1 9 -1h11h11c75 0 123 15 142 45
c13 19 17 47 14 82c-3 28 -15 49 -34 64c-13 10 -35 16 -66 19c-42 1 -69 2 -82 1c-14 -1 -23 -6 -29 -14c-4 -9 -7 -22 -7 -39zM206 321c-5 -7 -7 -23 -7 -50c0 -4 0 -12 -1 -25v-30c0 -9 -1 -18 -4 -27c-7 -37 -7 -62 0 -76c6 -10 24 -14 53 -13h13c5 -1 9 -1 12 -1
c73 -4 122 1 147 16c16 11 27 22 34 31c13 21 16 54 9 99c-5 29 -22 52 -49 69c-13 9 -35 15 -66 18c-34 4 -61 6 -81 5c-3 0 -9 0 -17 -1c-8 0 -14 0 -18 -1s-9 -2 -13 -5c-6 -2 -9 -5 -12 -9z" />
    <glyph glyph-name="C" unicode="C" horiz-adv-x="668" 
d="M379 770c5 1 17 -1 34 -4c33 -7 54 -12 62 -16c21 -9 34 -12 41 -11c3 1 8 3 12 7c6 5 10 7 14 8h10c6 0 9 0 12 1c19 0 34 0 45 -1c12 0 19 -1 21 -2c1 -1 3 -7 5 -19c1 -13 2 -21 2 -24s-1 -7 -1 -14c-2 -7 -2 -11 -2 -13s1 -6 2 -12c1 -2 2 -5 3 -10s2 -8 3 -11v-8
c-1 -3 -1 -6 -1 -7c0 -2 -1 -6 -1 -13c-2 -7 -2 -12 -2 -16v-15c0 -1 -1 -5 -2 -10s-2 -10 -2 -14c-1 -2 -1 -5 -1 -8s0 -6 -1 -9s-2 -4 -3 -5c-3 -4 -16 -5 -40 -2c-27 0 -41 0 -43 1s-4 4 -7 9s-4 8 -5 9c-1 2 -4 7 -9 16c-5 7 -13 17 -22 30c-13 17 -33 32 -60 44
c-9 4 -22 8 -39 11c-19 5 -33 8 -44 9c-39 4 -70 1 -91 -10c-5 -3 -13 -9 -23 -19c-29 -22 -49 -42 -60 -59c-4 -6 -9 -16 -14 -31s-8 -23 -9 -25c-1 -4 -3 -9 -5 -16c-3 -7 -4 -11 -5 -13c-4 -15 -7 -25 -8 -32c-1 -9 -4 -20 -7 -34s-6 -24 -7 -31c-1 -14 0 -38 4 -73
c2 -27 7 -49 15 -64c1 -2 4 -10 8 -25c6 -15 10 -25 15 -32l15 -24c2 -3 5 -8 8 -13c4 -5 7 -9 8 -11c11 -13 26 -24 45 -34c5 -3 13 -8 23 -15c11 -7 19 -12 26 -15c7 -2 17 -4 32 -7c12 -3 24 -5 35 -5c21 -1 42 3 64 11c23 9 40 20 52 32c22 22 37 53 46 93
c3 9 5 14 6 15c3 2 20 3 49 3c3 0 7 0 12 -1h13c14 -2 21 -3 22 -4c3 -3 4 -13 1 -30c-2 -23 -5 -42 -10 -57c-1 -3 -3 -7 -5 -13c-2 -5 -3 -9 -4 -11c-2 -6 -9 -16 -22 -31c-14 -19 -22 -29 -23 -31c-5 -7 -14 -15 -28 -26c-2 -1 -5 -3 -10 -7c-4 -2 -8 -5 -12 -8
c-4 -2 -8 -4 -11 -5c-13 -7 -41 -15 -82 -25c-18 -4 -34 -6 -47 -7c-1 0 -4 0 -10 -1s-10 -1 -13 -2c-15 -3 -28 -3 -38 1c-6 2 -16 4 -29 7c-13 2 -22 3 -26 4c-2 1 -13 5 -34 12c-23 9 -43 20 -59 31c-3 2 -8 5 -13 11c-5 4 -9 8 -11 10l-11 12c-6 4 -9 8 -11 11
c-11 11 -18 19 -21 24c-2 3 -4 8 -7 15s-5 11 -6 14c-2 3 -5 8 -9 13l-9 12c-9 19 -17 39 -24 59c-1 3 -3 7 -6 14s-5 12 -6 16c-1 3 -3 9 -4 17s-2 14 -3 17c-2 10 -2 23 -1 38c0 5 -1 12 -3 20c-1 10 -2 15 -2 18c-1 12 1 29 5 50c6 46 11 77 15 93c5 26 8 40 9 43
c4 12 9 25 14 40c1 5 4 11 9 20c4 8 7 13 8 16c3 8 10 19 21 33c3 3 7 9 11 15c5 8 8 12 11 15s7 7 13 12s10 7 11 8c3 2 7 5 11 10c6 5 9 8 12 10c17 15 35 25 56 31c6 1 17 4 32 9s28 8 38 9c13 1 27 1 42 0c9 0 22 1 41 2z" />
    <glyph glyph-name="D" unicode="D" horiz-adv-x="619" 
d="M142 752c3 1 8 0 16 -1c6 -1 12 -2 15 -2c13 -1 24 -2 32 -2c6 0 17 0 33 1c15 0 26 0 32 -1c34 -1 55 -3 62 -4c36 -5 69 -17 100 -35c10 -5 24 -13 41 -25c19 -15 41 -39 64 -70c9 -12 16 -27 22 -45c2 -6 5 -14 9 -26c5 -10 8 -18 9 -23c1 -6 3 -15 6 -27
c3 -11 5 -20 7 -27c3 -19 5 -39 6 -60v-33c1 -18 2 -28 2 -31c-3 -31 -4 -51 -5 -62c-1 -25 -4 -45 -9 -59c-1 -2 -2 -6 -4 -12c-1 -6 -2 -11 -3 -14c-3 -17 -6 -28 -9 -34c-3 -5 -8 -13 -17 -25c-11 -18 -16 -27 -17 -28c-14 -23 -27 -38 -40 -47c-23 -15 -41 -26 -56 -33
c-7 -4 -30 -11 -67 -21c-16 -4 -29 -6 -38 -6c-16 -1 -30 -2 -41 -2c-5 0 -12 0 -21 -1s-17 -1 -22 -1l-42 3c-9 0 -23 0 -42 -1s-33 -1 -44 -1h-43c-25 0 -39 1 -42 4c-1 2 -2 9 -2 20c-1 17 -2 31 -1 41c1 13 3 20 4 21c2 2 7 4 17 5c8 1 14 2 15 3c15 4 23 12 26 24
c1 6 2 27 2 63c1 9 1 21 0 36c-1 16 -1 26 -1 29v65c2 39 3 60 3 61c0 6 -1 16 -2 31c-1 12 -1 29 0 52s1 37 1 44v65v17v16v14c-1 7 -2 12 -2 14c-2 4 -3 7 -5 11s-5 7 -8 10s-7 5 -11 6c-3 1 -7 1 -13 1c-6 1 -11 1 -17 2c-4 1 -8 2 -9 3c-1 2 -2 5 -3 8c0 3 0 7 1 13
c1 4 1 8 1 9v31c2 19 3 28 4 29s10 2 27 2c1 0 10 0 28 -1c18 0 27 0 27 1c3 1 7 2 12 3c6 1 10 2 12 2zM214 644c-3 -2 -6 -5 -8 -8s-4 -8 -4 -13c-2 -5 -2 -10 -2 -13c-1 -3 -1 -9 -1 -16v-15v-57c1 -13 2 -31 3 -55c1 -11 0 -30 -1 -56c-1 -7 -1 -16 0 -29s1 -21 1 -26
c0 -31 1 -50 2 -57c2 -11 4 -28 5 -52c1 -7 1 -18 0 -31s-1 -22 -1 -26c0 -3 0 -9 1 -17s1 -14 1 -19c0 -19 1 -31 3 -34c5 -12 16 -18 35 -20c18 0 35 1 51 5c39 5 62 8 67 9c13 4 30 13 50 26c17 11 31 25 40 42c10 16 19 39 28 68c16 56 18 114 6 173l-6 42
c-11 41 -25 75 -43 101c-13 20 -29 35 -50 46c-8 5 -19 10 -32 15c-5 1 -11 4 -19 7c-7 4 -12 7 -15 8c-23 9 -52 11 -89 8c-10 0 -17 -2 -22 -6z" />
    <glyph glyph-name="E" unicode="E" horiz-adv-x="611" 
d="M104 751c5 1 14 0 28 -1c13 -1 23 -2 30 -2c14 1 33 0 58 -1h18h22h18c3 0 13 1 28 1c16 2 26 1 29 0c14 -1 34 0 59 1c7 1 18 1 30 0c14 -1 23 -1 29 -1c46 2 76 3 89 2c15 0 24 -1 26 -3c3 -1 4 -17 4 -46c0 -6 0 -14 1 -24s1 -17 1 -22c1 -6 0 -14 0 -23
c-2 -10 -2 -18 -2 -23c0 -29 -1 -44 -3 -46c-1 -1 -16 -2 -45 -2c-30 0 -46 1 -48 2c-2 2 -3 11 -3 28c0 2 0 7 1 15v16c-1 2 -2 5 -3 10s-3 8 -6 10c-3 3 -6 5 -11 7c-4 1 -9 2 -16 3h-22c-8 -1 -14 -1 -19 -1s-14 0 -27 -1s-23 -1 -29 0c-3 0 -7 0 -13 1c-7 1 -12 1 -15 1
s-8 0 -14 -1s-11 -1 -14 -1c-4 -1 -9 -1 -16 -1s-12 0 -15 -1c-4 0 -8 -1 -12 -2c-5 -1 -8 -3 -12 -6c-2 -2 -5 -5 -7 -9c-3 -6 -4 -24 -4 -55c-1 -33 -2 -52 -2 -58c1 -3 1 -7 2 -12c1 -6 1 -10 1 -13c1 -7 1 -17 0 -29c-1 -14 -1 -25 0 -36c0 -10 2 -18 5 -23
c2 -3 4 -5 7 -7s6 -4 10 -5l10 -3c4 -2 8 -2 14 -2c6 -1 10 -1 13 -2h15h14c4 -1 10 -1 19 0s14 1 16 1c18 1 31 3 38 7s12 13 13 26l3 18c3 1 9 2 19 2h12h14h14c10 0 16 -1 18 -2c3 -2 4 -17 4 -44c0 -6 0 -14 -1 -24c-1 -9 -1 -16 -1 -21s0 -12 1 -21c1 -10 1 -18 1 -24
c0 -26 -1 -40 -4 -42c-2 -2 -5 -3 -10 -4c-5 0 -10 0 -17 1s-10 1 -11 1s-5 0 -12 -1s-12 -1 -16 -1c-5 1 -8 2 -11 4c-3 1 -5 5 -5 11c-2 6 -2 9 -3 10c-5 10 -15 16 -31 17c-16 2 -34 2 -54 0h-23c-11 1 -19 1 -23 0c-5 0 -10 -1 -18 -2c-6 -1 -12 -4 -15 -7s-6 -8 -8 -13
c-1 -2 -2 -16 -4 -43c-3 -17 -6 -31 -8 -42v-46c0 -13 0 -23 1 -27c0 -6 2 -11 6 -18c4 -6 10 -10 18 -11c1 -3 11 -4 31 -3s31 1 34 1c57 0 90 0 99 1s20 0 31 -2c26 -4 42 2 49 17c5 9 8 27 8 54c-1 9 -1 14 1 17s6 4 11 4c5 1 12 0 20 0c8 -2 13 -2 15 -2
c5 -1 13 -1 24 -1c13 0 21 -1 23 -2c1 -1 2 -16 2 -43c-1 -12 -1 -28 0 -47s1 -33 1 -41v-15c0 -7 0 -13 -1 -19c-1 -4 -2 -8 -3 -9c-2 -1 -13 -2 -33 -2h-104h-22h-26h-22c-4 0 -16 1 -34 1c-20 2 -31 1 -35 0c-11 -1 -45 -1 -102 1c-8 0 -19 -1 -34 -2c-3 0 -9 0 -17 1
h-18h-67c-19 0 -30 1 -31 4c-1 1 0 7 2 18c1 9 2 23 2 43c0 11 1 18 3 19c1 1 9 2 25 4c21 1 33 8 38 19c3 6 5 27 5 64c0 8 0 19 1 33v33v21v25v20c1 29 2 51 1 66v33c0 16 0 27 -1 34c-1 8 -1 20 0 35s1 25 1 30c1 14 1 36 1 66c1 37 -2 59 -7 68c-4 5 -9 9 -14 11
c-5 3 -13 4 -22 4h-8c-4 0 -7 0 -10 1s-4 2 -5 3c-1 3 -2 10 -2 22c-1 7 0 23 1 48c0 13 1 20 2 22c1 1 4 2 7 2c3 1 8 1 12 1h11c6 0 16 1 31 2z" />
    <glyph glyph-name="F" unicode="F" horiz-adv-x="597" 
d="M496 751c3 1 8 1 14 -1c8 0 13 -1 18 -1h10c5 0 10 0 14 -1c5 -1 7 -2 8 -3c2 -3 3 -11 3 -25c0 -29 0 -47 1 -53c0 -1 1 -9 3 -25c0 -1 -1 -5 -1 -11c-2 -6 -2 -11 -2 -15c0 -15 -1 -23 -3 -25c-1 -1 -8 -2 -21 -2h-45c-11 0 -18 1 -21 2c-1 1 -2 3 -2 5c-1 3 -1 6 -1 9
v8c-1 22 -10 35 -27 38h-26c-5 0 -14 1 -26 2c-11 1 -29 0 -52 -1c-11 -1 -29 0 -54 1c-26 1 -43 1 -52 -2c-10 -1 -17 -5 -22 -12c-3 -3 -4 -7 -6 -13c0 -4 -1 -9 -2 -12v-16v-16c0 -2 0 -7 -1 -14s-1 -13 0 -17c0 -2 0 -7 1 -13c1 -8 1 -13 0 -16c-1 -13 -2 -23 -3 -28
c0 -4 0 -9 1 -16v-15c0 -4 0 -11 -1 -21c-1 -9 -1 -16 -1 -20c0 -5 0 -10 2 -17c0 -7 2 -12 6 -16c2 -4 6 -7 11 -9s11 -3 17 -4c5 0 13 0 24 2c10 0 16 1 19 1c9 0 19 0 28 1h25c7 1 14 3 19 8c5 4 9 10 10 18c0 1 0 4 1 8v10c1 3 2 6 3 7c2 2 5 3 11 3c4 1 11 1 18 0
s12 -1 13 -1c4 -1 9 -1 15 -1c5 1 11 1 18 0c6 0 10 -1 11 -3c1 -1 2 -5 3 -12v-19c-1 -6 -1 -11 0 -14c0 -5 0 -12 -1 -22c-1 -11 -1 -19 0 -25c1 -23 1 -47 0 -72c0 -13 -1 -21 -2 -22s-8 -2 -20 -2c-3 0 -7 0 -12 -1h-11c-24 -2 -38 -1 -43 3c-1 1 -2 5 -3 12
c0 7 0 11 -1 12c-4 20 -31 29 -81 26h-4h-4h-28c-12 0 -21 0 -26 -1c-5 0 -11 -2 -18 -6c-6 -3 -10 -9 -12 -17c-2 -12 -3 -25 -3 -39c-1 -19 -2 -33 -1 -43v-28v-27c1 -9 3 -16 6 -23s8 -11 15 -14c5 -2 13 -3 26 -3c15 0 23 -1 26 -3c2 -3 3 -10 3 -22v-11
c1 -5 1 -8 1 -10c2 -26 1 -41 -2 -44c-3 -2 -11 -3 -26 -3c-11 -1 -26 -1 -43 0s-30 1 -37 1h-85c-15 0 -23 1 -25 2c-2 2 -3 16 -3 42v21c0 12 1 19 2 22c1 1 5 2 12 3c7 0 11 0 14 1c15 4 24 19 25 46c0 4 0 10 1 17v17c0 1 0 5 -2 13c0 8 -1 14 -1 19c-1 8 -1 19 1 33
c0 15 1 26 1 33c-3 29 -3 52 -2 68c0 2 0 7 1 15s1 14 0 18c-2 39 -3 61 -2 66c1 28 2 50 2 67v34c1 15 2 26 1 34v17c0 9 0 15 -1 18c0 3 0 8 -1 14c-1 7 -2 12 -3 14c-2 4 -4 7 -7 10s-6 6 -10 7c-3 1 -8 1 -17 2s-14 2 -17 4c-4 3 -6 12 -6 25c0 3 1 8 1 14
c2 8 2 14 2 19c2 20 3 30 4 31c3 2 13 3 28 3h88c13 1 32 1 58 1c25 -1 44 -1 56 0c5 0 24 -1 56 -2c13 -1 32 0 58 0c26 2 45 2 57 1c17 -1 36 0 57 2z" />
    <glyph glyph-name="G" unicode="G" horiz-adv-x="673" 
d="M425 764c20 -5 35 -9 45 -13c2 -1 6 -2 10 -4c6 -2 9 -3 11 -4s6 -1 11 -2s9 0 11 2c2 1 5 3 10 6s8 5 11 6c8 3 24 3 48 1h12c5 -1 10 -1 13 -1c15 0 23 -1 24 -3c2 -3 3 -7 3 -14c0 -6 0 -13 -1 -22c-1 -8 -1 -13 -1 -15v-106c0 -11 0 -19 -1 -26c0 -14 -1 -22 -3 -24
c-3 -3 -16 -4 -39 -1c-3 0 -9 0 -15 -1c-8 -1 -13 -1 -18 -1c-4 1 -7 2 -10 3c-4 2 -9 11 -15 28c-3 7 -8 16 -14 27c-10 15 -26 28 -47 39c-39 21 -71 31 -96 31c-11 0 -23 -2 -36 -5c-35 -9 -57 -16 -64 -21c-30 -20 -47 -32 -50 -35c-16 -20 -27 -37 -34 -50
c-1 -2 -2 -5 -4 -9c-1 -4 -3 -8 -4 -11l-4 -10c-1 -2 -2 -7 -4 -15c-3 -8 -5 -14 -7 -18c-1 -1 -3 -7 -9 -16c-4 -10 -7 -18 -8 -25s-2 -17 -2 -30s0 -23 -1 -28c0 -5 0 -14 -1 -27s-1 -23 -2 -30c0 -7 0 -16 2 -26c0 -10 2 -19 4 -27c1 -3 2 -7 4 -13c1 -5 2 -9 2 -10
c1 -3 2 -7 2 -12c2 -5 2 -9 3 -12c5 -14 11 -27 18 -40c12 -19 30 -41 53 -64c26 -27 49 -43 70 -47c13 -3 31 -5 55 -5c7 -1 17 0 29 2c11 2 20 3 25 3c24 0 44 7 59 19c16 14 31 31 45 53c1 1 2 5 5 9c3 6 5 10 6 13c2 3 4 7 6 13c1 4 2 9 2 14s-1 9 -3 13
c-2 5 -5 9 -8 11c-3 4 -8 5 -13 6c-6 1 -11 1 -16 1c-4 0 -10 0 -18 -1h-17c-7 0 -19 0 -33 2c-16 0 -27 1 -35 1c-11 0 -18 1 -20 3s-3 6 -3 12c-1 6 -1 14 0 22c1 10 1 15 1 16c1 5 1 13 1 26c0 15 0 23 1 24c3 3 13 4 31 4c10 0 26 0 48 -2c23 0 40 -1 51 0
c6 1 23 2 49 0c28 0 44 -1 51 -1c21 0 32 -1 34 -3c3 -4 3 -14 2 -29c0 -4 0 -9 -1 -17v-14c0 -5 0 -15 2 -28c0 -14 1 -25 0 -33c-2 -27 -2 -59 -1 -94c1 -13 2 -23 2 -30c0 -2 -1 -6 -1 -11c-2 -6 -2 -10 -2 -13c-1 -5 -1 -24 -1 -55c0 -15 0 -24 -1 -25
c-2 -3 -16 -4 -43 -4h-46c-3 1 -7 3 -11 7c-4 3 -7 5 -9 6c-3 3 -8 3 -15 2c-8 -1 -13 -2 -16 -3c-2 -1 -6 -3 -14 -6c-6 -3 -11 -5 -13 -6c-9 -3 -24 -7 -45 -11c-5 -1 -24 -1 -56 -1h-56l-48 9c-28 6 -55 17 -80 34c-3 3 -9 6 -18 12c-8 4 -14 9 -17 12
c-4 4 -12 15 -25 32c-17 21 -26 31 -26 32l-10 19c-4 9 -7 15 -10 20c-11 13 -17 26 -20 37c-1 3 -3 7 -4 12s-2 9 -3 11c-1 5 -4 15 -9 31s-8 29 -9 38c0 3 0 15 -1 36s-2 36 -4 46c0 2 -1 6 -2 12c-2 5 -3 9 -3 12c0 2 1 5 2 10c1 4 2 7 2 9c1 1 4 21 9 59
c2 15 8 40 17 73c3 8 8 19 15 31c8 14 13 23 16 30c7 15 18 35 34 58c1 1 4 5 8 12c5 7 9 12 12 15c2 2 6 5 12 10c5 5 9 8 12 11l10 10c6 5 11 9 14 12c5 5 15 10 30 15c8 4 19 8 33 13c12 5 38 10 78 14c8 0 19 0 32 1s25 1 35 1c10 -1 21 -2 33 -4z" />
    <glyph glyph-name="H" unicode="H" horiz-adv-x="656" 
d="M557 754c2 1 7 0 14 -2c7 -1 13 -2 17 -2c19 0 29 -1 31 -2c1 -1 3 -9 4 -26c0 -3 1 -8 3 -12c1 -6 2 -9 2 -12s-1 -8 -4 -16c-1 -8 -3 -13 -4 -14c-2 -2 -6 -3 -14 -4c-6 -1 -11 -2 -13 -3c-8 -2 -14 -7 -18 -16c-2 -4 -3 -9 -3 -15c-1 -5 -1 -11 0 -16
c0 -6 0 -13 -1 -20c-2 -16 -3 -34 -3 -53v-18v-19v-17c-1 -17 -1 -35 0 -53c0 -9 -1 -25 -2 -50s-1 -43 0 -56c1 -7 0 -24 -1 -51c-1 -6 -1 -15 0 -27s1 -21 1 -27c0 -3 0 -9 -2 -15c0 -8 -1 -12 -1 -14c0 -3 0 -8 1 -14v-17v-11v-12v-10v-10c1 -3 1 -6 2 -10
c1 -3 2 -6 2 -8c2 -2 3 -4 4 -6c1 -3 3 -5 5 -6c2 -2 4 -4 7 -5c13 -4 20 -6 21 -7c3 -3 4 -17 4 -40c-1 -4 -1 -8 -1 -13c1 -5 1 -9 0 -15c0 -4 0 -8 -1 -9c-3 -2 -17 -3 -44 -3h-55c-26 -1 -45 -1 -58 -1c-12 0 -19 1 -22 3c-1 1 -2 4 -3 8s-1 9 -1 16c-1 6 -1 10 -1 11
c0 23 1 35 3 38c1 1 2 1 4 2s4 1 6 1c2 1 3 1 4 1c19 3 31 10 35 20c4 8 5 19 4 33c0 1 0 6 -1 15s-1 16 -2 21c-1 7 -2 18 -4 33s-3 25 -4 32v17c-1 7 -1 13 -2 16c0 3 0 8 -2 14c0 6 -2 11 -4 14c-1 3 -4 7 -6 10c-4 3 -7 6 -11 7c-4 2 -9 3 -15 3c-6 1 -14 1 -22 0
c-10 -1 -16 -1 -19 -1c-2 0 -12 0 -31 1c-18 0 -27 0 -28 -1c-7 -1 -18 -1 -30 0c-14 1 -23 1 -30 1c-3 0 -9 0 -16 -2c-8 0 -12 -1 -13 -1c-22 -1 -36 -7 -41 -16c-3 -5 -6 -20 -7 -43c0 -12 1 -28 1 -48c2 -21 2 -37 1 -49c0 -29 2 -46 5 -52c6 -10 18 -16 35 -17h3
c2 -1 4 -1 4 -1c2 0 3 0 4 -1c1 0 2 0 3 -1c2 -2 3 -8 4 -18s1 -17 0 -21c0 -9 0 -16 -1 -22c0 -10 -1 -16 -2 -18c-1 -1 -9 -2 -25 -3h-25h-52c-26 0 -43 0 -52 1h-26c-13 -1 -22 -1 -25 1c-2 2 -3 15 -3 39c-4 21 -4 33 1 38c1 1 6 3 15 4c8 2 13 4 16 5c10 5 16 11 19 20
c1 5 2 27 2 67c0 6 -1 16 -1 31c-2 15 -2 26 -1 34c0 6 0 16 -1 31c-1 14 -1 25 0 33c1 9 1 21 0 37s-1 26 -1 30c-1 4 -1 10 0 18s1 13 1 16c0 9 0 29 -1 62s-1 58 0 75c0 3 0 9 1 15c1 8 1 13 1 17c2 31 0 52 -6 63c-4 12 -14 19 -31 21c-12 1 -18 3 -19 4
c-1 2 -2 9 -2 22c0 3 0 6 -1 11v10c-2 23 -1 37 2 41c3 3 13 4 30 4h68c4 0 10 0 17 1s13 1 16 1c5 0 11 -1 19 -1c9 -2 16 -2 21 -2c27 0 42 -1 43 -2s2 -2 2 -5c1 -3 1 -6 2 -9v-6c1 -9 0 -24 -1 -44c0 -11 -1 -18 -3 -20s-7 -3 -16 -3c-19 -2 -30 -9 -34 -22
c-4 -9 -5 -26 -4 -50c0 -5 0 -14 1 -27c1 -12 1 -21 1 -26v-15c-1 -5 -1 -12 -2 -19s-1 -13 -1 -17c-2 -20 -2 -35 1 -45c2 -11 9 -18 21 -21c8 -3 27 -4 57 -4c5 0 15 0 28 1c13 0 23 0 30 -1h58h7c13 0 23 0 29 1c7 0 14 2 20 5c8 3 12 8 14 15c3 6 5 23 5 51
c1 25 1 42 0 53c0 3 -1 12 -1 24c-2 14 -2 23 -2 30v26c1 15 0 24 -2 25c-5 13 -17 20 -36 22c-11 0 -18 1 -19 4c-2 2 -3 8 -3 18c-1 13 -1 27 0 41c0 10 1 16 3 18c3 4 16 5 37 2c11 -1 26 -1 44 0s30 1 36 1s13 1 21 3c8 1 13 2 16 2z" />
    <glyph glyph-name="I" unicode="I" horiz-adv-x="331" 
d="M122 750c3 0 9 0 20 -1c10 -1 18 -1 24 -1s19 0 39 1s36 1 47 0c5 -1 10 -1 15 -1c5 1 11 1 16 0c5 0 9 -1 11 -2c5 -5 6 -15 4 -32c0 -2 0 -7 -2 -15c0 -8 -1 -14 -1 -18c0 -17 0 -25 -1 -26s-12 -2 -33 -2c-29 -1 -45 -14 -47 -37c0 -1 0 -6 1 -12c1 -8 1 -13 0 -17
c0 -2 0 -7 -1 -14s-1 -13 0 -16c0 -4 0 -9 2 -17c0 -6 1 -12 1 -15v-36c0 -1 1 -24 3 -68v-47c0 -26 1 -46 2 -59c0 -4 1 -9 2 -15c1 -7 2 -12 2 -15c1 -1 0 -8 -2 -21c-3 -26 -1 -63 4 -112v-15c1 -7 1 -12 2 -15c0 -3 0 -7 2 -12c0 -4 2 -7 5 -10s6 -5 10 -7s10 -4 19 -5
c11 -2 18 -4 19 -6s2 -6 3 -11v-15c-1 -6 -1 -10 0 -14c0 -1 0 -6 1 -12c1 -8 1 -14 1 -18c-1 -6 -2 -9 -4 -10c-3 -2 -13 -3 -30 -3c-14 0 -38 1 -72 1c-35 2 -62 2 -83 1c-3 0 -7 0 -14 -1s-12 -1 -15 -1c-17 0 -27 1 -29 3c-1 2 -2 15 -2 40s1 38 2 39c3 3 11 4 26 4
c25 3 39 11 43 22c2 5 3 18 3 39c0 5 0 13 1 22v21c-1 15 0 39 0 69c2 32 1 55 0 70c-1 6 0 15 0 28c2 12 2 20 2 25c0 7 0 17 -1 31c-1 15 -1 26 -1 34c0 71 1 113 2 128c4 41 -2 64 -18 71c-4 2 -20 4 -49 6c-8 0 -13 1 -15 3c-3 2 -4 13 -4 32c0 3 0 7 1 14s1 12 1 16
c0 17 1 27 3 30c1 1 15 2 41 2c8 0 23 1 44 2z" />
    <glyph glyph-name="J" unicode="J" horiz-adv-x="621" 
d="M403 751c4 1 11 0 22 -1s18 -2 23 -2c10 0 25 0 46 -1c20 -1 36 -1 47 -1c27 0 42 -1 43 -2c3 -3 4 -17 4 -43v-13c0 -6 0 -13 -1 -18s-2 -9 -4 -11c-1 -2 -4 -3 -9 -3c-4 -1 -9 -1 -14 -1c-6 0 -10 0 -13 -1c-11 -3 -20 -9 -26 -19c-2 -6 -3 -13 -4 -20s-1 -17 0 -29
c1 -11 1 -18 1 -21v-37c0 -5 0 -11 1 -18c1 -8 1 -14 1 -17s0 -9 -1 -17c-1 -9 -1 -15 -1 -19c0 -19 0 -45 1 -80s1 -66 1 -95c-1 -28 -2 -54 -5 -77c-2 -22 -7 -42 -14 -60c-10 -32 -16 -50 -18 -55c-7 -14 -18 -28 -32 -42c-2 -2 -5 -5 -10 -9s-8 -7 -9 -8
c-2 -1 -5 -4 -10 -9s-9 -8 -12 -10s-9 -5 -17 -8s-14 -6 -17 -7c-22 -10 -47 -17 -75 -22c-12 -2 -30 -2 -55 1c-25 2 -42 4 -53 7c-12 3 -23 7 -32 10c-3 1 -6 1 -11 3c-4 0 -8 2 -12 2c-3 2 -7 3 -10 4c-17 9 -33 21 -47 36c-18 18 -30 34 -36 47c-3 5 -7 18 -14 39
c-8 22 -13 52 -14 90c-1 2 -1 6 -1 12c-1 6 -1 10 -1 13c0 13 1 21 3 23c4 4 20 4 48 1c3 -1 8 -1 12 -1c6 -1 10 -1 13 -1c13 0 21 -1 23 -2c2 -2 3 -5 4 -9c0 -3 0 -8 -1 -13s-1 -8 -1 -9c1 -2 2 -12 4 -30c2 -17 7 -34 16 -49c17 -33 41 -53 70 -61c20 -8 38 -12 54 -12
c23 -1 42 1 56 8c31 17 54 38 69 63c1 2 4 8 10 19s10 19 12 25c3 7 4 16 5 27c1 10 1 22 0 35c0 13 0 23 1 30c1 3 1 9 1 15c0 8 0 13 1 17c3 31 4 51 3 61c-1 15 0 36 3 62c1 8 1 20 -1 34c0 16 -1 25 -1 29c0 6 1 16 2 31v8v7v8v8v24c0 11 0 20 -1 25c0 5 -1 11 -4 18
c-2 7 -6 11 -11 14s-14 5 -27 6c-14 0 -22 1 -25 4c-3 2 -4 9 -4 21c-1 15 -1 31 0 47c0 13 1 20 2 22c3 2 11 3 26 3c5 1 10 1 16 3c6 0 9 1 10 1z" />
    <glyph glyph-name="K" unicode="K" horiz-adv-x="662" 
d="M93 751c7 1 33 0 76 -2c3 0 9 0 17 -1h20c22 0 34 -1 35 -2c2 -1 3 -8 3 -20c1 -6 1 -14 0 -22c-1 -10 -1 -16 -1 -20c0 -12 -1 -19 -3 -21c-1 -1 -6 -2 -15 -3s-14 -1 -15 -2c-8 -3 -14 -9 -18 -16c-3 -8 -3 -27 0 -58c1 -7 1 -18 0 -32v-30c2 -35 3 -55 4 -62
c1 -9 2 -19 2 -29c-1 -15 0 -26 4 -33c5 -8 13 -11 26 -9c8 1 20 8 36 20c3 3 13 11 32 24c6 3 16 11 31 24c12 10 22 19 29 27c15 18 30 40 44 67c1 4 4 10 9 19c5 8 8 14 10 19c13 38 11 61 -8 68l-11 2c-7 1 -11 3 -12 6c-1 2 -2 14 -2 37c0 24 1 37 2 38c1 2 10 3 27 3
c9 0 22 1 39 3c17 3 29 4 37 4c12 -1 30 0 54 1c5 1 14 0 27 -1c13 0 21 -1 23 -4s3 -16 3 -41c0 -27 -1 -41 -4 -43c-1 -1 -9 -2 -22 -2c-15 -1 -26 -5 -32 -14c-7 -8 -12 -20 -15 -37c-4 -16 -17 -51 -40 -104c-3 -7 -9 -16 -18 -29c-9 -12 -15 -22 -18 -29
c-6 -11 -12 -21 -18 -30c-1 -1 -3 -4 -7 -8c-2 -4 -5 -7 -6 -9s-3 -5 -4 -8c-2 -4 -3 -8 -3 -11c-1 -9 3 -25 14 -50c10 -18 17 -32 22 -43c2 -5 7 -18 15 -40c8 -23 15 -40 21 -52c23 -47 38 -75 45 -85c16 -25 37 -35 63 -31c14 4 23 5 27 4c3 -1 6 -6 9 -16
c1 -1 3 -6 6 -16c3 -8 6 -16 7 -21c2 -14 3 -21 3 -22c-1 -3 -8 -7 -21 -10c-20 -7 -37 -10 -51 -11c-3 0 -8 -1 -15 -2c-8 -2 -14 -3 -18 -2c-3 0 -11 2 -26 6c-36 9 -65 34 -86 75c-2 5 -6 13 -10 23c-6 9 -9 16 -11 20c-24 60 -36 91 -37 92c-1 3 -4 9 -9 20
s-9 19 -12 24c-13 27 -19 41 -20 42c-8 12 -20 16 -35 12c-5 -1 -10 -4 -14 -6c-6 -4 -11 -7 -18 -12c-6 -4 -11 -7 -14 -9c-1 -1 -7 -3 -18 -7c-10 -5 -17 -9 -20 -14c-4 -4 -7 -10 -8 -18c-2 -7 -2 -27 0 -60v-22c1 -10 1 -18 2 -22c0 -6 1 -11 4 -16c2 -6 5 -11 9 -14
c1 -1 4 -2 11 -4c6 -1 10 -3 12 -5c2 -3 3 -6 4 -11c0 -4 0 -10 -1 -17s-1 -12 -1 -15c0 -2 0 -7 1 -15s1 -14 0 -19s-2 -8 -4 -10c-1 -1 -17 -2 -47 -2h-50c-6 1 -14 1 -26 0h-24h-26h-8c-3 1 -6 1 -10 1c-2 0 -4 0 -5 1c-2 1 -3 5 -4 10s-1 12 -1 20v14c0 27 1 41 2 43
c2 2 6 3 13 5c7 0 11 1 12 2c13 5 20 21 22 46c1 9 1 25 0 48c-1 22 0 37 2 45c1 7 1 18 0 33s-1 25 0 32s1 18 1 32v31c0 59 0 102 -1 130c0 6 1 16 2 31c0 15 0 25 1 32c3 16 4 33 2 51c-1 18 -7 30 -18 35c-8 1 -15 2 -20 3c-11 0 -18 1 -19 2c-2 3 -3 11 -3 25
c-1 23 -2 40 -1 51c2 15 3 23 4 24c2 1 12 2 29 2c6 0 16 1 29 2z" />
    <glyph glyph-name="L" unicode="L" horiz-adv-x="588" 
d="M121 751c3 1 8 0 17 -1c8 -1 14 -2 18 -2h18c9 1 15 1 19 1c16 0 28 0 37 -1c21 0 33 -1 35 -2c1 -1 2 -8 2 -20c-1 -9 -1 -17 0 -22c0 -25 -1 -39 -2 -41c-1 -1 -7 -2 -18 -3c-21 -2 -34 -10 -39 -24c-1 -4 -2 -26 -2 -65v-33c1 -14 1 -26 1 -33v-21v-25v-20
c1 -29 2 -50 1 -65c-1 -12 -1 -33 -1 -62c0 -30 -1 -53 -2 -68v-20v-24v-22v-16v-15c0 -3 0 -7 1 -13c0 -6 0 -10 2 -13c0 -3 2 -6 3 -9c1 -4 3 -7 6 -9s6 -4 9 -5c8 -3 18 -4 29 -5s24 -1 39 0s26 1 34 0c16 -2 35 -2 56 -1c27 1 43 3 50 5l9 3c3 2 5 4 7 6c1 1 3 4 4 7
s2 6 3 8s1 5 1 10c1 5 1 8 2 11v12v13c0 10 1 16 3 17c1 1 8 3 21 4c10 0 18 0 23 1c27 0 41 -2 44 -5c1 -1 1 -2 1 -4v-10c1 -3 1 -6 1 -8c1 -38 1 -76 0 -115c0 -2 0 -7 1 -15c1 -9 1 -16 0 -20c0 -6 -1 -9 -3 -10c-1 -1 -11 -2 -30 -2c-15 0 -26 0 -33 -1
c-7 0 -17 0 -32 1c-14 0 -25 0 -32 -1c-28 -1 -49 -2 -64 -2c-14 0 -36 0 -66 1c-29 1 -51 1 -64 1c-7 0 -18 0 -32 -1h-32h-67c-5 1 -16 1 -31 1c-17 0 -27 1 -30 3c-2 2 -3 11 -3 28c0 2 0 5 -1 10c-1 4 -1 8 -2 10v9c0 18 3 28 8 31c2 2 8 3 19 3c15 1 25 6 31 16
c3 0 4 10 2 29c0 20 -1 32 -1 35c1 7 1 19 1 35v32c3 29 3 51 2 67c-1 13 -2 24 -2 32c0 3 0 9 1 15c1 8 1 13 1 17v33c-1 14 -1 26 0 33c1 14 0 37 0 67c-2 32 -1 54 0 68c2 32 1 53 -4 63c-4 7 -11 12 -21 15c-1 0 -6 0 -15 1s-14 2 -16 4c-1 1 -2 8 -2 21v24
c0 28 1 43 4 46c1 1 4 2 9 2c5 1 10 1 17 0h13c16 0 30 1 42 3z" />
    <glyph glyph-name="M" unicode="M" horiz-adv-x="844" 
d="M772 748c15 1 23 0 26 -3c4 -6 5 -22 3 -47c0 -3 0 -8 -1 -13v-12c0 -14 -1 -22 -2 -23c-2 -3 -10 -4 -23 -4c-21 -2 -33 -9 -38 -21c-4 -11 -5 -32 -4 -64c0 -3 1 -24 3 -64c0 -21 1 -42 3 -63c0 -3 1 -13 3 -28c1 -15 2 -27 1 -36c-1 -11 0 -32 1 -63v-67
c0 -6 0 -16 2 -30c0 -15 1 -26 1 -35c0 -5 0 -11 -1 -21v-20c0 -6 0 -11 1 -18c1 -6 2 -11 5 -16c3 -4 6 -7 11 -9c3 -1 10 -3 21 -4c3 -1 6 -1 10 -1c3 0 6 0 8 -1c3 -1 5 -2 6 -3c2 -3 3 -16 3 -40c2 -23 1 -36 -4 -41c-2 -1 -11 -2 -27 -2c-13 0 -37 0 -71 -1
c-34 0 -58 0 -73 1h-30c-16 0 -25 1 -27 2c-3 3 -4 16 -2 37v20c0 10 1 16 2 18s6 3 13 4c8 1 13 1 15 2c9 3 15 9 19 16c3 6 5 31 5 74l1 38c0 26 0 39 -1 39c-1 31 0 56 3 75c1 7 1 20 1 37v39c-3 10 -10 17 -19 20s-18 2 -25 -5c-5 -5 -11 -16 -18 -35
c-13 -27 -22 -52 -29 -74c-11 -36 -21 -61 -28 -75c-4 -9 -9 -21 -16 -37c-7 -17 -12 -29 -15 -36c-7 -19 -13 -29 -19 -32c-3 -1 -16 -2 -38 -2c-23 0 -36 1 -39 3c-4 2 -10 13 -17 34c-2 5 -4 9 -6 13c-1 4 -3 8 -4 12c-2 5 -4 8 -5 11s-6 15 -14 37c-10 23 -21 46 -32 70
c-1 1 -3 7 -6 16c-3 10 -6 17 -9 21c-9 18 -15 30 -16 35c-9 22 -14 34 -15 35c-5 7 -11 11 -18 15c-7 2 -15 1 -24 -4c-5 -4 -7 -11 -9 -20v-38c2 -15 2 -26 2 -31c-1 -17 -2 -43 -2 -79c0 -7 -1 -20 -2 -36c-2 -18 -3 -31 -2 -42v-39c-3 -29 5 -46 26 -53c1 0 7 0 16 -1
c10 -1 16 -2 18 -4c1 -1 2 -4 2 -9c1 -5 1 -10 0 -17s-1 -11 -1 -12c0 -2 0 -6 1 -13c1 -6 1 -11 0 -16c0 -5 -1 -8 -2 -10c-3 -4 -12 -5 -27 -3h-30c-31 -1 -51 -2 -59 -1c-9 1 -39 1 -90 1c-17 0 -27 1 -29 2c-1 1 -2 7 -3 20c-1 9 0 23 1 42c0 11 1 18 2 20c1 1 3 2 6 3
h11c4 0 7 0 10 1c22 0 36 6 42 17c3 5 4 26 4 64c0 3 0 14 1 33s1 29 0 32s-1 8 -2 15s-1 12 -2 16c-1 7 -1 18 -1 33c-1 5 -2 17 -2 33c1 18 1 28 1 33c-3 35 -4 69 -2 100c1 11 1 27 -1 49c0 22 -1 39 0 51c5 31 4 52 -1 63s-17 17 -38 18c-15 2 -23 3 -24 3
c-2 3 -3 11 -3 24v25c-1 11 -1 20 -1 27c0 12 1 19 4 22c1 1 3 1 6 1c3 1 6 1 10 2h9c8 1 30 2 66 0c35 0 57 -1 65 -1c3 0 8 0 13 1h13c13 0 21 -1 25 -2c2 -1 6 -9 11 -23c14 -29 24 -53 30 -71c3 -7 6 -16 11 -26c4 -12 7 -19 8 -22c3 -7 10 -23 21 -48
c4 -11 11 -26 21 -45c11 -19 18 -35 22 -48c3 -9 7 -22 14 -38s11 -28 14 -35c8 -21 16 -32 24 -33c5 -1 10 -1 15 2c8 3 17 16 28 41c2 5 5 14 9 24c5 12 8 19 10 24s5 13 8 24l9 27c1 3 3 10 7 22s7 21 10 27c1 1 7 18 18 50c1 5 4 12 9 23s8 19 10 25c1 1 6 18 15 53
c1 3 3 7 6 12c2 5 4 9 5 12c5 13 9 21 12 23c3 1 18 2 45 2c51 0 81 0 92 -1s26 0 44 1z" />
    <glyph glyph-name="N" unicode="N" horiz-adv-x="740" 
d="M571 748h34l33 1c23 1 34 0 35 -1c20 0 31 -1 32 -2c2 -2 3 -9 3 -22c1 -3 2 -10 0 -21c0 -11 -1 -19 -1 -24c1 -11 1 -18 -1 -20c-1 -1 -4 -2 -8 -3c-3 -1 -7 -1 -12 -1s-8 0 -10 -1c-9 -3 -16 -9 -20 -20c-5 -10 -7 -21 -6 -34c0 -13 0 -26 1 -40c0 -14 1 -27 3 -39
v-39c0 -37 0 -64 1 -81c0 -2 -1 -29 -3 -80c0 -9 1 -22 2 -40s2 -32 1 -41c0 -2 0 -13 -1 -34s-1 -36 -2 -46c-2 -14 -3 -34 -2 -60c0 -25 0 -46 -1 -62c-1 -3 -1 -7 -1 -12c-1 -6 -1 -11 -2 -16c-1 -4 -2 -7 -3 -8c-4 -4 -19 -5 -46 -3c-31 2 -47 3 -48 3
c-5 1 -13 9 -23 24c-5 6 -11 15 -19 28c-8 12 -14 21 -19 27c-2 3 -5 8 -10 13c-5 6 -8 11 -10 14c-5 7 -12 17 -21 29s-16 20 -19 25c-4 7 -10 18 -20 31c-8 13 -14 22 -17 26c-3 5 -8 14 -17 27s-15 24 -19 31c-7 11 -19 31 -34 60c-11 15 -18 24 -21 26c-1 3 -4 7 -8 14
c-3 7 -6 12 -9 16c-1 3 -3 5 -5 9c-2 2 -4 6 -8 9c-2 3 -5 6 -6 9c-12 14 -20 21 -25 22c-13 4 -22 -1 -29 -14c-1 -3 -2 -10 -2 -19v-17c-1 -8 -1 -47 -1 -117c2 -76 3 -115 3 -117c2 -28 6 -45 13 -52c2 -2 5 -4 8 -6c1 -1 3 -1 7 -2c5 -1 9 -2 12 -2c3 -2 5 -3 6 -5
c1 -1 1 -9 1 -23c-1 -5 -1 -12 1 -23c0 -11 1 -18 1 -23c-1 -2 -1 -4 -1 -8c-1 -2 -1 -5 -2 -8c-1 -2 -1 -3 -2 -4c-2 -1 -6 -2 -12 -2c-6 -1 -13 -1 -22 0s-14 1 -16 1c-11 -1 -28 -1 -51 -1s-41 0 -52 -1h-25c-15 0 -24 1 -26 4c-1 3 -2 7 -2 12c-1 5 -1 11 0 19
c1 6 1 11 1 13c-3 25 -2 39 1 44c1 2 6 3 16 3c8 1 14 2 17 3c10 4 16 12 18 24c2 1 2 7 1 19c-1 13 -2 19 -2 20v14c1 7 1 11 1 14c-2 47 -3 77 -2 88c0 6 0 15 -1 28c0 13 0 22 1 29c0 1 -1 20 -3 58c-1 9 -2 37 0 87c0 48 1 78 1 89c0 4 0 11 1 21v21c-1 3 -2 8 -3 14
s-4 10 -7 13c-4 3 -9 5 -15 6c-8 1 -15 2 -20 2c-11 2 -17 4 -18 5c-3 3 -3 11 -1 24v25v25c0 14 1 22 3 23s6 2 11 2h17c5 -1 10 -1 15 0h46h22c10 -1 17 -1 22 -1c1 0 4 0 12 1c6 1 13 1 19 0c6 0 11 -1 14 -2c2 -1 4 -3 7 -6c2 -4 4 -8 7 -13s5 -8 6 -10
c10 -13 16 -22 19 -29c7 -12 13 -23 16 -33l9 -15l9 -15c5 -7 11 -19 18 -34s12 -26 15 -32c1 -1 8 -11 19 -30c6 -9 15 -24 27 -44s22 -35 29 -46c2 -3 6 -7 10 -13c6 -6 9 -11 11 -15c19 -32 37 -63 54 -92c19 -34 31 -54 36 -60c3 -3 7 -6 11 -9c7 -3 13 -4 20 -2
c6 1 10 4 13 9c5 8 8 22 9 42c1 5 1 13 2 23v24c1 11 1 27 0 48s-1 37 0 47c1 13 2 31 2 53v41v48c1 12 1 23 1 33s-2 19 -5 26c-4 8 -10 13 -18 16c-7 1 -12 2 -16 3c-8 0 -13 1 -14 4c-2 2 -3 9 -3 20c-3 17 -3 30 0 41c0 10 1 16 3 19c2 2 11 3 26 3h12h12h9z" />
    <glyph glyph-name="O" unicode="O" horiz-adv-x="702" 
d="M378 772c1 0 9 -2 22 -5c5 -1 12 -4 20 -7c9 -3 15 -6 19 -7c6 -1 14 -3 23 -4c5 -1 11 -4 19 -9c8 -4 14 -7 17 -8c20 -11 31 -17 34 -19c4 -3 9 -7 16 -12s12 -8 15 -11c21 -19 38 -38 51 -55c3 -4 7 -9 12 -16c1 -1 3 -4 6 -7c3 -4 5 -7 6 -9c1 -3 2 -7 4 -12
c0 -5 2 -9 3 -12c1 -2 3 -5 5 -10l6 -11c7 -17 11 -33 12 -49c1 -13 4 -31 8 -54c3 -15 5 -25 5 -28s-1 -7 -1 -13c-2 -7 -2 -12 -2 -15v-8v-8v-7v-8c0 -2 -1 -11 -3 -27c-1 -4 -1 -9 -1 -15c1 -7 1 -12 1 -15c-1 -3 -2 -7 -3 -13s-2 -10 -3 -13c-6 -35 -9 -52 -9 -53
c-6 -28 -17 -58 -34 -91c-1 -1 -8 -13 -22 -38l-12 -21c-1 -1 -6 -7 -15 -16c-3 -3 -9 -7 -15 -14c-8 -6 -13 -11 -18 -15c-3 -2 -9 -6 -18 -11s-15 -10 -20 -13c-9 -8 -23 -14 -41 -19c-20 -8 -37 -12 -50 -13c-3 0 -9 0 -15 1h-16c-2 0 -6 -1 -12 -2c-7 -1 -12 -2 -15 -2
s-9 0 -16 2c-7 0 -13 1 -17 1c-26 1 -56 7 -90 18c-19 5 -35 13 -50 22c-3 2 -7 5 -12 9c-5 3 -8 6 -9 7c-31 23 -50 40 -58 51l-26 46c-14 21 -25 46 -33 75c-1 1 -2 5 -4 13l-5 15c-7 25 -10 46 -11 61c0 5 -1 16 -4 32v35c0 7 2 30 5 69c0 11 1 21 3 32l6 30
c5 27 11 45 16 56c5 8 9 16 12 24c11 26 19 42 24 49c2 3 4 7 8 13l5 11c1 1 3 3 7 8s7 9 10 12c0 1 2 4 5 9s6 9 8 11c3 3 8 6 14 9s10 6 11 7s4 3 9 8s9 8 12 10c7 6 16 11 25 15c2 1 5 3 8 6l9 6c3 1 5 2 7 3c9 3 21 6 35 9s26 4 37 5c5 0 15 0 32 -1c16 0 26 1 30 2
c1 0 4 1 8 2s7 2 10 2zM322 663c-3 -1 -7 -1 -12 -1h-13c-11 -3 -23 -8 -36 -16c-35 -22 -60 -48 -75 -79c-3 -5 -6 -13 -9 -21c-3 -10 -5 -15 -6 -16c-7 -19 -12 -32 -13 -39c-1 -5 -2 -12 -6 -21c-2 -9 -4 -16 -5 -20c-3 -22 -6 -53 -9 -93c-1 -18 3 -48 13 -90
c1 -2 2 -8 5 -17c3 -10 5 -17 6 -22c7 -20 20 -43 37 -68c2 -2 5 -7 10 -14c5 -8 8 -14 11 -17s12 -10 25 -19c11 -9 32 -16 63 -23c6 -3 12 -4 19 -4c2 0 5 0 9 1c5 1 8 1 11 1s6 -1 11 -2l7 -2c7 -1 15 -1 23 0c35 3 66 17 95 43c9 8 17 16 22 23c2 3 7 13 16 30
c11 18 16 28 17 29c6 11 11 21 15 31c2 5 7 31 14 78c2 7 4 21 5 43c2 28 3 42 3 43c0 8 -1 16 -2 24s-3 18 -7 29c-2 11 -5 19 -6 24c-2 6 -5 18 -8 36c-3 17 -7 30 -11 37c-3 5 -10 13 -19 23c-10 11 -16 17 -17 18c-11 9 -17 14 -19 17c-3 2 -6 5 -10 10c-3 5 -6 8 -8 9
c-5 5 -22 14 -53 27c-28 9 -51 13 -70 12c-11 -1 -18 -3 -23 -4z" />
    <glyph glyph-name="P" unicode="P" horiz-adv-x="564" 
d="M193 752c1 0 11 -1 28 -3c8 -1 17 -1 25 -1h31c11 1 20 1 26 1c28 0 61 -4 98 -13c17 -5 31 -10 40 -15c26 -15 46 -32 60 -50c6 -7 13 -19 20 -35c15 -33 23 -62 24 -86c1 -23 2 -41 1 -53c-1 -19 -3 -35 -6 -49c-9 -41 -28 -76 -59 -106c-2 -2 -6 -6 -13 -12
c-7 -7 -12 -11 -17 -14s-14 -6 -25 -9s-20 -6 -25 -8c-17 -5 -36 -9 -55 -12c-24 -3 -45 -4 -63 -4c-15 0 -26 0 -33 -1c-7 0 -14 -2 -24 -5c-8 -3 -15 -8 -18 -15c-3 -8 -4 -20 -4 -36c1 -9 0 -22 -1 -38c-3 -17 -3 -35 -1 -54c3 -18 10 -29 21 -34c2 -1 8 -2 18 -2
c10 -2 16 -3 18 -4c1 -1 1 -8 1 -22v-24c1 -9 1 -17 1 -23c0 -13 -1 -20 -2 -22c-3 -2 -11 -3 -25 -3h-78c-36 1 -62 1 -81 1c-14 0 -22 1 -24 3c-1 2 -2 5 -3 10v17c-1 7 -1 11 -1 13c0 24 1 37 3 38c2 2 8 3 17 3c21 4 33 15 36 34c0 4 0 11 -1 20c0 9 0 16 1 20
c1 17 2 30 2 39c0 17 -1 43 -4 79c-1 5 0 11 1 20s2 15 2 19v42c0 9 -2 22 -4 38c-4 17 -5 29 -5 36c-1 10 -1 28 -1 54c1 25 0 43 -1 52c-1 11 -2 28 -3 52c-1 29 -3 45 -6 49c-5 10 -16 16 -35 17h-5c-2 1 -4 1 -5 2c-1 0 -2 0 -3 1c-2 3 -3 11 -3 22c-1 5 0 20 1 45
c0 13 1 21 2 22c2 1 15 2 39 2h41c16 -1 30 -1 39 -1c3 0 16 1 38 3zM221 652c-12 -7 -17 -31 -16 -72c1 -9 1 -19 0 -32c0 -4 0 -10 1 -16c1 -8 1 -13 1 -16c1 -5 1 -10 0 -18c-1 -6 -1 -11 -1 -14v-16c1 -8 1 -13 1 -17c1 -4 1 -11 1 -20s0 -17 2 -24c0 -7 2 -12 5 -16
c5 -10 15 -15 32 -15c6 0 16 0 29 1s24 1 31 1c26 0 45 2 56 6c33 10 57 28 71 53c7 10 12 25 15 44c5 28 4 55 -3 83c-7 26 -19 46 -36 58c-18 13 -40 22 -65 28c-23 6 -52 8 -86 7c-23 -2 -35 -4 -38 -5z" />
    <glyph glyph-name="Q" unicode="Q" horiz-adv-x="699" 
d="M324 769c5 1 14 1 25 -1c11 0 19 -1 23 -1c19 0 35 -1 46 -4c19 -4 32 -8 40 -11l16 -8c1 -1 4 -2 9 -4c5 -1 8 -3 10 -4s4 -2 5 -3c2 -1 4 -3 6 -5c3 -2 5 -4 7 -5c5 -4 15 -10 28 -17s23 -13 29 -18c5 -5 15 -16 29 -33c10 -11 19 -23 26 -37c17 -37 28 -68 33 -91
c7 -26 10 -43 11 -51c1 -13 3 -23 4 -28c0 -2 1 -6 2 -12c1 -5 2 -10 2 -14c0 -6 -2 -33 -5 -81c0 -4 0 -11 -2 -19c0 -10 -1 -16 -2 -21c0 -15 -2 -28 -5 -38c-1 -10 -3 -23 -4 -39c-1 -10 -9 -32 -22 -65l-5 -15c-3 -8 -5 -13 -7 -16c-1 -2 -7 -10 -18 -25
c-8 -12 -15 -20 -20 -24c-4 -4 -11 -11 -22 -20c-9 -9 -16 -17 -21 -22c-23 -19 -41 -30 -52 -35c-32 -11 -48 -23 -48 -37c0 -18 13 -26 38 -23c9 3 16 4 19 2c1 -1 4 -7 7 -18c5 -17 8 -30 9 -40c1 -12 1 -20 0 -23s-9 -5 -22 -7c-5 -1 -13 -2 -25 -3
c-11 -1 -20 -3 -27 -4c-1 0 -4 -1 -10 -3s-10 -3 -13 -3c-3 1 -10 3 -21 8c-4 3 -10 6 -18 10c-2 1 -11 10 -28 27c-13 17 -21 27 -23 32c-2 4 -5 11 -8 20c-3 10 -7 18 -10 24c-4 7 -9 12 -15 15c-5 3 -13 6 -23 9c-12 3 -19 6 -23 7c-3 1 -8 2 -13 3c-5 2 -9 3 -11 4
c-1 0 -5 1 -13 3c-7 2 -13 4 -16 6c-2 1 -5 2 -9 5c-4 2 -7 3 -8 4c-5 3 -12 9 -21 16c-10 8 -17 14 -22 18c-6 5 -12 11 -16 18c-6 7 -11 14 -16 23c-6 9 -11 15 -14 19c-9 13 -15 24 -19 33c-2 5 -5 11 -7 20c-4 9 -6 15 -7 18c-6 13 -11 25 -15 37c-1 2 -2 8 -6 18
c-2 10 -5 18 -6 23s-1 13 -1 23c0 12 0 20 -1 25c-2 16 -3 32 -3 48c1 8 1 16 0 25c0 3 -1 6 -1 11c-2 5 -2 8 -2 11c1 11 4 27 8 46c3 20 6 34 7 42c4 21 7 34 10 41c3 6 7 17 13 35c7 16 13 29 18 37c1 2 6 11 16 27c8 17 16 29 22 36c36 44 75 73 117 86c11 5 26 8 43 10
h24zM288 661c-20 -4 -39 -15 -57 -33c-2 -2 -11 -8 -27 -19c-6 -5 -11 -12 -16 -21c-4 -9 -8 -19 -14 -32c-4 -13 -8 -21 -9 -24c-9 -17 -15 -31 -18 -42c-1 -1 -3 -18 -6 -51c-6 -59 -9 -95 -9 -108c0 -23 2 -40 6 -51c1 -3 2 -6 3 -12c1 -4 2 -8 3 -11s9 -24 25 -63
c5 -11 12 -24 21 -37c5 -8 14 -18 27 -31c5 -7 16 -15 35 -23c2 -1 7 -3 16 -7s14 -7 18 -8c2 -1 8 -3 14 -6c8 -2 14 -4 20 -4c6 -2 13 -2 20 -3c27 -1 59 6 95 22c27 13 49 30 64 53c2 3 5 8 11 16c4 9 8 15 11 20c7 9 14 22 19 39c11 33 17 66 20 97c1 3 2 12 0 27
c0 15 -1 25 -1 28c0 14 -1 33 -2 57c-1 5 -2 16 -4 32c-2 17 -4 30 -5 40c-2 10 -5 19 -8 27c-11 25 -17 38 -19 41c-7 10 -15 21 -26 32c-7 5 -17 13 -32 24c-12 9 -20 14 -25 18c-4 2 -12 6 -22 10c-12 5 -23 8 -34 9c-27 3 -46 4 -55 3c-8 -1 -21 -4 -39 -9z" />
    <glyph glyph-name="R" unicode="R" horiz-adv-x="636" 
d="M215 751c12 0 30 -1 54 -2h27c14 0 23 0 27 -1h17c6 -1 13 -1 18 -2c6 0 11 0 16 -1c4 -1 11 -3 21 -5c10 -3 18 -5 23 -6s12 -4 21 -8s15 -7 18 -8c13 -5 25 -12 36 -19c2 -2 5 -5 9 -8c5 -3 8 -7 12 -9c2 -4 5 -6 7 -9c11 -13 21 -36 32 -69c3 -9 6 -22 8 -38
c5 -41 6 -69 4 -84c-1 -4 -2 -9 -3 -16l-3 -15c-3 -17 -5 -27 -7 -32c-3 -14 -12 -30 -27 -47c-3 -3 -8 -9 -15 -20s-13 -18 -17 -22c-2 -1 -7 -4 -14 -8c-7 -5 -13 -9 -17 -12c-5 -4 -8 -8 -11 -13c-6 -9 -6 -24 1 -45c1 -3 2 -7 4 -13c1 -6 3 -10 4 -13
c3 -9 11 -24 22 -44c13 -23 22 -37 25 -42c1 -2 5 -8 11 -18c7 -9 13 -16 18 -22c6 -4 13 -7 21 -8c3 0 9 0 17 2c7 0 12 0 13 -1c2 -1 5 -7 9 -19c1 -5 4 -11 7 -20c3 -8 6 -15 8 -21c4 -13 6 -20 5 -22c-1 -5 -10 -10 -27 -14c-18 -5 -29 -8 -33 -9c-5 0 -14 2 -27 5
c-11 1 -20 3 -26 4c-3 1 -10 4 -20 10c-12 7 -18 11 -19 11c-7 6 -16 17 -27 34c-3 4 -7 10 -13 18c-6 7 -10 13 -13 17c-5 7 -10 14 -15 23c-4 9 -8 19 -13 30c-5 12 -9 21 -12 28c-8 19 -14 32 -18 41c-1 3 -4 10 -7 19s-6 16 -10 22c-2 4 -6 9 -11 12c-8 5 -23 7 -44 5
c-4 0 -10 0 -19 -1h-18c-4 -1 -8 -2 -12 -4c-5 -3 -8 -6 -11 -11s-5 -13 -7 -22c0 -9 -1 -19 0 -27c1 -10 0 -19 -1 -30c-4 -18 -5 -35 -2 -52s11 -27 26 -30c14 -2 22 -4 24 -6c1 -1 2 -15 2 -42c2 -25 2 -38 -1 -41c-3 -2 -21 -3 -56 -3c-50 1 -87 2 -111 1
c-34 0 -52 1 -53 3c-2 2 -3 6 -3 10c0 6 0 11 1 18v14l-1 12c-1 7 -1 14 -1 19c1 5 2 9 4 10c1 1 7 3 18 4c21 1 34 8 39 21c2 5 3 10 3 18c1 6 1 15 0 25s-1 17 -1 20c0 29 1 51 2 66c0 4 0 10 1 17s1 13 1 16l-3 15c-1 7 -2 12 -2 15c-1 7 0 18 1 32c1 15 2 25 2 32
c-1 30 -2 75 -2 134c0 29 1 51 2 66c1 31 0 52 -5 62c-5 13 -19 19 -42 19c-2 1 -5 1 -10 1s-8 1 -10 2c-3 2 -4 9 -4 22c-1 19 -1 36 1 51l3 23c3 2 17 3 44 3c5 0 13 0 23 1h22c51 0 81 0 90 1zM282 651h-13h-15c-2 0 -6 0 -11 -1s-9 -2 -11 -3c-4 -1 -6 -3 -9 -6
s-5 -6 -6 -10s-2 -7 -3 -10v-14v-15c0 -4 0 -11 -1 -22s-1 -19 -1 -26v-49c-2 -9 -3 -26 -3 -49c0 -5 0 -11 -1 -20v-20s0 -10 2 -16c0 -5 2 -10 5 -13c4 -5 9 -8 15 -9c7 -1 16 -2 26 0c12 0 19 1 24 1h58c25 3 42 6 50 9c43 17 69 55 79 112c7 43 0 79 -20 107
c-10 13 -30 27 -60 42c-27 11 -56 16 -87 13h-8c-5 -1 -8 -1 -10 -1z" />
    <glyph glyph-name="S" unicode="S" horiz-adv-x="554" 
d="M238 771c3 1 12 -1 25 -4c7 -1 17 -3 30 -4l30 -3c3 -1 9 -2 17 -5c7 -3 13 -5 17 -6c23 -7 38 -10 43 -9c2 1 5 3 10 6c5 4 9 6 13 7c1 1 8 1 21 1c14 -2 22 -2 25 -2c5 -1 10 -1 16 0h18c6 -1 10 -2 12 -3c3 -3 4 -10 4 -23c2 -19 3 -37 2 -52l-3 -24c0 -5 0 -14 1 -26
c1 -11 1 -20 0 -27c0 -3 0 -7 -1 -13v-13c1 -15 1 -24 -2 -26c-3 -1 -10 -2 -19 -2h-42c-11 0 -17 1 -20 3c-3 3 -6 8 -9 16c-25 59 -78 93 -158 100c-13 3 -28 2 -43 -3c-21 -5 -33 -9 -36 -10c-18 -9 -30 -26 -37 -51s-5 -49 4 -73c5 -15 19 -30 41 -46
c18 -15 55 -36 112 -61c5 -2 14 -6 29 -12c14 -5 25 -10 32 -14c3 -1 7 -4 14 -7c6 -3 11 -6 15 -7c17 -9 26 -14 28 -15c3 -2 7 -5 11 -10c6 -5 9 -8 12 -10c3 -3 9 -6 16 -10s12 -7 15 -10c1 -1 4 -5 7 -10c4 -5 7 -10 9 -13c1 -1 3 -5 7 -11c5 -6 8 -11 9 -14
c5 -17 8 -26 9 -28c10 -23 12 -56 7 -101c-2 -23 -13 -51 -32 -83c-2 -3 -5 -7 -7 -12c-4 -5 -6 -9 -7 -11c-3 -4 -12 -11 -25 -22c-12 -12 -23 -19 -32 -22c-3 -1 -6 -2 -10 -4c-3 0 -7 -1 -12 -2s-8 -1 -11 -2c-8 -1 -19 -3 -34 -4c-2 0 -7 0 -17 -2c-8 0 -15 -1 -19 -1
c-35 0 -60 1 -76 2c-15 1 -26 2 -35 3c-2 1 -11 4 -28 10c-16 7 -29 8 -39 5c-2 -1 -5 -3 -11 -7c-4 -4 -9 -6 -13 -7c-5 0 -13 0 -24 1c-11 0 -20 0 -26 -1c-26 -3 -41 0 -44 7c-1 2 -2 18 -2 49c0 6 0 15 -1 26v26s0 14 1 25s1 19 1 24v18c-1 9 -1 16 0 22c0 6 1 10 3 12
c1 1 7 1 19 1c29 1 50 1 62 0c5 0 10 -1 13 -5c3 -2 7 -8 11 -16c4 -9 6 -13 6 -14c17 -31 47 -53 89 -67c26 -10 57 -13 92 -10c24 3 39 5 45 7c13 4 24 11 33 20c12 13 19 32 19 55c2 23 -3 44 -14 62c-9 13 -19 23 -32 32s-32 19 -58 31c-26 11 -41 18 -45 20
c-15 8 -40 19 -74 32c-34 14 -59 26 -76 35c-10 6 -23 17 -40 32c-9 13 -14 20 -15 22s-3 5 -6 11c-4 4 -7 8 -8 11c-1 1 -4 9 -9 23c-5 9 -8 16 -10 21c0 1 -2 9 -6 26c0 3 -1 8 -3 15c-1 7 -2 13 -2 17l6 24c1 5 2 14 4 26c0 12 1 21 2 27c1 5 2 11 4 16c3 6 5 11 8 14
c2 3 5 8 9 14c4 5 7 9 9 12c8 14 17 25 26 32c3 4 10 8 20 13s16 7 18 8c19 9 30 13 32 14c5 2 25 5 60 10c1 0 4 1 9 1c5 2 8 2 11 3z" />
    <glyph glyph-name="T" unicode="T" horiz-adv-x="632" 
d="M131 751c2 0 7 0 13 -1c8 -1 13 -1 17 -1c9 -1 24 -1 45 -1c21 1 36 1 45 0c11 -1 31 -1 58 0h59c27 1 46 2 59 1c7 -1 17 -1 29 -1h31h27h34h30c18 0 28 -1 29 -2s1 -4 1 -8c1 -5 1 -10 2 -16v-12c0 -7 0 -13 1 -17c2 -11 3 -16 3 -17c0 -2 -1 -6 -2 -11l-3 -12
c-2 -14 -2 -32 -1 -55c2 -13 2 -21 -1 -24c-1 -1 -2 -1 -5 -2h-10c-4 -1 -7 -1 -8 -1c-7 -1 -23 0 -48 1c-13 0 -21 1 -22 2s-2 13 -2 34c0 15 -2 27 -6 34c-4 8 -12 13 -24 14c-4 1 -19 1 -46 1c-36 0 -57 -7 -62 -21c-5 -9 -8 -30 -8 -62c0 -1 0 -18 2 -52
c0 -32 0 -49 -2 -49c-1 -14 -2 -25 -1 -32c1 -15 2 -37 1 -67c-1 -29 -1 -52 0 -67c1 -12 0 -34 -3 -67v-66c0 -5 0 -11 -1 -19v-19s0 -10 1 -16c1 -5 2 -10 5 -14c3 -3 6 -6 10 -8c10 -3 18 -5 24 -6c16 -1 24 -2 24 -3c2 -2 3 -5 4 -10c0 -5 0 -11 -1 -18s-1 -12 -1 -15
c0 -1 0 -5 1 -12c1 -8 1 -15 1 -20c-1 -5 -2 -9 -4 -11s-12 -3 -30 -3h-32c-7 0 -17 -1 -30 -2c-3 0 -8 0 -14 1c-8 1 -13 1 -16 1c-23 1 -44 1 -64 0c-3 0 -9 0 -20 -2c-10 0 -18 -1 -24 0c-7 1 -10 2 -12 5c0 3 -1 9 -2 18c0 3 0 9 -1 20s-1 17 0 20c0 11 1 18 3 19
c1 1 4 2 6 3c4 1 8 1 12 1h11c19 1 32 8 37 19c5 10 7 31 7 62c0 7 0 41 1 101c0 61 1 106 4 135v9v13v11c0 61 0 107 -1 137c0 4 0 11 1 23c0 10 0 19 -2 26c0 7 -2 12 -5 16c-6 12 -24 17 -53 16c-5 0 -13 0 -22 1s-17 1 -24 1c-7 -1 -13 -2 -18 -5c-8 -4 -13 -10 -16 -17
c-2 -7 -3 -18 -4 -32c0 -13 -2 -20 -5 -23l-21 -3c-4 0 -11 0 -21 -1s-18 -1 -25 0c-1 0 -4 0 -7 1h-9c-3 1 -4 1 -5 2c-4 4 -5 18 -3 42c1 21 2 50 2 87c0 1 0 5 -1 13c-1 6 -1 12 -1 18c1 4 2 8 4 10s10 3 24 3c7 0 17 0 29 -1h27c1 0 5 0 12 2c6 0 10 1 13 1z" />
    <glyph glyph-name="U" unicode="U" horiz-adv-x="732" 
d="M595 749c5 1 14 0 26 -1h16h19h17c13 0 20 -1 23 -3c1 -2 2 -9 2 -22v-24c1 -10 1 -18 1 -23c0 -12 -1 -19 -3 -21c-2 -1 -5 -2 -10 -3h-8c-21 -2 -32 -12 -34 -29c-1 -2 -2 -8 0 -18c0 -10 1 -16 1 -17c1 -17 2 -30 1 -38c0 -5 0 -13 -1 -23s-1 -19 -1 -27
c-1 -9 -1 -17 -1 -24c2 -50 2 -99 0 -147c-1 -33 -3 -57 -5 -72c-1 -9 -4 -20 -6 -35c-4 -15 -5 -25 -6 -30c-3 -17 -10 -36 -19 -56c-3 -5 -7 -14 -13 -26c-4 -11 -9 -20 -12 -26c-5 -8 -15 -20 -29 -35c-3 -3 -6 -7 -10 -10s-9 -7 -13 -11c-6 -3 -9 -6 -12 -8
c-9 -7 -24 -13 -44 -19c-5 -1 -12 -4 -22 -8c-9 -4 -18 -7 -26 -9c-7 -2 -16 -3 -26 -4c-3 0 -8 0 -15 -1s-11 -1 -14 -1h-15c-8 1 -12 1 -15 1c-28 2 -54 8 -77 18c-3 1 -12 4 -26 9c-13 5 -23 9 -29 13l-24 24c-3 3 -7 7 -12 13c-5 5 -8 9 -11 11c-9 11 -21 31 -35 60
c-1 3 -3 9 -7 17c-2 7 -5 13 -6 17c-1 2 -2 7 -5 16s-4 16 -5 21c-2 7 -4 16 -4 24l-4 32c-1 12 -2 21 -3 28c-3 17 -4 31 -5 42c-1 10 -1 25 -1 46c-3 19 -4 34 -3 45c0 2 0 5 2 10c0 5 1 8 1 11c0 2 -1 5 -1 10c-2 5 -2 8 -2 11c-1 5 0 13 1 23s2 17 2 21v45v46
c0 27 -1 43 -4 48c-5 9 -16 15 -34 17l-5 1c-4 0 -7 1 -8 2c-2 3 -3 13 -3 30c0 3 0 6 -1 10s-1 8 -2 11v8c0 16 2 25 6 27c3 1 13 2 28 2h42c28 -1 42 -1 43 0h25h32h28c15 0 23 -1 26 -3c1 -2 2 -9 2 -22v-23c-1 -10 -1 -18 -1 -25c0 -13 -1 -20 -2 -21
c-2 -1 -6 -2 -11 -2l-9 -1c-22 -1 -35 -10 -38 -25c-2 -7 -3 -14 -4 -24c-1 -8 -1 -20 0 -34c1 -15 1 -24 1 -28v-44c0 -5 0 -13 -1 -22c-1 -10 -1 -17 0 -22c1 -20 1 -50 1 -89c0 -13 2 -40 7 -82c6 -42 11 -67 14 -76c1 -4 4 -9 7 -17c4 -6 7 -11 8 -14
c6 -17 10 -27 13 -31c4 -6 12 -13 23 -22c3 -2 7 -5 12 -11c5 -4 10 -8 13 -10c12 -9 38 -13 77 -13c13 0 26 2 39 5c2 1 7 2 17 4c8 2 15 4 19 7c17 7 32 22 43 44c9 17 17 40 22 70c1 5 2 11 4 20c3 9 4 14 5 15c1 5 4 19 7 40c3 25 4 53 3 85c-1 8 -1 23 -1 44
c1 21 1 36 1 44l1 21c0 14 0 21 -1 21c-1 9 -1 24 -1 43c0 5 0 14 2 26c0 14 1 24 0 34c-1 8 -2 16 -5 22c-7 12 -21 18 -42 18c-9 0 -15 1 -17 3c-1 1 -2 9 -2 22c-1 1 -1 9 0 24v24c-1 12 -1 19 1 22c2 2 12 3 31 3h65h17c6 1 12 1 15 1z" />
    <glyph glyph-name="V" unicode="V" horiz-adv-x="721" 
d="M79 750c5 1 12 0 23 0c10 -2 17 -2 21 -2c39 0 69 0 90 1c25 0 39 -1 42 -3c6 -6 7 -20 2 -42c0 -9 0 -16 -1 -20c0 -12 -1 -19 -2 -21c-1 -1 -5 -2 -10 -3c-6 -1 -10 -1 -12 -2c-23 -6 -26 -32 -11 -79c4 -11 13 -33 27 -67c13 -34 23 -62 29 -83c2 -6 5 -14 10 -25
c5 -10 8 -18 9 -24c5 -13 10 -31 16 -56c7 -24 12 -41 15 -50c5 -19 11 -35 18 -50c7 -16 18 -21 33 -16c11 4 22 23 31 57c1 3 3 8 5 13c3 6 4 10 5 12c1 3 3 8 5 14c2 7 3 11 4 12c4 12 10 30 20 52c8 24 15 40 18 50c7 17 12 35 17 52c0 1 6 18 19 51c3 13 6 22 8 28
c1 5 4 14 8 25c3 11 6 21 8 29c5 25 1 42 -11 49c-5 3 -11 5 -19 6c-11 1 -17 3 -20 5c-2 3 -3 17 -3 42c0 24 1 37 3 40c3 2 11 3 26 3c17 -1 42 -1 72 0c32 1 55 1 72 0c5 -1 15 -1 29 -1c17 0 25 0 26 -1c1 -2 2 -9 2 -22c1 -11 1 -26 1 -46c0 -11 -1 -17 -3 -19l-18 -3
c-20 -1 -33 -7 -40 -20c-3 -7 -6 -14 -9 -22c-3 -9 -6 -19 -8 -31c-4 -12 -6 -21 -7 -27c-13 -43 -22 -70 -26 -80c-11 -26 -20 -51 -27 -76c-3 -17 -7 -31 -12 -41c-9 -23 -14 -36 -14 -37c-1 -4 -5 -18 -10 -42c-1 -1 -2 -7 -4 -18c-3 -11 -5 -19 -7 -24
c-1 -2 -3 -7 -7 -16s-7 -16 -8 -21c-4 -19 -7 -33 -10 -42c-7 -18 -11 -31 -13 -39c-4 -15 -13 -41 -27 -78c-6 -25 -11 -39 -15 -40c-1 -1 -3 -1 -7 -1c-2 0 -6 0 -11 -1h-12h-31c-15 0 -25 0 -32 -1c-18 0 -29 1 -32 2c-4 2 -10 13 -17 34c-5 11 -14 36 -29 76
c-8 20 -12 33 -13 39c-3 14 -8 27 -14 38c-2 5 -4 12 -7 20c-3 10 -4 15 -5 18c-3 9 -7 22 -15 39c-6 17 -11 29 -13 37c-17 49 -25 76 -26 79c-3 13 -7 26 -12 41c-2 9 -6 21 -13 37c-2 4 -4 10 -8 19c-2 9 -5 15 -6 20c-5 9 -10 25 -16 47s-12 38 -17 48
c-5 6 -8 12 -10 17c-1 2 -3 6 -3 11c-2 5 -2 9 -3 11c-7 15 -21 23 -43 24c-13 0 -22 1 -25 3c-1 1 -3 7 -5 17c0 4 1 10 2 17c2 7 3 13 3 17c0 22 1 34 3 36c2 1 11 2 27 2c17 1 27 2 30 2z" />
    <glyph glyph-name="W" unicode="W" horiz-adv-x="1032" 
d="M497 750h15c10 -1 16 -1 20 -1h12c6 0 11 0 15 -1s7 -2 8 -3c3 -3 6 -13 9 -30c1 -6 4 -16 7 -31c2 -8 5 -19 8 -34s6 -25 7 -30c3 -12 7 -25 10 -38s7 -28 11 -46c4 -16 7 -30 10 -40c11 -40 23 -81 36 -122c3 -13 9 -33 17 -61c9 -36 14 -56 17 -60
c5 -13 15 -18 29 -16c10 2 18 16 23 41c3 14 8 30 14 49c6 25 11 41 14 50c2 6 5 15 7 27c4 11 6 19 7 22c2 8 7 24 15 48c1 4 4 12 6 24c4 11 6 20 8 27c1 5 3 13 6 23c2 10 4 19 6 28l6 24c4 17 5 29 3 37c-3 12 -15 19 -34 20l-22 3c-1 1 -1 16 -1 44c1 2 1 5 2 10v11
c0 13 1 21 4 22c1 1 10 1 27 1h85c24 -1 42 -2 55 -1c17 1 31 2 42 1c6 0 10 -1 12 -3c1 -1 1 -12 1 -33c0 -4 1 -9 2 -16c2 -7 3 -11 3 -13c1 -4 0 -9 -1 -15c-2 -6 -4 -9 -6 -10c-1 -1 -2 -1 -4 -2h-8c-4 -1 -6 -1 -7 -1c-23 -1 -38 -8 -44 -20c-1 -2 -5 -15 -12 -39
c-3 -10 -6 -24 -9 -42c-3 -19 -6 -32 -8 -40c-3 -8 -5 -16 -7 -26c-2 -8 -4 -18 -6 -30c-2 -10 -4 -19 -5 -25c-1 -5 -8 -31 -21 -79c-1 -4 -3 -11 -5 -20s-3 -16 -4 -20c-1 -3 -2 -10 -6 -18c-2 -10 -4 -16 -5 -21c-3 -11 -8 -30 -15 -56c-8 -26 -14 -46 -17 -61
c-5 -22 -8 -35 -10 -40c-11 -31 -18 -57 -22 -77c0 -1 -1 -5 -2 -12s-3 -13 -5 -19c-1 -4 -3 -8 -5 -9s-12 -2 -31 -2c-15 0 -26 0 -32 -1c-7 -1 -17 0 -31 1c-2 0 -7 0 -15 1c-8 0 -13 0 -16 1s-6 9 -11 24c-12 31 -20 58 -24 82c-1 7 -4 17 -9 30c-4 13 -6 21 -7 24
c-3 11 -8 29 -14 55s-11 45 -15 58l-14 56c-9 38 -13 57 -13 58c-7 25 -16 40 -26 44c-12 4 -22 1 -30 -10c-3 -5 -8 -23 -14 -53c-1 -8 -4 -18 -7 -29l-6 -24c-5 -31 -8 -49 -10 -55c-9 -32 -13 -49 -14 -52c-1 -5 -4 -14 -7 -25c-3 -12 -6 -21 -7 -27
c-17 -59 -28 -102 -33 -131c-5 -15 -8 -24 -10 -25s-12 -2 -31 -2h-66c-19 0 -30 1 -32 3c-3 2 -8 14 -15 36c-2 5 -4 13 -7 22c-3 10 -4 16 -5 19c-1 5 -3 11 -5 21c-3 8 -5 15 -6 20c-3 8 -7 21 -12 38c-5 21 -8 35 -10 42l-6 18s-6 15 -7 20c0 1 -1 8 -3 18
c-3 12 -5 20 -6 25s-2 12 -6 21c-2 9 -4 14 -5 17c-1 5 -5 19 -10 43c-1 5 -6 18 -13 39c-3 9 -7 23 -11 42s-7 32 -9 39c-14 43 -22 69 -25 78c-1 4 -2 11 -4 21s-4 18 -5 23s-3 12 -6 18c-2 8 -4 13 -7 18c-7 10 -19 15 -36 16c-13 1 -19 2 -20 3s-1 3 -1 7
c-1 2 -1 6 -2 10v9s0 5 -1 7c-1 4 -1 6 -1 9c-1 3 -1 5 -1 8c0 22 2 34 7 37c2 1 11 2 26 2c26 1 52 1 79 0h52h28c13 1 21 1 25 -2c1 -1 2 -8 2 -21v-44c-1 -13 -2 -20 -3 -21c-1 -2 -5 -4 -10 -6c-5 -3 -9 -5 -11 -7c-8 -9 -9 -28 -3 -59c1 -7 3 -16 6 -28
c3 -13 4 -21 5 -24c2 -9 6 -21 12 -38c5 -17 9 -28 11 -33l2 -8c1 -3 1 -6 1 -9c1 -3 1 -6 2 -9s2 -7 4 -11c1 -6 2 -9 3 -12c3 -14 5 -23 7 -26c1 -5 7 -20 16 -45c1 -3 2 -11 5 -23c3 -11 5 -20 7 -27c1 -3 3 -8 5 -15s4 -13 5 -18c2 -4 5 -8 8 -13s7 -8 12 -9
c5 0 8 0 11 -1s5 0 8 3l6 6c1 1 3 4 5 8c1 3 2 6 3 8c1 3 2 6 3 10c1 5 2 8 3 10c1 1 2 6 5 12c2 8 3 13 4 17c1 3 1 7 2 11c1 3 1 7 2 12c1 4 1 7 2 10s2 8 4 15c1 7 2 12 3 16c2 9 4 21 7 37s4 25 5 27c1 7 4 17 7 31c4 14 6 24 7 31c1 5 7 25 17 60c7 25 12 46 14 63
c1 5 5 26 14 62c1 7 4 17 7 30c5 18 8 28 10 29c1 1 4 1 8 1c4 1 8 1 13 2h9z" />
    <glyph glyph-name="X" unicode="X" horiz-adv-x="716" 
d="M94 749c3 1 10 1 18 -1c10 0 16 -1 20 -1c9 1 22 1 40 1h41c22 0 34 -1 36 -4c1 -3 2 -10 2 -21c0 -1 0 -12 1 -31c1 -20 0 -30 -3 -31c-1 -3 -5 -7 -9 -10c-6 -3 -9 -7 -10 -10c-5 -11 0 -26 15 -44c3 -3 6 -10 10 -19c4 -8 12 -20 25 -35c3 -3 8 -9 14 -17
c6 -7 11 -13 14 -16c1 -1 3 -3 6 -8c3 -4 6 -7 8 -9c1 -2 4 -5 8 -7c3 -4 7 -6 10 -6c3 -2 7 -2 12 -2c4 0 8 1 12 3c5 2 15 12 29 31c7 9 12 15 13 17c5 13 8 19 9 20c3 5 7 12 13 20c7 8 11 13 12 15c5 8 9 14 12 19c1 1 2 3 4 5c2 3 4 5 5 7l3 6c6 17 1 29 -15 35
c-5 1 -9 3 -11 6c-1 1 -1 15 -1 42c-3 23 -2 36 1 41c2 2 20 3 53 3h70c31 -1 55 -1 71 -1l28 -3c2 -3 3 -16 3 -41v-20c0 -10 -1 -16 -2 -18s-4 -3 -7 -4c-4 -1 -9 -1 -14 -1h-10c-8 -1 -15 -3 -20 -6c-5 -4 -9 -8 -11 -10c-2 -4 -5 -9 -10 -17c-2 -3 -6 -8 -11 -17
c-5 -6 -13 -17 -24 -34c0 -1 -3 -6 -8 -14c-6 -10 -11 -16 -14 -21c-24 -34 -40 -57 -47 -69c-2 -3 -5 -8 -11 -16c-4 -8 -8 -14 -11 -18s-7 -10 -12 -17s-9 -13 -12 -16c-13 -18 -15 -35 -5 -50c2 -3 6 -8 12 -15c5 -6 9 -10 11 -13c3 -4 7 -10 11 -17c4 -8 6 -13 7 -14
c2 -3 5 -8 11 -13c4 -5 8 -9 10 -12c1 -2 6 -9 16 -21c8 -12 15 -22 19 -29c21 -31 32 -49 35 -52c5 -6 12 -15 19 -28s12 -21 15 -25c1 -1 2 -2 5 -6c3 -2 4 -4 5 -5l4 -5c3 -2 4 -3 6 -4c0 -1 2 -2 5 -3s5 -2 7 -3c3 -1 6 -1 8 -2h11c17 0 27 -2 30 -5c1 -1 2 -5 2 -11
s0 -12 -1 -16c0 -6 0 -10 1 -14c2 -25 1 -38 -2 -41c-2 -1 -11 -2 -28 -2c-4 0 -9 0 -16 -1h-13c-51 0 -89 1 -115 2h-13c-7 -1 -12 -1 -15 -1c-17 0 -26 1 -27 2s-2 5 -2 11v16c1 4 1 9 0 12v12c-1 6 -1 11 -1 16c0 4 0 8 1 11c1 5 4 9 8 12c5 3 7 6 8 8c3 9 3 18 -1 27
c-1 3 -3 7 -5 10c-3 3 -6 7 -8 11c-4 4 -6 7 -7 10c-13 17 -21 27 -22 28c-10 11 -17 20 -21 28c-2 3 -5 7 -8 13c-4 7 -8 12 -11 16c-3 5 -7 8 -12 11c-14 8 -27 6 -40 -5c-8 -7 -20 -27 -37 -60c-5 -11 -11 -21 -18 -31c-1 -1 -3 -4 -6 -10c-4 -6 -6 -10 -7 -11
c-1 -2 -2 -6 -4 -13s-2 -11 1 -13c1 -3 4 -7 8 -11s6 -8 7 -11v-44v-23c0 -12 -1 -19 -3 -20c-4 -3 -13 -3 -28 -2h-58h-116c-17 0 -27 1 -28 2c-2 2 -3 9 -3 21c-1 24 -1 40 0 47c0 12 1 19 4 21c1 1 7 1 18 1c22 1 37 7 44 16c2 3 5 8 11 15c4 7 8 13 11 16
c13 15 21 24 24 29c2 3 5 9 9 16c5 7 8 13 10 16c7 9 13 19 20 31c4 6 11 16 21 29s17 24 22 33c1 1 5 6 9 14c6 7 9 13 12 17c9 11 16 21 21 31c1 7 1 13 2 18c1 4 -1 9 -4 16c-3 6 -6 10 -8 14c-2 2 -5 7 -10 12s-8 9 -9 11c-3 5 -7 12 -11 21c-2 5 -10 17 -24 34
c-13 14 -21 25 -26 33c-7 9 -15 21 -24 39c-9 16 -16 29 -21 36c-2 3 -6 8 -12 16c-7 6 -12 12 -15 17c-1 1 -3 5 -6 9c-3 6 -5 8 -7 10l-6 6c-3 3 -6 6 -9 6c-3 2 -6 3 -11 4c-4 1 -9 2 -14 2c-15 0 -24 1 -26 2c-1 1 -2 9 -2 22c0 3 0 10 -1 20c-1 12 -1 19 0 23
c0 11 1 17 3 20c1 1 4 1 8 1c4 1 8 1 11 0c3 0 7 0 10 1c5 0 10 0 16 1s10 1 13 1z" />
    <glyph glyph-name="Y" unicode="Y" horiz-adv-x="675" 
d="M85 751c3 0 9 -1 19 -1c8 -2 15 -2 20 -2h39c17 1 31 1 41 0c4 -1 8 -1 14 0h14c6 0 9 -1 11 -2c1 -1 2 -8 2 -21c-1 -11 -1 -26 -1 -46c0 -13 -1 -20 -3 -23c-1 -3 -5 -5 -9 -8c-6 -3 -9 -5 -10 -8c-7 -11 -3 -27 11 -50c6 -11 10 -19 12 -22c7 -9 11 -16 14 -21
c20 -37 33 -58 38 -65l8 -8c4 -4 7 -7 9 -10c4 -5 6 -8 8 -10c0 0 3 -3 8 -7s8 -5 11 -3c3 1 7 2 14 3c6 3 14 13 25 31c2 3 5 6 8 12c4 4 6 8 7 9c19 25 38 56 57 92c15 25 21 43 17 54c-2 7 -6 11 -12 13c-1 1 -4 2 -9 3s-9 3 -10 6c-1 1 -1 14 -1 39c0 9 0 15 -1 20
c0 10 1 16 2 19c2 2 20 3 53 3c62 0 99 0 112 1h26c15 0 24 -1 26 -3c3 -4 4 -18 2 -41c0 -27 -1 -41 -3 -42c-1 -1 -4 -1 -6 -1c-4 -1 -7 -1 -12 -2h-9c-5 -1 -9 -2 -13 -3c-5 -1 -9 -3 -12 -7c-4 -2 -7 -5 -10 -7c-2 -2 -4 -6 -8 -11c-2 -5 -4 -9 -6 -11l-6 -13l-6 -12
c-4 -11 -9 -22 -16 -33c-4 -9 -12 -23 -24 -43c-13 -20 -22 -36 -27 -49c-2 -5 -7 -16 -16 -32c-2 -3 -5 -7 -9 -14s-7 -12 -10 -15c-9 -7 -16 -16 -22 -25c-2 -4 -6 -9 -10 -15c-6 -7 -9 -11 -10 -13l-18 -30c-9 -11 -14 -23 -15 -34c-1 -5 -1 -13 0 -24s1 -18 1 -22
c-1 -12 -1 -27 -1 -46v-47c-1 -31 3 -51 14 -59c5 -3 12 -6 23 -7c17 -2 26 -4 27 -6c1 -1 1 -7 1 -20c0 -3 0 -9 1 -18c1 -10 1 -18 0 -24c-1 -11 -3 -17 -4 -18s-10 -2 -27 -2c-1 -1 -25 -1 -72 0h-72h-29c-15 0 -23 1 -26 3c-1 1 -2 14 -2 39c-2 21 -1 34 3 37
c3 2 9 3 18 3c28 3 44 12 49 27c1 7 1 17 -1 31c-1 13 -2 22 -2 26c-1 10 -2 25 -2 44c0 20 0 35 -1 45c-1 13 -2 23 -3 28c0 23 -3 40 -9 50c-2 3 -7 9 -14 17c-7 9 -12 16 -15 21s-7 11 -14 19c-6 8 -10 14 -13 17c-7 10 -11 16 -14 19c-5 7 -11 17 -18 30
c-7 14 -13 24 -18 31c-3 5 -7 12 -13 21c-7 8 -11 14 -13 18s-6 10 -11 19s-9 16 -12 22c-1 1 -4 6 -10 17c-6 10 -10 18 -13 25c-6 12 -10 20 -13 25c-3 4 -8 8 -15 14c-7 4 -17 7 -28 7c-13 0 -20 1 -22 3c-1 2 -2 6 -3 12c0 5 0 12 1 19s1 12 1 13c0 6 -1 17 -2 33v10
c1 1 4 2 9 3h14c5 -1 9 -1 12 0c1 0 12 1 34 3z" />
    <glyph glyph-name="Z" unicode="Z" horiz-adv-x="594" 
d="M250 753c3 0 9 -1 18 -2s15 -2 19 -1c10 0 28 0 53 -2c25 0 45 -1 60 0h35h43h36c23 -2 34 -3 35 -4s3 -13 5 -34c0 -28 -1 -45 -4 -52c-1 -4 -5 -10 -10 -17s-9 -12 -10 -15c-11 -19 -18 -29 -19 -32c-3 -6 -11 -16 -23 -29c-3 -3 -6 -9 -12 -18c-4 -9 -7 -13 -7 -14
c-5 -5 -11 -15 -19 -31c-8 -14 -15 -25 -21 -32c-9 -11 -20 -28 -34 -50c-14 -23 -23 -37 -27 -43c-15 -17 -23 -26 -24 -28c-7 -9 -12 -20 -17 -35c0 -1 -1 -3 -2 -8s-3 -8 -4 -11c-3 -5 -7 -10 -10 -16c-3 -4 -6 -10 -9 -17c-4 -8 -7 -13 -9 -16c-5 -7 -12 -18 -21 -31
l-18 -33c-2 -4 -6 -9 -10 -16c-6 -7 -9 -12 -10 -15c-5 -9 -6 -18 -2 -27c2 -8 8 -13 16 -16c5 -1 13 -2 26 -2h23h25c12 1 20 1 26 1c5 0 14 0 25 -1s21 -1 28 -1s15 1 24 1c9 2 16 4 21 8c5 3 9 8 11 14c1 2 1 6 1 12c1 5 1 10 2 16c1 4 2 8 4 9s10 2 23 2c22 1 38 2 49 1
c13 0 21 -1 23 -3c1 -1 2 -14 2 -39c-1 -1 -1 -14 -1 -41c1 -27 1 -41 1 -42c0 -27 -1 -40 -2 -41s-10 -2 -27 -2h-28c-5 0 -13 0 -26 1c-12 1 -21 1 -28 0c-3 0 -8 0 -14 -1h-13c-75 0 -121 0 -136 1c-3 0 -7 0 -13 -1c-5 -1 -10 -1 -13 -1c-1 0 -9 1 -25 3
c-5 0 -13 0 -26 -2c-12 0 -21 -1 -28 0h-14c-6 1 -10 1 -13 1c-2 0 -6 -1 -11 -2c-6 -1 -11 -2 -14 -2c-2 0 -6 0 -11 1s-9 1 -12 1h-50c-13 0 -21 1 -23 4c-1 1 -2 3 -2 7v10c1 3 1 7 0 10v14c-1 6 -1 11 -1 14c0 5 1 11 2 19c1 12 2 19 3 20c3 7 10 18 23 33
c2 3 5 9 10 18c5 8 8 14 10 17c6 8 15 19 26 33s19 23 22 27c11 13 19 23 25 32c7 14 14 25 21 34c4 5 10 13 18 23s14 18 19 24c4 5 9 13 14 22c6 9 11 18 16 27c9 16 16 28 21 35c13 19 21 29 22 32c7 13 15 23 24 32c2 2 5 5 8 9s6 8 9 11s5 7 7 10c3 4 6 10 10 17
s7 13 10 17c13 21 21 33 22 34c1 2 4 5 7 10c4 5 7 8 8 11c2 3 4 7 6 13c1 5 1 10 -1 14c-1 3 -1 5 -3 7c0 2 -2 4 -4 5s-4 2 -6 4c-1 0 -4 1 -7 2s-6 1 -8 2h-9h-10h-10h-9c-11 -1 -29 0 -52 1c-7 0 -17 0 -28 -1h-26h-9h-10h-10h-8l-8 -2c-3 -1 -6 -1 -8 -2
c-1 -1 -3 -2 -5 -2c-2 -2 -4 -3 -5 -4c-2 -2 -3 -4 -4 -6c-2 -3 -3 -8 -4 -14s-1 -12 0 -18c0 -7 0 -14 -1 -21c0 -8 -1 -13 -4 -15c-2 -2 -6 -3 -12 -4h-21c-8 1 -14 1 -17 1c-2 0 -7 0 -17 -1c-8 -1 -16 -1 -20 0c-6 1 -9 2 -11 4c-2 3 -3 18 -3 45c0 11 1 26 2 45
c0 3 0 10 -1 20c-1 11 -1 19 -1 25c0 27 1 41 3 44c1 1 18 2 50 2c7 0 25 1 53 1c28 2 45 1 51 0h13c5 -1 9 -1 12 -1c3 1 7 1 12 2s9 1 12 2z" />
    <glyph glyph-name="bracketleft" unicode="[" horiz-adv-x="268" 
d="M119 769c17 1 47 0 88 -1c14 0 22 -1 25 -4c1 -2 2 -16 2 -43c0 -26 -1 -40 -3 -42s-17 -3 -46 -3h-27c-5 -1 -11 -2 -18 -6c-6 -2 -10 -7 -13 -12c-5 -10 -6 -33 -4 -68c5 -125 8 -195 9 -208c2 -27 3 -75 3 -142c0 -60 0 -96 -1 -108c-2 -32 6 -50 24 -54
c7 -2 19 -3 38 -3c24 0 37 -1 38 -2c1 -2 2 -9 2 -22c0 -8 -1 -23 -2 -46c0 -12 -1 -19 -2 -20c-3 -3 -19 -4 -48 -4c-12 0 -29 0 -52 1h-49c-27 -2 -43 -1 -47 2c-2 1 -3 17 -3 46v50v98c0 23 0 56 1 100v97v98c-1 35 -1 68 1 99c0 9 0 25 -1 48c0 24 0 41 1 51
c0 3 0 11 -1 21c-1 12 -1 20 0 27c0 30 1 46 2 47c2 2 5 3 10 4c5 0 10 0 18 -1c6 -1 11 -1 12 -1c11 -1 26 0 43 1z" />
    <glyph glyph-name="backslash" unicode="\" horiz-adv-x="423" 
d="M58 791c1 0 5 -1 12 -1c7 -2 14 -2 19 -2c19 0 30 -1 32 -2s6 -9 11 -23c1 -3 2 -6 4 -9c1 -3 2 -6 4 -8c0 -3 1 -5 2 -8c1 -2 7 -19 17 -52c3 -7 9 -23 18 -46s16 -42 20 -55c6 -22 12 -39 17 -52c2 -6 4 -15 8 -27c2 -11 5 -20 8 -26c3 -9 15 -43 36 -103
c5 -15 16 -50 33 -106c1 -5 3 -11 5 -17c3 -5 5 -11 8 -18l6 -15c6 -14 12 -31 17 -51c3 -11 9 -27 18 -50c9 -22 15 -40 19 -53c5 -20 14 -46 25 -78c7 -14 9 -23 7 -27c-1 -3 -10 -4 -25 -4c-18 -1 -36 -1 -54 0c-15 0 -23 1 -26 4c-2 2 -5 10 -9 25c-17 47 -26 73 -27 77
l-5 16c-3 8 -5 14 -6 20l-6 15c-4 10 -9 27 -14 53c-6 24 -12 43 -18 54c-8 13 -15 29 -22 47c-1 5 -4 13 -6 27c-4 12 -6 22 -8 29c-1 7 -4 15 -10 27c-4 10 -8 18 -9 22s-4 12 -9 23s-8 20 -10 27c-1 3 -2 7 -4 13c-1 6 -3 11 -4 14s-2 7 -5 12s-4 9 -5 12
c-3 13 -5 22 -8 27c-10 32 -20 57 -29 74c-4 8 -7 16 -9 25c-5 17 -13 44 -24 80l-26 78c0 1 -1 4 -2 8c-2 4 -4 8 -4 11c-2 3 -2 6 -1 7s2 1 4 1c2 1 5 1 7 2h7c3 1 5 1 7 2h8c3 1 5 1 6 1z" />
    <glyph glyph-name="bracketright" unicode="]" horiz-adv-x="276" 
d="M91 770c2 0 7 0 16 -1s15 -1 19 -1c9 -1 34 -1 75 -1c21 0 32 -1 33 -3c1 -1 2 -16 2 -45c0 -63 0 -109 1 -138c1 -12 1 -29 0 -51s-1 -36 -1 -43c0 -11 0 -26 1 -47c1 -20 1 -35 1 -45c0 -83 0 -145 1 -186c1 -9 1 -24 1 -45c1 -20 1 -35 1 -45c1 -6 1 -20 1 -42
s1 -38 3 -49c0 -1 -1 -9 -4 -24c0 -1 0 -4 -1 -8v-8c-1 -3 -1 -4 -2 -5c-2 -1 -10 -2 -23 -2h-154c-13 0 -21 1 -23 3c-1 1 -2 16 -2 43s1 41 4 44c1 1 13 2 35 2c2 0 5 0 10 1h10c2 1 5 1 9 2c3 0 6 0 8 2c2 0 4 2 6 2c3 2 5 3 6 4c1 2 3 4 4 7c6 10 8 32 7 66
c-1 18 0 42 1 73c0 33 0 57 1 72s-1 37 -5 68c-1 31 -2 54 -2 71c0 8 1 19 2 34c2 11 2 23 0 36c0 31 0 55 -1 71c0 6 0 15 1 26v27s-2 13 -4 19c-4 8 -8 12 -14 15c-5 3 -18 4 -38 4h-14c-7 0 -12 0 -17 1c-5 0 -8 1 -10 2c-5 5 -6 19 -2 43c0 2 0 6 1 11v13v7
c1 4 1 7 2 10c0 3 0 4 1 5c2 1 11 2 26 2c8 1 17 2 28 3z" />
    <glyph glyph-name="asciicircum" unicode="^" horiz-adv-x="429" 
d="M189 749c6 1 17 0 34 -1c19 0 29 0 32 -1s5 -3 7 -5c3 -4 6 -8 8 -13c4 -5 5 -9 6 -10c4 -7 9 -18 16 -31c4 -8 11 -19 20 -34c10 -14 16 -22 17 -25c3 -7 8 -17 15 -32c1 -3 3 -6 5 -9s4 -7 7 -12c3 -4 5 -7 6 -9s7 -12 16 -31c1 -1 3 -4 6 -9s6 -9 8 -13
c1 -4 2 -7 2 -10c0 -1 -6 -6 -18 -14c-25 -13 -39 -20 -42 -23c-13 -7 -21 -10 -22 -10c-4 1 -11 10 -20 29c-15 23 -28 44 -39 61c-15 27 -33 37 -53 28c-5 -3 -10 -7 -15 -13c-5 -7 -9 -15 -15 -24c-4 -10 -9 -17 -12 -21s-7 -11 -14 -23c-6 -10 -11 -19 -14 -24
c-7 -9 -11 -13 -12 -13c-3 0 -5 1 -8 1c-3 2 -6 3 -8 6c-4 2 -6 3 -7 4c-15 7 -29 15 -42 23c-1 1 -3 2 -6 4s-6 4 -9 5c-2 2 -3 4 -3 6s1 5 3 10c2 4 4 8 8 14c2 4 4 7 5 8c9 17 15 27 17 30l8 16c3 7 6 12 8 15c3 3 6 8 10 15c4 6 7 11 9 14c7 15 12 25 16 31
c2 5 8 15 17 30c7 13 12 23 17 30c9 16 16 25 21 28c4 1 9 2 14 2h1z" />
    <glyph glyph-name="underscore" unicode="_" horiz-adv-x="632" 
d="M205 44c3 0 13 -1 30 -4c14 -3 37 -3 69 -2c8 1 25 0 50 -1c13 0 28 -1 47 -2h98c7 0 18 0 35 -1h39c14 0 21 -1 22 -2s1 -3 1 -6c1 -4 1 -8 2 -14v-10c0 -4 0 -9 2 -16c0 -6 1 -10 1 -13c1 -1 1 -4 0 -9c-1 -6 -1 -9 -1 -10c-2 -11 -3 -16 -4 -17c-3 -3 -12 -3 -28 -2
c-18 1 -46 1 -84 1h-57c-13 0 -22 0 -28 -1c-1 0 -4 -1 -11 -1c-7 -2 -12 -2 -15 -2c-4 0 -11 0 -19 2c-10 0 -17 1 -22 1c-11 -1 -26 -1 -44 1c-19 0 -32 1 -40 1h-87c-3 0 -10 0 -19 1s-17 1 -22 0h-43c-26 0 -40 1 -42 2c-2 2 -3 10 -3 25c0 4 0 9 1 15c1 7 1 13 1 18
c1 5 1 11 1 16c0 13 1 21 2 23c2 2 16 3 43 3h85c5 0 12 1 21 2s16 2 19 2z" />
    <glyph glyph-name="grave" unicode="`" horiz-adv-x="217" 
d="M135 770c7 1 13 -8 17 -26c2 -7 6 -19 11 -35c1 -4 3 -8 4 -11c1 -4 3 -8 4 -13s2 -9 3 -12c2 -5 4 -10 5 -17c4 -9 5 -15 4 -20c-1 -3 -9 -4 -22 -4c-13 -1 -29 0 -47 2c-11 0 -18 1 -21 2s-9 12 -16 31c-2 3 -12 24 -29 63c-1 1 -2 4 -4 8c-3 3 -5 6 -6 9s-3 6 -4 10
s-1 7 1 8c1 1 4 2 11 3h18c5 -1 9 -1 12 0h27c4 0 9 0 17 1c6 1 12 1 15 1z" />
    <glyph glyph-name="a" unicode="a" horiz-adv-x="526" 
d="M200 556c11 0 20 -1 26 -2c7 -1 20 -1 38 -1s31 -1 40 -2c16 -3 30 -8 42 -13c23 -7 44 -24 64 -51c17 -23 30 -71 37 -144c1 -6 1 -16 1 -29v-29c1 0 1 -19 0 -57v-60v-26c0 -3 1 -9 2 -18s3 -14 6 -17c2 -3 6 -6 11 -9s12 -5 20 -6c7 -1 12 -2 13 -5c2 -3 3 -9 3 -19
v-44c0 -13 -1 -21 -2 -22c-2 -3 -12 -4 -31 -2c-15 1 -37 0 -67 -1h-11h-14h-9c-3 1 -7 2 -13 3c-4 2 -8 3 -11 3c-5 1 -10 1 -15 0s-12 -4 -21 -8s-16 -7 -19 -8s-11 -3 -24 -6c-2 0 -6 -1 -10 -3c-6 -1 -9 -2 -11 -2c-4 -1 -11 0 -19 1c-10 1 -16 2 -19 2
c-20 0 -32 0 -36 1c-2 0 -12 3 -31 9c-3 1 -8 3 -16 5c-6 1 -12 3 -15 4c-12 5 -24 13 -35 25c-13 13 -23 24 -28 32c-7 10 -12 22 -16 35c-7 18 -10 32 -11 42c0 5 2 13 6 24c1 13 3 22 5 29c1 4 4 10 9 18s8 13 9 16s9 13 23 30c19 21 39 37 58 46c5 1 13 3 25 5
c11 2 19 4 24 5c23 4 58 5 107 4c1 0 4 0 8 -1h8h7h8c2 1 4 1 8 2h6c2 1 4 2 6 2c3 2 5 2 6 4c1 0 3 2 4 4c2 1 3 3 4 5c8 14 8 35 -1 63c-6 21 -15 38 -27 48c-13 12 -31 18 -54 20c-33 3 -55 2 -68 -2c-27 -8 -45 -28 -54 -59c-1 -2 -1 -5 -2 -9c0 -5 0 -9 -2 -12
c0 -3 -2 -6 -3 -7c-3 -3 -17 -4 -43 -4c-27 0 -41 1 -43 4c-3 5 -4 17 -1 38c5 31 18 61 38 90c9 15 25 28 46 37l30 12c10 5 21 8 34 10zM196 214c-21 -7 -36 -15 -47 -26c-21 -17 -28 -40 -21 -67c2 -6 5 -11 8 -15s8 -8 14 -12c6 -3 11 -6 14 -7s9 -4 18 -7
c15 -5 29 -7 42 -6c11 0 25 3 40 9c17 7 29 12 35 15c3 3 8 7 13 12c6 5 10 9 12 11c13 12 21 20 23 23c7 9 9 21 8 38s-6 28 -15 33c-7 5 -34 7 -79 7c-35 -3 -57 -5 -65 -8z" />
    <glyph glyph-name="b" unicode="b" horiz-adv-x="575" 
d="M41 767h22c39 0 60 0 65 -1c3 -1 13 -2 30 0c18 0 29 1 34 1c11 0 18 -1 21 -3c4 -4 5 -21 2 -51c0 -7 0 -16 -1 -27s-1 -20 -1 -25c1 -11 1 -29 1 -53c0 -14 0 -25 2 -32c0 -7 4 -14 10 -21c5 -7 14 -10 25 -9c5 0 10 1 16 2c6 2 10 3 13 3c4 1 9 1 16 1h16
c15 1 25 2 31 2s12 0 19 -2c6 0 13 -2 20 -4c7 -1 13 -2 17 -3c37 -9 65 -25 85 -47c5 -5 14 -19 27 -41c21 -39 33 -70 36 -95c1 -4 2 -13 3 -26c2 -13 3 -24 4 -32c5 -53 4 -94 -2 -123l-11 -55c-8 -21 -15 -37 -20 -47c-7 -10 -11 -16 -14 -19c-2 -3 -7 -9 -14 -18
c-6 -6 -19 -16 -38 -29c-9 -7 -24 -15 -44 -23c-27 -9 -44 -13 -51 -14c-3 -1 -8 0 -14 1c-7 1 -11 2 -14 2s-7 0 -12 1c-5 0 -9 0 -12 1s-6 2 -12 3c-4 1 -8 2 -11 3c-11 1 -18 3 -22 4c-3 1 -6 3 -11 5c-5 4 -9 6 -14 6c-5 2 -10 2 -16 2c-3 0 -7 -1 -12 -3s-9 -3 -12 -3
h-36h-73c-22 0 -34 1 -36 2c-2 3 -3 17 -3 44c0 9 0 16 1 22c0 11 1 18 3 19c1 1 7 3 18 4c16 1 27 7 32 17c3 9 5 31 5 67c0 9 0 21 1 37v33c-1 16 -1 40 -1 71c0 5 0 16 1 32s1 29 0 38c0 4 -1 10 -2 17s-2 12 -2 15s1 14 2 32c1 9 2 21 2 37v30c0 7 0 18 -1 33
s-1 27 0 35c5 49 -1 77 -17 85c-7 3 -16 4 -27 4c-20 0 -30 1 -31 2c-2 3 -2 11 -1 24c0 3 0 8 -1 12v12c0 1 1 10 2 25c0 12 2 19 7 20zM228 418c-9 -11 -13 -35 -13 -70v-71c0 -11 -1 -22 -2 -33c0 -4 0 -10 1 -18v-18v-18c-1 -8 -1 -14 -1 -18c0 -5 0 -10 1 -16
c1 -5 2 -10 4 -14c3 -9 10 -17 21 -26c32 -21 58 -34 78 -39c18 -3 40 -1 67 8c15 5 30 16 44 33c11 14 19 34 24 60c7 34 8 72 3 115c-1 16 -3 28 -4 36c-1 6 -4 18 -7 36c-3 33 -15 58 -36 73c-8 6 -19 11 -34 14c-15 4 -30 6 -44 5c-51 -4 -85 -17 -102 -39z" />
    <glyph glyph-name="c" unicode="c" horiz-adv-x="506" 
d="M264 558c4 0 13 -1 26 -4c3 0 7 0 13 -1s10 -1 13 -1c6 -1 15 -3 27 -6s22 -5 29 -5c3 0 7 1 13 1c6 2 11 2 14 2c6 1 25 1 57 1c15 0 24 -1 26 -4c1 -2 2 -5 2 -10c1 -5 1 -11 0 -17c-1 -8 -1 -12 -1 -15c2 -26 2 -55 1 -88c-1 -4 -1 -9 0 -14v-17c-1 -5 -2 -9 -3 -10
c-4 -5 -16 -5 -35 -2c-3 0 -10 0 -22 -1c-11 -1 -17 0 -18 2c-1 0 -4 4 -11 13c-3 4 -6 9 -10 14c-13 16 -21 25 -25 28c-5 4 -14 9 -28 16c-10 7 -21 11 -32 13c-23 3 -36 5 -38 5c-10 0 -23 -2 -38 -7c-26 -8 -44 -19 -54 -33c-6 -7 -11 -17 -16 -29c-1 -3 -3 -7 -6 -14
c-4 -7 -7 -12 -8 -16c-1 -3 -2 -9 -3 -18s-2 -15 -3 -18c-4 -18 -6 -30 -7 -36c-1 -9 -1 -22 0 -41v-14v-14v-12c1 -20 9 -41 23 -63c8 -11 14 -19 19 -23c9 -11 16 -18 20 -22c18 -14 38 -22 61 -24c27 -2 52 1 75 8c21 8 37 18 47 29c12 11 19 28 23 50c0 8 2 13 5 16
c2 2 5 3 10 3c4 1 10 1 16 0c8 -1 12 -1 15 -1c2 0 7 0 13 1h19c5 -1 9 -2 10 -4c2 -3 1 -15 -3 -34c-8 -37 -18 -65 -31 -83c-9 -13 -21 -26 -38 -39c-12 -11 -28 -20 -49 -27c-17 -7 -37 -12 -62 -14h-37h-38c-16 1 -35 7 -58 17c-8 3 -17 7 -26 13c-3 2 -7 5 -13 8
s-10 6 -13 9c-2 2 -5 6 -9 11s-7 9 -9 11c-2 3 -8 10 -19 21c-12 12 -21 30 -28 54c-1 1 -4 9 -10 25c-5 14 -9 27 -10 36c-1 5 -3 14 -4 26c-1 13 -3 22 -4 27c0 2 0 5 -2 9c0 3 -1 6 -1 8c0 4 1 10 3 18c2 9 3 15 3 19c2 27 6 50 11 69c1 7 4 18 8 33c1 5 4 11 9 19
c5 9 7 14 8 16c1 3 4 9 9 19c4 10 7 17 10 21c3 3 10 11 23 22c2 3 5 7 10 12c5 6 8 10 10 13c1 1 8 6 19 13c2 1 6 4 11 7s10 6 13 7c18 5 42 9 71 12c7 1 16 3 27 4z" />
    <glyph glyph-name="d" unicode="d" horiz-adv-x="559" 
d="M377 768c3 0 18 -1 46 -2h23c3 -1 5 -1 8 0h8c3 -1 5 -1 6 -2s2 -15 2 -41c-1 -15 -1 -29 0 -41c0 -6 0 -20 -1 -44c-1 -22 -1 -36 0 -40c0 -5 0 -11 -1 -20s-1 -15 -1 -20c0 -4 1 -10 1 -20c2 -8 2 -15 2 -20v-40c-1 -17 -1 -33 -1 -47s0 -27 1 -40c0 -5 -2 -18 -5 -38
c-2 -9 -3 -23 -4 -42s-2 -32 -3 -39c-1 -13 -2 -27 -3 -40c0 -4 0 -11 1 -20v-22c-1 -17 -2 -31 -1 -41v-15c0 -4 0 -8 1 -12c0 -3 0 -7 1 -10l3 -9c2 -3 4 -5 7 -7c5 -3 14 -6 27 -7h10c5 0 10 0 13 -1s6 -2 7 -4s2 -5 2 -10c1 -5 1 -10 0 -16v-15c0 -9 0 -17 1 -22
c0 -11 -1 -18 -2 -20c-3 -3 -18 -4 -43 -1c-12 1 -28 0 -48 0c-21 -2 -35 -2 -43 -2h-25c-20 2 -31 3 -32 3c-6 -1 -14 -3 -25 -7s-18 -7 -23 -8c-39 -12 -76 -11 -111 2c-1 1 -5 2 -11 4c-5 3 -9 4 -12 5c-15 5 -35 17 -60 35c-7 6 -17 17 -30 34c-9 12 -17 25 -24 40
c-4 12 -8 29 -11 50c-6 36 -9 55 -9 56c0 5 0 14 -2 28c0 14 -1 25 0 32c6 61 11 98 15 113c2 7 8 23 17 47c3 7 11 20 24 39c11 19 20 31 27 36c8 7 14 11 19 14c10 9 23 15 39 20c5 1 13 3 22 6c17 5 51 7 102 4c9 0 17 -1 25 -3c27 -6 44 -3 50 9c2 3 3 8 4 15
c1 6 1 12 0 18c0 6 0 12 1 19c3 32 -2 53 -15 63c-2 1 -10 4 -23 9c-18 4 -27 6 -28 7c-2 4 -3 17 -3 40c0 21 2 33 5 36c2 3 15 4 38 4c15 -1 29 -1 42 0zM174 443c-15 -9 -27 -26 -36 -51s-14 -45 -16 -60c-1 -15 -4 -42 -7 -80c-1 -21 0 -39 4 -56c5 -23 10 -39 15 -47
c1 -2 11 -14 28 -35c18 -17 29 -26 34 -29c28 -13 58 -14 89 -3c5 2 17 8 36 17c16 11 26 20 29 25c8 13 11 36 8 69c-1 13 -1 49 -1 109c0 4 1 10 1 18c2 8 2 14 2 17c1 5 0 16 -2 34c-2 30 -11 51 -27 62c-29 18 -62 26 -101 24c-25 -1 -44 -6 -56 -14z" />
    <glyph glyph-name="e" unicode="e" horiz-adv-x="504" 
d="M252 556c19 1 39 -2 60 -9c30 -11 46 -17 49 -18c18 -10 32 -19 41 -26c10 -9 16 -14 18 -16c13 -9 20 -16 23 -21c5 -7 10 -18 15 -34c7 -17 12 -29 14 -36c5 -15 8 -37 9 -64c1 -4 1 -12 1 -23c1 -11 2 -20 3 -26c1 -8 1 -20 -1 -36c-1 -2 -1 -5 -1 -9s0 -8 -1 -11
s-2 -5 -3 -6c-2 -1 -5 -2 -11 -3h-16h-13c-4 -2 -24 -2 -61 -1s-57 2 -61 2c-9 0 -22 0 -41 -1h-42h-20c-10 -1 -18 -1 -23 -1c-13 1 -24 1 -31 0c-8 -1 -15 -4 -21 -10s-9 -15 -8 -26c1 -7 5 -19 13 -37c12 -22 20 -35 23 -38s11 -8 25 -17c21 -14 44 -21 69 -20
c5 1 11 2 19 4c7 2 13 3 17 4c15 3 34 13 57 30c11 7 18 14 22 20c11 15 18 22 21 23c3 0 10 -3 21 -8c5 -3 12 -6 18 -11l14 -9c8 -6 12 -11 13 -14c0 -1 -3 -8 -9 -21c-3 -6 -7 -12 -12 -18c-9 -15 -18 -26 -25 -33c-4 -3 -11 -8 -22 -15c-13 -9 -20 -14 -21 -16
c-4 -3 -12 -8 -25 -14c-15 -5 -24 -7 -27 -8c-4 -1 -9 -1 -16 -1c-7 -1 -11 -1 -13 -1c-3 0 -7 -1 -13 -3c-5 -1 -10 -2 -13 -2h-7c-3 1 -6 1 -8 2c-4 1 -6 1 -8 1h-25c-8 1 -22 3 -41 8c-16 5 -28 9 -36 14c-36 21 -61 47 -76 76c-1 3 -4 7 -8 15c-5 6 -8 12 -9 17
c-1 1 -4 15 -11 40c-7 37 -11 58 -12 63c-3 7 -4 14 -5 20s0 14 1 25c2 11 3 18 3 21c1 5 1 13 3 23c0 10 1 18 1 23c1 11 7 39 18 82c7 19 11 31 14 36c1 2 4 7 7 15c4 8 7 14 10 17c5 8 16 18 33 31c17 15 28 25 35 28c20 11 55 18 105 23h1zM254 458
c-14 0 -32 -5 -53 -14c-2 -1 -6 -2 -11 -4c-6 -3 -10 -5 -13 -6c-10 -7 -20 -21 -31 -42c-2 -5 -4 -16 -7 -34c-3 -13 -2 -24 2 -31c2 -5 5 -8 9 -11c5 -2 10 -4 17 -4c7 -2 13 -2 17 -2h21c9 1 15 1 19 1c18 0 48 -1 89 -4c26 -5 44 -4 55 3c14 8 18 23 12 46
c-3 18 -8 33 -15 46c-3 5 -9 13 -19 23c-11 13 -18 21 -20 22c-13 9 -36 12 -71 11h-1z" />
    <glyph glyph-name="f" unicode="f" horiz-adv-x="381" 
d="M322 768c22 3 35 2 39 -2c2 -3 3 -10 3 -22c1 -9 0 -25 -1 -46c0 -12 -1 -19 -4 -21c-1 -1 -12 -2 -32 -2c-43 0 -72 -5 -89 -15c-15 -9 -26 -21 -33 -36c-13 -29 -16 -52 -9 -70c3 -9 9 -15 18 -17c8 -2 21 -3 39 -2c7 1 17 1 31 0s23 -1 27 -1h9h10c4 -1 6 -2 7 -3
c2 -2 3 -13 3 -32s-1 -30 -3 -32l-30 -7c-5 -1 -14 -2 -28 -5s-25 -4 -34 -5h-19c-2 0 -7 0 -13 -2c-6 0 -11 -2 -14 -5s-6 -6 -8 -11c-3 -6 -4 -19 -4 -39c0 -11 -1 -26 -2 -45c-1 -18 -2 -30 -2 -37c-1 -5 -1 -12 -1 -21v-22c0 -3 -1 -15 -2 -35s-2 -36 -2 -48v-20
c1 -9 1 -17 1 -22c0 -23 1 -36 2 -39c3 -13 14 -20 33 -22c8 0 13 -1 15 -2c3 -3 4 -16 4 -39c0 -2 0 -7 -1 -13v-18c-1 -5 -2 -7 -3 -8s-9 -2 -23 -2c-5 -1 -13 -1 -23 -1c-6 -1 -14 -1 -25 -1c-11 1 -18 1 -23 1c-5 -1 -16 -1 -35 -1c-19 2 -31 2 -36 2c-14 0 -21 1 -22 2
c-3 1 -4 15 -4 40c-2 22 -1 35 3 39c1 1 5 3 11 3c6 2 10 3 13 5c10 5 16 22 17 50c1 9 2 45 0 106c0 61 -1 97 -1 106v42c-1 29 -8 46 -20 51c-2 1 -6 3 -13 4s-11 3 -13 4c-1 2 -2 8 -2 19c-1 9 0 22 1 41c0 12 0 18 1 19s8 3 21 5c15 5 23 18 25 40c3 19 8 43 16 70
c5 19 10 33 16 42s15 18 28 29s25 19 34 24c7 6 13 10 18 11c3 1 7 3 11 4c6 1 9 2 12 3c29 6 64 9 105 9h1z" />
    <glyph glyph-name="g" unicode="g" horiz-adv-x="561" 
d="M229 557c3 0 8 -1 15 -2c8 -1 14 -2 17 -2c11 -1 20 -3 27 -5c4 -1 12 -4 23 -8c11 -6 21 -8 30 -8h13c6 1 11 1 17 2s11 1 15 1l46 1c31 0 47 0 48 -1c27 0 42 -1 45 -3c1 -1 1 -3 1 -6c1 -3 1 -5 0 -8c0 -3 0 -5 1 -8c0 -3 0 -6 1 -11v-12c0 -25 -1 -40 -4 -43
s-8 -4 -18 -4h-15c-11 -2 -19 -8 -23 -18c-3 -10 -4 -24 -3 -43c0 -6 0 -14 -1 -25s-1 -18 -1 -23s0 -13 1 -24s1 -18 1 -23c0 -11 -1 -27 -2 -48c-1 -6 -1 -14 0 -26c1 -10 1 -18 1 -21v-25c0 -10 0 -19 1 -24c1 -11 1 -26 1 -47c0 -49 -1 -97 -3 -144
c-1 -19 -6 -47 -16 -83c-9 -23 -13 -35 -14 -36c-6 -9 -14 -18 -23 -26c-13 -12 -23 -19 -28 -22c-15 -10 -26 -16 -31 -18c-21 -9 -52 -15 -95 -16c-21 -1 -38 0 -50 3c-3 1 -10 2 -20 5c-11 2 -19 4 -25 6c-17 5 -38 21 -63 47c-14 15 -25 32 -32 52c-5 11 -6 18 -5 21
s3 6 8 9s11 6 19 9l12 4c4 1 12 3 23 7c1 1 3 2 7 3c2 1 5 2 8 4c3 0 5 1 8 1c5 -1 10 -9 15 -24c12 -25 33 -41 62 -49c19 -5 42 -4 67 3c18 6 32 16 43 31c7 10 12 24 16 43c7 37 4 59 -9 66c-4 3 -9 4 -15 4s-11 -1 -16 -1c-5 -2 -11 -3 -18 -5s-12 -3 -15 -4
c-25 -4 -50 -5 -74 -3c-28 2 -49 8 -62 17c-6 3 -14 9 -24 17c-9 9 -16 15 -21 18c-16 11 -28 25 -37 42c-13 23 -22 41 -25 54c-6 20 -11 42 -14 65c-1 8 -1 21 -1 39c0 3 -1 9 -2 16c-2 8 -3 14 -3 18c1 3 2 7 3 13s2 11 2 14c8 56 12 85 12 86c2 13 8 29 17 48
c1 3 2 5 3 7c1 3 3 5 4 8c2 3 3 5 4 7s2 6 4 11c1 5 3 9 4 11s6 8 17 19c7 9 13 15 18 19c2 1 6 3 11 5c5 3 9 5 12 7c7 7 14 12 20 15c14 7 34 13 61 16c3 0 7 1 11 2c6 1 10 2 13 3zM191 451c-11 -4 -20 -8 -26 -13c-4 -3 -11 -13 -20 -28c-1 -2 -6 -9 -13 -22
c-1 -2 -4 -20 -9 -53c-4 -29 -6 -46 -5 -53c0 -26 0 -45 1 -58c2 -37 3 -55 3 -56c1 -3 4 -12 10 -25c2 -3 4 -7 6 -12c3 -5 5 -9 6 -11c14 -21 39 -35 75 -42c27 -5 57 2 91 21c20 12 34 24 41 37c7 11 9 34 8 70c0 10 1 29 1 56c2 28 2 50 1 66c-1 37 -3 56 -4 59
c-1 4 -3 8 -6 11c-3 4 -5 7 -7 9c-3 2 -6 5 -10 9c-5 4 -8 7 -10 8c-1 1 -6 5 -14 12c-9 7 -15 11 -20 14c-15 7 -37 9 -65 8c-12 -1 -23 -3 -34 -7z" />
    <glyph glyph-name="h" unicode="h" horiz-adv-x="614" 
d="M94 768h26c12 -1 21 -1 26 -1c6 1 15 1 28 1c15 0 24 -1 25 -2s2 -19 2 -53c-1 -13 -1 -32 1 -55c0 -23 1 -41 0 -54c-2 -27 -2 -45 1 -52c5 -15 17 -20 36 -15c3 1 9 4 15 7c8 4 13 6 18 7c11 3 26 3 46 2c26 0 41 0 46 -1c14 -2 27 -5 39 -9c7 -3 14 -6 20 -9
c6 -4 13 -9 21 -15c9 -6 15 -10 19 -13c13 -8 22 -15 26 -20s10 -14 18 -29s13 -26 15 -33c1 -3 2 -8 4 -17s4 -16 5 -21c3 -13 4 -27 4 -44c3 -67 4 -113 3 -138c0 -3 0 -10 -1 -20c-1 -12 -1 -20 -1 -27c-1 -7 0 -14 0 -23c2 -8 3 -15 5 -20c3 -6 8 -11 15 -15
c1 -1 5 -1 12 -3c6 0 10 -2 11 -4c1 -1 1 -3 1 -6c1 -3 1 -6 0 -8c0 -4 0 -6 1 -9v-45c0 -13 -1 -20 -2 -21c-2 -2 -16 -3 -43 -3c-19 -1 -49 -1 -90 0c-5 1 -10 1 -16 0h-18c-6 1 -10 2 -11 3c-3 3 -4 19 -4 46c0 3 0 6 -1 11v12c0 11 1 17 4 20c2 2 7 3 15 3s13 0 14 1
c15 3 24 13 26 30c1 4 0 17 -2 39c-1 8 -2 21 -3 38c-1 6 -2 17 -4 33c-3 17 -4 30 -5 39s-2 23 -3 41c-2 17 -3 28 -4 33c-1 19 -3 31 -5 36c-3 9 -7 17 -13 26c-10 19 -24 32 -42 40c-24 11 -47 12 -70 5c-16 -5 -34 -15 -53 -28c-18 -11 -32 -24 -41 -40
c-7 -11 -9 -33 -8 -64c0 -8 0 -20 -1 -36c-1 -15 -1 -27 -1 -36c1 -15 0 -39 -1 -71c-2 -41 0 -66 6 -73c5 -8 17 -13 34 -15c1 0 2 0 4 -1h5c2 -1 3 -1 4 -2c1 -2 2 -6 2 -11c1 -5 1 -12 0 -19s-1 -12 -1 -14c-1 -5 -1 -10 -1 -16c1 -6 1 -12 0 -18c0 -5 -1 -9 -2 -10
s-10 -1 -27 -1h-26c-12 -1 -48 -1 -108 -1h-27h-10h-10c-3 1 -5 2 -7 3c-3 3 -5 11 -5 23c0 3 1 8 2 14c1 8 2 13 2 17c0 19 1 30 2 32c3 2 9 3 18 3c10 0 17 1 20 2c9 3 15 10 18 19c1 5 1 27 -1 68v23v26v21c0 4 0 10 1 17v17c-1 7 -1 19 -1 34c0 31 0 54 1 69s2 27 1 34
c-1 19 -2 30 -2 33c1 0 1 23 1 69c-1 47 -1 70 -1 71c1 36 -1 59 -7 68c-3 5 -8 8 -13 10c-3 1 -6 1 -11 1c-5 1 -9 1 -12 2c-3 0 -6 1 -7 2c-3 3 -4 10 -4 21c-1 10 -1 25 -1 45c0 12 2 19 5 21c1 1 6 2 13 3h23c7 -1 13 -1 17 0z" />
    <glyph glyph-name="i" unicode="i" horiz-adv-x="280" 
d="M129 725c12 3 25 0 40 -8c9 -5 16 -11 21 -18c7 -11 10 -27 9 -46s-10 -35 -25 -46c-17 -13 -35 -16 -56 -9s-35 17 -40 30c-5 10 -6 24 -5 42c1 5 4 13 9 24c5 9 11 16 16 21c10 6 20 9 31 10zM153 535c27 0 42 -1 45 -3c2 -2 3 -6 4 -12c0 -5 0 -12 -1 -22
c-1 -8 -1 -14 -1 -16c1 0 1 -9 0 -27v-28c0 -21 -1 -56 -2 -105c-1 -15 -1 -34 0 -59s1 -41 1 -49v-55c0 -14 0 -24 1 -31s3 -14 6 -20c3 -8 9 -12 16 -14c2 -1 6 -1 11 -2c5 0 9 -1 11 -3c3 -3 4 -6 5 -11s1 -11 0 -20c-1 -8 -1 -13 -1 -15c0 -3 0 -7 1 -15
c1 -6 1 -12 1 -16c-1 -5 -2 -8 -4 -10c-5 -3 -22 -4 -52 -1c-13 1 -31 0 -54 -1h-38c-18 1 -32 1 -41 0c-13 -1 -21 -1 -24 0c-2 1 -3 5 -3 11c-1 6 -1 13 0 21v15c-3 23 -2 36 4 41c3 2 7 3 14 4c6 1 10 1 11 1c9 2 16 7 19 15c3 6 5 13 6 22s1 20 0 34c-1 13 -1 21 -1 23
c0 14 1 28 3 41c1 8 2 21 3 38c0 5 1 11 2 20s2 15 2 18c1 10 1 25 1 44c1 20 1 33 1 39c1 18 -1 31 -5 39c-6 8 -16 13 -31 15c-2 1 -5 1 -8 1h-7c-1 1 -3 1 -4 2c-2 1 -3 2 -4 3s-2 9 -2 23c0 3 0 8 -1 16c-1 6 -1 12 -1 16c0 17 2 26 5 29s21 4 54 4c3 0 8 0 15 -1h14
c13 0 23 0 29 1z" />
    <glyph glyph-name="j" unicode="j" horiz-adv-x="245" 
d="M143 726c11 1 25 -2 43 -10c13 -7 21 -22 22 -45c2 -15 0 -29 -7 -43c-7 -12 -16 -22 -28 -27c-15 -5 -30 -5 -46 1s-27 14 -34 25c-11 18 -12 38 -3 60c8 23 26 36 53 39zM73 534c11 1 29 0 53 -2c26 -2 41 -3 47 -3h11c5 0 10 0 14 -1c3 -1 6 -2 7 -3s2 -5 3 -10v-19
v-15v-45c0 -19 0 -34 1 -45c1 -5 0 -20 -2 -45c0 -13 2 -28 5 -43c1 -13 0 -27 -2 -44c-1 -15 -1 -45 0 -90v-46c1 -10 2 -25 2 -45c-1 -7 -2 -23 -1 -46s1 -39 1 -47c-3 -38 -6 -66 -10 -84c-1 -3 -2 -8 -5 -17s-5 -15 -6 -20c-4 -17 -8 -28 -13 -34
c-7 -13 -19 -25 -34 -37c-22 -17 -36 -26 -41 -29c-3 -1 -7 -3 -14 -4l-14 -4c-17 -3 -38 -6 -62 -8c-18 -2 -29 -2 -32 1c-2 2 -3 17 -3 46c-3 27 -2 42 3 47c2 1 5 2 9 2c3 1 8 1 12 1h11c37 3 61 18 72 43c7 16 12 45 15 86c3 13 4 29 4 48c0 3 0 12 -1 26
c-1 15 -1 23 0 26c1 23 2 37 2 42c-1 10 0 25 1 45c0 3 0 10 -1 21c-1 10 -1 18 0 24c2 58 3 88 3 90v22c-1 9 -1 17 -1 22v44c0 3 0 7 -1 12v12c-1 2 -1 5 -2 8c-1 4 -2 7 -2 9c-2 2 -3 4 -6 7c-2 2 -4 4 -7 5c-7 3 -16 4 -26 4c-18 2 -28 4 -29 5s-2 16 -2 43v11
c1 6 1 9 1 12v7c0 3 0 6 1 8c0 2 1 4 2 5c2 1 14 2 37 2z" />
    <glyph glyph-name="k" unicode="k" horiz-adv-x="568" 
d="M81 774c3 1 8 0 14 -3s11 -4 14 -4c4 -1 9 0 16 1s12 2 16 2c3 0 8 0 15 -2c7 0 13 -1 19 -1c21 0 33 -1 35 -4c3 -2 4 -6 4 -13c1 -6 1 -14 0 -23s-1 -14 -1 -15c-1 -12 -1 -30 -1 -55s-1 -43 -2 -54c-1 -19 -1 -38 0 -56c0 -1 1 -18 3 -53c0 -10 1 -27 2 -52
s2 -44 1 -57c-3 -15 -3 -31 -2 -47c1 -18 8 -28 19 -31c12 -4 25 -1 38 10c6 5 11 10 17 15c4 6 10 14 16 23c7 9 11 15 13 18c15 18 22 28 23 29c3 8 3 16 2 22c-2 8 -5 12 -10 15c-1 1 -4 2 -10 4c-4 2 -8 4 -9 6c-1 1 -1 8 -1 21v42c0 11 1 18 2 19s10 2 25 2
c3 1 7 1 13 1c5 0 9 0 12 1c6 1 14 1 26 -1c10 0 18 -1 23 -1c17 1 43 1 78 1c15 0 23 -1 25 -3c1 -1 1 -7 1 -19c-1 -5 -1 -13 0 -22s1 -16 1 -21c0 -11 -1 -17 -3 -19c-1 -3 -6 -4 -17 -3c-10 1 -16 1 -17 0c-7 -2 -13 -5 -17 -9c-4 -5 -9 -13 -14 -24
c-6 -11 -9 -17 -9 -18c-1 -2 -2 -5 -5 -8c-2 -3 -3 -6 -4 -8c-1 -1 -4 -7 -9 -17c-2 -4 -5 -9 -10 -17c-5 -6 -8 -12 -10 -15c-1 -1 -3 -5 -7 -11c-3 -5 -6 -9 -7 -12c-1 -2 -3 -6 -3 -11c-2 -5 -2 -11 -1 -16s2 -11 4 -19s3 -13 4 -15c7 -19 10 -30 11 -32c1 -4 4 -9 7 -16
l7 -14c1 -3 4 -8 8 -14c3 -6 6 -11 7 -14c1 -2 2 -7 5 -15c2 -7 4 -13 6 -17c5 -11 9 -19 12 -25c4 -5 10 -10 18 -16c9 -4 19 -7 30 -6c11 2 17 3 18 2c3 -1 6 -6 10 -16c6 -14 10 -26 13 -36c3 -11 5 -18 5 -19c-1 -5 -8 -9 -22 -13c-3 -1 -7 -2 -14 -4
c-6 -2 -11 -3 -14 -4c-5 -1 -15 0 -32 1c-13 3 -23 5 -29 7l-27 15l-12 9c-3 4 -6 8 -9 10c-3 4 -6 8 -9 14c-3 5 -6 9 -7 12l-7 14c-3 7 -6 11 -7 13c-6 10 -15 29 -26 58c-1 2 -2 7 -5 15c-2 8 -4 14 -5 18c-1 3 -3 7 -7 12c-2 5 -6 8 -10 11c-11 7 -26 7 -43 0
c-2 -1 -6 -3 -13 -5c-6 -2 -11 -4 -14 -6c-4 -1 -8 -4 -12 -6c-4 -4 -7 -7 -8 -11c-9 -21 -9 -40 0 -58c4 -11 15 -17 33 -18c11 -1 18 -3 19 -5c3 -3 4 -17 4 -44c0 -3 0 -6 -1 -12c-1 -4 -1 -8 -1 -11c-1 -12 -2 -18 -3 -19c-3 -2 -11 -3 -25 -3c-21 0 -48 1 -83 2
c-5 0 -14 0 -26 -1s-21 -1 -28 -1c-33 0 -50 1 -53 3c-1 1 -2 15 -2 42c0 25 0 39 1 40c3 3 10 5 22 7c14 3 23 9 28 18c3 5 4 12 5 20c0 8 0 19 -1 31c-1 14 -1 22 -1 27v41c-1 19 -1 32 -1 40c0 9 1 23 1 40c2 18 2 31 2 40c0 8 -1 21 -2 40c0 5 0 11 -2 19
c0 8 -1 14 -1 18c0 3 0 8 1 13s1 9 1 11c0 3 0 7 -1 13c-1 5 -1 10 -1 13c-1 8 0 21 2 40s3 32 2 41c-1 12 -2 21 -1 27c5 39 5 65 -1 77c-5 9 -14 14 -25 16c-3 1 -8 1 -15 1s-12 0 -17 1c-5 0 -8 1 -10 3c-3 2 -4 12 -4 29c-2 20 -3 30 -3 31c0 13 2 20 6 23c1 1 8 2 23 4
c2 0 4 0 6 1c3 1 6 1 8 3c4 0 6 1 7 2z" />
    <glyph glyph-name="l" unicode="l" horiz-adv-x="287" 
d="M46 767h78c4 0 10 0 19 1h19c22 0 34 -1 36 -3c2 -3 3 -16 3 -41v-124c1 -4 1 -18 0 -40c-1 -24 -1 -37 -1 -42c0 -18 1 -46 2 -83c1 -16 1 -43 0 -81c0 -39 0 -67 1 -85c1 -21 1 -49 1 -84v-17c-1 -8 -1 -14 0 -18v-16c0 -6 1 -11 2 -15s3 -8 4 -12c2 -4 4 -7 8 -10
c2 -3 6 -5 10 -6c1 -1 4 -1 8 -1c4 -1 8 -1 10 -2c4 -1 6 -2 7 -4c1 -1 1 -15 1 -42c0 -26 -1 -40 -2 -41c-1 -2 -5 -3 -12 -3c-6 -1 -14 -1 -22 0c-10 1 -14 1 -15 1c-14 1 -35 1 -64 -1c-29 0 -50 -1 -64 0c-12 0 -20 2 -23 5c-1 1 -1 16 -1 43c0 26 1 40 3 42
c2 1 7 2 14 3c8 1 13 1 14 2c9 2 16 7 19 14c5 9 7 30 6 65c-1 21 -2 49 -5 86c-2 36 -4 69 -5 100s-2 61 -2 90v141c0 5 0 11 1 20v21c0 4 0 10 -2 16c0 6 -2 11 -6 15c-2 4 -6 7 -11 9c-1 1 -8 2 -21 4c-13 0 -21 1 -22 2s-2 16 -2 45v15c0 8 0 14 1 19s2 8 3 9
c1 2 5 3 10 3z" />
    <glyph glyph-name="m" unicode="m" horiz-adv-x="862" 
d="M606 558c5 -2 14 -4 24 -6c12 -3 19 -5 24 -6c7 -3 17 -7 28 -14s19 -11 24 -13c27 -14 49 -45 66 -93c9 -27 14 -75 14 -144v-19c1 -13 1 -19 0 -19c-2 -21 -3 -33 -2 -38c0 -4 0 -10 1 -18s1 -14 1 -19v-17c-1 -8 -1 -14 0 -17c0 -3 0 -8 2 -13c0 -5 2 -10 4 -13
c3 -3 6 -6 10 -8c1 -1 4 -1 8 -2s8 -1 11 -2s6 -2 7 -3s1 -9 1 -23c-1 -10 0 -25 1 -46c0 -13 -1 -21 -3 -22c-3 -3 -19 -4 -47 -2h-46h-73c-13 0 -20 1 -21 2c-2 2 -3 17 -3 45c0 27 1 42 2 44s3 3 7 4c2 1 6 1 10 1c3 0 6 0 7 1c13 3 21 10 24 20s3 26 2 47
c-1 7 -1 17 0 29c1 13 1 21 1 25c0 51 -1 87 -3 108c0 3 -1 10 -1 23c-2 13 -3 22 -4 28c-3 12 -10 25 -20 38c-7 10 -12 18 -17 22c-5 6 -12 10 -21 14s-20 6 -31 5c-26 -1 -50 -14 -73 -38c-14 -15 -22 -27 -23 -34c-1 -8 -1 -26 0 -54c1 -24 2 -42 2 -53
c0 -23 -1 -59 -2 -110c-1 -37 4 -59 17 -67c1 -1 6 -2 12 -3c8 -1 12 -3 14 -5c1 -1 1 -9 1 -22c1 -6 1 -14 1 -23v-23c0 -13 -1 -20 -4 -22c-1 -1 -8 -2 -21 -2c-3 0 -6 0 -11 -1h-10c-6 -1 -14 -1 -24 0s-17 1 -22 1c-3 0 -9 0 -20 -1c-10 -1 -18 -1 -25 0
c-27 0 -41 1 -44 3s-4 17 -4 44v25c0 13 1 20 2 22l17 3c13 2 22 7 26 15c5 9 7 22 6 40c0 18 0 31 1 38c0 4 0 10 -1 18v20v18c1 9 1 15 1 20s-2 29 -6 73c-3 31 -7 52 -13 65c-9 19 -21 35 -38 46c-17 12 -36 14 -58 5c-3 -1 -8 -4 -14 -7s-10 -6 -12 -7
c-11 -5 -18 -10 -23 -15c-3 -2 -6 -5 -10 -10c-4 -4 -7 -7 -10 -9c-1 -1 -3 -3 -6 -7c-3 -2 -5 -5 -7 -8c-2 -2 -4 -4 -5 -6c-3 -7 -5 -28 -5 -65c0 -9 0 -21 -1 -37s-1 -27 -1 -33v-36c0 -15 0 -27 -1 -34c-3 -17 -3 -34 -1 -52s9 -29 22 -33c3 -2 8 -3 16 -3
c9 0 14 -1 16 -3c1 -1 1 -8 1 -22v-44c0 -12 -1 -19 -3 -21c-1 -1 -10 -2 -26 -2h-134h-27c-13 -1 -22 -1 -26 2c-1 1 -2 5 -3 9v18c-1 8 -1 12 -1 14c0 10 0 17 -1 21c-2 12 -2 20 0 23c1 1 9 2 22 2c24 1 38 9 41 24c1 5 2 18 2 39c0 14 -1 26 -3 37c-1 14 -2 34 -2 58
c1 26 1 45 0 58c-1 7 0 20 1 38c0 4 0 10 -1 18s-1 14 -1 19c-1 28 -4 45 -10 52c-3 3 -8 6 -13 8c-2 1 -5 1 -10 1c-4 0 -8 0 -11 1s-6 2 -7 4c-2 2 -3 16 -3 43c0 26 1 40 4 42c2 3 14 4 35 4h37c39 1 63 1 72 -2c3 -1 7 -2 11 -5c6 -3 9 -4 12 -5c3 0 7 1 14 2
c5 1 14 6 25 15c7 4 16 8 28 11c17 5 41 4 70 -3c18 -3 37 -11 57 -22c3 -1 7 -3 13 -6s10 -5 13 -7c17 -7 26 -11 29 -11c8 0 15 2 23 5c6 4 14 10 22 16c9 8 14 12 16 13c10 8 20 13 31 16c16 6 35 8 57 5z" />
    <glyph glyph-name="n" unicode="n" horiz-adv-x="615" 
d="M343 558c3 0 16 -3 39 -10c14 -4 33 -11 57 -22c20 -11 31 -17 34 -20c1 -1 9 -11 25 -30c11 -15 17 -26 19 -33c3 -7 6 -19 10 -36c7 -27 11 -68 11 -124v-27c1 -13 1 -24 1 -34c0 -11 0 -20 -1 -29c-1 -13 -1 -27 0 -43v-15c1 -7 1 -13 2 -15c0 -4 1 -8 2 -12
c1 -6 3 -9 6 -12c2 -3 5 -5 9 -6c1 0 4 -1 11 -2c6 -2 10 -4 11 -7c1 -1 2 -8 2 -19c1 -6 1 -13 1 -20v-13v-17c-1 -6 -2 -9 -3 -10s-16 -2 -44 -2h-112h-7c-4 1 -6 1 -8 1c-3 0 -4 0 -5 1c-3 2 -4 15 -4 39c-5 20 -4 33 2 39c1 3 8 4 21 4c18 3 29 11 33 23c1 7 2 12 1 15
c0 3 0 9 -2 16c0 8 -1 13 -1 16s-1 10 -1 21c-2 11 -3 20 -4 25c-3 27 -5 43 -5 48c0 7 -1 16 -2 26c-1 12 -2 18 -2 20c-1 3 -1 8 -1 15v15c-3 36 -7 62 -14 77c-15 30 -37 48 -65 54c-29 7 -61 1 -95 -19c-14 -9 -25 -18 -34 -27c-13 -12 -22 -23 -27 -33
c-3 -5 -4 -11 -5 -18c0 -6 0 -14 1 -24c1 -11 1 -18 1 -22v-17c1 -11 1 -17 0 -17c-1 -7 -1 -42 -1 -103c0 -3 0 -11 -1 -22v-23c1 -4 2 -10 4 -16c1 -8 4 -12 8 -16c4 -2 9 -5 16 -6h8h11c3 -1 6 -2 7 -3c1 -2 2 -6 2 -11c1 -6 1 -13 0 -20s-1 -12 -1 -13
c3 -25 2 -39 -1 -43c-3 -3 -11 -3 -24 -2h-29c-51 -1 -87 -1 -110 0h-28c-13 -1 -21 -1 -25 2c-1 2 -2 10 -2 25c0 1 -1 4 -2 11s-2 12 -1 15c0 1 1 7 2 18c1 9 3 14 4 16c2 1 9 2 21 2c19 1 31 7 36 17c3 5 4 10 5 16c1 7 0 16 -1 26c-1 12 -2 18 -2 20v34
c-1 14 -1 25 -2 32c-1 15 -1 60 -1 134c0 29 -3 48 -8 57c-5 8 -12 13 -21 15c-1 1 -4 1 -8 2c-4 0 -7 0 -10 1s-5 2 -6 4c-2 2 -3 16 -3 41c0 28 1 43 3 44c3 2 14 3 33 3c16 -1 39 -1 68 -1c19 0 31 0 34 -1s6 -3 10 -6s7 -5 9 -6c7 -2 14 -2 20 1c7 2 14 6 20 10
c8 6 13 9 16 10c1 0 12 3 34 8c35 5 54 8 58 8h1z" />
    <glyph glyph-name="o" unicode="o" 
d="M264 558c3 0 10 -1 19 -2c9 -2 16 -3 20 -3c17 -1 40 -7 71 -17c18 -5 38 -19 59 -40c10 -11 18 -22 24 -33c19 -35 30 -62 34 -81c7 -22 10 -37 11 -45c3 -27 2 -72 -4 -133v-14c-1 -7 -1 -13 -2 -16s-2 -9 -4 -16c-3 -8 -4 -13 -5 -15c-7 -37 -19 -64 -35 -81
c-3 -3 -17 -16 -42 -37c-11 -10 -27 -19 -49 -28c-16 -8 -36 -14 -61 -17c-3 -1 -15 -1 -36 -1h-39c-17 2 -37 8 -59 17c-6 2 -15 7 -26 14c-3 2 -7 4 -12 8c-5 2 -9 5 -12 7c-2 2 -5 6 -8 11c-4 5 -7 9 -10 12c-2 3 -6 6 -10 11c-6 5 -9 8 -10 10c-13 13 -22 31 -28 53
c-1 3 -4 12 -10 26c-5 16 -9 27 -10 36c-1 5 -3 14 -4 26c-1 13 -3 22 -4 28c0 1 -1 4 -2 8s-2 7 -1 10c0 5 1 11 3 19s3 14 3 17c1 3 1 8 2 16c1 9 2 15 3 19c1 5 3 13 4 21c1 10 3 18 4 25c2 7 4 14 6 20c1 5 4 11 9 19c5 9 7 14 8 16c1 3 4 9 9 19c4 10 7 17 10 21l19 19
c3 3 6 6 10 11l9 9c4 5 11 11 21 18c3 1 7 4 11 8c6 4 9 7 12 8c5 2 13 4 24 5c23 6 49 10 78 12zM191 450c-21 -11 -40 -39 -55 -86c-1 -1 -4 -21 -11 -60c-3 -15 -5 -37 -5 -67c0 -45 17 -87 51 -126c19 -21 37 -34 55 -37c10 -2 28 -2 55 0c15 1 30 4 45 11c2 1 8 5 17 9
c9 6 16 10 20 13c19 14 31 37 38 69c3 19 5 33 8 44c5 19 8 34 8 46c0 6 -1 15 -2 26s-2 20 -2 25c-1 25 -4 41 -7 49c-3 13 -11 26 -22 41c-32 42 -77 61 -136 58c-21 -2 -40 -7 -57 -15z" />
    <glyph glyph-name="p" unicode="p" horiz-adv-x="560" 
d="M313 556c10 1 28 -1 55 -6c23 -3 38 -7 47 -12c4 -2 14 -8 29 -19c23 -12 39 -28 50 -47c8 -14 14 -24 18 -30c1 -1 5 -13 13 -36c6 -23 9 -35 9 -37c5 -22 7 -36 7 -43c0 -5 1 -13 2 -24c1 -10 2 -17 2 -20c0 -5 0 -11 -1 -20c-1 -8 -1 -14 -1 -17v-39
c-1 -11 -3 -22 -6 -35c-6 -40 -15 -70 -28 -89c-10 -15 -22 -29 -37 -44c-3 -3 -18 -15 -45 -34c-17 -12 -36 -19 -56 -22c-33 -3 -57 -3 -74 0l-32 8c-31 10 -51 8 -58 -7c-2 -5 -3 -21 -3 -50v-7c0 -20 1 -35 4 -44c3 -10 9 -17 20 -21c1 -1 6 -1 14 -3c7 0 12 -2 13 -4
s2 -6 3 -10v-18c-1 -7 -1 -11 -1 -14c0 -26 -1 -40 -4 -43c-2 -1 -13 -2 -32 -2c-5 0 -10 0 -17 -1c-6 -1 -11 -1 -14 -1c-4 0 -10 0 -18 1h-21c-7 0 -19 1 -37 2c-16 1 -30 1 -40 0c-21 -2 -34 -2 -37 1c-2 2 -3 5 -3 10v17c1 8 1 13 1 16c0 25 1 39 3 42c2 1 11 2 27 2
c25 1 39 7 44 18c4 9 5 31 3 67c-1 5 -2 11 -2 18c-2 7 -2 12 -2 15c-1 7 -1 19 -1 35c0 1 -2 24 -6 67c-1 18 -2 43 -3 76s-1 54 -2 64c-1 8 0 20 1 35s2 26 2 32c-1 15 -1 39 -1 71v21c1 11 1 18 0 22c0 4 0 9 -2 17c0 6 -3 12 -6 16c-3 3 -7 6 -12 8c-6 2 -13 3 -21 3
c-1 0 -4 0 -9 1c-6 0 -10 1 -12 2c-2 2 -3 6 -4 12v20c1 7 1 12 1 15c-2 26 -1 40 3 43c3 1 14 2 35 2h70c21 0 32 0 35 -1s7 -3 12 -7c6 -3 12 -5 18 -4c3 0 12 3 26 8c12 7 19 11 22 12c10 5 30 9 59 12zM271 452c-12 -7 -23 -16 -34 -27c-15 -14 -25 -24 -29 -31
c-4 -9 -7 -25 -8 -50c-1 -6 -1 -15 0 -26c1 -12 1 -20 1 -24c0 -23 0 -39 1 -50c2 -32 3 -49 3 -50c1 -7 1 -14 1 -20c-1 -5 -1 -11 0 -18c0 -6 1 -11 2 -16c7 -15 22 -28 43 -39c23 -12 42 -19 55 -22c14 -3 26 -3 35 -1c35 5 60 19 75 41c2 3 5 9 8 15c3 8 6 12 7 15
c7 13 10 21 11 24c1 6 3 27 5 62c0 8 -1 19 -2 34s-2 24 -2 27c0 5 -1 11 -1 17c-2 6 -3 13 -4 20c-2 7 -3 13 -4 18c-1 3 -2 8 -4 13c-1 6 -2 10 -2 13c-3 16 -5 25 -6 27c-7 19 -18 32 -33 39c-10 6 -23 11 -39 14c-9 2 -25 2 -50 1c-11 0 -20 -2 -29 -6z" />
    <glyph glyph-name="q" unicode="q" horiz-adv-x="561" 
d="M218 554c1 1 7 2 18 0c11 0 17 -1 18 -1c18 -1 38 -7 60 -16c16 -7 27 -10 32 -9c3 0 7 1 12 3s9 3 12 4c3 0 10 0 18 -1c10 0 16 0 21 1c5 0 11 0 20 -1s15 -1 20 -1c7 1 20 1 39 1c21 2 33 1 37 -2c2 -3 3 -17 3 -44s-1 -41 -3 -44c-2 -1 -11 -2 -28 -2
c-23 0 -37 -7 -42 -21c-1 -4 -2 -27 -2 -68c2 -44 3 -67 3 -69c6 -69 9 -114 8 -134v-35v-17c-1 -7 -1 -13 -1 -17c0 -7 -1 -19 -2 -34s-2 -27 -1 -35c1 -7 1 -19 2 -35s1 -28 2 -35v-28c-1 -12 -1 -21 0 -26c1 -6 3 -12 7 -18s10 -10 18 -11c3 -1 8 -1 17 -1
c9 -1 14 -2 16 -4c3 -3 5 -17 5 -43c0 -3 -1 -11 -2 -23c-2 -13 -3 -19 -4 -20c-2 -2 -6 -3 -13 -3s-14 0 -22 1h-17c-5 -1 -11 -1 -17 -1s-13 0 -20 1h-17h-27c-11 1 -20 1 -28 1l-14 -1c-10 -1 -19 -1 -26 0c-8 0 -13 1 -14 2s-2 16 -2 43v22c0 13 1 20 2 21s4 2 6 3
c4 1 7 1 11 1h7c7 1 12 4 16 7c5 3 8 9 9 17c1 7 2 13 3 18v26v14v13v11c-1 6 -1 9 -2 12l-3 9s-3 6 -5 8c-3 2 -6 3 -9 4c-7 1 -20 -1 -41 -8l-39 -9c-15 -2 -31 -2 -50 -1c-6 0 -14 1 -24 3c-10 3 -16 4 -17 4c-13 3 -24 8 -33 16c-35 27 -53 42 -55 44c-1 1 -4 5 -11 12
s-11 12 -13 17c-1 1 -4 8 -10 22c-1 3 -2 7 -5 11c-3 6 -5 10 -6 13c-1 6 -3 16 -6 29s-4 21 -5 24c-5 24 -8 43 -7 58c1 14 2 24 1 31c0 3 0 7 -2 14c0 7 -1 12 -1 15c0 2 0 4 1 6c0 2 0 4 1 6c1 3 1 5 1 7l3 21c0 9 1 17 3 24s5 17 10 29c4 12 6 19 7 21c4 16 8 27 11 34
c1 2 4 6 8 13c3 7 6 11 8 13c1 3 4 7 7 12s6 9 9 12c2 3 5 6 8 10c3 3 7 6 11 10c4 2 8 5 12 8c2 1 6 4 13 9s12 8 15 9c7 4 19 7 36 10c22 5 35 7 39 8zM159 431c-13 -14 -23 -36 -30 -66c-1 -3 -2 -9 -3 -18c-2 -9 -3 -17 -4 -22s-1 -13 -2 -24v-21c0 -4 -1 -11 -3 -20
c-2 -10 -3 -18 -3 -24c0 -17 2 -32 5 -44c1 -2 4 -14 11 -35c2 -4 4 -10 8 -18c2 -8 5 -14 6 -17c8 -14 23 -27 46 -38c18 -7 39 -9 64 -5c20 3 39 9 56 20c22 13 35 25 40 36c7 13 9 34 8 64c-1 9 0 30 2 63c1 23 1 43 -1 62v31c1 11 1 22 -1 31s-13 21 -33 36
c-17 15 -28 24 -33 28c-13 6 -35 8 -64 7c-32 -1 -55 -10 -69 -26z" />
    <glyph glyph-name="r" unicode="r" horiz-adv-x="389" 
d="M328 559c6 1 15 -1 26 -6c10 -3 16 -5 17 -8c1 -1 1 -8 1 -21c-1 -11 -1 -26 -1 -44c-2 -11 -4 -17 -5 -18s-9 -2 -26 -2c-21 1 -45 -5 -70 -19c-3 -1 -14 -9 -34 -24c-19 -18 -30 -33 -33 -44c-3 -13 -3 -34 -2 -65c0 -13 0 -27 -1 -42c0 -15 0 -31 -1 -48
c-1 -18 -1 -32 -1 -43c-1 -41 2 -65 10 -72c5 -5 12 -8 22 -9h8c4 -1 8 -1 10 -2c4 -1 6 -2 7 -3c2 -2 3 -5 3 -11c1 -4 0 -11 0 -18c-2 -7 -2 -12 -2 -14c0 -3 0 -8 1 -15s1 -12 1 -17c-1 -5 -2 -8 -4 -11c-3 -4 -20 -5 -51 -3h-138c-15 0 -23 1 -25 3c-2 1 -3 8 -3 21
c1 7 1 14 0 23s-1 15 -1 20c0 11 1 18 4 20c3 3 11 4 23 2c20 0 32 5 37 16c3 6 4 13 4 21c1 9 0 19 -2 32c-1 13 -2 22 -2 27v23c0 9 0 16 -1 21s-2 11 -4 19c-2 7 -3 13 -4 16c-1 5 -1 12 -1 22c-1 9 -1 15 -1 18v42v14v16c0 4 0 9 -1 15c0 6 0 11 -1 15c-1 3 -1 7 -3 12
c0 5 -2 8 -4 11c-1 3 -3 5 -6 7c-4 3 -9 5 -14 6c-2 1 -5 1 -8 1s-6 0 -8 1c-3 1 -5 2 -7 3c-5 4 -6 15 -5 34c1 4 1 9 0 17v21c1 7 2 12 4 14c3 2 15 3 36 3h74c21 0 34 0 37 -1c2 0 7 -2 15 -6s16 -5 23 -3c3 1 11 4 24 11c6 4 13 7 22 10s19 5 32 7s22 4 28 5h1z" />
    <glyph glyph-name="s" unicode="s" horiz-adv-x="450" 
d="M210 553c5 1 15 -1 30 -4c1 -1 8 -2 18 -5c12 -2 20 -4 26 -7c16 -4 27 -6 33 -5c3 1 8 3 15 6c6 4 11 6 15 7c5 1 11 1 20 0s15 -1 18 -1c22 0 34 -1 35 -2c2 -3 3 -14 3 -33c0 -25 -1 -60 -2 -105c0 -13 -1 -20 -2 -22s-11 -3 -30 -3s-30 0 -33 1s-9 9 -19 23
c-23 25 -49 41 -76 48c-26 6 -50 5 -72 -2c-11 -4 -20 -7 -25 -11c-6 -2 -11 -8 -16 -16c-5 -7 -7 -17 -6 -29c1 -14 11 -29 28 -45c10 -10 25 -19 44 -27c11 -4 25 -11 40 -20l30 -18c1 -1 5 -2 12 -5c6 -2 11 -4 14 -6c30 -14 58 -34 83 -60c17 -19 27 -44 31 -77
c1 -20 2 -33 1 -39c-3 -27 -14 -49 -32 -67c-25 -25 -59 -40 -103 -47c-10 -1 -26 -2 -47 -2s-36 1 -47 3c-5 1 -12 2 -21 5l-21 3c-3 1 -7 4 -12 7c-5 4 -10 7 -16 8c-4 2 -10 2 -15 0c-3 -1 -7 -4 -11 -8c-5 -4 -8 -6 -11 -7h-31c-19 0 -29 1 -30 2c-2 1 -3 4 -4 7v10
c1 2 1 6 0 9c-3 15 -4 24 -4 28c0 1 0 4 1 11s1 12 0 16v26c2 16 3 25 3 28c0 16 1 25 2 26c2 2 13 3 33 3c15 0 26 -2 32 -5c3 -2 10 -10 19 -23c5 -5 13 -11 22 -18c21 -15 39 -26 53 -32c27 -8 50 -10 71 -7c33 5 53 16 58 35c3 9 3 17 0 25c-1 4 -3 8 -6 11
c-2 3 -5 7 -9 9c-4 4 -7 6 -9 8c-3 1 -7 4 -13 8c-6 3 -10 5 -11 6c-8 6 -18 11 -29 16c-4 2 -10 4 -17 6c-8 3 -14 5 -17 6s-8 4 -14 8l-12 8c-5 3 -15 8 -27 14c-14 7 -23 12 -28 16c-3 2 -6 5 -12 10c-4 4 -9 7 -12 9c-14 11 -28 25 -42 42c-23 27 -33 59 -29 98
c0 5 1 12 4 20c6 29 17 52 33 70c7 9 22 19 44 30c3 1 8 4 14 7c7 3 12 6 15 7c13 4 24 6 35 7c5 1 11 2 20 3s15 2 18 2z" />
    <glyph glyph-name="t" unicode="t" horiz-adv-x="321" 
d="M132 679c24 0 38 -2 41 -7c1 -1 1 -4 1 -8c1 -3 1 -8 2 -12v-11c1 -13 2 -24 3 -31c0 -3 0 -8 1 -16c1 -9 1 -15 2 -18s2 -8 3 -14c1 -5 3 -10 6 -13s6 -6 9 -8c8 -5 29 -7 62 -7c13 0 20 -1 21 -3c1 -1 1 -3 1 -5c1 -4 1 -6 0 -9c0 -3 0 -5 1 -8v-45
c0 -13 -1 -20 -2 -22c-1 -1 -14 -2 -38 -2c-30 0 -48 -6 -55 -19c-5 -10 -6 -26 -5 -49c1 -10 1 -28 0 -52c-1 -26 0 -43 1 -52c1 -19 1 -38 2 -60c1 -20 2 -40 2 -58c2 -17 7 -32 16 -44c10 -11 25 -17 44 -17c2 0 6 1 12 1c7 2 11 1 12 0c3 -1 5 -3 7 -8c2 -4 4 -10 5 -16
c2 -8 3 -12 4 -14c1 -3 3 -10 5 -20c2 -13 3 -20 2 -22c-1 -4 -10 -8 -25 -11c-14 -5 -23 -8 -27 -9c-27 -3 -49 -1 -64 5c-9 3 -23 12 -44 27c-16 13 -27 25 -33 38c-17 35 -25 94 -22 177c0 5 0 12 -1 23s-1 19 0 24c0 5 0 13 1 24c1 10 1 18 1 24c0 5 0 14 1 28
s1 25 1 33s-1 16 -5 25c-2 9 -7 15 -13 18c-5 3 -12 5 -22 6c-13 0 -21 1 -24 4c-2 1 -3 12 -3 33c0 3 0 9 -2 16c0 7 -1 12 -1 15c0 12 2 19 6 22c2 1 11 2 26 2c18 0 30 5 35 14c5 7 7 28 7 61v34c0 18 1 28 3 30c1 1 7 2 19 4c7 0 14 1 21 2z" />
    <glyph glyph-name="u" unicode="u" horiz-adv-x="620" 
d="M483 535c17 0 26 -1 29 -3c1 -1 3 -10 4 -26v-42c0 -18 0 -32 1 -41c1 -58 3 -94 5 -108c1 -6 2 -15 3 -27c1 -11 1 -20 2 -25c3 -17 4 -35 3 -54c0 -5 0 -14 1 -27c1 -12 1 -21 0 -27c-2 -23 -1 -39 4 -49c5 -11 15 -16 32 -17c11 -1 16 -3 17 -4c2 -1 3 -8 3 -19
c-1 -5 -1 -13 -1 -22c0 -10 0 -18 -1 -23c0 -12 -1 -18 -2 -19c-1 -2 -13 -3 -36 -3c-6 0 -18 0 -35 1c-18 1 -32 1 -42 0h-37c-3 1 -7 3 -12 6s-8 5 -11 6c-7 2 -12 2 -18 0c-4 -3 -10 -6 -16 -12c-6 -4 -10 -8 -13 -9c-11 -5 -22 -8 -35 -10c-2 0 -5 0 -10 -1
c-5 0 -8 0 -10 -1c-9 -4 -15 -6 -18 -6c-4 0 -9 2 -16 6c-26 7 -42 11 -48 14c-25 9 -44 17 -55 25c-21 14 -41 35 -60 64c-1 1 -3 5 -7 12c-4 6 -7 11 -8 14c-1 4 -3 10 -4 18c-1 7 -2 13 -3 17c-4 14 -7 26 -9 35c-1 9 -2 22 -2 40s-1 32 -2 41s-1 23 2 39c2 18 3 31 2 40
c0 4 0 10 -1 20c-1 8 -1 15 -1 20v26c-1 5 -2 10 -5 17s-7 11 -12 14c-2 1 -6 2 -13 3h-4c-3 1 -5 1 -6 2c-1 0 -2 0 -3 1s-2 9 -2 23c0 5 0 13 -1 23v25c0 12 1 19 3 20c3 2 15 3 38 3c10 0 25 0 47 -1h48c9 0 15 -1 17 -2c3 -3 3 -17 1 -44c-1 -9 -1 -24 0 -46v-45
c0 -5 -1 -18 -2 -39c-1 -20 -2 -37 -2 -50v-22c1 -11 1 -19 1 -25s0 -15 -1 -28s-1 -24 -1 -33c0 -10 1 -19 3 -27c5 -27 15 -48 31 -63c21 -20 42 -31 61 -33c21 -1 36 -1 45 0c4 1 16 4 35 11c35 15 55 33 60 54c1 2 2 13 3 34c0 7 0 19 -1 36c-1 16 -1 28 0 36
c2 34 3 69 3 106c0 17 0 29 -1 37c0 16 -1 27 -3 33c-6 11 -18 17 -36 18c-13 2 -19 3 -20 4s-2 15 -2 42s1 42 2 43c3 3 12 4 29 4c32 -2 63 -2 93 0z" />
    <glyph glyph-name="v" unicode="v" horiz-adv-x="598" 
d="M189 536c3 1 9 1 17 0c7 -1 12 -2 13 -4c1 -1 2 -8 2 -19v-44c0 -11 -1 -18 -2 -20c-1 -3 -5 -5 -11 -8s-10 -5 -11 -7c-9 -11 -8 -28 3 -53c1 -3 4 -8 6 -15c4 -7 6 -12 7 -15c12 -42 19 -64 20 -67c5 -15 12 -36 23 -63c1 -2 2 -7 6 -15c2 -7 5 -13 7 -16
c2 -4 5 -8 9 -12c3 -5 7 -8 12 -9c20 -7 34 4 41 35c1 4 3 12 7 22c2 12 5 20 8 25c1 4 4 10 9 17c5 8 8 14 9 18c3 7 7 19 12 38c5 18 10 32 14 41c1 3 2 8 4 13c2 6 4 11 5 16s2 9 3 13c1 16 -3 26 -12 31c-1 1 -5 3 -10 4c-5 2 -9 4 -10 7c-2 4 -2 12 -1 24c0 3 0 8 1 13
v12c0 1 0 3 -1 8s-1 8 -1 12c1 2 2 5 4 7c1 1 9 3 24 4c9 0 18 1 26 2c21 2 39 3 52 3c7 1 16 1 28 0h27c3 1 7 1 13 2h14c14 0 22 -1 23 -3c1 -1 2 -8 2 -20c-1 -5 -1 -13 -1 -23v-22c0 -13 -1 -19 -2 -20c-2 -3 -8 -4 -19 -4c-14 -1 -24 -6 -31 -15c-5 -5 -13 -22 -24 -52
c-1 -3 -6 -19 -16 -49c-8 -28 -16 -50 -22 -64c-5 -11 -12 -29 -20 -56c-2 -5 -6 -13 -12 -25c-5 -12 -9 -21 -11 -28c-4 -10 -11 -27 -20 -52s-17 -43 -23 -56c-3 -7 -8 -15 -14 -26c-7 -13 -12 -20 -16 -21c-4 -2 -14 -2 -29 0c-9 1 -20 0 -33 -1c-3 0 -8 0 -14 1
c-8 1 -13 1 -18 1c-2 0 -6 -1 -14 -1c-6 -2 -11 -2 -14 -1s-5 4 -8 9c-3 4 -5 10 -8 18c-3 9 -4 13 -5 14c-2 4 -4 9 -5 14c-2 5 -4 11 -6 17s-4 11 -5 14c-4 14 -9 29 -15 46c-1 5 -3 9 -4 15l-6 16c-2 6 -4 11 -5 14c-5 21 -10 37 -15 47c-2 6 -8 21 -17 44
c-1 2 -3 9 -6 20s-6 20 -9 26c-2 6 -8 21 -17 44c-2 5 -4 12 -5 23c-2 10 -4 17 -5 20c-10 25 -23 38 -39 41c-1 1 -6 1 -12 2c-8 1 -12 2 -14 3c-3 2 -4 14 -4 35v9c-1 3 -1 6 -2 8c-5 19 -4 30 3 35c3 2 14 3 33 3h70c5 1 16 0 33 -2c5 -1 12 0 20 0c8 2 13 2 14 2z" />
    <glyph glyph-name="w" unicode="w" horiz-adv-x="907" 
d="M187 536c3 1 11 0 22 -1c1 0 4 0 7 -1h9c3 -1 5 -1 6 -2c3 -3 3 -18 1 -43v-22c0 -12 -1 -19 -2 -20c-1 -2 -6 -4 -14 -5l-12 -3c-11 -5 -17 -15 -16 -30s5 -33 14 -56c8 -18 13 -36 16 -54c1 -3 2 -7 2 -15c2 -6 2 -12 3 -15s3 -8 5 -13c3 -6 4 -10 5 -12
c9 -33 14 -51 16 -55c4 -9 11 -14 21 -15s18 4 23 13l15 42c2 7 6 20 12 39c5 19 10 35 13 46c5 15 9 29 12 44c3 19 7 35 10 46s7 25 13 44c5 19 9 32 12 41c1 3 2 8 4 15c1 7 3 14 4 18c2 6 4 9 5 10c3 1 12 2 27 2h55c16 0 25 -1 27 -2c1 -1 4 -7 11 -20
c11 -27 19 -50 24 -69c2 -7 5 -17 9 -31c4 -12 8 -24 10 -35c4 -11 6 -21 8 -30c11 -37 19 -60 23 -69c3 -7 7 -18 13 -33s10 -26 13 -33c3 -9 5 -15 7 -19c1 -4 4 -8 9 -12s10 -6 17 -5c5 1 10 3 14 8c3 4 6 8 7 11s3 9 5 17c2 9 3 14 4 16c3 10 6 21 9 33
c11 35 17 56 18 64c2 12 8 34 17 66c4 14 5 25 3 34c-2 13 -8 21 -17 25c-1 1 -4 2 -10 4c-6 1 -10 3 -11 5s-1 15 -1 38c0 22 1 34 2 35c2 1 10 2 24 2h26c8 -1 25 0 50 1c7 1 16 1 28 0c11 -1 19 -1 24 -1c31 0 48 -1 50 -3c1 -1 1 -2 2 -5v-8c1 -2 1 -5 1 -6v-23
c0 -26 -1 -40 -2 -42s-7 -4 -18 -5c-11 -2 -17 -3 -18 -4c-13 -4 -22 -20 -27 -47c-6 -21 -11 -38 -14 -53c-1 -3 -3 -7 -5 -13s-3 -10 -4 -13c-5 -18 -13 -45 -23 -80c-9 -35 -16 -61 -21 -78c-2 -7 -5 -16 -7 -29c-4 -13 -6 -21 -7 -25c-3 -7 -6 -16 -9 -30
c-3 -12 -5 -20 -6 -22s-5 -10 -10 -24c-5 -13 -9 -21 -12 -23h-34c-8 -1 -20 -1 -34 -1h-36c-21 0 -32 0 -33 1c-5 3 -9 14 -13 34c-7 20 -11 33 -12 38c-3 15 -8 36 -16 63c-6 27 -11 44 -13 51c-1 3 -2 9 -3 19c-2 8 -4 15 -5 19c-9 23 -13 35 -13 36c-1 2 -2 6 -4 13
s-4 12 -5 16c-1 3 -3 7 -7 12c-2 4 -6 7 -10 8s-9 1 -15 0c-9 -2 -17 -12 -22 -30c-4 -10 -8 -24 -12 -41c0 -1 -8 -29 -24 -82c-1 -4 -3 -10 -5 -19c-4 -9 -6 -15 -7 -20c-5 -19 -9 -32 -12 -41c-3 -14 -8 -28 -13 -41c-1 -1 -2 -4 -4 -10c-2 -7 -4 -12 -6 -16
c-2 -5 -4 -8 -6 -9c-1 -1 -14 -1 -37 -1h-76c-22 0 -34 0 -35 1c-3 2 -7 10 -12 24c-3 8 -5 17 -8 26c-5 19 -15 55 -31 108c-9 36 -13 54 -13 55c-6 21 -11 39 -14 54c-5 19 -14 46 -26 79c-1 3 -2 8 -2 15c-2 6 -2 10 -3 13c-1 2 -1 4 -3 7c0 2 -1 4 -2 6c0 2 0 4 -2 7
c0 3 -1 5 -2 7c-3 12 -7 21 -12 26c-4 6 -11 10 -21 12c-2 1 -6 1 -12 2c-6 0 -10 1 -12 2c-2 2 -3 6 -3 11c-1 5 -1 12 0 19v15c0 1 0 6 -1 13c-1 8 -1 14 -1 20c1 4 2 8 4 10c2 1 16 2 41 2h22c9 1 16 1 20 1c5 0 13 0 22 -1h20c9 0 23 1 42 2z" />
    <glyph glyph-name="x" unicode="x" horiz-adv-x="573" 
d="M125 536c7 0 17 -1 32 -2h65c19 0 30 -1 32 -2s3 -4 4 -10v-17c-1 -7 -1 -11 -1 -14v-21c0 -9 -1 -16 -2 -19c-1 -1 -2 -3 -5 -5c-3 -1 -4 -2 -5 -3c-13 -7 -17 -18 -11 -33c1 -5 8 -12 20 -23c16 -15 29 -22 40 -21c4 0 8 1 13 3c7 2 15 8 24 17c9 6 15 13 19 21
c3 8 4 16 1 24s-8 13 -16 16c-1 1 -2 1 -5 2s-5 2 -6 3s-2 13 -2 36c0 1 0 5 -1 12s-1 12 -1 16c1 5 2 8 4 10c1 1 2 1 5 1s6 0 10 1h10c5 0 21 1 46 2c25 2 44 3 57 4h26c11 0 20 0 27 1c13 0 20 -1 23 -4c1 -1 2 -15 2 -41c3 -23 2 -36 -1 -39c-2 -2 -9 -3 -22 -3
c-9 0 -16 -2 -23 -6c-7 -3 -11 -6 -13 -8c-2 -3 -7 -8 -14 -17c-3 -5 -8 -10 -15 -17c-3 -4 -8 -10 -14 -18c-6 -9 -11 -15 -15 -20l-27 -36c-1 -1 -5 -6 -12 -17c-8 -11 -13 -19 -14 -24c-1 -8 -1 -15 1 -21c1 -6 4 -12 9 -18c4 -7 9 -13 16 -20s11 -11 13 -14
c18 -28 30 -46 36 -53c5 -6 12 -14 21 -23c2 -3 7 -10 14 -20c7 -12 14 -19 21 -24s15 -7 26 -8c11 0 18 -1 19 -2c3 -2 4 -15 4 -39c-1 -4 -1 -9 0 -14v-17c-1 -5 -2 -9 -3 -10c-3 -4 -19 -5 -46 -3h-24c-3 0 -6 0 -11 -1s-8 -1 -10 -1c-4 -1 -9 -1 -16 1c-6 0 -10 1 -12 1
c-11 1 -30 1 -57 1c-16 0 -25 1 -27 2c-3 2 -3 15 0 38c0 24 0 37 1 39c1 3 4 6 7 9s5 5 6 7c1 5 1 9 0 12c0 3 -1 6 -4 10c-2 4 -3 6 -3 7c-2 5 -10 16 -25 31c-3 3 -6 7 -8 13c-4 5 -6 9 -8 12s-6 5 -10 8c-6 3 -11 2 -18 -2c-6 -3 -15 -13 -28 -32
c-16 -21 -24 -32 -25 -35c-4 -13 -1 -24 10 -32c1 -1 2 -2 5 -3c2 -2 3 -4 4 -5c2 -3 3 -7 3 -11c0 -5 0 -10 -1 -16c-1 -5 -1 -9 -1 -12c0 -2 0 -6 1 -12c1 -7 1 -12 1 -17s-1 -8 -3 -9c-2 -2 -19 -3 -50 -3c-7 -1 -16 -1 -27 0s-19 1 -23 1h-39c-18 -1 -31 -1 -39 -1
c-13 0 -21 1 -23 2c-5 4 -6 17 -4 39c1 4 1 11 1 20l3 18c1 1 3 2 7 3c2 1 6 1 10 1h9c6 1 11 2 15 5c5 3 8 5 10 6c1 1 4 5 9 12s7 10 8 11c2 4 6 9 11 15s9 10 10 11c9 11 15 20 20 28c3 3 7 8 12 15c4 7 7 11 8 13c2 3 6 8 13 15s11 12 14 15c21 27 28 49 20 66
c-3 5 -7 11 -13 20c-7 8 -11 14 -14 18c-5 9 -9 16 -12 19c-8 11 -13 18 -14 20c-2 4 -4 8 -8 12c-2 4 -6 9 -9 13c-3 6 -6 9 -8 12c-1 1 -3 4 -7 9s-7 8 -8 9l-8 8c-3 3 -6 6 -9 6c-3 2 -6 3 -11 4c-4 2 -8 3 -13 4c-11 1 -17 3 -18 4s-2 14 -2 39s1 39 2 40c2 3 12 4 30 4
s29 0 34 1z" />
    <glyph glyph-name="y" unicode="y" horiz-adv-x="597" 
d="M140 536c21 -3 37 -4 50 -3c15 0 24 0 25 -1c2 -1 3 -15 3 -42v-11c1 -5 1 -8 1 -10c0 -12 -1 -19 -3 -21s-4 -3 -6 -4s-4 -1 -7 -2s-5 -1 -6 -2c-11 -6 -15 -17 -11 -33c1 -5 5 -16 12 -31c7 -17 11 -26 12 -29c4 -7 8 -18 13 -33c5 -14 8 -23 10 -27s6 -13 13 -27
c6 -13 10 -24 13 -31c9 -33 18 -51 27 -56c7 -3 15 -4 24 -1c5 2 10 6 14 12c4 7 8 15 11 26c3 10 6 16 7 19c1 1 2 6 5 13c3 8 5 14 7 18c7 17 11 27 12 31c3 5 6 15 11 31c5 14 9 26 13 33c20 33 23 58 10 74c-2 2 -6 4 -10 7c-6 3 -9 5 -11 8c-5 7 -6 22 -4 43
c0 10 0 18 1 24c0 13 1 20 2 21s10 2 25 2h25c14 1 32 0 52 -2c22 -2 38 -3 49 -3c27 0 43 -2 47 -5c2 -3 3 -15 3 -38c0 -2 0 -6 1 -12s1 -11 1 -16c0 -4 -1 -7 -3 -10c-1 -2 -2 -3 -4 -4c-3 -1 -6 -1 -11 -1s-8 0 -10 -1c-3 -1 -7 -2 -11 -4c-7 -3 -12 -8 -15 -14
c-3 -5 -7 -14 -9 -26c-4 -11 -5 -18 -6 -21c-2 -4 -5 -9 -10 -16c-4 -7 -7 -12 -8 -15c-4 -9 -8 -23 -14 -42c-4 -19 -8 -31 -9 -34c-1 -5 -4 -11 -8 -18s-6 -13 -7 -16c-3 -10 -8 -22 -15 -35c-1 -3 -2 -9 -5 -17c-3 -10 -5 -16 -7 -21c-5 -11 -13 -35 -25 -72
c-1 -2 -3 -7 -6 -17c-3 -8 -6 -15 -7 -20c-2 -4 -4 -10 -7 -19c-2 -9 -4 -15 -5 -19c-2 -7 -5 -14 -8 -22c-3 -7 -7 -16 -13 -25c-4 -9 -8 -16 -10 -20c-15 -41 -24 -65 -27 -70l-21 -30c-7 -13 -13 -23 -19 -30c-1 -1 -3 -3 -5 -4s-4 -3 -7 -5c-3 -1 -5 -2 -6 -3l-16 -16
c-11 -11 -24 -20 -37 -26c-13 -7 -38 -12 -76 -16c-2 -1 -6 -2 -12 -3c-7 -2 -12 -3 -15 -3c-15 0 -24 3 -28 8c-1 1 -1 8 -1 23v47c0 13 1 20 2 21s4 2 8 3s8 1 14 1h10c10 1 20 4 30 7c7 1 21 10 44 26l17 17c6 8 10 12 13 15c2 3 4 7 6 11c2 6 3 9 4 11c1 1 3 5 8 11
c4 5 7 10 8 12c2 4 4 8 6 15c3 7 3 12 0 15c-1 5 -5 8 -10 11s-9 5 -10 8c-3 5 -7 14 -11 26c-5 11 -10 26 -17 47c-7 20 -11 32 -12 35c-2 7 -6 18 -10 35c-6 16 -10 30 -14 42c-4 11 -9 22 -14 32c-5 9 -8 18 -11 27c-3 6 -6 15 -9 28s-6 22 -8 27c-1 2 -2 6 -6 12
c-2 6 -5 11 -6 14c-12 34 -18 52 -19 55c-4 14 -7 24 -9 30s-7 12 -14 19s-17 10 -28 10c-13 0 -21 1 -22 3c-1 1 -2 4 -2 8c-1 4 -1 9 -1 15v12c0 1 0 4 1 8c1 3 1 6 0 8c-3 17 -2 28 3 33c3 3 7 4 13 5c7 0 14 0 22 -1c7 -1 12 -1 15 -1c6 0 19 1 38 3s30 2 33 -1z" />
    <glyph glyph-name="z" unicode="z" horiz-adv-x="493" 
d="M231 541c3 0 7 -1 13 -3s10 -3 13 -3c6 -1 15 -1 29 0c12 1 22 2 28 1c2 -1 16 -2 42 -2h46c7 -1 17 -1 29 0c15 1 24 1 27 -2c2 -1 3 -4 3 -8c0 -5 0 -10 -1 -17s-1 -11 -1 -14c0 -27 -1 -42 -3 -46c-1 -3 -6 -11 -13 -23c-11 -17 -29 -40 -54 -68
c-25 -30 -43 -52 -54 -68c-3 -4 -7 -10 -14 -20c-7 -8 -11 -15 -14 -19c-7 -9 -16 -23 -28 -42c-3 -5 -15 -16 -35 -35c-20 -17 -31 -28 -34 -35s-3 -15 -2 -21c2 -8 6 -13 11 -16c9 -5 28 -5 57 -1c9 1 19 1 31 0c14 -1 23 -2 28 -1c10 2 17 6 20 13c4 7 7 20 8 40
c0 7 1 11 2 12c2 3 6 4 11 5h20c8 -1 13 -1 15 -1c3 0 6 0 11 1h12c13 -1 20 -3 21 -5c1 -1 2 -4 3 -9c0 -4 0 -10 -1 -16c-1 -8 -1 -12 -1 -14v-83c2 -24 1 -37 -2 -40c-1 -1 -10 -1 -25 -1c-12 1 -38 0 -79 -2h-26c-3 0 -7 0 -12 1s-10 1 -13 1c-12 1 -30 1 -53 1
c-63 0 -98 0 -105 -1c-23 -1 -49 -1 -78 0c-15 0 -23 1 -25 3s-4 9 -5 21c-3 23 -2 41 3 54c4 7 9 14 16 22c7 9 25 30 53 61c4 4 9 11 17 21c6 10 12 17 16 22l19 19c8 11 13 18 15 23c5 9 12 18 19 27s16 19 25 31c10 10 18 19 23 26c2 3 13 17 32 43c1 1 3 5 8 10
s8 9 11 13c2 2 4 7 6 12c1 5 1 10 0 15c-3 12 -16 18 -40 18c-5 0 -14 1 -24 1c-12 2 -19 2 -24 2c-5 1 -13 0 -24 -1c-2 0 -5 0 -9 -1l-9 -2h-8c-2 -1 -5 -2 -6 -2c-2 -2 -4 -2 -6 -4c-3 0 -5 -2 -6 -4c-1 -1 -3 -3 -4 -5c-4 -7 -6 -15 -7 -24c0 -17 -1 -27 -3 -28
c-1 -1 -9 -2 -22 -2h-46c-12 0 -19 1 -21 2c-3 3 -4 15 -1 38v41v20c1 9 1 16 1 21c0 25 1 38 3 39c2 2 18 3 47 3c6 1 15 1 25 1c12 -1 19 -1 24 -1h36c18 0 30 0 36 1c3 1 7 2 12 3s8 2 11 2z" />
    <glyph glyph-name="braceleft" unicode="{" horiz-adv-x="309" 
d="M251 772c13 0 19 0 20 -1c3 -3 5 -16 5 -39s-1 -36 -4 -41c-1 -3 -6 -5 -13 -9c-7 -2 -12 -4 -13 -5c-32 -13 -51 -34 -57 -64c-4 -19 -4 -43 1 -72c1 -4 1 -10 2 -19v-20c1 -35 0 -61 -5 -78c-1 -1 -4 -8 -10 -22c-6 -12 -8 -24 -6 -33c1 -5 3 -12 8 -21
c5 -8 7 -14 8 -17c9 -25 11 -57 4 -97c-6 -45 -6 -78 -1 -98c3 -12 8 -25 16 -38c7 -9 24 -20 49 -32c10 -3 16 -7 17 -10c3 -5 3 -18 2 -40c-1 -5 -1 -10 0 -16c0 -4 0 -9 -1 -14s-2 -8 -4 -10c-3 -2 -13 -2 -29 0c-19 3 -36 7 -51 11c-7 3 -13 6 -20 11
c-15 9 -28 18 -37 27c-15 13 -24 24 -29 32c-7 10 -12 32 -16 65c-1 7 -1 18 -1 34c0 14 0 26 -1 33c0 15 1 26 2 33c0 3 1 10 3 22c1 12 2 21 2 26c1 6 1 14 0 22c-1 10 -2 17 -5 22c-6 11 -18 19 -37 24c-9 2 -13 3 -14 4c-2 3 -3 14 -3 35c0 20 1 31 3 34c3 3 8 6 16 7
c30 6 43 29 40 68c-2 14 -4 27 -7 39c-1 19 -1 46 0 83c3 29 8 53 14 74c10 23 29 44 58 63c23 16 55 25 94 27z" />
    <glyph glyph-name="bar" unicode="|" horiz-adv-x="175" 
d="M87 748h7h10h9c15 0 24 -1 26 -2c1 -1 2 -11 2 -30v-64c0 -4 0 -10 1 -16v-15c-2 -70 -3 -105 -3 -106c1 -12 1 -47 1 -106v-53v-213v-53c-1 -36 -1 -54 0 -55c1 -6 1 -15 0 -27v-26v-54c-1 -26 -1 -44 0 -55c1 -17 1 -43 1 -80c0 -13 -1 -21 -3 -24c-1 -1 -10 -2 -25 -2
h-52c-15 0 -23 1 -25 2c-1 1 -1 10 -1 29c1 23 1 44 -1 62c0 3 0 7 -1 14s-1 12 0 16c0 3 1 8 1 14c2 5 2 9 2 12c0 12 0 21 -1 27v114c0 5 0 11 1 17c0 6 0 13 1 20s1 13 1 17v80c1 14 2 39 2 77c1 36 2 64 4 82c3 22 4 48 4 78c-1 17 -1 45 -1 82c0 3 0 9 1 18s1 16 0 21
v40c1 6 1 19 0 39v41c1 9 1 22 1 39c0 23 1 36 3 38c2 1 14 2 35 2z" />
    <glyph glyph-name="braceright" unicode="}" horiz-adv-x="308" 
d="M40 772c5 3 16 3 32 0c24 -2 47 -9 69 -22c14 -7 26 -16 36 -27c15 -14 25 -25 29 -33c3 -7 6 -16 8 -26c3 -9 4 -17 4 -24c1 -6 1 -16 2 -30s1 -24 2 -30c1 -23 1 -42 -2 -58c-3 -34 -5 -53 -5 -57c3 -28 17 -44 44 -48c6 -2 10 -4 11 -6s3 -7 4 -16c3 -31 2 -48 -3 -53
c-2 -3 -7 -4 -15 -4c-25 -5 -39 -20 -41 -45c-1 -7 1 -27 4 -59c2 -13 3 -33 3 -61c1 -52 -4 -89 -16 -111c-11 -22 -33 -43 -65 -63c-15 -11 -39 -18 -74 -23c-15 -3 -25 -3 -29 0c-2 2 -3 5 -4 10c0 4 0 10 1 16c1 8 1 12 1 14c0 3 0 8 -1 14c-1 7 -1 12 -1 15
c-1 3 0 7 1 12c0 1 7 4 22 10c27 13 45 27 53 42c7 14 11 30 12 49s-1 40 -4 64c-3 25 -5 43 -5 55c0 23 2 42 7 55c1 4 4 10 8 18c5 7 8 13 8 17c2 4 1 12 0 23c-1 3 -3 8 -6 14c-4 6 -6 11 -7 14c-8 18 -11 46 -8 83c0 17 1 32 4 43c2 14 3 29 3 44c0 26 -6 46 -18 60
c-11 15 -29 26 -52 34c-7 2 -12 5 -15 8c-4 5 -6 17 -6 36c0 3 0 7 1 12s1 10 1 13c0 13 2 20 7 21z" />
    <glyph glyph-name="asciitilde" unicode="~" horiz-adv-x="498" 
d="M163 351c3 1 6 1 8 1c2 -1 5 -2 9 -2c3 -2 6 -2 8 -2c5 -1 13 -3 22 -4c25 -6 49 -17 74 -34c17 -12 34 -18 51 -17c13 1 33 12 58 31c9 5 15 7 16 7c5 0 10 -5 15 -14c5 -5 14 -15 27 -31c1 -1 2 -3 4 -6c2 -2 4 -4 5 -6s2 -4 2 -6c0 -3 -2 -6 -6 -9
c-3 -3 -8 -7 -12 -11c-6 -3 -9 -6 -10 -7c-2 -1 -8 -5 -18 -13c-9 -6 -16 -11 -20 -14c-5 -3 -11 -6 -20 -11c-8 -5 -16 -8 -24 -10s-16 -3 -25 -4s-23 1 -40 5c-3 1 -7 3 -13 5c-5 2 -9 3 -11 4c-5 2 -11 6 -19 11c-9 5 -14 8 -16 9c-1 1 -4 3 -10 6c-5 3 -9 5 -11 7
c-2 0 -6 2 -11 4c-5 3 -10 4 -12 4c-4 1 -8 1 -12 0c-6 0 -10 -1 -15 -3l-32 -16c-1 -1 -3 -2 -7 -3s-7 -3 -9 -4c-11 -5 -16 -8 -17 -8c-2 0 -4 1 -6 2c-2 2 -4 4 -6 7s-4 4 -5 5s-4 4 -7 8c-3 3 -6 6 -7 8c-1 3 -4 6 -7 10c-3 5 -6 8 -7 10l-6 8c-4 6 -6 10 -6 12
c0 4 7 10 22 19c10 9 17 14 22 17c3 3 7 5 12 8l15 7c5 3 10 5 13 6c16 9 31 13 44 14z" />
    <glyph glyph-name="exclamdown" unicode="&#xa1;" horiz-adv-x="189" 
d="M89 534c21 1 37 -5 49 -18c7 -7 12 -18 15 -33s2 -29 -3 -44c-6 -10 -13 -17 -22 -22c-11 -6 -23 -9 -38 -8s-26 4 -34 11c-6 4 -12 12 -17 24s-8 23 -8 32c0 11 2 19 7 25c11 20 28 31 51 33zM104 348c27 0 40 0 41 -1s2 -14 2 -37c0 -5 0 -11 1 -20s1 -15 1 -19
c0 -5 0 -12 -1 -23v-30c0 -8 0 -16 1 -22c0 -3 0 -9 1 -16c1 -8 1 -14 1 -17c0 -6 0 -15 -1 -25v-25c1 -23 2 -40 1 -50c-1 -23 -2 -39 -2 -49c0 -4 -1 -12 -1 -23c-2 -11 -2 -20 -1 -26c2 -36 3 -69 3 -100v-24c-1 -11 -1 -19 -1 -25c1 -5 1 -13 1 -24c0 -14 -1 -22 -4 -23
c0 -1 -7 -2 -20 -3c-3 0 -6 0 -11 -1s-8 -1 -10 -1c-1 0 -11 1 -29 3c-19 0 -29 1 -30 2c-2 2 -3 16 -3 42c0 6 0 14 -1 23v21c0 3 0 7 1 15c1 6 1 12 1 15c-2 43 -2 94 1 155c1 15 0 37 -1 66c-1 28 -2 46 -2 55c0 6 0 16 1 29c1 14 1 25 1 32v46c-1 21 -1 36 -1 47
c0 18 1 28 2 30c2 2 11 3 28 3h31z" />
    <glyph glyph-name="cent" unicode="&#xa2;" horiz-adv-x="506" 
d="M252 748h27h9h10c3 -1 4 -2 5 -3c2 -2 3 -15 3 -40c1 -26 7 -43 18 -50s24 -12 39 -13c1 0 11 1 29 2c6 1 16 1 30 1h31c16 0 25 -1 28 -3c1 -2 2 -5 3 -10v-18c-1 -6 -1 -12 -1 -15c1 -28 1 -57 0 -87c0 -26 -1 -40 -3 -42s-5 -3 -9 -4c-4 0 -9 0 -15 1s-10 1 -12 1
c-3 0 -10 0 -20 -1c-11 -1 -17 0 -18 2c-2 1 -6 6 -12 15c-2 3 -6 8 -12 14c-11 15 -20 24 -25 28c-7 5 -16 7 -26 6s-17 -5 -21 -12c-3 -5 -4 -13 -6 -22c0 -9 -1 -18 0 -28c1 -8 1 -18 0 -27c0 -5 0 -11 1 -20s1 -15 1 -20c0 -9 0 -23 -1 -40s-1 -31 -1 -41
c0 -3 0 -10 2 -19c0 -9 1 -17 0 -22c-2 -13 -3 -27 -3 -40c1 -27 9 -42 23 -47c21 -5 39 3 52 25c6 9 10 18 13 28c4 19 7 30 8 31c2 1 16 2 41 2c27 0 41 -1 42 -3c1 -3 1 -11 -1 -22c-9 -53 -24 -91 -47 -114c-22 -21 -40 -34 -54 -40c-11 -5 -22 -9 -32 -13
c-3 -1 -6 -3 -12 -4c-4 -2 -8 -4 -10 -4c-3 -2 -6 -3 -8 -6c-4 -2 -6 -5 -7 -8s-4 -13 -7 -31c0 -1 0 -5 1 -11s1 -11 1 -14c-1 -4 -2 -7 -4 -8c-1 -1 -9 -2 -23 -2h-54c-15 0 -22 1 -23 2s-2 14 -2 39c0 22 -5 37 -15 46c-3 2 -9 5 -17 8c-9 3 -15 6 -18 9c-3 1 -6 3 -10 6
c-3 2 -5 3 -6 4c-12 7 -19 11 -20 12c-2 2 -5 6 -9 12c-4 5 -7 9 -9 11l-10 10c-4 5 -7 8 -9 11c-11 11 -20 29 -28 53c-1 3 -5 12 -10 27c-5 14 -9 25 -10 34c-1 4 -3 16 -4 37c0 3 -1 9 -3 17c-3 8 -4 14 -4 19c0 6 2 16 6 29c0 3 0 8 1 16c1 6 1 12 1 15c1 8 5 26 12 55
c1 3 2 7 3 14c1 6 3 10 4 13c3 6 7 14 12 23c3 5 6 12 11 22s8 18 11 23c1 3 5 7 10 13c5 4 8 7 9 8c8 8 14 15 17 20c6 6 13 12 22 17c3 1 7 4 13 9c5 4 10 7 13 8s9 3 16 5s13 4 18 7s8 6 11 11s5 26 7 61c0 11 1 17 3 20c1 1 13 2 34 2zM154 493c-1 -4 -4 -9 -8 -15
c-3 -7 -5 -11 -6 -14c-1 -5 -2 -11 -4 -20c0 -9 -1 -15 -2 -18c-5 -26 -8 -40 -8 -41v-48v-15c-1 -6 -1 -10 -1 -13c1 -19 7 -36 16 -50c1 -1 2 -4 5 -8c2 -4 4 -7 6 -9c1 -3 3 -6 6 -8c2 -4 4 -6 6 -8c3 -1 5 -2 8 -3c12 -2 21 2 28 11c3 4 4 10 5 18c1 9 1 19 1 30
c-1 12 -1 20 -1 24c1 11 2 25 3 40c2 16 3 27 4 32v76v9v9v8v9c-1 2 -1 5 -2 7c0 4 0 6 -1 8s-1 4 -3 6c0 2 -2 4 -3 5s-3 2 -4 3c-2 2 -6 3 -13 3c-13 -1 -24 -10 -32 -28z" />
    <glyph glyph-name="sterling" unicode="&#xa3;" horiz-adv-x="560" 
d="M277 769c4 1 18 0 41 -2c22 0 36 -1 41 -2c4 -1 9 -3 16 -7c7 -2 12 -4 15 -5s9 -3 16 -5c7 -3 13 -5 16 -7c6 -3 13 -9 20 -18c15 -13 25 -25 31 -36c17 -29 27 -64 29 -107c2 -19 2 -29 0 -31c-4 -5 -18 -7 -42 -5h-10c-6 1 -9 1 -12 1c-1 0 -5 0 -11 1
c-6 0 -10 0 -11 1c-3 1 -7 10 -10 27c-7 33 -21 56 -41 70c-15 12 -33 18 -55 17c-29 0 -50 -4 -62 -11c-6 -3 -12 -9 -16 -16c-6 -7 -9 -14 -11 -19s-5 -14 -9 -27c-4 -12 -7 -19 -8 -22c-15 -39 -17 -90 -7 -153c4 -28 13 -45 26 -50c3 -1 20 -1 53 -1h27
c14 0 22 -1 24 -3c1 -1 2 -8 2 -20c-1 -11 -1 -26 -1 -45v-8c-1 -2 -1 -5 -1 -8c0 -2 0 -3 -1 -4c-2 -3 -16 -4 -41 -4c-18 -1 -31 -4 -40 -8c-9 -6 -13 -15 -14 -29c0 -4 1 -10 2 -19s2 -14 2 -16c0 -5 0 -11 1 -20c1 -8 1 -14 1 -18c0 -3 0 -8 -1 -15s-1 -13 0 -18
c0 -5 1 -9 3 -13c5 -7 18 -15 41 -22c4 -1 9 -2 15 -6c6 -2 10 -4 12 -5c17 -7 38 -10 64 -8c32 4 53 8 64 11c2 1 6 2 13 4c6 3 11 5 15 6c15 7 24 10 26 9c3 -1 7 -7 12 -18c5 -8 11 -21 18 -39c1 -1 2 -4 3 -6c1 -4 2 -6 3 -8c1 -3 1 -5 1 -7c-1 -3 -9 -7 -24 -13
c-59 -21 -106 -33 -141 -36c-27 -1 -48 0 -65 4c-7 1 -18 4 -30 8c-14 3 -22 6 -27 7c-9 3 -29 5 -62 8c-3 1 -9 1 -17 1h-18c-13 1 -35 1 -65 -2c-19 -2 -29 -2 -32 -1c-3 2 -5 17 -5 45c-1 4 -3 11 -4 22c-2 13 -2 20 -1 23c1 2 3 4 7 5s9 2 15 4c6 0 10 1 11 1
c19 5 34 20 44 45c7 17 7 41 0 73c0 1 0 3 -2 7c0 5 -1 8 -2 8c0 2 0 4 -1 7s-1 5 -2 7c-1 0 -1 2 -3 5c0 3 -2 5 -3 5c-1 2 -3 3 -5 4c-1 2 -3 3 -5 4s-4 1 -7 2c-1 1 -6 1 -14 1c-7 0 -12 1 -15 3c-3 3 -4 17 -4 41c0 27 0 42 1 43c1 3 5 5 10 6s8 2 9 3c5 3 9 8 11 15
c2 6 3 12 2 16c0 6 -1 13 -2 23s-2 17 -2 21c-1 6 -1 15 -1 27c-1 11 -2 19 -2 24l3 30v17c-1 6 -1 12 -1 15s4 22 12 55c5 23 10 39 17 49c1 2 4 5 6 10c4 5 6 8 7 10c6 15 10 24 13 27c1 2 10 10 27 25c13 9 24 16 32 20c17 10 37 16 61 18c12 1 20 2 25 2z" />
    <glyph glyph-name="currency" unicode="&#xa4;" horiz-adv-x="632" 
d="M79 693c4 1 11 -3 22 -12c10 -9 16 -15 19 -18c12 -13 25 -24 39 -31c10 -3 19 -4 28 -1c3 1 8 3 13 7c6 3 11 5 14 6c34 9 70 13 108 11c4 0 10 0 18 -1c9 0 15 0 19 -1c7 -1 28 -6 62 -17c3 -1 8 -2 14 -5s11 -4 14 -5c11 -3 22 -2 32 4c3 3 9 7 15 14c8 7 13 11 17 14
c7 7 13 12 16 14c8 8 14 12 18 12c5 0 10 -5 17 -14c4 -5 9 -10 15 -16c6 -7 11 -12 15 -17c1 -1 3 -3 6 -7c4 -5 6 -8 7 -11c0 -2 -1 -4 -3 -7s-5 -5 -8 -8s-6 -5 -7 -6c-8 -6 -15 -12 -20 -17c-1 -1 -7 -5 -17 -13c-9 -6 -16 -13 -20 -18c-4 -6 -6 -13 -7 -21
c0 -4 2 -14 6 -30c1 -3 3 -9 4 -16s2 -11 2 -12c3 -11 6 -20 8 -29c5 -33 4 -77 -2 -131c-1 -4 -1 -10 -1 -19s0 -15 -1 -18s-2 -9 -5 -18s-5 -16 -6 -22c-2 -6 -3 -13 -4 -20c0 -8 2 -15 5 -21c3 -5 9 -12 18 -20c4 -4 10 -10 18 -17s15 -14 20 -19c1 -1 3 -3 7 -5
c2 -3 5 -5 7 -8c2 -2 3 -4 3 -6c0 -3 -4 -9 -13 -20c-2 -2 -12 -13 -30 -32c-5 -9 -11 -14 -17 -14c-3 0 -10 5 -19 14c-2 1 -7 6 -16 13s-16 13 -21 18c-13 15 -27 20 -42 17c-5 -1 -16 -6 -31 -13c-19 -7 -29 -11 -31 -12c-19 -7 -45 -10 -77 -10c-23 0 -37 0 -42 1
c-13 2 -25 5 -35 9c-3 1 -11 4 -23 9s-20 7 -23 7s-11 -1 -23 -2c-5 -3 -12 -8 -21 -16c-8 -8 -13 -13 -16 -15c-1 -1 -7 -6 -17 -15c-12 -9 -19 -13 -22 -13s-8 4 -17 13c-4 4 -9 10 -14 17c-1 1 -4 4 -6 7c-4 3 -6 6 -8 8c-8 8 -12 14 -12 18c0 5 5 11 15 19
c5 3 11 9 18 16c21 19 33 32 35 39c2 6 3 12 3 19c-1 9 -4 23 -11 41s-11 29 -12 34c-1 4 -4 18 -7 42c-3 21 -4 37 -3 47c1 24 6 60 16 107c3 11 5 17 6 20c1 4 3 10 7 19c4 8 7 14 7 18c2 5 1 12 -2 22c-3 8 -10 17 -22 28c-12 10 -19 16 -21 18c-1 1 -3 3 -5 6l-6 6
s-4 4 -6 5c-10 9 -15 14 -15 17c0 4 3 10 10 19c3 3 8 8 14 15s11 12 14 15c9 9 14 13 16 14zM266 561l-27 -9c-16 -7 -28 -18 -37 -33s-17 -34 -24 -57c-3 -11 -5 -23 -6 -37c0 -4 -1 -10 -2 -17c-1 -8 -2 -14 -3 -18c-5 -30 -5 -56 0 -79c3 -32 16 -61 38 -88
c25 -31 50 -47 75 -50h39c17 1 29 3 36 6c6 3 15 8 27 14c1 1 5 3 12 7c7 3 12 6 15 9c13 10 23 24 29 42c2 6 4 16 6 29c2 14 4 24 6 31c7 25 10 46 10 61c0 4 0 10 -1 17s-1 13 -1 16c0 4 0 10 -1 17s-1 13 -1 17c-1 15 -7 33 -18 52c-31 53 -78 78 -141 75
c-13 -1 -23 -3 -31 -5z" />
    <glyph glyph-name="yen" unicode="&#xa5;" horiz-adv-x="678" 
d="M547 753c2 0 6 -1 13 -2c6 -1 10 -2 13 -2c6 -1 25 -1 58 -1c15 0 24 -1 27 -3c2 -3 3 -17 3 -41s-1 -37 -3 -39s-9 -3 -22 -4c-12 -1 -20 -2 -23 -3c-5 -2 -9 -5 -12 -8s-7 -8 -11 -14c-3 -7 -6 -11 -7 -13c-1 -3 -4 -7 -7 -13c-4 -5 -7 -10 -9 -13
c-7 -16 -12 -26 -14 -29c-3 -5 -9 -12 -18 -23c-4 -6 -9 -16 -15 -29c-6 -14 -10 -23 -13 -28c-4 -8 -8 -17 -13 -28c-1 -1 -4 -6 -10 -13c-5 -7 -9 -14 -11 -19c-7 -20 1 -32 24 -36l23 -4c1 -1 1 -8 1 -22c0 -6 0 -14 -1 -23c0 -9 0 -17 -1 -22c0 -18 -1 -28 -2 -29
s-9 -2 -24 -2h-14c-6 1 -10 1 -12 1c-31 -2 -48 -3 -51 -4c-7 -1 -12 -5 -14 -13c-1 -6 1 -12 7 -15c6 -4 25 -6 57 -6c3 1 8 1 15 0s11 -1 14 -1h10c5 -1 9 -1 12 -2c3 0 6 0 7 -1c1 -2 2 -9 2 -21v-30c0 -13 0 -23 -1 -29c0 -11 -1 -17 -4 -20c-2 -3 -10 -4 -25 -4
c-3 0 -10 0 -21 1s-19 1 -25 1c-5 0 -12 0 -20 -1s-14 -2 -19 -6c-5 -2 -8 -6 -10 -11c-5 -11 -5 -21 1 -29c7 -7 16 -12 27 -13c2 -1 5 -1 9 -1c3 0 6 0 8 -1c3 -1 4 -2 5 -3c1 -3 2 -16 2 -40c2 -24 2 -37 -1 -40c-1 -1 -12 -2 -31 -2c-4 0 -9 -1 -16 -2
c-7 -2 -12 -3 -15 -2c-3 0 -10 1 -18 2c-10 1 -16 2 -21 3c-17 1 -45 1 -85 0c-25 0 -39 1 -40 2c-2 2 -3 14 -3 37s1 35 2 37c2 1 5 2 9 2h7c25 1 39 9 43 24c5 19 0 32 -15 39c-11 7 -40 8 -87 5c-17 0 -27 1 -29 4c-2 2 -3 5 -3 9c-1 5 -1 11 0 18s1 12 1 15
c0 37 1 56 2 57c2 1 12 2 29 2h22c10 1 18 1 24 1s13 1 20 2s13 3 16 5c3 1 6 4 8 12c1 6 -2 11 -9 14c-7 2 -15 3 -25 4s-20 1 -29 0c-9 0 -19 0 -30 1c-16 0 -25 1 -27 3c-1 1 -1 10 -1 29c1 6 1 14 1 23c-1 10 -1 18 -1 23c0 12 1 19 2 20s4 2 9 3c4 1 8 1 14 2
c4 0 8 0 10 1c9 3 15 10 17 20s0 19 -5 28c-3 3 -9 11 -19 23c-1 2 -4 6 -7 12c-4 5 -7 9 -9 12c-1 3 -5 10 -13 22c-6 12 -12 22 -15 29c-17 33 -26 51 -27 53c-7 9 -13 17 -17 24c-1 1 -2 3 -3 6c-1 2 -2 4 -3 5s-2 3 -3 5s-2 4 -4 4c0 2 -2 3 -3 4c-1 2 -3 4 -4 4
c-1 2 -3 2 -5 4c-1 0 -3 1 -5 2s-4 1 -7 2c-2 1 -4 1 -7 2c-4 1 -8 1 -11 0h-10c-3 1 -6 2 -7 3c-1 2 -2 9 -2 22c1 5 1 13 1 22c-2 25 -2 40 1 43c3 2 12 3 27 3c19 -1 48 -1 85 0c1 0 10 0 27 -1c17 0 28 0 31 1c11 0 21 0 28 -1c16 0 25 -1 27 -2c1 -1 2 -9 2 -23
c-1 -5 -1 -12 -1 -22c0 -27 0 -42 -1 -44c-1 -4 -5 -8 -10 -11s-9 -7 -10 -10c-6 -15 0 -36 19 -62c3 -3 11 -18 26 -45c1 -1 4 -4 7 -9c4 -5 7 -8 8 -11l12 -24c13 -22 23 -35 31 -38c8 -5 17 -6 26 -3c3 1 5 3 8 5s5 5 8 9s5 7 7 10c1 2 4 6 6 10c4 6 5 9 6 10
c8 16 18 32 30 47c12 13 23 29 33 46c2 4 7 12 15 24c11 17 16 30 13 39c-3 10 -13 16 -28 18c-7 1 -11 3 -13 6c-1 3 -2 8 -2 17v21c1 9 1 16 1 22c0 11 1 17 2 19c3 2 12 3 27 3h27c18 -1 27 -1 28 0c2 0 6 0 13 2c6 0 10 1 13 1z" />
    <glyph glyph-name="brokenbar" unicode="&#xa6;" horiz-adv-x="176" 
d="M56 751c4 1 18 0 43 -2h13c7 0 13 0 18 -1s9 -2 10 -3c2 -3 2 -11 1 -26c0 -4 0 -12 1 -23c1 -12 1 -21 0 -28v-26c1 -11 1 -20 1 -27c0 -1 -1 -17 -3 -49c0 -5 0 -13 2 -24c0 -11 1 -20 0 -26c0 -11 -1 -27 -2 -50c-1 0 -2 -21 -1 -64s1 -64 1 -65c0 -15 -1 -23 -2 -24
c-1 -2 -9 -3 -23 -3h-25c-10 -1 -19 -1 -25 -1c-13 0 -21 1 -23 2c-3 3 -4 20 -4 53c0 13 0 31 1 56s1 43 1 54v83c1 37 1 64 1 83c0 7 0 19 1 38s1 33 1 43c0 15 1 23 2 26c1 1 4 3 11 4zM92 204c29 0 44 -1 45 -2c1 -2 2 -14 2 -35c1 -5 1 -12 0 -21c-1 -8 -1 -13 -1 -15
c1 -43 2 -67 2 -72c0 -1 0 -6 -2 -15c0 -9 -1 -15 -1 -19c0 -5 0 -11 1 -19v-18c0 -20 0 -50 -1 -92c-1 -40 -1 -71 -1 -92s-1 -33 -2 -34c-3 -2 -19 -3 -50 -3h-6h-10h-9c-15 0 -23 1 -24 2s-2 10 -2 26v28c1 18 1 45 1 83c1 36 2 63 3 80v55c-1 8 -1 19 0 31
c1 14 1 21 1 24v24v32v26c0 14 1 22 4 24c2 1 6 2 11 2c5 1 10 1 13 0h26z" />
    <glyph glyph-name="section" unicode="&#xa7;" horiz-adv-x="431" 
d="M181 770c15 1 36 0 63 -3c6 -1 12 -2 16 -5c6 -2 11 -5 16 -8c5 -4 10 -7 14 -8c9 -5 18 -6 25 -3c3 1 7 4 11 7c5 4 9 6 12 7s13 2 30 2s26 -1 28 -4c1 -1 2 -4 3 -8s1 -9 1 -15c1 -6 1 -10 1 -11c0 -4 -1 -16 -2 -37v-39c0 -22 -2 -34 -5 -36c-1 -1 -4 -2 -8 -3h-13
h-11c-20 0 -32 1 -35 3c-2 1 -6 6 -11 15c-9 15 -22 27 -39 36c-5 3 -15 7 -31 12c-27 11 -50 14 -69 9c-1 -1 -4 -2 -7 -3c-4 -1 -7 -2 -8 -3s-4 -2 -7 -3s-6 -2 -7 -4c-1 0 -3 -2 -6 -4c-2 -1 -4 -3 -5 -4c-1 -2 -3 -4 -4 -6c-1 -3 -3 -5 -3 -8c-2 -3 -2 -6 -2 -9
c-2 -11 -1 -22 4 -32c8 -17 24 -31 49 -44c11 -6 29 -14 53 -23c25 -10 39 -16 43 -18l30 -15c13 -5 23 -11 30 -16c16 -11 25 -17 26 -18c15 -12 27 -29 34 -50c4 -7 7 -13 8 -19c10 -37 2 -77 -24 -120c-1 -3 -4 -8 -9 -16c-4 -6 -7 -12 -8 -16c-3 -4 -4 -10 0 -17
c2 -7 4 -12 6 -14c0 -2 4 -6 8 -11c6 -6 8 -10 9 -11c23 -36 28 -74 17 -114c-1 -3 -4 -9 -6 -16c-4 -7 -6 -13 -7 -16c-1 -2 -4 -7 -9 -15c-4 -7 -7 -13 -9 -16c-1 -2 -4 -5 -9 -8s-8 -6 -10 -8c-1 -1 -4 -3 -10 -7c-4 -4 -9 -7 -12 -8s-15 -4 -36 -7c-27 -4 -55 -6 -82 -6
c-3 1 -10 1 -21 2c-11 0 -18 1 -23 2c-1 0 -6 3 -14 8c-10 6 -18 8 -26 6c-2 -1 -5 -3 -9 -6s-8 -5 -12 -6h-20h-43c-11 0 -17 1 -18 2c-3 2 -4 14 -4 35c-1 6 -2 19 0 40c0 21 1 33 1 38c0 23 1 36 3 37c1 2 13 3 35 3c21 0 33 -1 37 -2c5 -2 10 -8 15 -17
c13 -22 31 -36 52 -43c19 -7 37 -11 52 -11c3 -1 9 -1 15 0c8 1 12 1 15 1c26 1 43 9 52 23c11 19 12 36 3 53c-7 15 -25 29 -54 42c-8 3 -19 8 -34 15c-14 6 -25 11 -33 14c-18 7 -29 11 -34 13c-33 14 -55 24 -65 31c-1 1 -4 4 -12 10c-6 5 -11 10 -14 13s-9 14 -18 32
c-7 15 -12 27 -14 34c-5 16 -5 31 -1 45c0 1 1 7 2 18s3 20 4 25s7 15 18 32c12 15 18 27 18 36c0 7 -6 21 -19 40c-19 31 -27 60 -24 88v8c1 3 1 6 2 9s1 6 1 8c1 15 3 24 4 29c3 10 10 21 20 33c2 2 4 4 7 8c2 2 4 5 6 8l7 7s5 5 7 6s6 3 12 5c5 2 9 3 10 4
c17 7 33 12 50 14c6 1 16 2 31 2zM145 422c-7 -5 -11 -14 -14 -24c-3 -12 -2 -23 3 -34c11 -26 35 -42 73 -47c53 -5 86 2 99 22c9 15 8 30 -2 46c-7 13 -22 25 -45 36c-25 10 -48 15 -70 14c-19 -1 -34 -6 -44 -13z" />
    <glyph glyph-name="dieresis" unicode="&#xa8;" horiz-adv-x="377" 
d="M282 763c10 1 21 -3 33 -10s20 -15 24 -24c5 -13 6 -25 4 -37c-3 -19 -10 -34 -22 -43s-27 -13 -46 -11s-33 8 -42 18c-13 14 -16 33 -11 58l10 20c7 11 11 17 14 18c5 5 17 8 36 11zM88 762c27 1 45 -6 56 -21c13 -16 16 -34 11 -55c-3 -13 -9 -24 -19 -33
c-11 -11 -25 -16 -42 -16c-8 0 -17 3 -28 9c-11 5 -18 11 -22 16c-8 11 -12 22 -12 35s4 26 12 38c9 17 23 26 44 27z" />
    <glyph glyph-name="copyright" unicode="&#xa9;" horiz-adv-x="814" 
d="M388 597c32 3 59 1 80 -4c13 -3 32 -13 57 -29c25 -20 42 -45 51 -75c3 -21 4 -33 1 -36c-1 -1 -12 -2 -32 -2c-21 0 -33 0 -34 1c-3 1 -8 8 -15 21c-10 16 -18 25 -23 28c-18 11 -41 16 -69 14c-27 -2 -48 -9 -61 -21c-7 -8 -12 -16 -15 -23c-1 -3 -2 -7 -6 -12
c-2 -5 -4 -9 -5 -12s-1 -8 -2 -15c-1 -6 -1 -11 -2 -14s-2 -8 -3 -14c-1 -7 -2 -11 -2 -14c-1 -28 -1 -49 0 -64c1 -7 2 -14 4 -20c2 -7 5 -14 10 -23c4 -9 7 -14 8 -16c12 -21 26 -34 42 -39c21 -7 45 -7 72 1c31 9 52 26 61 51c4 13 7 20 9 21s5 2 8 3c3 0 8 0 13 -1
s9 -1 12 -1c20 0 31 -1 32 -3c2 -3 2 -10 -1 -23c-4 -24 -11 -45 -20 -62c-11 -17 -26 -33 -47 -47c-20 -13 -44 -21 -72 -23c-5 -1 -20 -1 -45 -1c-14 0 -27 2 -40 7c-16 4 -28 8 -35 12c-1 1 -3 2 -5 3c-1 1 -3 3 -4 3c-2 2 -4 2 -6 3c-1 1 -3 2 -6 5c-4 2 -7 4 -8 6
c-3 2 -7 6 -12 12c-5 7 -9 11 -11 13c-12 15 -19 25 -20 28c-3 5 -7 16 -13 35c-1 3 -3 8 -6 16c-3 9 -5 15 -6 20c-6 27 -7 56 -4 88c3 35 9 61 16 80c3 8 7 17 14 28c8 18 13 28 15 30l18 18c6 9 12 15 17 18c9 8 19 15 30 21c15 5 35 8 60 8zM361 768c12 1 30 0 55 -1
c35 -2 52 -3 53 -3c6 -1 14 -2 25 -4c11 -3 18 -4 22 -5c13 -3 26 -8 40 -16c48 -27 81 -49 99 -67c3 -3 7 -7 14 -12c7 -6 12 -11 15 -15c11 -15 19 -25 24 -32c3 -4 11 -15 22 -34c1 -2 3 -7 8 -16s8 -16 9 -22c1 -5 6 -19 13 -42c3 -9 6 -25 10 -46c9 -34 12 -67 9 -99
c0 -3 0 -7 -1 -13s-1 -10 -1 -13c-1 -3 -1 -8 -1 -15v-14c-1 -3 -2 -8 -5 -15s-4 -11 -5 -14c-2 -6 -4 -16 -7 -31c-2 -11 -10 -29 -23 -52c-9 -21 -18 -37 -27 -48c-12 -18 -23 -32 -34 -42c-2 -2 -5 -6 -11 -12c-4 -6 -9 -11 -14 -15c-4 -3 -8 -6 -13 -9
c-8 -5 -16 -10 -23 -16l-8 -7c-5 -5 -9 -8 -12 -10c-5 -3 -10 -5 -16 -8c-5 -3 -12 -5 -19 -8s-13 -5 -17 -7c-24 -11 -43 -18 -56 -20c-4 -1 -10 -1 -18 -1c-9 -1 -14 -1 -17 -1c-16 -3 -27 -4 -33 -4c-5 0 -11 0 -19 1h-18c-20 2 -31 3 -34 4c-4 1 -9 2 -16 4
c-7 3 -11 4 -14 5s-9 1 -16 2s-13 1 -16 2c-11 2 -28 10 -51 24c-3 2 -19 11 -47 28l-24 15c-2 1 -4 3 -5 6c-2 2 -4 4 -6 8c-3 2 -5 5 -6 6c-3 5 -9 11 -18 20c-8 9 -14 15 -17 20c-1 2 -4 6 -7 11s-6 9 -8 12c-1 3 -4 7 -9 12s-8 10 -9 13c-5 17 -8 27 -9 28
c-1 3 -2 7 -5 12c-3 6 -4 10 -5 13c-4 8 -10 27 -17 56c-7 19 -9 41 -8 64c0 4 0 10 1 17c1 8 1 14 1 17c0 4 0 10 -2 17c0 7 -1 13 -1 16s3 20 9 50c5 28 8 44 9 49c1 3 3 6 7 11c2 5 5 8 6 11c5 11 9 19 11 25c3 10 11 26 24 47c3 5 9 12 16 21c7 8 12 14 15 18
s15 16 36 35c6 7 12 13 19 18l21 12c2 1 5 4 10 8c4 4 7 7 10 8c5 5 13 9 24 12c30 11 48 17 53 18c14 3 23 6 28 7c12 3 22 5 30 6zM348 667c-5 -1 -10 -3 -18 -4c-6 -1 -12 -2 -15 -3c-7 -2 -21 -9 -41 -22c-26 -17 -39 -25 -40 -26c-29 -23 -49 -45 -62 -67
c-16 -29 -28 -59 -37 -92c-4 -9 -6 -18 -6 -27v-31c0 -31 1 -52 2 -61c5 -33 8 -51 9 -54c11 -31 17 -47 17 -48c5 -11 13 -24 26 -39c3 -4 8 -10 13 -19c6 -9 11 -15 14 -19c9 -11 21 -20 37 -28c2 -1 5 -2 11 -5c4 -2 8 -4 11 -6c3 -1 6 -4 10 -7s7 -5 8 -6
c20 -14 54 -24 102 -29c28 -3 65 2 111 16c2 1 16 8 43 21c1 1 3 2 7 4c2 2 5 4 8 5l6 3c17 11 33 27 49 48c3 5 8 12 14 20s10 14 13 17c13 25 20 40 21 45c1 3 4 11 7 26c1 3 2 7 4 12c1 5 2 9 3 12c2 6 5 25 8 57c1 15 1 35 -2 60c-1 3 -2 12 -4 25s-4 23 -6 30
c-1 1 -7 16 -20 44c-19 39 -37 65 -53 78s-28 23 -37 28s-16 10 -19 13c-1 1 -5 3 -12 8c-6 5 -11 8 -15 9c-38 15 -82 21 -133 17c-3 0 -14 -2 -34 -5z" />
    <glyph glyph-name="ordfeminine" unicode="&#xaa;" horiz-adv-x="285" 
d="M236 762c-1 -12 -2 -28 -2 -50c-2 -20 -2 -35 -2 -42v-48c1 -21 1 -36 1 -46c0 -18 -1 -28 -2 -29c-2 -2 -13 -4 -34 -6c-8 0 -33 1 -74 4c-18 1 -29 3 -33 5c-15 5 -27 14 -36 27c-17 23 -24 58 -21 106c1 17 5 30 10 39c7 16 12 27 16 33c5 9 14 18 26 25
c15 8 30 12 43 13h46c20 0 35 0 45 1c9 0 14 -1 15 -2c1 -2 2 -12 2 -30zM158 641c1 2 2 12 2 30s0 28 -1 29c-3 5 -9 6 -18 5c-3 0 -6 -1 -10 -2c-9 -6 -14 -18 -14 -36s5 -29 15 -33c12 -5 21 -2 26 7zM49 526h-1c-2 -1 -4 -2 -5 -4s-2 -5 -3 -8v-10v-10c1 -4 1 -7 1 -8
c0 -2 0 -6 -1 -14c-1 -6 -1 -12 0 -16c1 -3 2 -6 4 -7c1 -1 9 -2 23 -2c25 0 42 0 53 -1h25c7 -1 19 -1 38 0h39c12 -3 20 -2 23 1c2 3 3 9 3 19c0 3 0 6 1 10c1 5 1 8 1 9c0 23 -1 35 -3 37c-1 2 -9 3 -23 3c-55 0 -97 0 -124 1c-27 2 -44 2 -51 0z" />
    <glyph glyph-name="guillemotleft" unicode="&#xab;" horiz-adv-x="560" 
d="M453 468c4 1 11 -4 21 -14c17 -16 29 -27 36 -34c10 -10 15 -16 15 -19s-9 -14 -26 -31c-5 -5 -14 -14 -25 -28c-12 -12 -22 -23 -30 -30c-1 -1 -5 -4 -10 -10c-5 -4 -9 -8 -10 -10c-2 -3 -4 -7 -8 -14c-2 -6 -2 -12 1 -17c1 -3 8 -15 22 -35c7 -9 16 -20 29 -32
c13 -14 21 -23 26 -28c4 -7 8 -12 12 -15c9 -9 13 -14 13 -16c0 -4 -5 -10 -14 -17c-3 -3 -8 -9 -15 -16c-6 -7 -11 -13 -15 -17c-7 -7 -13 -11 -18 -11c-3 -1 -12 6 -29 20c-7 7 -15 16 -26 28c-11 11 -18 19 -21 23c-3 3 -7 8 -13 13c-5 5 -9 9 -11 12
c-11 10 -35 35 -73 74c-5 5 -10 9 -13 12c-5 9 -8 14 -8 15c-1 5 6 14 21 26c9 10 18 18 25 25c3 3 9 10 21 22c10 12 19 21 25 27s14 14 23 25c4 5 9 11 14 16s12 11 18 18c8 6 13 11 16 14c15 15 24 23 25 24h2zM225 467c3 0 5 -1 8 -2s5 -3 9 -6c2 -3 5 -4 6 -5
c4 -4 10 -10 16 -17c8 -7 13 -13 17 -17c11 -11 16 -17 16 -19c0 -6 -8 -16 -25 -31c-7 -7 -16 -16 -27 -28c-11 -13 -20 -22 -27 -29c-1 -1 -4 -4 -8 -7l-8 -8c-2 -2 -5 -5 -8 -10s-5 -9 -4 -12s1 -8 1 -14c3 -11 11 -21 24 -32c6 -6 15 -15 27 -28s22 -22 29 -29
c5 -4 9 -9 14 -14c8 -7 12 -12 12 -16c1 -3 -3 -9 -10 -16c-1 -1 -3 -3 -5 -7c-3 -2 -5 -5 -6 -7c-5 -4 -12 -11 -23 -20c-13 -13 -20 -19 -23 -19c-4 0 -9 3 -15 9c-29 26 -58 55 -85 87c-5 5 -13 14 -24 26c-23 20 -39 36 -49 48l-12 12c-5 6 -8 10 -9 13s1 8 4 15
c2 4 4 7 6 10c2 2 5 4 10 7c4 3 7 5 9 7c5 4 13 11 21 20l19 19c5 4 18 18 39 41l15 16c10 11 18 18 24 23c11 11 18 18 20 21c12 12 19 18 22 19z" />
    <glyph glyph-name="logicalnot" unicode="&#xac;" horiz-adv-x="441" 
d="M121 384c8 1 20 0 37 -2c16 -1 27 -2 34 -2h73h70h27c12 -1 22 -1 28 -1c7 1 12 0 14 -1s3 -6 4 -13c1 -8 0 -20 -1 -36s-2 -26 -2 -30v-6v-11v-11c0 -9 0 -22 -1 -41v-43c0 -15 -1 -23 -2 -25c-1 -1 -8 -3 -21 -4c-1 -1 -4 -2 -9 -3s-9 -2 -12 -2c-2 0 -9 2 -22 5l-23 3
c-2 3 -3 16 -3 41v16v18c-1 3 -2 8 -2 14c-2 5 -3 10 -5 13s-5 6 -8 8c-5 3 -12 5 -21 6c-8 1 -18 1 -28 -1c-12 0 -20 -1 -26 0c-5 0 -12 1 -22 2s-17 2 -22 2c-6 1 -14 1 -26 0c-10 -1 -18 -1 -21 -1c-5 0 -15 0 -33 1c-16 1 -30 1 -40 0c-11 -1 -18 -1 -22 1
c-2 2 -3 10 -3 23c1 13 1 30 1 52c-2 13 -2 20 1 23c1 1 8 2 21 2c1 0 10 0 27 1s30 1 38 2z" />
    <glyph glyph-name="uni00AD" unicode="&#xad;" horiz-adv-x="408" 
d="M156 327c4 1 10 1 19 -1c9 0 14 -1 17 -1h27c12 -1 21 -2 26 -2c3 0 7 0 14 1h15s14 0 32 -1c20 -1 34 -1 43 0c15 0 23 -1 24 -4c1 -1 2 -9 2 -23c0 -3 0 -11 -1 -22s-1 -20 0 -27c0 -13 -1 -21 -3 -24c-2 -2 -5 -3 -11 -4c-4 -1 -11 -1 -19 -1h-15c-16 -1 -48 0 -96 3
c-6 0 -14 0 -25 -1s-18 -1 -23 -1s-12 1 -21 1c-9 2 -15 2 -16 2c0 1 -13 2 -37 1c-26 -1 -39 -1 -40 -1c-21 0 -32 1 -34 4s-2 10 -1 23c1 23 2 39 2 49c0 14 1 22 2 24c3 2 12 3 28 3h31c9 0 19 0 32 1s22 1 28 1z" />
    <glyph glyph-name="registered" unicode="&#xae;" horiz-adv-x="813" 
d="M396 769c4 1 17 0 40 -2c18 -1 30 -3 37 -5c3 -1 8 -2 15 -4c8 -2 14 -3 18 -4c19 -3 31 -5 36 -7c27 -13 53 -28 79 -46c2 -1 6 -4 12 -7s10 -6 13 -8l14 -14c6 -8 9 -12 10 -13c27 -32 41 -50 43 -53c1 -3 5 -7 10 -13s9 -11 10 -15c1 -1 3 -7 6 -20c1 -3 5 -11 10 -24
s9 -24 12 -31c11 -40 17 -68 18 -84c1 -5 1 -13 -1 -25c0 -10 -1 -18 -1 -23c0 -4 1 -11 1 -23c2 -10 2 -19 1 -24s-2 -12 -5 -22c-2 -9 -3 -16 -4 -21c-1 -3 -2 -8 -2 -15c-2 -7 -2 -12 -4 -18c0 -4 -2 -9 -3 -13c-1 -3 -4 -7 -8 -13c-4 -7 -7 -12 -9 -16
c-1 -3 -3 -6 -4 -10c-1 -3 -3 -7 -4 -12c-2 -5 -3 -8 -4 -11s-4 -7 -8 -13c-5 -6 -8 -11 -10 -15c-1 -1 -4 -5 -8 -12s-7 -11 -10 -14s-6 -8 -11 -13c-5 -6 -8 -10 -10 -13c-3 -3 -7 -7 -13 -12s-10 -8 -11 -9c-11 -11 -20 -19 -25 -22c-2 -2 -6 -5 -13 -8
c-7 -4 -12 -7 -15 -10c-11 -9 -20 -15 -27 -18c-34 -13 -57 -20 -68 -23c-4 -1 -8 -1 -12 -3c-4 0 -8 -2 -13 -3s-8 -2 -11 -3c-9 -2 -17 -3 -27 -4c-8 0 -20 1 -32 2c-14 1 -22 2 -27 2h-21c-10 1 -17 1 -22 2c-4 1 -8 2 -12 2c-4 2 -8 3 -14 4c-4 1 -9 2 -12 3
c-13 2 -24 5 -34 10c-52 29 -88 53 -109 73c-3 3 -7 6 -12 12c-5 4 -9 8 -11 10c-3 3 -6 7 -11 13s-8 10 -10 13c-8 9 -14 18 -19 26c-15 23 -24 44 -29 62c-3 13 -7 24 -12 34c-3 7 -5 20 -8 37c-9 43 -13 70 -13 79c0 15 1 29 3 43c1 5 1 13 1 23c1 10 1 17 1 20s1 7 2 10
c1 4 3 8 5 13s3 9 4 12c5 22 8 34 9 35c3 11 7 21 14 31c3 5 7 14 13 28c7 14 12 24 17 31c17 21 31 37 42 49c3 3 7 7 11 13c6 6 10 10 13 12s7 4 12 8c5 2 9 5 12 7c1 1 8 7 22 19c5 4 23 12 53 25c21 10 41 17 58 21c2 1 14 2 37 3c4 1 10 1 18 3c8 0 14 1 17 1zM339 665
c-27 -8 -43 -13 -47 -15c-3 -1 -6 -3 -10 -6s-7 -5 -10 -6c-11 -6 -18 -10 -21 -11l-15 -9c-5 -4 -9 -8 -14 -14c-5 -4 -8 -8 -11 -12c-3 -2 -7 -7 -11 -14l-11 -14c-9 -13 -17 -25 -24 -38c-8 -17 -14 -33 -18 -46c-1 -3 -3 -10 -6 -22c-3 -10 -6 -19 -7 -26
c-3 -13 -5 -32 -6 -58c0 -16 2 -35 6 -58c4 -29 7 -46 10 -52c9 -15 16 -29 22 -42c13 -32 30 -56 51 -73c3 -2 6 -5 11 -9s9 -8 13 -10c4 -4 8 -6 12 -8c5 -3 11 -7 19 -12c8 -7 14 -11 19 -14c3 -1 7 -3 14 -6c7 -2 11 -4 14 -5c6 -1 17 -4 34 -7c21 -3 47 -4 78 -3
c5 1 11 2 20 3c9 2 14 3 15 3c1 1 6 2 15 3s15 3 19 5c5 2 22 12 52 29c12 7 20 12 25 16c28 23 48 45 60 64c10 18 19 36 26 54c12 29 19 49 20 62c1 0 1 7 1 20l-1 19c1 17 2 30 1 39c-3 39 -6 63 -10 73c-1 4 -4 13 -10 27c-4 15 -9 26 -12 33c-3 5 -8 13 -16 23
c-9 9 -15 17 -18 24c-2 2 -5 6 -8 11c-4 5 -7 9 -10 12c-9 9 -16 15 -22 18c-5 4 -14 9 -28 14c-3 1 -8 4 -14 9c-5 5 -8 7 -9 8c-13 9 -33 17 -60 23c-32 5 -57 8 -75 7c-13 -1 -30 -4 -53 -9zM344 596c10 1 27 0 50 -1c3 0 11 0 22 -1c11 0 20 0 26 -1c16 -1 30 -5 41 -10
c27 -9 47 -22 60 -38c13 -17 20 -45 21 -82c1 -33 -3 -57 -13 -74c-3 -5 -7 -12 -12 -19s-8 -12 -9 -13c-2 -3 -6 -6 -11 -10s-10 -8 -13 -13c-3 -4 -5 -9 -6 -15c-1 -13 4 -28 15 -45c9 -20 18 -32 27 -36c1 -1 5 -1 12 -2c6 -1 10 -2 12 -3c3 -2 8 -11 14 -26
c3 -5 5 -10 7 -15c2 -9 3 -14 3 -15c-1 -3 -5 -6 -12 -10c-17 -11 -36 -14 -57 -9c-13 3 -26 10 -37 20c-1 1 -10 13 -28 37c-14 23 -22 40 -23 49c-5 21 -15 33 -29 35c-13 2 -21 -2 -25 -12c-4 -6 -5 -15 -5 -25c2 -12 5 -19 11 -24c1 -1 3 -2 9 -3c4 -1 7 -3 8 -4
c2 -6 3 -12 3 -17c-1 -5 -1 -10 -1 -16c0 -18 -2 -29 -5 -33c-2 -2 -14 -3 -35 -3h-71c-19 0 -30 1 -32 4c-1 1 -2 12 -2 31s0 30 1 31c1 2 4 4 11 8c7 2 11 6 13 9c4 6 6 25 6 57c1 5 0 14 0 24c-2 12 -2 19 -2 23c1 7 0 23 -1 46c0 5 1 13 1 23c2 11 2 18 2 23
c0 4 0 9 -1 17c-1 6 -1 12 -1 15c0 15 -2 25 -7 32c-2 3 -6 5 -11 8s-8 5 -9 6c-1 2 -2 15 -2 39c0 21 1 33 4 35c1 1 14 2 38 2c10 1 24 1 43 1zM373 455c0 -33 2 -52 6 -58c8 -9 21 -14 37 -13c18 0 32 4 43 11c13 8 22 23 27 45c4 21 1 39 -10 54c-5 8 -15 14 -28 20
c-14 4 -28 6 -42 5c-7 -1 -12 -2 -16 -5c-5 -3 -8 -5 -10 -8c-3 -3 -4 -8 -6 -14c0 -8 -1 -13 -1 -16v-21z" />
    <glyph glyph-name="macron" unicode="&#xaf;" horiz-adv-x="368" 
d="M100 756c3 1 8 0 15 -2c7 -1 11 -2 12 -2c9 -1 38 -1 88 -1h89c15 0 24 -1 26 -3c2 -3 3 -11 3 -24c0 -1 0 -10 -1 -26c0 -15 0 -24 1 -25c2 -13 1 -20 -2 -22c-1 -2 -5 -3 -11 -3c-5 -1 -11 -1 -16 0c-5 0 -10 0 -14 -1h-43c-2 0 -5 0 -11 -1c-4 -1 -9 -1 -12 0
c-3 0 -9 1 -16 2c-8 1 -14 2 -18 2c-8 1 -20 0 -37 -1c-7 -1 -20 -2 -38 -1s-30 1 -36 1c-23 -5 -36 -5 -41 1c-1 2 -2 9 -2 21c0 1 0 3 -2 9c0 4 -1 8 -1 11c-1 4 0 14 2 30v9c0 5 0 9 1 12c0 3 1 6 2 7c2 2 15 3 40 3c3 0 7 1 11 2s8 2 11 2z" />
    <glyph glyph-name="degree" unicode="&#xb0;" horiz-adv-x="293" 
d="M255 672c6 -19 6 -38 1 -57c-3 -7 -7 -17 -13 -28c-12 -21 -20 -34 -24 -37c-11 -10 -25 -17 -41 -20s-30 -4 -41 -4c-17 1 -36 8 -56 23l-12 9c-5 4 -9 7 -11 8c-10 11 -16 21 -17 30c0 1 0 6 -1 13s-1 13 -2 17c0 1 -1 5 -2 13s-2 14 -1 18c1 3 2 7 5 12s4 8 4 9
c14 33 26 53 35 58c15 8 29 12 42 13c11 1 25 1 42 1c17 -2 30 -3 38 -6c7 -4 14 -8 19 -13c10 -7 16 -12 18 -15c5 -7 10 -22 17 -44zM174 623c3 7 4 15 2 24s-5 14 -9 16c-4 3 -12 4 -23 3c-15 -3 -23 -11 -24 -26c-1 -10 1 -18 7 -24c6 -5 14 -8 24 -7c13 1 20 6 23 14z
" />
    <glyph glyph-name="plusminus" unicode="&#xb1;" horiz-adv-x="441" 
d="M87 116c15 -3 36 -3 63 -2c5 1 12 1 22 0s17 -1 20 -1c19 1 34 2 43 1c29 -1 57 -2 84 -2c3 0 10 0 20 1s18 1 23 1c26 0 40 -1 41 -2c2 -2 3 -10 3 -23v-25c-1 -12 -1 -20 -1 -27c0 -15 -1 -23 -2 -24c-2 -2 -15 -3 -40 -3h-21c-9 1 -16 1 -19 1c-6 -1 -14 -1 -23 0
c-10 1 -16 1 -19 1c-19 -1 -33 -2 -42 -2h-21c-8 1 -15 1 -20 1c-17 0 -45 1 -84 2c-4 0 -10 0 -19 1s-15 1 -20 1c-1 0 -5 0 -14 -1s-15 -1 -19 0c-5 1 -8 3 -9 6s0 17 2 42c0 3 0 7 -1 13s-1 10 -1 13c0 13 1 21 3 24c3 3 5 6 8 6c3 2 5 2 8 2c3 -1 8 -1 14 -2
c8 -1 14 -1 21 -2zM218 530c8 1 19 0 32 -2c12 0 19 -1 21 -3c2 -3 3 -13 3 -30c-2 -21 -2 -42 0 -61c1 -15 4 -26 10 -34c5 -6 15 -10 30 -10c21 0 36 0 46 -1c28 0 43 -1 44 -2c1 -2 2 -10 2 -23v-22c1 -9 1 -17 1 -24c0 -12 -1 -19 -3 -21c-3 -3 -12 -3 -27 -2
c-3 0 -8 0 -15 1h-14h-16h-17c-4 -1 -9 -2 -14 -2c-5 -2 -10 -3 -13 -6c-4 -2 -7 -5 -9 -8c-6 -11 -8 -31 -5 -60v-32c0 -19 -1 -29 -4 -30c-1 -1 -9 -2 -24 -2h-52c-3 1 -6 1 -9 0h-9c-4 1 -5 1 -6 2s-2 10 -2 29c2 18 2 38 0 61c-1 23 -7 37 -18 42c-6 3 -25 4 -56 4h-30
c-16 0 -25 1 -27 3c-1 1 -2 8 -2 21c-1 11 -1 27 -1 46c0 11 1 18 3 21c2 2 12 3 29 3c15 0 25 0 31 1h13c5 0 9 0 12 1h10c5 1 8 1 10 2c3 1 6 2 8 3c4 1 6 3 8 5c2 1 4 3 5 6c3 5 4 11 5 18s1 17 1 29v23c1 8 2 16 3 25c1 15 3 24 4 25c2 2 9 3 20 3c3 0 8 0 12 1h10z" />
    <glyph glyph-name="twosuperior" unicode="&#xb2;" horiz-adv-x="302" 
d="M156 793c16 0 26 0 29 -1c27 -7 48 -22 63 -45c19 -33 22 -65 8 -96c-2 -4 -4 -8 -7 -12s-6 -9 -11 -13c-4 -6 -7 -9 -9 -12c-6 -5 -14 -12 -23 -19c-10 -7 -18 -13 -24 -19c-5 -4 -9 -10 -10 -15c-3 -9 -4 -16 -2 -23s6 -10 11 -10s11 3 18 10c3 6 6 9 8 10
c3 1 10 1 21 0c12 -1 18 -1 19 -1h7c2 0 5 0 7 -1c2 0 4 -1 5 -2c2 -2 3 -10 3 -23c1 -7 1 -15 0 -27c-1 -10 -1 -18 -1 -22c0 -14 0 -21 -1 -22c-1 -2 -5 -3 -11 -4h-20c-7 1 -12 1 -15 1c-13 -1 -31 -1 -56 -1h-59c-4 0 -10 0 -18 1c-7 1 -13 1 -17 1c-1 0 -5 0 -11 -1
s-11 -1 -15 -1c-4 1 -7 2 -9 3c-3 3 -4 14 -2 35c2 38 11 68 26 91c9 12 27 29 56 52c17 13 26 21 29 24c1 1 5 3 9 7c6 3 9 6 10 8c1 1 4 4 6 10c4 4 3 9 0 13c-3 12 -11 18 -24 18c-11 0 -19 -5 -24 -15c-1 -1 -1 -4 -2 -7s-2 -6 -2 -9c-2 -3 -3 -4 -5 -5
c-3 -1 -10 -1 -21 -1h-14c-7 1 -12 1 -13 1c-15 0 -24 1 -25 2c-3 3 -4 12 -2 27c1 3 2 6 2 10c2 5 2 8 3 11l2 8c8 20 22 36 41 47c19 12 42 18 69 17h1z" />
    <glyph glyph-name="threesuperior" unicode="&#xb3;" horiz-adv-x="301" 
d="M135 793c21 2 41 0 61 -5c18 -5 32 -14 41 -26c4 -5 9 -14 14 -26c7 -17 10 -27 10 -28c1 -12 1 -25 -2 -40c-1 -3 -2 -8 -5 -14c-3 -5 -5 -10 -6 -16c-1 -4 -2 -10 -1 -16c0 -2 3 -10 10 -25c6 -11 9 -26 11 -45c0 -19 -2 -36 -7 -50c-5 -13 -14 -26 -27 -37
s-26 -19 -41 -23c-17 -4 -36 -6 -59 -4c-22 0 -39 5 -52 12c-28 15 -44 41 -48 77c-2 12 -2 19 0 22c1 2 10 3 27 3c31 0 47 -1 50 -2s6 -5 9 -10c3 -6 5 -9 5 -10c9 -9 19 -13 31 -11c10 2 18 8 22 19c9 25 1 40 -26 47c-2 1 -6 1 -14 1c-6 1 -13 2 -19 2c-6 2 -9 3 -10 5
s-2 10 -2 25s1 23 2 26s9 6 23 7s22 2 23 3c15 10 20 23 15 38c-4 12 -13 18 -26 18c-5 1 -10 0 -16 -4c-6 -3 -9 -8 -10 -14c-2 -6 -4 -9 -5 -9c-1 -1 -18 -1 -50 -1c-16 0 -25 1 -26 2c-2 4 -2 11 -1 22c1 10 3 17 5 22c7 23 23 41 49 54c15 6 30 10 45 11z" />
    <glyph glyph-name="acute" unicode="&#xb4;" horiz-adv-x="217" 
d="M76 768c5 3 15 3 30 0c3 -1 8 -2 16 0c9 0 14 1 17 1c4 0 11 -1 22 -2c11 0 18 -1 20 -3c1 -1 -1 -7 -4 -18c-3 -6 -7 -14 -11 -24c-6 -10 -9 -18 -11 -24c-1 -3 -3 -7 -5 -10c-1 -4 -3 -8 -5 -12c-2 -5 -4 -8 -5 -11c-9 -19 -15 -28 -17 -29c-5 -3 -20 -4 -45 -4
c-5 -1 -13 -1 -24 -1s-18 2 -19 5c-3 5 0 16 7 35c1 5 3 11 6 19c2 9 3 14 4 16l11 33c5 19 10 28 13 29z" />
    <glyph glyph-name="mu" unicode="&#xb5;" horiz-adv-x="620" 
d="M481 534c15 2 25 1 30 -2c3 -3 5 -19 5 -50c0 -26 0 -44 1 -55c2 -63 3 -98 4 -105c0 -1 1 -5 2 -11s2 -11 2 -14c0 -7 1 -19 3 -37c2 -17 3 -31 2 -41c-1 -11 0 -28 1 -53c0 -5 0 -13 -1 -22v-23c1 -6 2 -11 5 -16c5 -7 12 -12 21 -14c2 -1 5 -1 10 -1s9 0 12 -1
s6 -2 7 -4c1 -1 2 -15 2 -41s-1 -40 -3 -42c-1 -1 -13 -2 -36 -2h-75c-22 0 -34 0 -35 1c-2 1 -4 5 -6 11c-3 6 -5 10 -7 12c-13 11 -29 6 -46 -13c-7 -10 -13 -16 -16 -18c-9 -7 -22 -11 -37 -12c-35 -3 -64 -1 -87 7c-26 9 -43 7 -51 -7c-5 -7 -7 -27 -7 -58v-31
c0 -3 0 -8 1 -14c1 -8 1 -13 0 -17c0 -2 0 -4 -1 -6l-3 -7c0 -4 -1 -6 -2 -7c-1 -6 -2 -22 -2 -48c0 -13 -1 -21 -2 -23c-1 -1 -8 -2 -21 -4h-25c-5 1 -11 1 -17 0h-18c-6 1 -10 2 -11 4c-1 1 -2 14 -4 39c-1 27 -1 68 0 123c1 21 1 50 0 88c-1 39 -1 64 -1 76
c0 53 1 94 3 122c0 5 0 18 -2 38c0 21 0 34 2 39c2 0 2 13 2 39c-2 25 -2 38 -2 39v8v9v8v7c-1 1 -1 3 -2 7c0 2 0 5 -1 6s-1 3 -3 6c0 2 -2 4 -3 5s-3 3 -5 4c-1 1 -3 2 -5 3l-24 5c-1 1 -2 17 -2 46c-3 27 -2 42 2 45c2 1 15 2 38 2h29h35h31c9 0 15 -1 16 -2
c3 -3 4 -17 2 -43c-1 -20 -2 -35 -1 -45c1 -33 1 -62 -1 -87v-92c0 -4 -1 -19 -2 -45s-1 -40 1 -42c6 -31 16 -52 29 -64c19 -20 37 -32 55 -35c13 -3 27 -4 43 -4c12 1 24 4 37 9c26 11 45 22 58 35c1 1 3 4 6 8c5 9 8 32 8 70c0 4 0 10 -1 18v19c0 10 1 22 2 35v39
c1 8 1 32 1 73c0 3 0 8 -1 17c0 9 0 15 -1 19c-5 16 -18 24 -40 25c-11 0 -17 1 -18 4c-3 3 -4 17 -1 42c0 1 0 6 -1 13s-1 14 -1 19c1 6 2 10 3 12c3 3 12 3 29 2h29h62z" />
    <glyph glyph-name="paragraph" unicode="&#xb6;" horiz-adv-x="564" 
d="M360 749c9 1 24 1 46 0c20 -1 34 -1 40 -1h20c9 1 17 1 22 1c24 0 37 -1 40 -3c2 -3 3 -17 3 -44c1 -20 1 -34 -2 -43c-1 -3 -3 -7 -9 -12c-4 -5 -8 -8 -9 -11c-3 -7 -4 -20 -4 -39c-3 -40 -4 -66 -5 -79c-1 -7 -1 -20 0 -40v-41c0 -9 -1 -21 -4 -37
c-3 -17 -4 -29 -4 -38v-41c0 -4 0 -11 1 -19c1 -10 1 -16 1 -21c0 -8 -1 -21 -2 -40c-3 -26 -3 -52 0 -79c1 -16 2 -29 2 -39c0 -4 0 -11 -1 -19c-1 -10 -1 -16 -1 -21v-39c0 -26 -1 -40 -4 -41c-3 -2 -14 -3 -34 -3c-27 0 -42 1 -45 3c-1 1 -2 10 -2 29c-1 22 -3 41 -6 58
c-1 3 -2 7 -4 12s-3 9 -4 12c-1 8 -2 19 -1 33c0 14 0 25 -1 34c0 3 0 9 -1 15c-1 8 -1 13 -1 17c0 3 0 9 1 16v17c0 3 -1 13 -2 28s-2 27 -2 36v136c0 3 0 8 1 16c1 6 1 12 1 16s0 10 -1 17s-1 13 -1 16s0 9 2 17c0 8 1 13 1 14c0 2 0 7 -1 14c-1 8 -1 14 0 18
c1 26 2 42 1 49c-5 22 -13 33 -26 33c-12 0 -20 -10 -24 -31c-1 -7 0 -28 2 -61c0 -5 0 -11 1 -20c0 -9 0 -15 1 -20c0 -5 0 -11 1 -20v-19c-1 -10 -1 -23 -1 -41v-40v-26v-31v-25c0 -4 0 -11 1 -20v-21v-13v-16v-12c2 -21 3 -33 2 -38c0 -4 0 -10 -1 -19s-1 -15 -1 -20
c0 -4 0 -10 1 -19s1 -15 1 -20v-40c1 -18 1 -32 1 -42c0 -27 -1 -41 -4 -42c-2 -1 -13 -2 -34 -2c-1 0 -9 0 -21 1c-14 1 -23 1 -30 2c-13 0 -21 1 -23 3c-1 1 -2 11 -4 30c-2 13 -3 24 -3 33c0 3 0 9 2 16c0 7 1 13 1 16v35c-1 9 -1 21 1 36c0 15 1 26 1 32c0 5 0 11 1 20
v20c0 4 0 10 -1 16s-2 11 -5 15s-6 7 -11 9c-1 0 -9 2 -26 6c-24 6 -47 14 -70 24c-12 5 -25 14 -38 27c-37 37 -58 79 -63 126c-4 27 -5 56 -3 87c1 13 3 23 5 28c2 15 7 30 16 47c8 18 15 32 22 41c15 23 38 41 69 56c11 7 28 12 50 15c19 5 37 7 54 8c7 1 38 1 94 1
c14 0 24 0 31 1z" />
    <glyph glyph-name="periodcentered" unicode="&#xb7;" horiz-adv-x="190" 
d="M89 338c11 1 23 -1 35 -8c11 -7 20 -14 25 -23c6 -13 9 -25 9 -36c0 -5 -2 -13 -6 -22c-7 -17 -17 -28 -30 -33c-28 -11 -51 -8 -68 7c-14 15 -21 32 -21 51c-1 23 10 40 31 53c16 7 24 11 25 11z" />
    <glyph glyph-name="cedilla" unicode="&#xb8;" horiz-adv-x="317" 
d="M110 63c5 2 13 -1 22 -9c3 -1 9 -4 18 -8c10 -4 18 -8 24 -11c11 -7 16 -11 17 -13c1 -3 0 -7 -3 -13s-4 -9 -4 -10c-3 -11 -2 -21 1 -30c3 -7 16 -14 37 -21c27 -9 45 -25 55 -46c5 -11 7 -25 7 -40c0 -12 -2 -25 -6 -40c-10 -30 -30 -50 -61 -61c-3 -1 -12 -4 -28 -9
c-24 -7 -56 -7 -95 1c-1 0 -5 1 -12 3s-13 4 -18 5c-15 3 -23 6 -24 10c-1 1 0 7 2 17c5 15 9 29 11 40c1 1 1 4 2 8c1 3 1 6 3 9c0 3 2 5 3 8s3 4 4 5c3 1 12 -1 28 -5c7 -2 16 -4 27 -7c43 -10 65 -6 66 11c1 10 -7 16 -26 19h-10h-12h-11c-5 0 -11 1 -17 3
c-5 2 -12 5 -19 9c-7 3 -12 5 -15 6c-2 1 -9 5 -22 10c-12 5 -18 9 -19 12c0 2 0 4 1 6l4 8c1 2 2 5 3 7c4 8 7 14 8 18c5 11 12 23 20 35c3 5 7 14 12 26c5 13 10 23 14 30c1 1 2 2 3 6c2 2 4 5 6 7c1 2 3 3 4 4z" />
    <glyph glyph-name="onesuperior" unicode="&#xb9;" horiz-adv-x="255" 
d="M47 783c8 1 18 1 29 1h40c15 -1 27 -1 34 -1c17 2 28 2 31 -1s4 -14 1 -35c-2 -5 -3 -17 -2 -37c1 -19 1 -32 1 -37c-1 -3 -1 -9 0 -18s1 -15 1 -18v-23c-1 -12 -1 -20 -1 -26c-1 -21 -1 -35 2 -44s11 -14 24 -17c7 -1 11 -3 12 -5c3 -3 3 -15 2 -36c-1 -4 -1 -8 -1 -13
c1 -5 1 -9 0 -15c0 -4 -1 -8 -2 -9s-15 -2 -41 -2c-11 -1 -26 -1 -45 0s-32 1 -39 1c-26 0 -40 1 -41 2s-2 4 -3 9s-1 10 -1 17v12c0 23 1 36 3 38c2 1 6 2 11 2c5 1 9 1 10 2c9 3 16 8 21 16c2 5 3 12 4 20c1 9 1 19 1 30c-1 12 -1 21 -1 26c0 4 0 12 1 22c1 12 1 20 0 25
c0 5 -1 11 -4 17c-2 7 -6 12 -11 15s-12 5 -23 6c-16 2 -24 4 -25 5c-1 2 -2 13 -2 34c-2 20 -1 32 2 35c1 1 5 2 12 2z" />
    <glyph glyph-name="ordmasculine" unicode="&#xba;" horiz-adv-x="276" 
d="M57 527c-11 0 -18 -1 -20 -2c-3 -3 -4 -15 -4 -38c0 -24 1 -37 2 -38s11 -2 29 -2c4 0 10 0 17 -1h14c1 0 22 -1 62 -3c5 0 11 0 20 1h21c24 0 37 1 39 3c4 3 6 15 6 35c0 25 -1 38 -4 40c-1 2 -8 3 -20 3c-17 1 -40 1 -69 1c-7 0 -22 0 -44 1c-21 1 -38 1 -49 0z
M238 692c0 -39 -1 -60 -2 -65c-7 -33 -22 -56 -43 -69c-19 -10 -39 -14 -59 -12c-20 1 -38 7 -55 17c-17 11 -29 31 -36 60c-5 15 -8 30 -7 45c1 25 6 50 16 75l10 20c1 2 5 5 10 7c6 4 10 6 11 7c17 9 33 14 47 15c25 3 51 -6 76 -25c3 -3 9 -11 18 -24
c6 -11 10 -21 13 -29c1 -4 1 -11 1 -22zM143 637c6 1 10 7 13 19c3 10 2 21 -1 31s-9 14 -18 13c-7 -1 -12 -7 -15 -18s-2 -22 2 -32c4 -11 10 -15 19 -13z" />
    <glyph glyph-name="guillemotright" unicode="&#xbb;" horiz-adv-x="554" 
d="M100 466c4 1 11 -2 21 -11c3 -3 11 -10 23 -21c11 -11 20 -19 25 -25c17 -20 27 -32 32 -36c18 -17 29 -28 34 -33c5 -6 13 -14 24 -26c11 -10 20 -19 25 -26c9 -9 14 -16 14 -19c0 -5 -7 -13 -22 -26l-50 -50c-1 -1 -4 -5 -9 -11s-9 -11 -12 -14c-2 -3 -6 -7 -12 -12
c-6 -6 -10 -10 -12 -13c-7 -7 -17 -17 -31 -29c-14 -14 -25 -24 -32 -31s-11 -10 -13 -10c-5 0 -11 5 -20 15c-5 5 -11 11 -19 18c-9 7 -14 12 -16 14l-5 5l-7 7c-1 3 -2 5 -2 7c0 4 4 10 13 17c5 7 13 16 24 26c11 12 17 18 18 19c3 3 7 8 14 15c7 6 12 11 15 15
c1 2 4 5 8 9c3 4 6 7 8 10c2 2 4 6 8 10c2 6 4 10 3 13s-2 8 -3 14c-2 5 -10 15 -25 30c-3 3 -7 7 -14 13c-7 7 -11 12 -14 15c-10 11 -23 26 -39 43c-7 9 -11 14 -11 16c0 3 4 9 12 17c13 13 23 24 30 31c1 1 3 2 5 5s4 5 6 7c2 1 4 2 6 2zM330 466c5 1 15 -5 29 -20
c19 -21 43 -46 72 -74c2 -3 6 -7 11 -12c5 -6 9 -11 11 -14c8 -13 15 -23 20 -29l11 -11l14 -14l11 -11c6 -6 9 -11 9 -15c0 -3 -1 -6 -4 -9c-2 -3 -5 -7 -9 -11l-7 -7c-7 -8 -19 -20 -35 -37c-16 -16 -28 -28 -35 -36c-15 -17 -31 -33 -48 -48c-10 -10 -18 -18 -23 -24
c-1 -1 -4 -4 -7 -8c-4 -4 -8 -7 -10 -10c-4 -3 -6 -4 -9 -4c-5 0 -12 5 -19 16l-16 16l-18 18c-10 7 -15 13 -15 19c0 3 2 6 5 10s7 8 12 12c4 4 6 7 7 8c4 4 9 9 13 15c6 6 10 11 13 14l14 14c6 7 10 11 13 14c1 1 2 2 5 4s5 4 5 4l6 6c2 2 4 4 4 5c2 1 3 3 4 6
c2 3 3 5 4 7s1 4 2 7c0 3 0 5 -1 8l-3 9s-3 7 -6 10s-6 7 -10 10c-5 4 -8 7 -9 9c-41 44 -63 68 -66 72c-8 7 -12 12 -12 16c0 5 5 11 14 19c2 2 14 12 35 30c8 10 14 15 18 16z" />
    <glyph glyph-name="onequarter" unicode="&#xbc;" horiz-adv-x="717" 
d="M47 702c8 1 18 1 29 1s25 0 40 -1h34c17 2 28 2 31 -1s4 -14 1 -35c-2 -5 -3 -17 -2 -36c1 -20 1 -33 1 -38c-1 -3 -1 -9 0 -18s1 -15 1 -18v-24c-1 -10 -1 -19 -1 -25c-1 -21 -1 -35 2 -44s11 -14 24 -17c7 -1 11 -3 12 -5c3 -3 3 -15 2 -36c-1 -4 -1 -8 -1 -13
c1 -5 1 -10 0 -14c0 -6 -1 -9 -2 -10s-15 -2 -41 -2c-11 -1 -26 -1 -45 0s-32 1 -39 1c-26 0 -40 1 -41 2s-2 4 -3 9s-1 10 -1 16v13c0 23 1 36 3 38c2 1 6 2 11 3c5 0 9 0 10 1c9 3 16 8 21 16c2 5 3 12 4 21c1 8 1 18 1 30c-1 11 -1 20 -1 25c0 4 0 11 1 23
c1 10 1 19 0 24c0 5 -1 11 -4 18c-2 6 -6 11 -11 14s-12 5 -23 6c-16 2 -24 4 -25 5c-1 2 -2 13 -2 34c-2 20 -1 32 2 35c1 1 5 2 12 2zM456 791c9 1 24 1 43 -1c19 -3 30 -4 32 -4c14 0 22 -1 23 -3s-1 -11 -8 -26c-37 -109 -58 -168 -62 -179c-2 -5 -5 -14 -10 -25
c-4 -11 -7 -20 -9 -25c-8 -23 -14 -40 -17 -52c-2 -7 -7 -22 -15 -46c-8 -25 -15 -44 -20 -57c-15 -37 -26 -71 -35 -103c-13 -39 -25 -73 -36 -103c-9 -29 -14 -46 -16 -53c-7 -25 -13 -42 -17 -52c-11 -41 -19 -67 -24 -79c-7 -15 -10 -22 -11 -23c-1 0 -10 -1 -27 -3
c-7 0 -15 0 -27 1h-27c-16 2 -24 4 -25 5s2 10 7 26c3 7 7 20 13 37c7 17 11 31 14 40c2 5 5 14 8 27s6 22 8 28l20 50c11 38 22 73 35 106c2 5 5 14 9 25c3 11 6 20 8 26c3 7 7 17 11 30s6 21 7 22c7 16 13 34 18 53c2 7 5 16 10 27c4 11 7 19 9 24c1 3 3 7 5 13
c1 6 2 11 3 14c1 2 4 10 9 25c3 16 9 34 17 54c8 29 20 63 37 102c3 6 6 15 10 28c3 12 6 20 8 24c1 2 2 7 4 15c3 8 6 15 8 21c4 6 7 10 10 11zM684 74c0 -15 -1 -23 -3 -24s-14 -2 -37 -2h-37c-15 -1 -28 -1 -37 -1c-23 0 -35 1 -36 2c-3 3 -4 11 -2 26c0 26 1 40 2 42
c2 3 6 5 13 7s10 6 9 11c0 3 -1 5 -2 7c-2 2 -5 4 -8 4c-4 2 -8 2 -10 2c-4 1 -8 1 -13 2h-12c-6 1 -16 1 -31 1c-3 1 -7 1 -10 1c-4 -1 -8 -1 -12 -1c-3 0 -6 1 -7 2s-2 12 -2 32c0 16 1 27 3 33c1 4 8 18 21 42c3 4 6 11 11 21c4 10 8 17 11 22s6 12 11 21s8 16 11 21
c5 6 9 12 13 19c7 10 12 16 15 17c4 2 15 3 34 3c3 1 8 1 16 0s14 -1 19 -1c21 0 33 -1 34 -2s1 -12 1 -34c0 -3 0 -9 1 -16s1 -13 1 -16c0 -5 0 -11 -1 -20v-21s0 -11 1 -18c1 -6 2 -11 4 -16c2 -4 5 -7 9 -10c2 -1 5 -2 9 -4c4 0 7 -2 9 -4c1 -3 2 -15 2 -34
c0 -18 -1 -29 -2 -34c-1 -3 -4 -6 -8 -9c-6 -3 -8 -7 -8 -11c-1 -3 2 -6 7 -8c5 -3 9 -6 10 -10c1 -3 1 -17 1 -42zM575 226c3 4 3 11 2 21v15v16c0 10 -1 16 -3 18c-3 3 -6 0 -9 -8c-2 -3 -4 -7 -7 -14c0 -1 -2 -5 -6 -12c-3 -7 -6 -13 -7 -17c-1 -1 -1 -3 -3 -4
c0 -1 -1 -2 -1 -3c-5 -7 -5 -12 0 -15c2 -1 9 -2 20 -2c7 0 12 2 13 5h1z" />
    <glyph glyph-name="onehalf" unicode="&#xbd;" horiz-adv-x="740" 
d="M47 702c8 1 18 1 29 1s25 0 40 -1h34c17 2 28 2 31 -1s4 -14 1 -35c-2 -5 -3 -17 -2 -36c1 -20 1 -33 1 -38c-1 -3 -1 -9 0 -18s1 -15 1 -18v-24c-1 -10 -1 -19 -1 -25c-1 -21 -1 -35 2 -44s11 -14 24 -17c7 -1 11 -3 12 -5c3 -3 3 -15 2 -36c-1 -4 -1 -8 -1 -13
c1 -5 1 -10 0 -14c0 -6 -1 -9 -2 -10s-15 -2 -41 -2c-11 -1 -26 -1 -45 0s-32 1 -39 1c-26 0 -40 1 -41 2s-2 4 -3 9s-1 10 -1 16v13c0 23 1 36 3 38c2 1 6 2 11 3c5 0 9 0 10 1c9 3 16 8 21 16c2 5 3 12 4 21c1 8 1 18 1 30c-1 11 -1 20 -1 25c0 4 0 11 1 23
c1 10 1 19 0 24c0 5 -1 11 -4 18c-2 6 -6 11 -11 14s-12 5 -23 6c-16 2 -24 4 -25 5c-1 2 -2 13 -2 34c-2 20 -1 32 2 35c1 1 5 2 12 2zM594 393c16 0 26 0 29 -1c27 -7 48 -22 63 -45c19 -33 22 -65 8 -96c-2 -4 -4 -8 -7 -12s-6 -9 -11 -13c-4 -6 -7 -9 -9 -12
c-6 -5 -14 -12 -23 -19c-10 -7 -18 -13 -24 -19c-5 -4 -9 -10 -10 -15c-3 -9 -4 -16 -2 -23s6 -10 11 -10s11 3 18 10c3 6 6 9 8 10c3 1 10 1 21 0c12 -1 18 -1 19 -1h7c2 0 5 0 7 -1c2 0 4 -1 5 -2c2 -2 3 -10 3 -23c1 -7 1 -15 0 -27c-1 -10 -1 -18 -1 -22
c0 -14 0 -21 -1 -22c-1 -2 -5 -3 -11 -4h-20c-7 1 -12 1 -15 1c-13 -1 -31 -1 -56 -1h-59c-4 0 -10 0 -18 1c-7 1 -13 1 -17 1c-1 0 -5 0 -11 -1s-11 -1 -15 -1c-4 1 -7 2 -9 3c-3 3 -4 14 -2 35c2 38 11 68 26 91c9 12 27 29 56 52c17 13 26 21 29 24c1 1 5 3 9 7
c6 3 9 6 10 8c1 1 4 4 6 10c4 4 3 9 0 13c-3 12 -11 18 -24 18c-11 0 -19 -5 -24 -15c-1 -1 -1 -4 -2 -7s-2 -6 -2 -9c-2 -3 -3 -4 -5 -5c-3 -1 -10 -1 -21 -1h-14c-7 1 -12 1 -13 1c-15 0 -24 1 -25 2c-3 3 -4 12 -2 27c1 3 2 6 2 10c2 5 2 8 3 11l2 8c8 20 22 36 41 47
c19 12 42 18 69 17h1zM456 791c9 1 24 1 43 -1c19 -3 30 -4 32 -4c14 0 22 -1 23 -3s-1 -11 -8 -26c-37 -109 -58 -168 -62 -179c-2 -5 -5 -14 -10 -25c-4 -11 -7 -20 -9 -25c-8 -23 -14 -40 -17 -52c-2 -7 -7 -22 -15 -46c-8 -25 -15 -44 -20 -57c-15 -37 -26 -71 -35 -103
c-13 -39 -25 -73 -36 -103c-9 -29 -14 -46 -16 -53c-7 -25 -13 -42 -17 -52c-11 -41 -19 -67 -24 -79c-7 -15 -10 -22 -11 -23c-1 0 -10 -1 -27 -3c-7 0 -15 0 -27 1h-27c-16 2 -24 4 -25 5s2 10 7 26c3 7 7 20 13 37c7 17 11 31 14 40c2 5 5 14 8 27s6 22 8 28l20 50
c11 38 22 73 35 106c2 5 5 14 9 25c3 11 6 20 8 26c3 7 7 17 11 30s6 21 7 22c7 16 13 34 18 53c2 7 5 16 10 27c4 11 7 19 9 24c1 3 3 7 5 13c1 6 2 11 3 14c1 2 4 10 9 25c3 16 9 34 17 54c8 29 20 63 37 102c3 6 6 15 10 28c3 12 6 20 8 24c1 2 2 7 4 15c3 8 6 15 8 21
c4 6 7 10 10 11z" />
    <glyph glyph-name="threequarters" unicode="&#xbe;" horiz-adv-x="725" 
d="M135 712c21 2 41 0 61 -5c18 -5 32 -14 41 -26c4 -5 9 -14 14 -26c7 -17 10 -27 10 -28c1 -12 1 -25 -2 -40c-1 -3 -2 -8 -5 -13c-3 -6 -5 -12 -6 -16c-1 -6 -2 -11 -1 -17c0 -2 3 -10 10 -25c6 -11 9 -26 11 -45c0 -19 -2 -36 -7 -50c-5 -13 -14 -26 -27 -37
s-26 -19 -41 -23c-17 -4 -36 -5 -59 -5c-22 2 -39 6 -52 13c-28 15 -44 41 -48 77c-2 12 -2 19 0 22c1 2 10 3 27 3c31 0 47 -1 50 -2s6 -5 9 -11c3 -5 5 -8 5 -9c9 -9 19 -13 31 -11c10 2 18 8 22 19c9 25 1 40 -26 47c-2 1 -6 1 -14 2c-6 0 -13 0 -19 2c-6 0 -9 2 -10 4
s-2 10 -2 24c0 15 1 24 2 27s9 6 23 7s22 2 23 3c15 10 20 23 15 38c-4 12 -13 18 -26 18c-5 1 -10 0 -16 -3c-6 -4 -9 -9 -10 -15c-2 -6 -4 -9 -5 -9c-1 -1 -18 -1 -50 -1c-16 0 -25 1 -26 2c-2 4 -2 11 -1 21c1 11 3 18 5 23c7 23 23 41 49 54c15 6 30 10 45 11zM692 74
c0 -15 -1 -23 -3 -24s-14 -2 -37 -2h-37c-15 -1 -28 -1 -37 -1c-23 0 -35 1 -36 2c-3 3 -4 11 -2 26c0 26 1 40 2 42c2 3 6 5 13 7s10 6 9 11c0 3 -1 5 -2 7c-2 2 -5 4 -8 4c-4 2 -8 2 -10 2c-4 1 -8 1 -13 2h-12c-6 1 -16 1 -31 1c-3 1 -7 1 -10 1c-4 -1 -8 -1 -12 -1
c-3 0 -6 1 -7 2s-2 12 -2 32c0 16 1 27 3 33c1 4 8 18 21 42c3 4 6 11 11 21c4 10 8 17 11 22s6 12 11 21s8 16 11 21c5 6 9 12 13 19c7 10 12 16 15 17c4 2 15 3 34 3c3 1 8 1 16 0s14 -1 19 -1c21 0 33 -1 34 -2s1 -12 1 -34c0 -3 0 -9 1 -16s1 -13 1 -16
c0 -5 0 -11 -1 -20v-21s0 -11 1 -18c1 -6 2 -11 4 -16c2 -4 5 -7 9 -10c2 -1 5 -2 9 -4c4 0 7 -2 9 -4c1 -3 2 -15 2 -34c0 -18 -1 -29 -2 -34c-1 -3 -4 -6 -8 -9c-6 -3 -8 -7 -8 -11c-1 -3 2 -6 7 -8c5 -3 9 -6 10 -10c1 -3 1 -17 1 -42zM583 226c3 4 3 11 2 21v15v16
c0 10 -1 16 -3 18c-3 3 -6 0 -9 -8c-2 -3 -4 -7 -7 -14c-1 -1 -3 -5 -6 -12s-6 -13 -7 -17c-1 -1 -1 -3 -3 -4c0 -1 -1 -2 -1 -3c-5 -7 -5 -12 0 -15c2 -1 9 -2 20 -2c7 0 12 2 13 5h1zM464 791c9 1 24 1 43 -1c19 -3 30 -4 32 -4c14 0 22 -1 23 -3s-1 -11 -8 -26
c-37 -109 -58 -168 -62 -179c-2 -5 -5 -14 -10 -25c-4 -11 -7 -20 -9 -25c-8 -23 -14 -40 -17 -52c-2 -7 -7 -22 -15 -46c-8 -25 -15 -44 -20 -57c-15 -37 -26 -71 -35 -103c-13 -39 -25 -73 -36 -103c-8 -29 -13 -46 -16 -53c-7 -25 -13 -42 -17 -52
c-11 -41 -19 -67 -24 -79c-7 -15 -10 -22 -11 -23c-1 0 -10 -1 -27 -3c-7 0 -15 0 -27 1h-27c-16 2 -24 4 -25 5s2 10 7 26c3 7 7 20 13 37c7 17 11 31 14 40c2 5 5 14 8 27s6 22 8 28l20 50c11 38 22 73 35 106c2 5 5 14 9 25c3 11 6 20 8 26c3 7 7 17 11 30s6 21 7 22
c7 16 13 34 18 53c2 7 5 16 10 27c4 11 7 19 9 24c1 3 2 7 4 13s3 11 4 14c1 2 4 10 9 25c3 16 9 34 17 54c9 29 21 63 37 102c3 6 6 15 10 28c3 12 6 20 8 24c1 2 2 7 4 15c3 8 6 15 8 21c4 6 7 10 10 11z" />
    <glyph glyph-name="questiondown" unicode="&#xbf;" horiz-adv-x="536" 
d="M266 535c8 1 18 -1 28 -4c12 -3 19 -7 23 -12c11 -9 17 -23 18 -43s-3 -36 -12 -48c-8 -9 -17 -15 -27 -18c-23 -7 -43 -5 -60 7c-8 5 -14 13 -19 25c-5 11 -6 23 -5 34c0 21 6 36 19 44c8 8 20 13 35 15zM236 348c7 1 18 1 34 0s27 -1 34 -1c13 0 20 -1 21 -2
s1 -13 1 -36c-1 -35 -4 -58 -9 -69c-1 -3 -2 -7 -5 -12c-3 -6 -5 -11 -6 -14c-1 -1 -3 -7 -7 -20c-1 -2 -4 -5 -8 -9s-6 -7 -7 -8s-7 -7 -16 -18c-4 -5 -10 -11 -17 -18l-15 -15c-13 -15 -24 -26 -31 -35c-4 -9 -9 -15 -14 -19c-1 -2 -5 -5 -9 -9c-6 -4 -9 -7 -11 -10
c-23 -31 -33 -66 -28 -106c6 -38 23 -67 51 -87c11 -6 22 -10 32 -12c5 -1 12 -1 24 -2c10 -1 16 -1 17 -1c31 -1 55 3 72 14c21 12 37 26 46 42c1 3 3 6 3 9c2 3 3 7 4 12c2 4 3 7 4 10c5 11 9 22 11 33c2 15 3 23 4 24c2 2 5 3 11 3c4 1 11 1 18 0c8 -1 13 -1 15 -1
c3 0 7 0 12 -1h11l22 -3c3 -3 4 -15 2 -34c-1 -5 -1 -11 -2 -21c-1 -8 -1 -13 -1 -14c-1 -7 -2 -14 -4 -20s-5 -13 -9 -22s-6 -14 -7 -15c-17 -37 -41 -64 -72 -83c-33 -19 -73 -30 -122 -32c-8 0 -20 1 -36 2c-23 2 -35 3 -36 3c-8 1 -18 5 -29 10c-3 1 -6 1 -10 3
c-5 0 -8 1 -12 2c-2 1 -5 2 -8 3c-2 1 -4 3 -6 4c-3 1 -5 3 -7 4s-4 3 -7 4s-5 2 -7 3c-5 3 -13 8 -24 15c-9 7 -21 22 -36 46c-12 22 -20 42 -23 59c-3 15 -5 26 -7 34c-3 20 -5 32 -5 37c0 3 1 9 2 17c1 7 2 13 3 17c4 22 10 41 17 58c7 16 10 25 11 26c4 5 11 14 22 26
c15 19 28 36 41 49l12 12c4 6 7 10 10 12c1 2 6 7 15 14c3 3 7 8 12 16c3 5 9 11 16 19s13 16 18 23c5 8 8 18 9 29c1 8 2 17 2 26c1 3 1 7 0 10v9c1 4 1 6 2 7c3 2 7 3 12 3z" />
    <glyph glyph-name="Agrave" unicode="&#xc0;" horiz-adv-x="683" 
d="M395 753c5 1 11 0 19 -1c8 -2 14 -3 19 -3h9c6 0 10 0 14 -1s7 -2 8 -3c2 -3 2 -9 1 -20c0 -4 0 -11 1 -21c1 -9 1 -18 1 -25s-1 -13 -2 -17c-1 -3 -3 -6 -9 -10c-4 -3 -8 -7 -9 -10c-2 -4 -3 -9 -3 -14s0 -10 2 -14c0 -5 2 -10 4 -16c2 -7 3 -11 4 -14
c2 -9 6 -20 11 -32c3 -7 6 -18 11 -32c4 -14 7 -24 9 -30c3 -8 7 -20 10 -34c3 -16 6 -26 8 -31c7 -19 11 -29 12 -31c4 -13 8 -24 11 -31c4 -11 8 -28 14 -51c4 -22 9 -38 12 -48c1 -3 4 -8 6 -14c4 -7 6 -12 7 -15c1 -4 2 -10 3 -17c1 -8 3 -14 4 -18c2 -11 5 -22 9 -32
c16 -39 24 -58 25 -59c6 -11 17 -18 33 -20c15 -1 23 -3 24 -5c2 -3 3 -16 3 -40c0 -3 0 -7 1 -14s1 -12 1 -16c-1 -5 -2 -8 -3 -10c-3 -3 -21 -4 -54 -4c-13 0 -23 0 -28 -1c-2 0 -6 -1 -12 -3s-11 -3 -15 -2c-1 0 -8 2 -21 5c-4 1 -11 1 -22 1c-29 0 -44 1 -46 3
c-1 1 -2 5 -3 9c-1 6 -1 11 -1 18v12c0 25 1 39 2 41c1 3 5 5 11 7l8 3c11 7 15 19 12 38c-1 2 -2 5 -4 10c-1 5 -2 8 -3 10c-11 35 -21 55 -29 62c-7 5 -24 9 -53 10h-61h-31c-4 0 -9 0 -16 -1h-15h-12h-12h-10c-5 -1 -8 -1 -11 -2s-5 -2 -9 -2c-2 -2 -5 -3 -7 -4
c-2 -2 -4 -4 -6 -7c-3 -4 -5 -8 -6 -13s-3 -10 -4 -18c-1 -6 -3 -12 -4 -16c-1 -2 -3 -7 -5 -14c-4 -8 -5 -14 -6 -16c0 -4 0 -9 1 -18c3 -9 8 -15 15 -17l8 -1c5 -1 9 -3 12 -6c1 -2 2 -9 2 -21v-45c0 -11 -1 -18 -2 -19c-2 -2 -10 -3 -25 -3h-41c-17 -1 -30 -1 -39 -1
c-5 0 -14 0 -27 1c-12 1 -21 1 -27 1c-1 0 -6 0 -15 -1c-8 -1 -15 -1 -22 -1c-6 0 -10 1 -13 3c-1 1 -1 2 -1 5c-1 3 -1 6 -2 9v8c-1 6 -1 14 0 24c1 9 1 16 1 20c0 13 1 21 2 22c2 2 8 3 18 3c19 1 32 8 39 22c1 3 3 7 6 15c2 6 4 11 6 14c2 6 5 16 8 30c4 14 7 25 10 33
c1 3 2 9 3 17c1 7 3 13 4 16s2 6 5 11c2 5 3 8 4 10c5 13 12 34 20 65c3 13 12 42 27 85c1 5 4 12 9 21c4 9 7 15 8 19c4 10 9 24 16 42s12 31 15 39c2 5 4 13 6 23s4 18 5 23s4 11 10 20c4 9 8 16 9 21c3 14 1 25 -8 32c-1 1 -5 3 -10 5c-5 3 -9 5 -10 7c-1 1 -1 9 -1 22
c0 1 0 7 -2 18c0 11 -1 20 0 27c0 8 1 13 4 16c1 1 5 2 11 2c6 1 12 1 17 0c6 0 11 0 16 1c31 1 61 1 90 0c9 0 16 0 21 1h6c2 1 5 1 7 2c4 1 6 1 7 1zM302 483c-1 -5 -4 -13 -7 -21c-3 -10 -6 -17 -8 -24c-4 -17 -9 -32 -15 -44c-9 -17 -13 -33 -12 -46
c2 -24 27 -34 75 -30c5 1 12 1 23 2c11 0 20 1 27 2s13 3 18 6c15 9 16 34 1 75c-5 9 -11 25 -18 48c-8 23 -13 37 -15 42c-9 19 -17 31 -24 34c-5 2 -10 3 -16 2s-11 -3 -15 -7c-3 -5 -6 -12 -9 -22s-4 -16 -5 -17zM338 947c7 1 13 -8 17 -26c2 -7 6 -19 11 -35
c1 -4 3 -8 4 -12c1 -3 3 -7 4 -12s2 -9 3 -12c2 -4 4 -10 5 -17c4 -9 5 -15 4 -20c-1 -3 -9 -4 -22 -4c-13 -1 -29 0 -47 2c-11 0 -18 1 -21 2s-8 12 -16 31c-2 3 -12 24 -29 63c-1 1 -2 4 -5 7c-2 4 -4 7 -5 10s-3 6 -4 10s-1 7 1 8c1 1 4 2 10 2c7 1 13 1 18 0
c6 0 10 0 13 1h27c4 0 10 0 16 1c8 1 13 1 16 1z" />
    <glyph glyph-name="Aacute" unicode="&#xc1;" horiz-adv-x="683" 
d="M395 753c5 1 11 0 19 -1c8 -2 14 -3 19 -3h9c6 0 10 0 14 -1s7 -2 8 -3c2 -3 2 -9 1 -20c0 -4 0 -11 1 -21c1 -9 1 -18 1 -25s-1 -13 -2 -17c-1 -3 -3 -6 -9 -10c-4 -3 -8 -7 -9 -10c-2 -4 -3 -9 -3 -14s0 -10 2 -14c0 -5 2 -10 4 -16c2 -7 3 -11 4 -14
c2 -9 6 -20 11 -32c3 -7 6 -18 11 -32c4 -14 7 -24 9 -30c3 -8 7 -20 10 -34c3 -16 6 -26 8 -31c7 -19 11 -29 12 -31c4 -13 8 -24 11 -31c4 -11 8 -28 14 -51c4 -22 9 -38 12 -48c1 -3 4 -8 6 -14c4 -7 6 -12 7 -15c1 -4 2 -10 3 -17c1 -8 3 -14 4 -18c2 -11 5 -22 9 -32
c16 -39 24 -58 25 -59c6 -11 17 -18 33 -20c15 -1 23 -3 24 -5c2 -3 3 -16 3 -40c0 -3 0 -7 1 -14s1 -12 1 -16c-1 -5 -2 -8 -3 -10c-3 -3 -21 -4 -54 -4c-13 0 -23 0 -28 -1c-2 0 -6 -1 -12 -3s-11 -3 -15 -2c-1 0 -8 2 -21 5c-4 1 -11 1 -22 1c-29 0 -44 1 -46 3
c-1 1 -2 5 -3 9c-1 6 -1 11 -1 18v12c0 25 1 39 2 41c1 3 5 5 11 7l8 3c11 7 15 19 12 38c-1 2 -2 5 -4 10c-1 5 -2 8 -3 10c-11 35 -21 55 -29 62c-7 5 -24 9 -53 10h-61h-31c-4 0 -9 0 -16 -1h-15h-12h-12h-10c-5 -1 -8 -1 -11 -2s-5 -2 -9 -2c-2 -2 -5 -3 -7 -4
c-2 -2 -4 -4 -6 -7c-3 -4 -5 -8 -6 -13s-3 -10 -4 -18c-1 -6 -3 -12 -4 -16c-1 -2 -3 -7 -5 -14c-4 -8 -5 -14 -6 -16c0 -4 0 -9 1 -18c3 -9 8 -15 15 -17l8 -1c5 -1 9 -3 12 -6c1 -2 2 -9 2 -21v-45c0 -11 -1 -18 -2 -19c-2 -2 -10 -3 -25 -3h-41c-17 -1 -30 -1 -39 -1
c-5 0 -14 0 -27 1c-12 1 -21 1 -27 1c-1 0 -6 0 -15 -1c-8 -1 -15 -1 -22 -1c-6 0 -10 1 -13 3c-1 1 -1 2 -1 5c-1 3 -1 6 -2 9v8c-1 6 -1 14 0 24c1 9 1 16 1 20c0 13 1 21 2 22c2 2 8 3 18 3c19 1 32 8 39 22c1 3 3 7 6 15c2 6 4 11 6 14c2 6 5 16 8 30c4 14 7 25 10 33
c1 3 2 9 3 17c1 7 3 13 4 16s2 6 5 11c2 5 3 8 4 10c5 13 12 34 20 65c3 13 12 42 27 85c1 5 4 12 9 21c4 9 7 15 8 19c4 10 9 24 16 42s12 31 15 39c2 5 4 13 6 23s4 18 5 23s4 11 10 20c4 9 8 16 9 21c3 14 1 25 -8 32c-1 1 -5 3 -10 5c-5 3 -9 5 -10 7c-1 1 -1 9 -1 22
c0 1 0 7 -2 18c0 11 -1 20 0 27c0 8 1 13 4 16c1 1 5 2 11 2c6 1 12 1 17 0c6 0 11 0 16 1c31 1 61 1 90 0c9 0 16 0 21 1h6c2 1 5 1 7 2c4 1 6 1 7 1zM302 483c-1 -5 -4 -13 -7 -21c-3 -10 -6 -17 -8 -24c-4 -17 -9 -32 -15 -44c-9 -17 -13 -33 -12 -46
c2 -24 27 -34 75 -30c5 1 12 1 23 2c11 0 20 1 27 2s13 3 18 6c15 9 16 34 1 75c-5 9 -11 25 -18 48c-8 23 -13 37 -15 42c-9 19 -17 31 -24 34c-5 2 -10 3 -16 2s-11 -3 -15 -7c-3 -5 -6 -12 -9 -22s-4 -16 -5 -17zM343 945c5 3 15 3 30 0c3 -1 8 -1 17 -1c8 2 13 2 16 2
c4 0 11 -1 22 -2c11 0 18 -1 20 -3c1 -1 -1 -7 -4 -18c-3 -6 -6 -14 -11 -24s-8 -18 -11 -24l-15 -33c-9 -19 -15 -28 -17 -29c-5 -3 -20 -4 -45 -4c-5 -1 -13 -1 -24 -1s-18 2 -19 5c-3 5 0 16 7 35c1 5 3 11 5 20c3 8 4 13 5 15l11 33c5 19 10 28 13 29z" />
    <glyph glyph-name="Acircumflex" unicode="&#xc2;" horiz-adv-x="683" 
d="M395 753c5 1 11 0 19 -1c8 -2 14 -3 19 -3h9c6 0 10 0 14 -1s7 -2 8 -3c2 -3 2 -9 1 -20c0 -4 0 -11 1 -21c1 -9 1 -18 1 -25s-1 -13 -2 -17c-1 -3 -3 -6 -9 -10c-4 -3 -8 -7 -9 -10c-2 -4 -3 -9 -3 -14s0 -10 2 -14c0 -5 2 -10 4 -16c2 -7 3 -11 4 -14
c2 -9 6 -20 11 -32c3 -7 6 -18 11 -32c4 -14 7 -24 9 -30c3 -8 7 -20 10 -34c3 -16 6 -26 8 -31c7 -19 11 -29 12 -31c4 -13 8 -24 11 -31c4 -11 8 -28 14 -51c4 -22 9 -38 12 -48c1 -3 4 -8 6 -14c4 -7 6 -12 7 -15c1 -4 2 -10 3 -17c1 -8 3 -14 4 -18c2 -11 5 -22 9 -32
c16 -39 24 -58 25 -59c6 -11 17 -18 33 -20c15 -1 23 -3 24 -5c2 -3 3 -16 3 -40c0 -3 0 -7 1 -14s1 -12 1 -16c-1 -5 -2 -8 -3 -10c-3 -3 -21 -4 -54 -4c-13 0 -23 0 -28 -1c-2 0 -6 -1 -12 -3s-11 -3 -15 -2c-1 0 -8 2 -21 5c-4 1 -11 1 -22 1c-29 0 -44 1 -46 3
c-1 1 -2 5 -3 9c-1 6 -1 11 -1 18v12c0 25 1 39 2 41c1 3 5 5 11 7l8 3c11 7 15 19 12 38c-1 2 -2 5 -4 10c-1 5 -2 8 -3 10c-11 35 -21 55 -29 62c-7 5 -24 9 -53 10h-61h-31c-4 0 -9 0 -16 -1h-15h-12h-12h-10c-5 -1 -8 -1 -11 -2s-5 -2 -9 -2c-2 -2 -5 -3 -7 -4
c-2 -2 -4 -4 -6 -7c-3 -4 -5 -8 -6 -13s-3 -10 -4 -18c-1 -6 -3 -12 -4 -16c-1 -2 -3 -7 -5 -14c-4 -8 -5 -14 -6 -16c0 -4 0 -9 1 -18c3 -9 8 -15 15 -17l8 -1c5 -1 9 -3 12 -6c1 -2 2 -9 2 -21v-45c0 -11 -1 -18 -2 -19c-2 -2 -10 -3 -25 -3h-41c-17 -1 -30 -1 -39 -1
c-5 0 -14 0 -27 1c-12 1 -21 1 -27 1c-1 0 -6 0 -15 -1c-8 -1 -15 -1 -22 -1c-6 0 -10 1 -13 3c-1 1 -1 2 -1 5c-1 3 -1 6 -2 9v8c-1 6 -1 14 0 24c1 9 1 16 1 20c0 13 1 21 2 22c2 2 8 3 18 3c19 1 32 8 39 22c1 3 3 7 6 15c2 6 4 11 6 14c2 6 5 16 8 30c4 14 7 25 10 33
c1 3 2 9 3 17c1 7 3 13 4 16s2 6 5 11c2 5 3 8 4 10c5 13 12 34 20 65c3 13 12 42 27 85c1 5 4 12 9 21c4 9 7 15 8 19c4 10 9 24 16 42s12 31 15 39c2 5 4 13 6 23s4 18 5 23s4 11 10 20c4 9 8 16 9 21c3 14 1 25 -8 32c-1 1 -5 3 -10 5c-5 3 -9 5 -10 7c-1 1 -1 9 -1 22
c0 1 0 7 -2 18c0 11 -1 20 0 27c0 8 1 13 4 16c1 1 5 2 11 2c6 1 12 1 17 0c6 0 11 0 16 1c31 1 61 1 90 0c9 0 16 0 21 1h6c2 1 5 1 7 2c4 1 6 1 7 1zM302 483c-1 -5 -4 -13 -7 -21c-3 -10 -6 -17 -8 -24c-4 -17 -9 -32 -15 -44c-9 -17 -13 -33 -12 -46
c2 -24 27 -34 75 -30c5 1 12 1 23 2c11 0 20 1 27 2s13 3 18 6c15 9 16 34 1 75c-5 9 -11 25 -18 48c-8 23 -13 37 -15 42c-9 19 -17 31 -24 34c-5 2 -10 3 -16 2s-11 -3 -15 -7c-3 -5 -6 -12 -9 -22s-4 -16 -5 -17zM318 946c9 1 15 2 18 2c1 0 9 -1 24 -2c16 0 25 0 26 -1
c3 -1 5 -3 7 -7c2 -2 4 -7 7 -13s4 -10 5 -12c1 -3 4 -8 8 -15s7 -13 9 -17s5 -9 8 -17c4 -6 7 -12 9 -16c3 -6 6 -12 8 -17c4 -10 5 -16 4 -19s-13 -4 -35 -4h-12c-6 -1 -11 -1 -15 -1s-7 0 -9 1c-1 1 -5 4 -12 11c-9 12 -21 15 -35 10c-3 -1 -6 -4 -10 -9
c-4 -4 -8 -7 -11 -8c-1 -1 -15 -2 -40 -4c-25 0 -38 2 -39 5s1 9 6 18c1 1 2 4 3 8c2 4 4 7 5 9s6 13 17 32c5 8 10 19 16 34c9 19 15 30 18 31c2 1 9 1 20 1z" />
    <glyph glyph-name="Atilde" unicode="&#xc3;" horiz-adv-x="683" 
d="M395 753c5 1 11 0 19 -1c8 -2 14 -3 19 -3h9c6 0 10 0 14 -1s7 -2 8 -3c2 -3 2 -9 1 -20c0 -4 0 -11 1 -21c1 -9 1 -18 1 -25s-1 -13 -2 -17c-1 -3 -3 -6 -9 -10c-4 -3 -8 -7 -9 -10c-2 -4 -3 -9 -3 -14s0 -10 2 -14c0 -5 2 -10 4 -16c2 -7 3 -11 4 -14
c2 -9 6 -20 11 -32c3 -7 6 -18 11 -32c4 -14 7 -24 9 -30c3 -8 7 -20 10 -34c3 -16 6 -26 8 -31c7 -19 11 -29 12 -31c4 -13 8 -24 11 -31c4 -11 8 -28 14 -51c4 -22 9 -38 12 -48c1 -3 4 -8 6 -14c4 -7 6 -12 7 -15c1 -4 2 -10 3 -17c1 -8 3 -14 4 -18c2 -11 5 -22 9 -32
c16 -39 24 -58 25 -59c6 -11 17 -18 33 -20c15 -1 23 -3 24 -5c2 -3 3 -16 3 -40c0 -3 0 -7 1 -14s1 -12 1 -16c-1 -5 -2 -8 -3 -10c-3 -3 -21 -4 -54 -4c-13 0 -23 0 -28 -1c-2 0 -6 -1 -12 -3s-11 -3 -15 -2c-1 0 -8 2 -21 5c-4 1 -11 1 -22 1c-29 0 -44 1 -46 3
c-1 1 -2 5 -3 9c-1 6 -1 11 -1 18v12c0 25 1 39 2 41c1 3 5 5 11 7l8 3c11 7 15 19 12 38c-1 2 -2 5 -4 10c-1 5 -2 8 -3 10c-11 35 -21 55 -29 62c-7 5 -24 9 -53 10h-61h-31c-4 0 -9 0 -16 -1h-15h-12h-12h-10c-5 -1 -8 -1 -11 -2s-5 -2 -9 -2c-2 -2 -5 -3 -7 -4
c-2 -2 -4 -4 -6 -7c-3 -4 -5 -8 -6 -13s-3 -10 -4 -18c-1 -6 -3 -12 -4 -16c-1 -2 -3 -7 -5 -14c-4 -8 -5 -14 -6 -16c0 -4 0 -9 1 -18c3 -9 8 -15 15 -17l8 -1c5 -1 9 -3 12 -6c1 -2 2 -9 2 -21v-45c0 -11 -1 -18 -2 -19c-2 -2 -10 -3 -25 -3h-41c-17 -1 -30 -1 -39 -1
c-5 0 -14 0 -27 1c-12 1 -21 1 -27 1c-1 0 -6 0 -15 -1c-8 -1 -15 -1 -22 -1c-6 0 -10 1 -13 3c-1 1 -1 2 -1 5c-1 3 -1 6 -2 9v8c-1 6 -1 14 0 24c1 9 1 16 1 20c0 13 1 21 2 22c2 2 8 3 18 3c19 1 32 8 39 22c1 3 3 7 6 15c2 6 4 11 6 14c2 6 5 16 8 30c4 14 7 25 10 33
c1 3 2 9 3 17c1 7 3 13 4 16s2 6 5 11c2 5 3 8 4 10c5 13 12 34 20 65c3 13 12 42 27 85c1 5 4 12 9 21c4 9 7 15 8 19c4 10 9 24 16 42s12 31 15 39c2 5 4 13 6 23s4 18 5 23s4 11 10 20c4 9 8 16 9 21c3 14 1 25 -8 32c-1 1 -5 3 -10 5c-5 3 -9 5 -10 7c-1 1 -1 9 -1 22
c0 1 0 7 -2 18c0 11 -1 20 0 27c0 8 1 13 4 16c1 1 5 2 11 2c6 1 12 1 17 0c6 0 11 0 16 1c31 1 61 1 90 0c9 0 16 0 21 1h6c2 1 5 1 7 2c4 1 6 1 7 1zM302 483c-1 -5 -4 -13 -7 -21c-3 -10 -6 -17 -8 -24c-4 -17 -9 -32 -15 -44c-9 -17 -13 -33 -12 -46
c2 -24 27 -34 75 -30c5 1 12 1 23 2c11 0 20 1 27 2s13 3 18 6c15 9 16 34 1 75c-5 9 -11 25 -18 48c-8 23 -13 37 -15 42c-9 19 -17 31 -24 34c-5 2 -10 3 -16 2s-11 -3 -15 -7c-3 -5 -6 -12 -9 -22s-4 -16 -5 -17zM275 946c7 1 18 -1 31 -4c17 -3 32 -9 47 -19
c16 -12 31 -16 44 -13c3 1 11 4 24 11l22 11c1 0 7 -5 16 -14l7 -7c3 -3 6 -6 7 -8s3 -5 5 -9c3 -3 5 -6 6 -8c7 -7 10 -12 10 -17s-6 -13 -19 -22c-9 -9 -16 -15 -21 -18c-25 -17 -54 -25 -86 -23c-11 1 -24 5 -39 14c-2 1 -6 4 -11 8c-5 3 -10 6 -13 8s-8 4 -14 6
c-6 1 -12 2 -18 1c-4 0 -11 -2 -20 -7s-15 -8 -18 -8c-5 0 -10 5 -17 15c-11 13 -20 24 -27 35c-8 11 -12 17 -12 19c0 1 6 7 19 17c20 13 36 21 48 25l14 3c7 2 12 3 15 4z" />
    </font>
</defs>
</svg>
