<?xml version="1.0" standalone="no"?>
<!DOCTYPE svg PUBLIC "-//W3C//DTD SVG 1.1//EN" "http://www.w3.org/Graphics/SVG/1.1/DTD/svg11.dtd" >
<svg xmlns="http://www.w3.org/2000/svg" xmlns:xlink="http://www.w3.org/1999/xlink" version="1.1">
<metadata>
Created by FontForge 20201107 at Wed Dec 10 03:00:54 2025
 By Unknown
(c) M. Klein   9.11.06
</metadata>
<defs>
<font id="BoringSansBold" horiz-adv-x="611" >
  <font-face 
    font-family="BoringSansBold"
    font-weight="700"
    font-stretch="normal"
    units-per-em="1000"
    panose-1="2 0 8 3 0 0 0 0 0 0"
    ascent="800"
    descent="-200"
    x-height="520"
    cap-height="722"
    bbox="-167 -229 1000 976"
    underline-thickness="50"
    underline-position="-125"
    unicode-range="U+0020-FB02"
  />
    <missing-glyph />
    <glyph glyph-name="breve" unicode="&#x2d8;" horiz-adv-x="278" 
d="M308 732h-66c-5 -27 -18 -46 -37 -56c-20 -9 -42 -14 -66 -14c-25 0 -47 5 -67 15c-19 9 -31 27 -36 55h-66c5 -55 23 -93 54 -114s70 -32 115 -32s84 11 115 32s49 59 54 114z" />
    <glyph glyph-name="dotaccent" unicode="&#x2d9;" horiz-adv-x="278" 
d="M200 596v116h-120v-116h120z" />
    <glyph glyph-name="ring" unicode="&#x2da;" horiz-adv-x="278" 
d="M247 693c0 30 -11 56 -32 77s-46 31 -76 31s-56 -11 -77 -32s-31 -46 -31 -76s11 -56 32 -77s46 -31 76 -31s56 11 77 32s31 46 31 76zM193 693c0 -15 -5 -28 -16 -39c-10 -10 -23 -15 -38 -15s-27 5 -38 16c-11 10 -16 23 -16 38s5 28 16 39c11 10 23 15 38 15
s28 -5 39 -16c10 -10 15 -23 15 -38z" />
    <glyph glyph-name="hungarumlaut" unicode="&#x2dd;" horiz-adv-x="278" 
d="M391 732h-153l-76 -146h98zM197 732h-153l-76 -146h98z" />
    <glyph glyph-name="ogonek" unicode="&#x2db;" horiz-adv-x="278" 
d="M285 -159l-20 36c-9 -7 -18 -13 -27 -17c-9 -6 -17 -10 -26 -13c-17 -7 -31 -11 -42 -11c-15 0 -27 4 -38 12c-10 8 -15 20 -15 36c0 27 13 51 40 72c26 20 60 38 101 53v12c-89 -14 -149 -34 -181 -60c-32 -25 -48 -55 -48 -89c0 -29 10 -50 30 -65
c21 -15 46 -23 76 -23c26 0 52 6 79 17c13 5 25 11 36 19c12 6 24 14 35 21z" />
    <glyph glyph-name="caron" unicode="&#x2c7;" horiz-adv-x="278" 
d="M315 732h-113l-63 -82l-63 82h-113l114 -146h124z" />
    <glyph glyph-name="dotlessi" unicode="&#x131;" horiz-adv-x="667" 
d="M655 -54v116c-43 3 -73 14 -90 33c48 63 72 151 72 266c0 117 -26 209 -78 274c-51 65 -126 97 -225 97s-174 -33 -226 -98s-78 -156 -78 -273c0 -118 26 -209 78 -274s127 -97 226 -97c69 0 120 12 155 37l5 -6c2 -4 7 -10 14 -18c31 -38 80 -57 147 -57zM499 361
c0 -61 -6 -107 -18 -139l-1 2c-2 1 -3 3 -4 6c-33 51 -80 79 -143 86v-123c35 -7 63 -28 86 -64c-17 -15 -46 -23 -85 -23c-58 0 -100 22 -127 66c-26 43 -39 106 -39 189s13 147 40 190c26 43 68 65 126 65c57 0 99 -22 126 -66c26 -43 39 -106 39 -189z" />
    <glyph glyph-name="fraction" unicode="&#x2044;" horiz-adv-x="167" 
d="M335 733h-89l-413 -743h88z" />
    <glyph glyph-name="fi" unicode="&#xfb01;" horiz-adv-x="556" 
d="M490 616v116h-122v-116h122zM492 0v520h-124v-520h124zM313 420v100h-105v51c0 22 5 38 15 47c9 9 30 14 61 14h28v100h-83c-52 0 -89 -11 -112 -33s-34 -59 -34 -110v-69h-71v-100h72v-420h124v420h105z" />
    <glyph glyph-name="fl" unicode="&#xfb02;" horiz-adv-x="556" 
d="M493 0l-1 100v622h-124v-722h125zM313 420v100h-105v59c0 21 7 35 20 43c11 7 28 10 52 10h32v100h-80c-55 0 -93 -11 -116 -34c-22 -22 -33 -60 -33 -114v-64h-71v-100h72v-420h124v420h105z" />
    <glyph glyph-name="Lslash" unicode="&#x141;" horiz-adv-x="556" 
d="M531 0v116h-317v229l160 65v100l-160 -65v277h-137v-333l-77 -31v-100l77 31v-289h454z" />
    <glyph glyph-name="lslash" unicode="&#x142;" horiz-adv-x="278" 
d="M278 418v100l-77 -39v243h-124v-305l-77 -39v-100l77 39v-317h124v379z" />
    <glyph glyph-name="Zcaron" unicode="&#x17d;" horiz-adv-x="556" 
d="M445 907h-113l-63 -82l-63 82h-113l114 -146h124zM530 0v116h-352l348 495v111h-487v-116h314l-337 -488v-118h514z" />
    <glyph glyph-name="zcaron" unicode="&#x17e;" horiz-adv-x="444" 
d="M398 732h-113l-63 -82l-63 82h-113l114 -146h124zM427 0v100h-253l250 331v89h-386l-1 -100h232l-251 -332v-88h409z" />
    <glyph glyph-name="space" unicode=" " horiz-adv-x="222" 
 />
    <glyph glyph-name="exclam" unicode="!" horiz-adv-x="333" 
d="M240 722h-148l26 -478h96zM236 0v142h-139v-142h139z" />
    <glyph glyph-name="quotedbl" unicode="&#x22;" horiz-adv-x="333" 
d="M309 450v272h-112v-272h112zM136 450v272h-112v-272h112z" />
    <glyph glyph-name="numbersign" unicode="#" 
d="M550 421v90h-82l28 211h-94l-28 -211h-97l28 211h-94l-28 -211h-92v-90h80l-17 -120h-93v-90h81l-28 -211h94l28 211h97l-28 -211h94l28 211h93v90h-81l17 120h94zM362 421l-17 -120h-97l17 120h97z" />
    <glyph glyph-name="dollar" unicode="$" 
d="M558 205c0 61 -23 108 -70 141c-22 15 -46 30 -70 42c-26 14 -52 25 -81 34v200c9 -1 16 -3 23 -4c7 -2 13 -4 18 -7c21 -9 50 -30 86 -65l78 77c-43 41 -82 69 -117 82c-24 9 -53 15 -88 18v71h-74v-72c-57 -6 -104 -24 -143 -53c-47 -36 -71 -82 -71 -139
s20 -100 60 -131c33 -25 85 -52 154 -79v-220c-26 5 -47 13 -64 24c-30 19 -54 42 -71 69l-86 -74c28 -38 64 -68 107 -89c31 -15 69 -25 114 -29v-121h74v120c65 5 117 22 154 51c45 35 67 86 67 154zM263 449l-27 12c-8 4 -16 8 -23 12c-34 19 -51 42 -51 69
c0 25 12 45 35 60c16 11 38 18 66 22v-175zM446 190c0 -30 -12 -53 -37 -70c-19 -13 -43 -20 -72 -23v194c13 -5 24 -11 35 -16c10 -5 19 -11 28 -16c31 -18 46 -41 46 -69z" />
    <glyph glyph-name="percent" unicode="%" horiz-adv-x="889" 
d="M856 179c0 49 -18 92 -54 128c-35 35 -78 53 -127 53c-48 0 -90 -18 -127 -53c-36 -35 -54 -77 -54 -125c0 -50 18 -93 54 -129c35 -35 78 -53 127 -53c48 0 90 18 127 53c36 35 54 77 54 126zM758 180c0 -23 -8 -42 -25 -59c-16 -16 -35 -24 -57 -24c-23 0 -42 8 -59 24
c-16 15 -24 34 -24 57s8 43 25 59c16 16 35 24 58 24s42 -8 58 -24c16 -15 24 -34 24 -57zM698 732h-85l-415 -742h84zM396 541c0 49 -18 92 -54 128c-35 35 -78 53 -127 53c-48 0 -90 -18 -127 -53c-36 -35 -54 -77 -54 -125c0 -50 18 -93 54 -129c35 -36 77 -54 127 -54
c49 0 92 18 128 54c35 35 53 77 53 126zM298 542c0 -23 -8 -42 -25 -59c-16 -17 -35 -25 -57 -25c-23 0 -42 8 -59 24c-16 16 -24 35 -24 58s8 43 25 60c16 16 35 24 58 24s42 -8 58 -24s24 -35 24 -58z" />
    <glyph glyph-name="ampersand" unicode="&#x26;" horiz-adv-x="667" 
d="M634 -10v116c-23 1 -57 16 -104 47c8 11 18 27 30 48c25 41 45 84 60 131l-110 30c-17 -45 -33 -80 -49 -107c-3 -5 -7 -11 -9 -15c-4 -6 -7 -10 -10 -15c-17 15 -36 35 -57 59c-21 23 -45 52 -70 85c15 11 30 23 45 37c15 13 30 28 45 44c33 37 49 77 49 121
c0 47 -17 86 -52 116s-75 45 -120 45c-53 0 -97 -15 -132 -46c-34 -31 -51 -73 -51 -124c0 -45 10 -85 30 -122c5 -9 11 -18 15 -27c6 -9 11 -17 16 -24c-35 -22 -63 -47 -84 -75c-24 -32 -36 -70 -36 -115c0 -58 19 -108 56 -149c37 -40 95 -60 175 -60c45 0 85 10 120 29
c23 13 45 29 65 47c3 -2 5 -4 8 -6c2 -3 5 -5 8 -8c33 -27 62 -45 86 -52c22 -7 47 -10 76 -10zM338 574c0 -20 -9 -41 -27 -64c-15 -19 -35 -37 -59 -54c-1 3 -3 5 -5 8c-2 2 -4 5 -5 8c-18 32 -27 65 -27 100c0 25 6 44 19 57c13 14 27 21 42 21c19 0 34 -7 45 -21
c11 -13 17 -32 17 -55zM371 144c-7 -5 -13 -10 -19 -14l-15 -9c-21 -10 -43 -15 -64 -15c-25 0 -48 10 -70 30s-33 43 -33 70c0 26 7 46 20 60c5 6 11 12 17 17s12 11 19 16c35 -43 67 -80 97 -109l22 -22c8 -7 17 -15 26 -24z" />
    <glyph glyph-name="quotesingle" unicode="'" horiz-adv-x="222" 
d="M167 450v272h-112v-272h112z" />
    <glyph glyph-name="parenleft" unicode="(" horiz-adv-x="333" 
d="M310 -84c-37 44 -71 101 -102 170s-46 149 -46 238s15 169 46 239c31 69 65 126 102 169h-123c-13 -17 -26 -38 -41 -64c-15 -27 -30 -58 -47 -95c-33 -75 -49 -158 -49 -249c0 -92 17 -175 50 -249c16 -37 31 -68 46 -95c15 -26 28 -47 41 -64h123z" />
    <glyph glyph-name="parenright" unicode=")" horiz-adv-x="333" 
d="M283 324c0 94 -16 177 -49 249c-31 72 -60 125 -86 159h-123c36 -42 70 -99 101 -170c30 -70 45 -149 45 -238s-15 -169 -46 -239c-30 -70 -63 -126 -100 -169h123c25 33 54 86 87 159c32 73 48 156 48 249z" />
    <glyph glyph-name="asterisk" unicode="*" horiz-adv-x="500" 
d="M439 550l-30 92l-127 -57l18 137h-98l18 -137l-127 57l-30 -92l138 -25l-97 -103l80 -58l67 125l67 -125l80 58l-97 103z" />
    <glyph glyph-name="plus" unicode="+" horiz-adv-x="600" 
d="M559 209v106h-207v205h-106v-205h-206v-106h206v-208h106v208h207z" />
    <glyph glyph-name="comma" unicode="," horiz-adv-x="305" 
d="M221 0v142h-138v-142h60l-51 -150h65z" />
    <glyph glyph-name="hyphen" unicode="-" horiz-adv-x="333" 
d="M289 206v108h-245v-108h245z" />
    <glyph glyph-name="period" unicode="." horiz-adv-x="305" 
d="M221 0v142h-138v-142h138z" />
    <glyph glyph-name="slash" unicode="/" horiz-adv-x="278" 
d="M306 732h-109l-225 -742h109z" />
    <glyph glyph-name="zero" unicode="0" 
d="M568 361c0 117 -22 208 -66 273s-110 98 -197 98c-86 0 -152 -33 -197 -98c-44 -65 -66 -156 -66 -273s22 -208 66 -273s110 -98 197 -98s153 33 197 98s66 156 66 273zM438 361c0 -84 -10 -149 -31 -194c-21 -46 -55 -69 -102 -69s-81 23 -102 69
c-21 45 -31 110 -31 194s10 149 31 194c21 46 55 69 102 69s81 -23 102 -69c21 -45 31 -110 31 -194z" />
    <glyph glyph-name="one" unicode="1" 
d="M499 0v100h-113v632h-100c-17 -15 -40 -28 -69 -37c-15 -4 -29 -7 -44 -9s-29 -3 -44 -4v-84h129v-498h-112v-100h353z" />
    <glyph glyph-name="two" unicode="2" 
d="M543 522c0 63 -22 114 -66 153c-43 38 -100 57 -171 57c-63 0 -118 -18 -163 -55c-46 -36 -74 -83 -84 -142l115 -26c6 31 20 58 43 81s53 34 90 34c32 0 58 -9 77 -27c19 -17 28 -41 28 -72c0 -30 -16 -63 -48 -99c-16 -17 -32 -33 -48 -48s-32 -28 -47 -41
c-27 -21 -51 -42 -75 -61c-22 -20 -44 -39 -65 -57c-42 -37 -66 -70 -73 -100v-119h486v112h-341c15 13 31 27 47 40c15 14 31 28 48 41s32 26 46 37l39 33c51 42 91 82 119 121c29 39 43 85 43 138z" />
    <glyph glyph-name="three" unicode="3" 
d="M542 205c0 50 -13 91 -38 122s-57 52 -95 63c35 15 62 37 81 64s28 57 28 92c0 57 -22 102 -66 136c-43 33 -101 50 -173 50c-47 0 -89 -11 -128 -32c-19 -11 -37 -22 -51 -34c-16 -11 -29 -23 -40 -36l86 -78c7 7 15 15 24 23s20 16 31 25c23 16 51 24 85 24
c31 0 55 -8 74 -25s28 -38 28 -63c0 -34 -15 -59 -45 -75c-29 -16 -76 -24 -141 -24h-8v-108h13c71 0 124 -10 157 -30c32 -20 48 -50 48 -89c0 -33 -12 -60 -35 -81s-52 -31 -88 -31c-42 0 -76 11 -103 32c-25 21 -42 40 -51 59l-104 -59c15 -32 46 -64 93 -95
c47 -30 101 -45 162 -45c76 0 138 20 185 59s71 91 71 156z" />
    <glyph glyph-name="four" unicode="4" 
d="M575 166v100h-101v456h-142l-308 -429v-127h325v-166h125v166h101zM349 266h-225l225 324v-324z" />
    <glyph glyph-name="five" unicode="5" 
d="M554 246c0 67 -21 124 -64 171c-42 47 -93 71 -154 71c-20 0 -41 -2 -64 -6c-23 -3 -46 -14 -69 -35l10 163h292v112h-390l-27 -384l105 -20c11 21 27 37 47 47c19 10 39 15 60 15c37 0 68 -13 91 -38c22 -25 33 -59 33 -101c0 -44 -11 -79 -34 -104s-54 -38 -92 -38
c-37 0 -67 10 -92 30c-25 19 -40 37 -44 52l-108 -56c17 -37 45 -68 85 -95c39 -27 89 -40 148 -40c84 0 150 23 197 68s70 107 70 188z" />
    <glyph glyph-name="six" unicode="6" 
d="M563 224c0 71 -21 128 -63 172c-41 44 -96 66 -164 66c-15 0 -30 -1 -45 -4s-29 -7 -44 -12c-23 -8 -46 -23 -69 -44c9 70 26 120 49 151c17 23 37 40 59 52s46 18 73 19c25 1 49 -5 71 -16s39 -23 51 -34l57 104c-10 7 -21 13 -34 20c-13 6 -27 12 -42 17
c-32 11 -66 17 -101 17c-95 0 -171 -37 -228 -110c-56 -73 -84 -174 -84 -302c0 -111 24 -193 73 -248c48 -55 110 -82 187 -82c75 0 136 22 183 66c47 43 71 99 71 168zM433 223c0 -37 -11 -68 -32 -91c-20 -23 -48 -34 -83 -34c-47 0 -83 18 -107 55c-8 12 -15 28 -20 47
s-10 42 -13 69c13 27 29 46 48 59c25 17 52 26 82 26c40 0 71 -11 93 -34c21 -23 32 -56 32 -97z" />
    <glyph glyph-name="seven" unicode="7" 
d="M554 648v74h-496v-112h347l-292 -610h143z" />
    <glyph glyph-name="eight" unicode="8" 
d="M572 189c0 45 -12 83 -37 116c-23 33 -59 59 -108 79c40 21 70 45 90 73c19 27 28 58 28 95c0 56 -22 100 -66 132c-43 32 -101 48 -173 48c-75 0 -134 -16 -177 -47s-65 -76 -65 -134c0 -41 12 -76 35 -103c22 -26 49 -47 82 -64c-45 -20 -81 -46 -106 -77
s-38 -71 -38 -120c0 -58 25 -105 76 -142c49 -37 113 -55 191 -55c79 0 144 18 193 55c50 37 75 85 75 144zM415 549c0 -24 -13 -48 -39 -72c-27 -25 -51 -37 -73 -37c-12 0 -24 3 -36 9s-24 14 -36 25c-24 21 -36 46 -36 77c0 27 10 47 29 61c19 13 46 20 80 20
c35 0 63 -7 82 -21c19 -13 29 -34 29 -62zM441 194c0 -33 -12 -59 -37 -77c-24 -18 -57 -27 -99 -27s-75 9 -100 28c-25 18 -37 43 -37 75c0 31 15 61 44 88s56 42 83 45c23 -1 53 -16 90 -44s56 -57 56 -88z" />
    <glyph glyph-name="nine" unicode="9" 
d="M550 403c0 110 -24 192 -73 247c-48 55 -110 82 -187 82c-76 0 -137 -22 -184 -66c-47 -43 -70 -100 -70 -173c0 -68 21 -124 63 -168c42 -43 96 -65 161 -65c40 0 75 7 104 21c13 7 25 13 34 20c10 7 18 14 25 21c-8 -65 -24 -114 -48 -148c-35 -50 -80 -75 -135 -76
c-11 -1 -22 0 -33 3s-21 6 -32 11c-11 4 -21 9 -30 16c-9 6 -18 13 -27 20l-57 -104c10 -7 21 -13 34 -20c13 -6 27 -12 42 -17c32 -11 66 -17 103 -17c96 0 172 38 227 113s83 175 83 300zM422 456c-11 -25 -27 -46 -48 -62c-23 -17 -50 -26 -80 -26c-40 0 -71 11 -94 33
s-34 53 -34 93c0 41 10 73 31 96s49 34 86 34c45 0 80 -19 105 -57c16 -24 27 -61 34 -111z" />
    <glyph glyph-name="colon" unicode=":" horiz-adv-x="305" 
d="M221 300v142h-138v-142h138zM221 0v142h-138v-142h138z" />
    <glyph glyph-name="semicolon" unicode=";" horiz-adv-x="305" 
d="M221 300v142h-138v-142h138zM221 0v142h-138v-142h60l-51 -150h65z" />
    <glyph glyph-name="less" unicode="&#x3c;" horiz-adv-x="600" 
d="M559 -8v111l-371 157l371 157v111l-519 -222v-92z" />
    <glyph glyph-name="equal" unicode="=" horiz-adv-x="600" 
d="M561 317v106h-521v-106h521zM561 97v106h-521v-106h521z" />
    <glyph glyph-name="greater" unicode="&#x3e;" horiz-adv-x="600" 
d="M559 214v92l-519 222v-111l371 -157l-371 -157v-111z" />
    <glyph glyph-name="question" unicode="?" horiz-adv-x="444" 
d="M398 570c0 43 -16 81 -47 114c-30 32 -75 48 -135 48c-56 0 -101 -14 -136 -42c-36 -29 -59 -67 -70 -114l115 -32c3 25 12 46 29 63c15 17 32 25 52 25c17 0 33 -6 46 -17c13 -10 19 -23 19 -38c0 -13 -3 -27 -10 -41c-6 -16 -18 -37 -36 -62c-18 -24 -36 -51 -54 -81
c-19 -30 -28 -61 -28 -94v-56h110v37c0 11 1 22 4 32s6 20 11 29c8 17 27 42 56 77c23 26 41 52 54 77c13 28 20 53 20 75zM269 0v142h-139v-142h139z" />
    <glyph glyph-name="at" unicode="@" horiz-adv-x="800" 
d="M753 427c0 81 -32 153 -95 215c-64 61 -145 91 -242 91c-103 0 -191 -37 -263 -112s-108 -161 -108 -257c0 -100 35 -187 106 -262c70 -75 161 -112 272 -112c65 0 125 17 179 51s90 68 108 103h-89c-15 -19 -42 -36 -81 -51c-37 -15 -80 -22 -128 -22
c-69 0 -131 27 -186 82c-55 54 -82 123 -82 207c0 81 27 151 81 208c53 56 116 84 191 84c72 0 132 -22 179 -67c47 -44 71 -95 71 -154c0 -51 -10 -97 -29 -137c-19 -38 -38 -57 -56 -57c-1 0 -7 3 -16 8c-5 4 -8 9 -8 16c0 4 1 9 3 14l54 259h-90l-9 -41
c-9 20 -25 35 -49 46c-23 10 -45 15 -66 15c-62 0 -112 -25 -149 -74c-36 -49 -54 -103 -54 -160c0 -53 17 -95 51 -128c33 -33 68 -49 105 -49c21 0 41 6 60 17c17 11 30 22 40 35c4 -21 11 -35 21 -43c9 -7 19 -11 29 -11c59 0 116 28 170 85c53 57 80 124 80 201z
M487 373c0 -33 -10 -62 -30 -87s-45 -37 -76 -37c-21 0 -38 7 -53 21s-22 37 -22 68c0 29 10 55 29 78s45 35 76 35c23 0 41 -8 55 -23s21 -34 21 -55z" />
    <glyph glyph-name="A" unicode="A" 
d="M598 0l-205 723h-172l-208 -723h137l45 166h228l38 -166h137zM391 270h-168l86 318z" />
    <glyph glyph-name="B" unicode="B" horiz-adv-x="667" 
d="M607 201c0 41 -8 76 -23 105s-49 54 -103 75c34 13 61 33 81 60c19 27 29 59 29 96c0 62 -21 108 -64 139s-103 46 -182 46h-267v-722h260c89 0 156 16 201 49c45 32 68 83 68 152zM453 518c0 -26 -9 -46 -28 -61s-42 -23 -71 -23h-138v176h134c33 0 59 -8 77 -24
c17 -15 26 -38 26 -68zM469 219c0 -37 -10 -64 -29 -81s-48 -26 -85 -26h-139v210h137c39 0 68 -8 87 -25s29 -43 29 -78z" />
    <glyph glyph-name="C" unicode="C" 
d="M590 179l-129 34c-19 -39 -39 -67 -60 -83s-48 -24 -81 -24c-53 0 -92 22 -116 65s-36 104 -36 185s12 144 37 191c25 46 62 69 111 69c30 0 57 -9 80 -27c23 -17 40 -42 51 -77l125 30c-21 73 -53 123 -97 150c-43 27 -94 40 -154 40c-94 0 -166 -33 -216 -99
c-50 -65 -75 -156 -75 -272s25 -207 75 -273c49 -65 121 -98 215 -98c67 0 124 16 169 48c45 31 78 78 101 141z" />
    <glyph glyph-name="D" unicode="D" horiz-adv-x="667" 
d="M642 360c0 118 -28 208 -84 270c-56 61 -138 92 -247 92h-233v-722h235c107 0 189 31 245 93s84 151 84 267zM503 362c0 -81 -16 -143 -47 -184s-80 -62 -147 -62h-93v490h95c65 0 113 -21 145 -63c31 -41 47 -102 47 -181z" />
    <glyph glyph-name="E" unicode="E" 
d="M573 0v116h-352v203h298v115h-298v172h340v116h-477v-722h489z" />
    <glyph glyph-name="F" unicode="F" horiz-adv-x="556" 
d="M538 606v116h-460v-722h137v319h292v115h-292v172h323z" />
    <glyph glyph-name="G" unicode="G" horiz-adv-x="667" 
d="M606 -10v375h-271v-106h137c0 -19 -4 -39 -10 -59c-8 -21 -18 -38 -31 -52c-27 -28 -63 -42 -108 -42c-50 0 -88 22 -115 67s-40 105 -40 181c0 81 13 145 38 192s62 70 113 70c35 0 64 -8 87 -23c22 -15 42 -42 59 -79l128 34c-23 66 -57 113 -103 142
c-46 28 -96 42 -151 42c-100 0 -177 -34 -230 -101s-79 -161 -79 -284c0 -111 25 -198 76 -261c51 -64 122 -96 213 -96c34 0 66 6 96 17c28 10 58 32 90 67v-104z" />
    <glyph glyph-name="H" unicode="H" horiz-adv-x="722" 
d="M636 0v722h-139v-297h-274v297h-139v-722h139v310h274v-310h139z" />
    <glyph glyph-name="I" unicode="I" horiz-adv-x="333" 
d="M235 0v722h-138v-722h138z" />
    <glyph glyph-name="J" unicode="J" horiz-adv-x="444" 
d="M360 195v527h-137v-534c0 -29 -6 -51 -18 -64c-10 -12 -23 -18 -39 -18c-19 0 -34 5 -46 15c-10 9 -20 21 -30 37l-95 -71c16 -26 38 -49 66 -68c27 -19 62 -28 106 -28c59 0 107 17 142 50c34 33 51 84 51 154z" />
    <glyph glyph-name="K" unicode="K" horiz-adv-x="667" 
d="M650 0l-239 451l205 271h-158l-242 -320v320h-138v-722h138v216l101 127l189 -373z" />
    <glyph glyph-name="L" unicode="L" horiz-adv-x="556" 
d="M529 0v106h-314v616h-137v-722h451z" />
    <glyph glyph-name="M" unicode="M" horiz-adv-x="833" 
d="M752 0v722h-196l-141 -508l-140 508h-194v-722h120v575l162 -575h105l164 575v-575h120z" />
    <glyph glyph-name="N" unicode="N" horiz-adv-x="722" 
d="M641 0v722h-130v-496l-286 496h-144v-722h130v518l298 -518h132z" />
    <glyph glyph-name="O" unicode="O" horiz-adv-x="667" 
d="M637 361c0 117 -26 209 -78 274c-51 65 -126 97 -225 97s-174 -33 -226 -98s-78 -156 -78 -273c0 -118 26 -209 78 -274s127 -97 226 -97s174 33 226 98c51 65 77 156 77 273zM499 361c0 -83 -13 -147 -40 -190c-26 -43 -68 -65 -125 -65c-58 0 -100 22 -127 66
c-26 43 -39 106 -39 189s13 147 40 190c26 43 68 65 126 65c57 0 99 -22 126 -66c26 -43 39 -106 39 -189z" />
    <glyph glyph-name="P" unicode="P" 
d="M588 506c0 71 -22 125 -66 162c-44 36 -107 54 -190 54h-264v-722h138v292h125c83 0 146 18 191 55c44 36 66 89 66 159zM449 504c0 -35 -11 -61 -33 -77c-21 -15 -54 -23 -98 -23h-112v206h112c45 0 79 -8 100 -24s31 -43 31 -82z" />
    <glyph glyph-name="Q" unicode="Q" horiz-adv-x="667" 
d="M637 361c0 117 -26 209 -78 274c-51 65 -126 97 -225 97s-174 -33 -226 -98s-78 -156 -78 -273c0 -118 26 -209 78 -274s127 -97 226 -97s174 33 226 98c51 65 77 156 77 273zM499 361c0 -83 -13 -147 -40 -190c-26 -43 -68 -65 -125 -65c-58 0 -100 22 -127 66
c-26 43 -39 106 -39 189s13 147 40 190c26 43 68 65 126 65c57 0 99 -22 126 -66c26 -43 39 -106 39 -189zM603 -142l-18 51l-9 -5c-7 -4 -14 -8 -22 -13s-16 -9 -23 -13c-7 -5 -12 -7 -14 -8c-10 -3 -19 -2 -27 3c-14 7 -33 24 -56 51s-41 44 -56 52c-25 14 -52 16 -81 6
c-28 -9 -53 -29 -76 -58l27 -49l8 5c5 4 11 8 18 12c7 5 13 9 20 13s11 6 13 7c10 2 19 1 27 -3c14 -7 33 -24 56 -51c21 -26 40 -43 56 -52c25 -14 52 -16 81 -6c29 11 55 30 76 58z" />
    <glyph glyph-name="R" unicode="R" horiz-adv-x="667" 
d="M633 0c-1 1 -5 10 -13 26c-8 15 -19 36 -33 63s-29 54 -43 83c-16 29 -30 57 -44 84c-15 27 -26 49 -35 66c43 13 75 36 98 67s35 69 35 112c0 70 -20 124 -61 163s-98 58 -171 58h-288v-722h137v294h120l166 -334zM459 503c0 -35 -12 -60 -35 -75s-57 -22 -103 -22h-106
v204h122c40 0 71 -9 92 -26c20 -17 30 -44 30 -81z" />
    <glyph glyph-name="S" unicode="S" 
d="M559 206c0 63 -22 112 -67 146s-95 60 -149 79c-40 14 -76 30 -109 48c-32 18 -48 40 -48 66c0 25 10 45 29 58c18 14 43 21 75 21c29 0 54 -7 75 -22c22 -15 40 -39 54 -72l126 39c-23 55 -57 95 -102 122s-96 41 -152 41c-67 0 -123 -18 -168 -55
c-44 -37 -66 -84 -66 -139c0 -57 19 -102 56 -133s94 -60 170 -89c39 -15 74 -32 104 -51c28 -19 42 -43 42 -71c0 -31 -11 -55 -32 -72c-21 -16 -51 -24 -89 -24c-41 0 -74 11 -99 33c-13 11 -24 23 -33 36c-10 13 -19 28 -26 44l-114 -50c25 -58 63 -101 115 -130
c51 -27 102 -41 153 -41c81 0 144 19 189 56c44 36 66 89 66 160z" />
    <glyph glyph-name="T" unicode="T" horiz-adv-x="556" 
d="M535 607v115h-514v-115h188v-607h137v607h189z" />
    <glyph glyph-name="U" unicode="U" horiz-adv-x="722" 
d="M637 271v451h-137v-449c0 -59 -11 -101 -32 -128c-21 -26 -58 -39 -109 -39s-86 13 -107 40s-31 70 -31 129v447h-137v-458c0 -87 24 -155 72 -203c49 -47 117 -71 205 -71c90 0 159 24 206 72c47 49 70 118 70 209z" />
    <glyph glyph-name="V" unicode="V" horiz-adv-x="556" 
d="M547 722h-137l-135 -566l-129 566h-136l191 -722h154z" />
    <glyph glyph-name="W" unicode="W" horiz-adv-x="814" 
d="M811 722h-128l-100 -532l-96 532h-142l-104 -532l-92 532h-129l151 -722h140l105 518l106 -518h140z" />
    <glyph glyph-name="X" unicode="X" horiz-adv-x="556" 
d="M548 0l-195 370l183 352h-150l-108 -223l-108 223h-150l183 -352l-195 -370h150l120 245l120 -245h150z" />
    <glyph glyph-name="Y" unicode="Y" horiz-adv-x="556" 
d="M552 722h-144l-124 -286l-124 286h-144l200 -436v-286h137v289z" />
    <glyph glyph-name="Z" unicode="Z" horiz-adv-x="556" 
d="M530 0v116h-352l348 495v111h-487v-116h314l-337 -488v-118h514z" />
    <glyph glyph-name="bracketleft" unicode="[" horiz-adv-x="333" 
d="M286 -84v60h-126v696h126v60h-234v-816h234z" />
    <glyph glyph-name="backslash" unicode="\" horiz-adv-x="278" 
d="M306 -10l-225 742h-109l225 -742h109z" />
    <glyph glyph-name="bracketright" unicode="]" horiz-adv-x="333" 
d="M281 -84v816h-234v-60h126v-696h-126v-60h234z" />
    <glyph glyph-name="asciicircum" unicode="^" horiz-adv-x="600" 
d="M531 348l-181 374h-100l-180 -374h109l121 263l122 -263h109z" />
    <glyph glyph-name="underscore" unicode="_" horiz-adv-x="1112" 
d="M380 505l-70 38l70 37l-33 44l-57 -54l-14 77l-51 -17l32 -70l-76 10v-55l76 10l-32 -70l51 -17l14 77l57 -54zM841 -201v109h-329c-9 11 -17 22 -24 30c-6 10 -11 18 -14 25c-7 15 -11 26 -11 35c0 18 5 32 15 42c11 10 26 15 45 15h318v109h-329c-15 16 -27 32 -35 49
c-9 17 -14 31 -14 40c0 18 5 32 15 42c11 10 26 15 45 15h318v109h-140l-65 55l205 102v116l-286 -145l-171 135v-125l181 -138h-57h-302v-109h169v-4c0 -36 6 -66 19 -91c12 -25 28 -47 48 -66c-19 -8 -34 -22 -47 -42c-13 -19 -20 -44 -20 -73c0 -27 5 -51 14 -73
c9 -20 23 -40 44 -61h-49v-101h457z" />
    <glyph glyph-name="grave" unicode="`" horiz-adv-x="278" 
d="M220 586l-94 146h-154l147 -146h101z" />
    <glyph glyph-name="a" unicode="a" horiz-adv-x="500" 
d="M450 0c-4 11 -7 22 -8 32c-1 12 -2 23 -2 34v256c0 71 -15 124 -46 158c-30 33 -81 50 -154 50c-19 0 -39 -4 -62 -12c-22 -7 -43 -16 -62 -26c-20 -9 -37 -18 -50 -26l-20 -11l51 -75l23 12c15 9 34 17 55 25s43 13 65 16s40 -1 54 -12c7 -5 12 -11 15 -19
c3 -6 5 -14 7 -22c0 -8 1 -16 0 -24v-25c-61 -4 -112 -14 -154 -31c-40 -16 -72 -35 -96 -58c-22 -23 -38 -47 -45 -73s-8 -51 -1 -74c6 -23 18 -44 36 -63c17 -18 39 -30 66 -38c27 -6 57 -6 91 0c34 8 70 24 108 51l8 -45h121zM316 137c-29 -24 -55 -40 -78 -47
s-41 -9 -56 -6c-15 4 -26 12 -32 24c-8 12 -10 25 -8 39c1 14 7 28 17 41c10 14 25 25 44 32s37 13 56 17l57 12v-112z" />
    <glyph glyph-name="b" unicode="b" horiz-adv-x="556" 
d="M525 272c0 73 -20 135 -59 184s-89 74 -149 74c-23 0 -47 -6 -73 -17c-24 -11 -43 -25 -56 -43v252h-124v-722h97l14 56c29 -27 54 -45 75 -54c21 -8 43 -12 66 -12c65 0 117 27 154 80s55 120 55 202zM400 260c0 -53 -10 -95 -30 -125c-19 -30 -48 -45 -85 -45
c-20 0 -36 3 -49 10s-29 19 -48 36v250c17 15 34 27 51 34c15 7 30 10 43 10c39 0 68 -15 88 -45s30 -72 30 -125z" />
    <glyph glyph-name="c" unicode="c" horiz-adv-x="500" 
d="M458 120l-94 53c-23 -39 -44 -63 -62 -71c-17 -8 -34 -12 -49 -12c-37 0 -64 15 -81 44c-16 29 -24 71 -24 126s8 98 24 127s42 43 79 43c29 0 51 -8 67 -25c7 -8 14 -17 20 -25c5 -10 10 -19 14 -29l103 40c-17 49 -45 85 -84 107c-39 21 -79 32 -121 32
c-69 0 -124 -24 -165 -73c-41 -47 -61 -113 -61 -198c0 -83 20 -148 61 -197c40 -48 96 -72 167 -72c49 0 89 10 120 30c15 9 30 22 44 40c15 16 29 37 42 60z" />
    <glyph glyph-name="d" unicode="d" horiz-adv-x="556" 
d="M493 0v722h-125v-253c-8 13 -25 27 -51 41c-27 13 -53 20 -78 20c-59 0 -109 -25 -148 -74s-59 -110 -59 -183c0 -87 18 -155 55 -206s88 -77 153 -77c27 0 51 5 73 16c23 11 45 27 68 50l6 -56h106zM368 136c-21 -19 -39 -32 -52 -38c-14 -5 -28 -8 -43 -8
c-39 0 -68 15 -88 45c-19 31 -29 72 -29 125s10 95 30 125c19 30 48 45 87 45c19 0 37 -5 54 -15c17 -9 30 -19 41 -29v-250z" />
    <glyph glyph-name="e" unicode="e" horiz-adv-x="500" 
d="M462 56l-35 88l-19 -8c-14 -6 -29 -12 -47 -19s-37 -13 -56 -19c-19 -5 -35 -8 -47 -8c-42 0 -71 16 -88 49c-6 11 -11 25 -14 43c-4 16 -7 36 -9 58h315v59c0 34 -6 65 -18 93c-11 27 -27 52 -46 73c-39 43 -89 65 -149 65c-70 0 -125 -24 -165 -73s-60 -115 -60 -197
s20 -148 59 -197s93 -73 162 -73c23 0 48 4 73 10c25 8 49 15 70 23s39 15 53 23zM348 324h-201c4 33 11 58 22 74c17 27 43 40 79 40c30 0 54 -10 72 -30c18 -21 27 -49 28 -84z" />
    <glyph glyph-name="f" unicode="f" horiz-adv-x="333" 
d="M313 420v100h-105v58c0 18 5 32 15 41c11 9 30 13 58 13h30v100h-81c-53 0 -91 -11 -114 -34c-22 -23 -33 -61 -33 -114v-64h-71v-100h72v-420h124v420h105z" />
    <glyph glyph-name="g" unicode="g" horiz-adv-x="500" 
d="M517 456l-30 74l-123 -47c-37 31 -79 47 -126 47c-58 0 -107 -17 -146 -50s-59 -76 -59 -128c0 -49 19 -90 58 -125c3 -3 6 -5 9 -7c3 -3 7 -5 10 -8c-14 -5 -30 -16 -48 -31c-22 -19 -33 -41 -33 -65c0 -35 23 -61 69 -80l8 -3c1 -1 3 -1 4 -2c-26 -2 -48 -10 -66 -24
c-21 -17 -32 -41 -32 -72c0 -41 20 -72 61 -93s98 -32 172 -32c62 0 118 14 167 42s73 63 73 105c0 56 -19 94 -58 114c-40 19 -94 30 -162 32c-36 1 -65 4 -88 9c-23 4 -34 14 -34 31c0 11 8 19 24 24c14 5 34 7 61 7h1c67 0 118 14 153 43c35 28 53 70 53 127
c0 17 -2 32 -7 43c-4 11 -10 23 -19 36zM322 351c0 -23 -8 -43 -25 -60s-36 -25 -59 -25c-27 0 -48 8 -65 25c-17 16 -26 36 -26 60c0 25 8 46 25 63c17 16 38 24 65 24c24 0 44 -8 61 -25c16 -17 24 -38 24 -62zM371 -50c0 -17 -12 -32 -35 -43c-23 -10 -48 -15 -73 -15
c-51 0 -86 5 -107 15c-20 9 -30 23 -30 44c0 17 8 32 25 44c11 9 31 14 59 16c25 -1 46 -3 64 -6c19 -3 35 -6 48 -10c33 -10 49 -25 49 -45z" />
    <glyph glyph-name="h" unicode="h" horiz-adv-x="556" 
d="M491 0v354c0 55 -13 99 -39 130s-63 46 -112 46c-27 0 -54 -6 -80 -19c-26 -12 -50 -28 -72 -47v258h-124v-722h124v375c19 20 38 34 58 43c20 8 39 12 58 12c24 0 41 -8 50 -24c9 -15 13 -40 13 -75v-331h124z" />
    <glyph glyph-name="i" unicode="i" horiz-adv-x="278" 
d="M199 616v116h-122v-116h122zM201 0v520h-124v-520h124z" />
    <glyph glyph-name="j" unicode="j" horiz-adv-x="278" 
d="M212 616v116h-122v-116h122zM214 -40v560h-124v-545c0 -21 -4 -37 -13 -47c-8 -9 -19 -13 -32 -12l-42 3v-101l27 -6c5 -1 10 -1 17 -2h23c49 0 86 11 109 34s35 62 35 116z" />
    <glyph glyph-name="k" unicode="k" horiz-adv-x="500" 
d="M498 0l-164 326l125 175l-109 35l-162 -222v408h-124v-722h124v160l63 73l135 -253z" />
    <glyph glyph-name="l" unicode="l" horiz-adv-x="278" 
d="M201 0v722h-124v-722h124z" />
    <glyph glyph-name="m" unicode="m" horiz-adv-x="833" 
d="M768 0v379c0 45 -12 81 -35 110c-23 27 -54 41 -93 41c-41 0 -75 -7 -104 -21s-54 -32 -75 -55c-5 11 -11 20 -19 29c-7 9 -17 17 -28 25c-23 15 -51 22 -83 22c-33 0 -61 -5 -84 -16c-23 -10 -46 -27 -69 -50v56h-114v-520h124v374c13 11 24 20 34 27s19 13 28 17
c16 8 29 12 40 12c20 0 36 -6 48 -18c11 -12 16 -29 16 -50v-362h124v374c9 9 18 16 27 23s19 13 29 18c19 10 34 15 45 15c21 0 37 -6 48 -18c11 -11 17 -28 17 -50v-362h124z" />
    <glyph glyph-name="n" unicode="n" horiz-adv-x="556" 
d="M491 0v354c0 55 -13 99 -39 130s-63 46 -112 46c-29 0 -58 -6 -85 -19c-28 -12 -54 -28 -77 -48v57h-114v-520h124v375c19 20 38 34 58 43c20 8 39 12 58 12c24 0 41 -8 50 -24c9 -15 13 -40 13 -75v-331h124z" />
    <glyph glyph-name="o" unicode="o" horiz-adv-x="500" 
d="M477 260c0 81 -21 147 -62 196c-40 49 -95 74 -165 74c-69 0 -124 -25 -165 -74s-61 -114 -61 -196c0 -81 21 -147 62 -196c40 -49 95 -74 164 -74s124 25 166 74c41 50 61 115 61 196zM353 260c0 -55 -8 -97 -25 -126c-16 -29 -42 -44 -78 -44c-35 0 -61 15 -78 44
c-16 29 -24 71 -24 126s8 97 25 126c16 29 42 44 77 44s62 -15 79 -44c16 -29 24 -71 24 -126z" />
    <glyph glyph-name="p" unicode="p" horiz-adv-x="556" 
d="M525 248c0 84 -19 152 -56 205c-36 51 -87 77 -153 77c-22 0 -44 -4 -65 -13c-21 -8 -43 -23 -68 -44v47h-119v-710h124v241c13 -17 32 -32 56 -44c25 -11 49 -17 73 -17c59 0 109 25 149 74c39 49 59 111 59 184zM400 260c0 -53 -10 -95 -30 -125s-49 -45 -87 -45
c-13 0 -28 3 -44 10c-17 6 -34 17 -51 34v250c18 17 34 29 48 36c15 7 31 10 49 10c37 0 66 -15 86 -45c19 -31 29 -72 29 -125z" />
    <glyph glyph-name="q" unicode="q" horiz-adv-x="556" 
d="M493 -190v710h-98l-14 -56c-29 27 -54 45 -75 54c-21 8 -43 12 -65 12c-67 0 -119 -27 -155 -80s-54 -121 -54 -202c0 -73 20 -135 59 -184s89 -74 148 -74c25 0 50 6 75 18c26 13 44 28 55 45v-243h124zM368 135c-17 -17 -33 -28 -50 -35c-15 -7 -29 -10 -42 -10
c-40 0 -70 15 -90 45c-20 29 -30 70 -30 125c0 53 10 95 30 125c19 30 48 45 87 45c18 0 33 -3 46 -10c14 -7 30 -19 49 -36v-249z" />
    <glyph glyph-name="r" unicode="r" horiz-adv-x="333" 
d="M339 409l-21 121c-31 0 -59 -8 -85 -24c-25 -16 -46 -43 -63 -80v94h-114v-520h124v338c0 13 8 24 24 32c17 10 35 17 55 23s38 10 55 13l24 4z" />
    <glyph glyph-name="s" unicode="s" horiz-adv-x="444" 
d="M411 138c0 43 -12 79 -35 108c-22 27 -62 50 -121 68c-15 5 -29 10 -41 15c-13 5 -24 11 -34 16c-20 11 -30 25 -30 42c0 15 6 28 17 38c12 9 30 13 53 13c21 0 40 -7 58 -21c9 -7 17 -13 24 -19c6 -5 11 -10 15 -15l78 68c-23 26 -50 46 -80 59s-64 20 -103 20
c-49 0 -90 -14 -123 -41s-49 -63 -49 -109c0 -49 15 -84 45 -107c30 -22 64 -40 102 -54c41 -15 71 -28 88 -38c17 -9 25 -22 25 -41c0 -18 -7 -32 -22 -43c-14 -10 -32 -15 -54 -15c-24 0 -47 8 -69 24c-23 17 -39 34 -50 51l-83 -62c27 -39 58 -66 93 -82
c35 -15 70 -23 107 -23c56 0 102 14 137 41s52 62 52 107z" />
    <glyph glyph-name="t" unicode="t" horiz-adv-x="333" 
d="M310 -2v102l-23 -6c-11 -3 -22 -4 -35 -4c-15 0 -27 3 -34 8s-10 14 -10 28v297h102v97h-102v172l-124 -20v-152h-72v-97h72v-315c0 -39 11 -68 32 -88s52 -30 94 -30h32c10 1 19 1 26 2c14 1 28 3 42 6z" />
    <glyph glyph-name="u" unicode="u" horiz-adv-x="556" 
d="M491 0v520h-124v-376c-13 -15 -29 -27 -50 -38c-19 -11 -40 -16 -63 -16c-25 0 -42 7 -52 22c-9 15 -14 38 -14 69v339h-124v-358c0 -54 13 -96 40 -127c26 -30 63 -45 112 -45c32 0 63 8 92 23c15 7 28 15 39 22s22 14 31 21v-56h113z" />
    <glyph glyph-name="v" unicode="v" horiz-adv-x="444" 
d="M434 520h-124l-89 -356l-87 356h-124l145 -520h130z" />
    <glyph glyph-name="w" unicode="w" horiz-adv-x="667" 
d="M656 520h-117l-75 -328l-73 328h-115l-76 -329l-72 329h-118l134 -520h112l77 329l78 -329h112z" />
    <glyph glyph-name="x" unicode="x" horiz-adv-x="444" 
d="M440 0l-158 270l146 250h-134l-74 -144l-73 144h-137l147 -250l-153 -270h133l84 162l87 -162h132z" />
    <glyph glyph-name="y" unicode="y" horiz-adv-x="444" 
d="M436 520h-125l-90 -324l-87 324h-125l154 -492l1 -21c-6 -23 -15 -45 -27 -65c-6 -10 -15 -18 -27 -24c-13 -5 -28 -7 -47 -6l-53 4l20 -91l41 -5c47 -6 86 4 117 31c15 13 30 31 43 54s25 50 36 83z" />
    <glyph glyph-name="z" unicode="z" horiz-adv-x="444" 
d="M427 0v100h-253l250 331v89h-386l-1 -100h232l-251 -332v-88h409z" />
    <glyph glyph-name="braceleft" unicode="{" horiz-adv-x="333" 
d="M278 -84v60h-51c-11 0 -20 4 -29 13c-8 8 -12 21 -12 39v186c0 34 -7 60 -21 78c-13 17 -32 28 -57 32c25 4 44 15 58 33c13 17 20 43 20 77v186c0 18 4 31 13 40c8 8 17 12 28 12h51v60h-66c-50 0 -85 -12 -105 -35c-19 -23 -29 -51 -29 -82v-199c0 -17 -6 -32 -19 -44
s-31 -18 -52 -18v-60c21 0 39 -6 52 -18s19 -27 19 -44v-199c0 -32 10 -59 30 -82c19 -23 54 -35 104 -35h66z" />
    <glyph glyph-name="bar" unicode="|" horiz-adv-x="222" 
d="M165 -10v742h-108v-742h108z" />
    <glyph glyph-name="braceright" unicode="}" horiz-adv-x="333" 
d="M324 294v60c-21 0 -37 6 -50 18s-19 27 -19 44v199c0 31 -10 59 -29 82s-54 35 -103 35h-66v-60h50c11 0 20 -4 28 -13c8 -8 12 -21 12 -39v-186c0 -33 7 -59 20 -78c13 -17 32 -28 56 -32c-25 -4 -43 -15 -56 -33c-13 -17 -20 -43 -20 -77v-186c0 -18 -4 -31 -12 -40
c-8 -8 -17 -12 -28 -12h-50v-60h66c49 0 84 12 103 35s29 51 29 82v199c0 17 6 32 19 44s29 18 50 18z" />
    <glyph glyph-name="asciitilde" unicode="~" horiz-adv-x="600" 
d="M530 260l-35 90c-17 -28 -32 -47 -45 -57c-12 -10 -26 -15 -42 -15c-27 0 -61 11 -102 34s-77 34 -110 34c-31 0 -57 -9 -78 -26s-37 -37 -49 -60l36 -90c15 27 29 46 43 57c13 10 27 15 43 15c27 0 61 -11 102 -34s78 -34 111 -34c30 0 56 9 77 26s37 37 49 60z" />
    <glyph glyph-name="quotesinglbase" unicode="&#x201a;" horiz-adv-x="278" 
d="M208 0v142h-138v-142h60l-51 -150h65z" />
    <glyph glyph-name="florin" unicode="&#x192;" 
d="M552 723c-7 2 -18 4 -32 6c-15 2 -31 3 -47 3c-53 0 -93 -18 -119 -54c-13 -18 -24 -42 -34 -71c-9 -29 -18 -64 -27 -104l-9 -43h-119v-94h97l-72 -364c-9 -27 -20 -48 -32 -64c-9 -11 -21 -19 -38 -22l-43 8l-20 -106l65 -8c55 0 99 17 130 50c15 17 30 40 43 72
c13 30 25 70 34 117l61 317h120v94h-103l8 55c3 21 7 39 13 54c4 15 10 26 16 35c12 16 27 24 46 24c9 0 18 -1 25 -4c9 -2 17 -4 22 -7z" />
    <glyph glyph-name="quotedblbase" unicode="&#x201e;" horiz-adv-x="444" 
d="M402 0v142h-138v-142h60l-51 -150h65zM179 0v142h-138v-142h60l-51 -150h65z" />
    <glyph glyph-name="ellipsis" unicode="&#x2026;" horiz-adv-x="1000" 
d="M902 0v142h-138v-142h138zM569 0v142h-138v-142h138zM236 0v142h-138v-142h138z" />
    <glyph glyph-name="dagger" unicode="&#x2020;" horiz-adv-x="500" 
d="M432 464v106l-158 -30l26 192h-100l26 -192l-158 30v-106l158 30l-26 -163l32 -405h36l32 405l-26 163z" />
    <glyph glyph-name="daggerdbl" unicode="&#x2021;" horiz-adv-x="500" 
d="M432 80v106l-158 -30l26 165l-26 181l158 -30v106l-158 -30l26 184h-100l26 -184l-158 30v-106l158 30l-26 -181l26 -165l-158 30v-106l158 30l-26 -184h100l-26 184z" />
    <glyph glyph-name="circumflex" unicode="&#x2c6;" horiz-adv-x="278" 
d="M315 586l-114 146h-124l-114 -146h113l63 82l63 -82h113z" />
    <glyph glyph-name="perthousand" unicode="&#x2030;" horiz-adv-x="1000" 
d="M986 147c0 41 -15 77 -44 106s-63 43 -104 43s-76 -15 -105 -44c-29 -28 -44 -62 -44 -102s15 -75 44 -106c28 -29 63 -44 104 -44c39 0 74 15 105 44c29 29 44 64 44 103zM904 149c0 -18 -7 -34 -20 -47s-29 -20 -46 -20c-19 0 -35 6 -48 19s-19 28 -19 46
c0 19 7 35 20 48s28 19 47 19s34 -6 47 -19s19 -28 19 -46zM310 572c0 41 -15 77 -44 106c-28 29 -63 44 -104 44c-40 0 -75 -15 -104 -44c-29 -28 -44 -62 -44 -103s15 -77 44 -106c28 -29 63 -44 104 -44c40 0 75 15 104 44s44 64 44 103zM228 574c0 -18 -7 -34 -20 -47
c-12 -13 -27 -20 -45 -20c-19 0 -35 6 -48 19s-19 28 -19 46c0 19 7 35 20 48c12 13 27 20 46 20c18 0 34 -7 47 -20s19 -28 19 -46zM564 732h-84l-409 -742h84zM619 147c0 41 -15 77 -44 106s-63 43 -104 43s-76 -15 -105 -44c-29 -28 -44 -62 -44 -102s15 -75 44 -106
c28 -29 63 -44 104 -44c39 0 74 15 105 44c29 29 44 64 44 103zM537 149c0 -18 -7 -34 -20 -47s-29 -20 -46 -20c-19 0 -35 6 -48 19s-19 28 -19 46c0 19 7 35 20 48s28 19 47 19s34 -6 47 -19s19 -28 19 -46z" />
    <glyph glyph-name="Scaron" unicode="&#x160;" 
d="M474 907h-113l-63 -82l-63 82h-113l114 -146h124zM559 206c0 63 -22 112 -67 146s-95 60 -149 79c-40 14 -76 30 -109 48c-32 18 -48 40 -48 66c0 25 10 45 29 58c18 14 43 21 75 21c29 0 54 -7 75 -22c22 -15 40 -39 54 -72l126 39c-23 55 -57 95 -102 122
s-96 41 -152 41c-67 0 -123 -18 -168 -55c-44 -37 -66 -84 -66 -139c0 -57 19 -102 56 -133s94 -60 170 -89c39 -15 74 -32 104 -51c28 -19 42 -43 42 -71c0 -31 -11 -55 -32 -72c-21 -16 -51 -24 -89 -24c-41 0 -74 11 -99 33c-13 11 -24 23 -33 36c-10 13 -19 28 -26 44
l-114 -50c25 -58 63 -101 115 -130c51 -27 102 -41 153 -41c81 0 144 19 189 56c44 36 66 89 66 160z" />
    <glyph glyph-name="guilsinglleft" unicode="&#x2039;" horiz-adv-x="333" 
d="M273 100l-123 160l123 160h-112l-120 -160l120 -160h112z" />
    <glyph glyph-name="OE" unicode="&#x152;" horiz-adv-x="944" 
d="M917 0v116h-321v203l217 1v114h-217v172h309v116h-426l-145 10c-55 4 -103 -3 -144 -20c-40 -17 -73 -42 -100 -73c-52 -62 -78 -155 -78 -278c0 -127 27 -220 81 -281c27 -30 62 -53 105 -70s93 -23 152 -20l159 10h408zM459 251c0 -57 -11 -96 -34 -116
c-23 -19 -61 -29 -114 -29c-57 0 -99 22 -124 65c-24 43 -36 107 -36 192s12 149 37 190c25 42 66 63 125 63c56 0 94 -10 115 -31c21 -20 31 -61 31 -124v-210z" />
    <glyph glyph-name="quoteleft" unicode="&#x2018;" horiz-adv-x="278" 
d="M208 440v142h-60l51 150h-65l-64 -150v-142h138z" />
    <glyph glyph-name="quoteright" unicode="&#x2019;" horiz-adv-x="278" 
d="M208 580v142h-138v-142h60l-51 -150h65z" />
    <glyph glyph-name="quotedblleft" unicode="&#x201c;" horiz-adv-x="444" 
d="M403 440v142h-60l51 150h-65l-64 -150v-142h138zM180 440v142h-60l51 150h-65l-64 -150v-142h138z" />
    <glyph glyph-name="quotedblright" unicode="&#x201d;" horiz-adv-x="444" 
d="M402 580v142h-138v-142h60l-51 -150h65zM179 580v142h-138v-142h60l-51 -150h65z" />
    <glyph glyph-name="bullet" unicode="&#x2022;" horiz-adv-x="500" 
d="M430 360c0 50 -18 93 -53 128c-36 35 -79 52 -128 52c-50 0 -93 -18 -128 -53s-52 -77 -52 -127s18 -93 53 -128c36 -35 79 -52 128 -52c50 0 93 18 128 53s52 77 52 127z" />
    <glyph glyph-name="endash" unicode="&#x2013;" horiz-adv-x="500" 
d="M500 218v84h-500v-84h500z" />
    <glyph glyph-name="emdash" unicode="&#x2014;" horiz-adv-x="1000" 
d="M1000 218v84h-1000v-84h1000z" />
    <glyph glyph-name="tilde" unicode="&#x2dc;" horiz-adv-x="278" 
d="M322 722h-63c-5 -13 -11 -24 -19 -32c-7 -7 -15 -10 -24 -10c-17 0 -41 6 -74 18c-32 12 -57 18 -74 18c-29 0 -53 -11 -74 -34s-33 -53 -38 -88h63c5 15 12 25 19 32s15 10 24 10c16 0 41 -6 74 -18c32 -12 57 -18 74 -18c29 0 53 11 74 34s33 53 38 88z" />
    <glyph glyph-name="trademark" unicode="&#x2122;" horiz-adv-x="1000" 
d="M930 310v412h-149l-93 -261l-94 261h-149v-412h100v293l104 -293h77l104 293v-293h100zM362 638v84h-340v-84h120v-328h100v328h120z" />
    <glyph glyph-name="scaron" unicode="&#x161;" horiz-adv-x="444" 
d="M400 732h-113l-63 -82l-63 82h-113l114 -146h124zM411 138c0 43 -12 79 -35 108c-22 27 -62 50 -121 68c-15 5 -29 10 -41 15c-13 5 -24 11 -34 16c-20 11 -30 25 -30 42c0 15 6 28 17 38c12 9 30 13 53 13c21 0 40 -7 58 -21c9 -7 17 -13 24 -19c6 -5 11 -10 15 -15
l78 68c-23 26 -50 46 -80 59s-64 20 -103 20c-49 0 -90 -14 -123 -41s-49 -63 -49 -109c0 -49 15 -84 45 -107c30 -22 64 -40 102 -54c41 -15 71 -28 88 -38c17 -9 25 -22 25 -41c0 -18 -7 -32 -22 -43c-14 -10 -32 -15 -54 -15c-24 0 -47 8 -69 24c-23 17 -39 34 -50 51
l-83 -62c27 -39 58 -66 93 -82c35 -15 70 -23 107 -23c56 0 102 14 137 41s52 62 52 107z" />
    <glyph glyph-name="guilsinglright" unicode="&#x203a;" horiz-adv-x="333" 
d="M291 260l-118 160h-112l121 -160l-121 -160h112z" />
    <glyph glyph-name="oe" unicode="&#x153;" horiz-adv-x="778" 
d="M768 56l-35 88l-19 -8c-14 -6 -29 -12 -47 -19s-37 -13 -56 -19c-19 -5 -35 -8 -47 -8c-42 0 -71 16 -88 49c-6 11 -11 25 -14 43c-4 16 -7 36 -9 58h315v59c0 34 -6 65 -18 93c-11 27 -27 52 -46 73c-39 43 -89 65 -149 65c-69 0 -122 -23 -161 -69l-1 2
c-15 19 -35 34 -61 47c-28 13 -61 20 -100 20c-68 0 -122 -25 -161 -74s-59 -115 -59 -196s20 -147 59 -196s93 -74 160 -74c41 0 75 6 101 19c25 11 46 28 62 49c39 -45 92 -68 157 -68c23 0 48 4 73 10c25 8 49 15 70 23s39 15 53 23zM654 324h-201c4 33 11 58 22 74
c17 27 43 40 79 40c30 0 54 -10 72 -30c18 -21 27 -49 28 -84zM331 292c-1 -5 -1 -11 -1 -16v-16v-16c0 -5 0 -11 1 -16c-2 -38 -9 -69 -22 -94c-15 -29 -40 -44 -75 -44s-60 15 -75 44s-23 71 -23 126s8 97 23 126s40 44 75 44s60 -15 75 -44c13 -25 20 -56 22 -94z" />
    <glyph glyph-name="Ydieresis" unicode="&#x178;" horiz-adv-x="556" 
d="M436 771v116h-120v-116h120zM246 771v116h-120v-116h120zM546 722h-144l-124 -286l-124 286h-144l200 -436v-286h137v289z" />
    <glyph glyph-name="exclamdown" unicode="&#xa1;" horiz-adv-x="333" 
d="M236 399v142h-139v-142h139zM241 -181l-26 478h-96l-26 -478h148z" />
    <glyph glyph-name="cent" unicode="&#xa2;" 
d="M516 120l-94 53c-23 -39 -44 -63 -62 -71c-17 -8 -34 -12 -49 -12s-26 2 -34 5l108 298c11 -12 19 -26 25 -42l103 40c-17 50 -45 85 -84 106c-1 1 -2 2 -5 3l46 128h-58l-39 -107c-21 6 -43 9 -65 9c-69 0 -124 -24 -165 -73c-41 -47 -61 -113 -61 -198
c0 -83 20 -149 60 -197c6 -7 13 -14 22 -22c8 -6 17 -14 28 -21l-52 -144h58l45 123c17 -5 40 -8 67 -8c49 0 89 10 120 30c15 9 30 22 44 40c15 16 29 37 42 60zM339 426l-107 -295l-1 1c0 1 0 1 -1 2c-16 29 -24 71 -24 126s8 98 24 127s42 43 79 43c14 0 24 -1 30 -4z
" />
    <glyph glyph-name="sterling" unicode="&#xa3;" 
d="M565 218h-121c-2 -41 -9 -71 -21 -88c-12 -16 -32 -24 -59 -24c-17 0 -35 4 -55 11c-9 3 -19 7 -29 13c-11 4 -22 11 -33 18c11 26 19 55 23 86c1 17 2 32 4 44c0 14 1 25 1 36h116v94h-130c-3 11 -6 21 -8 30s-4 18 -5 26s-2 16 -3 26c-1 8 -1 18 -1 29c1 37 8 64 23 81
c14 16 35 24 63 24s50 -8 66 -24c15 -15 26 -42 31 -81h120c0 64 -19 116 -57 155c-37 39 -89 58 -157 58c-74 0 -129 -18 -165 -54c-36 -35 -54 -84 -54 -146c0 -18 1 -37 3 -57c1 -9 3 -20 4 -31s3 -23 6 -36h-81v-94h95l4 -55c1 -19 0 -37 -4 -54s-10 -32 -17 -45
c-14 -27 -38 -42 -72 -46v-124c31 0 57 5 79 16c23 11 43 26 61 46c27 -19 57 -34 88 -45c32 -11 70 -17 113 -17c55 0 96 20 125 61s45 96 47 167z" />
    <glyph glyph-name="currency" unicode="&#xa4;" 
d="M590 179l-129 34c-19 -39 -39 -67 -60 -83s-48 -24 -81 -24c-53 0 -92 22 -116 65s-36 104 -36 185s12 144 37 191c25 46 62 69 111 69c30 0 57 -9 80 -27c23 -17 40 -42 51 -77l125 30c-21 73 -53 123 -97 150c-43 27 -94 40 -154 40c-94 0 -166 -33 -216 -99
c-50 -65 -75 -156 -75 -272s25 -207 75 -273c49 -65 121 -98 215 -98c67 0 124 16 169 48c45 31 78 78 101 141z" />
    <glyph glyph-name="yen" unicode="&#xa5;" 
d="M583 722h-124l-154 -310l-153 310h-124l134 -264h-94v-94h142l34 -68h-176v-94h180v-202h114v202h180v94h-175l34 68h141v94h-93z" />
    <glyph glyph-name="brokenbar" unicode="&#xa6;" horiz-adv-x="222" 
d="M165 450v282h-108v-282h108zM165 -10v282h-108v-282h108z" />
    <glyph glyph-name="section" unicode="&#xa7;" horiz-adv-x="500" 
d="M450 273c0 20 -6 41 -18 62c-5 11 -14 24 -26 39c-12 16 -28 33 -48 52l-100 93c-15 13 -26 25 -33 36s-12 19 -14 24c-4 11 -6 20 -6 27c0 18 5 30 16 37c12 7 24 10 37 10c17 0 34 -6 50 -18c15 -11 27 -23 35 -36l66 52c-21 25 -43 45 -66 60c-23 14 -56 21 -98 21
c-38 0 -70 -10 -95 -31c-26 -20 -39 -48 -39 -83c0 -21 4 -41 11 -61c6 -18 20 -37 43 -57c-31 -3 -58 -16 -81 -37c-22 -21 -33 -49 -33 -84c0 -21 6 -41 18 -62c5 -11 14 -24 26 -39c12 -16 28 -33 48 -52l100 -93c15 -13 26 -25 33 -36s12 -19 14 -24c4 -11 6 -20 6 -27
c0 -18 -5 -30 -16 -37c-12 -7 -24 -10 -37 -10c-17 0 -34 6 -50 18c-15 11 -27 23 -35 36l-66 -52c21 -25 43 -45 66 -60c23 -14 55 -21 98 -21c38 0 70 10 95 31c26 20 39 48 39 83c0 21 -4 41 -11 61c-7 18 -21 37 -43 57c31 3 58 16 81 37c22 21 33 49 33 84zM356 260
c0 -14 -3 -24 -10 -31c-5 -5 -15 -8 -30 -8h-9c-21 6 -39 18 -55 36c-8 9 -16 17 -25 25c-9 9 -17 18 -26 27c-11 12 -21 22 -29 31c-7 9 -13 16 -16 21c-7 11 -11 21 -11 31c0 14 3 24 10 31c5 5 15 8 30 8h9c21 -6 39 -18 55 -36c7 -9 15 -17 24 -25l27 -27
c11 -12 21 -22 28 -31c8 -9 14 -16 17 -21c7 -11 11 -21 11 -31z" />
    <glyph glyph-name="dieresis" unicode="&#xa8;" horiz-adv-x="278" 
d="M295 596v116h-120v-116h120zM105 596v116h-120v-116h120z" />
    <glyph glyph-name="copyright" unicode="&#xa9;" horiz-adv-x="800" 
d="M782 362c0 105 -37 195 -112 270s-165 112 -270 112s-195 -37 -270 -112s-112 -165 -112 -270s37 -195 112 -270s165 -112 270 -112s195 37 270 112s112 165 112 270zM698 362c0 -82 -29 -152 -88 -211c-58 -58 -128 -87 -210 -87s-152 29 -211 88
c-58 58 -87 128 -87 210s29 152 88 211c58 58 128 87 210 87s152 -29 211 -88c58 -58 87 -128 87 -210zM594 306h-90c-3 -24 -12 -41 -27 -52s-36 -17 -62 -17c-32 0 -57 13 -76 39c-18 26 -27 57 -27 92c0 36 9 66 26 89s43 35 76 35c24 0 45 -6 62 -18
c16 -12 25 -27 28 -46h86c-7 47 -27 85 -59 112c-33 27 -70 40 -113 40c-65 0 -117 -20 -155 -60s-57 -91 -57 -154c0 -67 20 -119 60 -158c39 -39 91 -59 154 -59c41 0 78 14 111 41s54 65 63 116z" />
    <glyph glyph-name="ordfeminine" unicode="&#xaa;" horiz-adv-x="300" 
d="M287 414c-1 0 -2 4 -4 12s-3 17 -3 28v153c0 44 -10 76 -30 96c-21 19 -54 29 -100 29c-29 0 -54 -5 -76 -16c-23 -11 -40 -25 -50 -41l52 -37c9 12 19 21 30 28c13 7 27 11 44 11c15 0 26 -3 35 -10s14 -17 14 -30v-24l-62 -9c-19 -3 -37 -8 -53 -15
c-15 -7 -29 -15 -42 -24c-24 -18 -36 -43 -36 -74c0 -23 8 -43 25 -59c16 -16 38 -24 65 -24c19 0 38 3 56 8c9 3 17 6 26 10c8 5 16 10 25 15l5 -27h79zM199 496c-13 -10 -26 -18 -39 -24s-25 -9 -35 -9c-12 0 -22 4 -29 11s-10 15 -10 25c0 12 4 22 12 29c8 8 17 14 28 18
c17 7 32 11 45 13c5 1 10 1 15 2s9 1 13 2v-67z" />
    <glyph glyph-name="guillemotleft" unicode="&#xab;" horiz-adv-x="556" 
d="M485 100l-123 160l123 160h-112l-120 -160l120 -160h112zM282 100l-123 160l123 160h-112l-120 -160l120 -160h112z" />
    <glyph glyph-name="logicalnot" unicode="&#xac;" horiz-adv-x="600" 
d="M559 95v328h-519v-106h413v-222h106z" />
    <glyph glyph-name="registered" unicode="&#xae;" horiz-adv-x="800" 
d="M782 362c0 105 -37 195 -112 270s-165 112 -270 112s-195 -37 -270 -112s-112 -165 -112 -270s37 -195 112 -270s165 -112 270 -112s195 37 270 112s112 165 112 270zM698 362c0 -82 -29 -152 -88 -211c-58 -58 -128 -87 -210 -87s-152 29 -211 88
c-58 58 -87 128 -87 210s29 152 88 211c58 58 128 87 210 87s152 -29 211 -88c58 -58 87 -128 87 -210zM568 442c0 39 -12 70 -35 91s-68 32 -134 32h-150v-406h88v170h41l95 -170h89l-106 175c34 1 61 10 82 29c20 17 30 43 30 79zM480 451c0 -16 -5 -29 -16 -39
c-10 -10 -28 -15 -55 -15h-72v100h76c22 0 39 -3 50 -10s17 -19 17 -36z" />
    <glyph glyph-name="macron" unicode="&#xaf;" horiz-adv-x="278" 
d="M313 618v74h-347v-74h347z" />
    <glyph glyph-name="degree" unicode="&#xb0;" horiz-adv-x="400" 
d="M343 589c0 39 -14 73 -42 101s-62 42 -101 42s-73 -14 -101 -42s-42 -62 -42 -101s14 -73 42 -101s62 -42 101 -42s73 14 101 42s42 62 42 101zM280 589c0 -22 -8 -41 -24 -57c-15 -15 -34 -23 -56 -23s-41 8 -57 24c-15 15 -23 34 -23 56s8 41 24 57c15 15 34 23 56 23
s41 -8 57 -24c15 -15 23 -34 23 -56z" />
    <glyph glyph-name="plusminus" unicode="&#xb1;" horiz-adv-x="600" 
d="M559 280v108h-206v132h-108v-132h-205v-108h205v-132h108v132h206zM559 0v108h-519v-108h519z" />
    <glyph glyph-name="twosuperior" unicode="&#xb2;" horiz-adv-x="366" 
d="M344 292v67h-232c19 17 41 33 64 49c11 8 22 16 32 22c9 8 18 14 26 20c17 12 33 24 46 36c14 12 26 24 35 36c19 25 29 52 29 83c0 37 -15 68 -45 92c-30 23 -69 34 -116 34c-43 0 -80 -11 -111 -33c-31 -21 -50 -49 -57 -85l78 -16c4 19 14 35 30 49c15 13 36 20 61 20
c22 0 39 -5 52 -16c13 -10 19 -24 19 -43s-11 -38 -33 -59c-11 -11 -21 -20 -32 -30c-11 -8 -21 -17 -32 -24c-18 -13 -35 -25 -50 -36c-16 -12 -31 -24 -45 -35c-29 -21 -45 -41 -50 -60v-71h331z" />
    <glyph glyph-name="threesuperior" unicode="&#xb3;" horiz-adv-x="366" 
d="M352 415c0 29 -9 54 -26 73c-15 18 -37 31 -65 38c24 9 42 22 55 38c13 17 19 35 19 56c0 34 -15 61 -45 81c-29 20 -68 30 -117 30c-33 0 -63 -6 -88 -19c-13 -7 -24 -14 -35 -20c-10 -8 -19 -15 -26 -22l58 -47c9 9 22 19 38 29c15 9 34 14 57 14c21 0 38 -5 51 -15
s19 -22 19 -37c0 -21 -10 -36 -31 -46c-21 -9 -53 -14 -96 -14h-5v-65h9c49 0 84 -6 106 -18s33 -30 33 -53c0 -19 -8 -35 -24 -48c-15 -13 -34 -19 -59 -19c-30 0 -53 6 -70 19c-18 14 -30 26 -35 35l-71 -35c11 -19 33 -38 64 -57c31 -18 67 -27 109 -27
c51 0 94 12 127 36c32 23 48 54 48 93z" />
    <glyph glyph-name="acute" unicode="&#xb4;" horiz-adv-x="278" 
d="M306 732h-154l-94 -146h101z" />
    <glyph glyph-name="mu" unicode="&#xb5;" horiz-adv-x="556" 
d="M491 0v520h-124v-376c-13 -15 -29 -27 -50 -38c-19 -11 -40 -16 -63 -16c-25 0 -42 7 -52 22c-9 15 -14 38 -14 69v339h-124v-710h124v182l28 -2c17 -1 32 0 48 5c14 5 29 11 44 18s28 15 39 22s22 14 31 21v-56h113z" />
    <glyph glyph-name="paragraph" unicode="&#xb6;" horiz-adv-x="620" 
d="M586 638v84h-351c-69 0 -122 -15 -158 -45s-54 -76 -54 -137c0 -51 18 -93 53 -124c34 -30 82 -46 144 -47v-437h102v706h89v-706h102v706h73z" />
    <glyph glyph-name="periodcentered" unicode="&#xb7;" horiz-adv-x="305" 
d="M221 188v142h-138v-142h138z" />
    <glyph glyph-name="cedilla" unicode="&#xb8;" horiz-adv-x="278" 
d="M257 -134c0 23 -8 42 -24 56c-17 13 -38 20 -64 20l-36 -5l43 63h-53l-59 -90l20 -20l44 6c13 0 24 -3 31 -8c7 -4 10 -12 10 -24c0 -15 -4 -26 -12 -32s-21 -9 -39 -9s-36 3 -54 8l-25 8l-18 -42c5 -3 12 -5 20 -8l27 -9c19 -6 39 -9 62 -9c37 0 67 9 91 27
c24 17 36 39 36 68z" />
    <glyph glyph-name="onesuperior" unicode="&#xb9;" horiz-adv-x="366" 
d="M309 292v60h-77v379h-68c-12 -10 -28 -17 -47 -22c-21 -5 -40 -7 -59 -8v-50h87v-299h-76v-60h240z" />
    <glyph glyph-name="ordmasculine" unicode="&#xba;" horiz-adv-x="300" 
d="M296 570c0 49 -13 89 -40 118s-63 44 -107 44c-45 0 -80 -15 -107 -45c-27 -29 -40 -68 -40 -117s13 -89 40 -118s63 -44 107 -44s80 15 107 45c27 29 40 68 40 117zM215 570c0 -33 -5 -59 -16 -76c-10 -17 -27 -26 -50 -26s-40 9 -51 27c-11 17 -16 42 -16 75
s5 59 16 76s28 26 51 26s40 -9 51 -27c10 -17 15 -42 15 -75z" />
    <glyph glyph-name="guillemotright" unicode="&#xbb;" horiz-adv-x="556" 
d="M503 260l-118 160h-112l121 -160l-121 -160h112zM300 260l-118 160h-112l121 -160l-121 -160h112z" />
    <glyph glyph-name="onequarter" unicode="&#xbc;" horiz-adv-x="916" 
d="M891 100v60h-69v273h-96l-210 -257v-76h221l1 -40v-60h84v100h69zM737 160h-153l153 194v-194zM712 733h-89l-413 -743h88zM319 292v60h-77v379h-68c-12 -10 -28 -17 -47 -22c-21 -5 -40 -7 -59 -8v-50h87v-299h-76v-60h240z" />
    <glyph glyph-name="onehalf" unicode="&#xbd;" horiz-adv-x="916" 
d="M851 0v67h-232c19 17 41 33 64 49c11 8 22 16 31 22c10 8 19 14 27 20c17 12 33 24 47 36c13 12 25 24 34 36c19 25 29 52 29 83c0 37 -15 68 -45 92c-30 23 -69 34 -116 34c-43 0 -80 -11 -111 -33c-31 -21 -50 -49 -57 -85l78 -16c4 19 14 35 30 49c15 13 36 20 61 20
c22 0 39 -5 52 -16c13 -10 19 -24 19 -43s-11 -38 -33 -59c-11 -11 -21 -20 -32 -30c-11 -8 -21 -17 -32 -24c-18 -13 -35 -25 -51 -36c-15 -12 -30 -24 -44 -35c-29 -21 -45 -41 -50 -60v-71h331zM697 733h-89l-413 -743h88zM319 292v60h-77v379h-68
c-12 -10 -28 -17 -47 -22c-21 -5 -40 -7 -59 -8v-50h87v-299h-76v-60h240z" />
    <glyph glyph-name="threequarters" unicode="&#xbe;" horiz-adv-x="916" 
d="M894 100v60h-69v273h-96l-210 -257v-76h221l1 -40v-60h84v100h69zM740 160h-153l153 194v-194zM728 733h-89l-413 -743h88zM363 415c0 29 -9 54 -26 73c-15 18 -37 31 -65 38c24 9 42 22 55 38c13 17 19 35 19 56c0 34 -15 61 -45 81c-29 20 -68 30 -117 30
c-33 0 -63 -6 -88 -19c-13 -7 -24 -14 -34 -20c-11 -8 -20 -15 -27 -22l58 -47c9 9 22 19 38 29c15 9 34 14 57 14c21 0 38 -5 51 -15s19 -22 19 -37c0 -21 -10 -36 -31 -46c-21 -9 -53 -14 -96 -14h-5v-65h9c49 0 84 -6 106 -18s33 -30 33 -53c0 -19 -8 -35 -24 -48
c-15 -13 -34 -19 -59 -19c-30 0 -53 6 -70 19c-18 14 -30 26 -35 35l-71 -35c11 -19 33 -38 64 -57c31 -18 67 -27 109 -27c51 0 94 12 127 36c32 23 48 54 48 93z" />
    <glyph glyph-name="questiondown" unicode="&#xbf;" horiz-adv-x="444" 
d="M314 400v142h-139v-142h139zM433 -34l-115 32c-3 -24 -12 -45 -28 -63c-15 -17 -32 -25 -52 -25c-17 0 -32 6 -45 17c-13 10 -19 23 -19 38c0 13 3 27 10 41c3 7 8 16 13 26c5 11 13 23 22 36s17 26 27 38c8 14 18 28 27 43c19 30 28 61 28 94v56h-110v-37
c0 -22 -5 -42 -14 -61c-5 -9 -11 -19 -21 -32c-8 -13 -20 -28 -35 -45c-23 -26 -41 -52 -54 -77c-13 -28 -20 -53 -20 -75c0 -43 15 -81 46 -114c31 -32 76 -48 136 -48c54 0 99 14 134 42c36 29 59 67 70 114z" />
    <glyph glyph-name="Agrave" unicode="&#xc0;" 
d="M388 761l-94 146h-154l147 -146h101zM598 0l-205 723h-172l-208 -723h137l43 156h228l40 -156h137zM391 270h-168l86 318z" />
    <glyph glyph-name="Aacute" unicode="&#xc1;" 
d="M472 907h-154l-94 -146h101zM598 0l-205 723h-172l-208 -723h137l43 156h228l40 -156h137zM391 270h-168l86 318z" />
    <glyph glyph-name="Acircumflex" unicode="&#xc2;" 
d="M483 761l-114 146h-124l-114 -146h113l63 82l63 -82h113zM598 0l-205 723h-172l-208 -723h137l43 156h228l40 -156h137zM391 270h-168l86 318z" />
    <glyph glyph-name="Atilde" unicode="&#xc3;" 
d="M488 897h-63c-5 -13 -11 -24 -19 -32c-7 -7 -15 -10 -24 -10c-17 0 -41 6 -74 18c-32 12 -57 18 -74 18c-29 0 -53 -11 -74 -34s-33 -53 -38 -88h63c5 13 11 24 19 32c7 7 15 10 24 10c16 0 41 -6 74 -18c32 -12 57 -18 74 -18c29 0 53 11 74 34s33 53 38 88zM598 0
l-205 723h-172l-208 -723h137l43 156h228l40 -156h137zM391 270h-168l86 318z" />
    <glyph glyph-name="Adieresis" unicode="&#xc4;" 
d="M463 771v116h-120v-116h120zM273 771v116h-120v-116h120zM598 0l-205 723h-172l-208 -723h137l43 156h228l40 -156h137zM391 270h-168l86 318z" />
    <glyph glyph-name="Aring" unicode="&#xc5;" 
d="M415 868c0 30 -11 56 -32 77s-46 31 -76 31s-56 -11 -77 -32s-31 -46 -31 -76s11 -56 32 -77s46 -31 76 -31s56 11 77 32s31 46 31 76zM361 868c0 -15 -5 -28 -16 -39c-10 -10 -23 -15 -38 -15s-27 5 -38 16c-11 10 -16 23 -16 38s5 28 16 39c11 10 23 15 38 15
s28 -5 39 -16c10 -10 15 -23 15 -38zM598 0l-205 723h-172l-208 -723h137l43 156h228l40 -156h137zM391 270h-168l86 318z" />
    <glyph glyph-name="AE" unicode="&#xc6;" horiz-adv-x="944" 
d="M910 0v116h-319v203l215 1v114h-215v172h307v116h-528l-361 -722h145l80 169h220v-169h456zM454 285h-163l163 337v-337z" />
    <glyph glyph-name="Ccedilla" unicode="&#xc7;" 
d="M590 179l-129 34c-19 -39 -39 -67 -60 -83s-48 -24 -81 -24c-53 0 -92 22 -116 65s-36 104 -36 185s12 144 37 191c25 46 62 69 111 69c30 0 57 -9 80 -27c23 -17 40 -42 51 -77l125 30c-21 73 -53 123 -97 150c-43 27 -94 40 -154 40c-94 0 -166 -33 -216 -99
c-50 -65 -75 -156 -75 -272s25 -207 75 -273c44 -59 107 -91 188 -97l-53 -81l20 -20l44 6c13 0 24 -3 31 -8c7 -4 10 -12 10 -24c0 -15 -4 -26 -12 -32s-21 -9 -39 -9s-36 3 -54 8l-25 8l-18 -42c5 -3 12 -5 20 -8l27 -9c19 -6 39 -9 62 -9c37 0 67 9 91 27
c24 17 36 39 36 68c0 23 -8 42 -24 56c-17 13 -38 20 -64 20l-36 -5l37 54c56 3 104 18 143 47c45 31 78 78 101 141z" />
    <glyph glyph-name="Egrave" unicode="&#xc8;" 
d="M406 761l-94 146h-154l147 -146h101zM573 0v116h-352v203l248 1v114h-248v172h340v116h-477v-722h489z" />
    <glyph glyph-name="Eacute" unicode="&#xc9;" 
d="M490 907h-154l-94 -146h101zM573 0v116h-352v203l248 1v114h-248v172h340v116h-477v-722h489z" />
    <glyph glyph-name="Ecircumflex" unicode="&#xca;" 
d="M501 761l-114 146h-124l-114 -146h113l63 82l63 -82h113zM573 0v116h-352v203l248 1v114h-248v172h340v116h-477v-722h489z" />
    <glyph glyph-name="Edieresis" unicode="&#xcb;" 
d="M481 771v116h-120v-116h120zM291 771v116h-120v-116h120zM573 0v116h-352v203l248 1v114h-248v172h340v116h-477v-722h489z" />
    <glyph glyph-name="Igrave" unicode="&#xcc;" horiz-adv-x="333" 
d="M246 761l-94 146h-154l147 -146h101zM235 0v722h-138v-722h138z" />
    <glyph glyph-name="Iacute" unicode="&#xcd;" horiz-adv-x="333" 
d="M330 907h-154l-94 -146h101zM235 0v722h-138v-722h138z" />
    <glyph glyph-name="Icircumflex" unicode="&#xce;" horiz-adv-x="333" 
d="M341 761l-114 146h-124l-114 -146h113l63 82l63 -82h113zM235 0v722h-138v-722h138z" />
    <glyph glyph-name="Idieresis" unicode="&#xcf;" horiz-adv-x="333" 
d="M321 771v116h-120v-116h120zM131 771v116h-120v-116h120zM235 0v722h-138v-722h138z" />
    <glyph glyph-name="Eth" unicode="&#xd0;" horiz-adv-x="667" 
d="M640 360c0 118 -28 208 -84 270c-55 61 -137 92 -246 92l-232 1v-289h-67v-124h67v-310h234c107 0 189 31 245 93c55 63 83 152 83 267zM501 362c0 -81 -16 -143 -47 -184c-30 -41 -79 -62 -146 -62h-93v194h150v124h-150v172h95c65 0 113 -21 144 -63
c31 -41 47 -102 47 -181z" />
    <glyph glyph-name="Ntilde" unicode="&#xd1;" horiz-adv-x="722" 
d="M542 897h-63c-5 -13 -11 -24 -19 -32c-7 -7 -15 -10 -24 -10c-17 0 -41 6 -74 18c-32 12 -57 18 -74 18c-29 0 -53 -11 -74 -34s-33 -53 -38 -88h63c5 13 11 24 19 32c7 7 15 10 24 10c16 0 41 -6 74 -18c32 -12 57 -18 74 -18c29 0 53 11 74 34s33 53 38 88zM641 0v722
h-130v-496l-286 496h-144v-722h130v518l298 -518h132z" />
    <glyph glyph-name="Ograve" unicode="&#xd2;" horiz-adv-x="667" 
d="M416 761l-94 146h-154l147 -146h101zM637 361c0 117 -26 209 -78 274c-51 65 -126 97 -225 97s-174 -33 -226 -98s-78 -156 -78 -273c0 -118 26 -209 78 -274s127 -97 226 -97s174 33 226 98c51 65 77 156 77 273zM499 361c0 -83 -13 -147 -40 -190
c-26 -43 -68 -65 -125 -65c-58 0 -100 22 -127 66c-26 43 -39 106 -39 189s13 147 40 190c26 43 68 65 126 65c57 0 99 -22 126 -66c26 -43 39 -106 39 -189z" />
    <glyph glyph-name="Oacute" unicode="&#xd3;" horiz-adv-x="667" 
d="M500 907h-154l-94 -146h101zM637 361c0 117 -26 209 -78 274c-51 65 -126 97 -225 97s-174 -33 -226 -98s-78 -156 -78 -273c0 -118 26 -209 78 -274s127 -97 226 -97s174 33 226 98c51 65 77 156 77 273zM499 361c0 -83 -13 -147 -40 -190c-26 -43 -68 -65 -125 -65
c-58 0 -100 22 -127 66c-26 43 -39 106 -39 189s13 147 40 190c26 43 68 65 126 65c57 0 99 -22 126 -66c26 -43 39 -106 39 -189z" />
    <glyph glyph-name="Ocircumflex" unicode="&#xd4;" horiz-adv-x="667" 
d="M511 761l-114 146h-124l-114 -146h113l63 82l63 -82h113zM637 361c0 117 -26 209 -78 274c-51 65 -126 97 -225 97s-174 -33 -226 -98s-78 -156 -78 -273c0 -118 26 -209 78 -274s127 -97 226 -97s174 33 226 98c51 65 77 156 77 273zM499 361c0 -83 -13 -147 -40 -190
c-26 -43 -68 -65 -125 -65c-58 0 -100 22 -127 66c-26 43 -39 106 -39 189s13 147 40 190c26 43 68 65 126 65c57 0 99 -22 126 -66c26 -43 39 -106 39 -189z" />
    <glyph glyph-name="Otilde" unicode="&#xd5;" horiz-adv-x="667" 
d="M516 897h-63c-5 -13 -11 -24 -19 -32c-7 -7 -15 -10 -24 -10c-17 0 -41 6 -74 18c-32 12 -57 18 -74 18c-29 0 -53 -11 -74 -34s-33 -53 -38 -88h63c5 13 11 24 19 32c7 7 15 10 24 10c16 0 41 -6 74 -18c32 -12 57 -18 74 -18c29 0 53 11 74 34s33 53 38 88zM637 361
c0 117 -26 209 -78 274c-51 65 -126 97 -225 97s-174 -33 -226 -98s-78 -156 -78 -273c0 -118 26 -209 78 -274s127 -97 226 -97s174 33 226 98c51 65 77 156 77 273zM499 361c0 -83 -13 -147 -40 -190c-26 -43 -68 -65 -125 -65c-58 0 -100 22 -127 66
c-26 43 -39 106 -39 189s13 147 40 190c26 43 68 65 126 65c57 0 99 -22 126 -66c26 -43 39 -106 39 -189z" />
    <glyph glyph-name="Odieresis" unicode="&#xd6;" horiz-adv-x="667" 
d="M491 771v116h-120v-116h120zM301 771v116h-120v-116h120zM637 361c0 117 -26 209 -78 274c-51 65 -126 97 -225 97s-174 -33 -226 -98s-78 -156 -78 -273c0 -118 26 -209 78 -274s127 -97 226 -97s174 33 226 98c51 65 77 156 77 273zM499 361c0 -83 -13 -147 -40 -190
c-26 -43 -68 -65 -125 -65c-58 0 -100 22 -127 66c-26 43 -39 106 -39 189s13 147 40 190c26 43 68 65 126 65c57 0 99 -22 126 -66c26 -43 39 -106 39 -189z" />
    <glyph glyph-name="multiply" unicode="&#xd7;" horiz-adv-x="600" 
d="M560 77l-183 183l183 183l-77 77l-183 -183l-183 183l-77 -77l183 -183l-183 -183l77 -77l183 183l183 -183z" />
    <glyph glyph-name="Oslash" unicode="&#xd8;" horiz-adv-x="667" 
d="M656 763h-115l-47 -71c-37 27 -90 40 -160 40c-99 0 -174 -33 -226 -98s-78 -156 -78 -273c0 -112 23 -199 69 -262l-110 -165h115l65 98c38 -28 93 -42 165 -42c99 0 174 33 226 98c51 65 77 156 77 273c0 113 -24 202 -72 265zM425 589l-241 -362
c-11 30 -16 75 -16 134c0 83 13 147 40 190c26 43 68 65 126 65c41 0 72 -9 91 -27zM499 361c0 -83 -13 -147 -40 -190c-26 -43 -68 -65 -125 -65c-44 0 -76 10 -96 30l243 364c12 -32 18 -78 18 -139z" />
    <glyph glyph-name="Ugrave" unicode="&#xd9;" horiz-adv-x="722" 
d="M440 761l-94 146h-154l147 -146h101zM637 271v451h-137v-449c0 -59 -11 -101 -32 -128c-21 -26 -58 -39 -109 -39s-86 13 -107 40s-31 70 -31 129v447h-137v-458c0 -87 24 -155 72 -203c49 -47 117 -71 205 -71c90 0 159 24 206 72c47 49 70 118 70 209z" />
    <glyph glyph-name="Uacute" unicode="&#xda;" horiz-adv-x="722" 
d="M524 907h-154l-94 -146h101zM637 271v451h-137v-449c0 -59 -11 -101 -32 -128c-21 -26 -58 -39 -109 -39s-86 13 -107 40s-31 70 -31 129v447h-137v-458c0 -87 24 -155 72 -203c49 -47 117 -71 205 -71c90 0 159 24 206 72c47 49 70 118 70 209z" />
    <glyph glyph-name="Ucircumflex" unicode="&#xdb;" horiz-adv-x="722" 
d="M535 761l-114 146h-124l-114 -146h113l63 82l63 -82h113zM637 271v451h-137v-449c0 -59 -11 -101 -32 -128c-21 -26 -58 -39 -109 -39s-86 13 -107 40s-31 70 -31 129v447h-137v-458c0 -87 24 -155 72 -203c49 -47 117 -71 205 -71c90 0 159 24 206 72
c47 49 70 118 70 209z" />
    <glyph glyph-name="Udieresis" unicode="&#xdc;" horiz-adv-x="722" 
d="M515 771v116h-120v-116h120zM325 771v116h-120v-116h120zM637 271v451h-137v-449c0 -59 -11 -101 -32 -128c-21 -26 -58 -39 -109 -39s-86 13 -107 40s-31 70 -31 129v447h-137v-458c0 -87 24 -155 72 -203c49 -47 117 -71 205 -71c90 0 159 24 206 72
c47 49 70 118 70 209z" />
    <glyph glyph-name="Yacute" unicode="&#xdd;" horiz-adv-x="556" 
d="M445 907h-154l-94 -146h101zM546 722h-144l-124 -286l-124 286h-144l200 -436v-286h137v289z" />
    <glyph glyph-name="Thorn" unicode="&#xde;" 
d="M588 374c0 70 -21 124 -62 161c-41 36 -101 54 -179 54h-143v133h-137v-722l137 1v159h126c82 0 146 18 191 54s67 89 67 160zM449 372c0 -36 -11 -62 -33 -78c-23 -15 -56 -23 -100 -23h-112v206h112c46 0 80 -8 101 -24s32 -43 32 -81z" />
    <glyph glyph-name="germandbls" unicode="&#xdf;" horiz-adv-x="500" 
d="M481 197c0 51 -10 94 -31 129c-19 34 -50 58 -92 71c29 13 49 31 61 56c11 25 17 55 17 91c0 56 -17 100 -50 132c-34 31 -82 46 -144 46c-57 0 -103 -14 -137 -42c-17 -13 -29 -31 -39 -54c-8 -22 -13 -49 -13 -81v-545h124v553c3 29 10 47 21 56s26 13 46 13
c21 0 39 -8 52 -23s20 -40 20 -75c0 -25 -5 -45 -14 -62c-5 -8 -10 -16 -18 -24c-6 -8 -15 -12 -25 -12h-19v-90h28c30 0 52 -11 67 -34c14 -21 21 -54 21 -97c0 -34 -5 -62 -14 -84c-9 -21 -24 -31 -46 -31c-7 0 -15 1 -23 3c-9 2 -16 5 -23 9l-30 -88c5 -3 10 -6 16 -9
c7 -3 14 -5 23 -8c16 -5 30 -7 42 -7c65 0 111 18 139 55c27 37 41 88 41 152z" />
    <glyph glyph-name="agrave" unicode="&#xe0;" horiz-adv-x="500" 
d="M331 586l-94 146h-154l147 -146h101zM450 0c-4 11 -7 22 -8 32c-1 12 -2 23 -2 34v256c0 71 -15 124 -46 158c-30 33 -81 50 -154 50c-19 0 -39 -4 -62 -12c-22 -7 -43 -16 -62 -26c-20 -9 -37 -18 -50 -26l-20 -11l51 -75l23 12c15 9 34 17 55 25s43 13 65 16
c23 3 41 -1 55 -12c7 -5 11 -11 15 -19c2 -6 4 -14 6 -22c0 -8 1 -16 0 -24v-25c-61 -4 -112 -14 -154 -31c-40 -16 -72 -35 -96 -58c-22 -23 -38 -47 -45 -73s-8 -51 -1 -74c6 -23 18 -44 36 -63c17 -18 39 -30 66 -38c27 -6 57 -6 91 0c34 8 70 24 108 51l8 -45h121z
M316 137c-29 -24 -55 -40 -78 -47c-22 -7 -40 -9 -55 -6c-15 4 -25 12 -33 24c-6 12 -9 25 -8 39s7 28 17 41c10 14 25 25 44 32s37 13 56 17l57 12v-112z" />
    <glyph glyph-name="aacute" unicode="&#xe1;" horiz-adv-x="500" 
d="M415 732h-154l-94 -146h101zM450 0c-4 11 -7 22 -8 32c-1 12 -2 23 -2 34v256c0 71 -15 124 -46 158c-30 33 -81 50 -154 50c-19 0 -39 -4 -62 -12c-22 -7 -43 -16 -62 -26c-20 -9 -37 -18 -50 -26l-20 -11l51 -75l23 12c15 9 34 17 55 25s43 13 65 16c23 3 41 -1 55 -12
c7 -5 11 -11 15 -19c2 -6 4 -14 6 -22c0 -8 1 -16 0 -24v-25c-61 -4 -112 -14 -154 -31c-40 -16 -72 -35 -96 -58c-22 -23 -38 -47 -45 -73s-8 -51 -1 -74c6 -23 18 -44 36 -63c17 -18 39 -30 66 -38c27 -6 57 -6 91 0c34 8 70 24 108 51l8 -45h121zM316 137
c-29 -24 -55 -40 -78 -47c-22 -7 -40 -9 -55 -6c-15 4 -25 12 -33 24c-6 12 -9 25 -8 39s7 28 17 41c10 14 25 25 44 32s37 13 56 17l57 12v-112z" />
    <glyph glyph-name="acircumflex" unicode="&#xe2;" horiz-adv-x="500" 
d="M426 586l-114 146h-124l-114 -146h113l63 82l63 -82h113zM450 0c-4 11 -7 22 -8 32c-1 12 -2 23 -2 34v256c0 71 -15 124 -46 158c-30 33 -81 50 -154 50c-19 0 -39 -4 -62 -12c-22 -7 -43 -16 -62 -26c-20 -9 -37 -18 -50 -26l-20 -11l51 -75l23 12c15 9 34 17 55 25
s43 13 65 16c23 3 41 -1 55 -12c7 -5 11 -11 15 -19c2 -6 4 -14 6 -22c0 -8 1 -16 0 -24v-25c-61 -4 -112 -14 -154 -31c-40 -16 -72 -35 -96 -58c-22 -23 -38 -47 -45 -73s-8 -51 -1 -74c6 -23 18 -44 36 -63c17 -18 39 -30 66 -38c27 -6 57 -6 91 0c34 8 70 24 108 51
l8 -45h121zM316 137c-29 -24 -55 -40 -78 -47c-22 -7 -40 -9 -55 -6c-15 4 -25 12 -33 24c-6 12 -9 25 -8 39s7 28 17 41c10 14 25 25 44 32s37 13 56 17l57 12v-112z" />
    <glyph glyph-name="atilde" unicode="&#xe3;" horiz-adv-x="500" 
d="M431 722h-63c-5 -13 -11 -24 -19 -32c-7 -7 -15 -10 -24 -10c-17 0 -41 6 -74 18c-32 12 -57 18 -74 18c-29 0 -53 -11 -74 -34s-33 -53 -38 -88h63c5 13 11 24 19 32c7 7 15 10 24 10c16 0 41 -6 74 -18c32 -12 57 -18 74 -18c29 0 53 11 74 34s33 53 38 88zM450 0
c-4 11 -7 22 -8 32c-1 12 -2 23 -2 34v256c0 71 -15 124 -46 158c-30 33 -81 50 -154 50c-19 0 -39 -4 -62 -12c-22 -7 -43 -16 -62 -26c-20 -9 -37 -18 -50 -26l-20 -11l51 -75l23 12c15 9 34 17 55 25s43 13 65 16c23 3 41 -1 55 -12c7 -5 11 -11 15 -19c2 -6 4 -14 6 -22
c0 -8 1 -16 0 -24v-25c-61 -4 -112 -14 -154 -31c-40 -16 -72 -35 -96 -58c-22 -23 -38 -47 -45 -73s-8 -51 -1 -74c6 -23 18 -44 36 -63c17 -18 39 -30 66 -38c27 -6 57 -6 91 0c34 8 70 24 108 51l8 -45h121zM316 137c-29 -24 -55 -40 -78 -47c-22 -7 -40 -9 -55 -6
c-15 4 -25 12 -33 24c-6 12 -9 25 -8 39s7 28 17 41c10 14 25 25 44 32s37 13 56 17l57 12v-112z" />
    <glyph glyph-name="adieresis" unicode="&#xe4;" horiz-adv-x="500" 
d="M406 596v116h-120v-116h120zM216 596v116h-120v-116h120zM450 0c-4 11 -7 22 -8 32c-1 12 -2 23 -2 34v256c0 71 -15 124 -46 158c-30 33 -81 50 -154 50c-19 0 -39 -4 -62 -12c-22 -7 -43 -16 -62 -26c-20 -9 -37 -18 -50 -26l-20 -11l51 -75l23 12c15 9 34 17 55 25
s43 13 65 16c23 3 41 -1 55 -12c7 -5 11 -11 15 -19c2 -6 4 -14 6 -22c0 -8 1 -16 0 -24v-25c-61 -4 -112 -14 -154 -31c-40 -16 -72 -35 -96 -58c-22 -23 -38 -47 -45 -73s-8 -51 -1 -74c6 -23 18 -44 36 -63c17 -18 39 -30 66 -38c27 -6 57 -6 91 0c34 8 70 24 108 51
l8 -45h121zM316 137c-29 -24 -55 -40 -78 -47c-22 -7 -40 -9 -55 -6c-15 4 -25 12 -33 24c-6 12 -9 25 -8 39s7 28 17 41c10 14 25 25 44 32s37 13 56 17l57 12v-112z" />
    <glyph glyph-name="aring" unicode="&#xe5;" horiz-adv-x="500" 
d="M358 693c0 30 -11 56 -32 77s-46 31 -76 31s-56 -11 -77 -32s-31 -46 -31 -76s11 -56 32 -77s46 -31 76 -31s56 11 77 32s31 46 31 76zM304 693c0 -15 -5 -28 -16 -39c-10 -10 -23 -15 -38 -15s-27 5 -38 16c-11 10 -16 23 -16 38s5 28 16 39c11 10 23 15 38 15
s28 -5 39 -16c10 -10 15 -23 15 -38zM450 0c-4 11 -7 22 -8 32c-1 12 -2 23 -2 34v256c0 71 -15 124 -46 158c-30 33 -81 50 -154 50c-19 0 -39 -4 -62 -12c-22 -7 -43 -16 -62 -26c-20 -9 -37 -18 -50 -26l-20 -11l51 -75l23 12c15 9 34 17 55 25s43 13 65 16
c23 3 41 -1 55 -12c7 -5 11 -11 15 -19c2 -6 4 -14 6 -22c0 -8 1 -16 0 -24v-25c-61 -4 -112 -14 -154 -31c-40 -16 -72 -35 -96 -58c-22 -23 -38 -47 -45 -73s-8 -51 -1 -74c6 -23 18 -44 36 -63c17 -18 39 -30 66 -38c27 -6 57 -6 91 0c34 8 70 24 108 51l8 -45h121z
M316 137c-29 -24 -55 -40 -78 -47c-22 -7 -40 -9 -55 -6c-15 4 -25 12 -33 24c-6 12 -9 25 -8 39s7 28 17 41c10 14 25 25 44 32s37 13 56 17l57 12v-112z" />
    <glyph glyph-name="ae" unicode="&#xe6;" horiz-adv-x="781" 
d="M752 56l-35 88l-19 -8c-14 -6 -29 -12 -47 -19s-37 -13 -56 -19c-19 -5 -35 -8 -47 -8c-42 0 -71 16 -88 49c-9 19 -16 43 -20 74v27h312v59c0 34 -6 65 -18 93c-11 27 -27 52 -46 73c-39 43 -89 65 -149 65c-59 0 -107 -17 -144 -51c-32 34 -84 51 -155 51
c-19 0 -39 -4 -62 -12c-22 -7 -43 -16 -62 -26c-20 -9 -37 -18 -50 -26l-20 -11l51 -75l23 12c15 9 34 17 55 25s43 13 65 16c23 3 41 -1 55 -12c7 -5 11 -11 15 -19c2 -6 4 -14 6 -22c0 -8 1 -16 0 -24v-25c-61 -4 -112 -14 -154 -31c-40 -16 -72 -35 -96 -58
c-22 -23 -38 -47 -45 -73s-8 -51 -1 -74c6 -23 18 -44 36 -63c17 -18 39 -30 66 -38c27 -6 57 -6 91 0c34 8 70 24 108 51l8 -45h121c-1 1 -1 2 -1 3s0 2 -1 3c25 -11 54 -16 87 -16c23 0 48 4 73 10c25 8 49 15 70 23s39 15 53 23zM638 324h-198v17c4 25 10 44 19 57
c17 27 43 40 79 40c30 0 54 -10 72 -30c18 -21 27 -49 28 -84zM316 137c-29 -24 -55 -40 -78 -47c-22 -7 -40 -9 -55 -6c-15 4 -25 12 -33 24c-6 12 -9 25 -8 39s7 28 17 41c10 14 25 25 44 32s37 13 55 17s37 8 56 12v-17c1 -5 1 -11 2 -16v-79z" />
    <glyph glyph-name="ccedilla" unicode="&#xe7;" horiz-adv-x="500" 
d="M458 120l-94 53c-23 -39 -44 -63 -62 -71c-17 -8 -34 -12 -49 -12c-37 0 -64 15 -81 44c-16 29 -24 71 -24 126s8 98 24 127s42 43 79 43c29 0 51 -8 67 -25c7 -8 14 -17 20 -25c5 -10 10 -19 14 -29l103 40c-17 49 -45 85 -84 107c-39 21 -79 32 -121 32
c-69 0 -124 -24 -165 -73c-41 -47 -61 -113 -61 -198c0 -83 20 -148 61 -197c35 -42 83 -66 143 -71l-53 -81l20 -20l44 6c13 0 24 -3 31 -8c7 -4 10 -12 10 -24c0 -15 -4 -26 -12 -32s-21 -9 -39 -9s-36 3 -54 8l-25 8l-18 -42c5 -3 12 -5 20 -8l27 -9c19 -6 39 -9 62 -9
c37 0 67 9 91 27c24 17 36 39 36 68c0 23 -8 42 -24 56c-17 13 -38 20 -64 20l-36 -5l37 54c35 3 66 12 91 29c15 9 30 22 44 40c15 16 29 37 42 60z" />
    <glyph glyph-name="egrave" unicode="&#xe8;" horiz-adv-x="500" 
d="M331 586l-94 146h-154l147 -146h101zM462 96l-90 56c-11 -15 -26 -29 -45 -42s-42 -20 -69 -20c-42 0 -71 16 -88 49c-6 11 -11 25 -14 43c-4 16 -7 36 -9 58h315v59c0 34 -6 65 -18 93c-11 27 -27 52 -46 73c-39 43 -89 65 -149 65c-70 0 -125 -24 -165 -73
s-60 -115 -60 -197s20 -148 59 -197s93 -73 162 -73c51 0 93 8 127 25c35 16 65 43 90 81zM348 324h-201c4 33 11 58 22 74c17 27 43 40 79 40c30 0 54 -10 72 -30c18 -21 27 -49 28 -84z" />
    <glyph glyph-name="eacute" unicode="&#xe9;" horiz-adv-x="500" 
d="M415 732h-154l-94 -146h101zM462 96l-90 56c-11 -15 -26 -29 -45 -42s-42 -20 -69 -20c-42 0 -71 16 -88 49c-6 11 -11 25 -14 43c-4 16 -7 36 -9 58h315v59c0 34 -6 65 -18 93c-11 27 -27 52 -46 73c-39 43 -89 65 -149 65c-70 0 -125 -24 -165 -73s-60 -115 -60 -197
s20 -148 59 -197s93 -73 162 -73c51 0 93 8 127 25c35 16 65 43 90 81zM348 324h-201c4 33 11 58 22 74c17 27 43 40 79 40c30 0 54 -10 72 -30c18 -21 27 -49 28 -84z" />
    <glyph glyph-name="ecircumflex" unicode="&#xea;" horiz-adv-x="500" 
d="M426 586l-114 146h-124l-114 -146h113l63 82l63 -82h113zM462 96l-90 56c-11 -15 -26 -29 -45 -42s-42 -20 -69 -20c-42 0 -71 16 -88 49c-6 11 -11 25 -14 43c-4 16 -7 36 -9 58h315v59c0 34 -6 65 -18 93c-11 27 -27 52 -46 73c-39 43 -89 65 -149 65
c-70 0 -125 -24 -165 -73s-60 -115 -60 -197s20 -148 59 -197s93 -73 162 -73c51 0 93 8 127 25c35 16 65 43 90 81zM348 324h-201c4 33 11 58 22 74c17 27 43 40 79 40c30 0 54 -10 72 -30c18 -21 27 -49 28 -84z" />
    <glyph glyph-name="edieresis" unicode="&#xeb;" horiz-adv-x="500" 
d="M406 596v116h-120v-116h120zM216 596v116h-120v-116h120zM462 96l-90 56c-11 -15 -26 -29 -45 -42s-42 -20 -69 -20c-42 0 -71 16 -88 49c-6 11 -11 25 -14 43c-4 16 -7 36 -9 58h315v59c0 34 -6 65 -18 93c-11 27 -27 52 -46 73c-39 43 -89 65 -149 65
c-70 0 -125 -24 -165 -73s-60 -115 -60 -197s20 -148 59 -197s93 -73 162 -73c51 0 93 8 127 25c35 16 65 43 90 81zM348 324h-201c4 33 11 58 22 74c17 27 43 40 79 40c30 0 54 -10 72 -30c18 -21 27 -49 28 -84z" />
    <glyph glyph-name="igrave" unicode="&#xec;" horiz-adv-x="278" 
d="M222 586l-94 146h-154l147 -146h101zM201 0v520h-124v-520h124z" />
    <glyph glyph-name="iacute" unicode="&#xed;" horiz-adv-x="278" 
d="M306 732h-154l-94 -146h101zM201 0v520h-124v-520h124z" />
    <glyph glyph-name="icircumflex" unicode="&#xee;" horiz-adv-x="278" 
d="M317 586l-114 146h-124l-114 -146h113l63 82l63 -82h113zM201 0v520h-124v-520h124z" />
    <glyph glyph-name="idieresis" unicode="&#xef;" horiz-adv-x="278" 
d="M297 596v116h-120v-116h120zM107 596v116h-120v-116h120zM201 0v520h-124v-520h124z" />
    <glyph glyph-name="eth" unicode="&#xf0;" horiz-adv-x="500" 
d="M476 238c0 100 -24 196 -72 287c-23 42 -41 72 -55 90l89 43l-36 64l-101 -49c-23 23 -41 39 -55 49l-108 -34c23 -19 45 -40 65 -62l-91 -44l36 -64l102 49c17 -25 31 -50 42 -74l-42 5c-69 0 -125 -24 -166 -71c-40 -47 -60 -109 -60 -186c0 -75 21 -135 63 -182
c41 -47 95 -70 164 -70c67 0 121 23 163 70c41 47 62 106 62 179zM352 243c0 -49 -8 -87 -25 -114c-17 -26 -43 -39 -77 -39c-35 0 -60 13 -77 40s-25 65 -25 115c0 49 8 86 25 113s42 40 77 40s61 -14 78 -41c16 -27 24 -65 24 -114z" />
    <glyph glyph-name="ntilde" unicode="&#xf1;" horiz-adv-x="556" 
d="M455 722h-63c-5 -13 -11 -24 -19 -32c-7 -7 -15 -10 -24 -10c-17 0 -41 6 -74 18c-32 12 -57 18 -74 18c-29 0 -53 -11 -74 -34s-33 -53 -38 -88h63c5 13 11 24 19 32c7 7 15 10 24 10c16 0 41 -6 74 -18c32 -12 57 -18 74 -18c29 0 53 11 74 34s33 53 38 88zM491 0v354
c0 55 -13 99 -39 130s-63 46 -112 46c-29 0 -58 -6 -85 -19c-28 -12 -54 -28 -77 -48v57h-114v-520h124v375c19 20 38 34 58 43c20 8 39 12 58 12c24 0 41 -8 50 -24c9 -15 13 -40 13 -75v-331h124z" />
    <glyph glyph-name="ograve" unicode="&#xf2;" horiz-adv-x="500" 
d="M329 586l-94 146h-154l147 -146h101zM477 260c0 81 -21 147 -62 196c-40 49 -95 74 -165 74c-69 0 -124 -25 -165 -74s-61 -114 -61 -196c0 -81 21 -147 62 -196c40 -49 95 -74 164 -74s124 25 166 74c41 50 61 115 61 196zM353 260c0 -55 -8 -97 -25 -126
c-16 -29 -42 -44 -78 -44c-35 0 -61 15 -78 44c-16 29 -24 71 -24 126s8 97 25 126c16 29 42 44 77 44s62 -15 79 -44c16 -29 24 -71 24 -126z" />
    <glyph glyph-name="oacute" unicode="&#xf3;" horiz-adv-x="500" 
d="M413 732h-154l-94 -146h101zM477 260c0 81 -21 147 -62 196c-40 49 -95 74 -165 74c-69 0 -124 -25 -165 -74s-61 -114 -61 -196c0 -81 21 -147 62 -196c40 -49 95 -74 164 -74s124 25 166 74c41 50 61 115 61 196zM353 260c0 -55 -8 -97 -25 -126
c-16 -29 -42 -44 -78 -44c-35 0 -61 15 -78 44c-16 29 -24 71 -24 126s8 97 25 126c16 29 42 44 77 44s62 -15 79 -44c16 -29 24 -71 24 -126z" />
    <glyph glyph-name="ocircumflex" unicode="&#xf4;" horiz-adv-x="500" 
d="M424 586l-114 146h-124l-114 -146h113l63 82l63 -82h113zM477 260c0 81 -21 147 -62 196c-40 49 -95 74 -165 74c-69 0 -124 -25 -165 -74s-61 -114 -61 -196c0 -81 21 -147 62 -196c40 -49 95 -74 164 -74s124 25 166 74c41 50 61 115 61 196zM353 260
c0 -55 -8 -97 -25 -126c-16 -29 -42 -44 -78 -44c-35 0 -61 15 -78 44c-16 29 -24 71 -24 126s8 97 25 126c16 29 42 44 77 44s62 -15 79 -44c16 -29 24 -71 24 -126z" />
    <glyph glyph-name="otilde" unicode="&#xf5;" horiz-adv-x="500" 
d="M429 722h-63c-5 -13 -11 -24 -19 -32c-7 -7 -15 -10 -24 -10c-17 0 -41 6 -74 18c-32 12 -57 18 -74 18c-29 0 -53 -11 -74 -34s-33 -53 -38 -88h63c5 13 11 24 19 32c7 7 15 10 24 10c16 0 41 -6 74 -18c32 -12 57 -18 74 -18c29 0 53 11 74 34s33 53 38 88zM477 260
c0 81 -21 147 -62 196c-40 49 -95 74 -165 74c-69 0 -124 -25 -165 -74s-61 -114 -61 -196c0 -81 21 -147 62 -196c40 -49 95 -74 164 -74s124 25 166 74c41 50 61 115 61 196zM353 260c0 -55 -8 -97 -25 -126c-16 -29 -42 -44 -78 -44c-35 0 -61 15 -78 44
c-16 29 -24 71 -24 126s8 97 25 126c16 29 42 44 77 44s62 -15 79 -44c16 -29 24 -71 24 -126z" />
    <glyph glyph-name="odieresis" unicode="&#xf6;" horiz-adv-x="500" 
d="M404 596v116h-120v-116h120zM214 596v116h-120v-116h120zM477 260c0 81 -21 147 -62 196c-40 49 -95 74 -165 74c-69 0 -124 -25 -165 -74s-61 -114 -61 -196c0 -81 21 -147 62 -196c40 -49 95 -74 164 -74s124 25 166 74c41 50 61 115 61 196zM353 260
c0 -55 -8 -97 -25 -126c-16 -29 -42 -44 -78 -44c-35 0 -61 15 -78 44c-16 29 -24 71 -24 126s8 97 25 126c16 29 42 44 77 44s62 -15 79 -44c16 -29 24 -71 24 -126z" />
    <glyph glyph-name="divide" unicode="&#xf7;" horiz-adv-x="600" 
d="M368 378v143h-139v-143h139zM561 207v106h-521v-106h521zM368 -3v143h-139v-143h139z" />
    <glyph glyph-name="oslash" unicode="&#xf8;" horiz-adv-x="500" 
d="M493 612h-91l-56 -102c-25 13 -57 20 -97 20c-69 0 -124 -25 -165 -74s-61 -114 -61 -196s20 -147 61 -196c1 -1 3 -3 4 -5l6 -6l-84 -153l91 1l59 106c23 -11 52 -17 89 -17c69 0 124 25 166 74c41 50 61 115 61 196s-21 147 -62 196c-2 2 -3 4 -4 5zM296 419l-138 -251
c-7 22 -11 53 -11 92c0 55 8 97 25 126c16 29 42 44 77 44c21 0 36 -4 47 -11zM352 260c0 -55 -8 -97 -25 -126c-16 -29 -42 -44 -78 -44c-17 0 -30 3 -39 8l134 243c5 -20 8 -47 8 -81z" />
    <glyph glyph-name="ugrave" unicode="&#xf9;" horiz-adv-x="556" 
d="M359 586l-94 146h-154l147 -146h101zM491 0v520h-124v-376c-13 -15 -29 -27 -50 -38c-19 -11 -40 -16 -63 -16c-25 0 -42 7 -52 22c-9 15 -14 38 -14 69v339h-124v-358c0 -54 13 -96 40 -127c26 -30 63 -45 112 -45c32 0 63 8 92 23c15 7 28 15 39 22s22 14 31 21v-56
h113z" />
    <glyph glyph-name="uacute" unicode="&#xfa;" horiz-adv-x="556" 
d="M443 732h-154l-94 -146h101zM491 0v520h-124v-376c-13 -15 -29 -27 -50 -38c-19 -11 -40 -16 -63 -16c-25 0 -42 7 -52 22c-9 15 -14 38 -14 69v339h-124v-358c0 -54 13 -96 40 -127c26 -30 63 -45 112 -45c32 0 63 8 92 23c15 7 28 15 39 22s22 14 31 21v-56h113z" />
    <glyph glyph-name="ucircumflex" unicode="&#xfb;" horiz-adv-x="556" 
d="M454 586l-114 146h-124l-114 -146h113l63 82l63 -82h113zM491 0v520h-124v-376c-13 -15 -29 -27 -50 -38c-19 -11 -40 -16 -63 -16c-25 0 -42 7 -52 22c-9 15 -14 38 -14 69v339h-124v-358c0 -54 13 -96 40 -127c26 -30 63 -45 112 -45c32 0 63 8 92 23c15 7 28 15 39 22
s22 14 31 21v-56h113z" />
    <glyph glyph-name="udieresis" unicode="&#xfc;" horiz-adv-x="556" 
d="M434 596v116h-120v-116h120zM244 596v116h-120v-116h120zM491 0v520h-124v-376c-13 -15 -29 -27 -50 -38c-19 -11 -40 -16 -63 -16c-25 0 -42 7 -52 22c-9 15 -14 38 -14 69v339h-124v-358c0 -54 13 -96 40 -127c26 -30 63 -45 112 -45c32 0 63 8 92 23c15 7 28 15 39 22
s22 14 31 21v-56h113z" />
    <glyph glyph-name="yacute" unicode="&#xfd;" horiz-adv-x="444" 
d="M388 732h-154l-94 -146h101zM436 520h-125l-90 -324l-87 324h-125l154 -492l1 -21c-6 -23 -15 -45 -27 -65c-6 -10 -15 -18 -27 -24c-13 -5 -28 -7 -47 -6l-53 4v-102l61 -4c23 -1 45 2 65 10c19 7 37 18 52 31s30 31 43 54s25 50 36 83z" />
    <glyph glyph-name="thorn" unicode="&#xfe;" horiz-adv-x="556" 
d="M525 248c0 84 -19 152 -56 205c-36 51 -87 77 -153 77c-21 0 -41 -3 -62 -9c-11 -3 -22 -7 -32 -12c-12 -5 -23 -12 -34 -19v232h-124v-912h124v241c13 -17 32 -32 56 -44c25 -11 49 -17 73 -17c59 0 109 25 149 74c39 49 59 111 59 184zM400 260c0 -53 -10 -95 -30 -125
s-49 -45 -87 -45c-13 0 -28 3 -44 10c-17 6 -34 17 -51 34v250c18 17 34 29 48 36c15 7 31 10 49 10c37 0 66 -15 86 -45c19 -31 29 -72 29 -125z" />
    <glyph glyph-name="ydieresis" unicode="&#xff;" horiz-adv-x="444" 
d="M379 596v116h-120v-116h120zM189 596v116h-120v-116h120zM436 520h-125l-90 -324l-87 324h-125l154 -492l1 -21c-6 -23 -15 -45 -27 -65c-6 -10 -15 -18 -27 -24c-13 -5 -28 -7 -47 -6l-53 4v-102l61 -4c23 -1 45 2 65 10c19 7 37 18 52 31s30 31 43 54s25 50 36 83z" />
  </font>
</defs>
</svg>
