<?xml version="1.0" standalone="no"?>
<!DOCTYPE svg PUBLIC "-//W3C//DTD SVG 1.1//EN" "http://www.w3.org/Graphics/SVG/1.1/DTD/svg11.dtd" >
<svg xmlns="http://www.w3.org/2000/svg" xmlns:xlink="http://www.w3.org/1999/xlink" version="1.1">
<metadata>
Created by FontForge 20201107 at Sun Dec 14 20:30:48 2025
 By Unknown
Lounge Bait (c) 1999, Fontalicious Fonts.
</metadata>
<defs>
<font id="LoungeBait" horiz-adv-x="744" >
  <font-face 
    font-family="Lounge Bait"
    font-weight="400"
    font-stretch="normal"
    units-per-em="1000"
    panose-1="2 0 5 3 0 0 0 0 0 0"
    ascent="800"
    descent="-200"
    x-height="498"
    cap-height="674"
    bbox="-146 -264 767 906"
    underline-thickness="20"
    underline-position="-143"
    unicode-range="U+000D-FB02"
  />
<missing-glyph horiz-adv-x="500" 
d="M63 0v800h375v-800h-375zM125 63h250v675h-250v-675z" />
    <glyph glyph-name=".notdef" horiz-adv-x="500" 
d="M63 0v800h375v-800h-375zM125 63h250v675h-250v-675z" />
    <glyph glyph-name=".null" horiz-adv-x="0" 
 />
    <glyph glyph-name="nonmarkingreturn" unicode="&#xd;" horiz-adv-x="133" 
 />
    <glyph glyph-name="space" unicode=" " horiz-adv-x="133" 
 />
    <glyph glyph-name="exclam" unicode="!" horiz-adv-x="151" 
d="M158 677l-35 -24l-33 -483l18 -22l-78 -13l16 35l5 479l-13 47zM152 52c0 -15 -8 -27 -22 -37c-16 -10 -33 -15 -54 -15s-38 5 -54 15c-14 10 -22 22 -22 37s8 27 22 37c16 10 33 15 54 15s38 -5 54 -15c14 -10 22 -22 22 -37z" />
    <glyph glyph-name="quotedbl" unicode="&#x22;" horiz-adv-x="195" 
d="M197 706l-19 -20l-14 -207l12 -37l-77 23l25 29l-13 195l-15 36zM87 472l-66 -30l12 37l-25 200l-8 27l84 9l-16 -29l7 -201z" />
    <glyph glyph-name="numbersign" unicode="#" horiz-adv-x="388" 
d="M399 409l-3 -122l-30 29l-74 -28l16 -75h50l36 13l-10 -117l-25 35l-57 -12l14 -94l15 -30l-104 -21l37 46l-14 100l-61 -2l-12 -99l21 -73l-103 41l42 38l-5 103l-72 8l-52 -17l12 104l40 -26l68 -8l-12 86l-68 12l-55 -5l40 97l27 -29l61 4l-16 122l-31 28l108 37
l-15 -55l12 -117l44 1l24 103l-14 54l119 -38l-58 -33l-22 -93l68 14zM255 295l-71 -2l14 -90l54 17z" />
    <glyph glyph-name="dollar" unicode="$" horiz-adv-x="240" 
d="M254 413l-89 13l23 49c-7 45 -29 67 -65 67c-21 0 -36 -8 -47 -25c-10 -14 -15 -32 -15 -53s5 -36 15 -46c6 -7 19 -14 38 -23l35 -16c22 -10 38 -21 49 -33c19 -21 28 -51 28 -89c0 -35 -6 -66 -18 -92c-15 -34 -38 -53 -69 -57l6 -53l27 -55l-98 20l29 32l7 57
c-30 5 -53 26 -68 61c-9 22 -14 45 -15 70l-27 25l93 20l-24 -40c1 -15 5 -27 10 -38c9 -21 27 -32 52 -32c34 0 51 21 51 63c0 32 -15 55 -46 68l-29 13c-31 14 -53 27 -64 40c-17 21 -25 53 -25 96c0 35 6 66 18 93c16 34 39 54 70 59l-10 63l-29 23l101 32l-18 -59
l-10 -58c55 -7 86 -55 93 -145z" />
    <glyph glyph-name="percent" unicode="%" horiz-adv-x="367" 
d="M383 187c0 -33 -6 -65 -19 -95c-16 -39 -38 -58 -66 -58c-29 0 -51 19 -67 58c-12 30 -18 62 -18 95s6 65 18 94c16 39 38 59 67 59c28 0 50 -20 66 -59c13 -29 19 -61 19 -94zM319 661l-184 -609l37 -52l-104 -16l34 57l123 550l-81 16c19 -31 29 -70 29 -116
c0 -33 -6 -65 -18 -95c-16 -39 -38 -58 -67 -58s-51 19 -67 58c-12 30 -18 62 -18 95s6 65 18 95c16 39 38 58 67 58c16 0 30 -7 43 -21l107 24zM148 488c1 20 -1 39 -7 57c-9 23 -21 35 -38 36s-31 -9 -42 -32c-8 -17 -12 -36 -13 -55c-1 -20 1 -39 8 -57
c8 -23 20 -35 37 -36s31 9 42 32c8 17 12 36 13 55zM338 199c-1 20 -6 39 -14 56c-11 23 -24 33 -41 32s-29 -13 -38 -36c-6 -18 -9 -37 -8 -57c1 -19 6 -38 14 -55c11 -23 24 -34 41 -33s30 14 38 37c7 18 9 37 8 56z" />
    <glyph glyph-name="ampersand" unicode="&#x26;" horiz-adv-x="319" 
d="M342 88l-97 -76l-8 40l-26 57c-13 -26 -25 -45 -36 -57c-19 -21 -42 -32 -67 -32c-39 0 -67 21 -86 63c-14 31 -21 69 -21 114c0 49 8 89 25 122c10 20 29 45 56 75c-25 53 -38 100 -38 141c0 35 6 65 18 92c15 35 38 53 68 53c28 0 49 -16 63 -47c11 -24 17 -52 17 -83
c0 -41 -7 -78 -22 -109c-9 -18 -23 -39 -42 -62l71 -117c1 5 2 15 3 29c-1 -2 -1 0 -1 5l-11 52l105 -33l-31 -20l-32 -75c0 -2 -1 -5 -2 -10l53 -102zM165 499c1 23 -1 43 -6 60s-13 25 -22 25c-9 1 -17 -7 -24 -23s-12 -36 -13 -59s1 -43 6 -60c6 -17 13 -25 22 -25
c9 -1 18 7 25 23s11 36 12 59zM188 162l-81 178c-23 -27 -38 -48 -45 -63c-11 -23 -16 -50 -16 -81c0 -24 5 -46 14 -67c12 -27 29 -40 51 -40c33 0 58 24 77 73z" />
    <glyph glyph-name="quotesingle" unicode="'" horiz-adv-x="89" 
d="M94 708l-19 -30l-7 -224l11 -19l-66 -10l26 35l-7 218l-29 40z" />
    <glyph glyph-name="parenleft" unicode="(" horiz-adv-x="166" 
d="M178 -180l-116 6l19 29c-15 43 -26 75 -32 94c-11 35 -20 67 -26 97c-15 69 -22 139 -22 211c0 87 8 164 23 232c9 38 25 92 49 162l-22 40l102 -8l-49 -39c-20 -70 -33 -123 -39 -159c-12 -64 -18 -138 -18 -222c0 -85 7 -163 20 -233c7 -40 22 -96 43 -169z" />
    <glyph glyph-name="parenright" unicode=")" horiz-adv-x="138" 
d="M141 268c0 -87 -8 -164 -23 -233c-9 -42 -28 -102 -56 -180l7 -52l-64 43l29 19c22 79 37 138 44 176c11 63 17 137 17 222s-7 162 -20 232c-7 40 -22 96 -43 169l-32 15l71 33l-10 -42c17 -49 27 -81 32 -95c11 -35 20 -67 26 -96c15 -68 22 -138 22 -211z" />
    <glyph glyph-name="asterisk" unicode="*" horiz-adv-x="166" 
d="M178 501l-57 -52v34l-29 47l-24 -63l5 -40l-68 51l33 5l31 75l-44 13l-21 -11l16 102l14 -30l43 -28l-19 81l-24 16l92 13l-18 -31l-2 -78l30 15l15 34l17 -93l-19 15l-33 -18l35 -50z" />
    <glyph glyph-name="plus" unicode="+" horiz-adv-x="285" 
d="M306 186l-49 22l-90 10l5 -135l13 -25l-74 -10l19 43l-5 127l-90 -9l-27 -23l-4 135l38 -24l83 -5l-21 143l-23 30l109 23l-18 -55l-5 -141l84 8l37 24z" />
    <glyph glyph-name="comma" unicode="," horiz-adv-x="175" 
d="M187 100c0 -19 -12 -35 -36 -47c0 -45 -3 -77 -9 -97c-6 -21 -20 -35 -43 -42l-17 -5l-5 75l26 -26c9 5 16 18 20 41c1 5 0 12 -2 21c-3 12 -4 19 -5 22v2c-9 -2 -15 -3 -18 -3c-25 0 -46 6 -63 17c-17 12 -26 26 -26 42s9 30 26 42c17 11 38 17 63 17s46 -6 63 -17
c17 -12 26 -26 26 -42z" />
    <glyph glyph-name="hyphen" unicode="-" horiz-adv-x="154" 
d="M159 206l-34 32l-96 -9l-25 -23l6 157l20 -37l108 -7l16 24z" />
    <glyph glyph-name="period" unicode="." horiz-adv-x="163" 
d="M174 94c0 -17 -8 -31 -24 -42c-16 -12 -35 -18 -58 -18s-42 6 -58 18c-16 11 -24 25 -24 42s8 31 24 42c16 12 35 18 58 18s42 -6 58 -18c16 -11 24 -25 24 -42z" />
    <glyph glyph-name="slash" unicode="/" horiz-adv-x="208" 
d="M217 704l-34 -48l-107 -603l23 -47l-94 19l36 34l84 609l-27 20z" />
    <glyph glyph-name="zero" unicode="0" horiz-adv-x="311" 
d="M309 382c1 -78 -6 -148 -23 -209c-25 -93 -66 -141 -125 -142c-49 -1 -88 30 -115 95c-25 59 -39 138 -40 236c-1 86 8 160 28 222c25 79 64 120 117 121c60 1 103 -41 130 -124c17 -55 27 -121 28 -199zM250 492l-114 -258l7 -70l-68 80l32 22l114 320
c-21 47 -48 69 -80 66c-35 -3 -61 -35 -76 -96c-9 -38 -14 -83 -14 -134c0 -21 1 -44 2 -69c4 -63 13 -117 26 -160c22 -73 55 -107 99 -104c36 3 60 35 72 95c9 44 14 92 14 144c0 60 -5 115 -14 164z" />
    <glyph glyph-name="one" unicode="1" horiz-adv-x="222" 
d="M238 0h-29l-155 -8l-40 -5l-8 78l21 -20l62 13l-5 559l-39 -17l-14 -39l-31 111l33 -8l89 16l30 18l-15 -69l20 -564l45 5l36 26v-96z" />
    <glyph glyph-name="two" unicode="2" horiz-adv-x="277" 
d="M294 117l-24 -123l-239 22c2 49 8 92 18 130c5 18 13 34 25 49c3 4 17 18 40 42l46 49c21 21 36 40 45 56c13 25 20 53 20 84c0 29 -4 54 -13 75c-12 29 -30 44 -55 44c-44 0 -68 -44 -72 -133l31 -58l-111 21l36 44c5 133 44 199 117 199c41 0 72 -22 92 -67
c15 -34 23 -75 23 -122c0 -50 -10 -93 -29 -129c-12 -21 -33 -47 -62 -76l-33 -33c-16 -16 -29 -31 -38 -45c-7 -11 -11 -21 -12 -32s-3 -22 -4 -33l152 9z" />
    <glyph glyph-name="three" unicode="3" horiz-adv-x="260" 
d="M259 461c0 -79 -20 -129 -59 -148c31 -23 46 -66 46 -129c0 -111 -37 -167 -112 -167c-41 0 -70 24 -89 72c-13 33 -20 74 -21 123l-14 35l91 -10l-33 -41c5 -71 29 -107 70 -107c21 0 38 12 49 35c9 18 13 39 13 63c0 68 -23 102 -68 102h-10c-9 -1 -24 -1 -44 -2
l-24 -25l-19 116l36 -22h48h9c56 0 84 39 84 117c0 29 -5 55 -16 77c-14 28 -34 42 -61 42c-30 0 -51 -16 -62 -49c-5 -15 -8 -35 -11 -62l26 -44l-91 -20l18 52c4 130 43 195 118 195c45 0 79 -24 101 -72c17 -36 25 -80 25 -131z" />
    <glyph glyph-name="four" unicode="4" horiz-adv-x="308" 
d="M323 155l-36 24l-39 -5l10 -131l20 -37l-128 17l33 28l21 123l-153 -8l-53 -5l54 84l150 382l-26 43l119 -14l-28 -26l-19 -387l43 7l14 26zM220 504l-130 -276l114 15z" />
    <glyph glyph-name="five" unicode="5" horiz-adv-x="276" 
d="M296 576l-50 20l-138 18l-17 -193c19 26 42 39 69 39c39 0 69 -24 90 -73c17 -37 25 -79 25 -124c0 -56 -8 -104 -24 -143c-22 -55 -57 -82 -105 -82c-35 0 -62 18 -82 54c-15 27 -25 61 -29 100l-35 29l101 20l-17 -60c9 -49 32 -74 67 -74c27 0 48 18 62 55
c9 26 14 56 14 89c0 32 -5 61 -14 86c-14 35 -35 52 -62 52c-26 0 -47 -17 -62 -51l22 -24l-86 14l22 15l-26 318l234 11z" />
    <glyph glyph-name="six" unicode="6" horiz-adv-x="237" 
d="M247 459l-92 9l30 37c-9 49 -28 74 -57 74c-52 0 -80 -79 -83 -237c19 51 48 77 85 77c40 0 70 -25 89 -76c14 -36 21 -78 21 -125c0 -50 -8 -95 -24 -136c-21 -55 -53 -82 -96 -82c-49 0 -83 40 -103 120c-11 47 -17 105 -17 173c0 78 5 144 16 199
c20 104 57 156 111 156c63 0 98 -50 104 -150zM203 227c5 91 -17 137 -64 140c-26 1 -46 -15 -61 -49c-10 -24 -16 -52 -17 -83c-2 -33 1 -62 9 -88c11 -37 30 -56 57 -57c25 -1 45 16 59 51c9 25 15 53 17 86z" />
    <glyph glyph-name="seven" unicode="7" horiz-adv-x="317" 
d="M339 619l-60 -54l-146 -526l18 -73l-146 60l37 23l181 507l-163 12l-67 -26l43 113l238 -24z" />
    <glyph glyph-name="eight" unicode="8" horiz-adv-x="237" 
d="M242 199c0 -49 -8 -91 -24 -127c-21 -48 -52 -72 -94 -72c-43 0 -76 23 -98 69c-16 35 -24 77 -24 126c0 77 20 129 60 158c-32 25 -48 66 -48 125c0 42 8 79 23 110c19 41 48 61 86 61c36 0 64 -18 83 -55c16 -30 24 -65 24 -104c0 -60 -15 -105 -45 -136
c15 -13 26 -26 34 -41c15 -29 23 -67 23 -114zM193 470c1 23 -2 44 -10 62c-11 22 -27 34 -48 35c-40 2 -62 -30 -65 -95c-1 -23 2 -44 10 -62c10 -23 26 -35 47 -36s38 10 50 33c10 18 15 39 16 63zM186 204c-2 31 -8 58 -18 79c-15 29 -36 42 -63 41
c-26 -1 -44 -17 -55 -47c-8 -22 -11 -48 -10 -78c2 -31 8 -56 19 -77c15 -28 35 -41 62 -40c26 1 44 16 55 45c8 21 11 47 10 77z" />
    <glyph glyph-name="nine" unicode="9" horiz-adv-x="242" 
d="M247 356c0 -237 -43 -356 -128 -356c-63 0 -98 50 -104 150l-15 39l91 -9l-30 -36c9 -50 28 -75 57 -75c52 0 80 79 83 237c-19 -51 -48 -77 -85 -77c-40 0 -70 25 -89 76c-13 36 -20 78 -20 125c0 51 8 96 23 136c22 55 54 82 96 82c49 0 83 -40 103 -120
c12 -47 18 -105 18 -172zM186 414c1 32 -2 61 -10 87c-11 37 -29 56 -56 57c-26 1 -46 -16 -60 -51c-9 -25 -15 -53 -17 -86c-5 -91 17 -137 65 -139c26 -1 46 15 60 49c10 23 16 51 18 83z" />
    <glyph glyph-name="colon" unicode=":" horiz-adv-x="162" 
d="M174 301c1 -17 -7 -31 -22 -43c-15 -13 -34 -20 -57 -21s-42 3 -59 15c-17 10 -25 24 -26 41s7 31 22 43c15 13 34 20 57 21s42 -3 59 -15c17 -10 25 -24 26 -41zM174 94c0 -17 -8 -31 -24 -42c-16 -12 -35 -18 -58 -18s-42 6 -58 18c-16 11 -24 25 -24 42s8 31 24 42
c16 12 35 18 58 18s42 -6 58 -18c16 -11 24 -25 24 -42z" />
    <glyph glyph-name="semicolon" unicode=";" horiz-adv-x="175" 
d="M174 301c1 -17 -7 -31 -22 -43c-15 -13 -34 -20 -57 -21s-42 3 -59 15c-17 10 -25 24 -26 41s7 31 22 43c15 13 34 20 57 21s42 -3 59 -15c17 -10 25 -24 26 -41zM187 100c0 -19 -12 -35 -36 -47c0 -45 -3 -77 -9 -97c-6 -21 -20 -35 -43 -42l-17 -5l-5 75l26 -26
c9 5 16 18 20 41c1 5 0 12 -2 21c-3 12 -4 19 -5 22v2c-9 -2 -15 -3 -18 -3c-25 0 -46 6 -63 17c-17 12 -26 26 -26 42s9 30 26 42c17 11 38 17 63 17s46 -6 63 -17c17 -12 26 -26 26 -42z" />
    <glyph glyph-name="less" unicode="&#x3c;" horiz-adv-x="314" 
d="M337 394l-57 7l-219 -146l220 -135l44 5l-30 -108l-269 208l-26 -23l2 119l14 -25l248 191z" />
    <glyph glyph-name="equal" unicode="=" horiz-adv-x="299" 
d="M310 393l-10 -105l-31 25l-221 -10l-42 -31l2 144l29 -29l237 -10zM300 94l-28 29l-243 10l-29 -11l19 93l22 -22l226 25l23 19z" />
    <glyph glyph-name="greater" unicode="&#x3e;" horiz-adv-x="314" 
d="M337 202l-26 23l-269 -208l-30 108l44 -5l220 135l-219 146l-57 -7l73 93l248 -191l13 25z" />
    <glyph glyph-name="question" unicode="?" horiz-adv-x="233" 
d="M248 514c0 -31 -5 -59 -14 -84c-6 -15 -19 -41 -39 -76c-24 -42 -36 -88 -37 -137l29 -50l-102 23l29 29c1 64 16 121 45 171l19 35c16 28 24 58 24 90c0 71 -20 107 -61 107c-27 0 -46 -18 -57 -55c-4 -15 -7 -36 -9 -61l36 -43l-106 -14l26 47c1 47 9 88 23 122
c19 48 49 72 88 72c38 0 66 -21 85 -63c14 -33 21 -70 21 -113zM200 79c0 -14 -7 -26 -22 -35s-32 -14 -53 -14s-39 5 -54 14s-22 21 -22 35c0 13 7 25 22 34s33 14 54 14s38 -5 53 -14s22 -21 22 -34z" />
    <glyph glyph-name="at" unicode="@" horiz-adv-x="291" 
d="M294 594c-1 -46 -13 -82 -38 -108c-25 -28 -61 -40 -106 -36c-47 3 -84 22 -111 55c-26 31 -39 71 -38 119c1 46 13 83 38 111s59 40 104 37c50 -4 88 -22 115 -55c25 -31 37 -72 36 -123zM268 606c-1 52 -12 82 -31 91c-27 13 -48 19 -61 19s-28 -2 -47 -8
c-19 -4 -32 -10 -39 -16c-27 -23 -39 -53 -38 -91c1 -41 11 -66 28 -77c11 -7 23 -13 35 -18l-1 1c-5 12 -8 29 -8 52c1 21 3 37 7 48c8 20 19 30 33 30c13 0 23 -9 31 -27c1 1 0 15 -3 42c-1 4 -4 10 -8 18c-4 4 -9 6 -14 6c-15 0 -24 -8 -26 -24l23 -11l-46 -8l9 14
c2 37 15 56 40 56c13 0 23 -4 30 -13c8 -8 12 -17 13 -26c1 -18 1 -49 -1 -94l-4 -70l1 -1c25 5 42 12 52 23c18 19 26 47 25 84zM169 534c7 26 6 48 -3 65c-5 11 -12 17 -20 17c-9 -1 -16 -7 -21 -19c-8 -19 -8 -40 1 -63c5 -13 13 -20 24 -20c8 1 14 7 19 20zM179 501
l-1 13c-3 -8 -6 -14 -9 -19l7 1z" />
    <glyph glyph-name="A" unicode="A" horiz-adv-x="353" 
d="M374 15l-99 7l16 24l-32 173l-137 -5l-36 -176l20 -21l-106 10l33 20l127 611l-43 13l135 13l-31 -29l122 -604zM243 290l-54 256l-53 -260z" />
    <glyph glyph-name="B" unicode="B" horiz-adv-x="319" 
d="M326 239c0 -47 -9 -88 -27 -125c-23 -45 -55 -68 -98 -68h-125v0h-77l51 46l-21 564l-36 36l57 -1v0h154c42 0 72 -22 90 -67c10 -27 15 -58 15 -93c0 -37 -6 -69 -19 -95c-7 -14 -16 -27 -29 -38c43 -29 65 -82 65 -159zM265 521c0 40 -11 68 -33 85c-9 7 -25 11 -48 12
l-82 5l-5 -200h89c21 0 37 5 48 16c21 19 31 46 31 82zM288 243c0 42 -15 74 -45 96c-13 9 -29 14 -49 14h-97l5 -237l100 5c33 1 56 18 69 51c11 27 17 51 17 71z" />
    <glyph glyph-name="C" unicode="C" horiz-adv-x="335" 
d="M359 452l-130 -15l26 42c-9 50 -19 83 -29 98c-16 24 -38 36 -67 36c-25 0 -51 -26 -76 -77c-21 -45 -32 -113 -32 -205c0 -60 13 -121 39 -184c20 -47 49 -71 88 -71c29 0 53 25 72 74c9 25 16 50 19 74l-18 41l85 15l-19 -54c-6 -56 -19 -104 -40 -144
c-29 -55 -67 -83 -115 -83c-63 0 -107 46 -134 137c-18 59 -27 129 -27 210c0 77 10 145 30 204c29 86 75 129 137 129c44 0 79 -21 106 -64c21 -34 35 -76 40 -125z" />
    <glyph glyph-name="D" unicode="D" horiz-adv-x="329" 
d="M336 369c0 -65 -7 -126 -21 -181c-9 -34 -25 -66 -48 -95c-27 -33 -54 -51 -82 -52l-116 -5v0l-67 -5l48 49l-20 567l-45 35l200 -1c21 0 44 -10 68 -31c21 -19 37 -40 47 -63c24 -57 36 -129 36 -218zM282 355c-3 169 -42 252 -116 251l-87 -1l9 -496l87 1
c39 1 68 26 85 77c9 27 16 60 19 101c2 23 3 46 3 67z" />
    <glyph glyph-name="E" unicode="E" horiz-adv-x="314" 
d="M336 584l-37 18l-200 -10l-5 -196l123 5l22 26l-12 -135l-23 25l-110 5l5 -219l157 -5l48 67l-4 -157l-35 13l-188 5v0h-77l47 43l-20 569l-34 34l308 9l30 36z" />
    <glyph glyph-name="F" unicode="F" horiz-adv-x="296" 
d="M316 735l-19 -143l-38 21l-157 9l5 -196l66 7l40 44l-17 -160l-22 28l-67 4l-4 -226l42 -42l-145 -15l53 48l-21 544l-39 44l292 -1z" />
    <glyph glyph-name="G" unicode="G" horiz-adv-x="329" 
d="M350 463l-99 -46l4 52c-9 50 -19 83 -29 98c-16 24 -38 36 -67 36c-25 0 -51 -26 -76 -77c-21 -45 -32 -113 -32 -205c0 -60 13 -121 39 -184c20 -47 49 -71 88 -71c32 0 57 23 74 69c11 30 16 60 13 90l-127 23l-38 -12l33 158l31 -64l181 -80l-28 -34
c-6 -56 -19 -104 -40 -144c-29 -55 -67 -83 -115 -83c-63 0 -107 46 -134 137c-18 59 -27 129 -27 210c0 77 10 145 30 204c29 86 75 129 137 129c44 0 79 -21 106 -64c21 -34 35 -76 40 -125zM159 669v0z" />
    <glyph glyph-name="H" unicode="H" horiz-adv-x="367" 
d="M394 -31l-131 -15l42 53l-29 352l-166 -26l-13 -286l44 -43l-141 -5l50 46l-3 612l-27 35l147 -32l-37 -19l-18 -234l160 -11l-6 253l-40 28l137 8l-45 -40l36 -641z" />
    <glyph glyph-name="I" unicode="I" horiz-adv-x="102" 
d="M104 674l-14 -30l-22 -540l26 -33l-107 2l39 40l-5 517l-18 24z" />
    <glyph glyph-name="J" unicode="J" horiz-adv-x="111" 
d="M117 698l-20 -31l-10 -721c-1 -57 -5 -100 -14 -127c-16 -55 -47 -83 -94 -83c-65 0 -98 60 -98 180v21l-27 40l93 11l-20 -41v-31c0 -71 18 -106 54 -106c25 0 42 16 50 48c5 21 8 58 8 111l-5 677l-20 42z" />
    <glyph glyph-name="K" unicode="K" horiz-adv-x="335" 
d="M358 45l-113 -55l5 36l-150 219l-17 -206l30 -45l-113 9l36 42v585l-32 39l100 15l-21 -41l17 -330l147 328l-26 40l130 1l-37 -40l-174 -374l181 -212z" />
    <glyph glyph-name="L" unicode="L" horiz-adv-x="279" 
d="M299 38l-50 18l-249 -2l44 47l-20 575l-24 34l114 11l-22 -35l6 -573l155 20l24 40z" />
    <glyph glyph-name="M" unicode="M" horiz-adv-x="404" 
d="M408 701l-17 -23l-15 -628l16 -24l-93 -8l22 38l9 361c0 11 0 33 1 65v25l-103 -278l36 -28l-88 -10l17 27v0l-115 304v-20c0 -4 0 -5 0 -2c0 2 0 3 0 2v-14l1 -71l10 -365l15 -23l-104 -1l18 35l15 593l-35 39l133 -2l-44 -49l129 -323l108 335l-33 32z" />
    <glyph glyph-name="N" unicode="N" horiz-adv-x="328" 
d="M345 686l-23 -31l-31 -590l26 -19l-90 -41l16 48l-170 437l10 -453l22 -27l-105 7l35 32l-23 606l-14 28l118 -4l-25 -20l153 -457l16 449l-19 34z" />
    <glyph glyph-name="O" unicode="O" horiz-adv-x="344" 
d="M351 383c1 -83 -8 -155 -28 -218c-29 -91 -77 -137 -143 -138c-57 -1 -101 31 -132 96c-29 60 -45 140 -46 239c-2 87 9 162 32 225c29 80 74 121 135 122c67 1 117 -39 148 -120c21 -55 33 -124 34 -206zM296 390c-4 62 -14 116 -31 163c-25 72 -61 106 -107 103
c-41 -3 -70 -34 -87 -93c-11 -39 -17 -86 -17 -139c0 -22 1 -46 2 -71c5 -66 15 -121 31 -166c25 -71 63 -104 112 -101c42 3 70 35 84 96c11 45 16 93 16 146c0 20 -1 41 -3 62z" />
    <glyph glyph-name="P" unicode="P" horiz-adv-x="280" 
d="M298 506c0 -46 -7 -85 -20 -118c-19 -46 -48 -69 -87 -69l-102 -1l17 -234l37 -28l-143 -16l30 32l-2 582l-35 35l198 2c39 1 68 -22 87 -67c13 -33 20 -72 20 -118zM249 508c-3 77 -29 115 -78 114l-97 -4l9 -235l96 3c49 2 73 43 70 122z" />
    <glyph glyph-name="Q" unicode="Q" horiz-adv-x="345" 
d="M351 355c0 -67 -7 -128 -21 -181c-20 -75 -53 -124 -98 -145l5 -69l46 -48l-126 14l30 26l-9 65c-66 1 -114 46 -145 136c-21 63 -32 135 -32 217s10 151 31 206c30 82 79 123 146 123c61 0 106 -40 137 -120c24 -62 36 -137 36 -224zM296 345c1 19 2 37 2 54
c0 57 -6 106 -17 147c-19 65 -49 98 -91 100c-46 3 -81 -32 -106 -105c-15 -47 -25 -101 -28 -163c-1 -16 -2 -32 -2 -47c0 -59 6 -113 19 -161c15 -61 44 -92 85 -94c4 -1 8 -1 11 0l-30 213l-25 19l122 35l-22 -56l13 -184c11 12 21 28 30 48c22 52 35 117 39 194z" />
    <glyph glyph-name="R" unicode="R" horiz-adv-x="317" 
d="M339 82l-130 -42l17 54l-82 214h-55l17 -234l37 -28l-143 -16l30 32l-2 582l-35 35l198 2c39 1 68 -22 87 -67c13 -33 20 -72 20 -118s-7 -85 -20 -118c-19 -46 -48 -69 -87 -69l98 -190zM249 498c-3 77 -29 115 -78 114l-97 -4l9 -235l96 3c49 2 73 43 70 122z" />
    <glyph glyph-name="S" unicode="S" horiz-adv-x="300" 
d="M319 448l-110 -11l39 49c-7 86 -40 129 -99 129c-31 0 -54 -11 -69 -31c-16 -22 -24 -48 -24 -81c0 -31 5 -55 16 -71s31 -30 60 -42l49 -20c32 -13 54 -27 67 -42c23 -27 35 -68 35 -121c0 -51 -9 -95 -26 -130c-23 -46 -57 -69 -103 -69c-47 0 -82 21 -105 64
c-19 33 -29 76 -30 127l-19 44l100 -13l-33 -36c3 -25 7 -45 13 -60c15 -33 41 -50 76 -50c53 0 80 36 80 108c0 32 -7 55 -22 69c-9 10 -31 22 -65 35l-50 21c-60 25 -90 82 -90 172c0 55 10 100 30 135c25 43 63 65 114 65c49 0 86 -25 111 -74c19 -37 29 -84 30 -139z
" />
    <glyph glyph-name="T" unicode="T" horiz-adv-x="286" 
d="M303 566l-32 39l-100 4l20 -558l17 -32l-109 -9l28 48l5 556l-101 -9l-31 -44l6 120h291z" />
    <glyph glyph-name="U" unicode="U" horiz-adv-x="302" 
d="M316 647l-22 -38l-7 -251c-2 -88 -8 -149 -17 -183c-22 -78 -63 -117 -124 -117s-102 39 -123 117c-11 37 -17 98 -18 183l-5 293l-35 42l110 -4l-16 -31l-5 -337c-1 -44 4 -83 15 -116c7 -23 19 -42 34 -55c15 -14 32 -21 49 -21c34 0 59 27 74 81c7 24 11 61 12 111
l6 285l-24 24z" />
    <glyph glyph-name="V" unicode="V" horiz-adv-x="363" 
d="M368 694l-24 -35l-122 -602l31 -42l-116 15l26 20l-123 610l-39 27l114 15l-22 -39l99 -531l101 543l-8 14z" />
    <glyph glyph-name="W" unicode="W" horiz-adv-x="446" 
d="M478 692l-36 -21l-51 -660l17 -23l-117 13l33 32l-108 334l-129 -322l33 -31l-108 -11l21 30l-34 593l-19 34l99 -10l-35 -28l25 -350c1 -2 1 -26 0 -72c0 -9 0 -13 -1 -14v4c0 2 0 1 0 -3v-30l125 314l-17 26l88 -9l-28 -25l110 -281c0 -3 0 5 -1 24v66l20 401l-19 23z
" />
    <glyph glyph-name="X" unicode="X" horiz-adv-x="341" 
d="M360 32l-108 -19l12 24l-78 264l-102 -238l10 -26l-106 4l39 27l137 278l-117 307l-45 38l112 3l-10 -37l85 -239l64 234l-18 26l116 -16l-34 -21l-106 -306l125 -283z" />
    <glyph glyph-name="Y" unicode="Y" horiz-adv-x="351" 
d="M362 690l-36 -33l-127 -361l10 -237l19 -21l-119 -17l22 28l20 247l-116 294l-35 41l97 16l-11 -32l89 -244l98 296l-15 21z" />
    <glyph glyph-name="Z" unicode="Z" horiz-adv-x="336" 
d="M360 649l-36 -52l-214 -531l188 7l26 44l-11 -126l-328 6l41 47l214 530l-169 -9l-30 -29l6 105z" />
    <glyph glyph-name="bracketleft" unicode="[" horiz-adv-x="176" 
d="M189 -179l-37 15l-106 13l-44 828l138 -16l25 29l15 -100l-43 28l-50 -6l11 -704l38 5l10 34z" />
    <glyph glyph-name="backslash" unicode="\" horiz-adv-x="202" 
d="M217 25l-94 -19l22 47l-106 603l-34 48l119 -16l-27 -20l84 -609z" />
    <glyph glyph-name="bracketright" unicode="]" horiz-adv-x="176" 
d="M189 -166l-137 16l-25 -29l-16 100l44 -28l49 7l-10 703l-39 -5l-10 -34l-43 126l38 -14l106 -14z" />
    <glyph glyph-name="asciicircum" unicode="^" horiz-adv-x="221" 
d="M237 493l-53 -40l-4 22l-40 98l-44 -72l1 -39l-97 43l34 15l74 95l-12 14l76 13l-17 -26l60 -117z" />
    <glyph glyph-name="underscore" unicode="_" horiz-adv-x="443" 
d="M439 18l-37 -154l-29 32l-323 -3l-27 -28l-16 125l48 -17l329 17z" />
    <glyph glyph-name="grave" unicode="`" horiz-adv-x="173" 
d="M185 621l-52 -37v25l-71 88l-22 11l94 22l-13 -17l46 -87z" />
    <glyph glyph-name="a" unicode="a" horiz-adv-x="248" 
d="M241 23l-80 -16l34 44l-4 31c-19 -55 -47 -82 -84 -82c-29 0 -55 22 -76 66c-13 27 -20 68 -20 121c0 55 6 98 18 129c19 51 47 76 83 76c20 0 37 -8 50 -23c8 -9 17 -25 27 -46c1 4 -2 39 -9 104c-3 11 -10 27 -20 46c-9 11 -21 16 -34 16c-29 0 -49 -11 -59 -33
c-3 -7 -5 -17 -7 -29l58 -27l-115 -20l23 36c5 93 38 140 101 140c31 0 55 -10 75 -31c18 -21 29 -43 31 -66c2 -19 3 -44 3 -75c0 -49 -3 -117 -8 -204c-5 -82 -7 -126 -6 -132zM169 132c6 22 9 46 9 72c0 40 -5 71 -16 92c-15 28 -32 42 -51 41c-23 -1 -40 -16 -53 -47
c-7 -15 -10 -38 -10 -69c0 -37 5 -66 14 -88c13 -33 32 -50 58 -49c21 1 37 17 49 48z" />
    <glyph glyph-name="b" unicode="b" horiz-adv-x="234" 
d="M244 249c0 -57 -6 -109 -19 -154c-20 -70 -51 -105 -94 -105c-20 0 -37 9 -50 26c-9 11 -17 27 -26 49l1 -33l31 -37l-87 -12l19 37l-15 676l-18 32l107 -9l-25 -17l-11 -283c19 46 45 69 78 69c43 0 73 -31 92 -94c11 -41 17 -89 17 -145zM209 234c1 39 -1 73 -8 102
c-11 47 -30 70 -57 71c-29 1 -51 -21 -65 -67c-9 -29 -14 -63 -15 -102c-3 -124 20 -187 69 -188c47 -1 73 60 76 184z" />
    <glyph glyph-name="c" unicode="c" horiz-adv-x="226" 
d="M236 247l-12 -21c-10 -115 -47 -173 -111 -173c-41 0 -72 31 -92 93c-13 43 -20 90 -20 143c0 59 7 111 20 157c21 69 53 104 98 104c63 0 99 -57 106 -170l11 -25l-69 9l8 20c-8 57 -28 86 -60 86c-27 0 -45 -21 -56 -64c-7 -32 -11 -71 -11 -118s5 -87 16 -119
c13 -39 32 -59 57 -59c12 0 25 13 39 40c8 15 14 35 18 59l-22 25z" />
    <glyph glyph-name="d" unicode="d" horiz-adv-x="256" 
d="M266 666l-18 -43l-24 -587l19 -25l-80 -16l34 44l-4 31c-19 -55 -47 -82 -84 -82c-39 0 -68 33 -88 98c-13 45 -20 93 -20 144c0 56 7 107 20 152c20 68 51 102 93 102c20 0 37 -8 50 -23c8 -9 17 -24 27 -46l-6 193l-28 33zM187 256c-1 39 -5 74 -13 103
c-13 47 -33 71 -61 70c-30 -1 -50 -26 -61 -75c-7 -30 -10 -66 -9 -107c3 -118 30 -176 79 -175c28 1 47 27 57 78c7 31 9 67 8 106z" />
    <glyph glyph-name="e" unicode="e" horiz-adv-x="245" 
d="M261 211l-28 -53c-6 -34 -16 -64 -31 -89c-21 -36 -49 -54 -85 -54c-33 0 -60 21 -83 64s-34 110 -34 203c0 57 8 109 23 155c21 67 55 100 101 100c21 0 41 -10 60 -29c15 -16 26 -35 34 -58c8 -22 14 -49 17 -80c3 -27 4 -66 4 -119l-192 15c1 -65 8 -111 19 -140
c12 -29 30 -43 55 -43c30 0 52 23 65 68l-35 25zM196 298c1 93 -20 141 -63 144c-25 2 -45 -15 -61 -50c-11 -25 -18 -53 -21 -84z" />
    <glyph glyph-name="f" unicode="f" horiz-adv-x="209" 
d="M224 531l-21 -113l-18 24l-102 4l14 -374l28 -42l-135 -10l39 51v508c0 31 3 55 9 72c11 27 31 40 60 40h8c21 -2 41 -5 60 -8l10 -102l-43 37h-27c-2 1 -4 1 -5 1c-13 0 -21 -6 -24 -19c-1 -4 0 -17 1 -39c2 -28 3 -51 3 -68l100 12z" />
    <glyph glyph-name="g" unicode="g" horiz-adv-x="317" 
d="M322 426l-17 -11l-15 -461c-2 -61 -6 -104 -14 -128c-6 -24 -24 -43 -51 -56c-23 -11 -48 -16 -75 -16c-15 0 -31 3 -48 10c-19 8 -33 18 -42 30c-19 25 -28 69 -29 130v25l-24 39l112 -18l-23 -24v-22c0 -29 4 -52 13 -70c8 -15 21 -25 39 -30c12 -3 23 -5 33 -5
c31 0 51 15 58 45c4 17 6 55 5 114l-1 98c-25 -37 -59 -56 -101 -56c-46 0 -81 19 -106 57c-23 35 -34 82 -34 139c0 53 10 97 30 133c25 45 62 67 110 67c47 0 80 -12 100 -36v14l-21 51zM240 217l-2 35c-1 27 -10 52 -28 74c-16 24 -39 35 -68 34c-34 -1 -59 -18 -74 -51
c-12 -25 -17 -57 -16 -94c3 -89 37 -132 101 -130c32 1 55 17 69 46c13 29 19 58 18 86zM144 416v0z" />
    <glyph glyph-name="h" unicode="h" horiz-adv-x="255" 
d="M263 2l-107 8l29 34l9 269c1 31 -1 56 -7 76c-8 25 -20 38 -35 38c-18 0 -35 -11 -50 -34c-19 -29 -29 -71 -32 -127l-9 -231l26 -32l-80 -1l19 34l-19 678l-29 27l133 -14l-31 -16l-10 -288c11 23 20 40 29 50c14 17 31 25 52 25c38 0 64 -24 78 -72
c5 -19 9 -55 11 -108l9 -286z" />
    <glyph glyph-name="i" unicode="i" horiz-adv-x="136" 
d="M145 590c0 -17 -7 -31 -21 -42s-31 -17 -51 -17s-37 6 -51 17s-21 25 -21 42c0 16 7 30 21 41s31 17 51 17s37 -6 51 -17s21 -25 21 -41zM136 496l-18 -27l-6 -403l16 -19l-86 -18l25 40l-26 382l-40 12z" />
    <glyph glyph-name="j" unicode="j" horiz-adv-x="136" 
d="M145 649c0 -17 -7 -31 -21 -43c-14 -11 -31 -17 -51 -17s-37 6 -51 17c-15 12 -22 26 -22 43s7 31 22 43c14 11 31 17 51 17s37 -6 51 -17c14 -12 21 -26 21 -43zM124 568l-23 -48l-7 -565c0 -35 -3 -60 -9 -76c-11 -29 -30 -44 -58 -44c-3 0 -5 0 -7 1c-5 0 -12 1 -21 2
l-34 103l41 -34c22 1 35 5 40 10c4 5 5 21 4 47l-21 548l-24 20z" />
    <glyph glyph-name="k" unicode="k" horiz-adv-x="335" 
d="M358 45l-113 -55l5 36l-150 219l-17 -206l30 -45l-113 9l36 42v585l-29 51l139 -34l-37 -22l-9 -312l65 178l-8 30l108 -39l-41 -25l-84 -189l181 -212z" />
    <glyph glyph-name="l" unicode="l" horiz-adv-x="102" 
d="M100 696l-13 -47l-4 -635l16 -35l-78 13l18 22l-24 639l-35 24z" />
    <glyph glyph-name="m" unicode="m" horiz-adv-x="403" 
d="M415 10l-86 10l12 27l10 307c1 34 -2 55 -8 64c-9 12 -20 18 -32 18c-17 0 -32 -10 -45 -31c-15 -25 -21 -59 -19 -104l15 -307l21 -29l-93 19l15 28l-2 322c-1 30 -2 51 -5 63c-6 27 -19 40 -39 40c-29 0 -50 -21 -61 -64c-8 -29 -11 -61 -9 -97l9 -235l23 -29l-78 2
l16 30l-29 426l-31 44l104 -5l-15 -31v-47c11 23 20 40 28 50c15 18 31 27 50 27c32 0 55 -25 69 -74c19 49 46 74 79 74c35 0 59 -23 72 -69c7 -27 11 -60 10 -99l-5 -289z" />
    <glyph glyph-name="n" unicode="n" horiz-adv-x="266" 
d="M285 -32l-131 -17l20 34l19 318c2 28 1 48 -2 60c-7 29 -21 44 -42 44c-16 0 -25 0 -26 -1c-9 -5 -15 -9 -19 -12c-7 -6 -13 -13 -17 -22c-7 -15 -12 -31 -15 -48c-1 -10 -2 -19 -1 -28l13 -262l32 -41l-116 5l20 41l15 407l-35 43l99 -10l-26 -29l-6 -39
c23 51 52 77 85 77c37 0 62 -23 75 -70c3 -12 7 -48 11 -109l20 -309z" />
    <glyph glyph-name="o" unicode="o" horiz-adv-x="242" 
d="M246 267c-3 -63 -11 -117 -26 -160c-24 -67 -61 -99 -110 -98c-44 1 -75 34 -93 98c-13 43 -18 92 -16 148c3 60 12 112 27 157c24 67 59 99 106 98c45 -1 76 -33 95 -96c13 -43 19 -92 17 -147zM202 233c-5 65 -10 107 -17 126c-17 45 -40 67 -69 65
c-31 -2 -50 -18 -58 -49c-17 -65 -25 -112 -23 -139c3 -40 5 -66 6 -77c3 -28 8 -49 15 -63c14 -30 35 -44 64 -43c39 3 62 20 69 53c11 55 16 98 13 127z" />
    <glyph glyph-name="p" unicode="p" horiz-adv-x="250" 
d="M255 302c0 -59 -6 -110 -18 -155c-19 -71 -50 -106 -93 -106c-19 0 -36 8 -50 23c-8 9 -17 24 -26 45l24 -206l46 -23l-138 -16l24 37l13 597l-49 44l118 -10l-30 -28l-9 -42c21 51 48 76 81 76c40 0 69 -32 88 -95c13 -42 19 -89 19 -141zM220 271
c6 116 -15 175 -63 178c-47 3 -74 -61 -81 -190c-6 -110 15 -166 62 -169c29 -1 50 23 65 74c9 31 14 66 17 107z" />
    <glyph glyph-name="q" unicode="q" horiz-adv-x="250" 
d="M268 492l-49 -44l13 -597l24 -37l-138 16l46 23l24 206c-10 -21 -19 -36 -27 -45c-13 -15 -30 -23 -49 -23c-43 0 -74 35 -93 106c-12 45 -18 96 -18 155c0 52 6 99 19 141c19 63 48 95 88 95c19 0 37 -9 52 -26c11 -13 20 -29 29 -50l-9 42l-30 28zM180 209
c-7 129 -34 193 -81 190c-48 -3 -69 -62 -63 -178c3 -41 8 -76 17 -107c15 -51 36 -75 64 -74c48 3 69 59 63 169z" />
    <glyph glyph-name="r" unicode="r" horiz-adv-x="177" 
d="M190 412l-31 21c-6 0 -13 0 -20 1h-7c-22 0 -39 -13 -51 -38c-14 -31 -20 -60 -18 -89l17 -201l42 -38l-122 -44l13 37l3 425l-24 31l101 -7l-26 -40l-6 -44c4 20 12 39 24 57c15 23 31 35 47 35c1 0 3 0 4 -1c9 0 19 0 30 -1z" />
    <glyph glyph-name="s" unicode="s" horiz-adv-x="244" 
d="M254 323l-89 13l23 49c-7 45 -29 67 -65 67c-21 0 -36 -8 -47 -25c-10 -14 -15 -32 -15 -53s5 -36 15 -46c6 -7 19 -14 38 -23l35 -16c22 -10 38 -21 49 -33c19 -21 28 -51 28 -89s-7 -70 -20 -97c-18 -35 -44 -52 -78 -52c-40 0 -69 21 -86 62c-9 22 -14 45 -15 70
l-27 25l93 20l-24 -40c1 -15 5 -27 10 -38c9 -21 27 -32 52 -32c34 0 51 21 51 63c0 32 -15 55 -46 68l-29 13c-31 14 -53 27 -64 40c-17 21 -25 53 -25 96c0 41 8 75 23 102c19 35 47 52 84 52c65 0 101 -49 108 -146z" />
    <glyph glyph-name="t" unicode="t" horiz-adv-x="214" 
d="M229 258l-43 26l-100 12c0 -13 -1 -51 -3 -112c-2 -51 -2 -78 -1 -83c3 -12 11 -18 24 -18h5h27l43 37l-10 -102c-19 -3 -39 -5 -60 -8h-8c-29 0 -49 13 -60 40c-6 17 -9 42 -9 73v169l-24 -3l-34 -23l24 88l13 -12h21v288l-39 51l135 -10l-28 -42l-14 -286l101 4l19 24z
" />
    <glyph glyph-name="u" unicode="u" horiz-adv-x="266" 
d="M279 498l-21 -43l-19 -409l19 -41l-93 -13l33 47v37c-17 -55 -45 -83 -82 -83s-63 23 -77 68c-6 20 -10 52 -11 96l-6 236l-26 45l103 23l-21 -37l-5 -260c0 -33 1 -53 2 -59c8 -28 21 -42 39 -42c37 0 61 25 72 74c7 29 10 65 9 109l-2 212l-18 21z" />
    <glyph glyph-name="v" unicode="v" horiz-adv-x="277" 
d="M296 532l-36 -46l-89 -424l29 -40l-104 5l19 27l-85 379l-32 17l104 25l-22 -41l64 -310l70 367l-14 26z" />
    <glyph glyph-name="w" unicode="w" horiz-adv-x="398" 
d="M421 511l-20 -24l-85 -441l28 -34l-107 9l27 25l-50 344l-49 -344l16 -29l-77 -17l11 36l-90 438l-29 31l108 8l-13 -31l39 -356l58 325l-25 19l90 17l-11 -33l59 -326l42 360l-16 43z" />
    <glyph glyph-name="x" unicode="x" horiz-adv-x="291" 
d="M312 22l-75 -19l15 24l-87 176l-55 -177l12 -37l-120 34l45 26l96 199l-72 216l-48 18l103 37l-23 -44l62 -162l49 175l-16 45l109 -40l-25 -8l-91 -236l99 -207z" />
    <glyph glyph-name="y" unicode="y" horiz-adv-x="270" 
d="M289 509l-22 -34c-9 -41 -22 -106 -39 -195c-11 -49 -26 -115 -45 -198c-10 -49 -20 -99 -29 -148c-20 -74 -46 -111 -79 -111c-6 0 -11 0 -14 1c-8 3 -18 6 -29 9l-12 105l29 -37c11 -5 19 -8 25 -8c13 0 22 8 28 25c3 7 9 35 20 84l-91 363l-33 56l130 -38l-33 -24
l46 -283l47 369l-35 43z" />
    <glyph glyph-name="z" unicode="z" horiz-adv-x="296" 
d="M317 472l-41 -47l-165 -337l132 9l45 39l-17 -133l-220 14l-51 -2l51 64l143 346l-115 -8l-38 -34l29 123l171 -19v1z" />
    <glyph glyph-name="braceleft" unicode="{" horiz-adv-x="205" 
d="M220 -68l-31 -89c-67 12 -100 69 -100 171v90c0 16 -3 33 -9 51c-9 31 -26 50 -51 57l-27 -19l20 127l23 -21c11 3 18 9 23 16c3 5 8 15 13 33c5 16 8 42 8 75v72c0 55 7 98 20 131c12 30 42 49 91 56l14 -113l-37 32c-19 -8 -33 -28 -41 -60c-5 -20 -8 -38 -8 -55v-50
c0 -44 -3 -78 -9 -101c-11 -42 -32 -66 -63 -71c31 -5 52 -30 63 -74c6 -24 9 -57 9 -100v-66c0 -68 17 -110 51 -126z" />
    <glyph glyph-name="bar" unicode="|" horiz-adv-x="154" 
d="M165 802l-28 -55l-32 -827l17 -48l-125 16l28 27l18 821l-32 29z" />
    <glyph glyph-name="braceright" unicode="}" horiz-adv-x="205" 
d="M220 193l-28 19c-25 -7 -42 -26 -51 -57c-5 -18 -8 -35 -8 -51v-90c0 -102 -33 -159 -100 -171l-31 89l41 -34c33 16 50 58 50 126v66c0 43 3 76 9 100c11 44 33 69 64 74c-31 5 -53 29 -64 71c-6 23 -9 57 -9 101v50c0 17 -2 35 -7 55c-8 32 -22 52 -41 60l-38 -32
l15 113c48 -7 78 -26 91 -56c13 -33 20 -76 20 -131v-72c0 -33 3 -59 8 -75c5 -18 9 -28 12 -33c5 -7 13 -13 24 -16l23 21z" />
    <glyph glyph-name="asciitilde" unicode="~" horiz-adv-x="344" 
d="M349 650l-49 -8c-41 -48 -75 -72 -101 -72c-10 0 -19 3 -26 10c-5 5 -12 18 -20 41c-6 16 -16 24 -29 24c-9 0 -20 -3 -34 -8c-5 -2 -9 -12 -12 -31l-54 76l51 -8c17 7 34 10 49 10c39 0 63 -21 72 -64c1 -5 2 -9 4 -10c13 2 34 19 63 51c4 15 9 33 16 52z" />
    <glyph glyph-name="dagger" unicode="&#x2020;" horiz-adv-x="276" 
d="M293 289l-79 -33l11 28l-49 62l10 -300l19 -46l-122 9l25 36l5 303l-51 -49l2 -20l-58 39l31 21l113 122l-15 18l75 -23l-17 -14l69 -134z" />
    <glyph glyph-name="cent" unicode="&#xa2;" horiz-adv-x="221" 
d="M236 287l-12 -14c-9 -72 -40 -112 -93 -119l18 -96l25 -72l-152 35l57 43l20 90c-33 5 -59 25 -77 61c-14 29 -21 63 -21 101c0 42 7 79 20 110c17 40 44 63 80 70l-16 93l-58 32l133 40l-23 -81v-84c52 -7 81 -46 88 -117l11 -17l-69 6l8 14c-8 40 -28 60 -60 60
c-27 0 -45 -15 -56 -45c-7 -22 -11 -49 -11 -82c0 -32 5 -59 16 -82c13 -27 32 -40 57 -40c12 0 25 9 39 27c8 11 14 24 18 41l-22 17z" />
    <glyph glyph-name="sterling" unicode="&#xa3;" horiz-adv-x="298" 
d="M319 468l-110 -11l39 49c-7 86 -40 129 -99 129c-18 0 -35 -5 -50 -14c-13 -8 -21 -19 -24 -32c-1 -8 -2 -26 -2 -54l2 -205l32 5l30 28l21 -114l-52 18l-31 1l2 -211l155 20l25 40l21 -135l-50 18l-249 -2l44 47l-7 226l-26 1l-15 -21l-18 82l32 -18l26 4l-6 190
c-3 81 11 132 42 153s48 31 50 32c18 10 35 15 52 15c49 0 86 -25 111 -74c19 -37 29 -84 30 -139z" />
    <glyph glyph-name="section" unicode="&#xa7;" horiz-adv-x="302" 
d="M319 468l-110 -11l39 49c-7 86 -40 129 -99 129c-31 0 -54 -11 -69 -31c-16 -22 -24 -48 -24 -81c0 -21 6 -37 17 -46c22 -11 42 -20 59 -27l49 -20c32 -13 54 -27 67 -42c23 -27 35 -68 35 -121c-21 32 -66 62 -134 89l-50 21c-15 9 -34 23 -56 41c-16 21 -25 32 -26 35
c-5 12 -8 31 -8 56c0 55 10 100 30 135c25 43 63 65 114 65c49 0 86 -25 111 -74c19 -37 29 -84 30 -139zM289 184c0 -51 -9 -95 -26 -130c-23 -46 -57 -69 -102 -69c-47 0 -82 21 -106 64c-18 33 -28 76 -30 127l-19 44l100 -14l-33 -35c3 -25 7 -45 14 -60
c15 -33 40 -50 75 -50c54 0 81 36 81 108c-2 7 -9 20 -22 39c-10 9 -32 21 -66 35l-50 21c-33 13 -53 30 -61 52c-8 20 -10 49 -6 86c33 -33 82 -61 149 -85c18 -9 41 -23 68 -43c13 -16 22 -28 25 -35c6 -13 9 -31 9 -55z" />
    <glyph glyph-name="bullet" unicode="&#x2022;" horiz-adv-x="261" 
d="M266 388c0 -28 -12 -52 -38 -72c-24 -19 -54 -29 -89 -29s-65 10 -91 29c-24 20 -37 44 -37 72s13 52 37 72c26 19 56 29 91 29s65 -10 89 -29c26 -20 38 -44 38 -72z" />
    <glyph glyph-name="paragraph" unicode="&#xb6;" horiz-adv-x="531" 
d="M569 787l-55 -46c3 -7 4 -14 4 -23c0 -30 -13 -57 -38 -82l5 -1c13 -1 19 -8 18 -21l-2 -21c0 -5 -2 -10 -7 -14l-207 -174l-26 -295l57 -67c3 -5 5 -10 5 -15l-2 -20c-1 -13 -9 -19 -22 -18l-205 18c-13 1 -19 9 -18 22l2 20c0 5 2 10 7 13l67 57l26 295l-174 207
c-3 4 -5 9 -5 15l2 21c1 13 9 19 22 18l353 -31l2 2c-2 7 -3 14 -3 22c0 25 9 49 28 71c19 24 39 35 62 35c17 0 30 -7 41 -20l53 44zM485 669c9 15 14 31 14 47c0 27 -11 41 -33 41c-23 0 -42 -13 -58 -39c-10 -16 -15 -32 -15 -47c0 -27 11 -41 34 -41s42 13 58 39z
M454 598l-100 9l-85 -72l-17 6l80 68l-285 25l167 -200c3 -4 5 -9 4 -14l-27 -312c-1 -5 -3 -10 -7 -14l-58 -49l153 -13c-8 7 -19 18 -32 33c-18 20 -27 33 -26 40l27 312c1 5 3 10 7 14zM493 723l-27 -11l-18 22l26 19z" />
    <glyph glyph-name="germandbls" unicode="&#xdf;" horiz-adv-x="316" 
d="M326 239c0 -47 -9 -88 -27 -125c-23 -45 -55 -68 -98 -68h-30l-28 -22l-5 116l23 -23l41 4c33 3 56 20 69 51c11 27 17 51 17 71c0 42 -15 74 -45 96c-11 9 -28 13 -49 14l-32 1l-21 -24l-15 115l27 -23l33 1c21 1 37 7 48 16c21 19 31 46 31 82c0 40 -11 68 -33 85
c-9 7 -25 11 -48 12l-82 5l7 -684l29 -40l-112 9l27 31l-24 717l-36 36l57 -1v0h154c42 0 72 -22 90 -67c10 -27 15 -58 15 -93c0 -37 -6 -69 -19 -95c-7 -14 -16 -27 -29 -38c43 -29 65 -82 65 -159z" />
    <glyph glyph-name="acute" unicode="&#xb4;" horiz-adv-x="138" 
d="M148 754l-22 -11l-71 -88v-25l-52 37l18 5l46 87l-13 17z" />
    <glyph glyph-name="dieresis" unicode="&#xa8;" horiz-adv-x="163" 
d="M175 710c0 -13 -4 -25 -11 -34s-16 -14 -26 -14s-19 5 -26 14s-11 21 -11 34s4 24 11 33s16 14 26 14s19 -5 26 -14s11 -20 11 -33zM87 706c0 -13 -4 -24 -11 -34c-8 -8 -17 -13 -28 -13s-20 5 -28 13c-7 10 -11 21 -11 34s4 24 11 32c8 10 17 14 28 14s20 -4 28 -14
c7 -8 11 -19 11 -32z" />
    <glyph glyph-name="AE" unicode="&#xc6;" horiz-adv-x="547" 
d="M571 562l-37 18l-200 -10l-5 -196l123 5l22 26l-12 -135l-23 24l-110 5l5 -219l157 -4l48 66l-4 -157l-35 14l-188 5v-1h-77l47 43l-2 62l-21 111l-137 -5l-36 -176l20 -21l-106 10l33 20l127 611l-43 13l135 13l-31 -29l48 -235l-7 195l-34 35l308 9l30 35zM243 290
l-54 256l-53 -260z" />
    <glyph glyph-name="Oslash" unicode="&#xd8;" horiz-adv-x="344" 
d="M351 383c1 -83 -8 -155 -28 -218c-29 -91 -77 -137 -143 -138c-57 -1 -101 31 -132 96c-29 60 -45 140 -46 239c-2 87 9 162 32 225c29 80 74 121 135 122c67 1 117 -39 148 -120c21 -55 33 -124 34 -206zM296 390c-3 38 -7 73 -14 104l-131 -261l9 -71l-79 81l37 22
l131 324c-25 47 -55 70 -91 67c-41 -3 -70 -34 -87 -94c-11 -39 -17 -85 -17 -139c0 -21 1 -45 2 -70c5 -66 15 -121 31 -166c25 -71 63 -104 112 -101c47 3 77 46 91 128c9 51 11 109 6 176z" />
    <glyph glyph-name="yen" unicode="&#xa5;" horiz-adv-x="343" 
d="M362 660l-36 -33l-127 -361l2 -40l35 4l23 26l11 -81l-32 13l-35 -7l3 -69l27 2l37 9l-11 -81l-30 22l-21 -1l1 -34l19 -21l-119 -17l22 28l4 41l-35 -1l-19 -21v72l19 -7l38 3l5 64l-39 -8l-28 -23l-15 86l21 -11l65 7l4 45l-116 294l-35 41l97 16l-11 -32l89 -244
l98 296l-15 21z" />
    <glyph glyph-name="ordfeminine" unicode="&#xaa;" horiz-adv-x="531" 
d="M569 787l-55 -46c3 -7 4 -14 4 -23c0 -30 -13 -57 -38 -82l5 -1c13 -1 19 -8 18 -21l-2 -21c0 -5 -2 -10 -7 -14l-207 -174l-26 -295l57 -67c3 -5 5 -10 5 -15l-2 -20c-1 -13 -9 -19 -22 -18l-205 18c-13 1 -19 9 -18 22l2 20c0 5 2 10 7 13l67 57l26 295l-174 207
c-3 4 -5 9 -5 15l2 21c1 13 9 19 22 18l353 -31l2 2c-2 7 -3 14 -3 22c0 25 9 49 28 71c19 24 39 35 62 35c17 0 30 -7 41 -20l53 44zM485 669c9 15 14 31 14 47c0 27 -11 41 -33 41c-23 0 -42 -13 -58 -39c-10 -16 -15 -32 -15 -47c0 -27 11 -41 34 -41s42 13 58 39z
M454 598l-100 9l-85 -72l-17 6l80 68l-285 25l167 -200c3 -4 5 -9 4 -14l-27 -312c-1 -5 -3 -10 -7 -14l-58 -49l153 -13c-8 7 -19 18 -32 33c-18 20 -27 33 -26 40l27 312c1 5 3 10 7 14zM493 723l-27 -11l-18 22l26 19z" />
    <glyph glyph-name="ordmasculine" unicode="&#xba;" horiz-adv-x="531" 
d="M569 787l-55 -46c3 -7 4 -14 4 -23c0 -30 -13 -57 -38 -82l5 -1c13 -1 19 -8 18 -21l-2 -21c0 -5 -2 -10 -7 -14l-207 -174l-26 -295l57 -67c3 -5 5 -10 5 -15l-2 -20c-1 -13 -9 -19 -22 -18l-205 18c-13 1 -19 9 -18 22l2 20c0 5 2 10 7 13l67 57l26 295l-174 207
c-3 4 -5 9 -5 15l2 21c1 13 9 19 22 18l353 -31l2 2c-2 7 -3 14 -3 22c0 25 9 49 28 71c19 24 39 35 62 35c17 0 30 -7 41 -20l53 44zM485 669c9 15 14 31 14 47c0 27 -11 41 -33 41c-23 0 -42 -13 -58 -39c-10 -16 -15 -32 -15 -47c0 -27 11 -41 34 -41s42 13 58 39z
M454 598l-100 9l-85 -72l-17 6l80 68l-285 25l167 -200c3 -4 5 -9 4 -14l-27 -312c-1 -5 -3 -10 -7 -14l-58 -49l153 -13c-8 7 -19 18 -32 33c-18 20 -27 33 -26 40l27 312c1 5 3 10 7 14zM493 723l-27 -11l-18 22l26 19z" />
    <glyph glyph-name="ae" unicode="&#xe6;" horiz-adv-x="434" 
d="M447 211l-28 -53c-6 -34 -16 -64 -30 -89c-21 -36 -50 -54 -86 -54c-31 0 -58 20 -81 60v-27l19 -25l-80 -16l34 44l-4 31c-19 -55 -47 -82 -84 -82c-29 0 -54 22 -76 66c-13 28 -20 69 -20 122c0 55 6 98 18 128c19 51 47 76 83 76c20 0 37 -8 50 -23
c8 -9 17 -23 26 -44l1 11c-1 17 -4 48 -9 91c-3 11 -10 27 -20 46c-9 11 -21 16 -34 16c-29 0 -49 -11 -59 -33c-3 -7 -5 -17 -7 -29l58 -27l-115 -20l23 36c5 93 38 140 101 140c31 0 56 -11 75 -32c10 -11 19 -25 26 -44c21 38 49 57 82 57c21 0 41 -10 60 -29
c15 -16 26 -35 34 -58c9 -22 14 -49 17 -80c3 -27 5 -66 5 -119l-192 15c1 -65 7 -111 18 -140c12 -29 30 -43 55 -43c31 0 52 23 65 68l-35 25zM382 298c1 93 -20 141 -63 144c-25 2 -45 -15 -61 -50c-11 -25 -18 -53 -21 -84zM169 132c6 22 9 46 9 72c0 40 -5 71 -16 92
c-15 28 -32 42 -51 41c-23 -1 -40 -16 -53 -47c-6 -15 -9 -37 -9 -68c0 -37 4 -66 13 -89c13 -33 33 -50 58 -49c21 1 37 17 49 48z" />
    <glyph glyph-name="oslash" unicode="&#xf8;" 
d="M765 340l-72 -267c-5 -18 -14 -33 -29 -43c-14 -12 -30 -17 -48 -17c-7 0 -14 1 -21 3l-264 71c-17 5 -31 14 -43 29c-10 14 -16 30 -16 48c0 5 0 9 1 13l-94 -25c-7 -2 -14 -3 -21 -3c-17 0 -33 5 -48 17c-15 10 -24 25 -29 43l-71 267c-2 7 -3 14 -3 21
c0 18 5 34 17 49c10 14 25 23 42 28l264 71c7 2 14 3 21 3c17 0 33 -6 48 -16c15 -12 24 -26 29 -44l21 -81l259 -69c18 -5 32 -14 43 -28c11 -15 16 -31 16 -49c0 -7 -1 -14 -2 -21zM726 350c1 4 1 8 1 11c0 21 -10 33 -29 38l-237 64l38 -142c2 -7 3 -14 3 -21
c0 -18 -6 -34 -16 -48c-12 -15 -26 -24 -43 -29l-126 -34l-4 -15c-1 -3 -1 -7 -1 -10c0 -21 10 -34 30 -39l263 -70c3 -1 7 -2 11 -2c20 0 33 10 38 30zM461 310l-72 268c-5 20 -18 30 -38 30c-4 0 -8 -1 -11 -2l-264 -70c-19 -5 -29 -18 -29 -39c0 -3 0 -7 1 -10l72 -268
c5 -20 18 -30 38 -30c4 0 8 1 11 2l264 70c19 5 29 18 29 39c0 3 0 7 -1 10zM594 266c-13 0 -23 5 -32 14s-13 21 -13 34s5 25 14 36c9 10 21 15 34 15s23 -5 32 -14s13 -21 13 -34s-5 -25 -14 -35c-9 -11 -21 -16 -34 -16zM358 491c0 -13 -4 -25 -13 -34s-19 -14 -32 -14
c-14 0 -26 5 -35 15c-9 11 -14 23 -14 36s4 25 13 34s20 14 33 14s25 -5 34 -16c9 -10 14 -22 14 -35zM553 111c-13 0 -23 5 -32 15c-9 9 -13 20 -13 33c0 14 4 26 14 36c8 10 20 15 34 15c13 0 23 -5 32 -14s13 -21 13 -34s-5 -25 -14 -36c-9 -10 -21 -15 -34 -15zM399 336
c0 -13 -4 -24 -13 -34c-9 -9 -19 -14 -32 -14s-25 5 -34 16c-9 10 -14 22 -14 35s4 25 13 34s19 14 32 14s25 -5 34 -15s14 -22 14 -36zM213 452c0 -13 -4 -25 -13 -34s-19 -14 -32 -14c-14 0 -26 5 -34 16c-10 10 -14 22 -14 35s4 25 13 34s19 14 32 14s25 -5 34 -15
c9 -11 14 -23 14 -36zM254 297c0 -13 -4 -24 -13 -33s-19 -14 -32 -14s-25 5 -34 15s-14 22 -14 36c0 13 4 24 13 33s19 14 32 14s25 -5 34 -15s14 -22 14 -36z" />
    <glyph glyph-name="questiondown" unicode="&#xbf;" horiz-adv-x="232" 
d="M204 641c0 -13 -7 -25 -22 -34s-32 -14 -53 -14s-39 5 -54 14s-22 21 -22 34c0 14 7 26 22 35s33 14 54 14s38 -5 53 -14s22 -21 22 -35zM248 271l-26 -47c-1 -47 -9 -88 -23 -122c-19 -48 -49 -72 -88 -72c-37 0 -65 21 -84 63c-15 33 -22 70 -22 113c0 31 5 59 14 84
c6 15 19 41 40 76c23 42 36 88 37 137l-30 51l103 -24l-30 -29c-1 -64 -16 -121 -44 -171l-20 -35c-16 -28 -24 -58 -24 -90c0 -71 21 -107 62 -107c27 0 45 18 56 55c5 15 8 36 9 61l-36 43z" />
    <glyph glyph-name="exclamdown" unicode="&#xa1;" horiz-adv-x="147" 
d="M158 644c0 -15 -8 -27 -22 -37c-16 -10 -33 -15 -54 -15s-39 5 -54 15s-22 22 -22 37c0 14 7 26 22 36c15 11 33 16 54 16s38 -5 54 -16c14 -10 22 -22 22 -36zM128 561l-16 -36l-5 -479l13 -46l-120 19l35 23l33 483l-18 23z" />
    <glyph glyph-name="florin" unicode="&#x192;" horiz-adv-x="269" 
d="M288 557l-31 48l-6 5l-11 7c-3 2 -6 3 -11 3c-18 0 -32 -27 -41 -80c-1 -8 -5 -41 -11 -99l52 13l19 31l37 -114l-49 20l-65 -12l-22 -222c-11 -109 -21 -182 -32 -221c-17 -63 -43 -94 -78 -94c-11 0 -21 4 -31 11l-31 147l39 -77v2c9 -8 17 -12 24 -12
c17 0 29 15 37 44c5 18 10 56 16 113l32 309l-35 -8l-25 -37l-15 120l31 -23l51 10c3 29 7 59 10 89c4 35 10 64 18 87c15 48 38 72 69 72c7 0 13 -1 19 -3c8 -7 18 -16 29 -25z" />
    <glyph glyph-name="guillemotleft" unicode="&#xab;" 
d="M765 340l-72 -267c-5 -18 -14 -33 -29 -43c-14 -12 -30 -17 -48 -17c-7 0 -14 1 -21 3l-264 71c-17 5 -31 14 -43 29c-10 14 -16 30 -16 48c0 5 0 9 1 13l-94 -25c-7 -2 -14 -3 -21 -3c-17 0 -33 5 -48 17c-15 10 -24 25 -29 43l-71 267c-2 7 -3 14 -3 21
c0 18 5 34 17 49c10 14 25 23 42 28l264 71c7 2 14 3 21 3c17 0 33 -6 48 -16c15 -12 24 -26 29 -44l21 -81l259 -69c18 -5 32 -14 43 -28c11 -15 16 -31 16 -49c0 -7 -1 -14 -2 -21zM726 350c1 4 1 8 1 11c0 21 -10 33 -29 38l-237 64l38 -142c2 -7 3 -14 3 -21
c0 -18 -6 -34 -16 -48c-12 -15 -26 -24 -43 -29l-126 -34l-4 -15c-1 -3 -1 -7 -1 -10c0 -21 10 -34 30 -39l263 -70c3 -1 7 -2 11 -2c20 0 33 10 38 30zM461 310l-72 268c-5 20 -18 30 -38 30c-4 0 -8 -1 -11 -2l-264 -70c-19 -5 -29 -18 -29 -39c0 -3 0 -7 1 -10l72 -268
c5 -20 18 -30 38 -30c4 0 8 1 11 2l264 70c19 5 29 18 29 39c0 3 0 7 -1 10zM594 266c-13 0 -23 5 -32 14s-13 21 -13 34s5 25 14 36c9 10 21 15 34 15s23 -5 32 -14s13 -21 13 -34s-4 -25 -14 -35c-8 -11 -20 -16 -34 -16zM358 491c0 -13 -4 -25 -13 -34s-19 -14 -32 -14
c-14 0 -26 5 -35 15c-9 11 -14 23 -14 36s4 25 13 34s20 14 33 14s25 -5 34 -16c9 -10 14 -22 14 -35zM553 111c-13 0 -23 5 -32 15c-9 9 -13 20 -13 33c0 14 4 26 14 36c8 10 20 15 34 15c13 0 23 -5 32 -14s13 -21 13 -34s-5 -25 -14 -36c-9 -10 -21 -15 -34 -15zM399 336
c0 -13 -4 -24 -13 -34c-9 -9 -19 -14 -32 -14s-25 5 -34 16c-9 10 -14 22 -14 35s4 25 13 34s19 14 32 14s25 -5 34 -15s14 -22 14 -36zM213 452c0 -13 -4 -25 -13 -34s-19 -14 -32 -14c-14 0 -26 5 -34 16c-10 10 -14 22 -14 35s4 25 13 34s19 14 32 14s25 -5 34 -15
c9 -11 14 -23 14 -36zM254 297c0 -13 -4 -24 -13 -33s-19 -14 -32 -14s-25 5 -34 15s-14 22 -14 36c0 13 4 24 13 33s19 14 32 14s25 -5 34 -15s14 -22 14 -36z" />
    <glyph glyph-name="guillemotright" unicode="&#xbb;" horiz-adv-x="504" 
d="M540 840l-46 -55c6 -10 9 -22 9 -37c0 -26 -8 -50 -24 -72h5c13 1 21 -5 22 -18l1 -21c1 -5 -1 -10 -4 -15l-174 -207l26 -295l67 -56c5 -4 7 -9 7 -14l2 -20c1 -13 -5 -21 -18 -22l-205 -18c-13 -1 -21 6 -22 19l-2 20c-1 5 1 10 5 14l56 67l-26 296l-207 174
c-4 3 -6 8 -7 13l-2 21c-1 13 6 21 19 22l352 31l3 2c-6 10 -9 22 -9 36c0 25 8 49 24 72s35 34 56 34c14 0 26 -5 36 -14l44 53zM478 710c5 12 7 24 7 35c0 32 -12 48 -35 48c-25 0 -44 -16 -57 -49c-5 -12 -7 -24 -7 -36c0 -31 12 -47 35 -47c25 0 44 16 57 49zM460 634
l-100 -9l-72 -85l-17 3l67 80l-286 -25l199 -167c5 -3 7 -8 8 -14l27 -311c1 -6 -1 -11 -5 -15l-49 -58l153 13c-9 5 -21 14 -37 27c-21 17 -31 28 -32 35l-28 312c0 5 2 10 5 15zM476 764l-25 -16l-21 19l22 23z" />
    <glyph glyph-name="ellipsis" unicode="&#x2026;" 
d="M765 340l-72 -267c-5 -18 -14 -33 -29 -43c-14 -12 -30 -17 -48 -17c-7 0 -14 1 -21 3l-264 71c-17 5 -31 14 -43 29c-10 14 -16 30 -16 48c0 5 0 9 1 13l-94 -25c-7 -2 -14 -3 -21 -3c-17 0 -33 5 -48 17c-15 10 -24 25 -29 43l-71 267c-2 7 -3 14 -3 21
c0 18 5 34 17 49c10 14 25 23 42 28l264 71c7 2 14 3 21 3c17 0 33 -6 48 -16c15 -12 24 -26 29 -44l21 -81l259 -69c18 -5 32 -14 43 -28c11 -15 16 -31 16 -49c0 -7 -1 -14 -2 -21zM726 350c1 4 1 8 1 11c0 21 -10 33 -29 38l-237 64l38 -142c2 -7 3 -14 3 -21
c0 -18 -6 -34 -16 -48c-12 -15 -26 -24 -43 -29l-126 -34l-4 -15c-1 -3 -1 -7 -1 -10c0 -21 10 -34 30 -39l263 -70c3 -1 7 -2 11 -2c20 0 33 10 38 30zM461 310l-72 268c-5 20 -18 30 -38 30c-4 0 -8 -1 -11 -2l-264 -70c-19 -5 -29 -18 -29 -39c0 -3 0 -7 1 -10l72 -268
c5 -20 18 -30 38 -30c4 0 8 1 11 2l264 70c19 5 29 18 29 39c0 3 0 7 -1 10zM594 266c-13 0 -23 5 -32 14s-13 21 -13 34s5 25 14 36c9 10 21 15 34 15s23 -5 32 -14s13 -21 13 -34s-5 -25 -14 -35c-9 -11 -21 -16 -34 -16zM358 491c0 -13 -4 -25 -13 -34s-19 -14 -32 -14
c-14 0 -26 5 -35 15c-9 11 -14 23 -14 36s4 25 13 34s20 14 33 14s25 -5 34 -16c9 -10 14 -22 14 -35zM553 111c-13 0 -23 5 -32 15c-9 9 -13 20 -13 33c0 14 4 26 14 36c8 10 20 15 34 15c13 0 23 -5 32 -14s13 -21 13 -34s-5 -25 -14 -36c-9 -10 -21 -15 -34 -15zM399 336
c0 -13 -4 -24 -13 -34c-9 -9 -19 -14 -32 -14s-25 5 -34 16c-9 10 -14 22 -14 35s4 25 13 34s19 14 32 14s25 -5 34 -15s14 -22 14 -36zM213 452c0 -13 -4 -25 -13 -34s-19 -14 -32 -14c-14 0 -26 5 -34 16c-10 10 -14 22 -14 35s4 25 13 34s19 14 32 14s25 -5 34 -15
c9 -11 14 -23 14 -36zM254 297c0 -13 -4 -24 -13 -33s-19 -14 -32 -14s-25 5 -34 15s-14 22 -14 36c0 13 4 24 13 33s19 14 32 14s25 -5 34 -15s14 -22 14 -36z" />
    <glyph glyph-name="OE" unicode="&#x152;" horiz-adv-x="576" 
d="M602 597l-37 17l-200 -9l-5 -196l123 5l22 25l-12 -134l-23 24l-110 5l5 -219l157 -5l48 67l-4 -157l-35 13l-351 -6c-57 -1 -101 31 -132 96c-29 60 -45 140 -46 239c-2 87 9 162 32 225c29 80 74 121 135 122c39 1 71 -12 98 -39l300 24l30 35zM296 390
c-4 62 -14 116 -31 163c-25 72 -61 106 -107 103c-41 -3 -70 -34 -87 -94c-11 -39 -17 -85 -17 -139c0 -21 1 -45 2 -70c5 -66 15 -121 31 -166c25 -71 63 -104 112 -101c42 3 70 35 84 96c11 45 16 93 16 146c0 20 -1 41 -3 62z" />
    <glyph glyph-name="oe" unicode="&#x153;" horiz-adv-x="455" 
d="M467 190l-28 -52c-6 -35 -16 -64 -30 -89c-21 -37 -50 -55 -86 -55c-49 0 -83 40 -102 119c-23 -71 -60 -106 -111 -104c-44 1 -75 34 -93 98c-12 43 -17 92 -16 148c3 60 12 112 27 157c24 67 59 99 106 98c43 -1 75 -32 95 -92c23 66 57 99 101 99c21 0 41 -10 60 -29
c15 -16 26 -35 34 -58s14 -50 17 -81c3 -27 4 -66 4 -118l-192 14c1 -65 8 -111 19 -139c12 -29 30 -43 55 -43c30 0 52 23 65 68l-35 25zM402 278c1 93 -20 141 -63 144c-25 1 -45 -15 -61 -50c-11 -25 -18 -53 -21 -84zM202 233c-5 65 -10 107 -17 126
c-17 45 -40 67 -69 65c-31 -2 -50 -18 -58 -49c-17 -65 -25 -112 -23 -139c3 -40 5 -66 6 -77c3 -28 8 -49 15 -63c14 -30 35 -44 64 -43c39 3 62 20 69 53c11 55 16 98 13 127z" />
    <glyph glyph-name="endash" unicode="&#x2013;" horiz-adv-x="154" 
d="M159 206l-34 32l-96 -9l-25 -23l6 157l20 -37l108 -7l16 24z" />
    <glyph glyph-name="emdash" unicode="&#x2014;" horiz-adv-x="259" 
d="M259 206l-25 23l-196 9l-34 -32l5 137l16 -24l208 7l20 37z" />
    <glyph glyph-name="quotedblleft" unicode="&#x201c;" horiz-adv-x="195" 
d="M197 706l-19 -20l-14 -207l12 -37l-77 23l25 29l-13 195l-15 36zM87 472l-66 -30l12 37l-25 200l-8 27l84 9l-16 -29l7 -201z" />
    <glyph glyph-name="quotedblright" unicode="&#x201d;" horiz-adv-x="195" 
d="M197 706l-19 -20l-14 -207l12 -37l-77 23l25 29l-13 195l-15 36zM87 472l-66 -30l12 37l-25 200l-8 27l84 9l-16 -29l7 -201z" />
    <glyph glyph-name="quoteleft" unicode="&#x2018;" horiz-adv-x="89" 
d="M94 708l-19 -30l-7 -224l11 -19l-66 -10l26 35l-7 218l-29 40z" />
    <glyph glyph-name="quoteright" unicode="&#x2019;" horiz-adv-x="89" 
d="M94 708l-19 -30l-7 -224l11 -19l-66 -10l26 35l-7 218l-29 40z" />
    <glyph glyph-name="fraction" unicode="&#x2044;" horiz-adv-x="504" 
d="M540 840l-46 -55c6 -10 9 -22 9 -37c0 -26 -8 -50 -24 -72h5c13 1 21 -5 22 -18l1 -21c1 -5 -1 -10 -4 -15l-174 -207l26 -295l67 -56c5 -4 7 -9 7 -14l2 -20c1 -13 -5 -21 -18 -22l-205 -18c-13 -1 -21 6 -22 19l-2 20c-1 5 1 10 5 14l56 67l-26 296l-207 174
c-4 3 -6 8 -7 13l-2 21c-1 13 6 21 19 22l352 31l3 2c-6 10 -9 22 -9 36c0 25 8 49 24 72s35 34 56 34c14 0 26 -5 36 -14l44 53zM478 710c5 12 7 24 7 35c0 32 -12 48 -35 48c-25 0 -44 -16 -57 -49c-5 -12 -7 -24 -7 -36c0 -31 12 -47 35 -47c25 0 44 16 57 49zM460 634
l-100 -9l-72 -85l-17 3l67 80l-286 -25l199 -167c5 -3 7 -8 8 -14l27 -311c1 -6 -1 -11 -5 -15l-49 -58l153 13c-9 5 -21 14 -37 27c-21 17 -31 28 -32 35l-28 312c0 5 2 10 5 15zM476 764l-25 -16l-21 19l22 23z" />
    <glyph glyph-name="currency" unicode="&#xa4;" horiz-adv-x="175" 
d="M120 695c27 4 41 11 41 20c0 13 -22 20 -65 20s-65 -7 -65 -20c0 -10 14 -17 43 -20v-11c-49 5 -74 20 -74 43c0 12 9 22 28 31c18 9 40 13 66 13s48 -4 66 -13c19 -9 28 -19 28 -31c0 -22 -23 -36 -68 -42v10z" />
    <glyph glyph-name="guilsinglleft" unicode="&#x2039;" horiz-adv-x="531" 
d="M569 787l-55 -46c3 -7 4 -14 4 -23c0 -30 -13 -57 -38 -82l5 -1c13 -1 19 -8 18 -21l-2 -21c0 -5 -2 -10 -7 -14l-207 -174l-26 -295l57 -67c3 -5 5 -10 5 -15l-2 -20c-1 -13 -9 -19 -22 -18l-205 18c-13 1 -19 9 -18 22l2 20c0 5 2 10 7 13l67 57l26 295l-174 207
c-3 4 -5 9 -5 15l2 21c1 13 9 19 22 18l353 -31l2 2c-2 7 -3 14 -3 22c0 25 9 49 28 71c19 24 39 35 62 35c17 0 30 -7 41 -20l53 44zM485 669c9 15 14 31 14 47c0 27 -11 41 -33 41c-23 0 -42 -13 -58 -39c-10 -16 -15 -32 -15 -47c0 -27 11 -41 34 -41s42 13 58 39z
M454 598l-100 9l-85 -72l-17 6l80 68l-285 25l167 -200c3 -4 5 -9 4 -14l-27 -312c-1 -5 -3 -10 -7 -14l-58 -49l153 -13c-8 7 -19 18 -32 33c-18 20 -27 33 -26 40l27 312c1 5 3 10 7 14zM493 723l-27 -11l-18 22l26 19z" />
    <glyph glyph-name="guilsinglright" unicode="&#x203a;" 
d="M765 340l-72 -267c-5 -18 -14 -33 -29 -43c-14 -12 -30 -17 -48 -17c-7 0 -14 1 -21 3l-264 71c-17 5 -31 14 -43 29c-10 14 -16 30 -16 48c0 5 0 9 1 13l-94 -25c-7 -2 -14 -3 -21 -3c-17 0 -33 5 -48 17c-15 10 -24 25 -29 43l-71 267c-2 7 -3 14 -3 21
c0 18 5 34 17 49c10 14 25 23 42 28l264 71c7 2 14 3 21 3c17 0 33 -6 48 -16c15 -12 24 -26 29 -44l21 -81l259 -69c18 -5 32 -14 43 -28c11 -15 16 -31 16 -49c0 -7 -1 -14 -2 -21zM726 350c1 4 1 8 1 11c0 21 -10 33 -29 38l-237 64l38 -142c2 -7 3 -14 3 -21
c0 -18 -6 -34 -16 -48c-12 -15 -26 -24 -43 -29l-126 -34l-4 -15c-1 -3 -1 -7 -1 -10c0 -21 10 -34 30 -39l263 -70c3 -1 7 -2 11 -2c20 0 33 10 38 30zM461 310l-72 268c-5 20 -18 30 -38 30c-4 0 -8 -1 -11 -2l-264 -70c-19 -5 -29 -18 -29 -39c0 -3 0 -7 1 -10l72 -268
c5 -20 18 -30 38 -30c4 0 8 1 11 2l264 70c19 5 29 18 29 39c0 3 0 7 -1 10zM594 266c-13 0 -23 5 -32 14s-13 21 -13 34s5 25 14 36c9 10 21 15 34 15s23 -5 32 -14s13 -21 13 -34s-5 -25 -14 -35c-9 -11 -21 -16 -34 -16zM358 491c0 -13 -4 -25 -13 -34s-19 -14 -32 -14
c-14 0 -26 5 -35 15c-9 11 -14 23 -14 36s4 25 13 34s20 14 33 14s25 -5 34 -16c9 -10 14 -22 14 -35zM553 111c-13 0 -23 5 -32 15c-9 9 -13 20 -13 33c0 14 4 26 14 36c8 10 20 15 34 15c13 0 23 -5 32 -14s13 -21 13 -34s-5 -25 -14 -36c-9 -10 -21 -15 -34 -15zM399 336
c0 -13 -4 -24 -13 -34c-9 -9 -19 -14 -32 -14s-25 5 -34 16c-9 10 -14 22 -14 35s4 25 13 34s19 14 32 14s25 -5 34 -15s14 -22 14 -36zM213 452c0 -13 -4 -25 -13 -34s-19 -14 -32 -14c-14 0 -26 5 -34 16c-10 10 -14 22 -14 35s4 25 13 34s19 14 32 14s25 -5 34 -15
c9 -11 14 -23 14 -36zM254 297c0 -13 -4 -24 -13 -33s-19 -14 -32 -14s-25 5 -34 15s-14 22 -14 36c0 13 4 24 13 33s19 14 32 14s25 -5 34 -15s14 -22 14 -36z" />
    <glyph glyph-name="fi" unicode="&#xfb01;" horiz-adv-x="241" 
d="M249 483l-18 -27l-6 -403l17 -19l-87 -18l26 40l-27 382l-22 6l-49 2l14 -374l28 -42l-135 -10l39 51v508c0 31 3 55 9 72c11 27 31 40 60 40h8c21 -2 41 -5 60 -8l10 -102l-43 37h-27c-2 1 -4 1 -5 1c-13 0 -21 -6 -24 -19c-1 -4 0 -17 1 -39c2 -28 3 -51 3 -68l100 12
l43 26l-11 -57z" />
    <glyph glyph-name="fl" unicode="&#xfb02;" horiz-adv-x="279" 
d="M274 717l-13 -47l-4 -635l16 -35l-78 13l18 22l-17 449l-12 -65l-18 24l-83 3l14 -374l28 -42l-135 -10l39 51v508c0 31 3 55 9 72c11 27 31 40 60 40h8c21 -2 41 -5 60 -8l10 -102l-43 37h-27c-2 1 -4 1 -5 1c-13 0 -21 -6 -24 -19c-1 -4 0 -17 1 -39c2 -28 3 -51 3 -68
l81 13l33 19l-6 149l-35 23z" />
    <glyph glyph-name="daggerdbl" unicode="&#x2021;" horiz-adv-x="504" 
d="M540 840l-46 -55c6 -10 9 -22 9 -37c0 -26 -8 -50 -24 -72h5c13 1 21 -5 22 -18l1 -21c1 -5 -1 -10 -4 -15l-174 -207l26 -295l67 -56c5 -4 7 -9 7 -14l2 -20c1 -13 -5 -21 -18 -22l-205 -18c-13 -1 -21 6 -22 19l-2 20c-1 5 1 10 5 14l56 67l-26 296l-207 174
c-4 3 -6 8 -7 13l-2 21c-1 13 6 21 19 22l352 31l3 2c-6 10 -9 22 -9 36c0 25 8 49 24 72s35 34 56 34c14 0 26 -5 36 -14l44 53zM478 710c5 12 7 24 7 35c0 32 -12 48 -35 48c-25 0 -44 -16 -57 -49c-5 -12 -7 -24 -7 -36c0 -31 12 -47 35 -47c25 0 44 16 57 49zM460 634
l-100 -9l-72 -85l-17 3l67 80l-286 -25l199 -167c5 -3 7 -8 8 -14l27 -311c1 -6 -1 -11 -5 -15l-49 -58l153 13c-9 5 -21 14 -37 27c-21 17 -31 28 -32 35l-28 312c0 5 2 10 5 15zM476 764l-25 -16l-21 19l22 23z" />
    <glyph glyph-name="periodcentered" unicode="&#xb7;" horiz-adv-x="531" 
d="M569 787l-55 -46c3 -7 4 -14 4 -23c0 -30 -13 -57 -38 -82l5 -1c13 -1 19 -8 18 -21l-2 -21c0 -5 -2 -10 -7 -14l-207 -174l-26 -295l57 -67c3 -5 5 -10 5 -15l-2 -20c-1 -13 -9 -19 -22 -18l-205 18c-13 1 -19 9 -18 22l2 20c0 5 2 10 7 13l67 57l26 295l-174 207
c-3 4 -5 9 -5 15l2 21c1 13 9 19 22 18l353 -31l2 2c-2 7 -3 14 -3 22c0 25 9 49 28 71c19 24 39 35 62 35c17 0 30 -7 41 -20l53 44zM485 669c9 15 14 31 14 47c0 27 -11 41 -33 41c-23 0 -42 -13 -58 -39c-10 -16 -15 -32 -15 -47c0 -27 11 -41 34 -41s42 13 58 39z
M454 598l-100 9l-85 -72l-17 6l80 68l-285 25l167 -200c3 -4 5 -9 4 -14l-27 -312c-1 -5 -3 -10 -7 -14l-58 -49l153 -13c-8 7 -19 18 -32 33c-18 20 -27 33 -26 40l27 312c1 5 3 10 7 14zM493 723l-27 -11l-18 22l26 19z" />
    <glyph glyph-name="quotesinglbase" unicode="&#x201a;" 
d="M765 340l-72 -267c-5 -18 -14 -33 -29 -43c-14 -12 -30 -17 -48 -17c-7 0 -14 1 -21 3l-264 71c-17 5 -31 14 -43 29c-10 14 -16 30 -16 48c0 5 0 9 1 13l-94 -25c-7 -2 -14 -3 -21 -3c-17 0 -33 5 -48 17c-15 10 -24 25 -29 43l-71 267c-2 7 -3 14 -3 21
c0 18 5 34 17 49c10 14 25 23 42 28l264 71c7 2 14 3 21 3c17 0 33 -6 48 -16c15 -12 24 -26 29 -44l21 -81l259 -69c18 -5 32 -14 43 -28c11 -15 16 -31 16 -49c0 -7 -1 -14 -2 -21zM726 350c1 4 1 8 1 11c0 21 -10 33 -29 38l-237 64l38 -142c2 -7 3 -14 3 -21
c0 -18 -6 -34 -16 -48c-12 -15 -26 -24 -43 -29l-126 -34l-4 -15c-1 -3 -1 -7 -1 -10c0 -21 10 -34 30 -39l263 -70c3 -1 7 -2 11 -2c20 0 33 10 38 30zM461 310l-72 268c-5 20 -18 30 -38 30c-4 0 -8 -1 -11 -2l-264 -70c-19 -5 -29 -18 -29 -39c0 -3 0 -7 1 -10l72 -268
c5 -20 18 -30 38 -30c4 0 8 1 11 2l264 70c19 5 29 18 29 39c0 3 0 7 -1 10zM594 266c-13 0 -23 5 -32 14s-13 21 -13 34s5 25 14 36c9 10 21 15 34 15s23 -5 32 -14s13 -21 13 -34s-5 -25 -14 -35c-9 -11 -21 -16 -34 -16zM358 491c0 -13 -4 -25 -13 -34s-19 -14 -32 -14
c-14 0 -26 5 -35 15c-9 11 -14 23 -14 36s4 25 13 34s20 14 33 14s25 -5 34 -16c9 -10 14 -22 14 -35zM553 111c-13 0 -23 5 -32 15c-9 9 -13 20 -13 33c0 14 4 26 14 36c8 10 20 15 34 15c13 0 23 -5 32 -14s13 -21 13 -34s-5 -25 -14 -36c-9 -10 -21 -15 -34 -15zM399 336
c0 -13 -4 -24 -13 -34c-9 -9 -19 -14 -32 -14s-25 5 -34 16c-9 10 -14 22 -14 35s4 25 13 34s19 14 32 14s25 -5 34 -15s14 -22 14 -36zM213 452c0 -13 -4 -25 -13 -34s-19 -14 -32 -14c-14 0 -26 5 -34 16c-10 10 -14 22 -14 35s4 25 13 34s19 14 32 14s25 -5 34 -15
c9 -11 14 -23 14 -36zM254 297c0 -13 -4 -24 -13 -33s-19 -14 -32 -14s-25 5 -34 15s-14 22 -14 36c0 13 4 24 13 33s19 14 32 14s25 -5 34 -15s14 -22 14 -36z" />
    <glyph glyph-name="quotedblbase" unicode="&#x201e;" horiz-adv-x="504" 
d="M540 840l-46 -55c6 -10 9 -22 9 -37c0 -26 -8 -50 -24 -72h5c13 1 21 -5 22 -18l1 -21c1 -5 -1 -10 -4 -15l-174 -207l26 -295l67 -56c5 -4 7 -9 7 -14l2 -20c1 -13 -5 -21 -18 -22l-205 -18c-13 -1 -21 6 -22 19l-2 20c-1 5 1 10 5 14l56 67l-26 296l-207 174
c-4 3 -6 8 -7 13l-2 21c-1 13 6 21 19 22l352 31l3 2c-6 10 -9 22 -9 36c0 25 8 49 24 72s35 34 56 34c14 0 26 -5 36 -14l44 53zM478 710c5 12 7 24 7 35c0 32 -12 48 -35 48c-25 0 -44 -16 -57 -49c-5 -12 -7 -24 -7 -36c0 -31 12 -47 35 -47c25 0 44 16 57 49zM460 634
l-100 -9l-72 -85l-17 3l67 80l-286 -25l199 -167c5 -3 7 -8 8 -14l27 -311c1 -6 -1 -11 -5 -15l-49 -58l153 13c-9 5 -21 14 -37 27c-21 17 -31 28 -32 35l-28 312c0 5 2 10 5 15zM476 764l-25 -16l-21 19l22 23z" />
    <glyph glyph-name="perthousand" unicode="&#x2030;" horiz-adv-x="531" 
d="M569 787l-55 -46c3 -7 4 -14 4 -23c0 -30 -13 -57 -38 -82l5 -1c13 -1 19 -8 18 -21l-2 -21c0 -5 -2 -10 -7 -14l-207 -174l-26 -295l57 -67c3 -5 5 -10 5 -15l-2 -20c-1 -13 -9 -19 -22 -18l-205 18c-13 1 -19 9 -18 22l2 20c0 5 2 10 7 13l67 57l26 295l-174 207
c-3 4 -5 9 -5 15l2 21c1 13 9 19 22 18l353 -31l2 2c-2 7 -3 14 -3 22c0 25 9 49 28 71c19 24 39 35 62 35c17 0 30 -7 41 -20l53 44zM485 669c9 15 14 31 14 47c0 27 -11 41 -33 41c-23 0 -42 -13 -58 -39c-10 -16 -15 -32 -15 -47c0 -27 11 -41 34 -41s42 13 58 39z
M454 598l-100 9l-85 -72l-17 6l80 68l-285 25l167 -200c3 -4 5 -9 4 -14l-27 -312c-1 -5 -3 -10 -7 -14l-58 -49l153 -13c-8 7 -19 18 -32 33c-18 20 -27 33 -26 40l27 312c1 5 3 10 7 14zM493 723l-27 -11l-18 22l26 19z" />
    <glyph glyph-name="dotlessi" unicode="&#x131;" 
d="M765 340l-72 -267c-5 -18 -14 -33 -29 -43c-14 -12 -30 -17 -48 -17c-7 0 -14 1 -21 3l-264 71c-17 5 -31 14 -43 29c-10 14 -16 30 -16 48c0 5 0 9 1 13l-94 -25c-7 -2 -14 -3 -21 -3c-17 0 -33 5 -48 17c-15 10 -24 25 -29 43l-71 267c-2 7 -3 14 -3 21
c0 18 5 34 17 49c10 14 25 23 42 28l264 71c7 2 14 3 21 3c17 0 33 -6 48 -16c15 -12 24 -26 29 -44l21 -81l259 -69c18 -5 32 -14 43 -28c11 -15 16 -31 16 -49c0 -7 -1 -14 -2 -21zM726 350c1 4 1 8 1 11c0 21 -10 33 -29 38l-237 64l38 -142c2 -7 3 -14 3 -21
c0 -18 -6 -34 -16 -48c-12 -15 -26 -24 -43 -29l-126 -34l-4 -15c-1 -3 -1 -7 -1 -10c0 -21 10 -34 30 -39l263 -70c3 -1 7 -2 11 -2c20 0 33 10 38 30zM461 310l-72 268c-5 20 -18 30 -38 30c-4 0 -8 -1 -11 -2l-264 -70c-19 -5 -29 -18 -29 -39c0 -3 0 -7 1 -10l72 -268
c5 -20 18 -30 38 -30c4 0 8 1 11 2l264 70c19 5 29 18 29 39c0 3 0 7 -1 10zM594 266c-13 0 -23 5 -32 14s-13 21 -13 34s5 25 14 36c9 10 21 15 34 15s23 -5 32 -14s13 -21 13 -34s-5 -25 -14 -35c-9 -11 -21 -16 -34 -16zM358 491c0 -13 -4 -25 -13 -34s-19 -14 -32 -14
c-14 0 -26 5 -35 15c-9 11 -14 23 -14 36s4 25 13 34s20 14 33 14s25 -5 34 -16c9 -10 14 -22 14 -35zM553 111c-13 0 -23 5 -32 15c-9 9 -13 20 -13 33c0 14 4 26 14 36c8 10 20 15 34 15c13 0 23 -5 32 -14s13 -21 13 -34s-5 -25 -14 -36c-9 -10 -21 -15 -34 -15zM399 336
c0 -13 -4 -24 -13 -34c-9 -9 -19 -14 -32 -14s-25 5 -34 16c-9 10 -14 22 -14 35s4 25 13 34s19 14 32 14s25 -5 34 -15s14 -22 14 -36zM213 452c0 -13 -4 -25 -13 -34s-19 -14 -32 -14c-14 0 -26 5 -34 16c-10 10 -14 22 -14 35s4 25 13 34s19 14 32 14s25 -5 34 -15
c9 -11 14 -23 14 -36zM254 297c0 -13 -4 -24 -13 -33s-19 -14 -32 -14s-25 5 -34 15s-14 22 -14 36c0 13 4 24 13 33s19 14 32 14s25 -5 34 -15s14 -22 14 -36z" />
    <glyph glyph-name="circumflex" unicode="&#x2c6;" horiz-adv-x="239" 
d="M244 667l-97 -43l1 39l-44 52l-40 -48l-4 -22l-53 40l22 6l60 67l-17 26l76 -13l-12 -14l74 -75z" />
    <glyph glyph-name="tilde" unicode="&#x2dc;" horiz-adv-x="504" 
d="M540 840l-46 -55c6 -10 9 -22 9 -37c0 -26 -8 -50 -24 -72h5c13 1 21 -5 22 -18l1 -21c1 -5 -1 -10 -4 -15l-174 -207l26 -295l67 -56c5 -4 7 -9 7 -14l2 -20c1 -13 -5 -21 -18 -22l-205 -18c-13 -1 -21 6 -22 19l-2 20c-1 5 1 10 5 14l56 67l-26 296l-207 174
c-4 3 -6 8 -7 13l-2 21c-1 13 6 21 19 22l352 31l3 2c-6 10 -9 22 -9 36c0 25 8 49 24 72s35 34 56 34c14 0 26 -5 36 -14l44 53zM478 710c5 12 7 24 7 35c0 32 -12 48 -35 48c-25 0 -44 -16 -57 -49c-5 -12 -7 -24 -7 -36c0 -31 12 -47 35 -47c25 0 44 16 57 49zM460 634
l-100 -9l-72 -85l-17 3l67 80l-286 -25l199 -167c5 -3 7 -8 8 -14l27 -311c1 -6 -1 -11 -5 -15l-49 -58l153 13c-9 5 -21 14 -37 27c-21 17 -31 28 -32 35l-28 312c0 5 2 10 5 15zM476 764l-25 -16l-21 19l22 23z" />
    <glyph glyph-name="macron" unicode="&#xaf;" horiz-adv-x="531" 
d="M569 787l-55 -46c3 -7 4 -14 4 -23c0 -30 -13 -57 -38 -82l5 -1c13 -1 19 -8 18 -21l-2 -21c0 -5 -2 -10 -7 -14l-207 -174l-26 -295l57 -67c3 -5 5 -10 5 -15l-2 -20c-1 -13 -9 -19 -22 -18l-205 18c-13 1 -19 9 -18 22l2 20c0 5 2 10 7 13l67 57l26 295l-174 207
c-3 4 -5 9 -5 15l2 21c1 13 9 19 22 18l353 -31l2 2c-2 7 -3 14 -3 22c0 25 9 49 28 71c19 24 39 35 62 35c17 0 30 -7 41 -20l53 44zM485 669c9 15 14 31 14 47c0 27 -11 41 -33 41c-23 0 -42 -13 -58 -39c-10 -16 -15 -32 -15 -47c0 -27 11 -41 34 -41s42 13 58 39z
M454 598l-100 9l-85 -72l-17 6l80 68l-285 25l167 -200c3 -4 5 -9 4 -14l-27 -312c-1 -5 -3 -10 -7 -14l-58 -49l153 -13c-8 7 -19 18 -32 33c-18 20 -27 33 -26 40l27 312c1 5 3 10 7 14zM493 723l-27 -11l-18 22l26 19z" />
    <glyph glyph-name="breve" unicode="&#x2d8;" horiz-adv-x="241" 
d="M254 661l-34 -15l-74 -75l12 -14l-76 -13l17 26l-60 67l-22 6l53 40l4 -22l40 -48l44 52l-1 39z" />
    <glyph glyph-name="dotaccent" unicode="&#x2d9;" 
d="M765 340l-72 -267c-5 -18 -14 -33 -29 -43c-14 -12 -30 -17 -48 -17c-7 0 -14 1 -21 3l-264 71c-17 5 -31 14 -43 29c-10 14 -16 30 -16 48c0 5 0 9 1 13l-94 -25c-7 -2 -14 -3 -21 -3c-17 0 -33 5 -48 17c-15 10 -24 25 -29 43l-71 267c-2 7 -3 14 -3 21
c0 18 5 34 17 49c10 14 25 23 42 28l264 71c7 2 14 3 21 3c17 0 33 -6 48 -16c15 -12 24 -26 29 -44l21 -81l259 -69c18 -5 32 -14 43 -28c11 -15 16 -31 16 -49c0 -7 -1 -14 -2 -21zM726 350c1 4 1 8 1 11c0 21 -10 33 -29 38l-237 64l38 -142c2 -7 3 -14 3 -21
c0 -18 -6 -34 -16 -48c-12 -15 -26 -24 -43 -29l-126 -34l-4 -15c-1 -3 -1 -7 -1 -10c0 -21 10 -34 30 -39l263 -70c3 -1 7 -2 11 -2c20 0 33 10 38 30zM461 310l-72 268c-5 20 -18 30 -38 30c-4 0 -8 -1 -11 -2l-264 -70c-19 -5 -29 -18 -29 -39c0 -3 0 -7 1 -10l72 -268
c5 -20 18 -30 38 -30c4 0 8 1 11 2l264 70c19 5 29 18 29 39c0 3 0 7 -1 10zM594 266c-13 0 -23 5 -32 14s-13 21 -13 34s5 25 14 36c9 10 21 15 34 15s23 -5 32 -14s13 -21 13 -34s-5 -25 -14 -35c-9 -11 -21 -16 -34 -16zM358 491c0 -13 -4 -25 -13 -34s-19 -14 -32 -14
c-14 0 -26 5 -35 15c-9 11 -14 23 -14 36s4 25 13 34s20 14 33 14s25 -5 34 -16c9 -10 14 -22 14 -35zM553 111c-13 0 -23 5 -32 15c-9 9 -13 20 -13 33c0 14 4 26 14 36c8 10 20 15 34 15c13 0 23 -5 32 -14s13 -21 13 -34s-5 -25 -14 -36c-9 -10 -21 -15 -34 -15zM399 336
c0 -13 -4 -24 -13 -34c-9 -9 -19 -14 -32 -14s-25 5 -34 16c-9 10 -14 22 -14 35s4 25 13 34s19 14 32 14s25 -5 34 -15s14 -22 14 -36zM213 452c0 -13 -4 -25 -13 -34s-19 -14 -32 -14c-14 0 -26 5 -34 16c-10 10 -14 22 -14 35s4 25 13 34s19 14 32 14s25 -5 34 -15
c9 -11 14 -23 14 -36zM254 297c0 -13 -4 -24 -13 -33s-19 -14 -32 -14s-25 5 -34 15s-14 22 -14 36c0 13 4 24 13 33s19 14 32 14s25 -5 34 -15s14 -22 14 -36z" />
    <glyph glyph-name="ring" unicode="&#x2da;" horiz-adv-x="175" 
d="M120 695c27 4 41 11 41 20c0 13 -22 20 -65 20s-65 -7 -65 -20c0 -10 14 -17 43 -20v-11c-49 5 -74 20 -74 43c0 12 9 22 28 31c18 9 40 13 66 13s48 -4 66 -13c19 -9 28 -19 28 -31c0 -22 -23 -36 -68 -42v10z" />
    <glyph glyph-name="cedilla" unicode="&#xb8;" horiz-adv-x="504" 
d="M540 840l-46 -55c6 -10 9 -22 9 -37c0 -26 -8 -50 -24 -72h5c13 1 21 -5 22 -18l1 -21c1 -5 -1 -10 -4 -15l-174 -207l26 -295l67 -56c5 -4 7 -9 7 -14l2 -20c1 -13 -5 -21 -18 -22l-205 -18c-13 -1 -21 6 -22 19l-2 20c-1 5 1 10 5 14l56 67l-26 296l-207 174
c-4 3 -6 8 -7 13l-2 21c-1 13 6 21 19 22l352 31l3 2c-6 10 -9 22 -9 36c0 25 8 49 24 72s35 34 56 34c14 0 26 -5 36 -14l44 53zM478 710c5 12 7 24 7 35c0 32 -12 48 -35 48c-25 0 -44 -16 -57 -49c-5 -12 -7 -24 -7 -36c0 -31 12 -47 35 -47c25 0 44 16 57 49zM460 634
l-100 -9l-72 -85l-17 3l67 80l-286 -25l199 -167c5 -3 7 -8 8 -14l27 -311c1 -6 -1 -11 -5 -15l-49 -58l153 13c-9 5 -21 14 -37 27c-21 17 -31 28 -32 35l-28 312c0 5 2 10 5 15zM476 764l-25 -16l-21 19l22 23z" />
    <glyph glyph-name="hungarumlaut" unicode="&#x2dd;" horiz-adv-x="531" 
d="M569 787l-55 -46c3 -7 4 -14 4 -23c0 -30 -13 -57 -38 -82l5 -1c13 -1 19 -8 18 -21l-2 -21c0 -5 -2 -10 -7 -14l-207 -174l-26 -295l57 -67c3 -5 5 -10 5 -15l-2 -20c-1 -13 -9 -19 -22 -18l-205 18c-13 1 -19 9 -18 22l2 20c0 5 2 10 7 13l67 57l26 295l-174 207
c-3 4 -5 9 -5 15l2 21c1 13 9 19 22 18l353 -31l2 2c-2 7 -3 14 -3 22c0 25 9 49 28 71c19 24 39 35 62 35c17 0 30 -7 41 -20l53 44zM485 669c9 15 14 31 14 47c0 27 -11 41 -33 41c-23 0 -42 -13 -58 -39c-10 -16 -15 -32 -15 -47c0 -27 11 -41 34 -41s42 13 58 39z
M454 598l-100 9l-85 -72l-17 6l80 68l-285 25l167 -200c3 -4 5 -9 4 -14l-27 -312c-1 -5 -3 -10 -7 -14l-58 -49l153 -13c-8 7 -19 18 -32 33c-18 20 -27 33 -26 40l27 312c1 5 3 10 7 14zM493 723l-27 -11l-18 22l26 19z" />
    <glyph glyph-name="ogonek" unicode="&#x2db;" 
d="M765 340l-72 -267c-5 -18 -14 -33 -29 -43c-14 -12 -30 -17 -48 -17c-7 0 -14 1 -21 3l-264 71c-17 5 -31 14 -43 29c-10 14 -16 30 -16 48c0 5 0 9 1 13l-94 -25c-7 -2 -14 -3 -21 -3c-17 0 -33 5 -48 17c-15 10 -24 25 -29 43l-71 267c-2 7 -3 14 -3 21
c0 18 5 34 17 49c10 14 25 23 42 28l264 71c7 2 14 3 21 3c17 0 33 -6 48 -16c15 -12 24 -26 29 -44l21 -81l259 -69c18 -5 32 -14 43 -28c11 -15 16 -31 16 -49c0 -7 -1 -14 -2 -21zM726 350c1 4 1 8 1 11c0 21 -10 33 -29 38l-237 64l38 -142c2 -7 3 -14 3 -21
c0 -18 -6 -34 -16 -48c-12 -15 -26 -24 -43 -29l-126 -34l-4 -15c-1 -3 -1 -7 -1 -10c0 -21 10 -34 30 -39l263 -70c3 -1 7 -2 11 -2c20 0 33 10 38 30zM461 310l-72 268c-5 20 -18 30 -38 30c-4 0 -8 -1 -11 -2l-264 -70c-19 -5 -29 -18 -29 -39c0 -3 0 -7 1 -10l72 -268
c5 -20 18 -30 38 -30c4 0 8 1 11 2l264 70c19 5 29 18 29 39c0 3 0 7 -1 10zM594 266c-13 0 -23 5 -32 14s-13 21 -13 34s5 25 14 36c9 10 21 15 34 15s23 -5 32 -14s13 -21 13 -34s-5 -25 -14 -35c-9 -11 -21 -16 -34 -16zM358 491c0 -13 -4 -25 -13 -34s-19 -14 -32 -14
c-14 0 -26 5 -35 15c-9 11 -14 23 -14 36s4 25 13 34s20 14 33 14s25 -5 34 -16c9 -10 14 -22 14 -35zM553 111c-13 0 -23 5 -32 15c-9 9 -13 20 -13 33c0 14 4 26 14 36c8 10 20 15 34 15c13 0 23 -5 32 -14s13 -21 13 -34s-5 -25 -14 -36c-9 -10 -21 -15 -34 -15zM399 336
c0 -13 -4 -24 -13 -34c-9 -9 -19 -14 -32 -14s-25 5 -34 16c-9 10 -14 22 -14 35s4 25 13 34s19 14 32 14s25 -5 34 -15s14 -22 14 -36zM213 452c0 -13 -4 -25 -13 -34s-19 -14 -32 -14c-14 0 -26 5 -34 16c-10 10 -14 22 -14 35s4 25 13 34s19 14 32 14s25 -5 34 -15
c9 -11 14 -23 14 -36zM254 297c0 -13 -4 -24 -13 -33s-19 -14 -32 -14s-25 5 -34 15s-14 22 -14 36c0 13 4 24 13 33s19 14 32 14s25 -5 34 -15s14 -22 14 -36z" />
    <glyph glyph-name="caron" unicode="&#x2c7;" horiz-adv-x="241" 
d="M254 661l-34 -15l-74 -75l12 -14l-76 -13l17 26l-60 67l-22 6l53 40l4 -22l40 -48l44 52l-1 39z" />
    <glyph glyph-name="Lslash" unicode="&#x141;" horiz-adv-x="279" 
d="M299 38l-50 18l-249 -2l44 47l-11 307l-46 -4l-43 -34l3 129l35 -17l48 11l-6 183l-24 34l114 11l-22 -35l2 -178l75 17l35 41l-35 -182l-32 32l-42 -3l3 -300l155 20l24 40z" />
    <glyph glyph-name="lslash" unicode="&#x142;" horiz-adv-x="504" 
d="M540 840l-46 -55c6 -10 9 -22 9 -37c0 -26 -8 -50 -24 -72h5c13 1 21 -5 22 -18l1 -21c1 -5 -1 -10 -4 -15l-174 -207l26 -295l67 -56c5 -4 7 -9 7 -14l2 -20c1 -13 -5 -21 -18 -22l-205 -18c-13 -1 -21 6 -22 19l-2 20c-1 5 1 10 5 14l56 67l-26 296l-207 174
c-4 3 -6 8 -7 13l-2 21c-1 13 6 21 19 22l352 31l3 2c-6 10 -9 22 -9 36c0 25 8 49 24 72s35 34 56 34c14 0 26 -5 36 -14l44 53zM478 710c5 12 7 24 7 35c0 32 -12 48 -35 48c-25 0 -44 -16 -57 -49c-5 -12 -7 -24 -7 -36c0 -31 12 -47 35 -47c25 0 44 16 57 49zM460 634
l-100 -9l-72 -85l-17 3l67 80l-286 -25l199 -167c5 -3 7 -8 8 -14l27 -311c1 -6 -1 -11 -5 -15l-49 -58l153 13c-9 5 -21 14 -37 27c-21 17 -31 28 -32 35l-28 312c0 5 2 10 5 15zM476 764l-25 -16l-21 19l22 23z" />
    <glyph glyph-name="Eth" unicode="&#xd0;" horiz-adv-x="329" 
d="M336 369c0 -65 -7 -126 -21 -181c-9 -34 -25 -66 -48 -95c-27 -33 -54 -51 -82 -52l-116 -5v0l-67 -5l48 49l-10 268l-29 -6l-19 -31l-33 136l30 -19l49 -3l-8 222l-45 35l200 -1c21 0 44 -10 68 -31c21 -19 37 -40 47 -63c24 -57 36 -129 36 -218zM282 355
c-3 169 -42 252 -116 251l-87 -1l4 -183l45 -3l16 26l20 -87l-32 7l-48 -9l4 -247l87 1c39 1 68 26 85 77c9 27 16 60 19 101c2 23 3 46 3 67z" />
    <glyph glyph-name="eth" unicode="&#xf0;" horiz-adv-x="304" 
d="M316 560l-39 -82l-20 17l-14 4l-19 -463l19 -25l-80 -16l34 44l-4 31c-19 -55 -47 -82 -84 -82c-39 0 -68 33 -88 98c-13 45 -20 93 -20 144c0 56 7 107 20 152c20 68 51 102 93 102c20 0 37 -8 50 -23c8 -9 17 -24 27 -46l-3 99l-45 12l-63 -1l31 80l26 -28l49 -9l-1 40
l-28 33l109 25l-18 -43l-2 -67l44 -8zM187 256c-1 39 -5 74 -13 103c-13 47 -33 71 -61 70c-30 -1 -50 -26 -61 -75c-7 -30 -10 -66 -9 -107c3 -118 30 -176 79 -175c28 1 47 27 57 78c7 31 9 67 8 106z" />
    <glyph glyph-name="Scaron" unicode="&#x160;" horiz-adv-x="300" 
d="M284 821l-34 -15l-74 -75l12 -14l-76 -13l17 26l-50 67l-22 6l53 40l4 -22l30 -48l44 52l-1 39zM319 448l-110 -11l39 49c-7 86 -40 129 -99 129c-31 0 -54 -11 -69 -31c-16 -22 -24 -48 -24 -81c0 -31 5 -55 16 -71s31 -30 60 -42l49 -20c32 -13 54 -27 67 -42
c23 -27 35 -68 35 -121c0 -51 -9 -95 -26 -130c-23 -46 -57 -69 -103 -69c-47 0 -82 21 -105 64c-19 33 -29 76 -30 127l-19 44l100 -13l-33 -36c3 -25 7 -45 13 -60c15 -33 41 -50 76 -50c53 0 80 36 80 108c0 32 -7 55 -22 69c-9 10 -31 22 -65 35l-50 21
c-60 25 -90 82 -90 172c0 55 10 100 30 135c25 43 63 65 114 65c49 0 86 -25 111 -74c19 -37 29 -84 30 -139zM151 7v0z" />
    <glyph glyph-name="scaron" unicode="&#x161;" horiz-adv-x="243" 
d="M254 661l-34 -15l-74 -75l12 -14l-76 -13l17 26l-60 67l-22 6l53 40l4 -22l40 -48l44 52l-1 39zM254 323l-89 13l23 49c-7 45 -29 67 -65 67c-21 0 -36 -8 -47 -25c-10 -14 -15 -32 -15 -53s5 -36 15 -46c6 -7 19 -14 38 -23l35 -16c22 -10 38 -21 49 -33
c19 -21 28 -51 28 -89s-7 -70 -20 -97c-18 -35 -44 -52 -78 -52c-40 0 -69 21 -86 62c-9 22 -14 45 -15 70l-27 25l93 20l-24 -40c1 -15 5 -27 10 -38c9 -21 27 -32 52 -32c34 0 51 21 51 63c0 32 -15 55 -46 68l-29 13c-31 14 -53 27 -64 40c-17 21 -25 53 -25 96
c0 41 8 75 23 102c19 35 47 52 84 52c65 0 101 -49 108 -146z" />
    <glyph glyph-name="Yacute" unicode="&#xdd;" horiz-adv-x="351" 
d="M262 796l-22 -11l-71 -88v-25l-52 37l18 5l46 87l-13 17zM362 690l-36 -33l-127 -361l10 -237l19 -21l-119 -17l22 28l20 247l-116 294l-35 41l97 16l-11 -32l89 -244l98 296l-15 21z" />
    <glyph glyph-name="yacute" unicode="&#xfd;" horiz-adv-x="270" 
d="M215 658l-22 -11l-71 -88v-25l-52 37l18 5l46 87l-13 17zM289 509l-22 -34c-9 -41 -22 -106 -39 -195c-11 -49 -26 -115 -45 -198c-10 -49 -20 -99 -29 -148c-20 -74 -46 -111 -79 -111c-6 0 -11 0 -14 1c-8 3 -18 6 -29 9l-12 105l29 -37c11 -5 19 -8 25 -8
c13 0 22 8 28 25c3 7 9 35 20 84l-91 363l-33 56l130 -38l-33 -24l46 -283l47 369l-35 43z" />
    <glyph glyph-name="Thorn" unicode="&#xde;" horiz-adv-x="531" 
d="M569 787l-55 -46c3 -7 4 -14 4 -23c0 -30 -13 -57 -38 -82l5 -1c13 -1 19 -8 18 -21l-2 -21c0 -5 -2 -10 -7 -14l-207 -174l-26 -295l57 -67c3 -5 5 -10 5 -15l-2 -20c-1 -13 -9 -19 -22 -18l-205 18c-13 1 -19 9 -18 22l2 20c0 5 2 10 7 13l67 57l26 295l-174 207
c-3 4 -5 9 -5 15l2 21c1 13 9 19 22 18l353 -31l2 2c-2 7 -3 14 -3 22c0 25 9 49 28 71c19 24 39 35 62 35c17 0 30 -7 41 -20l53 44zM485 669c9 15 14 31 14 47c0 27 -11 41 -33 41c-23 0 -42 -13 -58 -39c-10 -16 -15 -32 -15 -47c0 -27 11 -41 34 -41s42 13 58 39z
M454 598l-100 9l-85 -72l-17 6l80 68l-285 25l167 -200c3 -4 5 -9 4 -14l-27 -312c-1 -5 -3 -10 -7 -14l-58 -49l153 -13c-8 7 -19 18 -32 33c-18 20 -27 33 -26 40l27 312c1 5 3 10 7 14zM493 723l-27 -11l-18 22l26 19z" />
    <glyph glyph-name="thorn" unicode="&#xfe;" 
d="M765 340l-72 -267c-5 -18 -14 -33 -29 -43c-14 -12 -30 -17 -48 -17c-7 0 -14 1 -21 3l-264 71c-17 5 -31 14 -43 29c-10 14 -16 30 -16 48c0 5 0 9 1 13l-94 -25c-7 -2 -14 -3 -21 -3c-17 0 -33 5 -48 17c-15 10 -24 25 -29 43l-71 267c-2 7 -3 14 -3 21
c0 18 5 34 17 49c10 14 25 23 42 28l264 71c7 2 14 3 21 3c17 0 33 -6 48 -16c15 -12 24 -26 29 -44l21 -81l259 -69c18 -5 32 -14 43 -28c11 -15 16 -31 16 -49c0 -7 -1 -14 -2 -21zM726 350c1 4 1 8 1 11c0 21 -10 33 -29 38l-237 64l38 -142c2 -7 3 -14 3 -21
c0 -18 -6 -34 -16 -48c-12 -15 -26 -24 -43 -29l-126 -34l-4 -15c-1 -3 -1 -7 -1 -10c0 -21 10 -34 30 -39l263 -70c3 -1 7 -2 11 -2c20 0 33 10 38 30zM461 310l-72 268c-5 20 -18 30 -38 30c-4 0 -8 -1 -11 -2l-264 -70c-19 -5 -29 -18 -29 -39c0 -3 0 -7 1 -10l72 -268
c5 -20 18 -30 38 -30c4 0 8 1 11 2l264 70c19 5 29 18 29 39c0 3 0 7 -1 10zM594 266c-13 0 -23 5 -32 14s-13 21 -13 34s5 25 14 36c9 10 21 15 34 15s23 -5 32 -14s13 -21 13 -34s-4 -25 -14 -35c-8 -11 -20 -16 -34 -16zM358 491c0 -13 -4 -25 -13 -34s-19 -14 -32 -14
c-14 0 -26 5 -35 15c-9 11 -14 23 -14 36s4 25 13 34s20 14 33 14s25 -5 34 -16c9 -10 14 -22 14 -35zM553 111c-13 0 -23 5 -32 15c-9 9 -13 20 -13 33c0 14 4 26 14 36c8 10 20 15 34 15c13 0 23 -5 32 -14s13 -21 13 -34s-5 -25 -14 -36c-9 -10 -21 -15 -34 -15zM399 336
c0 -13 -4 -24 -13 -34c-9 -9 -19 -14 -32 -14s-25 5 -34 16c-9 10 -14 22 -14 35s4 25 13 34s19 14 32 14s25 -5 34 -15s14 -22 14 -36zM213 452c0 -13 -4 -25 -13 -34s-19 -14 -32 -14c-14 0 -26 5 -34 16c-10 10 -14 22 -14 35s4 25 13 34s19 14 32 14s25 -5 34 -15
c9 -11 14 -23 14 -36zM254 297c0 -13 -4 -24 -13 -33s-19 -14 -32 -14s-25 5 -34 15s-14 22 -14 36c0 13 4 24 13 33s19 14 32 14s25 -5 34 -15s14 -22 14 -36z" />
    <glyph glyph-name="Zcaron" unicode="&#x17d;" horiz-adv-x="336" 
d="M324 811l-34 -15l-74 -75l12 -14l-76 -13l17 26l-50 67l-22 6l53 40l4 -22l30 -48l44 52l-1 39zM360 649l-36 -52l-214 -531l188 7l26 44l-11 -126l-328 6l41 47l214 530l-169 -9l-30 -29l6 105z" />
    <glyph glyph-name="zcaron" unicode="&#x17e;" horiz-adv-x="296" 
d="M304 661l-34 -15l-74 -75l12 -14l-76 -13l17 26l-60 67l-22 6l53 40l4 -22l40 -48l44 52l-1 39zM317 472l-41 -47l-165 -337l132 9l45 39l-17 -133l-220 14l-51 -2l51 64l143 346l-115 -8l-38 -34l29 123l171 -19v1z" />
    <glyph glyph-name="Adieresis" unicode="&#xc4;" horiz-adv-x="349" 
d="M255 770c0 -13 -4 -25 -11 -34s-16 -14 -26 -14s-19 5 -26 14s-11 21 -11 34s4 24 11 33s16 14 26 14s19 -5 26 -14s11 -20 11 -33zM167 766c0 -13 -4 -24 -11 -34c-8 -8 -17 -13 -28 -13s-20 5 -28 13c-7 10 -11 21 -11 34s4 24 11 32c8 10 17 14 28 14s20 -4 28 -14
c7 -8 11 -19 11 -32zM374 15l-99 7l16 24l-32 173l-137 -5l-36 -176l20 -21l-106 10l33 20l127 611l-43 13l135 13l-31 -29l122 -604zM243 290l-54 256l-53 -260z" />
    <glyph glyph-name="Aring" unicode="&#xc5;" horiz-adv-x="349" 
d="M207 724c27 4 41 11 41 20c0 13 -22 20 -65 20s-65 -7 -65 -20c0 -10 14 -17 43 -20v-11c-49 5 -74 20 -74 43c0 12 9 22 27 31c19 9 41 13 67 13s48 -4 67 -13c18 -9 27 -19 27 -31c0 -22 -23 -36 -68 -42v10zM374 15l-99 7l16 24l-32 173l-137 -5l-36 -176l20 -21
l-106 10l33 20l127 611l-43 13l135 13l-31 -29l122 -604zM243 290l-54 256l-53 -260z" />
    <glyph glyph-name="Ccedilla" unicode="&#xc7;" horiz-adv-x="335" 
d="M359 452l-130 -15l26 42c-9 50 -19 83 -29 98c-16 24 -38 36 -67 36c-25 0 -51 -26 -76 -77c-21 -45 -32 -113 -32 -205c0 -60 13 -121 39 -184c20 -47 49 -71 88 -71c29 0 53 25 72 74c9 25 16 50 19 74l-18 41l85 15l-19 -54c-5 -52 -17 -97 -35 -135
c-25 -52 -57 -82 -98 -90c-1 -35 -4 -62 -9 -80c-6 -20 -20 -33 -43 -40l-17 -6l-5 75l25 -26c9 5 16 19 20 41c1 5 1 11 -1 19c-3 9 -4 14 -5 16c-57 7 -99 54 -124 143c-16 57 -24 125 -24 203c0 77 10 145 30 204c29 86 75 129 137 129c44 0 79 -21 106 -64
c21 -34 35 -76 40 -125zM159 679v0z" />
    <glyph glyph-name="Eacute" unicode="&#xc9;" horiz-adv-x="314" 
d="M245 828l-22 -11l-71 -88v-25l-52 37l18 5l46 87l-13 17zM336 584l-37 18l-200 -10l-5 -196l123 5l22 26l-12 -135l-23 25l-110 5l5 -219l157 -5l48 67l-4 -157l-35 13l-188 5v0h-77l47 43l-20 569l-34 34l308 9l30 36z" />
    <glyph glyph-name="Ntilde" unicode="&#xd1;" horiz-adv-x="329" 
d="M349 776l-49 -8c-41 -48 -75 -72 -101 -72c-10 0 -19 3 -26 10c-5 5 -12 18 -20 40c-6 17 -16 25 -29 25c-9 0 -20 -3 -34 -9c-5 -1 -9 -11 -12 -30l-54 76l51 -9c17 7 34 11 49 11c39 0 63 -21 72 -64c1 -6 2 -10 4 -11c13 2 34 19 63 52c4 15 9 33 16 52zM345 686
l-23 -31l-31 -590l26 -19l-90 -41l16 48l-170 437l10 -453l22 -27l-105 7l35 32l-23 606l-14 28l118 -4l-25 -20l153 -457l16 449l-19 34z" />
    <glyph glyph-name="Odieresis" unicode="&#xd6;" horiz-adv-x="345" 
d="M255 770c0 -13 -4 -25 -11 -34s-16 -14 -26 -14s-19 5 -26 14s-11 21 -11 34s4 24 11 33s16 14 26 14s19 -5 26 -14s11 -20 11 -33zM167 766c0 -13 -4 -24 -11 -34c-8 -8 -17 -13 -28 -13s-20 5 -28 13c-7 10 -11 21 -11 34s4 24 11 32c8 10 17 14 28 14s20 -4 28 -14
c7 -8 11 -19 11 -32zM351 383c1 -83 -8 -155 -28 -218c-29 -91 -77 -137 -143 -138c-57 -1 -101 31 -132 96c-29 60 -45 140 -46 239c-2 87 9 162 32 225c29 80 74 121 135 122c67 1 117 -39 148 -120c21 -55 33 -124 34 -206zM296 390c-4 62 -14 116 -31 163
c-25 72 -61 106 -107 103c-41 -3 -70 -34 -87 -94c-11 -39 -17 -85 -17 -139c0 -21 1 -45 2 -70c5 -66 15 -121 31 -166c25 -71 63 -104 112 -101c47 3 77 46 91 128c9 51 11 109 6 176z" />
    <glyph glyph-name="Udieresis" unicode="&#xdc;" horiz-adv-x="302" 
d="M255 770c0 -13 -4 -25 -11 -34s-16 -14 -26 -14s-19 5 -26 14s-11 21 -11 34s4 24 11 33s16 14 26 14s19 -5 26 -14s11 -20 11 -33zM167 766c0 -13 -4 -24 -11 -34c-8 -8 -17 -13 -28 -13s-20 5 -28 13c-7 10 -11 21 -11 34s4 24 11 32c8 10 17 14 28 14s20 -4 28 -14
c7 -8 11 -19 11 -32zM316 647l-22 -38l-7 -251c-2 -88 -8 -149 -17 -183c-22 -78 -63 -117 -124 -117s-102 39 -123 117c-11 37 -17 98 -18 183l-5 293l-35 42l110 -4l-16 -31l-5 -337c-1 -44 4 -83 15 -116c7 -23 19 -42 34 -55c15 -14 32 -21 49 -21c34 0 59 27 74 81
c7 24 11 61 12 111l6 285l-24 24z" />
    <glyph glyph-name="aacute" unicode="&#xe1;" horiz-adv-x="240" 
d="M235 708l-22 -11l-71 -88v-25l-52 37l18 5l46 87l-13 17zM241 23l-80 -16l34 44l-4 31c-19 -55 -47 -82 -84 -82c-29 0 -55 22 -76 66c-13 27 -20 68 -20 121c0 55 6 98 18 129c19 51 47 76 83 76c20 0 37 -8 50 -23c8 -9 17 -25 27 -46c1 4 -2 39 -9 104
c-3 11 -10 27 -20 46c-9 11 -21 16 -34 16c-29 0 -49 -11 -59 -33c-3 -7 -5 -17 -7 -29l58 -27l-115 -20l23 36c5 93 38 140 101 140c31 0 55 -10 75 -31c18 -21 29 -43 31 -66c2 -19 3 -44 3 -75c0 -49 -3 -117 -8 -204c-5 -82 -7 -126 -6 -132zM169 132c6 22 9 46 9 72
c0 40 -5 71 -16 92c-15 28 -32 42 -51 41c-23 -1 -40 -16 -53 -47c-7 -15 -10 -38 -10 -69c0 -37 5 -66 14 -88c13 -33 32 -50 58 -49c21 1 37 17 49 48z" />
    <glyph glyph-name="agrave" unicode="&#xe0;" horiz-adv-x="239" 
d="M185 621l-52 -37v25l-71 88l-22 11l94 22l-13 -17l46 -87zM241 23l-80 -16l34 44l-4 31c-19 -55 -47 -82 -84 -82c-29 0 -55 22 -76 66c-13 27 -20 68 -20 121c0 55 6 98 18 129c19 51 47 76 83 76c20 0 37 -8 50 -23c8 -9 17 -25 27 -46c1 4 -2 39 -9 104
c-3 11 -10 27 -20 46c-9 11 -21 16 -34 16c-29 0 -49 -11 -59 -33c-3 -7 -5 -17 -7 -29l58 -27l-115 -20l23 36c5 93 38 140 101 140c31 0 55 -10 75 -31c18 -21 29 -43 31 -66c2 -19 3 -44 3 -75c0 -49 -3 -117 -8 -204c-5 -82 -7 -126 -6 -132zM169 132c6 22 9 46 9 72
c0 40 -5 71 -16 92c-15 28 -32 42 -51 41c-23 -1 -40 -16 -53 -47c-7 -15 -10 -38 -10 -69c0 -37 5 -66 14 -88c13 -33 32 -50 58 -49c21 1 37 17 49 48z" />
    <glyph glyph-name="acircumflex" unicode="&#xe2;" horiz-adv-x="242" 
d="M237 607l-53 -40l-4 22l-40 98l-44 -72l1 -39l-97 43l34 15l74 95l-12 14l76 13l-17 -26l60 -117zM241 23l-80 -16l34 44l-4 31c-19 -55 -47 -82 -84 -82c-29 0 -55 22 -76 66c-13 27 -20 68 -20 121c0 55 6 98 18 129c19 51 47 76 83 76c20 0 37 -8 50 -23
c8 -9 17 -25 27 -46c1 4 -2 39 -9 104c-3 11 -10 27 -20 46c-9 11 -21 16 -34 16c-29 0 -49 -11 -59 -33c-3 -7 -5 -17 -7 -29l58 -27l-115 -20l23 36c5 93 38 140 101 140c31 0 55 -10 75 -31c18 -21 29 -43 31 -66c2 -19 3 -44 3 -75c0 -49 -3 -117 -8 -204
c-5 -82 -7 -126 -6 -132zM169 132c6 22 9 46 9 72c0 40 -5 71 -16 92c-15 28 -32 42 -51 41c-23 -1 -40 -16 -53 -47c-7 -15 -10 -38 -10 -69c0 -37 5 -66 14 -88c13 -33 32 -50 58 -49c21 1 37 17 49 48z" />
    <glyph glyph-name="adieresis" unicode="&#xe4;" horiz-adv-x="239" 
d="M215 660c0 -13 -4 -25 -11 -34s-16 -14 -26 -14s-19 5 -26 14s-11 21 -11 34s4 24 11 33s16 14 26 14s19 -5 26 -14s11 -20 11 -33zM127 656c0 -13 -4 -24 -11 -34c-8 -8 -17 -13 -28 -13s-20 5 -28 13c-7 10 -11 21 -11 34s4 24 11 32c8 10 17 14 28 14s20 -4 28 -14
c7 -8 11 -19 11 -32zM241 23l-80 -16l34 44l-4 31c-19 -55 -47 -82 -84 -82c-29 0 -55 22 -76 66c-13 27 -20 68 -20 121c0 55 6 98 18 129c19 51 47 76 83 76c20 0 37 -8 50 -23c8 -9 17 -25 27 -46c1 4 -2 39 -9 104c-3 11 -10 27 -20 46c-9 11 -21 16 -34 16
c-29 0 -49 -11 -59 -33c-3 -7 -5 -17 -7 -29l58 -27l-115 -20l23 36c5 93 38 140 101 140c31 0 55 -10 75 -31c18 -21 29 -43 31 -66c2 -19 3 -44 3 -75c0 -49 -3 -117 -8 -204c-5 -82 -7 -126 -6 -132zM169 132c6 22 9 46 9 72c0 40 -5 71 -16 92c-15 28 -32 42 -51 41
c-23 -1 -40 -16 -53 -47c-7 -15 -10 -38 -10 -69c0 -37 5 -66 14 -88c13 -33 32 -50 58 -49c21 1 37 17 49 48z" />
    <glyph glyph-name="atilde" unicode="&#xe3;" horiz-adv-x="248" 
d="M241 23l-80 -16l34 44l-4 31c-19 -55 -47 -82 -84 -82c-29 0 -55 22 -76 66c-13 27 -20 68 -20 121c0 55 6 98 18 129c19 51 47 76 83 76c20 0 37 -8 50 -23c8 -9 17 -25 27 -46c1 4 -2 39 -9 104c-3 11 -10 27 -20 46c-9 11 -21 16 -34 16c-29 0 -49 -11 -59 -33
c-3 -7 -5 -17 -7 -29l58 -27l-115 -20l23 36c5 93 38 140 101 140c31 0 55 -10 75 -31c18 -21 29 -43 31 -66c2 -19 3 -44 3 -75c0 -49 -3 -117 -8 -204c-5 -82 -7 -126 -6 -132zM169 132c6 22 9 46 9 72c0 40 -5 71 -16 92c-15 28 -32 42 -51 41c-23 -1 -40 -16 -53 -47
c-7 -15 -10 -38 -10 -69c0 -37 5 -66 14 -88c13 -33 32 -50 58 -49c21 1 37 17 49 48z" />
    <glyph glyph-name="aring" unicode="&#xe5;" horiz-adv-x="234" 
d="M147 604c27 4 41 11 41 20c0 13 -22 20 -65 20s-65 -7 -65 -20c0 -10 14 -17 43 -20v-11c-49 5 -74 20 -74 43c0 12 9 22 27 31c19 9 41 13 67 13s48 -4 67 -13c18 -9 27 -19 27 -31c0 -22 -23 -36 -68 -42v10zM241 23l-80 -16l34 44l-4 31c-19 -55 -47 -82 -84 -82
c-29 0 -55 22 -76 66c-13 27 -20 68 -20 121c0 55 6 98 18 129c19 51 47 76 83 76c20 0 37 -8 50 -23c8 -9 17 -25 27 -46c1 4 -2 39 -9 104c-3 11 -10 27 -20 46c-9 11 -21 16 -34 16c-29 0 -49 -11 -59 -33c-3 -7 -5 -17 -7 -29l58 -27l-115 -20l23 36
c5 93 38 140 101 140c31 0 55 -10 75 -31c18 -21 29 -43 31 -66c2 -19 3 -44 3 -75c0 -49 -3 -117 -8 -204c-5 -82 -7 -126 -6 -132zM169 132c6 22 9 46 9 72c0 40 -5 71 -16 92c-15 28 -32 42 -51 41c-23 -1 -40 -16 -53 -47c-7 -15 -10 -38 -10 -69c0 -37 5 -66 14 -88
c13 -33 32 -50 58 -49c21 1 37 17 49 48z" />
    <glyph glyph-name="ccedilla" unicode="&#xe7;" horiz-adv-x="221" 
d="M236 187l-12 -21c-9 -100 -38 -157 -88 -170c-1 -38 -4 -67 -10 -86c-5 -19 -19 -33 -42 -40l-17 -5l-5 75l25 -26c9 5 16 18 21 41c1 5 0 11 -3 20s-4 15 -4 18v0c-37 6 -64 39 -82 99c-12 41 -18 87 -18 137c0 59 7 111 20 157c21 69 53 104 98 104
c63 0 99 -57 106 -170l11 -25l-69 9l8 20c-8 57 -28 86 -60 86c-27 0 -45 -21 -56 -64c-7 -32 -11 -71 -11 -118s5 -87 16 -119c13 -39 32 -59 57 -59c12 0 25 13 39 40c8 15 14 35 18 59l-22 25z" />
    <glyph glyph-name="eacute" unicode="&#xe9;" horiz-adv-x="244" 
d="M235 708l-22 -11l-71 -88v-25l-52 37l18 5l46 87l-13 17zM261 211l-28 -53c-6 -34 -16 -64 -31 -89c-21 -36 -49 -54 -85 -54c-33 0 -60 21 -83 64s-34 110 -34 203c0 57 8 109 23 155c21 67 55 100 101 100c21 0 41 -10 60 -29c15 -16 26 -35 34 -58s14 -49 17 -80
c3 -27 4 -66 4 -119l-192 15c1 -65 8 -111 19 -140c12 -29 30 -43 55 -43c30 0 52 23 65 68l-35 25zM196 298c1 93 -20 141 -63 144c-25 2 -45 -15 -61 -50c-11 -25 -18 -53 -21 -84zM120 538v0z" />
    <glyph glyph-name="egrave" unicode="&#xe8;" horiz-adv-x="245" 
d="M185 621l-52 -37v25l-71 88l-22 11l94 22l-13 -17l46 -87zM261 211l-28 -53c-6 -34 -16 -64 -31 -89c-21 -36 -49 -54 -85 -54c-33 0 -60 21 -83 64s-34 110 -34 203c0 57 8 109 23 155c21 67 55 100 101 100c21 0 41 -10 60 -29c15 -16 26 -35 34 -58s14 -49 17 -80
c3 -27 4 -66 4 -119l-192 15c1 -65 8 -111 19 -140c12 -29 30 -43 55 -43c30 0 52 23 65 68l-35 25zM196 298c1 93 -20 141 -63 144c-25 2 -45 -15 -61 -50c-11 -25 -18 -53 -21 -84zM120 538v0z" />
    <glyph glyph-name="ecircumflex" unicode="&#xea;" horiz-adv-x="243" 
d="M237 607l-53 -40l-4 22l-40 98l-44 -72l1 -39l-97 43l34 15l74 95l-12 14l76 13l-17 -26l60 -117zM261 211l-28 -53c-6 -34 -16 -64 -31 -89c-21 -36 -49 -54 -85 -54c-33 0 -60 21 -83 64s-34 110 -34 203c0 57 8 109 23 155c21 67 55 100 101 100c21 0 41 -10 60 -29
c15 -16 26 -35 34 -58s14 -49 17 -80c3 -27 4 -66 4 -119l-192 15c1 -65 8 -111 19 -140c12 -29 30 -43 55 -43c30 0 52 23 65 68l-35 25zM196 298c1 93 -20 141 -63 144c-25 2 -45 -15 -61 -50c-11 -25 -18 -53 -21 -84zM120 538v0z" />
    <glyph glyph-name="edieresis" unicode="&#xeb;" horiz-adv-x="244" 
d="M205 650c0 -13 -4 -25 -11 -34s-16 -14 -26 -14s-19 5 -26 14s-11 21 -11 34s4 24 11 33s16 14 26 14s19 -5 26 -14s11 -20 11 -33zM117 646c0 -13 -4 -24 -11 -34c-8 -8 -17 -13 -28 -13s-20 5 -28 13c-7 10 -11 21 -11 34s4 24 11 32c8 10 17 14 28 14s20 -4 28 -14
c7 -8 11 -19 11 -32zM261 211l-28 -53c-6 -34 -16 -64 -31 -89c-21 -36 -49 -54 -85 -54c-33 0 -60 21 -83 64s-34 110 -34 203c0 57 8 109 23 155c21 67 55 100 101 100c21 0 41 -10 60 -29c15 -16 26 -35 34 -58s14 -49 17 -80c3 -27 4 -66 4 -119l-192 15
c1 -65 8 -111 19 -140c12 -29 30 -43 55 -43c30 0 52 23 65 68l-35 25zM196 298c1 93 -20 141 -63 144c-25 2 -45 -15 -61 -50c-11 -25 -18 -53 -21 -84zM120 538v0z" />
    <glyph glyph-name="iacute" unicode="&#xed;" horiz-adv-x="163" 
d="M175 648l-22 -11l-71 -88v-25l-52 37l18 5l46 87l-13 17zM136 496l-18 -27l-6 -403l16 -19l-86 -18l25 40l-26 382l-40 12z" />
    <glyph glyph-name="igrave" unicode="&#xec;" horiz-adv-x="160" 
d="M145 531l-52 -37v25l-71 88l-22 11l94 22l-13 -17l46 -87zM166 466l-18 -27l-6 -403l16 -19l-86 -18l25 40l-26 382l-40 12z" />
    <glyph glyph-name="icircumflex" unicode="&#xee;" horiz-adv-x="221" 
d="M237 567l-53 -40l-4 22l-40 98l-44 -72l1 -39l-97 43l34 15l74 95l-12 14l76 13l-17 -26l60 -117zM196 496l-18 -27l-6 -403l16 -19l-86 -18l25 40l-26 382l-40 12z" />
    <glyph glyph-name="idieresis" unicode="&#xef;" horiz-adv-x="154" 
d="M165 610c0 -13 -4 -25 -11 -34s-16 -14 -26 -14s-19 5 -26 14s-11 21 -11 34s4 24 11 33s16 14 26 14s19 -5 26 -14s11 -20 11 -33zM77 606c0 -13 -4 -24 -11 -34c-8 -8 -17 -13 -28 -13s-20 5 -28 13c-7 10 -11 21 -11 34s4 24 11 32c8 10 17 14 28 14s20 -4 28 -14
c7 -8 11 -19 11 -32zM136 496l-18 -27l-6 -403l16 -19l-86 -18l25 40l-26 382l-40 12z" />
    <glyph glyph-name="ntilde" unicode="&#xf1;" horiz-adv-x="311" 
d="M333 596l-49 -8c-41 -48 -75 -72 -101 -72c-10 0 -19 3 -26 10c-5 5 -12 18 -20 41c-6 16 -16 24 -29 24c-9 0 -20 -3 -34 -8c-5 -2 -9 -12 -12 -31l-54 76l51 -8c17 7 34 10 49 10c39 0 63 -21 72 -64c1 -5 2 -9 4 -10c13 2 34 19 63 51c4 15 9 33 16 52zM325 -32
l-131 -17l20 34l19 318c2 28 1 48 -2 60c-7 29 -21 44 -42 44c-16 0 -25 0 -26 -1c-9 -5 -15 -9 -19 -12c-7 -6 -13 -13 -17 -22c-7 -15 -12 -31 -15 -48c-1 -10 -2 -19 -1 -28l13 -262l32 -41l-116 5l20 41l15 407l-35 43l99 -10l-26 -29l-6 -39c23 51 52 77 85 77
c37 0 62 -23 75 -70c3 -12 7 -48 11 -109l20 -309z" />
    <glyph glyph-name="oacute" unicode="&#xf3;" horiz-adv-x="239" 
d="M235 678l-22 -11l-71 -88v-25l-52 37l18 5l46 87l-13 17zM246 267c-3 -63 -11 -117 -26 -160c-24 -67 -61 -99 -110 -98c-44 1 -75 34 -93 98c-13 43 -18 92 -16 148c3 60 12 112 27 157c24 67 59 99 106 98c45 -1 76 -33 95 -96c13 -43 19 -92 17 -147zM202 233
c-5 65 -10 107 -17 126c-17 45 -40 67 -69 65c-31 -2 -50 -18 -58 -49c-17 -65 -25 -112 -23 -139c3 -40 5 -66 6 -77c3 -28 8 -49 15 -63c14 -30 35 -44 64 -43c39 3 62 20 69 53c11 55 16 98 13 127z" />
    <glyph glyph-name="ograve" unicode="&#xf2;" horiz-adv-x="234" 
d="M185 601l-52 -37v25l-71 88l-22 11l94 22l-13 -17l46 -87zM246 287c-3 -63 -11 -117 -26 -160c-24 -67 -61 -99 -110 -98c-44 1 -75 34 -93 98c-13 43 -18 92 -16 148c3 60 12 112 27 157c24 67 59 99 106 98c45 -1 76 -33 95 -96c13 -43 19 -92 17 -147zM202 253
c-5 65 -10 107 -17 126c-17 45 -40 67 -69 65c-31 -2 -50 -18 -58 -49c-17 -65 -25 -112 -23 -139c3 -40 5 -66 6 -77c3 -28 8 -49 15 -63c14 -30 35 -44 64 -43c39 3 62 20 69 53c11 55 16 98 13 127z" />
    <glyph glyph-name="ocircumflex" unicode="&#xf4;" horiz-adv-x="239" 
d="M237 577l-53 -40l-4 22l-40 98l-44 -72l1 -39l-97 43l34 15l74 95l-12 14l76 13l-17 -26l60 -117zM246 267c-3 -63 -11 -117 -26 -160c-24 -67 -61 -99 -110 -98c-44 1 -75 34 -93 98c-13 43 -18 92 -16 148c3 60 12 112 27 157c24 67 59 99 106 98c45 -1 76 -33 95 -96
c13 -43 19 -92 17 -147zM202 233c-5 65 -10 107 -17 126c-17 45 -40 67 -69 65c-31 -2 -50 -18 -58 -49c-17 -65 -25 -112 -23 -139c3 -40 5 -66 6 -77c3 -28 8 -49 15 -63c14 -30 35 -44 64 -43c39 3 62 20 69 53c11 55 16 98 13 127z" />
    <glyph glyph-name="odieresis" unicode="&#xf6;" horiz-adv-x="238" 
d="M215 620c0 -13 -4 -25 -11 -34s-16 -14 -26 -14s-19 5 -26 14s-11 21 -11 34s4 24 11 33s16 14 26 14s19 -5 26 -14s11 -20 11 -33zM127 616c0 -13 -4 -24 -11 -34c-8 -8 -17 -13 -28 -13s-20 5 -28 13c-7 10 -11 21 -11 34s4 24 11 32c8 10 17 14 28 14s20 -4 28 -14
c7 -8 11 -19 11 -32zM246 267c-3 -63 -11 -117 -26 -160c-24 -67 -61 -99 -110 -98c-44 1 -75 34 -93 98c-13 43 -18 92 -16 148c3 60 12 112 27 157c24 67 59 99 106 98c45 -1 76 -33 95 -96c13 -43 19 -92 17 -147zM202 233c-5 65 -10 107 -17 126c-17 45 -40 67 -69 65
c-31 -2 -50 -18 -58 -49c-17 -65 -25 -112 -23 -139c3 -40 5 -66 6 -77c3 -28 8 -49 15 -63c14 -30 35 -44 64 -43c39 3 62 20 69 53c11 55 16 98 13 127z" />
    <glyph glyph-name="otilde" unicode="&#xf5;" horiz-adv-x="305" 
d="M327 610l-49 -8c-41 -48 -75 -72 -101 -72c-10 0 -19 3 -26 10c-5 5 -12 18 -20 41c-6 16 -16 24 -29 24c-9 0 -20 -3 -34 -8c-5 -2 -9 -12 -12 -31l-54 76l51 -8c17 7 34 10 49 10c39 0 63 -21 72 -64c1 -5 2 -9 4 -10c13 2 34 19 63 51c4 15 9 33 16 52zM286 267
c-3 -63 -11 -117 -26 -160c-24 -67 -61 -99 -110 -98c-44 1 -75 34 -93 98c-13 43 -18 92 -16 148c3 60 12 112 27 157c24 67 59 99 106 98c45 -1 76 -33 95 -96c13 -43 19 -92 17 -147zM242 233c-5 65 -10 107 -17 126c-17 45 -40 67 -69 65c-31 -2 -50 -18 -58 -49
c-17 -65 -25 -112 -23 -139c3 -40 5 -66 6 -77c3 -28 8 -49 15 -63c14 -30 35 -44 64 -43c39 3 62 20 69 53c11 55 16 98 13 127z" />
    <glyph glyph-name="uacute" unicode="&#xfa;" horiz-adv-x="270" 
d="M235 648l-22 -11l-71 -88v-25l-52 37l18 5l46 87l-13 17zM279 498l-21 -43l-19 -409l19 -41l-93 -13l33 47v37c-17 -55 -45 -83 -82 -83s-63 23 -77 68c-6 20 -10 52 -11 96l-6 236l-26 45l103 23l-21 -37l-5 -260c0 -33 1 -53 2 -59c8 -28 21 -42 39 -42
c37 0 61 25 72 74c7 29 10 65 9 109l-2 212l-18 21z" />
    <glyph glyph-name="ugrave" unicode="&#xf9;" horiz-adv-x="265" 
d="M185 561l-52 -37v25l-71 88l-22 11l94 22l-13 -17l46 -87zM279 498l-21 -43l-19 -409l19 -41l-93 -13l33 47v37c-17 -55 -45 -83 -82 -83s-63 23 -77 68c-6 20 -10 52 -11 96l-6 236l-26 45l103 23l-21 -37l-5 -260c0 -33 1 -53 2 -59c8 -28 21 -42 39 -42
c37 0 61 25 72 74c7 29 10 65 9 109l-2 212l-18 21z" />
    <glyph glyph-name="ucircumflex" unicode="&#xfb;" horiz-adv-x="271" 
d="M247 547l-53 -40l-4 22l-40 98l-44 -72l1 -39l-97 43l34 15l74 95l-12 14l76 13l-17 -26l60 -117zM279 498l-21 -43l-19 -409l19 -41l-93 -13l33 47v37c-17 -55 -45 -83 -82 -83s-63 23 -77 68c-6 20 -10 52 -11 96l-6 236l-26 45l103 23l-21 -37l-5 -260
c0 -33 1 -53 2 -59c8 -28 21 -42 39 -42c37 0 61 25 72 74c7 29 10 65 9 109l-2 212l-18 21z" />
    <glyph glyph-name="udieresis" unicode="&#xfc;" horiz-adv-x="271" 
d="M215 570c0 -13 -4 -25 -11 -34s-16 -14 -26 -14s-19 5 -26 14s-11 21 -11 34s4 24 11 33s16 14 26 14s19 -5 26 -14s11 -20 11 -33zM127 566c0 -13 -4 -24 -11 -34c-8 -8 -17 -13 -28 -13s-20 5 -28 13c-7 10 -11 21 -11 34s4 24 11 32c8 10 17 14 28 14s20 -4 28 -14
c7 -8 11 -19 11 -32zM279 498l-21 -43l-19 -409l19 -41l-93 -13l33 47v37c-17 -55 -45 -83 -82 -83s-63 23 -77 68c-6 20 -10 52 -11 96l-6 236l-26 45l103 23l-21 -37l-5 -260c0 -33 1 -53 2 -59c8 -28 21 -42 39 -42c37 0 61 25 72 74c7 29 10 65 9 109l-2 212l-18 21z
" />
    <glyph glyph-name="degree" unicode="&#xb0;" horiz-adv-x="175" 
d="M120 695c27 4 41 11 41 20c0 13 -22 20 -65 20s-65 -7 -65 -20c0 -10 14 -17 43 -20v-11c-49 5 -74 20 -74 43c0 12 9 22 28 31c18 9 40 13 66 13s48 -4 66 -13c19 -9 28 -19 28 -31c0 -22 -23 -36 -68 -42v10z" />
    <glyph glyph-name="registered" unicode="&#xae;" horiz-adv-x="296" 
d="M294 594c-1 -69 -27 -114 -77 -135l21 -37l20 -15l-52 -17l6 22l-18 40c-13 -3 -28 -3 -44 -2c-3 0 -5 0 -8 1l2 -47l15 -11l-57 -7l12 13v57c-37 11 -66 31 -85 62s-29 66 -28 106c1 46 13 83 38 111s59 40 104 37c50 -4 88 -22 115 -55c25 -31 37 -72 36 -123zM201 604
c-1 31 -11 46 -31 45l-38 -1l3 -94l39 1c19 1 28 17 27 49zM268 606c-1 52 -12 82 -31 91c-27 13 -48 19 -61 19s-28 -2 -47 -8c-19 -4 -32 -10 -39 -16c-27 -23 -39 -53 -38 -91c1 -41 11 -66 28 -77c11 -7 22 -12 34 -17l-1 155l-14 14l79 1c29 1 43 -24 43 -74
s-14 -75 -43 -75l16 -28c23 5 39 12 49 22c18 19 26 47 25 84zM174 496l-15 32h-21l1 -31c9 -3 17 -4 23 -3z" />
    <glyph glyph-name="copyright" unicode="&#xa9;" horiz-adv-x="291" 
d="M294 594c-1 -46 -13 -82 -38 -108c-25 -28 -61 -40 -106 -36c-47 3 -84 22 -111 55c-26 31 -39 71 -38 119c1 46 13 83 38 111s59 40 104 37c50 -4 88 -22 115 -55c25 -31 37 -72 36 -123zM268 606c-1 52 -12 82 -31 91c-27 13 -48 19 -61 19s-28 -2 -47 -8
c-19 -4 -32 -10 -39 -16c-27 -23 -39 -53 -38 -91c1 -41 11 -66 28 -77c7 -4 15 -8 23 -12c-7 19 -11 45 -11 77c0 25 6 50 18 75c11 26 28 39 49 39c33 0 53 -25 58 -76l18 -15l-52 -6l10 17c-3 20 -7 33 -11 39c-7 9 -16 14 -27 14c-10 0 -20 -10 -29 -28
c-9 -20 -14 -41 -14 -65c0 -17 5 -38 15 -63c5 -13 13 -21 22 -25c5 -1 9 -2 13 -1l15 2c5 4 9 12 14 25c4 10 7 20 8 30l-7 16l34 6l-8 -22c-2 -18 -6 -34 -12 -49c17 5 29 11 37 20c18 19 26 47 25 84z" />
    <glyph glyph-name="trademark" unicode="&#x2122;" horiz-adv-x="240" 
d="M247 447l-34 4l5 11l4 123c0 13 -2 22 -4 26c-4 4 -7 6 -12 6c-19 0 -27 -18 -26 -54l6 -122l8 -12l-37 8l6 11l-1 129c0 27 -6 41 -17 41c-21 0 -30 -21 -28 -64l4 -95l9 -11l-31 1l6 12l-8 117l-4 2l-40 5c0 -57 0 -83 -1 -78c1 -5 4 -8 9 -7h2h11l17 15l-4 -41
c-3 -1 -11 -2 -24 -3h-3c-19 0 -28 15 -28 45v67l-9 -1l-14 -9l10 35l5 -5h8v115l-15 21l54 -4l-11 -17l-6 -114l41 1v1l-2 25l-12 18l41 -2l-5 -13v-19c9 21 19 31 31 31c13 0 22 -10 28 -30c7 20 18 30 31 30c23 0 34 -22 33 -67l-2 -116z" />
    <glyph glyph-name="notequal" unicode="&#x2260;" 
d="M765 340l-72 -267c-5 -18 -14 -33 -29 -43c-14 -12 -30 -17 -48 -17c-7 0 -14 1 -21 3l-264 71c-17 5 -31 14 -43 29c-10 14 -16 30 -16 48c0 5 0 9 1 13l-94 -25c-7 -2 -14 -3 -21 -3c-17 0 -33 5 -48 17c-15 10 -24 25 -29 43l-71 267c-2 7 -3 14 -3 21
c0 18 5 34 17 49c10 14 25 23 42 28l264 71c7 2 14 3 21 3c17 0 33 -6 48 -16c15 -12 24 -26 29 -44l21 -81l259 -69c18 -5 32 -14 43 -28c11 -15 16 -31 16 -49c0 -7 -1 -14 -2 -21zM726 350c1 4 1 8 1 11c0 21 -10 33 -29 38l-237 64l38 -142c2 -7 3 -14 3 -21
c0 -18 -6 -34 -16 -48c-12 -15 -26 -24 -43 -29l-126 -34l-4 -15c-1 -3 -1 -7 -1 -10c0 -21 10 -34 30 -39l263 -70c3 -1 7 -2 11 -2c20 0 33 10 38 30zM461 310l-72 268c-5 20 -18 30 -38 30c-4 0 -8 -1 -11 -2l-264 -70c-19 -5 -29 -18 -29 -39c0 -3 0 -7 1 -10l72 -268
c5 -20 18 -30 38 -30c4 0 8 1 11 2l264 70c19 5 29 18 29 39c0 3 0 7 -1 10zM594 266c-13 0 -23 5 -32 14s-13 21 -13 34s5 25 14 36c9 10 21 15 34 15s23 -5 32 -14s13 -21 13 -34s-5 -25 -14 -35c-9 -11 -21 -16 -34 -16zM358 491c0 -13 -4 -25 -13 -34s-19 -14 -32 -14
c-14 0 -26 5 -35 15c-9 11 -14 23 -14 36s4 25 13 34s20 14 33 14s25 -5 34 -16c9 -10 14 -22 14 -35zM553 111c-13 0 -23 5 -32 15c-9 9 -13 20 -13 33c0 14 4 26 14 36c8 10 20 15 34 15c13 0 23 -5 32 -14s13 -21 13 -34s-5 -25 -14 -36c-9 -10 -21 -15 -34 -15zM399 336
c0 -13 -4 -24 -13 -34c-9 -9 -19 -14 -32 -14s-25 5 -34 16c-9 10 -14 22 -14 35s4 25 13 34s19 14 32 14s25 -5 34 -15s14 -22 14 -36zM213 452c0 -13 -4 -25 -13 -34s-19 -14 -32 -14c-14 0 -26 5 -34 16c-10 10 -14 22 -14 35s4 25 13 34s19 14 32 14s25 -5 34 -15
c9 -11 14 -23 14 -36zM254 297c0 -13 -4 -24 -13 -33s-19 -14 -32 -14s-25 5 -34 15s-14 22 -14 36c0 13 4 24 13 33s19 14 32 14s25 -5 34 -15s14 -22 14 -36z" />
    <glyph glyph-name="infinity" unicode="&#x221e;" horiz-adv-x="518" 
d="M524 312c0 -35 -18 -60 -55 -77c-28 -13 -62 -20 -101 -20c-61 0 -103 16 -126 48c-20 -25 -53 -38 -100 -38c-34 0 -64 6 -89 18c-32 15 -48 38 -48 69c0 29 15 51 44 67c24 13 52 19 83 19c48 0 84 -12 109 -37c25 31 67 46 124 46c39 0 73 -6 102 -19
c38 -17 57 -42 57 -76zM458 310c-1 38 -34 55 -97 52c-66 -3 -98 -25 -96 -64c1 -21 13 -35 38 -44c17 -7 38 -9 62 -8c65 3 96 25 93 64zM225 315c1 17 -8 30 -26 40c-15 8 -31 12 -50 13s-36 -1 -50 -8c-18 -8 -27 -21 -28 -38c-2 -32 23 -49 76 -52c19 -1 35 1 49 8
c19 8 28 20 29 37z" />
    <glyph glyph-name="plusminus" unicode="&#xb1;" horiz-adv-x="345" 
d="M306 266l-49 22l-90 10l5 -135l13 -25l-74 -10l19 43l-5 127l-90 -9l-27 -23l-4 135l38 -24l83 -5l-21 143l-23 30l109 23l-18 -55l-5 -141l84 8l37 24zM369 158l-37 -154l-29 32l-253 -3l-27 -28l-16 125l48 -17l259 17z" />
    <glyph glyph-name="lessequal" unicode="&#x2264;" horiz-adv-x="345" 
d="M369 158l-37 -154l-29 32l-253 -3l-27 -28l-16 125l48 -17l178 12l-207 160l-26 -23l2 119l14 -25l248 191l73 -93l-57 7l-219 -146l220 -135l44 5l-15 -55h4z" />
    <glyph glyph-name="greaterequal" unicode="&#x2265;" horiz-adv-x="349" 
d="M369 158l-37 -154l-29 32l-253 -3l-27 -28l-16 125l13 -5l-8 30l44 -5l220 135l-219 146l-57 -7l73 93l248 -191l13 25l3 -119l-26 23l-177 -137l180 12z" />
    <glyph glyph-name="mu" unicode="&#xb5;" horiz-adv-x="270" 
d="M289 421l-32 -56l-92 -363c4 -17 8 -35 11 -53c5 -23 12 -40 19 -49c4 -5 10 -7 18 -7c6 0 14 3 25 8v0l29 37l-12 -105c-2 -1 -12 -4 -29 -9c-3 -1 -8 -1 -14 -1c-33 0 -59 37 -79 111c-9 49 -19 99 -29 148c-9 39 -24 105 -45 198l-39 195l-22 34l136 -21l-35 -43
l47 -369l46 283l-33 24z" />
    <glyph glyph-name="partialdiff" unicode="&#x2202;" horiz-adv-x="504" 
d="M540 840l-46 -55c6 -10 9 -22 9 -37c0 -26 -8 -50 -24 -72h5c13 1 21 -5 22 -18l1 -21c1 -5 -1 -10 -4 -15l-174 -207l26 -295l67 -56c5 -4 7 -9 7 -14l2 -20c1 -13 -5 -21 -18 -22l-205 -18c-13 -1 -21 6 -22 19l-2 20c-1 5 1 10 5 14l56 67l-26 296l-207 174
c-4 3 -6 8 -7 13l-2 21c-1 13 6 21 19 22l352 31l3 2c-6 10 -9 22 -9 36c0 25 8 49 24 72s35 34 56 34c14 0 26 -5 36 -14l44 53zM478 710c5 12 7 24 7 35c0 32 -12 48 -35 48c-25 0 -44 -16 -57 -49c-5 -12 -7 -24 -7 -36c0 -31 12 -47 35 -47c25 0 44 16 57 49zM460 634
l-100 -9l-72 -85l-17 3l67 80l-286 -25l199 -167c5 -3 7 -8 8 -14l27 -311c1 -6 -1 -11 -5 -15l-49 -58l153 13c-9 5 -21 14 -37 27c-21 17 -31 28 -32 35l-28 312c0 5 2 10 5 15zM476 764l-25 -16l-21 19l22 23z" />
    <glyph glyph-name="summation" unicode="&#x2211;" horiz-adv-x="330" 
d="M343 697l-4 -115l-38 21l-196 -11l171 -203l30 27l8 -105l-39 17l-166 -262l146 11l36 57l23 -151l-69 22l-258 -14l53 60l179 293l-198 287l-37 30l322 24z" />
    <glyph glyph-name="product" unicode="&#x220f;" horiz-adv-x="392" 
d="M405 677l-15 -117l-24 30l-30 8l-16 -642l22 -45l-138 21l43 35l40 631l-143 -9l-20 -672l20 -49l-91 25l22 28l-14 675l-17 2l-36 -38l-4 142l40 -28l323 -13z" />
    <glyph glyph-name="pi" unicode="&#x3c0;" horiz-adv-x="387" 
d="M405 507l-15 -117l-24 30l-30 8l-16 -342l22 -45l-138 21l43 35l40 331l-143 -9l-20 -372l20 -49l-91 25l22 28l-14 375l-17 2l-36 -38l-4 142l40 -28l323 -13z" />
    <glyph glyph-name="integral" unicode="&#x222b;" horiz-adv-x="185" 
d="M195 710l-27 -140l-15 60c-8 5 -14 8 -19 8c-18 0 -30 -27 -37 -80c-1 -13 -3 -46 -4 -99l-8 -301c-2 -87 -6 -147 -11 -179c-13 -91 -40 -136 -80 -136c-10 0 -20 3 -31 10l-49 -11l50 109l5 -27c8 -7 15 -10 22 -10c26 0 41 52 44 157l13 388c3 75 8 130 15 163
c13 56 35 84 67 84c10 0 21 -3 32 -9z" />
    <glyph glyph-name="Omega" unicode="&#x2126;" horiz-adv-x="345" 
d="M351 383c1 -97 -11 -177 -37 -241c-5 -11 -13 -28 -25 -49l16 -69l37 -35l-135 -31l19 42l-6 124l71 53c15 61 19 131 13 208c-4 62 -14 116 -31 163c-25 71 -61 106 -107 103c-41 -3 -70 -35 -87 -94c-11 -39 -17 -85 -17 -139c0 -21 1 -45 2 -70c5 -77 20 -142 43 -194
l53 -21l-4 -144l17 -33l-127 33l48 16l6 49c-20 16 -37 39 -52 69c-29 60 -45 140 -46 239c-2 87 9 162 32 225c29 80 74 121 135 122c67 1 117 -39 148 -120c21 -55 33 -124 34 -206zM100 54v0z" />
    <glyph glyph-name="logicalnot" unicode="&#xac;" horiz-adv-x="504" 
d="M540 840l-46 -55c6 -10 9 -22 9 -37c0 -26 -8 -50 -24 -72h5c13 1 21 -5 22 -18l1 -21c1 -5 -1 -10 -4 -15l-174 -207l26 -295l67 -56c5 -4 7 -9 7 -14l2 -20c1 -13 -5 -21 -18 -22l-205 -18c-13 -1 -21 6 -22 19l-2 20c-1 5 1 10 5 14l56 67l-26 296l-207 174
c-4 3 -6 8 -7 13l-2 21c-1 13 6 21 19 22l352 31l3 2c-6 10 -9 22 -9 36c0 25 8 49 24 72s35 34 56 34c14 0 26 -5 36 -14l44 53zM478 710c5 12 7 24 7 35c0 32 -12 48 -35 48c-25 0 -44 -16 -57 -49c-5 -12 -7 -24 -7 -36c0 -31 12 -47 35 -47c25 0 44 16 57 49zM460 634
l-100 -9l-72 -85l-17 3l67 80l-286 -25l199 -167c5 -3 7 -8 8 -14l27 -311c1 -6 -1 -11 -5 -15l-49 -58l153 13c-9 5 -21 14 -37 27c-21 17 -31 28 -32 35l-28 312c0 5 2 10 5 15zM476 764l-25 -16l-21 19l22 23z" />
    <glyph glyph-name="radical" unicode="&#x221a;" horiz-adv-x="305" 
d="M327 553l-40 -21l-103 -376l15 -8l-69 -37l5 27l-88 146l-50 -3l91 60l-8 -33l39 -55l106 282l-9 69z" />
    <glyph glyph-name="approxequal" unicode="&#x2248;" horiz-adv-x="531" 
d="M569 787l-55 -46c3 -7 4 -14 4 -23c0 -30 -13 -57 -38 -82l5 -1c13 -1 19 -8 18 -21l-2 -21c0 -5 -2 -10 -7 -14l-207 -174l-26 -295l57 -67c3 -5 5 -10 5 -15l-2 -20c-1 -13 -9 -19 -22 -18l-205 18c-13 1 -19 9 -18 22l2 20c0 5 2 10 7 13l67 57l26 295l-174 207
c-3 4 -5 9 -5 15l2 21c1 13 9 19 22 18l353 -31l2 2c-2 7 -3 14 -3 22c0 25 9 49 28 71c19 24 39 35 62 35c17 0 30 -7 41 -20l53 44zM485 669c9 15 14 31 14 47c0 27 -11 41 -33 41c-23 0 -42 -13 -58 -39c-10 -16 -15 -32 -15 -47c0 -27 11 -41 34 -41s42 13 58 39z
M454 598l-100 9l-85 -72l-17 6l80 68l-285 25l167 -200c3 -4 5 -9 4 -14l-27 -312c-1 -5 -3 -10 -7 -14l-58 -49l153 -13c-8 7 -19 18 -32 33c-18 20 -27 33 -26 40l27 312c1 5 3 10 7 14zM493 723l-27 -11l-18 22l26 19z" />
    <glyph glyph-name="Delta" unicode="&#x2206;" horiz-adv-x="414" 
d="M443 82l-61 -100l-14 33l-310 -15l-12 -34l-46 93l31 -8l125 526l-40 15l116 57l-31 -57l196 -503zM314 92l-137 297l-77 -316z" />
    <glyph glyph-name="Agrave" unicode="&#xc0;" horiz-adv-x="349" 
d="M253 711l-52 -37v25l-71 88l-22 11l94 22l-13 -17l46 -87zM374 -15l-99 7l16 24l-32 173l-137 -5l-36 -176l20 -21l-106 10l33 20l127 611l-43 13l135 13l-31 -29l122 -604zM243 260l-54 256l-53 -260z" />
    <glyph glyph-name="Atilde" unicode="&#xc3;" horiz-adv-x="353" 
d="M349 776l-49 -8c-41 -48 -75 -72 -101 -72c-10 0 -19 3 -26 10c-5 5 -12 18 -20 40c-6 17 -16 25 -29 25c-9 0 -20 -3 -34 -9c-5 -1 -9 -11 -12 -30l-54 76l51 -9c17 7 34 11 49 11c39 0 63 -21 72 -64c1 -6 2 -10 4 -11c13 2 34 19 63 52c4 15 9 33 16 52zM374 15l-99 7
l16 24l-32 173l-137 -5l-36 -176l20 -21l-106 10l33 20l127 611l-43 13l135 13l-31 -29l122 -604zM243 290l-54 256l-53 -260z" />
    <glyph glyph-name="Otilde" unicode="&#xd5;" horiz-adv-x="346" 
d="M349 766l-49 -8c-41 -48 -75 -72 -101 -72c-10 0 -19 3 -26 10c-5 5 -12 18 -20 40c-6 17 -16 25 -29 25c-9 0 -20 -3 -34 -9c-5 -1 -9 -11 -12 -30l-54 76l51 -9c17 7 34 11 49 11c39 0 63 -21 72 -64c1 -6 2 -10 4 -11c13 2 34 19 63 52c4 15 9 33 16 52zM351 343
c1 -83 -8 -155 -28 -218c-29 -91 -77 -137 -143 -138c-57 -1 -101 31 -132 96c-29 60 -45 140 -46 239c-2 87 9 162 32 225c29 80 74 121 135 122c67 1 117 -39 148 -120c21 -55 33 -124 34 -206zM296 350c-4 62 -14 116 -31 163c-25 72 -61 106 -107 103
c-41 -3 -70 -34 -87 -93c-11 -39 -17 -86 -17 -139c0 -22 1 -46 2 -71c5 -66 15 -121 31 -166c25 -71 63 -104 112 -101c42 3 70 35 84 96c11 45 16 93 16 146c0 20 -1 41 -3 62z" />
    <glyph glyph-name="divide" unicode="&#xf7;" horiz-adv-x="253" 
d="M231 393c0 -15 -8 -28 -23 -39c-16 -11 -35 -16 -57 -16c-23 0 -42 5 -57 16c-16 11 -24 24 -24 39s8 28 24 39c15 11 34 16 57 16c22 0 41 -5 57 -16c15 -11 23 -24 23 -39zM259 206l-25 23l-196 9l-34 -32l5 137l16 -24l208 7l20 37zM208 150c0 -13 -8 -25 -24 -34
s-35 -14 -58 -14s-42 5 -58 14s-24 21 -24 34s8 24 24 33s35 14 58 14s42 -5 58 -14s24 -20 24 -33z" />
    <glyph glyph-name="lozenge" unicode="&#x25ca;" horiz-adv-x="175" 
d="M120 695c27 4 41 11 41 20c0 13 -22 20 -65 20s-65 -7 -65 -20c0 -10 14 -17 43 -20v-11c-49 5 -74 20 -74 43c0 12 9 22 28 31c18 9 40 13 66 13s48 -4 66 -13c19 -9 28 -19 28 -31c0 -22 -23 -36 -68 -42v10z" />
    <glyph glyph-name="ydieresis" unicode="&#xff;" horiz-adv-x="270" 
d="M215 600c0 -13 -4 -25 -11 -34s-16 -14 -26 -14s-19 5 -26 14s-11 21 -11 34s4 24 11 33s16 14 26 14s19 -5 26 -14s11 -20 11 -33zM127 596c0 -13 -4 -24 -11 -34c-8 -8 -17 -13 -28 -13s-20 5 -28 13c-7 10 -11 21 -11 34s4 24 11 32c8 10 17 14 28 14s20 -4 28 -14
c7 -8 11 -19 11 -32zM289 509l-22 -34c-9 -41 -22 -106 -39 -195c-11 -49 -26 -115 -45 -198c-10 -49 -20 -99 -29 -148c-20 -74 -46 -111 -79 -111c-6 0 -11 0 -14 1c-8 3 -18 6 -29 9l-12 105l29 -37c11 -5 19 -8 25 -8c13 0 22 8 28 25c3 7 9 35 20 84l-91 363l-33 56
l130 -38l-33 -24l46 -283l47 369l-35 43z" />
    <glyph glyph-name="Ydieresis" unicode="&#x178;" horiz-adv-x="351" 
d="M255 770c0 -13 -4 -25 -11 -34s-16 -14 -26 -14s-19 5 -26 14s-11 21 -11 34s4 24 11 33s16 14 26 14s19 -5 26 -14s11 -20 11 -33zM167 766c0 -13 -4 -24 -11 -34c-8 -8 -17 -13 -28 -13s-20 5 -28 13c-7 10 -11 21 -11 34s4 24 11 32c8 10 17 14 28 14s20 -4 28 -14
c7 -8 11 -19 11 -32zM362 690l-36 -33l-127 -361l10 -237l19 -21l-119 -17l22 28l20 247l-116 294l-35 41l97 16l-11 -32l89 -244l98 296l-15 21z" />
    <glyph glyph-name="Acircumflex" unicode="&#xc2;" horiz-adv-x="349" 
d="M292 747l-53 -40l-4 22l-40 98l-44 -72l1 -39l-97 43l34 15l74 95l-12 14l76 13l-17 -26l60 -117zM374 15l-99 7l16 24l-32 173l-137 -5l-36 -176l20 -21l-106 10l33 20l127 611l-43 13l135 13l-31 -29l122 -604zM243 290l-54 256l-53 -260z" />
    <glyph glyph-name="Ecircumflex" unicode="&#xca;" horiz-adv-x="314" 
d="M292 747l-53 -40l-4 22l-40 98l-44 -72l1 -39l-97 43l34 15l74 95l-12 14l76 13l-17 -26l60 -117zM336 584l-37 18l-200 -10l-5 -196l123 5l22 26l-12 -135l-23 25l-110 5l5 -219l157 -5l48 67l-4 -157l-35 13l-188 5v0h-77l47 43l-20 569l-34 34l308 9l30 36z" />
    <glyph glyph-name="Aacute" unicode="&#xc1;" horiz-adv-x="349" 
d="M288 835l-22 -11l-71 -88v-25l-52 37l18 5l46 87l-13 17zM374 15l-99 7l16 24l-32 173l-137 -5l-36 -176l20 -21l-106 10l33 20l127 611l-43 13l135 13l-31 -29l122 -604zM243 290l-54 256l-53 -260z" />
    <glyph glyph-name="Edieresis" unicode="&#xcb;" horiz-adv-x="314" 
d="M255 770c0 -13 -4 -25 -11 -34s-16 -14 -26 -14s-19 5 -26 14s-11 21 -11 34s4 24 11 33s16 14 26 14s19 -5 26 -14s11 -20 11 -33zM167 766c0 -13 -4 -24 -11 -34c-8 -8 -17 -13 -28 -13s-20 5 -28 13c-7 10 -11 21 -11 34s4 24 11 32c8 10 17 14 28 14s20 -4 28 -14
c7 -8 11 -19 11 -32zM336 584l-37 18l-200 -10l-5 -196l123 5l22 26l-12 -135l-23 25l-110 5l5 -219l157 -5l48 67l-4 -157l-35 13l-188 5v0h-77l47 43l-20 569l-34 34l308 9l30 36z" />
    <glyph glyph-name="Egrave" unicode="&#xc8;" horiz-adv-x="314" 
d="M240 741l-52 -37v25l-71 88l-22 11l94 22l-13 -17l46 -87zM336 584l-37 18l-200 -10l-5 -196l123 5l22 26l-12 -135l-23 25l-110 5l5 -219l157 -5l48 67l-4 -157l-35 13l-188 5v0h-77l47 43l-20 569l-34 34l308 9l30 36z" />
    <glyph glyph-name="Iacute" unicode="&#xcd;" horiz-adv-x="147" 
d="M158 835l-22 -11l-71 -88v-25l-52 37l18 5l46 87l-13 17zM104 674l-14 -30l-22 -540l26 -33l-107 2l39 40l-5 517l-18 24z" />
    <glyph glyph-name="Icircumflex" unicode="&#xce;" horiz-adv-x="226" 
d="M242 687l-53 -40l-4 22l-40 98l-44 -72l1 -39l-97 43l34 15l74 95l-12 14l76 13l-17 -26l60 -117zM174 614l-14 -30l-22 -540l26 -33l-107 2l39 40l-5 517l-18 24z" />
    <glyph glyph-name="Idieresis" unicode="&#xcf;" horiz-adv-x="154" 
d="M165 710c0 -13 -4 -25 -11 -34s-16 -14 -26 -14s-19 5 -26 14s-11 21 -11 34s4 24 11 33s16 14 26 14s19 -5 26 -14s11 -20 11 -33zM77 706c0 -13 -4 -24 -11 -34c-8 -8 -17 -13 -28 -13s-20 5 -28 13c-7 10 -11 21 -11 34s4 24 11 32c8 10 17 14 28 14s20 -4 28 -14
c7 -8 11 -19 11 -32zM134 614l-14 -30l-22 -540l26 -33l-107 2l39 40l-5 517l-18 24z" />
    <glyph glyph-name="Igrave" unicode="&#xcc;" horiz-adv-x="149" 
d="M150 691l-52 -37v25l-71 88l-22 11l94 22l-13 -17l46 -87zM154 624l-14 -30l-22 -540l26 -33l-107 2l39 40l-5 517l-18 24z" />
    <glyph glyph-name="Oacute" unicode="&#xd3;" horiz-adv-x="345" 
d="M288 855l-22 -11l-71 -88v-25l-52 37l18 5l46 87l-13 17zM351 383c1 -83 -8 -155 -28 -218c-29 -91 -77 -137 -143 -138c-57 -1 -101 31 -132 96c-29 60 -45 140 -46 239c-2 87 9 162 32 225c29 80 74 121 135 122c67 1 117 -39 148 -120c21 -55 33 -124 34 -206z
M296 390c-4 62 -14 116 -31 163c-25 72 -61 106 -107 103c-41 -3 -70 -34 -87 -93c-11 -39 -17 -86 -17 -139c0 -22 1 -46 2 -71c5 -66 15 -121 31 -166c25 -71 63 -104 112 -101c42 3 70 35 84 96c11 45 16 93 16 146c0 20 -1 41 -3 62z" />
    <glyph glyph-name="Ocircumflex" unicode="&#xd4;" horiz-adv-x="345" 
d="M282 757l-53 -40l-4 22l-40 98l-44 -72l1 -39l-97 43l34 15l74 95l-12 14l76 13l-17 -26l60 -117zM351 383c1 -83 -8 -155 -28 -218c-29 -91 -77 -137 -143 -138c-57 -1 -101 31 -132 96c-29 60 -45 140 -46 239c-2 87 9 162 32 225c29 80 74 121 135 122
c67 1 117 -39 148 -120c21 -55 33 -124 34 -206zM296 390c-4 62 -14 116 -31 163c-25 72 -61 106 -107 103c-41 -3 -70 -34 -87 -93c-11 -39 -17 -86 -17 -139c0 -22 1 -46 2 -71c5 -66 15 -121 31 -166c25 -71 63 -104 112 -101c42 3 70 35 84 96c11 45 16 93 16 146
c0 20 -1 41 -3 62z" />
    <glyph glyph-name="apple" horiz-adv-x="504" 
d="M540 840l-46 -55c6 -10 9 -22 9 -37c0 -26 -8 -50 -24 -72h5c13 1 21 -5 22 -18l1 -21c1 -5 -1 -10 -4 -15l-174 -207l26 -295l67 -56c5 -4 7 -9 7 -14l2 -20c1 -13 -5 -21 -18 -22l-205 -18c-13 -1 -21 6 -22 19l-2 20c-1 5 1 10 5 14l56 67l-26 296l-207 174
c-4 3 -6 8 -7 13l-2 21c-1 13 6 21 19 22l352 31l3 2c-6 10 -9 22 -9 36c0 25 8 49 24 72s35 34 56 34c14 0 26 -5 36 -14l44 53zM478 710c5 12 7 24 7 35c0 32 -12 48 -35 48c-25 0 -44 -16 -57 -49c-5 -12 -7 -24 -7 -36c0 -31 12 -47 35 -47c25 0 44 16 57 49zM460 634
l-100 -9l-72 -85l-17 3l67 80l-286 -25l199 -167c5 -3 7 -8 8 -14l27 -311c1 -6 -1 -11 -5 -15l-49 -58l153 13c-9 5 -21 14 -37 27c-21 17 -31 28 -32 35l-28 312c0 5 2 10 5 15zM476 764l-25 -16l-21 19l22 23z" />
    <glyph glyph-name="Ograve" unicode="&#xd2;" horiz-adv-x="346" 
d="M240 721l-52 -37v25l-71 88l-22 11l94 22l-13 -17l46 -87zM351 343c1 -83 -8 -155 -28 -218c-29 -91 -77 -137 -143 -138c-57 -1 -101 31 -132 96c-29 60 -45 140 -46 239c-2 87 9 162 32 225c29 80 74 121 135 122c67 1 117 -39 148 -120c21 -55 33 -124 34 -206z
M296 350c-4 62 -14 116 -31 163c-25 72 -61 106 -107 103c-41 -3 -70 -34 -87 -93c-11 -39 -17 -86 -17 -139c0 -22 1 -46 2 -71c5 -66 15 -121 31 -166c25 -71 63 -104 112 -101c42 3 70 35 84 96c11 45 16 93 16 146c0 20 -1 41 -3 62z" />
    <glyph glyph-name="Uacute" unicode="&#xda;" horiz-adv-x="302" 
d="M288 825l-22 -11l-71 -88v-25l-52 37l18 5l46 87l-13 17zM316 647l-22 -38l-7 -251c-2 -88 -8 -149 -17 -183c-22 -78 -63 -117 -124 -117s-102 39 -123 117c-11 37 -17 98 -18 183l-5 293l-35 42l110 -4l-16 -31l-5 -337c-1 -44 4 -83 15 -116c7 -23 19 -42 34 -55
c15 -14 32 -21 49 -21c34 0 59 27 74 81c7 24 11 61 12 111l6 285l-24 24z" />
    <glyph glyph-name="Ucircumflex" unicode="&#xdb;" horiz-adv-x="301" 
d="M292 677l-53 -40l-4 22l-40 98l-44 -72l1 -39l-97 43l34 15l74 95l-12 14l76 13l-17 -26l60 -117zM316 577l-22 -38l-7 -251c-2 -88 -8 -149 -17 -183c-22 -78 -63 -117 -124 -117s-102 39 -123 117c-11 37 -17 98 -18 183l-5 293l-35 42l110 -4l-16 -31l-5 -337
c-1 -44 4 -83 15 -116c7 -23 19 -42 34 -55c15 -14 32 -21 49 -21c34 0 59 27 74 81c7 24 11 61 12 111l6 285l-24 24z" />
    <glyph glyph-name="Ugrave" unicode="&#xd9;" horiz-adv-x="302" 
d="M240 741l-52 -37v25l-71 88l-22 11l94 22l-13 -17l46 -87zM316 647l-22 -38l-7 -251c-2 -88 -8 -149 -17 -183c-22 -78 -63 -117 -124 -117s-102 39 -123 117c-11 37 -17 98 -18 183l-5 293l-35 42l110 -4l-16 -31l-5 -337c-1 -44 4 -83 15 -116c7 -23 19 -42 34 -55
c15 -14 32 -21 49 -21c34 0 59 27 74 81c7 24 11 61 12 111l6 285l-24 24z" />
  </font>
</defs>
</svg>
