<?xml version="1.0" standalone="no"?>
<!DOCTYPE svg PUBLIC "-//W3C//DTD SVG 1.1//EN" "http://www.w3.org/Graphics/SVG/1.1/DTD/svg11.dtd" >
<svg xmlns="http://www.w3.org/2000/svg" xmlns:xlink="http://www.w3.org/1999/xlink" version="1.1">
<metadata>
Created by FontForge 20200511 at Sun Apr  4 17:33:36 2021
 By convertio
Copyright (c) 2021 by Vladimir Nikolic. All rights reserved.
</metadata>
<defs>
<font id="Louvre-Regular" horiz-adv-x="459" >
  <font-face 
    font-family="Louvre"
    font-weight="400"
    font-stretch="normal"
    units-per-em="1000"
    panose-1="0 0 0 0 0 0 0 0 0 0"
    ascent="750"
    descent="-250"
    x-height="684"
    cap-height="684"
    bbox="-65 -69 1126 692"
    underline-thickness="50"
    underline-position="-100"
    unicode-range="U+001D-007A"
  />
<missing-glyph 
 />
    <glyph glyph-name=".notdef" 
 />
    <glyph glyph-name="uni0000" horiz-adv-x="0" 
 />
    <glyph glyph-name="uni0000" horiz-adv-x="0" 
 />
    <glyph glyph-name="uni0009" 
 />
    <glyph glyph-name="space" unicode=" " horiz-adv-x="179" 
 />
    <glyph glyph-name="E" unicode="E" horiz-adv-x="418" 
d="M363 62h-303v33h303v-33zM297 661v-31h-153v-138h152v-29h-36h-200v198h237zM60 102v354h84v-354h-84zM158 110v339h149v59h-149v110h151v57h-264v-625h330v60h-217zM204 515h112v-5l38 -42v-69h-150v-282h180v-5l38 -42v-70h-342l-39 41h-5v643h282v-7l38 -41v-69h-152
v-52z" />
    <glyph glyph-name="F" unicode="F" horiz-adv-x="394" 
d="M296 493v-30h-150v-397h-87v557h87v-130h150zM304 661v-30h-245v30h245zM318 618v57h-273v-625h114v60v338h151v60h-151v110h159zM41 41h-5v643h290v-7l38 -41v-69h-159v-52h113v-5l38 -42v-70h-151v-398h-125z" />
    <glyph glyph-name="G" unicode="G" horiz-adv-x="738" 
d="M669 388q0 -32 -4 -63.5t-15 -62.5t-31 -61.5t-53 -60.5v2q-99 -81 -229 -81q-62 0 -123.5 23t-110.5 64q-48 47 -71.5 105.5t-23.5 121.5q0 60 20 114t65 100q32 35 74.5 54t90.5 24q45 3 84.5 -7.5t77.5 -30.5l-20 -18l-6 2q-14 8 -25 12t-27 7h1q-17 5 -34 6.5
t-39 1.5q-17 0 -32 -2t-37 -10q-16 -8 -36.5 -20t-43.5 -40h1q-3 -4 -6.5 -7t-6.5 -7q0 -2 -0.5 -2t-1.5 -2q-5 -7 -15 -24.5t-19.5 -42t-16 -55.5t-4.5 -66.5t15 -74t42 -77.5q25 -33 54 -53.5t60 -31.5t62.5 -14.5t60.5 -1.5q68 4 139 31q33 11 63.5 38t53 64t34.5 81.5
t6 89.5h-392v24h418v1l1 -1h-1q1 -12 1 -19.5v-17.5v-12zM135 439l221 -255q24 -26 41.5 -37t34.5 -13q-23 -7 -59.5 -12.5t-77 -2t-80.5 18.5t-70 49q-37 40 -55.5 82t-22.5 83t4.5 79t26.5 71q2 -11 10 -26t29 -37h-2zM239 453v-53h391q4 -48 -11.5 -94.5t-42.5 -82
t-62 -57t-70 -20.5q-19 0 -35.5 11t-39.5 38l-225 256q-26 29 -30.5 46t-1.5 30q10 23 19 33q22 26 40.5 38.5t34.5 18.5q22 8 35 10t29 2q22 0 38.5 -1.5t30.5 -6.5q34 -7 62 -25l43 38q-43 24 -89 37t-97 11q-50 -4 -94 -25.5t-79 -59.5q-47 -47 -69 -107t-20.5 -123
t27 -122.5t74.5 -104.5q48 -45 110 -67.5t127 -22.5t128 21t113 63q40 37 63.5 75.5t34 78.5t11.5 81t-4 84h-441zM689 455q0 -1 0.5 -2t0.5 -3l37 -42q2 -17 3 -34t1 -34q0 -68 -23 -131.5t-88 -124.5q-51 -42 -114 -63t-130 -21q-66 0 -129.5 23.5t-112.5 68.5q-5 4 -10 9
t-10 11l-14 16l-9 6q-51 48 -77 111t-26 130q0 60 25 121t67 106q36 38 82 61t96 26q52 3 101.5 -12t97.5 -42l-4 -2l40 -43l-50 -45q-28 17 -68 26q-23 8 -64 8q-15 0 -27.5 -2t-35.5 -11q-15 -6 -33.5 -17.5t-39.5 -37.5q-7 -9 -17 -31q-2 -8 -1.5 -18t8.5 -24l209 -237
q22 -26 37.5 -37t32.5 -11q28 -1 57 15t53.5 43t42.5 63t24 75h-347l-39 43h-5v68h451zM443 545l-40 42l1 1zM180 154l-2 2l8 -8z" />
    <glyph glyph-name="H" unicode="H" horiz-adv-x="533" 
d="M414 68h-31v300h-326v296h84v-263h77v0h196v-333zM57 68v293h84v-293h-84zM414 664v-256h-31v256h31zM428 674h-59v-262h-213v210v52h-113v-624h113v58v208v38h213v-304h59v624zM437 676l37 -41v-635h-70l-39 41h-3v263h-160v-304h-123l-39 41h-4v642h129v-7l37 -41v-215
h160v263h75v-7z" />
    <glyph glyph-name="I" unicode="I" horiz-adv-x="247" 
d="M35 684h118v-7l38 -41v-636h-112l-39 41h-5v643zM44 50h101v60v342v60v111v52h-101v-625zM131 659v-589h-74v589h74z" />
    <glyph glyph-name="J" unicode="J" horiz-adv-x="673" 
d="M569 338q-1 -31 -8 -60.5t-20 -57.5q-28 -54 -76 -94.5t-105 -51.5q-20 -5 -44 -8t-45 -3q-56 0 -107 15t-89 47t-60.5 82.5t-22.5 121.5v12h26q-1 -45 9.5 -88t45.5 -78q28 -29 66 -46t79 -17q2 0 2.5 0.5t2.5 0.5q82 1 146 29q27 12 53 31t46 48t31.5 68.5t10.5 92.5
v283h59v-327zM337 187q0 4 2 6q5 13 10 34.5t5 70.5v367h141v-302q-1 -55 -23 -103q-9 -20 -24 -40.5t-37 -38.5t-52 -31.5t-70 -19.5q12 9 24.5 22.5t23.5 34.5zM339 298q0 -25 -1.5 -42t-4 -29t-6 -20t-6.5 -14q-18 -35 -35 -47.5t-36 -16.5q-22 -6 -46 -4t-46.5 9.5
t-42 20t-32.5 29.5q-19 18 -29.5 38t-16 41.5t-6.5 45t0 47.5h-54q-4 -99 28 -163t87 -98.5t125.5 -42t143.5 6.5q65 13 114 54.5t78 99.5q14 31 20 60.5t7 64.5v124v60v106v49h-241v-379zM588 685v-6l37 -42v-345q-1 -35 -6.5 -65t-19.5 -62q-31 -59 -80.5 -101t-115.5 -55
q-23 -5 -47.5 -7t-48.5 -2q-66 0 -124.5 20.5t-100.5 66.5l-19 20q-46 38 -71.5 100.5t-21.5 155.5h70v-5l38 -42q0 -7 -0.5 -16t-0.5 -15q0 -29 5 -56.5t19 -52.5q20 -20 51.5 -31.5t63.5 -11.5q8 0 16 0.5t15 2.5q16 5 34 18.5t34 42.5q3 6 6 14t5.5 19.5t4 28t1.5 39.5
v387h256z" />
    <glyph glyph-name="K" unicode="K" horiz-adv-x="798" 
d="M573 65l-155 395l-271 -184v-211h-89v206l379 252q52 -134 94 -245.5t83 -212.5h-41zM147 344l-89 -57v377h89v-320zM721 664l-260 -173l-15 38l201 135h74zM643 674l-485 -325v325h-115v-624h115v60v159l256 171l149 -390h69l-165 425l295 199h-119zM780 678l39 -43
l-304 -207l166 -428h-81l-38 41h-4l-128 332l-226 -152v-221h-125l-39 41h-4v642h130v-7l38 -41v-246l436 294h146z" />
    <glyph glyph-name="L" unicode="L" horiz-adv-x="322" 
d="M293 67h-235v28l235 1v-29zM144 661v-558h-86v558h86zM158 108v566h-116v-624h266v58h-150zM40 41h-5v642h132v-7l37 -41v-519h111v-6l38 -42v-68h-275z" />
    <glyph glyph-name="M" unicode="M" horiz-adv-x="894" 
d="M777 65h-28v474l-274 -245l-117 141l249 225h170v-595zM449 269l-311 356v-1h-77v36h84l203 -236l118 -138zM138 65h-77v550h77v-550zM733 674h-132l-252 -226l-198 226h-105v-566v-58h63h42v58v477l294 -336l43 38l245 221v-20v-438h58v624h-58zM798 676l38 -41v-635
h-68l-39 41h-5v370l-192 -173l-47 -43l-39 44l-2 -2l-247 282v-519h-116l-39 41h-5v642h118l195 -225l122 111l126 114h200v-7z" />
    <glyph glyph-name="N" unicode="N" horiz-adv-x="783" 
d="M660 62h-26v40l-533 390v163h95l438 -321v321h26v-593zM87 62h-25v593h25v-3v-590zM617 674v-128v-58v-120l-416 306h-156v-624h59v424l512 -377h1v-47h60v624h-60zM684 683v-7l38 -41v-635h-70l-39 41h-5l-1 38l-457 339v-418h-70l-39 41h-5v642h168l404 -299v299h76z
" />
    <glyph glyph-name="O" unicode="O" horiz-adv-x="688" 
d="M567 273q-4 -22 -20 -46q-14 -25 -26.5 -34t-21.5 -11q-12 -10 -39 -12q-11 0 -27 4t-44 29l-253 212q-27 24 -32.5 41.5t-5.5 27.5q0 27 4 44q3 12 12 22t30 30q11 6 20 11.5t20 10.5q47 27 104 28q56 2 106 -17q25 -9 47.5 -22t42.5 -31q20 -17 35.5 -37t29.5 -43
q24 -46 30 -103q8 -53 -12 -104zM141 211q-31 27 -49 67q-8 17 -14 39t-8 48.5t1.5 58t14.5 68.5v4v-6.5t1 -7.5q0 -6 1.5 -14t6.5 -18.5t14.5 -23t25.5 -28.5l248 -206q26 -22 46.5 -29t32.5 -6q2 1 5.5 1.5t6.5 1.5q-21 -11 -56.5 -23t-80 -12t-95 18t-101.5 68zM492 568
q-20 18 -44 33t-48 23q-54 20 -112 17q-60 -1 -108 -27l-8 -4q-8 -5 -15 -8.5t-18 -14.5v1q-25 -19 -34 -32t-15 -24q-26 -58 -33 -116q-3 -25 -2 -52.5t8.5 -55.5t23.5 -55.5t42 -52.5q52 -51 110.5 -70t112 -17t96 19t62.5 38q11 5 23 16t27 33q7 11 12 23t8 27v-1
q8 19 10.5 40t2.5 42v27q-3 29 -11 56.5t-22 51.5q-28 52 -68 84v-1zM622 353q0 -110 -71 -191h1q-43 -47 -96.5 -71t-116.5 -27t-118 17.5t-102 61.5q-45 38 -73 91t-37 113q0 8 -0.5 15.5t-0.5 16.5q0 109 71 191q41 48 94.5 71.5t116.5 28.5q60 2 116 -18.5t104 -60.5
q44 -38 73 -92.5t37 -115.5q0 -2 0.5 -2.5t0.5 -2.5q2 -7 1.5 -12t-0.5 -13zM631 385q-14 131 -114 216q-46 41 -105.5 62.5t-122.5 21.5q-134 -8 -222 -105q-43 -50 -60.5 -109.5t-9.5 -123.5q6 -63 35 -118.5t78 -97.5q48 -40 107 -61.5t122 -19.5q66 2 122 29t99 75
q44 49 61 108t10 123zM594 528q1 -1 1.5 -2t2.5 -2q33 -38 53 -84t24 -98q3 -20 3 -40q0 -54 -19.5 -104.5t-55.5 -91.5q-43 -48 -101 -76t-123 -30q-64 -2 -124 19.5t-109 60.5l-15 15t-14 15l-13 14l4 -6l-8 10q-22 20 -40 44.5t-32 52.5l-12 26t-9 27q-14 38 -17 69
q-2 10 -2.5 21t-0.5 20q0 54 18.5 104t56.5 93q45 49 101.5 76.5t125.5 30.5q64 0 124.5 -21.5t108.5 -62.5q39 -33 64 -74l7 -6l-3 4zM560 275q6 19 9.5 36t3.5 34q0 14 -3 31q-2 26 -10 52t-19 49v-1q-6 11 -12.5 20t-14.5 19q-38 32 -82 48q-54 18 -104 17q-29 -2 -54 -8
t-48 -19l-35 -19l-1 -1l-2 -2q-20 -17 -28.5 -27.5t-12.5 -21.5q-2 -8 -3.5 -19t-0.5 -24q0 -5 0.5 -10.5t2.5 -11.5q60 -51 125 -105.5t124 -103.5q25 -23 39.5 -26.5t25.5 -3.5q11 1 20 4t15 8q9 2 21 11t24 29t20 45zM160 393l2 -4q-2 2 -2 4z" />
    <glyph glyph-name="P" unicode="P" horiz-adv-x="521" 
d="M145 221v-161h-88v196h202v1q35 3 65.5 19t53.5 41t36.5 57t13.5 68q0 38 -14.5 72t-40 59.5t-59.5 40.5t-72 15l-185 -1v36h185q45 0 85 -17.5t70 -48t47.5 -71t17.5 -85.5q0 -46 -17.5 -86t-47.5 -70t-70 -47.5t-85 -17.5h-97zM57 264v355h88v-355h-88zM158 269v183v36
v24v6v28v66v5h85q35 0 66.5 -14.5t55.5 -38.5t38 -55.5t14 -66.5q0 -36 -14 -68t-38 -55t-55.5 -36.5t-66.5 -13.5h-85zM191 675h-145v-625h112v63v96h85q49 0 91.5 18.5t74 50t49.5 74t18 90.5q0 49 -18 91.5t-49.5 74t-74 49.5t-91.5 18h-52zM456 562q2 -2 2.5 -3t1.5 -2
q29 -32 45.5 -73t16.5 -86q0 -49 -18.5 -92.5t-50.5 -76.5t-75.5 -52t-93.5 -19h-80v-158h-123l-39 41h-3v643h204q65 0 118.5 -31t85.5 -81zM243 277q33 0 63 12.5t52.5 35t36 52.5t13.5 65q0 26 -7.5 49t-21.5 43q-21 14 -45 23t-50 9h-80v-289h39z" />
    <glyph glyph-name="Q" unicode="Q" horiz-adv-x="693" 
d="M343 53q11 -14 23 -30.5t23 -30.5h-138l51 61q-31 3 -63 15t-62 29t-56.5 37.5t-45.5 41.5q-38 49 -55 109q0 2 -0.5 2.5t-0.5 2.5q-10 39 -9 75.5t6 65t11 46t6 18.5q19 39 47 71.5t63.5 55.5t77 35t86.5 10q57 -4 111.5 -27t98.5 -61t73 -88.5t34 -110.5
q1 -5 0.5 -12.5t-0.5 -12.5v-11q0 -56 -21 -105.5t-58 -88.5t-89 -64.5t-113 -32.5zM636 384q-7 63 -36 116t-73.5 92.5t-100.5 63t-116 27.5q-65 0 -122 -22.5t-100.5 -62.5t-69 -95t-27.5 -120q-2 -62 20.5 -119.5t60.5 -103.5q39 -45 96 -78q57 -31 109 -37l-52 -63h195
l-52 61q63 6 116.5 36.5t90.5 77t54 105.5t7 122zM572 265q-3 -11 -8 -22t-13 -25q-14 -22 -25.5 -31.5t-23.5 -15.5q-8 -4 -18 -5.5t-21 -2.5q-10 0 -27 4t-44 28l-256 215q-26 27 -31.5 43.5t-7.5 27.5q-2 25 4 45q5 8 13 19.5t31 30.5q8 8 17.5 13.5t21.5 10.5
q51 25 105 27q59 5 107 -16q50 -18 92 -54q18 -17 34.5 -36.5t29.5 -45.5q29 -50 30 -104q4 -26 1 -53.5t-11 -52.5zM139 198q-36 28 -56 69q-9 18 -15.5 40t-8 48.5t3.5 58.5t19 69v-6q0 -13 9 -31.5t40 -50.5q63 -54 125 -106t128 -106v1q27 -25 46.5 -31t33.5 -5h10
q-20 -9 -55 -19t-79.5 -9.5t-96 17t-104.5 61.5zM562 481q-14 24 -31 45.5t-38 38.5q-20 19 -44.5 33t-48.5 23q-26 11 -54.5 14.5t-59.5 2.5q-59 -4 -108 -26l-8 -5q-8 -5 -15.5 -9t-18.5 -14v1q-26 -22 -34 -33.5t-13 -22.5q-30 -59 -40 -118q-4 -25 -4 -53t7.5 -56.5
t23.5 -56t44 -52.5q55 -50 114.5 -69t113.5 -18t97 16.5t63 35.5q8 5 22.5 17t31.5 35q6 11 11.5 23.5t8.5 26.5v-1q8 21 11.5 41.5t3.5 42.5v13t-2 14q-2 27 -10.5 57.5t-22.5 53.5zM97 122q-9 8 -16.5 16t-15.5 16q-38 46 -59 107.5t-22 121.5q3 66 29.5 122t70.5 97.5
t102 65t124 23.5q84 -5 158.5 -46.5t120.5 -110.5l11 -10q34 -38 55 -84t27 -99q2 -12 3 -24t1 -24q0 -56 -20.5 -107t-56.5 -91.5t-84.5 -67t-104.5 -33.5l17 -20q9 -11 18 -22.5t17 -20.5h-219l-38 43h-9l34 42q-8 2 -16.5 7t-17.5 10q-55 30 -93 73zM564 268q6 17 9 36
t3 37v14t-1 15q-3 52 -30 102q-6 11 -12.5 21t-13.5 19q-19 15 -40 28t-44 21q-48 19 -106 16q-52 -1 -103 -27q-20 -9 -37 -24q-20 -16 -28 -26t-12 -17l-2 -3q-6 -20 -4 -44q0 -1 1 -2q2 -13 6 -26l248 -208q25 -23 40.5 -26.5t24.5 -3.5q8 1 18 3.5t18 5.5q21 10 45 44
q7 11 12 23.5t8 20.5v1zM171 379l-32 35l33 -36q-1 0 -1 1zM515 521q0 1 -2 1zM516 520l-1 1z" />
    <glyph glyph-name="R" unicode="R" horiz-adv-x="535" 
d="M280 617q31 0 58 -12t47 -32.5t32 -48t12 -59.5q0 -31 -12 -58t-32 -47.5t-47 -32t-58 -11.5h-131v296v5h131zM377 64h-39l-120 206h-156v351h74v-315h145q34 0 63.5 13t51 34.5t34 50.5t12.5 62q0 34 -12.5 63.5t-34 51.5t-51 35t-63.5 13h-219v35h219q40 0 76 -15.5
t63 -42t42.5 -63t15.5 -78.5q0 -41 -17.5 -76.5t-47.5 -62t-70 -41.5t-84 -15zM62 262h74v-198h-74v198zM488 465q0 44 -16.5 82t-45 66.5t-66 44.5t-80.5 16h-101h-133v-404v-8v-212h103v63v96v48h61l121 -207h67l-120 207q43 0 81.5 16t67 44t45 66t16.5 82zM44 41h-5v642
h241q57 0 104.5 -27t76.5 -73l18 -19q26 -28 40.5 -65t14.5 -79q0 -44 -16 -82.5t-43.5 -67.5t-65.5 -46t-81 -18l119 -206h-78l-39 41h-4l-98 165h-33v-206h-113zM195 325h85q29 0 54.5 11t45 30t31 44.5t11.5 54.5q0 21 -6 40t-16 36q-17 11 -37 18t-42 7h-126v-241z" />
    <glyph glyph-name="S" unicode="S" horiz-adv-x="677" 
d="M568 169q-30 -46 -93 -75q-67 -26 -147 -26q-41 -1 -80 4t-83 23q-42 17 -86 49t-95 95q13 7 15 8l4 2q51 -60 107 -92t116 -45q18 -4 36 -6.5t35 -2.5q9 0 18.5 0.5t17.5 1.5q32 2 60 13q24 9 48 28.5t36 54.5q12 34 7.5 60.5t-19 46.5t-35 35t-40.5 27q-12 8 -40 18.5
t-59 23t-58 27.5t-37 32q-17 29 -7 66.5t48 65.5q-3 -13 4 -29t43 -34q15 -11 41 -22t49 -22l11 -6l13 -8q29 -14 58.5 -28t51.5 -30q51 -30 73 -67v2l5 1l-5 -3q11 -20 17 -44.5t6 -46.5q-2 -25 -9.5 -48.5t-26.5 -48.5zM434 199q1 34 -23 57t-70 50l-42 22
q-37 17 -77 38.5t-66 45.5q-37 23 -52 59q-7 16 -8 34.5t1 37.5q8 32 35 62q28 31 63 48q17 6 33 9t39 3h15.5t17.5 -1q34 -3 75.5 -12.5t101.5 -34.5l-7 -14q-57 22 -96.5 29t-66.5 7q-11 0 -19.5 -1t-16.5 -2q-5 -2 -7 -4q-10 -4 -28 -13t-34.5 -25t-27.5 -39.5t-8 -56.5
q3 -26 21 -44t45 -32.5t59 -26t62.5 -25t57 -30.5t41.5 -41t18 -46t-4 -41t-20.5 -35t-31.5 -28q20 25 20 50zM593 364q-14 21 -31.5 39.5t-46.5 35.5q-27 19 -59 33.5t-64 31.5q-34 13 -59 26t-44 21q-17 10 -24.5 16.5t-10.5 12.5q-3 12 1.5 23.5t27 16t68.5 -2.5t125 -33
l26 40q-67 30 -115.5 40.5t-86.5 14.5q-39 2 -65.5 -0.5t-45.5 -10.5q-45 -16 -73.5 -49.5t-37.5 -73.5q-5 -41 10 -80q9 -20 23 -36t34 -31q40 -33 93 -59.5l97 -48.5q43 -20 63.5 -40.5t18.5 -50.5q-2 -14 -8.5 -29t-17.5 -26q-28 -22 -73 -25t-91 8q-60 11 -112.5 43
t-106.5 99l-50 -25q55 -73 104.5 -109.5t94.5 -55.5q46 -17 87 -23t82 -6q43 1 81.5 7t73.5 20q33 15 58 36t43 46q19 27 27 53.5t9 52.5t-6.5 52t-18.5 47zM611 357q2 -4 4 -5q8 -7 13 -14.5t10 -15.5q11 -22 19 -48.5t7 -53.5q0 -27 -9.5 -53.5t-27.5 -54.5
q-18 -26 -43.5 -48t-60.5 -38q-35 -14 -73.5 -19.5t-82.5 -6.5q-42 0 -83.5 5t-87.5 24q-37 15 -77.5 42t-85.5 78q-3 1 -4 4l4 -4l-8 8q-20 18 -39 40t-41 50l66 33q55 -69 107 -101.5t110 -43.5q17 -4 35 -6.5t34 -2.5q25 0 48.5 6t39.5 17q10 11 16.5 25t8.5 25
q0 14 -5 23l-32 18q-5 2 -15.5 7.5t-14.5 7.5q-38 19 -83 43.5t-78 48.5q-17 13 -27 25l-22 25q-17 15 -31 32t-24 38q-12 38 -8 80q9 40 40.5 75.5t75.5 53.5q15 7 34.5 9.5t45.5 2.5h16t18 -1q38 -3 88 -15.5t125 -44.5l-2 -4l39 -42l-31 -48q-65 22 -107 30.5t-67 8.5
q-40 0 -45 -19q7 -2 15.5 -5t6.5 -3q14 -8 30.5 -16t38.5 -16q10 -5 21.5 -11t22.5 -10q23 -11 44 -22t41 -24v1q28 -19 47 -37t32 -41z" />
    <glyph glyph-name="T" unicode="T" horiz-adv-x="371" 
d="M297 631h-312v30h312v-30zM180 66h-70v556h70v-556zM-30 674v-57h127v-567h98v63v95v60v344v5h117v57h-342zM321 683v-7l37 -41v-69h-116v-566h-110l-38 41h-5v525h-84l-39 43h-5v74h360z" />
    <glyph glyph-name="U" unicode="U" horiz-adv-x="794" 
d="M680 289q0 -34 -10 -64t-27.5 -55t-40.5 -44t-48 -32q-35 -14 -83.5 -21.5t-95.5 -7.5q-28 0 -51 2.5t-44 4.5h1q-33 7 -62 16t-54 22.5t-45 32.5t-36 47q-31 57 -34 121v351h85v-337q1 -25 10 -51q8 -23 23 -51t44 -56q29 -29 68 -41t75 -17q42 -5 87 -2h8q45 0 87.5 16
t70.5 46q22 22 32.5 53.5t12.5 66.5v373h27v-373zM265 305q0 -53 3.5 -77t11.5 -37q14 -24 39.5 -42.5t55.5 -29.5q-40 2 -71 11.5t-54.5 24t-40.5 32.5t-28 37q-27 43 -34 98l1 340h117v-357zM639 364v-75q-1 -31 -12 -61.5t-30 -48.5q-17 -21 -43 -34.5t-55.5 -19.5
t-61 -4.5t-59.5 11t-50 26.5t-33 42q-7 10 -11 31.5t-4 73.5v371h-242v-50v-105v-54v-92q0 -16 -0.5 -30.5t0.5 -33.5q1 -35 9 -65.5t24 -60.5q16 -31 38 -52.5t49 -35.5t58 -23t64 -15q31 -6 67.5 -8t74.5 1t74 10.5t65 19.5q28 13 53 33.5t43.5 47t29 58.5t10.5 68v75v312
h-58v-312zM704 684v-6l38 -42v-392q0 -37 -11 -69.5t-29.5 -60t-44 -48.5t-54.5 -34q-38 -16 -87.5 -24t-100.5 -8q-26 0 -50 2t-46 7q-27 5 -53 12.5t-51.5 20.5t-51 32t-51.5 48q-29 25 -47 60q-16 29 -25 61.5t-9 67.5v373h257v-6l38 -42v-376q0 -45 3 -66t8 -30
q23 -18 52.5 -26.5t60.5 -8.5q42 0 79 12.5t58 38.5q20 20 31 50t12 59v395h74zM95 142q2 -3 4.5 -6t4.5 -5zM209 168l2 -2l-4 5z" />
    <glyph glyph-name="V" unicode="V" horiz-adv-x="655" 
d="M285 70l-13 27l49 112v-1l97 204q30 63 60 128t59 125h47l-287 -595h-12zM98 645q7 -12 20 -37t38 -73t64 -125t99 -194l-51 -111l-288 560h107zM321 240l-223 435h-139l317 -625h29l301 625h-77zM619 684l-3 -6l39 -42l-305 -636h-36l-39 41h-4l-327 643h159l5 -12
l33 -36l187 -364q50 103 97.5 205.5t97.5 206.5h96z" />
    <glyph glyph-name="W" unicode="W" horiz-adv-x="1124" 
d="M820 280l1 -1l85 174q25 54 50.5 105.5t48.5 101.5h43l-287 -595h-41zM288 65h-6l-18 34l83 180q40 81 69.5 140t50.5 103t36.5 76.5t28.5 61.5h93l191 -371l-106 -224h-8l-214 421zM344 288l-85 -179l-282 551h175zM996 675l-174 -363l-187 363h-113l-175 -363l-184 363
h-210l319 -625h27l191 402l203 -402h78l299 625h-74zM1081 678l39 -42l-304 -636h-85l-39 41h-3l-170 333l-175 -374h-34l-39 41h-3l-328 643h227l6 -12l33 -36l148 -292l163 340h123l6 -12l33 -36l150 -292l162 340h93z" />
    <glyph glyph-name="X" unicode="X" horiz-adv-x="515" 
d="M51 66h-38l201 269q-50 84 -101 164.5t-102 161.5h109l367 -595h-107l-149 241zM361 661l-125 -164l-16 28q26 34 52.5 69t49.5 67h39zM390 675h-74l-99 -138l-88 138h-57h-74h-10l211 -340l-211 -285h72l172 231l142 -231h141l-267 435zM172 636l49 -78l92 126h94l-3 -6
l38 -42l-147 -197l271 -439h-154l-39 41h-3l-107 172l-159 -213h-87l-38 41h-8l218 294l-107 172l-110 177h162l9 -17z" />
    <glyph glyph-name="Y" unicode="Y" horiz-adv-x="544" 
d="M257 412l-23 30l28 34t29 34q34 38 66 76.5t64 74.5h46l-210 -247v-2zM187 351q-55 79 -106.5 156t-105.5 154h98l184 -272v-323h-70v285zM230 458l-149 217h-132l224 -330v-295h99v357l226 268h-83zM515 684l-4 -5l39 -43l-231 -276v-360h-111l-39 41h-4v302l-230 341
h150l10 -16l29 -32l109 -160l179 208h103z" />
    <glyph glyph-name="Z" unicode="Z" horiz-adv-x="621" 
d="M550 62h-531l22 32l509 1v-33zM410 622h103l-363 -521h-103zM14 660h526l-21 -30l-505 -1v31zM172 110l396 565h-568v-57h388l-394 -568h527h44v60h-44h-349zM-2 610h-5v74h590l-4 -6l39 -42l-363 -519h318v-5l38 -42v-70h-587l-39 41h-5l363 526h-307z" />
    <glyph glyph-name="a" unicode="a" horiz-adv-x="643" 
d="M230 146h-203l257 506l47 -102l-188 -368h370h48l57 -121h-49l-40 85h-299zM-16 61l39 76h99q-11 -17 -20.5 -37.5t-18.5 -38.5h-99zM165 192l172 338l159 -338h-331zM558 190h-48l-222 469l2 5h40zM282 676l-316 -626h127l43 85h387l40 -85h74l-297 626h-58zM350 674
l34 -38l303 -636h-87l-38 41h-3l-20 43h-360q-11 -20 -21.5 -42t-21.5 -42h-139l-39 41h-7l326 644h69zM366 449q-32 -64 -64.5 -124.5t-64.5 -123.5h246z" />
    <glyph glyph-name="b" unicode="b" horiz-adv-x="567" 
d="M237 618q28 0 45.5 -16.5t17.5 -43.5q0 -25 -17.5 -43.5t-45.5 -18.5h-82v122h82zM271 438h16q34 0 63.5 -13.5t52 -36t35.5 -52t13 -62.5t-13 -63t-35.5 -52.5t-52 -35.5t-63.5 -13h-132v328h116zM499 251q-6 -39 -24.5 -73t-46 -59t-63 -39t-75.5 -14h-222v376h76v-344
h146q37 0 69 14.5t55.5 38.5t37 56t13.5 68t-13.5 68t-37 56t-55.5 38t-69 14h-27h-195v172l76 -1v-135h94q31 0 54 21.5t23 52.5q0 32 -23 51t-54 19l-94 -2l-76 1v36h170q47 0 79 -32t32 -73q0 -17 -6 -35.5t-23 -41.5q42 -11 77 -33.5t59 -53.5t35.5 -68.5t7.5 -77.5z
M338 490q19 31 20 63t-13.5 59t-42.5 44.5t-65 18.5h-184v-625h160h74q43 0 81 15t67.5 41.5t48.5 62.5t24 78q5 43 -5.5 81.5t-33.5 70t-56.5 55t-74.5 36.5zM497 377q32 -35 47 -80t10 -96q-5 -42 -24.5 -79t-49.5 -64t-69 -42.5t-83 -15.5h-240l-39 41h-3v643h191
q40 -2 69.5 -20t44.5 -46l23 -25q15 -16 23.5 -36.5t8.5 -43.5t-7 -41q23 -14 43 -32.5t35 -39.5l20 -23l-4 5q2 -2 2.5 -3t1.5 -2zM201 117h86q32 0 60.5 12.5t49.5 34t33.5 50t12.5 60.5q0 23 -7 44t-19 40q-20 14 -42 21.5t-47 7.5h-127v-270zM201 504h36q24 0 40 16
t16 38q0 5 -1 7q-10 2 -14 2h-77v-63zM340 567l-1 1z" />
    <glyph glyph-name="c" unicode="c" horiz-adv-x="690" 
d="M442 89q-28 -9 -56 -15t-55 -6q-56 0 -109 20.5t-100 59.5v-1q-49 45 -78 106t-29 128q0 16 3 32.5t7 35.5q0 2 0.5 3t0.5 3q8 36 29.5 71t52 64t67 49.5t73.5 28.5q2 -3 5 -9.5t5 -11.5q-22 -6 -42.5 -12.5t-41.5 -17.5l-10 -7q-20 -14 -39 -37t-30 -40q-1 -1 -3 -5
q-27 -61 -31 -123q-2 -27 1 -56.5t13.5 -60t29.5 -61t51 -58.5q28 -26 58 -39.5t59.5 -19t58 -4t53.5 7.5q59 13 114 48q14 7 36 26q22 21 43.5 50t32.5 61l7 34l22 -4q-15 -84 -67.5 -146.5t-130.5 -93.5zM365 205q29 -27 50.5 -40t35.5 -15q-19 -8 -54.5 -18.5t-80 -10
t-93 19t-92.5 68.5q-25 33 -40 75q-13 36 -17 85.5t16 109.5q5 -11 14.5 -24.5t28.5 -32.5zM604 346l-8 -43q-14 -33 -33.5 -61t-36.5 -47q-20 -17 -34.5 -24.5t-27.5 -9.5q-6 -1 -13 0t-17.5 6t-25 16t-35.5 31l-231 217q-17 16 -26 28.5t-12.5 23t-1.5 20.5t8 21
q8 18 24.5 37t34.5 32l12 6q19 14 40.5 20t43.5 11l16 3l-23 49q-94 -15 -159 -77q-65 -60 -89 -150q-19 -91 7.5 -176.5t96.5 -147.5q34 -31 74.5 -50t84 -26.5t88 -3.5t86.5 21q43 17 78.5 43t64.5 61q58 72 67 164l-53 7v-1zM667 346q0 -1 -0.5 -2t-0.5 -2l39 -43
q-7 -51 -24 -93.5t-46 -77.5q-57 -74 -145 -107q-29 -11 -60 -16t-61 -5q-58 0 -114.5 20.5t-103.5 61.5l-22 22l-15 16l-6 6q-54 50 -84 116.5t-30 136.5q0 39 9 77q23 91 91 154q35 32 76.5 52.5t91.5 27.5l5 -9l34 -38l29 -60l-23 -3q-23 -5 -44.5 -11.5t-38.5 -18.5
l-11 -6q-18 -13 -34.5 -32.5t-25.5 -38.5q-2 -6 -4 -11.5t-2 -10.5t0.5 -9t2.5 -7l229 -215q19 -18 33 -28.5t23 -16t15 -6.5t11 0q12 2 26 9t34 23q14 16 33 45.5t33 58.5q2 13 5.5 26.5t5.5 25.5zM628 323h-1l3 -3v1z" />
    <glyph glyph-name="d" unicode="d" horiz-adv-x="602" 
d="M429 510h2h-2zM235 618q52 0 99 -21t82 -56t55 -78t20 -98q0 -53 -20.5 -99.5t-55 -81t-81.5 -54.5t-99 -20h-58v508h58zM70 68v29h91h74q57 0 106 21t85.5 58t57.5 85.5t21 104.5q0 57 -21 106t-57.5 85t-85.5 56.5t-106 20.5h-165v-8h91v-521h-91v559h165
q63 0 117.5 -22.5t95 -62.5t64 -94.5t23.5 -118.5q0 -61 -23.5 -115.5t-64 -95t-95 -64t-117.5 -23.5h-165zM55 675v-570v-8v-47h180q65 0 122.5 24.5t100 67.5t67.5 100.5t25 122.5q0 63 -25 119.5t-67.5 98.5t-100 67t-122.5 25h-180zM235 684q85 0 154 -39.5t114 -103.5
l12 -13q38 -42 59.5 -95t21.5 -113q0 -66 -25 -124.5t-68.5 -102t-102 -68.5t-124.5 -25h-186l-39 41h-5v643h189zM223 117h12q51 0 95.5 19.5t78.5 53t53.5 79t19.5 96.5q0 42 -13 78.5t-36 66.5q-33 26 -73.5 41.5t-83.5 15.5h-53v-450z" />
    <glyph glyph-name="e" unicode="e" horiz-adv-x="422" 
d="M369 62h-303v33h303v-33zM303 661v-31h-153v-138h152v-29h-36h-200v198h237zM66 102v354h84v-354h-84zM164 110v339h149v59h-149v110h151v57h-264v-625h330v60h-217zM210 515h112v-5l38 -42v-69h-150v-282h180v-5l38 -42v-70h-342l-39 41h-5v643h282v-7l38 -41v-69h-152
v-52z" />
    <glyph glyph-name="f" unicode="f" horiz-adv-x="398" 
d="M302 493v-30h-150v-397h-87v557h87v-130h150zM310 661v-30h-245v30h245zM324 618v57h-273v-625h114v60v338h151v60h-151v110h159zM47 41h-5v643h290v-7l38 -41v-69h-159v-52h113v-5l38 -42v-70h-151v-398h-125z" />
    <glyph glyph-name="g" unicode="g" horiz-adv-x="741" 
d="M674 388q0 -32 -4 -63.5t-15 -62.5t-31 -61.5t-53 -60.5v2q-99 -81 -229 -81q-62 0 -123.5 23t-110.5 64q-48 47 -71.5 105.5t-23.5 121.5q0 60 20 114t65 100q32 35 74.5 54t90.5 24q45 3 84.5 -7.5t77.5 -30.5l-20 -18l-6 2q-14 8 -25 12t-27 7h1q-17 5 -34 6.5
t-39 1.5q-17 0 -32 -2t-37 -10q-16 -8 -36.5 -20t-43.5 -40h1q-3 -4 -6.5 -7t-6.5 -7q0 -2 -0.5 -2t-1.5 -2q-5 -7 -15 -24.5t-19.5 -42t-16 -55.5t-4.5 -66.5t15 -74t42 -77.5q25 -33 54 -53.5t60 -31.5t62.5 -14.5t60.5 -1.5q68 4 139 31q33 11 63.5 38t53 64t34.5 81.5
t6 89.5h-392v24h418v1l1 -1h-1q1 -12 1 -19.5v-17.5v-12zM140 439l221 -255q24 -26 41.5 -37t34.5 -13q-23 -7 -59.5 -12.5t-77 -2t-80.5 18.5t-70 49q-37 40 -55.5 82t-22.5 83t4.5 79t26.5 71q2 -11 10 -26t29 -37h-2zM244 453v-53h391q4 -48 -11.5 -94.5t-42.5 -82
t-62 -57t-70 -20.5q-19 0 -35.5 11t-39.5 38l-225 256q-26 29 -30.5 46t-1.5 30q10 23 19 33q22 26 40.5 38.5t34.5 18.5q22 8 35 10t29 2q22 0 38.5 -1.5t30.5 -6.5q34 -7 62 -25l43 38q-43 24 -89 37t-97 11q-50 -4 -94 -25.5t-79 -59.5q-47 -47 -69 -107t-20.5 -123
t27 -122.5t74.5 -104.5q48 -45 110 -67.5t127 -22.5t128 21t113 63q40 37 63.5 75.5t34 78.5t11.5 81t-4 84h-441zM694 455q0 -1 0.5 -2t0.5 -3l37 -42q2 -17 3 -34t1 -34q0 -68 -23 -131.5t-88 -124.5q-51 -42 -114 -63t-130 -21q-66 0 -129.5 23.5t-112.5 68.5q-5 4 -10 9
t-10 11l-14 16l-9 6q-51 48 -77 111t-26 130q0 60 25 121t67 106q36 38 82 61t96 26q52 3 101.5 -12t97.5 -42l-4 -2l40 -43l-50 -45q-28 17 -68 26q-23 8 -64 8q-15 0 -27.5 -2t-35.5 -11q-15 -6 -33.5 -17.5t-39.5 -37.5q-7 -9 -17 -31q-2 -8 -1.5 -18t8.5 -24l209 -237
q22 -26 37.5 -37t32.5 -11q28 -1 57 15t53.5 43t42.5 63t24 75h-347l-39 43h-5v68h451zM448 545l-40 42l1 1zM185 154l-2 2l8 -8z" />
    <glyph glyph-name="h" unicode="h" horiz-adv-x="537" 
d="M420 68h-31v300h-326v296h84v-263h77v0h196v-333zM63 68v293h84v-293h-84zM420 664v-256h-31v256h31zM434 674h-59v-262h-213v210v52h-113v-624h113v58v208v38h213v-304h59v624zM443 676l37 -41v-635h-70l-39 41h-3v263h-160v-304h-123l-39 41h-4v642h129v-7l37 -41v-215
h160v263h75v-7z" />
    <glyph glyph-name="i" unicode="i" horiz-adv-x="251" 
d="M41 684h118v-7l38 -41v-636h-112l-39 41h-5v643zM50 50h101v60v342v60v111v52h-101v-625zM137 659v-589h-74v589h74z" />
    <glyph glyph-name="j" unicode="j" horiz-adv-x="677" 
d="M574 338q-1 -31 -8 -60.5t-20 -57.5q-28 -54 -76 -94.5t-105 -51.5q-20 -5 -44 -8t-45 -3q-56 0 -107 15t-89 47t-60.5 82.5t-22.5 121.5v12h26q-1 -45 9.5 -88t45.5 -78q28 -29 66 -46t79 -17q2 0 2.5 0.5t2.5 0.5q82 1 146 29q27 12 53 31t46 48t31.5 68.5t10.5 92.5
v283h59v-327zM342 187q0 4 2 6q5 13 10 34.5t5 70.5v367h141v-302q-1 -55 -23 -103q-9 -20 -24 -40.5t-37 -38.5t-52 -31.5t-70 -19.5q12 9 24.5 22.5t23.5 34.5zM344 298q0 -25 -1.5 -42t-4 -29t-6 -20t-6.5 -14q-18 -35 -35 -47.5t-36 -16.5q-22 -6 -46 -4t-46.5 9.5
t-42 20t-32.5 29.5q-19 18 -29.5 38t-16 41.5t-6.5 45t0 47.5h-54q-4 -99 28 -163t87 -98.5t125.5 -42t143.5 6.5q65 13 114 54.5t78 99.5q14 31 20 60.5t7 64.5v124v60v106v49h-241v-379zM593 685v-6l37 -42v-345q-1 -35 -6.5 -65t-19.5 -62q-31 -59 -80.5 -101t-115.5 -55
q-23 -5 -47.5 -7t-48.5 -2q-66 0 -124.5 20.5t-100.5 66.5l-19 20q-46 38 -71.5 100.5t-21.5 155.5h70v-5l38 -42q0 -7 -0.5 -16t-0.5 -15q0 -29 5 -56.5t19 -52.5q20 -20 51.5 -31.5t63.5 -11.5q8 0 16 0.5t15 2.5q16 5 34 18.5t34 42.5q3 6 6 14t5.5 19.5t4 28t1.5 39.5
v387h256z" />
    <glyph glyph-name="k" unicode="k" horiz-adv-x="801" 
d="M579 65l-155 395l-271 -184v-211h-89v206l379 252q52 -134 94 -245.5t83 -212.5h-41zM153 344l-89 -57v377h89v-320zM727 664l-260 -173l-15 38l201 135h74zM649 674l-485 -325v325h-115v-624h115v60v159l256 171l149 -390h69l-165 425l295 199h-119zM786 678l39 -43
l-304 -207l166 -428h-81l-38 41h-4l-128 332l-226 -152v-221h-125l-39 41h-4v642h130v-7l38 -41v-246l436 294h146z" />
    <glyph glyph-name="l" unicode="l" horiz-adv-x="327" 
d="M300 67h-235v28l235 1v-29zM151 661v-558h-86v558h86zM165 108v566h-116v-624h266v58h-150zM47 41h-5v642h132v-7l37 -41v-519h111v-6l38 -42v-68h-275z" />
    <glyph glyph-name="m" unicode="m" horiz-adv-x="898" 
d="M783 65h-28v474l-274 -245l-117 141l249 225h170v-595zM455 269l-311 356v-1h-77v36h84l203 -236l118 -138zM144 65h-77v550h77v-550zM739 674h-132l-252 -226l-198 226h-105v-566v-58h63h42v58v477l294 -336l43 38l245 221v-20v-438h58v624h-58zM804 676l38 -41v-635
h-68l-39 41h-5v370l-192 -173l-47 -43l-39 44l-2 -2l-247 282v-519h-116l-39 41h-5v642h118l195 -225l122 111l126 114h200v-7z" />
    <glyph glyph-name="n" unicode="n" horiz-adv-x="787" 
d="M666 62h-26v40l-533 390v163h95l438 -321v321h26v-593zM93 62h-25v593h25v-3v-590zM623 674v-128v-58v-120l-416 306h-156v-624h59v424l512 -377h1v-47h60v624h-60zM690 683v-7l38 -41v-635h-70l-39 41h-5l-1 38l-457 339v-418h-70l-39 41h-5v642h168l404 -299v299h76z
" />
    <glyph glyph-name="o" unicode="o" horiz-adv-x="692" 
d="M572 273q-4 -22 -20 -46q-14 -25 -26.5 -34t-21.5 -11q-12 -10 -39 -12q-11 0 -27 4t-44 29l-253 212q-27 24 -32.5 41.5t-5.5 27.5q0 27 4 44q3 12 12 22t30 30q11 6 20 11.5t20 10.5q47 27 104 28q56 2 106 -17q25 -9 47.5 -22t42.5 -31q20 -17 35.5 -37t29.5 -43
q24 -46 30 -103q8 -53 -12 -104zM146 211q-31 27 -49 67q-8 17 -14 39t-8 48.5t1.5 58t14.5 68.5v4v-6.5t1 -7.5q0 -6 1.5 -14t6.5 -18.5t14.5 -23t25.5 -28.5l248 -206q26 -22 46.5 -29t32.5 -6q2 1 5.5 1.5t6.5 1.5q-21 -11 -56.5 -23t-80 -12t-95 18t-101.5 68zM497 568
q-20 18 -44 33t-48 23q-54 20 -112 17q-60 -1 -108 -27l-8 -4q-8 -5 -15 -8.5t-18 -14.5v1q-25 -19 -34 -32t-15 -24q-26 -58 -33 -116q-3 -25 -2 -52.5t8.5 -55.5t23.5 -55.5t42 -52.5q52 -51 110.5 -70t112 -17t96 19t62.5 38q11 5 23 16t27 33q7 11 12 23t8 27v-1
q8 19 10.5 40t2.5 42v27q-3 29 -11 56.5t-22 51.5q-28 52 -68 84v-1zM627 353q0 -110 -71 -191h1q-43 -47 -96.5 -71t-116.5 -27t-118 17.5t-102 61.5q-45 38 -73 91t-37 113q0 8 -0.5 15.5t-0.5 16.5q0 109 71 191q41 48 94.5 71.5t116.5 28.5q60 2 116 -18.5t104 -60.5
q44 -38 73 -92.5t37 -115.5q0 -2 0.5 -2.5t0.5 -2.5q2 -7 1.5 -12t-0.5 -13zM636 385q-14 131 -114 216q-46 41 -105.5 62.5t-122.5 21.5q-134 -8 -222 -105q-43 -50 -60.5 -109.5t-9.5 -123.5q6 -63 35 -118.5t78 -97.5q48 -40 107 -61.5t122 -19.5q66 2 122 29t99 75
q44 49 61 108t10 123zM599 528q1 -1 1.5 -2t2.5 -2q33 -38 53 -84t24 -98q3 -20 3 -40q0 -54 -19.5 -104.5t-55.5 -91.5q-43 -48 -101 -76t-123 -30q-64 -2 -124 19.5t-109 60.5l-15 15t-14 15l-13 14l4 -6l-8 10q-22 20 -40 44.5t-32 52.5l-12 26t-9 27q-14 38 -17 69
q-2 10 -2.5 21t-0.5 20q0 54 18.5 104t56.5 93q45 49 101.5 76.5t125.5 30.5q64 0 124.5 -21.5t108.5 -62.5q39 -33 64 -74l7 -6l-3 4zM565 275q6 19 9.5 36t3.5 34q0 14 -3 31q-2 26 -10 52t-19 49v-1q-6 11 -12.5 20t-14.5 19q-38 32 -82 48q-54 18 -104 17q-29 -2 -54 -8
t-48 -19l-35 -19l-1 -1l-2 -2q-20 -17 -28.5 -27.5t-12.5 -21.5q-2 -8 -3.5 -19t-0.5 -24q0 -5 0.5 -10.5t2.5 -11.5q60 -51 125 -105.5t124 -103.5q25 -23 39.5 -26.5t25.5 -3.5q11 1 20 4t15 8q9 2 21 11t24 29t20 45zM165 393l2 -4q-2 2 -2 4z" />
    <glyph glyph-name="p" unicode="p" horiz-adv-x="530" 
d="M151 221v-161h-88v196h202v1q35 3 65.5 19t53.5 41t36.5 57t13.5 68q0 38 -14.5 72t-40 59.5t-59.5 40.5t-72 15l-185 -1v36h185q45 0 85 -17.5t70 -48t47.5 -71t17.5 -85.5q0 -46 -17.5 -86t-47.5 -70t-70 -47.5t-85 -17.5h-97zM63 264v355h88v-355h-88zM164 269v183v36
v24v6v28v66v5h85q35 0 66.5 -14.5t55.5 -38.5t38 -55.5t14 -66.5q0 -36 -14 -68t-38 -55t-55.5 -36.5t-66.5 -13.5h-85zM197 675h-145v-625h112v63v96h85q49 0 91.5 18.5t74 50t49.5 74t18 90.5q0 49 -18 91.5t-49.5 74t-74 49.5t-91.5 18h-52zM462 562q2 -2 2.5 -3t1.5 -2
q29 -32 45.5 -73t16.5 -86q0 -49 -18.5 -92.5t-50.5 -76.5t-75.5 -52t-93.5 -19h-80v-158h-123l-39 41h-3v643h204q65 0 118.5 -31t85.5 -81zM249 277q33 0 63 12.5t52.5 35t36 52.5t13.5 65q0 26 -7.5 49t-21.5 43q-21 14 -45 23t-50 9h-80v-289h39z" />
    <glyph glyph-name="q" unicode="q" horiz-adv-x="703" 
d="M349 53q11 -14 23 -30.5t23 -30.5h-138l51 61q-31 3 -63 15t-62 29t-56.5 37.5t-45.5 41.5q-38 49 -55 109q0 2 -0.5 2.5t-0.5 2.5q-10 39 -9 75.5t6 65t11 46t6 18.5q19 39 47 71.5t63.5 55.5t77 35t86.5 10q57 -4 111.5 -27t98.5 -61t73 -88.5t34 -110.5
q1 -5 0.5 -12.5t-0.5 -12.5v-11q0 -56 -21 -105.5t-58 -88.5t-89 -64.5t-113 -32.5zM642 384q-7 63 -36 116t-73.5 92.5t-100.5 63t-116 27.5q-65 0 -122 -22.5t-100.5 -62.5t-69 -95t-27.5 -120q-2 -62 20.5 -119.5t60.5 -103.5q39 -45 96 -78q57 -31 109 -37l-52 -63h195
l-52 61q63 6 116.5 36.5t90.5 77t54 105.5t7 122zM578 265q-3 -11 -8 -22t-13 -25q-14 -22 -25.5 -31.5t-23.5 -15.5q-8 -4 -18 -5.5t-21 -2.5q-10 0 -27 4t-44 28l-256 215q-26 27 -31.5 43.5t-7.5 27.5q-2 25 4 45q5 8 13 19.5t31 30.5q8 8 17.5 13.5t21.5 10.5
q51 25 105 27q59 5 107 -16q50 -18 92 -54q18 -17 34.5 -36.5t29.5 -45.5q29 -50 30 -104q4 -26 1 -53.5t-11 -52.5zM145 198q-36 28 -56 69q-9 18 -15.5 40t-8 48.5t3.5 58.5t19 69v-6q0 -13 9 -31.5t40 -50.5q63 -54 125 -106t128 -106v1q27 -25 46.5 -31t33.5 -5h10
q-20 -9 -55 -19t-79.5 -9.5t-96 17t-104.5 61.5zM568 481q-14 24 -31 45.5t-38 38.5q-20 19 -44.5 33t-48.5 23q-26 11 -54.5 14.5t-59.5 2.5q-59 -4 -108 -26l-8 -5q-8 -5 -15.5 -9t-18.5 -14v1q-26 -22 -34 -33.5t-13 -22.5q-30 -59 -40 -118q-4 -25 -4 -53t7.5 -56.5
t23.5 -56t44 -52.5q55 -50 114.5 -69t113.5 -18t97 16.5t63 35.5q8 5 22.5 17t31.5 35q6 11 11.5 23.5t8.5 26.5v-1q8 21 11.5 41.5t3.5 42.5v13t-2 14q-2 27 -10.5 57.5t-22.5 53.5zM103 122q-9 8 -16.5 16t-15.5 16q-38 46 -59 107.5t-22 121.5q3 66 29.5 122t70.5 97.5
t102 65t124 23.5q84 -5 158.5 -46.5t120.5 -110.5l11 -10q34 -38 55 -84t27 -99q2 -12 3 -24t1 -24q0 -56 -20.5 -107t-56.5 -91.5t-84.5 -67t-104.5 -33.5l17 -20q9 -11 18 -22.5t17 -20.5h-219l-38 43h-9l34 42q-8 2 -16.5 7t-17.5 10q-55 30 -93 73zM570 268q6 17 9 36
t3 37v14t-1 15q-3 52 -30 102q-6 11 -12.5 21t-13.5 19q-19 15 -40 28t-44 21q-48 19 -106 16q-52 -1 -103 -27q-20 -9 -37 -24q-20 -16 -28 -26t-12 -17l-2 -3q-6 -20 -4 -44q0 -1 1 -2q2 -13 6 -26l248 -208q25 -23 40.5 -26.5t24.5 -3.5q8 1 18 3.5t18 5.5q21 10 45 44
q7 11 12 23.5t8 20.5v1zM177 379l-32 35l33 -36q-1 0 -1 1zM521 521q0 1 -2 1zM522 520l-1 1z" />
    <glyph glyph-name="r" unicode="r" horiz-adv-x="539" 
d="M286 617q31 0 58 -12t47 -32.5t32 -48t12 -59.5q0 -31 -12 -58t-32 -47.5t-47 -32t-58 -11.5h-131v296v5h131zM383 64h-39l-120 206h-156v351h74v-315h145q34 0 63.5 13t51 34.5t34 50.5t12.5 62q0 34 -12.5 63.5t-34 51.5t-51 35t-63.5 13h-219v35h219q40 0 76 -15.5
t63 -42t42.5 -63t15.5 -78.5q0 -41 -17.5 -76.5t-47.5 -62t-70 -41.5t-84 -15zM68 262h74v-198h-74v198zM494 465q0 44 -16.5 82t-45 66.5t-66 44.5t-80.5 16h-101h-133v-404v-8v-212h103v63v96v48h61l121 -207h67l-120 207q43 0 81.5 16t67 44t45 66t16.5 82zM50 41h-5v642
h241q57 0 104.5 -27t76.5 -73l18 -19q26 -28 40.5 -65t14.5 -79q0 -44 -16 -82.5t-43.5 -67.5t-65.5 -46t-81 -18l119 -206h-78l-39 41h-4l-98 165h-33v-206h-113zM201 325h85q29 0 54.5 11t45 30t31 44.5t11.5 54.5q0 21 -6 40t-16 36q-17 11 -37 18t-42 7h-126v-241z" />
    <glyph glyph-name="s" unicode="s" horiz-adv-x="681" 
d="M574 169q-30 -46 -93 -75q-67 -26 -147 -26q-41 -1 -80 4t-83 23q-42 17 -86 49t-95 95q13 7 15 8l4 2q51 -60 107 -92t116 -45q18 -4 36 -6.5t35 -2.5q9 0 18.5 0.5t17.5 1.5q32 2 60 13q24 9 48 28.5t36 54.5q12 34 7.5 60.5t-19 46.5t-35 35t-40.5 27q-12 8 -40 18.5
t-59 23t-58 27.5t-37 32q-17 29 -7 66.5t48 65.5q-3 -13 4 -29t43 -34q15 -11 41 -22t49 -22l11 -6l13 -8q29 -14 58.5 -28t51.5 -30q51 -30 73 -67v2l5 1l-5 -3q11 -20 17 -44.5t6 -46.5q-2 -25 -9.5 -48.5t-26.5 -48.5zM440 199q1 34 -23 57t-70 50l-42 22
q-37 17 -77 38.5t-66 45.5q-37 23 -52 59q-7 16 -8 34.5t1 37.5q8 32 35 62q28 31 63 48q17 6 33 9t39 3h15.5t17.5 -1q34 -3 75.5 -12.5t101.5 -34.5l-7 -14q-57 22 -96.5 29t-66.5 7q-11 0 -19.5 -1t-16.5 -2q-5 -2 -7 -4q-10 -4 -28 -13t-34.5 -25t-27.5 -39.5t-8 -56.5
q3 -26 21 -44t45 -32.5t59 -26t62.5 -25t57 -30.5t41.5 -41t18 -46t-4 -41t-20.5 -35t-31.5 -28q20 25 20 50zM599 364q-14 21 -31.5 39.5t-46.5 35.5q-27 19 -59 33.5t-64 31.5q-34 13 -59 26t-44 21q-17 10 -24.5 16.5t-10.5 12.5q-3 12 1.5 23.5t27 16t68.5 -2.5t125 -33
l26 40q-67 30 -115.5 40.5t-86.5 14.5q-39 2 -65.5 -0.5t-45.5 -10.5q-45 -16 -73.5 -49.5t-37.5 -73.5q-5 -41 10 -80q9 -20 23 -36t34 -31q40 -33 93 -59.5l97 -48.5q43 -20 63.5 -40.5t18.5 -50.5q-2 -14 -8.5 -29t-17.5 -26q-28 -22 -73 -25t-91 8q-60 11 -112.5 43
t-106.5 99l-50 -25q55 -73 104.5 -109.5t94.5 -55.5q46 -17 87 -23t82 -6q43 1 81.5 7t73.5 20q33 15 58 36t43 46q19 27 27 53.5t9 52.5t-6.5 52t-18.5 47zM617 357q2 -4 4 -5q8 -7 13 -14.5t10 -15.5q11 -22 19 -48.5t7 -53.5q0 -27 -9.5 -53.5t-27.5 -54.5
q-18 -26 -43.5 -48t-60.5 -38q-35 -14 -73.5 -19.5t-82.5 -6.5q-42 0 -83.5 5t-87.5 24q-37 15 -77.5 42t-85.5 78q-3 1 -4 4l4 -4l-8 8q-20 18 -39 40t-41 50l66 33q55 -69 107 -101.5t110 -43.5q17 -4 35 -6.5t34 -2.5q25 0 48.5 6t39.5 17q10 11 16.5 25t8.5 25
q0 14 -5 23l-32 18q-5 2 -15.5 7.5t-14.5 7.5q-38 19 -83 43.5t-78 48.5q-17 13 -27 25l-22 25q-17 15 -31 32t-24 38q-12 38 -8 80q9 40 40.5 75.5t75.5 53.5q15 7 34.5 9.5t45.5 2.5h16t18 -1q38 -3 88 -15.5t125 -44.5l-2 -4l39 -42l-31 -48q-65 22 -107 30.5t-67 8.5
q-40 0 -45 -19q7 -2 15.5 -5t6.5 -3q14 -8 30.5 -16t38.5 -16q10 -5 21.5 -11t22.5 -10q23 -11 44 -22t41 -24v1q28 -19 47 -37t32 -41z" />
    <glyph glyph-name="t" unicode="t" horiz-adv-x="376" 
d="M303 631h-312v30h312v-30zM186 66h-70v556h70v-556zM-24 674v-57h127v-567h98v63v95v60v344v5h117v57h-342zM327 683v-7l37 -41v-69h-116v-566h-110l-38 41h-5v525h-84l-39 43h-5v74h360z" />
    <glyph glyph-name="u" unicode="u" horiz-adv-x="800" 
d="M687 289q0 -34 -10 -64t-27.5 -55t-40.5 -44t-48 -32q-35 -14 -83.5 -21.5t-95.5 -7.5q-28 0 -51 2.5t-44 4.5h1q-33 7 -62 16t-54 22.5t-45 32.5t-36 47q-31 57 -34 121v351h85v-337q1 -25 10 -51q8 -23 23 -51t44 -56q29 -29 68 -41t75 -17q42 -5 87 -2h8q45 0 87.5 16
t70.5 46q22 22 32.5 53.5t12.5 66.5v373h27v-373zM272 305q0 -53 3.5 -77t11.5 -37q14 -24 39.5 -42.5t55.5 -29.5q-40 2 -71 11.5t-54.5 24t-40.5 32.5t-28 37q-27 43 -34 98l1 340h117v-357zM646 364v-75q-1 -31 -12 -61.5t-30 -48.5q-17 -21 -43 -34.5t-55.5 -19.5
t-61 -4.5t-59.5 11t-50 26.5t-33 42q-7 10 -11 31.5t-4 73.5v371h-242v-50v-105v-54v-92q0 -16 -0.5 -30.5t0.5 -33.5q1 -35 9 -65.5t24 -60.5q16 -31 38 -52.5t49 -35.5t58 -23t64 -15q31 -6 67.5 -8t74.5 1t74 10.5t65 19.5q28 13 53 33.5t43.5 47t29 58.5t10.5 68v75v312
h-58v-312zM711 684v-6l38 -42v-392q0 -37 -11 -69.5t-29.5 -60t-44 -48.5t-54.5 -34q-38 -16 -87.5 -24t-100.5 -8q-26 0 -50 2t-46 7q-27 5 -53 12.5t-51.5 20.5t-51 32t-51.5 48q-29 25 -47 60q-16 29 -25 61.5t-9 67.5v373h257v-6l38 -42v-376q0 -45 3 -66t8 -30
q23 -18 52.5 -26.5t60.5 -8.5q42 0 79 12.5t58 38.5q20 20 31 50t12 59v395h74zM102 142q2 -3 4.5 -6t4.5 -5zM216 168l2 -2l-4 5z" />
    <glyph glyph-name="v" unicode="v" horiz-adv-x="659" 
d="M290 70l-13 27l49 112v-1l97 204q30 63 60 128t59 125h47l-287 -595h-12zM103 645q7 -12 20 -37t38 -73t64 -125t99 -194l-51 -111l-288 560h107zM326 240l-223 435h-139l317 -625h29l301 625h-77zM624 684l-3 -6l39 -42l-305 -636h-36l-39 41h-4l-327 643h159l5 -12
l33 -36l187 -364q50 103 97.5 205.5t97.5 206.5h96z" />
    <glyph glyph-name="w" unicode="w" horiz-adv-x="1128" 
d="M826 280l1 -1l85 174q25 54 50.5 105.5t48.5 101.5h43l-287 -595h-41zM294 65h-6l-18 34l83 180q40 81 69.5 140t50.5 103t36.5 76.5t28.5 61.5h93l191 -371l-106 -224h-8l-214 421zM350 288l-85 -179l-282 551h175zM1002 675l-174 -363l-187 363h-113l-175 -363
l-184 363h-210l319 -625h27l191 402l203 -402h78l299 625h-74zM1087 678l39 -42l-304 -636h-85l-39 41h-3l-170 333l-175 -374h-34l-39 41h-3l-328 643h227l6 -12l33 -36l148 -292l163 340h123l6 -12l33 -36l150 -292l162 340h93z" />
    <glyph glyph-name="x" unicode="x" horiz-adv-x="519" 
d="M57 66h-38l201 269q-50 84 -101 164.5t-102 161.5h109l367 -595h-107l-149 241zM367 661l-125 -164l-16 28q26 34 52.5 69t49.5 67h39zM396 675h-74l-99 -138l-88 138h-57h-74h-10l211 -340l-211 -285h72l172 231l142 -231h141l-267 435zM178 636l49 -78l92 126h94l-3 -6
l38 -42l-147 -197l271 -439h-154l-39 41h-3l-107 172l-159 -213h-87l-38 41h-8l218 294l-107 172l-110 177h162l9 -17z" />
    <glyph glyph-name="y" unicode="y" horiz-adv-x="547" 
d="M262 412l-23 30l28 34t29 34q34 38 66 76.5t64 74.5h46l-210 -247v-2zM192 351q-55 79 -106.5 156t-105.5 154h98l184 -272v-323h-70v285zM235 458l-149 217h-132l224 -330v-295h99v357l226 268h-83zM520 684l-4 -5l39 -43l-231 -276v-360h-111l-39 41h-4v302l-230 341
h150l10 -16l29 -32l109 -160l179 208h103z" />
    <glyph glyph-name="z" unicode="z" horiz-adv-x="625" 
d="M555 62h-531l22 32l509 1v-33zM415 622h103l-363 -521h-103zM19 660h526l-21 -30l-505 -1v31zM177 110l396 565h-568v-57h388l-394 -568h527h44v60h-44h-349zM3 610h-5v74h590l-4 -6l39 -42l-363 -519h318v-5l38 -42v-70h-587l-39 41h-5l363 526h-307z" />
    <glyph glyph-name="D" unicode="D" horiz-adv-x="597" 
d="M423 510h2h-2zM229 618q52 0 99 -21t82 -56t55 -78t20 -98q0 -53 -20.5 -99.5t-55 -81t-81.5 -54.5t-99 -20h-58v508h58zM64 68v29h91h74q57 0 106 21t85.5 58t57.5 85.5t21 104.5q0 57 -21 106t-57.5 85t-85.5 56.5t-106 20.5h-165v-8h91v-521h-91v559h165
q63 0 117.5 -22.5t95 -62.5t64 -94.5t23.5 -118.5q0 -61 -23.5 -115.5t-64 -95t-95 -64t-117.5 -23.5h-165zM49 675v-570v-8v-47h180q65 0 122.5 24.5t100 67.5t67.5 100.5t25 122.5q0 63 -25 119.5t-67.5 98.5t-100 67t-122.5 25h-180zM229 684q85 0 154 -39.5t114 -103.5
l12 -13q38 -42 59.5 -95t21.5 -113q0 -66 -25 -124.5t-68.5 -102t-102 -68.5t-124.5 -25h-186l-39 41h-5v643h189zM217 117h12q51 0 95.5 19.5t78.5 53t53.5 79t19.5 96.5q0 42 -13 78.5t-36 66.5q-33 26 -73.5 41.5t-83.5 15.5h-53v-450z" />
    <glyph glyph-name="B" unicode="B" horiz-adv-x="563" 
d="M231 618q28 0 45.5 -16.5t17.5 -43.5q0 -25 -17.5 -43.5t-45.5 -18.5h-82v122h82zM265 438h16q34 0 63.5 -13.5t52 -36t35.5 -52t13 -62.5t-13 -63t-35.5 -52.5t-52 -35.5t-63.5 -13h-132v328h116zM493 251q-6 -39 -24.5 -73t-46 -59t-63 -39t-75.5 -14h-222v376h76v-344
h146q37 0 69 14.5t55.5 38.5t37 56t13.5 68t-13.5 68t-37 56t-55.5 38t-69 14h-27h-195v172l76 -1v-135h94q31 0 54 21.5t23 52.5q0 32 -23 51t-54 19l-94 -2l-76 1v36h170q47 0 79 -32t32 -73q0 -17 -6 -35.5t-23 -41.5q42 -11 77 -33.5t59 -53.5t35.5 -68.5t7.5 -77.5z
M332 490q19 31 20 63t-13.5 59t-42.5 44.5t-65 18.5h-184v-625h160h74q43 0 81 15t67.5 41.5t48.5 62.5t24 78q5 43 -5.5 81.5t-33.5 70t-56.5 55t-74.5 36.5zM491 377q32 -35 47 -80t10 -96q-5 -42 -24.5 -79t-49.5 -64t-69 -42.5t-83 -15.5h-240l-39 41h-3v643h191
q40 -2 69.5 -20t44.5 -46l23 -25q15 -16 23.5 -36.5t8.5 -43.5t-7 -41q23 -14 43 -32.5t35 -39.5l20 -23l-4 5q2 -2 2.5 -3t1.5 -2zM195 117h86q32 0 60.5 12.5t49.5 34t33.5 50t12.5 60.5q0 23 -7 44t-19 40q-20 14 -42 21.5t-47 7.5h-127v-270zM195 504h36q24 0 40 16
t16 38q0 5 -1 7q-10 2 -14 2h-77v-63zM334 567l-1 1z" />
    <glyph glyph-name="C" unicode="C" horiz-adv-x="701" 
d="M437 89q-28 -9 -56 -15t-55 -6q-56 0 -109 20.5t-100 59.5v-1q-49 45 -78 106t-29 128q0 16 3 32.5t7 35.5q0 2 0.5 3t0.5 3q8 36 29.5 71t52 64t67 49.5t73.5 28.5q2 -3 5 -9.5t5 -11.5q-22 -6 -42.5 -12.5t-41.5 -17.5l-10 -7q-20 -14 -39 -37t-30 -40q-1 -1 -3 -5
q-27 -61 -31 -123q-2 -27 1 -56.5t13.5 -60t29.5 -61t51 -58.5q28 -26 58 -39.5t59.5 -19t58 -4t53.5 7.5q59 13 114 48q14 7 36 26q22 21 43.5 50t32.5 61l7 34l22 -4q-15 -84 -67.5 -146.5t-130.5 -93.5zM360 205q29 -27 50.5 -40t35.5 -15q-19 -8 -54.5 -18.5t-80 -10
t-93 19t-92.5 68.5q-25 33 -40 75q-13 36 -17 85.5t16 109.5q5 -11 14.5 -24.5t28.5 -32.5zM599 346l-8 -43q-14 -33 -33.5 -61t-36.5 -47q-20 -17 -34.5 -24.5t-27.5 -9.5q-6 -1 -13 0t-17.5 6t-25 16t-35.5 31l-231 217q-17 16 -26 28.5t-12.5 23t-1.5 20.5t8 21
q8 18 24.5 37t34.5 32l12 6q19 14 40.5 20t43.5 11l16 3l-23 49q-94 -15 -159 -77q-65 -60 -89 -150q-19 -91 7.5 -176.5t96.5 -147.5q34 -31 74.5 -50t84 -26.5t88 -3.5t86.5 21q43 17 78.5 43t64.5 61q58 72 67 164l-53 7v-1zM662 346q0 -1 -0.5 -2t-0.5 -2l39 -43
q-7 -51 -24 -93.5t-46 -77.5q-57 -74 -145 -107q-29 -11 -60 -16t-61 -5q-58 0 -114.5 20.5t-103.5 61.5l-22 22l-15 16l-6 6q-54 50 -84 116.5t-30 136.5q0 39 9 77q23 91 91 154q35 32 76.5 52.5t91.5 27.5l5 -9l34 -38l29 -60l-23 -3q-23 -5 -44.5 -11.5t-38.5 -18.5
l-11 -6q-18 -13 -34.5 -32.5t-25.5 -38.5q-2 -6 -4 -11.5t-2 -10.5t0.5 -9t2.5 -7l229 -215q19 -18 33 -28.5t23 -16t15 -6.5t11 0q12 2 26 9t34 23q14 16 33 45.5t33 58.5q2 13 5.5 26.5t5.5 25.5zM623 323h-1l3 -3v1z" />
    <glyph glyph-name="A" unicode="A" horiz-adv-x="639" 
d="M224 146h-203l257 506l47 -102l-188 -368h370h48l57 -121h-49l-40 85h-299zM-22 61l39 76h99q-11 -17 -20.5 -37.5t-18.5 -38.5h-99zM159 192l172 338l159 -338h-331zM552 190h-48l-222 469l2 5h40zM276 676l-316 -626h127l43 85h387l40 -85h74l-297 626h-58zM344 674
l34 -38l303 -636h-87l-38 41h-3l-20 43h-360q-11 -20 -21.5 -42t-21.5 -42h-139l-39 41h-7l326 644h69zM360 449q-32 -64 -64.5 -124.5t-64.5 -123.5h246z" />
    <glyph glyph-name="nonmarkingreturn" horiz-adv-x="179" 
 />
    </font>
</defs>
</svg>
