<?xml version="1.0" standalone="no"?>
<!DOCTYPE svg PUBLIC "-//W3C//DTD SVG 1.1//EN" "http://www.w3.org/Graphics/SVG/1.1/DTD/svg11.dtd" >
<svg xmlns="http://www.w3.org/2000/svg" xmlns:xlink="http://www.w3.org/1999/xlink" version="1.1">
<metadata>
Created by FontForge 20201107 at Sun Aug 24 02:16:05 2025
 By Unknown
Digitized data copyright (C) 1992 - 1997 The Monotype Corporation.  Rockwell is a trademark of The Monotype Corporation which may be registered in certain jurisdictions. Portions copyright Microsoft  Corporation.  All rights reserved.
</metadata>
<defs>
<font id="Rockwell" horiz-adv-x="1174" >
  <font-face 
    font-family="Rockwell"
    font-weight="400"
    font-stretch="normal"
    units-per-em="2048"
    panose-1="2 0 5 3 0 0 0 0 0 0"
    ascent="1638"
    descent="-410"
    x-height="968"
    cap-height="1391"
    bbox="-303 -560 2165 1869"
    underline-thickness="102"
    underline-position="-211"
    unicode-range="U+000D-FB02"
  />
<missing-glyph horiz-adv-x="1536" 
d="M256 0v1280h1024v-1280h-1024zM288 32h960v1216h-960v-1216z" />
    <glyph glyph-name=".notdef" horiz-adv-x="1536" 
d="M256 0v1280h1024v-1280h-1024zM288 32h960v1216h-960v-1216z" />
    <glyph glyph-name=".null" horiz-adv-x="0" 
 />
    <glyph glyph-name="nonmarkingreturn" unicode="&#xd;" horiz-adv-x="512" 
 />
    <glyph glyph-name="space" unicode=" " horiz-adv-x="512" 
 />
    <glyph glyph-name="exclam" unicode="!" horiz-adv-x="598" 
d="M349 377h-102l-50 591v423h202v-423zM176 0v246h246v-246h-246z" />
    <glyph glyph-name="quotedbl" unicode="&#x22;" horiz-adv-x="831" 
d="M209 829l-55 296c-15 81 -22 136 -22 165c0 82 32 123 97 123c29 0 54 -10 73 -29c20 -20 30 -46 30 -78c0 -28 -9 -89 -26 -183l-54 -294h-43zM575 829l-54 291c-16 85 -24 142 -24 171c0 81 34 122 102 122c30 0 54 -10 73 -31c18 -20 27 -45 27 -75
c0 -58 -6 -120 -19 -186l-57 -292h-48z" />
    <glyph glyph-name="numbersign" unicode="#" horiz-adv-x="1366" 
d="M552 1019h396l81 391h147l-81 -391h185v-147h-216l-73 -353h289v-147h-320l-81 -391h-147l81 391h-396l-81 -391h-147l81 391h-185v147h216l73 353h-289v147h320l81 391h147zM521 872l-73 -353h396l73 353h-396z" />
    <glyph glyph-name="dollar" unicode="$" horiz-adv-x="1110" 
d="M471 -20c-124 5 -223 47 -297 126c-74 78 -111 173 -111 286c0 6 0 15 1 28h182c10 -167 85 -259 225 -278v460c-254 50 -381 179 -381 386c0 111 34 201 102 272c67 71 160 111 279 121v63h151v-63c88 -9 166 -43 236 -102c68 -59 103 -164 103 -314v-24h-176
c0 85 -13 149 -38 191c-25 41 -67 69 -125 82v-444c160 -30 267 -76 321 -138c54 -63 81 -142 81 -237c0 -121 -35 -217 -105 -289c-70 -70 -169 -113 -297 -126v-155h-151v155zM471 804v418c-121 -21 -181 -90 -181 -205c0 -109 60 -180 181 -213zM622 570v-426
c140 26 210 100 210 223c0 50 -14 92 -41 126s-84 60 -169 77z" />
    <glyph glyph-name="percent" unicode="%" horiz-adv-x="1985" 
d="M164 1040c0 111 25 201 75 270s124 103 222 103c91 0 164 -32 217 -97s80 -157 80 -276c0 -113 -26 -204 -76 -271c-52 -67 -125 -101 -221 -101c-91 0 -164 32 -217 96c-53 65 -80 157 -80 276zM308 1041c0 -185 51 -277 153 -277c101 0 152 92 152 276
c0 185 -51 277 -152 277c-102 0 -153 -92 -153 -276zM367 0l1104 1391h142l-1096 -1391h-150zM1226 351c0 120 27 212 80 276c54 64 126 96 216 96c99 0 174 -35 223 -103c49 -70 74 -159 74 -269c0 -120 -27 -212 -80 -277c-53 -64 -125 -96 -216 -96s-164 32 -217 96
c-53 65 -80 157 -80 277zM1370 351c0 -185 51 -277 152 -277c102 0 153 92 153 276c0 185 -51 277 -152 277c-102 0 -153 -92 -153 -276z" />
    <glyph glyph-name="ampersand" unicode="&#x26;" horiz-adv-x="1386" 
d="M1055 736h285v-170h-147c-36 -129 -82 -228 -138 -298l73 -94h212v-174h-317l-92 122c-121 -96 -244 -144 -370 -144c-144 0 -263 45 -357 134s-141 201 -141 335c0 185 106 324 317 417c-63 81 -95 162 -95 243c0 89 34 163 101 220c68 57 147 86 237 86
c93 0 172 -29 237 -85c64 -58 96 -128 96 -213c0 -74 -23 -135 -68 -182s-120 -92 -224 -135l283 -383c51 89 87 196 108 321zM564 930c80 33 134 65 164 94c28 29 43 62 43 97c0 33 -12 62 -37 89c-25 26 -60 39 -107 39c-42 0 -77 -13 -105 -38s-42 -58 -42 -99
c0 -36 24 -91 72 -164zM486 736c-144 -64 -216 -157 -216 -280c0 -81 30 -152 91 -214c61 -60 134 -91 221 -91c89 0 169 37 242 111z" />
    <glyph glyph-name="quotesingle" unicode="'" horiz-adv-x="362" 
d="M158 828l-54 296c-15 83 -23 136 -23 160c0 86 32 129 97 129c32 0 57 -10 76 -31s28 -46 28 -75c0 -27 -9 -88 -26 -184l-54 -295h-44z" />
    <glyph glyph-name="parenleft" unicode="(" horiz-adv-x="768" 
d="M711 1416v-155c-72 -38 -137 -97 -195 -179c-59 -80 -98 -166 -118 -255c-19 -89 -29 -203 -29 -342c0 -156 13 -280 38 -373s65 -172 121 -240c54 -66 116 -120 183 -161v-156c-139 57 -264 165 -377 323c-112 160 -168 362 -168 609c0 219 49 411 148 576
c98 165 230 282 397 353z" />
    <glyph glyph-name="parenright" unicode=")" horiz-adv-x="768" 
d="M57 1416c161 -72 293 -187 393 -346c102 -159 152 -353 152 -584c0 -223 -47 -411 -140 -566c-94 -155 -229 -276 -405 -365v156c83 50 151 113 205 190c53 77 90 159 108 247c20 89 29 201 29 337c0 144 -11 261 -31 351c-22 90 -62 174 -122 253
c-59 79 -122 136 -189 172v155z" />
    <glyph glyph-name="asterisk" unicode="*" horiz-adv-x="1067" 
d="M622 1413v-169c-40 -82 -61 -164 -62 -247c89 32 161 77 215 136l167 53l55 -177l-164 -55c-22 4 -42 6 -61 6c-72 0 -133 -7 -184 -22c63 -79 126 -132 187 -158l101 -140l-148 -107l-106 141c-9 84 -39 161 -90 231c-51 -70 -81 -147 -90 -231l-106 -141l-148 107
l101 140c61 26 124 79 187 158c-51 15 -112 22 -184 22c-18 0 -38 -2 -61 -6l-164 55l55 177l167 -53c54 -59 126 -104 215 -136c-1 83 -22 165 -62 247v169h180z" />
    <glyph glyph-name="plus" unicode="+" horiz-adv-x="1366" 
d="M135 774h470v469h156v-469h470v-157h-470v-469h-156v469h-470v157z" />
    <glyph glyph-name="comma" unicode="," horiz-adv-x="598" 
d="M176 0v246h246v-214c0 -73 -6 -129 -17 -169s-35 -73 -73 -99c-36 -25 -89 -39 -156 -41v104c80 12 120 62 120 149c0 5 0 13 -1 24h-119z" />
    <glyph glyph-name="hyphen" unicode="-" horiz-adv-x="725" 
d="M63 575h600v-190h-600v190z" />
    <glyph glyph-name="period" unicode="." horiz-adv-x="598" 
d="M176 0v246h246v-246h-246z" />
    <glyph glyph-name="slash" unicode="/" horiz-adv-x="897" 
d="M720 1419h166l-710 -1441h-166z" />
    <glyph glyph-name="zero" unicode="0" horiz-adv-x="1110" 
d="M72 695c0 229 43 406 130 531c86 125 204 187 353 187c155 0 274 -65 357 -194s125 -304 125 -524c0 -228 -43 -405 -129 -529c-86 -126 -204 -188 -353 -188c-156 0 -275 65 -359 195c-82 130 -124 304 -124 522zM276 695c0 -199 24 -341 72 -427
c48 -85 117 -128 207 -128s159 43 207 129s72 228 72 426c0 201 -24 344 -73 429s-117 127 -206 127c-100 0 -171 -48 -215 -145c-42 -96 -64 -233 -64 -411z" />
    <glyph glyph-name="one" unicode="1" horiz-adv-x="1110" 
d="M485 169v1053h-190v167h380v-1220h181v-169h-561v169h190z" />
    <glyph glyph-name="two" unicode="2" horiz-adv-x="1110" 
d="M984 497l-13 -497h-889c0 96 17 188 52 275c34 87 82 164 144 229c63 65 158 145 286 238c81 59 135 109 164 148c29 40 43 86 43 139c0 65 -20 117 -61 159c-41 40 -97 61 -168 61c-83 0 -144 -23 -183 -70s-58 -123 -58 -230c0 -27 1 -52 2 -76h-185c-1 24 -1 44 -1 59
c0 151 36 268 107 354c71 84 176 127 314 127c139 0 246 -36 320 -109c75 -73 112 -162 112 -268c0 -89 -24 -164 -73 -227s-142 -142 -279 -239c-133 -95 -221 -172 -262 -231c-42 -59 -66 -112 -73 -158h524l8 316h169z" />
    <glyph glyph-name="three" unicode="3" horiz-adv-x="1110" 
d="M419 640v172c97 0 168 6 213 17c44 11 78 34 103 67c25 34 37 77 37 128c0 62 -18 115 -54 160c-37 45 -91 67 -162 67c-79 0 -136 -23 -172 -71c-36 -46 -56 -117 -59 -210h-193c0 160 40 274 118 342c80 67 176 101 291 101c139 0 244 -34 315 -103s106 -156 106 -263
c0 -79 -20 -145 -60 -199c-41 -54 -86 -92 -137 -115c173 -51 260 -162 260 -332c0 -141 -47 -247 -143 -317c-94 -71 -206 -106 -334 -106c-163 0 -284 44 -362 131c-79 87 -118 208 -118 362h184c3 -107 32 -188 88 -245c54 -56 128 -84 219 -84c83 0 149 23 197 70
c47 46 71 104 71 175c0 74 -28 135 -84 183c-56 47 -145 71 -268 71c-16 0 -35 0 -56 -1z" />
    <glyph glyph-name="four" unicode="4" horiz-adv-x="1110" 
d="M617 374h-468c-16 62 -46 114 -89 157l579 871h161v-860h222v-168h-222v-205h127v-169h-458v169h148v205zM617 542v548l-365 -548h365z" />
    <glyph glyph-name="five" unicode="5" horiz-adv-x="1110" 
d="M73 444h180c11 -93 41 -168 91 -223c51 -55 117 -83 200 -83s150 29 201 86s76 131 76 221c0 95 -25 168 -74 219c-49 50 -111 75 -184 75c-110 0 -203 -56 -279 -167c-43 42 -91 76 -145 101l57 716h742v-369h-172v190h-426l-31 -407c85 69 179 103 283 103
c132 0 236 -44 312 -132c77 -88 115 -197 115 -327c0 -137 -42 -250 -125 -337c-84 -88 -201 -132 -352 -132c-140 0 -251 40 -332 119s-127 195 -137 347z" />
    <glyph glyph-name="six" unicode="6" horiz-adv-x="1110" 
d="M986 980h-169c-10 79 -38 144 -83 194c-46 50 -102 75 -167 75c-89 0 -158 -46 -207 -139c-49 -92 -75 -218 -77 -379c95 103 204 154 327 154c106 0 197 -39 272 -117c76 -79 114 -184 114 -315s-37 -243 -112 -335c-75 -94 -177 -140 -306 -140
c-145 0 -260 60 -348 178c-86 120 -130 296 -130 531c0 223 42 400 126 531c84 130 205 195 363 195c124 0 220 -41 289 -123c68 -81 104 -185 108 -310zM293 521c30 -252 122 -378 276 -378c79 0 140 29 184 87s66 127 66 208c0 79 -21 143 -63 192c-41 49 -97 73 -168 73
c-99 0 -198 -61 -295 -182z" />
    <glyph glyph-name="seven" unicode="7" horiz-adv-x="1110" 
d="M223 0v169h185c10 179 52 367 125 563s153 355 239 478h-479v-187h-172v366h869v-142c-91 -109 -177 -273 -258 -495c-81 -220 -122 -415 -122 -583h162v-169h-549z" />
    <glyph glyph-name="eight" unicode="8" horiz-adv-x="1110" 
d="M315 727c-136 79 -204 186 -204 321c0 118 42 208 127 271s186 94 305 94c140 0 251 -33 332 -98s122 -154 122 -267c0 -133 -68 -240 -204 -321c165 -65 247 -179 247 -344c0 -123 -43 -221 -128 -295c-86 -73 -202 -110 -347 -110c-163 0 -287 37 -371 110
c-84 74 -126 172 -126 295c0 165 82 279 247 344zM299 1030c0 -73 23 -129 70 -168c47 -38 110 -57 191 -57c69 0 127 19 176 55c49 38 73 94 73 170c0 145 -87 218 -261 218c-75 0 -136 -19 -181 -56s-68 -91 -68 -162zM270 391c0 -73 25 -133 76 -181
c51 -46 120 -70 208 -70c83 0 152 23 204 68c54 45 80 107 80 184c0 74 -25 134 -74 181c-50 47 -122 70 -216 70c-81 0 -148 -22 -200 -67s-78 -106 -78 -185z" />
    <glyph glyph-name="nine" unicode="9" horiz-adv-x="1110" 
d="M104 411h169c10 -79 38 -144 84 -194s101 -75 166 -75c89 0 159 46 208 139s75 219 76 379c-94 -103 -203 -154 -326 -154c-110 0 -202 40 -276 119s-111 184 -111 313c0 131 37 242 112 336c75 92 177 139 307 139c145 0 260 -59 347 -179c87 -118 130 -295 130 -530
c0 -223 -42 -400 -126 -530c-83 -131 -204 -196 -363 -196c-123 0 -219 41 -288 122c-69 82 -105 186 -109 311zM797 870c-29 252 -121 378 -276 378c-77 0 -137 -28 -183 -86c-44 -56 -67 -126 -67 -209c0 -75 20 -138 59 -189c40 -51 98 -76 173 -76c99 0 197 61 294 182z
" />
    <glyph glyph-name="colon" unicode=":" horiz-adv-x="598" 
d="M176 722v246h246v-246h-246zM176 0v246h246v-246h-246z" />
    <glyph glyph-name="semicolon" unicode=";" horiz-adv-x="598" 
d="M176 722v246h246v-246h-246zM176 0v246h246v-214c0 -73 -6 -129 -17 -169s-35 -73 -73 -99c-36 -25 -89 -39 -156 -41v104c80 12 120 62 120 149c0 5 0 13 -1 24h-119z" />
    <glyph glyph-name="less" unicode="&#x3c;" horiz-adv-x="1366" 
d="M1231 165l-1096 460v141l1096 460v-170l-882 -361l882 -360v-170z" />
    <glyph glyph-name="equal" unicode="=" horiz-adv-x="1366" 
d="M135 1009h1096v-157h-1096v157zM135 539h1096v-157h-1096v157z" />
    <glyph glyph-name="greater" unicode="&#x3e;" horiz-adv-x="1366" 
d="M135 1226l1096 -460v-141l-1096 -460v170l882 360l-882 361v170z" />
    <glyph glyph-name="question" unicode="?" horiz-adv-x="961" 
d="M486 375h-103l-24 442c31 -8 63 -12 94 -12c87 0 150 22 189 66s58 96 58 157c0 71 -21 126 -62 164c-42 40 -95 59 -159 59c-78 0 -136 -22 -173 -67c-38 -45 -57 -100 -57 -167c0 -14 0 -30 1 -49h-187c-1 18 -1 33 -1 46c0 137 40 237 122 302c80 65 177 97 289 97
c135 0 239 -36 313 -109c74 -72 111 -167 111 -285c0 -114 -35 -205 -105 -273c-71 -68 -154 -102 -249 -102c-7 0 -18 0 -32 1zM311 0v246h245v-246h-245z" />
    <glyph glyph-name="at" unicode="@" horiz-adv-x="2068" 
d="M1164 138c-97 -111 -199 -166 -307 -166c-98 0 -183 41 -255 124c-71 82 -107 190 -107 324c0 158 53 304 159 438c106 133 226 200 360 200c127 0 227 -61 302 -183l34 155h179l-144 -672c-20 -93 -30 -144 -30 -155c0 -19 7 -35 22 -47c15 -13 30 -19 46 -19
c35 0 85 23 151 67c64 46 120 113 167 202s70 184 70 285c0 183 -69 333 -207 453c-137 118 -307 178 -508 178c-247 0 -447 -84 -602 -250c-155 -168 -232 -371 -232 -610c0 -248 77 -438 230 -571s364 -199 631 -199c157 0 297 26 419 79c124 53 218 127 285 223h181
c-55 -115 -159 -218 -310 -311s-342 -139 -572 -139c-323 0 -572 82 -748 246c-176 163 -264 381 -264 653c0 273 87 512 260 717s417 307 731 307c256 0 462 -76 619 -227c157 -152 235 -336 235 -553c0 -185 -63 -350 -188 -497c-125 -146 -264 -219 -415 -219
c-67 0 -114 14 -142 41s-45 69 -50 126zM680 403c0 -83 21 -151 63 -204s92 -79 150 -79c91 0 175 51 251 152c77 102 115 219 115 352c0 89 -22 158 -67 210c-44 50 -99 76 -165 76c-101 0 -185 -56 -249 -167c-66 -111 -98 -225 -98 -340z" />
    <glyph glyph-name="A" unicode="A" horiz-adv-x="1430" 
d="M970 489h-500l-107 -315h169v-174h-548v174h168l380 1060h-169v157h711v-157h-173l389 -1060h156v-174h-545v174h173zM918 652l-185 582h-19l-192 -582h396z" />
    <glyph glyph-name="B" unicode="B" horiz-adv-x="1194" 
d="M217 174v1043h-171v174h463c127 0 223 -8 287 -23c63 -15 119 -54 168 -116c49 -63 73 -136 73 -220c0 -65 -15 -123 -43 -175c-30 -52 -72 -91 -128 -118c77 -27 137 -71 178 -133c42 -61 63 -132 63 -211c0 -69 -15 -131 -47 -187c-30 -56 -72 -99 -123 -130
s-107 -51 -169 -62c-60 -11 -144 -16 -249 -16h-473v174h171zM427 812h131c100 0 170 18 210 52c39 36 59 87 59 155c0 132 -90 198 -269 198h-131v-405zM427 174h79c103 0 179 5 227 16c48 10 87 34 117 72c31 39 46 88 46 148c0 55 -14 100 -44 138c-28 36 -66 61 -112 74
c-45 12 -110 18 -193 18h-120v-466z" />
    <glyph glyph-name="C" unicode="C" horiz-adv-x="1556" 
d="M1277 566l181 -101c-41 -155 -123 -275 -246 -359c-124 -86 -266 -128 -427 -128c-211 0 -380 68 -507 205s-191 306 -191 507c0 221 64 396 192 527s295 196 501 196c182 0 335 -50 459 -149v127h180v-447h-180c-40 91 -102 161 -185 210c-83 50 -171 75 -263 75
c-139 0 -253 -50 -341 -150c-90 -100 -134 -226 -134 -379c0 -157 48 -285 143 -384s208 -149 339 -149c107 0 205 35 293 103c88 70 150 168 186 296z" />
    <glyph glyph-name="D" unicode="D" horiz-adv-x="1493" 
d="M215 174v1043h-189v174h538c149 0 263 -8 344 -23c80 -15 158 -50 233 -104s135 -128 181 -222c44 -95 67 -202 67 -323c0 -137 -22 -257 -65 -358s-100 -177 -170 -227c-71 -50 -154 -85 -252 -104c-96 -20 -220 -30 -370 -30h-506v174h189zM425 174h110
c123 0 220 8 291 23c72 15 133 41 182 79c49 36 89 92 120 167s46 163 46 264c0 121 -25 223 -76 307c-50 84 -114 139 -192 164c-79 26 -199 39 -362 39h-119v-1043z" />
    <glyph glyph-name="E" unicode="E" horiz-adv-x="1280" 
d="M236 174v1043h-180v174h1156v-419h-172v245h-594v-414h517v-174h-517v-455h594v253h172v-427h-1156v174h180z" />
    <glyph glyph-name="F" unicode="F" horiz-adv-x="1130" 
d="M213 174v1043h-176v174h1079v-419h-172v245h-521v-412h449v-174h-449v-457h178v-174h-564v174h176z" />
    <glyph glyph-name="G" unicode="G" horiz-adv-x="1642" 
d="M1038 671h506c1 -18 1 -34 1 -48c0 -195 -64 -352 -192 -469s-297 -176 -507 -176c-251 0 -439 72 -562 214c-123 144 -185 313 -185 508c0 205 63 375 189 510s297 203 513 203c194 0 357 -59 488 -177v155h177v-457h-177c-33 77 -93 145 -177 204
c-86 60 -183 90 -292 90c-152 0 -272 -51 -360 -154s-132 -226 -132 -371c0 -166 50 -298 150 -395c101 -97 222 -146 363 -146c111 0 209 31 296 92c87 62 137 143 152 243h-251v174z" />
    <glyph glyph-name="H" unicode="H" horiz-adv-x="1450" 
d="M213 174v1043h-158v174h532v-174h-164v-398h605v398h-163v174h532v-174h-159v-1043h159v-174h-532v174h163v471h-605v-471h164v-174h-532v174h158z" />
    <glyph glyph-name="I" unicode="I" horiz-adv-x="641" 
d="M215 174v1043h-151v174h512v-174h-151v-1043h151v-174h-512v174h151z" />
    <glyph glyph-name="J" unicode="J" horiz-adv-x="641" 
d="M-72 -413v195c52 -13 102 -20 150 -20c60 0 100 16 120 50c19 32 29 99 29 198v1207h-178v174h566v-174h-178v-1217c0 -105 -8 -184 -23 -238c-16 -55 -54 -101 -114 -140c-59 -39 -130 -58 -212 -58c-57 0 -110 8 -160 23z" />
    <glyph glyph-name="K" unicode="K" horiz-adv-x="1280" 
d="M211 174v1043h-174v174h563v-174h-179v-1043h160v-174h-544v174h174zM428 734l446 483h-159v174h545v-174h-148l-428 -483l440 -560h149v-174h-565v174h150z" />
    <glyph glyph-name="L" unicode="L" horiz-adv-x="1067" 
d="M209 174v1043h-180v174h569v-174h-171v-1043h426v473h196v-647h-1020v174h180z" />
    <glyph glyph-name="M" unicode="M" horiz-adv-x="1792" 
d="M217 174v1043h-167v174h476l366 -953l370 953h481v-174h-168v-1043h168v-174h-524v174h166v1043l-480 -1231h-41l-475 1231v-1043h153v-174h-492v174h167z" />
    <glyph glyph-name="N" unicode="N" horiz-adv-x="1473" 
d="M209 174v1043h-199v174h475l610 -1081v907h-197v174h571v-174h-205v-1231h-216l-667 1187v-999h199v-174h-570v174h199z" />
    <glyph glyph-name="O" unicode="O" horiz-adv-x="1642" 
d="M102 702c0 202 66 371 198 507s304 204 516 204c214 0 388 -68 523 -204s202 -306 202 -511c0 -209 -69 -381 -205 -516c-138 -136 -312 -204 -523 -204c-135 0 -259 32 -371 96c-114 65 -198 154 -255 270c-57 114 -85 234 -85 358zM331 701c0 -153 45 -281 134 -384
s207 -155 352 -155c144 0 262 53 355 158c93 106 139 232 139 379c0 148 -47 273 -141 375c-95 103 -213 154 -356 154c-142 0 -258 -50 -348 -151s-135 -226 -135 -376z" />
    <glyph glyph-name="P" unicode="P" 
d="M216 174v1043h-175v174h497c146 0 255 -10 328 -31s134 -68 182 -140c50 -74 74 -160 74 -259c0 -79 -16 -151 -48 -213c-33 -64 -73 -110 -120 -140c-48 -30 -102 -50 -162 -60c-59 -11 -149 -16 -270 -16h-96v-358h180v-174h-565v174h175zM426 700h120
c137 0 231 20 284 58c53 40 79 108 79 207c0 63 -14 115 -42 156s-63 68 -104 79s-110 17 -207 17h-130v-517z" />
    <glyph glyph-name="Q" unicode="Q" horiz-adv-x="1642" 
d="M916 -15l41 -18c109 -45 192 -67 251 -67c19 0 43 3 73 9l-74 -172c-20 -3 -38 -5 -55 -5c-66 0 -157 28 -273 84c-100 48 -179 72 -236 72c-59 0 -107 -16 -143 -49l-59 85c39 43 91 71 154 84c-112 35 -207 92 -285 170c-77 79 -131 163 -162 254
c-31 90 -46 180 -46 269c0 197 65 365 195 503c130 140 303 209 519 209s391 -68 524 -203s200 -306 200 -512c0 -109 -21 -214 -63 -312c-42 -100 -114 -188 -216 -267s-217 -123 -345 -134zM331 701c0 -153 45 -281 134 -384s207 -155 352 -155c144 0 262 53 355 158
c93 106 139 232 139 379c0 148 -47 273 -141 375c-95 103 -213 154 -356 154c-142 0 -258 -50 -348 -151s-135 -226 -135 -376z" />
    <glyph glyph-name="R" unicode="R" horiz-adv-x="1237" 
d="M217 174v1043h-191v174h565c118 0 212 -9 281 -27c69 -19 127 -58 172 -116c45 -60 68 -133 68 -221c0 -184 -96 -300 -287 -347l246 -506h170v-174h-301l-317 650h-196v-476h178v-174h-579v174h191zM427 824h164c79 0 138 5 175 16c38 10 69 31 93 62
c24 32 36 75 36 128c0 45 -12 84 -37 115c-24 31 -54 51 -90 59c-35 9 -90 13 -163 13h-178v-393z" />
    <glyph glyph-name="S" unicode="S" horiz-adv-x="1087" 
d="M71 0v505h174v-123c83 -151 192 -227 327 -227c69 0 127 21 174 63s71 97 71 165c0 66 -19 113 -58 143c-39 28 -112 57 -219 86c-125 33 -217 65 -277 94c-60 30 -108 72 -143 128c-36 54 -54 120 -54 195c0 117 39 210 116 279c78 70 176 105 293 105
c111 0 215 -36 310 -108v93h170v-422h-170v97c-71 107 -170 161 -295 161c-76 0 -134 -18 -175 -52c-41 -36 -61 -77 -61 -126c0 -37 10 -70 31 -98c21 -29 47 -50 79 -63s95 -32 189 -56c123 -32 212 -62 267 -89c55 -28 103 -74 143 -139s60 -139 60 -223
c0 -119 -42 -217 -125 -294c-84 -77 -188 -116 -311 -116c-127 0 -241 46 -342 137v-115h-174z" />
    <glyph glyph-name="T" unicode="T" 
d="M483 174v1043h-287v-355h-172v529h1127v-529h-172v355h-286v-1043h181v-174h-569v174h178z" />
    <glyph glyph-name="U" unicode="U" horiz-adv-x="1386" 
d="M409 1217v-696c0 -108 5 -183 17 -224c10 -41 38 -77 82 -105c44 -30 101 -44 170 -44c83 0 146 12 190 38c44 24 73 58 88 100c14 43 21 118 21 225v706h-161v174h544v-174h-174v-727c0 -98 -4 -169 -12 -214c-9 -44 -31 -90 -68 -138c-37 -49 -88 -88 -155 -116
c-67 -30 -148 -44 -243 -44c-105 0 -193 14 -263 40c-70 28 -123 64 -158 109s-59 94 -71 145c-11 51 -17 131 -17 239v706h-172v174h547v-174h-165z" />
    <glyph glyph-name="V" unicode="V" horiz-adv-x="1450" 
d="M635 -14l-467 1231h-172v174h549v-174h-161l354 -934l345 934h-162v174h534v-174h-169l-458 -1231h-193z" />
    <glyph glyph-name="W" unicode="W" horiz-adv-x="2048" 
d="M521 -14l-354 1231h-167v174h532v-174h-167l263 -910l253 910h-166v174h639v-174h-163l254 -910l258 910h-165v174h511v-174h-164l-347 -1231h-199l-313 1100l-311 -1100h-194z" />
    <glyph glyph-name="X" unicode="X" horiz-adv-x="1343" 
d="M207 174l354 527l-354 516h-179v174h560v-174h-157l241 -353l243 353h-161v174h534v-174h-174l-343 -499l373 -544h181v-174h-571v174h161l-255 378l-254 -378h169v-174h-554v174h186z" />
    <glyph glyph-name="Y" unicode="Y" horiz-adv-x="1323" 
d="M563 174v459l-414 584h-170v174h572v-174h-175l307 -429l280 429h-175v174h555v-174h-184l-386 -584v-459h190v-174h-587v174h187z" />
    <glyph glyph-name="Z" unicode="Z" horiz-adv-x="1153" 
d="M51 0v174l745 1043h-539v-245h-172v419h977v-154l-758 -1063h609v269h172v-443h-1034z" />
    <glyph glyph-name="bracketleft" unicode="[" horiz-adv-x="768" 
d="M709 1391v-139h-304v-1530h304v-139h-494v1808h494z" />
    <glyph glyph-name="backslash" unicode="\" horiz-adv-x="897" 
d="M176 1419l710 -1441h-166l-710 1441h166z" />
    <glyph glyph-name="bracketright" unicode="]" horiz-adv-x="768" 
d="M59 1391h494v-1808h-494v139h304v1530h-304v139z" />
    <glyph glyph-name="asciicircum" unicode="^" horiz-adv-x="961" 
d="M239 590h-185l353 801h145l355 -801h-181l-247 597z" />
    <glyph glyph-name="underscore" unicode="_" horiz-adv-x="1024" 
d="M-12 -154h1048v-102h-1048v102z" />
    <glyph glyph-name="grave" unicode="`" horiz-adv-x="682" 
d="M528 1096h-128l-289 317h276z" />
    <glyph glyph-name="a" unicode="a" horiz-adv-x="1087" 
d="M1061 169v-169h-332v118c-92 -89 -195 -134 -308 -134c-88 0 -165 29 -229 86c-66 57 -98 131 -98 220c0 90 34 165 104 224c68 59 152 89 249 89c91 0 178 -27 263 -82v96c0 49 -5 87 -14 114s-31 51 -66 72c-34 21 -79 32 -134 32c-95 0 -164 -38 -207 -114l-182 48
c81 151 220 226 418 226c73 0 135 -10 189 -29c52 -20 92 -46 118 -76c26 -32 44 -65 52 -101c10 -36 14 -93 14 -172v-448h163zM710 360c-82 64 -165 96 -249 96c-53 0 -97 -15 -132 -46s-53 -70 -53 -119c0 -45 16 -83 46 -114c32 -31 74 -46 127 -46c92 0 179 39 261 116
v113z" />
    <glyph glyph-name="b" unicode="b" horiz-adv-x="1323" 
d="M54 0v169h172v1053h-172v169h358v-560c95 109 212 164 351 164c133 0 245 -46 335 -137c91 -92 136 -213 136 -363c0 -144 -44 -265 -132 -363c-89 -99 -202 -148 -340 -148c-77 0 -148 17 -212 50s-110 70 -138 111v-145h-358zM418 482c0 -101 31 -180 92 -240
c62 -58 133 -88 214 -88c85 0 158 31 219 94s92 147 92 252c0 102 -31 181 -91 238c-62 56 -133 84 -215 84c-81 0 -153 -29 -216 -88c-63 -58 -95 -142 -95 -252z" />
    <glyph glyph-name="c" unicode="c" horiz-adv-x="1067" 
d="M990 968v-366h-170c-9 70 -37 124 -86 161c-48 37 -104 56 -168 56c-85 0 -155 -30 -208 -91c-53 -60 -80 -139 -80 -237c0 -91 25 -172 76 -241c51 -70 124 -105 220 -105c133 0 230 63 290 190l157 -74c-87 -193 -238 -289 -455 -289c-153 0 -274 52 -362 157
s-132 225 -132 362c0 146 48 267 144 361c96 96 207 143 332 143c107 0 198 -32 272 -95v68h170z" />
    <glyph glyph-name="d" unicode="d" horiz-adv-x="1280" 
d="M1275 169v-169h-364v142c-95 -105 -210 -158 -346 -158c-126 0 -237 43 -332 129s-143 208 -143 367s49 285 147 377s209 138 332 138c131 0 245 -52 342 -156v383h-186v169h376v-1222h174zM293 485c0 -107 30 -189 91 -246c60 -57 132 -86 216 -86c81 0 154 30 216 91
c64 60 95 143 95 250s-32 188 -97 243c-64 55 -136 82 -216 82c-86 0 -158 -32 -217 -97c-59 -64 -88 -143 -88 -237z" />
    <glyph glyph-name="e" unicode="e" 
d="M1098 436h-814c12 -89 47 -162 106 -217s134 -83 225 -83c133 0 238 53 315 160l168 -74c-55 -85 -126 -148 -213 -188c-87 -42 -179 -62 -274 -62c-148 0 -275 46 -379 138c-106 93 -158 217 -158 374c0 149 51 271 154 367c102 96 219 144 352 144
c130 0 248 -47 354 -141c105 -93 160 -233 164 -418zM902 574c-13 68 -49 130 -106 184c-57 56 -128 83 -211 83c-76 0 -141 -25 -195 -75c-54 -49 -87 -113 -99 -192h611z" />
    <glyph glyph-name="f" unicode="f" horiz-adv-x="598" 
d="M197 169v630h-141v168h141v140c0 118 25 199 75 245c50 44 109 67 177 67c147 0 232 -74 255 -223l-169 -26c-7 62 -31 93 -73 93c-29 0 -48 -10 -59 -29c-11 -20 -16 -62 -16 -127v-140h166v-168h-166v-630h184v-169h-515v169h141z" />
    <glyph glyph-name="g" unicode="g" horiz-adv-x="1280" 
d="M1257 968v-169h-174v-721c0 -97 -5 -170 -15 -216c-10 -48 -34 -96 -72 -144c-39 -50 -96 -91 -173 -124s-162 -50 -257 -50c-143 0 -270 43 -382 129l124 138c84 -65 175 -98 274 -98c55 0 105 11 152 31c47 22 82 47 104 77c24 30 38 59 45 85c7 28 10 73 10 137v88
c-30 -38 -77 -74 -141 -108s-134 -51 -210 -51c-139 0 -252 48 -339 144s-131 214 -131 354c0 153 48 277 144 372c97 94 208 141 335 141c128 0 242 -51 342 -153v138h364zM274 474c0 -98 28 -178 86 -240c56 -62 129 -93 218 -93c87 0 161 31 224 93c63 63 94 143 94 241
c0 99 -31 179 -94 239c-63 61 -135 91 -218 91s-155 -30 -217 -89c-62 -60 -93 -141 -93 -242z" />
    <glyph glyph-name="h" unicode="h" 
d="M217 169v1053h-175v169h365v-534c114 92 222 138 325 138c64 0 117 -13 158 -40s70 -62 84 -105c16 -44 23 -108 23 -192v-489h165v-169h-355v592c0 73 -2 122 -7 147s-18 45 -38 61c-22 16 -46 24 -75 24c-73 0 -167 -42 -280 -125v-530h168v-169h-533v169h175z" />
    <glyph glyph-name="i" unicode="i" horiz-adv-x="598" 
d="M190 1297c0 31 11 57 32 80c22 23 50 34 83 34c31 0 58 -11 81 -33s34 -49 34 -81s-11 -59 -34 -81c-23 -23 -50 -34 -81 -34c-32 0 -59 11 -81 34c-23 23 -34 50 -34 81zM217 169v630h-151v169h341v-799h149v-169h-490v169h151z" />
    <glyph glyph-name="j" unicode="j" horiz-adv-x="598" 
d="M202 1297c0 31 11 58 34 81c23 22 50 33 81 33c32 0 59 -11 81 -33c23 -22 34 -49 34 -81s-11 -59 -34 -81c-23 -23 -50 -34 -81 -34c-33 0 -60 12 -82 34c-22 24 -33 50 -33 81zM-38 -416v172c32 -4 63 -6 92 -6c50 0 88 8 112 23c26 15 42 38 50 67c9 29 13 120 13 273
v686h-152v169h342v-824c0 -166 -5 -282 -16 -347s-42 -119 -95 -161c-53 -41 -131 -62 -234 -62c-39 0 -77 3 -112 10z" />
    <glyph glyph-name="k" unicode="k" 
d="M224 169v1053h-174v169h364v-869l362 289h-161v157h535v-157h-148l-363 -302l341 -340h170v-169h-249l-487 487v-318h167v-169h-531v169h174z" />
    <glyph glyph-name="l" unicode="l" horiz-adv-x="598" 
d="M213 169v1053h-172v169h362v-1222h148v-169h-510v169h172z" />
    <glyph glyph-name="m" unicode="m" horiz-adv-x="1772" 
d="M227 169v630h-161v169h351v-122c115 91 227 137 337 137c111 0 187 -50 229 -151c126 101 243 151 352 151c63 0 114 -14 155 -41c40 -28 67 -63 81 -106c14 -42 21 -104 21 -187v-480h169v-169h-359v615c0 56 -2 95 -8 119c-4 22 -17 42 -38 56c-20 16 -44 23 -73 23
c-81 0 -174 -42 -277 -125v-519h166v-169h-356v633c0 63 -9 109 -28 137c-18 29 -49 43 -93 43c-72 0 -165 -42 -278 -125v-519h170v-169h-533v169h173z" />
    <glyph glyph-name="n" unicode="n" 
d="M415 968v-117c122 88 233 132 334 132c63 0 115 -15 155 -45c42 -29 68 -66 81 -108c13 -44 19 -106 19 -189v-472h163v-169h-353v633c0 73 -11 121 -33 143c-22 23 -49 34 -81 34c-84 0 -179 -41 -285 -123v-518h167v-169h-527v169h170v630h-170v169h360z" />
    <glyph glyph-name="o" unicode="o" 
d="M78 484c0 149 49 272 148 368c99 95 219 143 361 143c139 0 259 -47 359 -141c100 -95 150 -218 150 -370s-50 -275 -150 -370c-99 -95 -219 -142 -359 -142c-144 0 -265 48 -363 144c-97 96 -146 219 -146 368zM279 484c0 -95 30 -174 89 -234c60 -62 133 -92 219 -92
c87 0 161 31 219 92c60 62 89 140 89 234c0 95 -30 173 -90 234s-133 92 -218 92c-89 0 -163 -31 -221 -94s-87 -140 -87 -232z" />
    <glyph glyph-name="p" unicode="p" horiz-adv-x="1280" 
d="M191 -265v1064h-163v169h353v-152c95 111 209 167 344 167c136 0 249 -47 337 -140c90 -93 134 -215 134 -364c0 -157 -48 -280 -145 -371s-207 -136 -330 -136c-128 0 -241 49 -340 148v-385h188v-169h-555v169h177zM378 470c0 -53 11 -104 33 -153s57 -89 105 -123
c48 -32 104 -49 169 -49c91 0 165 30 225 91c58 61 88 144 88 250c0 103 -31 184 -92 242c-62 58 -132 87 -211 87c-84 0 -158 -31 -221 -95c-64 -62 -96 -146 -96 -250z" />
    <glyph glyph-name="q" unicode="q" horiz-adv-x="1260" 
d="M1079 -265h177v-169h-555v169h188v387c-96 -100 -210 -150 -343 -150c-121 0 -230 45 -326 135c-98 90 -146 215 -146 374c0 151 45 272 135 364s202 138 336 138c135 0 249 -56 344 -167v152h353v-169h-163v-1064zM892 470c0 104 -32 188 -96 250
c-63 64 -137 95 -221 95c-81 0 -152 -30 -213 -89c-60 -59 -90 -140 -90 -243c0 -94 27 -174 82 -239c54 -66 130 -99 229 -99s176 33 229 100s80 142 80 225z" />
    <glyph glyph-name="r" unicode="r" horiz-adv-x="854" 
d="M240 169v630h-195v169h347v-218c21 57 51 104 89 141s78 62 121 74c42 12 100 18 173 18h50v-192h-38c-97 0 -169 -10 -217 -29c-47 -19 -82 -54 -106 -106c-22 -50 -34 -142 -34 -274v-213h211v-169h-596v169h195z" />
    <glyph glyph-name="s" unicode="s" horiz-adv-x="938" 
d="M84 0v332h170v-32c6 -45 30 -83 74 -112c42 -29 93 -44 152 -44c61 0 110 11 147 32s55 51 55 89c0 37 -15 64 -46 81c-30 17 -90 33 -180 48c-133 23 -228 59 -286 110c-56 50 -85 115 -85 195c0 81 31 148 93 203c62 54 144 81 245 81c91 0 170 -19 236 -56v41h169
v-321h-169v59c-51 79 -126 119 -224 119c-50 0 -91 -11 -123 -33c-33 -21 -49 -50 -49 -86c0 -37 15 -62 45 -76c29 -13 93 -28 191 -43c94 -15 165 -32 213 -51c48 -20 88 -53 120 -98c31 -46 47 -99 47 -160c0 -90 -35 -162 -103 -214c-70 -54 -159 -80 -269 -80
c-103 0 -188 23 -253 70v-54h-170z" />
    <glyph glyph-name="t" unicode="t" horiz-adv-x="618" 
d="M62 799v169h126v149l190 174v-323h179v-169h-179v-470c0 -75 4 -122 12 -139c9 -18 30 -27 63 -27c35 0 70 7 104 20v-173c-49 -17 -97 -26 -146 -26c-58 0 -105 13 -141 38c-36 26 -59 58 -68 97s-14 105 -14 200v480h-126z" />
    <glyph glyph-name="u" unicode="u" horiz-adv-x="1153" 
d="M1133 169v-169h-357v111c-111 -85 -218 -127 -320 -127c-65 0 -118 14 -160 42c-43 29 -71 66 -85 110c-14 46 -21 118 -21 218v445h-137v169h327v-590c0 -71 2 -119 6 -144s16 -45 35 -61s44 -24 73 -24c88 0 182 42 282 126v524h-171v169h361v-799h167z" />
    <glyph glyph-name="v" unicode="v" horiz-adv-x="1110" 
d="M483 -16l-316 815h-171v169h487v-169h-126l208 -549l209 549h-134v169h473v-169h-149l-309 -815h-172z" />
    <glyph glyph-name="w" unicode="w" horiz-adv-x="1579" 
d="M374 -16l-259 815h-118v169h408v-169h-127l185 -584l185 584h-106v169h468v-169h-106l185 -584l186 584h-133v169h437v-169h-139l-260 -815h-179l-222 700l-226 -700h-179z" />
    <glyph glyph-name="x" unicode="x" horiz-adv-x="1130" 
d="M569 385l-188 -216h124v-169h-469v169h143l291 329l-278 301h-131v169h455v-169h-121l174 -187l168 187h-99v169h457v-169h-159l-265 -301l302 -329h122v-169h-457v169h134z" />
    <glyph glyph-name="y" unicode="y" horiz-adv-x="1153" 
d="M496 17l-318 782h-161v169h479v-169h-116l209 -536l205 536h-128v169h469v-169h-144l-479 -1233h-321v166h189z" />
    <glyph glyph-name="z" unicode="z" horiz-adv-x="918" 
d="M33 0v158l607 653h-398v-186h-162v343h786v-169l-609 -641h443v198h166v-356h-833z" />
    <glyph glyph-name="braceleft" unicode="{" horiz-adv-x="682" 
d="M58 556c48 1 88 13 120 36s54 56 68 99c12 43 19 121 19 233c0 143 8 243 24 299s47 98 92 126s112 42 200 42h56v-149h-31c-67 0 -112 -11 -136 -34c-24 -22 -36 -75 -36 -159c0 -148 -3 -252 -10 -311s-25 -110 -55 -152s-78 -78 -144 -108c70 -27 122 -70 157 -130
c35 -59 52 -157 52 -293c0 -125 2 -205 6 -238c3 -33 16 -59 38 -76c21 -17 64 -26 128 -26h31v-149h-56c-65 0 -117 6 -154 19s-70 37 -97 71c-28 36 -46 79 -54 130c-7 52 -11 134 -11 247c0 112 -7 190 -19 233c-14 43 -36 76 -68 99c-33 23 -73 35 -120 36v155z" />
    <glyph glyph-name="bar" unicode="|" horiz-adv-x="1079" 
d="M461 1419h157v-1875h-157v1875z" />
    <glyph glyph-name="braceright" unicode="}" horiz-adv-x="682" 
d="M624 401c-48 -1 -88 -13 -120 -36s-54 -56 -68 -99c-12 -44 -19 -122 -19 -233c0 -143 -8 -243 -24 -299c-16 -57 -47 -99 -92 -126c-45 -28 -112 -42 -200 -42h-56v148h31c67 0 112 11 136 34c24 22 36 75 36 159c0 149 3 253 10 312s25 110 55 151c30 42 78 78 144 108
c-70 27 -122 70 -157 130s-52 158 -52 293c0 125 -2 205 -6 239c-4 33 -17 59 -38 76c-22 17 -65 26 -128 26h-31v149h56c65 0 117 -6 154 -19s70 -36 97 -72c28 -34 46 -78 54 -130c7 -51 11 -133 11 -246c0 -112 6 -190 19 -233s35 -77 68 -99c33 -24 73 -35 120 -36v-155
z" />
    <glyph glyph-name="asciitilde" unicode="~" horiz-adv-x="1194" 
d="M1145 666c-103 -85 -201 -128 -293 -128c-41 0 -80 6 -119 18s-103 39 -193 81c-85 39 -149 59 -193 59c-90 0 -189 -47 -298 -140v169c105 85 206 128 305 128c62 0 160 -31 293 -94c91 -42 159 -63 204 -63c89 0 187 46 294 139v-169z" />
    <glyph glyph-name="Adieresis" unicode="&#xc4;" horiz-adv-x="1430" 
d="M970 489h-500l-107 -315h169v-174h-548v174h168l380 1060h-169v157h711v-157h-173l389 -1060h156v-174h-545v174h173zM918 652l-185 582h-19l-192 -582h396zM427 1617c0 30 11 56 33 78c21 22 47 33 78 33s57 -11 78 -32c22 -22 33 -48 33 -79s-11 -58 -33 -79
c-21 -21 -47 -32 -78 -32c-30 0 -56 11 -78 32c-22 22 -33 48 -33 79zM789 1617c0 29 11 55 31 77c22 23 48 34 80 34c31 0 57 -11 78 -33c22 -22 33 -48 33 -78c0 -31 -11 -57 -33 -79c-21 -21 -47 -32 -78 -32s-58 11 -79 32c-21 22 -32 48 -32 79z" />
    <glyph glyph-name="Aring" unicode="&#xc5;" horiz-adv-x="1430" 
d="M634 1391c-91 39 -136 106 -136 202c0 59 21 110 64 153c42 43 93 64 153 64c61 0 112 -21 154 -64s63 -94 63 -153c0 -96 -45 -163 -136 -202h278v-157h-173l389 -1060h156v-174h-545v174h173l-104 315h-500l-107 -315h169v-174h-548v174h168l380 1060h-169v157h271z
M594 1592c0 -32 12 -60 35 -84s52 -36 86 -36c33 0 62 12 85 36c24 23 36 51 36 84s-12 62 -35 86c-23 23 -52 35 -86 35c-33 0 -62 -12 -85 -35c-24 -24 -36 -53 -36 -86zM918 652l-185 582h-19l-192 -582h396z" />
    <glyph glyph-name="Ccedilla" unicode="&#xc7;" horiz-adv-x="1556" 
d="M729 -19c-200 14 -357 89 -471 224s-171 297 -171 486c0 220 64 395 192 526s295 196 501 196c182 0 335 -50 459 -149v127h180v-447h-180c-40 91 -102 161 -185 210c-83 50 -171 75 -263 75c-139 0 -253 -50 -341 -150c-90 -100 -134 -226 -134 -379
c0 -157 48 -285 143 -384s208 -149 339 -149c107 0 205 35 293 103c88 70 150 168 186 296l181 -101c-37 -141 -108 -253 -214 -337c-107 -83 -233 -132 -379 -147l-8 -49c116 -16 174 -74 174 -175c0 -49 -20 -96 -59 -142s-131 -69 -276 -69c-25 0 -54 0 -85 1v114
c81 0 136 5 165 15c29 11 43 29 43 54c0 24 -9 41 -27 51c-19 10 -52 15 -99 15z" />
    <glyph glyph-name="Eacute" unicode="&#xc9;" horiz-adv-x="1280" 
d="M236 174v1043h-180v174h1156v-419h-172v245h-594v-414h517v-174h-517v-455h594v253h172v-427h-1156v174h180zM510 1473l141 317h276l-289 -317h-128z" />
    <glyph glyph-name="Ntilde" unicode="&#xd1;" horiz-adv-x="1473" 
d="M209 174v1043h-199v174h475l610 -1081v907h-197v174h571v-174h-205v-1231h-216l-667 1187v-999h199v-174h-570v174h199zM959 1768h112c-3 -103 -22 -175 -59 -216c-36 -41 -77 -62 -124 -62s-108 22 -181 67c-65 39 -107 58 -127 58c-21 0 -35 -8 -44 -24
c-9 -17 -13 -45 -13 -86h-115c1 96 19 165 54 206s78 62 128 62c40 0 101 -24 184 -72c57 -34 95 -51 114 -51c45 0 68 39 71 118z" />
    <glyph glyph-name="Odieresis" unicode="&#xd6;" horiz-adv-x="1642" 
d="M102 702c0 202 66 371 198 507s304 204 516 204c214 0 388 -68 523 -204s202 -306 202 -511c0 -209 -69 -381 -205 -516c-138 -136 -312 -204 -523 -204c-135 0 -259 32 -371 96c-114 65 -198 154 -255 270c-57 114 -85 234 -85 358zM331 701c0 -153 45 -281 134 -384
s207 -155 352 -155c144 0 262 53 355 158c93 106 139 232 139 379c0 148 -47 273 -141 375c-95 103 -213 154 -356 154c-142 0 -258 -50 -348 -151s-135 -226 -135 -376zM529 1617c0 30 11 56 33 78c21 22 47 33 78 33s57 -11 78 -32c22 -22 33 -48 33 -79s-11 -58 -33 -79
c-21 -21 -47 -32 -78 -32c-30 0 -56 11 -78 32c-22 22 -33 48 -33 79zM891 1617c0 29 11 55 31 77c22 23 48 34 80 34c31 0 57 -11 78 -33c22 -22 33 -48 33 -78c0 -31 -11 -57 -33 -79c-21 -21 -47 -32 -78 -32s-58 11 -79 32c-21 22 -32 48 -32 79z" />
    <glyph glyph-name="Udieresis" unicode="&#xdc;" horiz-adv-x="1386" 
d="M409 1217v-696c0 -108 5 -183 17 -224c10 -41 38 -77 82 -105c44 -30 101 -44 170 -44c83 0 146 12 190 38c44 24 73 58 88 100c14 43 21 118 21 225v706h-161v174h544v-174h-174v-727c0 -98 -4 -169 -12 -214c-9 -44 -31 -90 -68 -138c-37 -49 -88 -88 -155 -116
c-67 -30 -148 -44 -243 -44c-105 0 -193 14 -263 40c-70 28 -123 64 -158 109s-59 94 -71 145c-11 51 -17 131 -17 239v706h-172v174h547v-174h-165zM402 1617c0 30 11 56 33 78c21 22 47 33 78 33s57 -11 78 -32c22 -22 33 -48 33 -79s-11 -58 -33 -79
c-21 -21 -47 -32 -78 -32c-30 0 -56 11 -78 32c-22 22 -33 48 -33 79zM764 1617c0 29 11 55 31 77c22 23 48 34 80 34c31 0 57 -11 78 -33c22 -22 33 -48 33 -78c0 -31 -11 -57 -33 -79c-21 -21 -47 -32 -78 -32s-58 11 -79 32c-21 22 -32 48 -32 79z" />
    <glyph glyph-name="aacute" unicode="&#xe1;" horiz-adv-x="1087" 
d="M1061 169v-169h-332v118c-92 -89 -195 -134 -308 -134c-88 0 -165 29 -229 86c-66 57 -98 131 -98 220c0 90 34 165 104 224c68 59 152 89 249 89c91 0 178 -27 263 -82v96c0 49 -5 87 -14 114s-31 51 -66 72c-34 21 -79 32 -134 32c-95 0 -164 -38 -207 -114l-182 48
c81 151 220 226 418 226c73 0 135 -10 189 -29c52 -20 92 -46 118 -76c26 -32 44 -65 52 -101c10 -36 14 -93 14 -172v-448h163zM710 360c-82 64 -165 96 -249 96c-53 0 -97 -15 -132 -46s-53 -70 -53 -119c0 -45 16 -83 46 -114c32 -31 74 -46 127 -46c92 0 179 39 261 116
v113zM356 1096l141 317h276l-289 -317h-128z" />
    <glyph glyph-name="agrave" unicode="&#xe0;" horiz-adv-x="1087" 
d="M1061 169v-169h-332v118c-92 -89 -195 -134 -308 -134c-88 0 -165 29 -229 86c-66 57 -98 131 -98 220c0 90 34 165 104 224c68 59 152 89 249 89c91 0 178 -27 263 -82v96c0 49 -5 87 -14 114s-31 51 -66 72c-34 21 -79 32 -134 32c-95 0 -164 -38 -207 -114l-182 48
c81 151 220 226 418 226c73 0 135 -10 189 -29c52 -20 92 -46 118 -76c26 -32 44 -65 52 -101c10 -36 14 -93 14 -172v-448h163zM710 360c-82 64 -165 96 -249 96c-53 0 -97 -15 -132 -46s-53 -70 -53 -119c0 -45 16 -83 46 -114c32 -31 74 -46 127 -46c92 0 179 39 261 116
v113zM708 1096h-128l-289 317h276z" />
    <glyph glyph-name="acircumflex" unicode="&#xe2;" horiz-adv-x="1087" 
d="M1061 169v-169h-332v118c-92 -89 -195 -134 -308 -134c-88 0 -165 29 -229 86c-66 57 -98 131 -98 220c0 90 34 165 104 224c68 59 152 89 249 89c91 0 178 -27 263 -82v96c0 49 -5 87 -14 114s-31 51 -66 72c-34 21 -79 32 -134 32c-95 0 -164 -38 -207 -114l-182 48
c81 151 220 226 418 226c73 0 135 -10 189 -29c52 -20 92 -46 118 -76c26 -32 44 -65 52 -101c10 -36 14 -93 14 -172v-448h163zM710 360c-82 64 -165 96 -249 96c-53 0 -97 -15 -132 -46s-53 -70 -53 -119c0 -45 16 -83 46 -114c32 -31 74 -46 127 -46c92 0 179 39 261 116
v113zM522 1273l-165 -174h-135l168 312h267l173 -312h-141z" />
    <glyph glyph-name="adieresis" unicode="&#xe4;" horiz-adv-x="1087" 
d="M1061 169v-169h-332v118c-92 -89 -195 -134 -308 -134c-88 0 -165 29 -229 86c-66 57 -98 131 -98 220c0 90 34 165 104 224c68 59 152 89 249 89c91 0 178 -27 263 -82v96c0 49 -5 87 -14 114s-31 51 -66 72c-34 21 -79 32 -134 32c-95 0 -164 -38 -207 -114l-182 48
c81 151 220 226 418 226c73 0 135 -10 189 -29c52 -20 92 -46 118 -76c26 -32 44 -65 52 -101c10 -36 14 -93 14 -172v-448h163zM710 360c-82 64 -165 96 -249 96c-53 0 -97 -15 -132 -46s-53 -70 -53 -119c0 -45 16 -83 46 -114c32 -31 74 -46 127 -46c92 0 179 39 261 116
v113zM229 1255c0 30 11 56 33 78c21 22 47 33 78 33s57 -11 78 -32c22 -22 33 -48 33 -79s-11 -58 -33 -79c-21 -21 -47 -32 -78 -32c-30 0 -56 11 -78 32c-22 22 -33 48 -33 79zM591 1255c0 29 11 55 31 77c22 23 48 34 80 34c31 0 57 -11 78 -33c22 -22 33 -48 33 -78
c0 -31 -11 -57 -33 -79c-21 -21 -47 -32 -78 -32s-58 11 -79 32c-21 22 -32 48 -32 79z" />
    <glyph glyph-name="atilde" unicode="&#xe3;" horiz-adv-x="1087" 
d="M1061 169v-169h-332v118c-92 -89 -195 -134 -308 -134c-88 0 -165 29 -229 86c-66 57 -98 131 -98 220c0 90 34 165 104 224c68 59 152 89 249 89c91 0 178 -27 263 -82v96c0 49 -5 87 -14 114s-31 51 -66 72c-34 21 -79 32 -134 32c-95 0 -164 -38 -207 -114l-182 48
c81 151 220 226 418 226c73 0 135 -10 189 -29c52 -20 92 -46 118 -76c26 -32 44 -65 52 -101c10 -36 14 -93 14 -172v-448h163zM710 360c-82 64 -165 96 -249 96c-53 0 -97 -15 -132 -46s-53 -70 -53 -119c0 -45 16 -83 46 -114c32 -31 74 -46 127 -46c92 0 179 39 261 116
v113zM746 1391h112c-3 -103 -22 -175 -59 -216c-36 -41 -77 -62 -124 -62s-108 22 -181 67c-65 39 -107 58 -127 58c-21 0 -35 -8 -44 -24c-9 -17 -13 -45 -13 -86h-115c1 96 19 165 54 206s78 62 128 62c40 0 101 -24 184 -72c57 -34 95 -51 114 -51c45 0 68 39 71 118z
" />
    <glyph glyph-name="aring" unicode="&#xe5;" horiz-adv-x="1087" 
d="M1061 169v-169h-332v118c-92 -89 -195 -134 -308 -134c-88 0 -165 29 -229 86c-66 57 -98 131 -98 220c0 90 34 165 104 224c68 59 152 89 249 89c91 0 178 -27 263 -82v96c0 49 -5 87 -14 114s-31 51 -66 72c-34 21 -79 32 -134 32c-95 0 -164 -38 -207 -114l-182 48
c81 151 220 226 418 226c73 0 135 -10 189 -29c52 -20 92 -46 118 -76c26 -32 44 -65 52 -101c10 -36 14 -93 14 -172v-448h163zM710 360c-82 64 -165 96 -249 96c-53 0 -97 -15 -132 -46s-53 -70 -53 -119c0 -45 16 -83 46 -114c32 -31 74 -46 127 -46c92 0 179 39 261 116
v113zM322 1255c0 53 19 99 57 139s85 60 142 60c55 0 102 -20 141 -58c39 -40 58 -86 58 -141s-20 -101 -58 -141c-40 -38 -86 -58 -141 -58c-57 0 -104 20 -142 60c-38 39 -57 86 -57 139zM400 1255c0 -33 12 -61 35 -85s52 -36 86 -36c33 0 62 12 85 36c24 23 36 52 36 85
s-12 61 -36 85c-23 23 -52 35 -85 35c-35 0 -63 -12 -87 -36c-22 -24 -34 -52 -34 -84z" />
    <glyph glyph-name="ccedilla" unicode="&#xe7;" horiz-adv-x="1067" 
d="M597 -27l-13 -70c95 -23 142 -78 142 -163c0 -53 -23 -100 -69 -138c-46 -40 -124 -59 -233 -59h-72v111c71 0 119 6 145 18s39 31 39 58c0 39 -32 58 -97 58l35 191c-120 19 -217 77 -291 177c-74 98 -111 210 -111 335c0 146 48 267 144 361c96 96 207 143 332 143
c107 0 198 -32 272 -95v68h170v-366h-170c-9 70 -37 124 -86 161c-48 37 -104 56 -168 56c-85 0 -155 -30 -208 -91c-53 -60 -80 -139 -80 -237c0 -91 25 -172 76 -241c51 -70 124 -105 220 -105c133 0 230 63 290 190l157 -74c-81 -180 -223 -276 -424 -288z" />
    <glyph glyph-name="eacute" unicode="&#xe9;" 
d="M1098 436h-814c12 -89 47 -162 106 -217s134 -83 225 -83c133 0 238 53 315 160l168 -74c-55 -85 -126 -148 -213 -188c-87 -42 -179 -62 -274 -62c-148 0 -275 46 -379 138c-106 93 -158 217 -158 374c0 149 51 271 154 367c102 96 219 144 352 144
c130 0 248 -47 354 -141c105 -93 160 -233 164 -418zM902 574c-13 68 -49 130 -106 184c-57 56 -128 83 -211 83c-76 0 -141 -25 -195 -75c-54 -49 -87 -113 -99 -192h611zM438 1096l141 317h276l-289 -317h-128z" />
    <glyph glyph-name="egrave" unicode="&#xe8;" 
d="M1098 436h-814c12 -89 47 -162 106 -217s134 -83 225 -83c133 0 238 53 315 160l168 -74c-55 -85 -126 -148 -213 -188c-87 -42 -179 -62 -274 -62c-148 0 -275 46 -379 138c-106 93 -158 217 -158 374c0 149 51 271 154 367c102 96 219 144 352 144
c130 0 248 -47 354 -141c105 -93 160 -233 164 -418zM902 574c-13 68 -49 130 -106 184c-57 56 -128 83 -211 83c-76 0 -141 -25 -195 -75c-54 -49 -87 -113 -99 -192h611zM740 1096h-128l-289 317h276z" />
    <glyph glyph-name="ecircumflex" unicode="&#xea;" 
d="M1098 436h-814c12 -89 47 -162 106 -217s134 -83 225 -83c133 0 238 53 315 160l168 -74c-55 -85 -126 -148 -213 -188c-87 -42 -179 -62 -274 -62c-148 0 -275 46 -379 138c-106 93 -158 217 -158 374c0 149 51 271 154 367c102 96 219 144 352 144
c130 0 248 -47 354 -141c105 -93 160 -233 164 -418zM902 574c-13 68 -49 130 -106 184c-57 56 -128 83 -211 83c-76 0 -141 -25 -195 -75c-54 -49 -87 -113 -99 -192h611zM582 1273l-165 -174h-135l168 312h267l173 -312h-141z" />
    <glyph glyph-name="edieresis" unicode="&#xeb;" 
d="M1098 436h-814c12 -89 47 -162 106 -217s134 -83 225 -83c133 0 238 53 315 160l168 -74c-55 -85 -126 -148 -213 -188c-87 -42 -179 -62 -274 -62c-148 0 -275 46 -379 138c-106 93 -158 217 -158 374c0 149 51 271 154 367c102 96 219 144 352 144
c130 0 248 -47 354 -141c105 -93 160 -233 164 -418zM902 574c-13 68 -49 130 -106 184c-57 56 -128 83 -211 83c-76 0 -141 -25 -195 -75c-54 -49 -87 -113 -99 -192h611zM294 1255c0 30 11 56 33 78c21 22 47 33 78 33s57 -11 78 -32c22 -22 33 -48 33 -79
s-11 -58 -33 -79c-21 -21 -47 -32 -78 -32c-30 0 -56 11 -78 32c-22 22 -33 48 -33 79zM656 1255c0 29 11 55 31 77c22 23 48 34 80 34c31 0 57 -11 78 -33c22 -22 33 -48 33 -78c0 -31 -11 -57 -33 -79c-21 -21 -47 -32 -78 -32s-58 11 -79 32c-21 22 -32 48 -32 79z" />
    <glyph glyph-name="iacute" unicode="&#xed;" horiz-adv-x="598" 
d="M217 169v630h-151v169h341v-799h149v-169h-490v169h151zM145 1096l141 317h276l-289 -317h-128z" />
    <glyph glyph-name="igrave" unicode="&#xec;" horiz-adv-x="598" 
d="M217 169v630h-151v169h341v-799h149v-169h-490v169h151zM441 1096h-128l-289 317h276z" />
    <glyph glyph-name="icircumflex" unicode="&#xee;" horiz-adv-x="598" 
d="M217 169v630h-151v169h341v-799h149v-169h-490v169h151zM296 1273l-165 -174h-135l168 312h267l173 -312h-141z" />
    <glyph glyph-name="idieresis" unicode="&#xef;" horiz-adv-x="598" 
d="M217 169v630h-151v169h341v-799h149v-169h-490v169h151zM8 1255c0 30 11 56 32 78c22 22 48 33 79 33s57 -11 79 -32c21 -22 32 -48 32 -79s-11 -58 -32 -79c-22 -21 -48 -32 -79 -32c-30 0 -56 11 -78 32c-22 22 -33 48 -33 79zM370 1255c0 29 10 55 32 77
c20 23 47 34 79 34c31 0 57 -11 79 -33c21 -22 32 -48 32 -78c0 -31 -11 -57 -32 -79c-22 -21 -48 -32 -79 -32s-58 11 -79 32c-21 22 -32 48 -32 79z" />
    <glyph glyph-name="ntilde" unicode="&#xf1;" 
d="M415 968v-117c122 88 233 132 334 132c63 0 115 -15 155 -45c42 -29 68 -66 81 -108c13 -44 19 -106 19 -189v-472h163v-169h-353v633c0 73 -11 121 -33 143c-22 23 -49 34 -81 34c-84 0 -179 -41 -285 -123v-518h167v-169h-527v169h170v630h-170v169h360zM831 1391h112
c-3 -103 -22 -175 -59 -216c-36 -41 -77 -62 -124 -62s-108 22 -181 67c-65 39 -107 58 -127 58c-21 0 -35 -8 -44 -24c-9 -17 -13 -45 -13 -86h-115c1 96 19 165 54 206s78 62 128 62c40 0 101 -24 184 -72c57 -34 95 -51 114 -51c45 0 68 39 71 118z" />
    <glyph glyph-name="oacute" unicode="&#xf3;" 
d="M78 484c0 149 49 272 148 368c99 95 219 143 361 143c139 0 259 -47 359 -141c100 -95 150 -218 150 -370s-50 -275 -150 -370c-99 -95 -219 -142 -359 -142c-144 0 -265 48 -363 144c-97 96 -146 219 -146 368zM279 484c0 -95 30 -174 89 -234c60 -62 133 -92 219 -92
c87 0 161 31 219 92c60 62 89 140 89 234c0 95 -30 173 -90 234s-133 92 -218 92c-89 0 -163 -31 -221 -94s-87 -140 -87 -232zM451 1096l141 317h276l-289 -317h-128z" />
    <glyph glyph-name="ograve" unicode="&#xf2;" 
d="M78 484c0 149 49 272 148 368c99 95 219 143 361 143c139 0 259 -47 359 -141c100 -95 150 -218 150 -370s-50 -275 -150 -370c-99 -95 -219 -142 -359 -142c-144 0 -265 48 -363 144c-97 96 -146 219 -146 368zM279 484c0 -95 30 -174 89 -234c60 -62 133 -92 219 -92
c87 0 161 31 219 92c60 62 89 140 89 234c0 95 -30 173 -90 234s-133 92 -218 92c-89 0 -163 -31 -221 -94s-87 -140 -87 -232zM723 1096h-128l-289 317h276z" />
    <glyph glyph-name="ocircumflex" unicode="&#xf4;" 
d="M78 484c0 149 49 272 148 368c99 95 219 143 361 143c139 0 259 -47 359 -141c100 -95 150 -218 150 -370s-50 -275 -150 -370c-99 -95 -219 -142 -359 -142c-144 0 -265 48 -363 144c-97 96 -146 219 -146 368zM279 484c0 -95 30 -174 89 -234c60 -62 133 -92 219 -92
c87 0 161 31 219 92c60 62 89 140 89 234c0 95 -30 173 -90 234s-133 92 -218 92c-89 0 -163 -31 -221 -94s-87 -140 -87 -232zM583 1273l-165 -174h-135l168 312h267l173 -312h-141z" />
    <glyph glyph-name="odieresis" unicode="&#xf6;" 
d="M78 484c0 149 49 272 148 368c99 95 219 143 361 143c139 0 259 -47 359 -141c100 -95 150 -218 150 -370s-50 -275 -150 -370c-99 -95 -219 -142 -359 -142c-144 0 -265 48 -363 144c-97 96 -146 219 -146 368zM279 484c0 -95 30 -174 89 -234c60 -62 133 -92 219 -92
c87 0 161 31 219 92c60 62 89 140 89 234c0 95 -30 173 -90 234s-133 92 -218 92c-89 0 -163 -31 -221 -94s-87 -140 -87 -232zM295 1255c0 30 11 56 33 78c21 22 47 33 78 33s57 -11 78 -32c22 -22 33 -48 33 -79s-11 -58 -33 -79c-21 -21 -47 -32 -78 -32
c-30 0 -56 11 -78 32c-22 22 -33 48 -33 79zM657 1255c0 29 11 55 31 77c22 23 48 34 80 34c31 0 57 -11 78 -33c22 -22 33 -48 33 -78c0 -31 -11 -57 -33 -79c-21 -21 -47 -32 -78 -32s-58 11 -79 32c-21 22 -32 48 -32 79z" />
    <glyph glyph-name="otilde" unicode="&#xf5;" 
d="M78 484c0 149 49 272 148 368c99 95 219 143 361 143c139 0 259 -47 359 -141c100 -95 150 -218 150 -370s-50 -275 -150 -370c-99 -95 -219 -142 -359 -142c-144 0 -265 48 -363 144c-97 96 -146 219 -146 368zM279 484c0 -95 30 -174 89 -234c60 -62 133 -92 219 -92
c87 0 161 31 219 92c60 62 89 140 89 234c0 95 -30 173 -90 234s-133 92 -218 92c-89 0 -163 -31 -221 -94s-87 -140 -87 -232zM807 1391h112c-3 -103 -22 -175 -59 -216c-36 -41 -77 -62 -124 -62s-108 22 -181 67c-65 39 -107 58 -127 58c-21 0 -35 -8 -44 -24
c-9 -17 -13 -45 -13 -86h-115c1 96 19 165 54 206s78 62 128 62c40 0 101 -24 184 -72c57 -34 95 -51 114 -51c45 0 68 39 71 118z" />
    <glyph glyph-name="uacute" unicode="&#xfa;" horiz-adv-x="1153" 
d="M1133 169v-169h-357v111c-111 -85 -218 -127 -320 -127c-65 0 -118 14 -160 42c-43 29 -71 66 -85 110c-14 46 -21 118 -21 218v445h-137v169h327v-590c0 -71 2 -119 6 -144s16 -45 35 -61s44 -24 73 -24c88 0 182 42 282 126v524h-171v169h361v-799h167zM433 1096
l141 317h276l-289 -317h-128z" />
    <glyph glyph-name="ugrave" unicode="&#xf9;" horiz-adv-x="1153" 
d="M1133 169v-169h-357v111c-111 -85 -218 -127 -320 -127c-65 0 -118 14 -160 42c-43 29 -71 66 -85 110c-14 46 -21 118 -21 218v445h-137v169h327v-590c0 -71 2 -119 6 -144s16 -45 35 -61s44 -24 73 -24c88 0 182 42 282 126v524h-171v169h361v-799h167zM739 1096h-128
l-289 317h276z" />
    <glyph glyph-name="ucircumflex" unicode="&#xfb;" horiz-adv-x="1153" 
d="M1133 169v-169h-357v111c-111 -85 -218 -127 -320 -127c-65 0 -118 14 -160 42c-43 29 -71 66 -85 110c-14 46 -21 118 -21 218v445h-137v169h327v-590c0 -71 2 -119 6 -144s16 -45 35 -61s44 -24 73 -24c88 0 182 42 282 126v524h-171v169h361v-799h167zM589 1273
l-165 -174h-135l168 312h267l173 -312h-141z" />
    <glyph glyph-name="udieresis" unicode="&#xfc;" horiz-adv-x="1153" 
d="M1133 169v-169h-357v111c-111 -85 -218 -127 -320 -127c-65 0 -118 14 -160 42c-43 29 -71 66 -85 110c-14 46 -21 118 -21 218v445h-137v169h327v-590c0 -71 2 -119 6 -144s16 -45 35 -61s44 -24 73 -24c88 0 182 42 282 126v524h-171v169h361v-799h167zM301 1255
c0 30 11 56 33 78c21 22 47 33 78 33s57 -11 78 -32c22 -22 33 -48 33 -79s-11 -58 -33 -79c-21 -21 -47 -32 -78 -32c-30 0 -56 11 -78 32c-22 22 -33 48 -33 79zM663 1255c0 29 11 55 31 77c22 23 48 34 80 34c31 0 57 -11 78 -33c22 -22 33 -48 33 -78
c0 -31 -11 -57 -33 -79c-21 -21 -47 -32 -78 -32s-58 11 -79 32c-21 22 -32 48 -32 79z" />
    <glyph glyph-name="dagger" unicode="&#x2020;" horiz-adv-x="1067" 
d="M431 1413h210v-230c-44 -79 -67 -171 -69 -276c109 2 195 22 260 61h188v-192h-188c-65 39 -146 58 -243 58h-17c0 -116 23 -210 69 -283v-241l-69 -755h-76l-65 755v241c42 76 64 170 65 283c-102 -1 -187 -20 -256 -58h-193v192h193c75 -41 161 -61 256 -61
c0 124 -22 216 -65 276v230z" />
    <glyph glyph-name="degree" unicode="&#xb0;" horiz-adv-x="811" 
d="M406 1413c95 0 176 -34 244 -101c68 -68 102 -150 102 -245s-34 -176 -102 -244c-67 -68 -149 -102 -244 -102c-96 0 -178 34 -245 101c-67 68 -101 150 -101 245s34 177 102 245c67 67 149 101 244 101zM406 1283c-59 0 -109 -21 -152 -63c-42 -42 -63 -93 -63 -152
s21 -110 63 -152s93 -63 152 -63s110 21 152 63c42 43 63 93 63 152c0 61 -21 112 -64 153s-93 62 -151 62z" />
    <glyph glyph-name="cent" unicode="&#xa2;" horiz-adv-x="1067" 
d="M347 23c-83 45 -148 111 -195 195c-47 86 -70 176 -70 273c0 143 48 262 142 359c96 97 205 145 329 145c47 0 91 -7 133 -22l157 448h89l-169 -474c25 -13 47 -29 67 -47v73h170v-371h-157c-15 85 -60 147 -137 186l-223 -627c29 -11 62 -16 98 -16
c135 0 233 63 293 190l157 -74c-87 -193 -239 -289 -457 -289c-55 0 -105 7 -151 20l-155 -434h-87zM410 202l218 612c-19 3 -36 5 -53 5c-86 0 -155 -30 -208 -91s-79 -140 -79 -237c0 -125 41 -222 122 -289z" />
    <glyph glyph-name="sterling" unicode="&#xa3;" horiz-adv-x="1110" 
d="M572 597c9 -46 13 -91 13 -134c0 -65 -10 -133 -31 -203c108 -55 182 -82 223 -82c105 0 162 58 173 175h121c-3 -133 -33 -229 -89 -287c-55 -59 -125 -88 -209 -88s-181 41 -292 122c-63 -81 -136 -122 -219 -122c-52 0 -97 16 -136 49s-58 77 -58 134
c0 61 21 109 62 144c42 35 90 53 143 53c43 0 92 -12 147 -36c1 19 2 33 2 42c0 64 -17 142 -50 233h-305v161h244c-53 133 -79 242 -79 328c0 109 36 190 110 245c72 55 159 82 258 82c105 0 194 -29 268 -87c72 -58 109 -148 109 -270c0 -8 0 -20 -1 -35h-191l2 54
c0 43 -13 83 -41 121c-26 38 -72 57 -137 57c-121 0 -182 -54 -182 -161c0 -55 32 -166 97 -334h249v-161h-201zM382 175c-56 42 -102 63 -137 63c-21 0 -39 -7 -55 -20c-15 -14 -23 -33 -23 -56c0 -51 28 -76 83 -76c49 0 93 30 132 89z" />
    <glyph glyph-name="section" unicode="&#xa7;" horiz-adv-x="981" 
d="M871 1050h-188c-4 72 -28 123 -71 154c-43 30 -93 45 -149 45c-50 0 -93 -13 -131 -39c-36 -26 -55 -62 -55 -108s20 -84 59 -113c40 -29 114 -63 221 -102c135 -48 231 -97 288 -145c57 -50 86 -115 86 -198c0 -119 -66 -217 -197 -293c111 -63 166 -153 166 -268
c0 -93 -35 -173 -104 -241c-69 -66 -165 -100 -287 -100c-109 0 -201 29 -275 88c-74 58 -113 153 -117 284h186c2 -65 22 -115 61 -149s88 -51 149 -51c63 0 112 14 145 44c34 28 51 63 51 104s-19 76 -59 106c-38 30 -115 65 -230 106c-94 33 -164 63 -211 89
s-85 62 -115 107c-29 46 -44 95 -44 147c0 116 68 212 203 287c-111 65 -166 156 -166 274c0 100 37 181 109 242c74 62 166 93 277 93c129 0 227 -32 295 -97c69 -64 103 -147 103 -248v-18zM370 744c-93 -51 -140 -109 -140 -176c0 -37 13 -68 40 -95
c26 -27 139 -80 340 -159c98 47 147 108 147 182c0 40 -17 73 -51 98c-33 25 -101 57 -204 96c-49 19 -93 37 -132 54z" />
    <glyph glyph-name="bullet" unicode="&#x2022;" horiz-adv-x="725" 
d="M364 946c67 0 126 -24 176 -72c50 -47 75 -107 75 -179c0 -69 -25 -127 -74 -177c-49 -48 -108 -73 -177 -73s-128 25 -178 73c-48 50 -73 108 -73 177s25 129 74 177c49 50 108 74 177 74z" />
    <glyph glyph-name="paragraph" unicode="&#xb6;" horiz-adv-x="1110" 
d="M404 -434v997c-123 5 -222 45 -294 121c-74 74 -110 171 -110 289c0 119 38 218 115 298s196 120 358 120h633v-173h-144v-1652h-167v1652h-223v-1652h-168z" />
    <glyph glyph-name="germandbls" unicode="&#xdf;" horiz-adv-x="1323" 
d="M418 169h150v-169h-512v169h172v671c0 143 12 250 34 323c24 73 73 133 148 183c75 48 167 73 275 73c119 0 218 -30 298 -90s120 -144 120 -251c0 -127 -60 -220 -179 -279c99 -21 175 -67 228 -141c52 -72 78 -158 78 -256c0 -126 -34 -227 -104 -304
c-68 -76 -160 -114 -275 -114c-63 0 -121 13 -173 38v160c41 -23 84 -35 127 -35c68 0 123 23 163 71c42 46 62 109 62 186c0 69 -16 127 -48 172c-33 46 -72 77 -118 94c-47 17 -109 26 -186 28v157c71 0 126 19 166 58c41 39 61 87 61 146c0 58 -20 105 -60 141
c-40 35 -93 53 -158 53c-70 0 -125 -15 -166 -43c-41 -30 -68 -70 -82 -123s-21 -135 -21 -247v-671z" />
    <glyph glyph-name="registered" unicode="&#xae;" horiz-adv-x="1516" 
d="M758 1413c127 0 250 -32 368 -97c120 -64 214 -156 282 -276c70 -121 104 -248 104 -382c0 -208 -74 -386 -220 -534c-148 -147 -325 -221 -534 -221s-387 74 -534 221c-147 148 -221 326 -221 534c0 135 34 262 103 381s162 211 280 276s242 98 372 98zM758 1287
c-105 0 -208 -27 -307 -81c-99 -53 -178 -130 -236 -230s-87 -206 -87 -318c0 -173 62 -322 184 -444c124 -124 272 -185 446 -185s322 61 445 185c123 122 184 271 184 444c0 174 -62 322 -185 445s-271 184 -444 184zM427 241v811h279c81 0 143 -5 187 -16s82 -35 113 -73
s47 -82 47 -131c0 -57 -21 -108 -63 -154c-42 -44 -98 -70 -169 -75c50 -14 113 -82 189 -204l99 -158h-160l-72 128c-55 96 -96 156 -125 180s-68 36 -117 36h-77v-344h-131zM558 697h159c131 0 197 41 197 124c0 44 -16 75 -47 93c-31 19 -85 28 -160 28h-149v-245z" />
    <glyph glyph-name="copyright" unicode="&#xa9;" horiz-adv-x="1516" 
d="M758 1413c127 0 250 -32 368 -97c120 -64 214 -156 282 -276c70 -121 104 -248 104 -382c0 -208 -74 -386 -220 -534c-148 -147 -325 -221 -534 -221s-387 74 -534 221c-147 148 -221 326 -221 534c0 135 34 262 103 381s162 211 280 276s242 98 372 98zM758 1287
c-105 0 -208 -27 -307 -81c-99 -53 -178 -130 -236 -230s-87 -206 -87 -318c0 -173 62 -322 184 -444c124 -124 272 -185 446 -185s322 61 445 185c123 122 184 271 184 444c0 174 -62 322 -185 445s-271 184 -444 184zM1000 535l123 -36c-19 -83 -61 -149 -127 -199
c-67 -49 -145 -74 -235 -74c-84 0 -157 19 -217 57c-62 38 -107 89 -136 154c-30 65 -45 138 -45 219c0 131 36 234 107 310c72 77 171 115 297 115c89 0 163 -21 223 -65c59 -42 99 -100 118 -171l-119 -29c-41 103 -116 154 -226 154c-85 0 -150 -30 -195 -90
c-46 -60 -69 -136 -69 -227c0 -98 23 -174 69 -229c46 -54 107 -81 184 -81c57 0 109 17 156 51c47 33 78 80 92 141z" />
    <glyph glyph-name="trademark" unicode="&#x2122;" horiz-adv-x="2048" 
d="M494 577v693h-264v121h666v-121h-266v-693h-136zM987 577v814h200l206 -651l199 651h196v-814h-124v683l-210 -683h-123l-219 693v-693h-125z" />
    <glyph glyph-name="acute" unicode="&#xb4;" horiz-adv-x="682" 
d="M156 1096l141 317h276l-289 -317h-128z" />
    <glyph glyph-name="dieresis" unicode="&#xa8;" horiz-adv-x="682" 
d="M49 1255c0 30 11 56 33 78c21 22 47 33 78 33s57 -11 78 -32c22 -22 33 -48 33 -79s-11 -58 -33 -79c-21 -21 -47 -32 -78 -32c-30 0 -56 11 -78 32c-22 22 -33 48 -33 79zM411 1255c0 29 11 55 31 77c22 23 48 34 80 34c31 0 57 -11 78 -33c22 -22 33 -48 33 -78
c0 -31 -11 -57 -33 -79c-21 -21 -47 -32 -78 -32s-58 11 -79 32c-21 22 -32 48 -32 79z" />
    <glyph glyph-name="notequal" unicode="&#x2260;" horiz-adv-x="1366" 
d="M873 1009h358v-157h-419l-123 -313h542v-157h-603l-207 -528h-135l206 528h-357v157h419l123 313h-542v157h603l207 528h135z" />
    <glyph glyph-name="AE" unicode="&#xc6;" horiz-adv-x="1921" 
d="M853 634h-393l-239 -460h151v-174h-493v174h134l538 1043h-220v174h1506v-419h-172v245h-602v-409h522v-174h-522v-460h602v254h172v-428h-1207v174h223v460zM853 808v409h-91l-215 -409h306z" />
    <glyph glyph-name="Oslash" unicode="&#xd8;" horiz-adv-x="1642" 
d="M1354 1194c125 -132 187 -298 187 -498c0 -207 -69 -379 -206 -514c-137 -136 -310 -204 -518 -204c-163 0 -305 43 -427 129l-113 -127l-102 86l114 129c-125 138 -187 309 -187 512c0 197 66 363 198 501c133 136 304 205 515 205c169 0 314 -44 437 -131l113 128
l102 -88zM433 357l681 769c-88 68 -188 102 -299 102c-143 0 -259 -50 -349 -151s-135 -226 -135 -375c0 -131 34 -246 102 -345zM1207 1029l-681 -768c84 -66 181 -99 292 -99c143 0 260 53 354 160c92 106 139 231 139 376c0 125 -35 236 -104 331z" />
    <glyph glyph-name="infinity" unicode="&#x221e;" horiz-adv-x="1195" 
d="M556 791c78 100 140 164 187 191c47 28 95 42 146 42c73 0 140 -26 199 -78c59 -53 89 -134 89 -243c0 -112 -28 -196 -84 -252s-124 -84 -204 -84c-59 0 -111 17 -157 49c-47 34 -105 95 -176 184c-91 -114 -187 -171 -288 -171c-75 0 -134 27 -180 83
c-44 54 -67 116 -67 184c0 62 21 122 63 180c43 58 104 87 184 87c101 0 197 -57 288 -172zM625 697c55 -85 102 -143 141 -173c40 -30 80 -45 120 -45c46 0 88 17 124 51c38 33 56 88 56 163c0 69 -17 123 -52 161c-34 38 -78 57 -131 57c-37 0 -73 -13 -108 -40
s-85 -85 -150 -174zM487 696c-81 105 -155 157 -220 157c-41 0 -73 -14 -98 -43s-37 -66 -37 -111s13 -83 39 -113c26 -29 59 -44 98 -44c67 0 139 51 218 154z" />
    <glyph glyph-name="plusminus" unicode="&#xb1;" horiz-adv-x="1366" 
d="M135 943h470v470h156v-470h470v-157h-470v-469h-156v469h-470v157zM135 135h1096v-157h-1096v157z" />
    <glyph glyph-name="lessequal" unicode="&#x2264;" horiz-adv-x="1366" 
d="M1231 368l-1096 460v141l1096 460v-170l-882 -361l882 -360v-170zM135 119h1096v-157h-1096v157z" />
    <glyph glyph-name="greaterequal" unicode="&#x2265;" horiz-adv-x="1366" 
d="M135 1429l1096 -460v-141l-1096 -460v170l882 360l-882 361v170zM135 119h1096v-157h-1096v157z" />
    <glyph glyph-name="yen" unicode="&#xa5;" horiz-adv-x="1323" 
d="M875 788h371v-117h-448l-25 -38v-171h473v-117h-473v-171h190v-174h-587v174h187v171h-487v117h487v171l-26 38h-461v117h378l-305 429h-170v174h572v-174h-175l307 -429l280 429h-175v174h555v-174h-184z" />
    <glyph glyph-name="mu" unicode="&#xb5;" horiz-adv-x="1130" 
d="M993 968v-968h-161v126c-59 -101 -149 -151 -269 -151c-103 0 -187 44 -250 132v-541h-178v1402h178v-356c0 -127 5 -219 15 -275c9 -56 35 -103 76 -141c42 -39 93 -58 154 -58s113 18 158 55s72 82 84 135c10 53 16 147 16 281v359h177z" />
    <glyph glyph-name="partialdiff" unicode="&#x2202;" horiz-adv-x="1012" 
d="M426 1138l-135 60c43 100 97 174 163 222c67 47 132 71 197 71c99 0 177 -46 235 -139s87 -235 87 -426c0 -167 -24 -325 -73 -474c-49 -148 -123 -264 -224 -350c-100 -84 -205 -127 -314 -127c-90 0 -164 31 -220 91c-58 62 -86 146 -86 255c0 113 31 216 92 311
s152 167 272 216c121 49 267 75 438 76c-1 167 -20 282 -57 344c-37 64 -86 95 -148 95c-95 0 -171 -75 -227 -225zM854 796c-161 -8 -280 -30 -358 -67c-77 -37 -140 -96 -188 -179s-72 -165 -72 -247c0 -59 18 -105 54 -139c35 -35 74 -52 116 -52c96 0 189 56 279 170
c90 112 146 284 169 514z" />
    <glyph glyph-name="summation" unicode="&#x2211;" horiz-adv-x="1460" 
d="M139 1419h1237v-164h-988l607 -752l-649 -795h1040v-164h-1264v190l620 762l-603 747v176z" />
    <glyph glyph-name="product" unicode="&#x220f;" horiz-adv-x="1686" 
d="M162 1419h1362v-1875h-191v1701h-980v-1701h-191v1875z" />
    <glyph glyph-name="pi1" unicode="&#x3d6;" horiz-adv-x="1280" 
d="M51 1063h1179v-158h-159v-905h-189v905h-484v-905h-188v905h-159v158z" />
    <glyph glyph-name="integral" unicode="&#x222b;" horiz-adv-x="555" 
d="M198 608c0 383 18 631 53 744c35 114 96 171 183 171c31 0 59 -10 84 -29c26 -20 39 -46 39 -79c0 -29 -8 -53 -25 -73s-39 -30 -67 -30c-23 0 -49 12 -76 35c-15 13 -29 20 -40 20c-27 0 -40 -21 -40 -63c0 -28 3 -76 9 -145c25 -273 37 -501 37 -683
c0 -425 -15 -704 -47 -836c-30 -134 -95 -200 -192 -200c-37 0 -66 11 -88 34c-20 22 -31 51 -31 87c0 29 8 52 25 71s38 28 65 28s50 -11 70 -33c19 -21 35 -31 48 -31c26 0 39 20 39 61c0 27 -3 67 -9 120c-25 211 -37 488 -37 831z" />
    <glyph glyph-name="ordfeminine" unicode="&#xaa;" horiz-adv-x="705" 
d="M676 917v-101h-215v70c-59 -53 -126 -80 -200 -80c-55 0 -104 17 -147 50c-44 33 -66 78 -66 134c0 57 23 102 70 136c46 35 100 52 161 52c57 0 114 -17 169 -50v58c0 43 -10 75 -30 98c-21 22 -57 33 -108 33c-62 0 -107 -23 -135 -69l-119 29c53 91 143 136 270 136
c62 0 112 -9 150 -28c39 -19 64 -42 76 -71c13 -28 19 -71 19 -128v-269h105zM448 1032c-53 38 -106 57 -159 57c-37 0 -67 -9 -89 -29c-23 -18 -34 -42 -34 -70c0 -25 10 -47 28 -66c20 -20 48 -30 86 -30c59 0 115 23 168 69v69z" />
    <glyph glyph-name="ordmasculine" unicode="&#xba;" horiz-adv-x="768" 
d="M53 1106c0 91 32 165 97 222s143 85 234 85s169 -29 234 -85c65 -58 97 -131 97 -222s-32 -165 -97 -222s-143 -85 -234 -85c-92 0 -170 29 -234 86c-65 57 -97 131 -97 221zM184 1106c0 -57 20 -104 58 -141c40 -37 87 -55 142 -55s102 18 142 56c38 36 58 83 58 140
c0 59 -20 106 -60 142c-39 35 -86 53 -140 53c-55 0 -102 -18 -141 -53c-39 -36 -59 -83 -59 -142z" />
    <glyph glyph-name="Ohm" unicode="&#x2126;" horiz-adv-x="1621" 
d="M504 160c-231 134 -346 351 -346 651c0 119 25 232 74 340c50 108 125 194 225 257s220 95 359 95c199 0 356 -67 472 -200c117 -133 175 -300 175 -500c0 -277 -115 -492 -344 -643l367 6v-166h-578v177c110 50 195 130 256 241s91 230 91 359c0 155 -37 287 -111 397
c-74 111 -184 166 -330 166c-149 0 -261 -55 -334 -164c-73 -110 -110 -240 -110 -390c0 -149 31 -276 93 -382c62 -105 145 -180 249 -224v-180h-577v168z" />
    <glyph glyph-name="ae" unicode="&#xe6;" horiz-adv-x="1812" 
d="M1725 435h-786c6 -90 41 -162 103 -217c64 -55 136 -82 217 -82c57 0 113 14 167 44c54 28 97 65 130 110l169 -75c-43 -74 -107 -133 -191 -177c-86 -44 -175 -66 -270 -66c-181 0 -325 69 -432 208c-35 -51 -88 -99 -160 -142c-73 -44 -151 -66 -235 -66
c-97 0 -180 27 -249 82s-103 129 -103 224c0 100 39 178 117 234c78 57 165 85 261 85c93 0 187 -27 282 -81v100c0 55 -6 95 -17 122c-12 27 -35 50 -70 68c-34 20 -79 29 -135 29c-114 0 -195 -39 -243 -118l-184 51c87 151 236 227 447 227c159 0 274 -50 345 -150
c90 100 204 150 343 150c141 0 259 -53 351 -158c94 -105 141 -239 143 -402zM1518 579c-15 80 -50 141 -104 185c-56 42 -118 64 -187 64s-131 -23 -185 -68c-55 -46 -89 -106 -104 -181h580zM745 347c-81 63 -165 95 -253 95c-59 0 -108 -16 -144 -46
c-38 -32 -56 -71 -56 -119c0 -45 18 -82 54 -109s78 -41 126 -41c104 0 195 41 273 123v97z" />
    <glyph glyph-name="oslash" unicode="&#xf8;" 
d="M220 120c-95 97 -142 219 -142 365c0 149 50 271 149 367c99 95 219 143 359 143c113 0 213 -31 301 -93l97 114l66 -58l-96 -113c95 -96 142 -217 142 -362c0 -149 -50 -272 -149 -367c-99 -96 -219 -144 -358 -144c-111 0 -211 30 -300 91l-97 -114l-69 58zM349 271
l412 484c-53 37 -111 55 -174 55c-85 0 -158 -31 -218 -92s-90 -139 -90 -233c0 -83 23 -155 70 -214zM826 694l-411 -483c52 -35 110 -53 173 -53c82 0 154 30 215 90c61 59 92 138 92 235c0 83 -23 154 -69 211z" />
    <glyph glyph-name="questiondown" unicode="&#xbf;" horiz-adv-x="961" 
d="M664 977v-245h-246v245h246zM489 602h103l24 -442c-31 8 -63 12 -95 12c-87 0 -149 -22 -188 -66s-58 -96 -58 -156c0 -72 21 -127 62 -166s94 -58 159 -58c79 0 137 23 174 68s56 102 56 170c0 15 0 31 -1 50h187c1 -19 1 -35 1 -48c0 -137 -41 -238 -121 -304
c-82 -65 -178 -98 -290 -98c-136 0 -241 36 -314 108s-110 167 -110 286c0 114 35 205 106 273c70 68 153 102 248 102c7 0 18 0 32 -1z" />
    <glyph glyph-name="exclamdown" unicode="&#xa1;" horiz-adv-x="598" 
d="M176 977h246v-245h-246v245zM349 604l50 -596v-418h-202v418l50 596h102z" />
    <glyph glyph-name="logicalnot" unicode="&#xac;" horiz-adv-x="1366" 
d="M135 1009h1096v-627h-157v470h-939v157z" />
    <glyph glyph-name="radical" unicode="&#x221a;" horiz-adv-x="1131" 
d="M1053 1869h74l-312 -1947l-496 1021l-198 -91l-34 64l301 151l405 -823z" />
    <glyph glyph-name="florin" unicode="&#x192;" horiz-adv-x="1130" 
d="M46 -405l35 155c67 -15 117 -22 152 -22s63 9 82 28s35 60 46 124l177 1042h-201l24 140h201l24 133c15 82 33 141 52 179c19 36 49 66 88 86c39 22 86 32 140 32c56 0 129 -13 219 -38l-35 -153c-67 16 -118 24 -154 24c-43 0 -72 -11 -88 -33c-17 -21 -31 -64 -43 -127
l-19 -103h204l-25 -140h-204l-191 -1092c-17 -98 -46 -166 -87 -204s-96 -57 -167 -57c-67 0 -143 9 -230 26z" />
    <glyph glyph-name="approxequal" unicode="&#x2248;" horiz-adv-x="1366" 
d="M1231 901c-103 -85 -201 -128 -293 -128c-41 0 -80 6 -119 18s-103 39 -193 81c-85 40 -149 60 -193 60c-90 0 -189 -47 -298 -141v169c105 86 206 129 305 129c62 0 160 -31 293 -94c91 -43 159 -64 204 -64c89 0 187 46 294 139v-169zM1231 431
c-103 -85 -201 -128 -293 -128c-41 0 -80 6 -119 17c-39 12 -103 39 -193 81c-85 40 -149 60 -193 60c-90 0 -189 -47 -298 -140v169c105 85 206 128 305 128c62 0 160 -31 293 -94c91 -43 159 -64 204 -64c86 0 184 47 294 140v-169z" />
    <glyph glyph-name="increment" unicode="&#x2206;" horiz-adv-x="1259" 
d="M1229 0h-1200l628 1387zM993 82l-399 967l-440 -967h839z" />
    <glyph glyph-name="guillemotleft" unicode="&#xab;" horiz-adv-x="981" 
d="M33 484l297 484h200l-292 -484l292 -484h-200zM461 484l297 484h200l-292 -484l292 -484h-200z" />
    <glyph glyph-name="guillemotright" unicode="&#xbb;" horiz-adv-x="981" 
d="M520 484l-297 -484h-200l293 484l-293 484h200zM948 484l-297 -484h-200l293 484l-293 484h200z" />
    <glyph glyph-name="ellipsis" unicode="&#x2026;" horiz-adv-x="2048" 
d="M219 0v246h246v-246h-246zM902 0v246h245v-246h-245zM1584 0v246h246v-246h-246z" />
    <glyph glyph-name="nbspace" unicode="&#xa0;" horiz-adv-x="512" 
 />
    <glyph glyph-name="Agrave" unicode="&#xc0;" horiz-adv-x="1430" 
d="M970 489h-500l-107 -315h169v-174h-548v174h168l380 1060h-169v157h711v-157h-173l389 -1060h156v-174h-545v174h173zM918 652l-185 582h-19l-192 -582h396zM851 1473h-128l-289 317h276z" />
    <glyph glyph-name="Atilde" unicode="&#xc3;" horiz-adv-x="1430" 
d="M970 489h-500l-107 -315h169v-174h-548v174h168l380 1060h-169v157h711v-157h-173l389 -1060h156v-174h-545v174h173zM918 652l-185 582h-19l-192 -582h396zM939 1768h112c-3 -103 -22 -175 -59 -216c-36 -41 -77 -62 -124 -62s-108 22 -181 67c-65 39 -107 58 -127 58
c-21 0 -35 -8 -44 -24c-9 -17 -13 -45 -13 -86h-115c1 96 19 165 54 206s78 62 128 62c40 0 101 -24 184 -72c57 -34 95 -51 114 -51c45 0 68 39 71 118z" />
    <glyph glyph-name="Otilde" unicode="&#xd5;" horiz-adv-x="1642" 
d="M102 702c0 202 66 371 198 507s304 204 516 204c214 0 388 -68 523 -204s202 -306 202 -511c0 -209 -69 -381 -205 -516c-138 -136 -312 -204 -523 -204c-135 0 -259 32 -371 96c-114 65 -198 154 -255 270c-57 114 -85 234 -85 358zM331 701c0 -153 45 -281 134 -384
s207 -155 352 -155c144 0 262 53 355 158c93 106 139 232 139 379c0 148 -47 273 -141 375c-95 103 -213 154 -356 154c-142 0 -258 -50 -348 -151s-135 -226 -135 -376zM1041 1768h112c-3 -103 -22 -175 -59 -216c-36 -41 -77 -62 -124 -62s-108 22 -181 67
c-65 39 -107 58 -127 58c-21 0 -35 -8 -44 -24c-9 -17 -13 -45 -13 -86h-115c1 96 19 165 54 206s78 62 128 62c40 0 101 -24 184 -72c57 -34 95 -51 114 -51c45 0 68 39 71 118z" />
    <glyph glyph-name="OE" unicode="&#x152;" horiz-adv-x="2091" 
d="M1256 1217v-409h515v-174h-515v-460h596v251h171v-425h-1054c-165 0 -283 6 -357 18c-72 12 -152 47 -239 104c-87 58 -157 137 -211 238c-53 101 -80 208 -80 322c0 119 24 229 74 330c48 101 110 179 182 234c74 54 152 92 235 113s199 32 348 32h1102v-419h-171v245
h-596zM1046 1217h-182c-95 0 -170 -7 -227 -20s-112 -40 -167 -81s-98 -98 -130 -170c-33 -74 -49 -157 -49 -250c0 -122 25 -224 77 -306c50 -82 117 -138 198 -170c82 -30 190 -46 324 -46h156v1043z" />
    <glyph glyph-name="oe" unicode="&#x153;" horiz-adv-x="1942" 
d="M1862 435h-800c4 -80 35 -149 94 -208c58 -59 132 -88 221 -88c125 0 231 53 318 159l167 -72c-55 -89 -126 -154 -216 -194c-88 -40 -177 -60 -266 -60c-175 0 -314 66 -417 197c-93 -131 -221 -197 -384 -197c-140 0 -259 48 -358 144c-99 95 -148 218 -148 369
c0 97 23 184 69 261c45 78 108 139 189 183s161 66 242 66c155 0 285 -65 390 -196c96 131 225 196 388 196c142 0 263 -53 362 -158s149 -239 149 -402zM1648 579c-15 76 -51 136 -108 181c-57 44 -122 66 -194 66c-69 0 -129 -21 -180 -64c-52 -43 -85 -104 -99 -183h581z
M279 481c0 -96 29 -174 86 -235c57 -60 128 -90 213 -90c87 0 158 31 212 94c56 63 83 142 83 237c0 105 -32 184 -97 237s-132 79 -203 79c-83 0 -153 -30 -209 -91c-57 -61 -85 -138 -85 -231z" />
    <glyph glyph-name="endash" unicode="&#x2013;" horiz-adv-x="1024" 
d="M-12 601h1048v-177h-1048v177z" />
    <glyph glyph-name="emdash" unicode="&#x2014;" horiz-adv-x="2048" 
d="M-12 601h2072v-177h-2072v177z" />
    <glyph glyph-name="quotedblleft" unicode="&#x201c;" horiz-adv-x="1067" 
d="M410 1114v-246h-246v214c0 73 6 129 17 169s35 73 72 99c37 25 89 39 157 41v-104c-80 -12 -120 -62 -120 -149v-24h120zM904 1114v-246h-245v214c0 73 5 129 17 169c10 40 34 73 72 99c36 25 89 39 156 41v-104c-80 -12 -120 -62 -120 -149c0 -5 0 -13 1 -24h119z" />
    <glyph glyph-name="quotedblright" unicode="&#x201d;" horiz-adv-x="1067" 
d="M163 1145v246h246v-213c0 -73 -6 -130 -17 -170s-36 -73 -72 -98c-38 -25 -90 -39 -157 -42v105c80 12 120 61 120 148c0 5 0 13 -1 24h-119zM658 1145v246h245v-213c0 -73 -6 -130 -17 -170s-35 -73 -72 -98s-89 -39 -156 -42v105c80 12 120 61 120 148c0 5 0 13 -1 24
h-119z" />
    <glyph glyph-name="quoteleft" unicode="&#x2018;" horiz-adv-x="598" 
d="M422 1114v-246h-246v214c0 73 6 129 17 169s35 73 72 99c37 25 89 39 157 41v-104c-80 -12 -120 -62 -120 -149v-24h120z" />
    <glyph glyph-name="quoteright" unicode="&#x2019;" horiz-adv-x="598" 
d="M176 1145v246h246v-213c0 -73 -6 -130 -17 -170s-35 -73 -73 -98c-36 -25 -89 -39 -156 -42v105c80 12 120 61 120 148c0 5 0 13 -1 24h-119z" />
    <glyph glyph-name="divide" unicode="&#xf7;" horiz-adv-x="1366" 
d="M683 1212c27 0 50 -10 69 -28c19 -20 29 -43 29 -70s-10 -50 -29 -69s-42 -28 -69 -28s-50 9 -69 29c-19 18 -29 41 -29 68c0 29 10 52 29 70c20 19 43 28 69 28zM135 774h1096v-157h-1096v157zM683 374c27 0 50 -9 69 -28s29 -42 29 -69s-10 -51 -29 -69
c-19 -20 -42 -29 -69 -29s-50 9 -69 29c-19 18 -29 42 -29 69s10 50 29 69s42 28 69 28z" />
    <glyph glyph-name="lozenge" unicode="&#x25ca;" horiz-adv-x="1012" 
d="M548 1422l418 -713l-418 -709h-111l-391 709l391 713h111zM494 1325l-340 -616l340 -615l359 615z" />
    <glyph glyph-name="ydieresis" unicode="&#xff;" horiz-adv-x="1153" 
d="M496 17l-318 782h-161v169h479v-169h-116l209 -536l205 536h-128v169h469v-169h-144l-479 -1233h-321v166h189zM296 1255c0 30 11 56 33 78c21 22 47 33 78 33s57 -11 78 -32c22 -22 33 -48 33 -79s-11 -58 -33 -79c-21 -21 -47 -32 -78 -32c-30 0 -56 11 -78 32
c-22 22 -33 48 -33 79zM658 1255c0 29 11 55 31 77c22 23 48 34 80 34c31 0 57 -11 78 -33c22 -22 33 -48 33 -78c0 -31 -11 -57 -33 -79c-21 -21 -47 -32 -78 -32s-58 11 -79 32c-21 22 -32 48 -32 79z" />
    <glyph glyph-name="Ydieresis" unicode="&#x178;" horiz-adv-x="1323" 
d="M563 174v459l-414 584h-170v174h572v-174h-175l307 -429l280 429h-175v174h555v-174h-184l-386 -584v-459h190v-174h-587v174h187zM369 1617c0 30 11 56 33 78c21 22 47 33 78 33s57 -11 78 -32c22 -22 33 -48 33 -79s-11 -58 -33 -79c-21 -21 -47 -32 -78 -32
c-30 0 -56 11 -78 32c-22 22 -33 48 -33 79zM731 1617c0 29 11 55 31 77c22 23 48 34 80 34c31 0 57 -11 78 -33c22 -22 33 -48 33 -78c0 -31 -11 -57 -33 -79c-21 -21 -47 -32 -78 -32s-58 11 -79 32c-21 22 -32 48 -32 79z" />
    <glyph glyph-name="fraction" unicode="&#x2044;" horiz-adv-x="618" 
d="M-303 0l1104 1389h120l-1103 -1389h-121z" />
    <glyph glyph-name="Euro" unicode="&#x20ac;" horiz-adv-x="1110" 
d="M352 764l-2 -64l2 -65h369v-152h-354c32 -225 133 -338 303 -338c55 0 104 25 146 73c42 50 72 113 89 192l182 -80c-21 -107 -69 -193 -145 -257c-74 -64 -170 -96 -287 -96c-291 0 -457 169 -499 506h-131v152h118v59c0 33 1 56 2 70h-120v151h131
c39 332 204 498 495 498c99 0 171 -32 217 -96v86h181v-414h-181c-10 81 -34 145 -74 191c-38 46 -87 69 -145 69c-85 0 -150 -27 -196 -81c-46 -53 -76 -138 -91 -253h359v-151h-369z" />
    <glyph glyph-name="guilsinglleft" unicode="&#x2039;" horiz-adv-x="598" 
d="M55 484l303 484h194l-292 -484l292 -484h-194z" />
    <glyph glyph-name="guilsinglright" unicode="&#x203a;" horiz-adv-x="598" 
d="M542 484l-303 -484h-194l292 484l-292 484h194z" />
    <glyph glyph-name="fi" unicode="&#xfb01;" 
d="M723 1192l-170 -23c-6 63 -31 95 -75 95c-30 0 -50 -13 -60 -40c-10 -26 -15 -78 -15 -157v-99h587v-799h154v-169h-495v169h151v630h-397v-630h150v-169h-492v169h152v630h-152v169h152v99c0 144 27 239 81 284s114 68 180 68c74 0 132 -23 174 -68s67 -98 75 -159z
M899 1410c31 0 57 -11 81 -32c22 -22 34 -49 34 -82c0 -32 -11 -59 -34 -82s-50 -34 -81 -34c-32 0 -59 11 -81 34c-23 23 -34 50 -34 82c0 33 11 60 34 82c23 21 50 32 81 32z" />
    <glyph glyph-name="fl" unicode="&#xfb02;" 
d="M62 169h146v630h-146v169h146v84c0 133 24 228 70 284c48 55 108 83 182 83c36 0 77 -9 123 -28h404v-1222h156v-169h-496v169h150v1053h-250c-23 25 -45 37 -66 37c-27 0 -47 -13 -61 -37c-15 -26 -22 -79 -22 -160v-94h167v-169h-167v-630h149v-169h-485v169z" />
    <glyph glyph-name="daggerdbl" unicode="&#x2021;" horiz-adv-x="1067" 
d="M429 1413h210v-228c-41 -72 -64 -153 -69 -244c105 6 185 25 238 58h178v-186h-178c-67 35 -147 53 -238 55c9 -133 42 -257 99 -374c-59 -121 -92 -249 -99 -382c103 3 182 22 238 57h178v-184h-178c-52 30 -131 48 -238 54c9 -95 32 -174 69 -236v-237h-210v237
c33 59 55 138 66 236c-87 0 -163 -18 -230 -54h-185v184h185c49 -30 126 -49 230 -57c-7 147 -37 274 -90 382c50 101 80 226 90 374c-91 -2 -167 -20 -230 -55h-185v186h185c61 -34 137 -53 230 -58c-5 102 -27 183 -66 244v228z" />
    <glyph glyph-name="periodcentered" unicode="&#xb7;" horiz-adv-x="598" 
d="M176 573v245h246v-245h-246z" />
    <glyph glyph-name="quotesinglbase" unicode="&#x201a;" horiz-adv-x="598" 
d="M176 0v246h246v-214c0 -73 -6 -129 -17 -169s-35 -73 -73 -99c-36 -25 -89 -39 -156 -41v104c80 12 120 62 120 149c0 5 0 13 -1 24h-119z" />
    <glyph glyph-name="quotedblbase" unicode="&#x201e;" horiz-adv-x="1067" 
d="M163 0v246h246v-214c0 -73 -6 -129 -17 -169s-36 -73 -72 -99c-38 -25 -90 -39 -157 -41v104c80 12 120 62 120 149c0 5 0 13 -1 24h-119zM658 0v246h245v-214c0 -73 -6 -129 -17 -169s-35 -73 -72 -99c-37 -25 -89 -39 -156 -41v104c80 12 120 62 120 149
c0 5 0 13 -1 24h-119z" />
    <glyph glyph-name="perthousand" unicode="&#x2030;" horiz-adv-x="2218" 
d="M56 1040c0 111 25 201 75 270s124 103 222 103c91 0 164 -32 217 -97s80 -157 80 -276c0 -113 -26 -204 -76 -271c-52 -67 -125 -101 -221 -101c-91 0 -164 32 -217 96c-53 65 -80 157 -80 276zM200 1041c0 -185 51 -277 153 -277c101 0 152 92 152 276
c0 185 -51 277 -152 277c-102 0 -153 -92 -153 -276zM120 0l1103 1391h142l-1095 -1391h-150zM823 351c0 120 27 212 81 276c53 64 125 96 216 96s164 -32 217 -97s80 -156 80 -275c0 -120 -27 -212 -81 -277c-53 -64 -125 -96 -216 -96c-97 0 -171 34 -222 102
c-50 69 -75 159 -75 271zM968 351c0 -185 51 -277 152 -277c102 0 153 92 153 276c0 185 -51 277 -153 277c-101 0 -152 -92 -152 -276zM1571 351c0 120 27 212 81 276c53 64 125 96 216 96s164 -32 217 -97s80 -156 80 -275c0 -120 -27 -212 -81 -277
c-53 -64 -125 -96 -216 -96c-97 0 -171 34 -222 102c-50 69 -75 159 -75 271zM1716 351c0 -185 51 -277 152 -277c102 0 153 92 153 276c0 185 -51 277 -153 277c-101 0 -152 -92 -152 -276z" />
    <glyph glyph-name="Acircumflex" unicode="&#xc2;" horiz-adv-x="1430" 
d="M970 489h-500l-107 -315h169v-174h-548v174h168l380 1060h-169v157h711v-157h-173l389 -1060h156v-174h-545v174h173zM918 652l-185 582h-19l-192 -582h396zM715 1650l-165 -174h-135l168 312h267l173 -312h-141z" />
    <glyph glyph-name="Ecircumflex" unicode="&#xca;" horiz-adv-x="1280" 
d="M236 174v1043h-180v174h1156v-419h-172v245h-594v-414h517v-174h-517v-455h594v253h172v-427h-1156v174h180zM630 1650l-165 -174h-135l168 312h267l173 -312h-141z" />
    <glyph glyph-name="Aacute" unicode="&#xc1;" horiz-adv-x="1430" 
d="M970 489h-500l-107 -315h169v-174h-548v174h168l380 1060h-169v157h711v-157h-173l389 -1060h156v-174h-545v174h173zM918 652l-185 582h-19l-192 -582h396zM579 1473l141 317h276l-289 -317h-128z" />
    <glyph glyph-name="Edieresis" unicode="&#xcb;" horiz-adv-x="1280" 
d="M236 174v1043h-180v174h1156v-419h-172v245h-594v-414h517v-174h-517v-455h594v253h172v-427h-1156v174h180zM342 1617c0 30 11 56 33 78c21 22 47 33 78 33s57 -11 78 -32c22 -22 33 -48 33 -79s-11 -58 -33 -79c-21 -21 -47 -32 -78 -32c-30 0 -56 11 -78 32
c-22 22 -33 48 -33 79zM704 1617c0 29 11 55 31 77c22 23 48 34 80 34c31 0 57 -11 78 -33c22 -22 33 -48 33 -78c0 -31 -11 -57 -33 -79c-21 -21 -47 -32 -78 -32s-58 11 -79 32c-21 22 -32 48 -32 79z" />
    <glyph glyph-name="Egrave" unicode="&#xc8;" horiz-adv-x="1280" 
d="M236 174v1043h-180v174h1156v-419h-172v245h-594v-414h517v-174h-517v-455h594v253h172v-427h-1156v174h180zM782 1473h-128l-289 317h276z" />
    <glyph glyph-name="Iacute" unicode="&#xcd;" horiz-adv-x="641" 
d="M215 174v1043h-151v174h512v-174h-151v-1043h151v-174h-512v174h151zM178 1473l141 317h276l-289 -317h-128z" />
    <glyph glyph-name="Icircumflex" unicode="&#xce;" horiz-adv-x="641" 
d="M215 174v1043h-151v174h512v-174h-151v-1043h151v-174h-512v174h151zM316 1650l-165 -174h-135l168 312h267l173 -312h-141z" />
    <glyph glyph-name="Idieresis" unicode="&#xcf;" horiz-adv-x="641" 
d="M215 174v1043h-151v174h512v-174h-151v-1043h151v-174h-512v174h151zM28 1617c0 30 11 56 32 78c22 22 48 33 79 33s57 -11 79 -32c21 -22 32 -48 32 -79s-11 -58 -32 -79c-22 -21 -48 -32 -79 -32c-30 0 -56 11 -78 32c-22 22 -33 48 -33 79zM390 1617c0 29 10 55 32 77
c20 23 47 34 79 34c31 0 57 -11 79 -33c21 -22 32 -48 32 -78c0 -31 -11 -57 -32 -79c-22 -21 -48 -32 -79 -32s-58 11 -79 32c-21 22 -32 48 -32 79z" />
    <glyph glyph-name="Igrave" unicode="&#xcc;" horiz-adv-x="641" 
d="M215 174v1043h-151v174h512v-174h-151v-1043h151v-174h-512v174h151zM482 1473h-128l-289 317h276z" />
    <glyph glyph-name="Oacute" unicode="&#xd3;" horiz-adv-x="1642" 
d="M102 702c0 202 66 371 198 507s304 204 516 204c214 0 388 -68 523 -204s202 -306 202 -511c0 -209 -69 -381 -205 -516c-138 -136 -312 -204 -523 -204c-135 0 -259 32 -371 96c-114 65 -198 154 -255 270c-57 114 -85 234 -85 358zM331 701c0 -153 45 -281 134 -384
s207 -155 352 -155c144 0 262 53 355 158c93 106 139 232 139 379c0 148 -47 273 -141 375c-95 103 -213 154 -356 154c-142 0 -258 -50 -348 -151s-135 -226 -135 -376zM721 1473l141 317h276l-289 -317h-128z" />
    <glyph glyph-name="Ocircumflex" unicode="&#xd4;" horiz-adv-x="1642" 
d="M102 702c0 202 66 371 198 507s304 204 516 204c214 0 388 -68 523 -204s202 -306 202 -511c0 -209 -69 -381 -205 -516c-138 -136 -312 -204 -523 -204c-135 0 -259 32 -371 96c-114 65 -198 154 -255 270c-57 114 -85 234 -85 358zM331 701c0 -153 45 -281 134 -384
s207 -155 352 -155c144 0 262 53 355 158c93 106 139 232 139 379c0 148 -47 273 -141 375c-95 103 -213 154 -356 154c-142 0 -258 -50 -348 -151s-135 -226 -135 -376zM818 1650l-165 -174h-135l168 312h267l173 -312h-141z" />
    <glyph glyph-name="Ograve" unicode="&#xd2;" horiz-adv-x="1642" 
d="M102 702c0 202 66 371 198 507s304 204 516 204c214 0 388 -68 523 -204s202 -306 202 -511c0 -209 -69 -381 -205 -516c-138 -136 -312 -204 -523 -204c-135 0 -259 32 -371 96c-114 65 -198 154 -255 270c-57 114 -85 234 -85 358zM331 701c0 -153 45 -281 134 -384
s207 -155 352 -155c144 0 262 53 355 158c93 106 139 232 139 379c0 148 -47 273 -141 375c-95 103 -213 154 -356 154c-142 0 -258 -50 -348 -151s-135 -226 -135 -376zM921 1473h-128l-289 317h276z" />
    <glyph glyph-name="Uacute" unicode="&#xda;" horiz-adv-x="1386" 
d="M409 1217v-696c0 -108 5 -183 17 -224c10 -41 38 -77 82 -105c44 -30 101 -44 170 -44c83 0 146 12 190 38c44 24 73 58 88 100c14 43 21 118 21 225v706h-161v174h544v-174h-174v-727c0 -98 -4 -169 -12 -214c-9 -44 -31 -90 -68 -138c-37 -49 -88 -88 -155 -116
c-67 -30 -148 -44 -243 -44c-105 0 -193 14 -263 40c-70 28 -123 64 -158 109s-59 94 -71 145c-11 51 -17 131 -17 239v706h-172v174h547v-174h-165zM581 1473l141 317h276l-289 -317h-128z" />
    <glyph glyph-name="Ucircumflex" unicode="&#xdb;" horiz-adv-x="1386" 
d="M409 1217v-696c0 -108 5 -183 17 -224c10 -41 38 -77 82 -105c44 -30 101 -44 170 -44c83 0 146 12 190 38c44 24 73 58 88 100c14 43 21 118 21 225v706h-161v174h544v-174h-174v-727c0 -98 -4 -169 -12 -214c-9 -44 -31 -90 -68 -138c-37 -49 -88 -88 -155 -116
c-67 -30 -148 -44 -243 -44c-105 0 -193 14 -263 40c-70 28 -123 64 -158 109s-59 94 -71 145c-11 51 -17 131 -17 239v706h-172v174h547v-174h-165zM690 1650l-165 -174h-135l168 312h267l173 -312h-141z" />
    <glyph glyph-name="Ugrave" unicode="&#xd9;" horiz-adv-x="1386" 
d="M409 1217v-696c0 -108 5 -183 17 -224c10 -41 38 -77 82 -105c44 -30 101 -44 170 -44c83 0 146 12 190 38c44 24 73 58 88 100c14 43 21 118 21 225v706h-161v174h544v-174h-174v-727c0 -98 -4 -169 -12 -214c-9 -44 -31 -90 -68 -138c-37 -49 -88 -88 -155 -116
c-67 -30 -148 -44 -243 -44c-105 0 -193 14 -263 40c-70 28 -123 64 -158 109s-59 94 -71 145c-11 51 -17 131 -17 239v706h-172v174h547v-174h-165zM805 1473h-128l-289 317h276z" />
    <glyph glyph-name="dotlessi" unicode="&#x131;" horiz-adv-x="598" 
d="M217 169v630h-151v169h341v-799h149v-169h-490v169h151z" />
    <glyph glyph-name="circumflex" unicode="&#x2c6;" horiz-adv-x="682" 
d="M337 1273l-165 -174h-135l168 312h267l173 -312h-141z" />
    <glyph glyph-name="tilde" unicode="&#x2dc;" horiz-adv-x="682" 
d="M561 1391h112c-3 -103 -22 -175 -59 -216c-36 -41 -77 -62 -124 -62s-108 22 -181 67c-65 39 -107 58 -127 58c-21 0 -35 -8 -44 -24c-9 -17 -13 -45 -13 -86h-115c1 96 19 165 54 206s78 62 128 62c40 0 101 -24 184 -72c57 -34 95 -51 114 -51c45 0 68 39 71 118z" />
    <glyph glyph-name="macron" unicode="&#xaf;" horiz-adv-x="682" 
d="M49 1167v159h584v-159h-584z" />
    <glyph glyph-name="breve" unicode="&#x2d8;" horiz-adv-x="682" 
d="M33 1397h143c16 -97 71 -145 165 -145c95 0 151 48 166 145h143c-7 -83 -38 -152 -95 -205s-128 -80 -214 -80s-157 27 -213 80c-57 53 -88 122 -95 205z" />
    <glyph glyph-name="dotaccent" unicode="&#x2d9;" horiz-adv-x="682" 
d="M227 1255c0 31 11 58 33 81c23 22 50 33 82 33c31 0 58 -11 80 -33c23 -23 34 -50 34 -81c0 -32 -11 -59 -34 -81c-22 -23 -49 -34 -80 -34c-33 0 -60 12 -82 34c-22 24 -33 50 -33 81z" />
    <glyph glyph-name="ring" unicode="&#x2da;" horiz-adv-x="682" 
d="M142 1255c0 53 19 99 57 139s85 60 142 60c55 0 102 -20 141 -58c39 -40 58 -86 58 -141s-20 -101 -58 -141c-40 -38 -86 -58 -141 -58c-57 0 -104 20 -142 60c-38 39 -57 86 -57 139zM220 1255c0 -33 12 -61 35 -85s52 -36 86 -36c33 0 62 12 85 36c24 23 36 52 36 85
s-12 61 -36 85c-23 23 -52 35 -85 35c-35 0 -63 -12 -87 -36c-22 -24 -34 -52 -34 -84z" />
    <glyph glyph-name="cedilla" unicode="&#xb8;" horiz-adv-x="682" 
d="M422 21l-21 -118c95 -23 142 -78 142 -163c0 -65 -27 -114 -80 -147s-127 -50 -222 -50h-72v111c71 0 119 6 145 18c25 12 38 31 38 58c0 39 -32 58 -96 58l41 233h125z" />
    <glyph glyph-name="hungarumlaut" unicode="&#x2dd;" horiz-adv-x="682" 
d="M-39 1096l141 317h276l-289 -317h-128zM303 1096l141 317h276l-289 -317h-128z" />
    <glyph glyph-name="ogonek" unicode="&#x2db;" horiz-adv-x="682" 
d="M215 0h160c-27 -48 -40 -96 -40 -144c0 -87 37 -130 111 -130c27 0 55 7 82 20v-134c-60 -29 -116 -44 -168 -44c-61 0 -110 19 -148 58s-57 90 -57 153c0 59 20 133 60 221z" />
    <glyph glyph-name="caron" unicode="&#x2c7;" horiz-adv-x="682" 
d="M345 1236l166 175h134l-168 -312h-266l-174 312h141z" />
    <glyph glyph-name="Scaron" unicode="&#x160;" horiz-adv-x="1087" 
d="M71 0v505h174v-123c83 -151 192 -227 327 -227c69 0 127 21 174 63s71 97 71 165c0 66 -19 113 -58 143c-39 28 -112 57 -219 86c-125 33 -217 65 -277 94c-60 30 -108 72 -143 128c-36 54 -54 120 -54 195c0 117 39 210 116 279c78 70 176 105 293 105
c111 0 215 -36 310 -108v93h170v-422h-170v97c-71 107 -170 161 -295 161c-76 0 -134 -18 -175 -52c-41 -36 -61 -77 -61 -126c0 -37 10 -70 31 -98c21 -29 47 -50 79 -63s95 -32 189 -56c123 -32 212 -62 267 -89c55 -28 103 -74 143 -139s60 -139 60 -223
c0 -119 -42 -217 -125 -294c-84 -77 -188 -116 -311 -116c-127 0 -241 46 -342 137v-115h-174zM525 1613l166 175h134l-168 -312h-266l-174 312h141z" />
    <glyph glyph-name="scaron" unicode="&#x161;" horiz-adv-x="938" 
d="M84 0v332h170v-32c6 -45 30 -83 74 -112c42 -29 93 -44 152 -44c61 0 110 11 147 32s55 51 55 89c0 37 -15 64 -46 81c-30 17 -90 33 -180 48c-133 23 -228 59 -286 110c-56 50 -85 115 -85 195c0 81 31 148 93 203c62 54 144 81 245 81c91 0 170 -19 236 -56v41h169
v-321h-169v59c-51 79 -126 119 -224 119c-50 0 -91 -11 -123 -33c-33 -21 -49 -50 -49 -86c0 -37 15 -62 45 -76c29 -13 93 -28 191 -43c94 -15 165 -32 213 -51c48 -20 88 -53 120 -98c31 -46 47 -99 47 -160c0 -90 -35 -162 -103 -214c-70 -54 -159 -80 -269 -80
c-103 0 -188 23 -253 70v-54h-170zM485 1236l166 175h134l-168 -312h-266l-174 312h141z" />
    <glyph glyph-name="brokenbar" unicode="&#xa6;" horiz-adv-x="1079" 
d="M461 1419h157v-779h-157v779zM461 322h157v-778h-157v778z" />
    <glyph glyph-name="Eth" unicode="&#xd0;" horiz-adv-x="1493" 
d="M216 621h-208v149h208v447h-189v174h538c149 0 263 -8 343 -23c81 -15 159 -50 234 -104s136 -128 180 -222c46 -95 68 -202 68 -323c0 -137 -22 -257 -65 -358s-100 -177 -171 -227s-154 -85 -251 -104c-97 -20 -220 -30 -370 -30h-506v174h189v447zM426 621v-447h109
c123 0 221 8 293 23c71 15 132 41 181 79c49 36 89 92 120 167s46 163 46 264c0 121 -25 223 -75 307c-51 84 -115 139 -194 164c-78 26 -199 39 -362 39h-118v-447h317v-149h-317z" />
    <glyph glyph-name="eth" unicode="&#xf0;" 
d="M704 1317l178 74l33 -79l-148 -61c218 -244 327 -483 327 -718c0 -162 -48 -296 -143 -402s-219 -159 -372 -159c-152 0 -273 52 -364 157s-136 224 -136 358c0 89 20 172 61 247s96 138 167 187s152 74 244 74c96 0 184 -30 263 -89c-57 105 -123 199 -197 282
l-313 -131l-33 79l284 119c-36 37 -84 83 -143 136h204c33 -25 62 -49 88 -74zM581 813c-83 0 -154 -30 -213 -91c-59 -60 -89 -141 -89 -243c0 -91 28 -167 83 -230c56 -63 129 -94 220 -94c88 0 162 33 221 99s89 145 89 236c0 72 -18 134 -52 184c-36 52 -78 87 -128 108
s-94 31 -131 31z" />
    <glyph glyph-name="Yacute" unicode="&#xdd;" horiz-adv-x="1323" 
d="M563 174v459l-414 584h-170v174h572v-174h-175l307 -429l280 429h-175v174h555v-174h-184l-386 -584v-459h190v-174h-587v174h187zM579 1473l141 317h276l-289 -317h-128z" />
    <glyph glyph-name="yacute" unicode="&#xfd;" horiz-adv-x="1153" 
d="M496 17l-318 782h-161v169h479v-169h-116l209 -536l205 536h-128v169h469v-169h-144l-479 -1233h-321v166h189zM462 1096l141 317h276l-289 -317h-128z" />
    <glyph glyph-name="Thorn" unicode="&#xde;" 
d="M216 174v1043h-175v174h565v-174h-180v-92h112c146 0 255 -10 328 -31s134 -68 182 -140c50 -74 74 -160 74 -259c0 -79 -16 -151 -48 -213c-33 -64 -73 -110 -120 -140c-48 -30 -102 -50 -162 -60c-59 -11 -149 -16 -270 -16h-96v-92h180v-174h-565v174h175zM426 434
h120c137 0 231 20 284 58c53 40 79 108 79 207c0 63 -14 115 -42 156s-63 68 -104 79s-110 17 -207 17h-130v-517z" />
    <glyph glyph-name="thorn" unicode="&#xfe;" horiz-adv-x="1280" 
d="M191 -265v1487h-163v169h353v-575c95 111 209 167 344 167c136 0 249 -47 337 -140c90 -93 134 -215 134 -364c0 -157 -48 -280 -145 -371s-207 -136 -330 -136c-128 0 -241 49 -340 148v-385h188v-169h-555v169h177zM378 470c0 -53 11 -104 33 -153s57 -89 105 -123
c48 -32 104 -49 169 -49c91 0 165 30 225 91c58 61 88 144 88 250c0 103 -31 184 -92 242c-62 58 -132 87 -211 87c-84 0 -158 -31 -221 -95c-64 -62 -96 -146 -96 -250z" />
    <glyph glyph-name="multiply" unicode="&#xd7;" horiz-adv-x="1366" 
d="M176 300l396 395l-396 396l111 111l396 -396l396 396l111 -111l-396 -396l396 -395l-111 -111l-396 396l-396 -396z" />
    <glyph glyph-name="onesuperior" unicode="&#xb9;" horiz-adv-x="682" 
d="M267 778v524h-112v98h249v-622h106v-99h-355v99h112z" />
    <glyph glyph-name="twosuperior" unicode="&#xb2;" horiz-adv-x="682" 
d="M606 946l-8 -267h-549c0 78 21 145 62 201c41 57 118 120 230 191c50 31 82 57 95 75c13 20 20 41 20 64c0 71 -42 106 -125 106c-47 0 -80 -12 -99 -34c-20 -24 -30 -62 -30 -115c0 -13 1 -27 2 -43h-134v36c0 169 88 253 265 253c81 0 145 -19 191 -56
c48 -37 71 -85 71 -143c0 -46 -15 -85 -45 -118c-29 -33 -86 -75 -171 -127c-113 -69 -175 -130 -187 -184h285v161h127z" />
    <glyph glyph-name="threesuperior" unicode="&#xb3;" horiz-adv-x="682" 
d="M248 1005v101c87 0 143 7 169 22c26 14 39 41 39 80c0 29 -9 55 -28 76c-19 22 -48 33 -87 33c-83 0 -124 -48 -125 -143h-138c0 159 86 239 259 239c83 0 146 -19 189 -57c44 -37 66 -84 66 -140c0 -66 -32 -119 -96 -158c89 -31 134 -88 134 -171
c0 -66 -28 -119 -82 -159c-56 -40 -128 -60 -217 -60c-193 0 -290 88 -290 265h132c4 -112 60 -168 169 -168c46 0 82 11 108 33c26 21 39 50 39 86c0 81 -67 122 -200 122c-9 0 -22 0 -41 -1z" />
    <glyph glyph-name="onehalf" unicode="&#xbd;" horiz-adv-x="1985" 
d="M252 778v524h-112v98h249v-622h106v-99h-355v99h112zM199 0l1103 1389h121l-1101 -1389h-123zM1581 266l-8 -266h-548c0 78 21 145 62 202c41 56 118 119 230 190c49 31 80 56 94 74c14 20 21 41 21 65c0 71 -42 106 -126 106c-49 0 -82 -13 -100 -37
c-19 -26 -28 -62 -28 -111c0 -11 1 -26 2 -44h-134c-1 15 -1 27 -1 38c0 87 25 151 75 191c49 39 113 59 191 59c81 0 145 -19 191 -56c48 -37 71 -85 71 -142c0 -46 -15 -85 -45 -118c-29 -33 -86 -75 -171 -127c-113 -69 -175 -130 -187 -185h285v161h126z" />
    <glyph glyph-name="onequarter" unicode="&#xbc;" horiz-adv-x="1985" 
d="M267 778v524h-112v98h249v-622h106v-99h-355v99h112zM250 0l1103 1389h121l-1101 -1389h-123zM1291 190h-275c-9 36 -28 65 -55 87l347 451h115v-438h131v-100h-131v-91h75v-99h-295v99h88v91zM1291 290v241l-186 -241h186z" />
    <glyph glyph-name="threequarters" unicode="&#xbe;" horiz-adv-x="1985" 
d="M332 1005v101c87 0 143 7 169 22c26 14 39 41 39 80c0 29 -9 55 -28 76c-19 22 -48 33 -87 33c-83 0 -124 -48 -125 -143h-138c0 159 86 239 259 239c83 0 146 -19 189 -57c44 -37 66 -84 66 -140c0 -66 -32 -119 -96 -158c89 -31 134 -88 134 -171
c0 -66 -28 -119 -82 -159c-56 -40 -128 -60 -217 -60c-193 0 -290 88 -290 265h132c4 -112 60 -168 169 -168c46 0 82 11 108 33c26 21 39 50 39 86c0 81 -67 122 -200 122c-9 0 -22 0 -41 -1zM332 0l1103 1389h121l-1104 -1389h-120zM1445 190h-275c-9 36 -28 65 -55 87
l347 451h115v-438h131v-100h-131v-91h75v-99h-295v99h88v91zM1445 290v241l-186 -241h186z" />
    <glyph glyph-name="overscore" unicode="&#xaf;" horiz-adv-x="1024" 
d="M-12 1647h1048v-102h-1048v102z" />
    <glyph glyph-name="currency" unicode="&#xa4;" horiz-adv-x="1366" 
d="M183 1089l104 107l132 -131c76 58 163 87 262 87c95 0 184 -29 266 -87l131 131l104 -107l-130 -130c57 -83 86 -173 86 -268s-29 -181 -86 -259l130 -129l-104 -105l-131 129c-83 -59 -173 -88 -269 -88c-95 0 -181 29 -259 88l-130 -129l-106 105l131 129
c-57 88 -86 178 -86 270c0 91 29 177 86 257zM683 1002c-84 0 -156 -30 -217 -90c-60 -59 -90 -132 -90 -217s30 -157 90 -217s132 -90 217 -90s157 30 217 90c61 61 91 133 91 217c0 85 -30 158 -91 217c-60 60 -132 90 -217 90z" />
  </font>
</defs>
</svg>
