<?xml version="1.0" standalone="no"?>
<!DOCTYPE svg PUBLIC "-//W3C//DTD SVG 1.1//EN" "http://www.w3.org/Graphics/SVG/1.1/DTD/svg11.dtd" >
<svg xmlns="http://www.w3.org/2000/svg" xmlns:xlink="http://www.w3.org/1999/xlink" version="1.1">
<metadata>
Created by FontForge 20201107 at Sat Dec 20 23:32:54 2025
 By Unknown
</metadata>
<defs>
<font id="Slots-Regular" horiz-adv-x="250" >
  <font-face 
    font-family="Slots"
    font-weight="400"
    font-stretch="normal"
    units-per-em="1000"
    panose-1="2 0 5 3 0 0 0 0 0 0"
    ascent="800"
    descent="-200"
    x-height="424"
    cap-height="655"
    bbox="33 -200 733 767"
    underline-thickness="50"
    underline-position="-100"
    unicode-range="U+000D-007A"
  />
<missing-glyph horiz-adv-x="364" 
d="M33 0v666h265v-666h-265zM66 33h199v600h-199v-600z" />
    <glyph glyph-name=".notdef" horiz-adv-x="364" 
d="M33 0v666h265v-666h-265zM66 33h199v600h-199v-600z" />
    <glyph glyph-name=".null" 
 />
    <glyph glyph-name="nonmarkingreturn" unicode="&#xd;" horiz-adv-x="333" 
 />
    <glyph glyph-name="CR" 
 />
    <glyph glyph-name="space" unicode=" " 
 />
    <glyph glyph-name="exclam" unicode="!" horiz-adv-x="286" 
d="M106 619c3 2 7 3 14 3s13 -2 18 -5c9 -7 15 -19 19 -35c4 -18 8 -51 11 -100c9 -136 14 -233 14 -290c0 -20 -6 -32 -18 -36c-7 -3 -13 -2 -19 1c-13 7 -23 22 -31 47c-5 15 -9 109 -12 283c-2 62 -4 94 -5 96c-2 3 -3 7 -3 12c0 12 4 20 12 24zM155 61
c-17 2 -28 3 -35 3c-6 0 -10 -1 -11 -2c-1 -2 -3 -6 -4 -13c0 -1 0 -2 -1 -3v-4c0 -17 11 -26 32 -26c9 0 18 4 24 11c8 7 11 16 11 25c0 4 -1 6 -2 7s-6 1 -14 2zM150 120c3 1 9 2 20 2h2c17 0 32 -6 44 -18c11 -12 17 -27 17 -44c0 -3 -1 -8 -2 -15
c-8 -35 -27 -60 -57 -74c-10 -5 -23 -7 -39 -7c-17 0 -29 2 -37 6c-28 13 -42 35 -42 65v6c2 23 8 39 18 48c7 5 13 8 20 8c4 0 9 -1 14 -4c4 -3 7 -2 10 3c2 3 6 8 14 13c6 5 13 9 18 11z" />
    <glyph glyph-name="quotedbl" unicode="&#x22;" horiz-adv-x="295" 
d="M68 605c4 2 9 3 14 3c9 0 16 -2 21 -7c13 -11 22 -38 29 -81c3 -17 4 -39 4 -65c0 -21 -1 -35 -3 -41c-4 -14 -12 -21 -23 -21c-7 0 -13 3 -19 9c-11 11 -19 36 -22 75c-2 25 -5 48 -10 67c-4 15 -6 26 -6 35c0 13 5 21 15 26zM197 583c2 1 5 2 9 2c14 0 23 -7 28 -21
c5 -19 8 -58 8 -115c0 -9 0 -14 -1 -15c-3 -17 -12 -26 -27 -26c-25 0 -38 30 -38 90c0 29 2 50 4 61c4 11 9 19 17 24z" />
    <glyph glyph-name="quotesingle" unicode="'" horiz-adv-x="165" 
d="M54 571c3 13 11 20 24 20s21 -8 24 -24c7 -31 10 -75 10 -130c0 -15 -1 -25 -2 -32c-3 -8 -4 -12 -5 -12c-3 0 -8 3 -15 9s-13 12 -18 18c-9 12 -15 22 -17 32c-2 8 -3 28 -3 58c0 35 1 56 2 61z" />
    <glyph glyph-name="comma" unicode="," horiz-adv-x="198" 
d="M103 178c4 4 9 6 15 6c7 0 12 -2 16 -6c7 -7 11 -20 12 -39v-12c0 -30 -7 -61 -21 -93c-14 -33 -30 -54 -48 -64c-1 -1 -3 -2 -7 -5c-3 -3 -6 -5 -9 -6s-4 -2 -5 -1s-2 10 -2 26c0 17 5 39 14 66c15 46 23 75 23 88c0 19 4 32 12 40z" />
    <glyph glyph-name="period" unicode="." horiz-adv-x="248" 
d="M135 140c2 6 0 7 -6 3c-4 -2 -8 -3 -13 -3c-6 0 -10 -3 -11 -8c-1 -4 -1 -11 -1 -22c0 -9 0 -14 1 -14c3 0 9 5 15 16c8 10 12 19 15 28zM135 181c5 5 12 8 20 8c15 0 27 -6 34 -18c3 -7 5 -14 5 -21c0 -24 -10 -48 -29 -73c-18 -24 -39 -36 -62 -36c-21 0 -36 11 -46 32
c-3 7 -5 13 -5 19v8c1 4 1 7 1 10c2 49 16 73 43 73c6 0 12 -1 18 -3c11 -3 18 -2 21 1z" />
    <glyph glyph-name="zero" unicode="0" horiz-adv-x="656" 
d="M455 636c-41 30 -83 45 -128 45c-65 0 -123 -30 -172 -91c-36 -44 -62 -99 -79 -164c-11 -41 -16 -83 -16 -127c0 -99 25 -186 74 -261c9 -13 21 -28 38 -44c17 -18 31 -30 43 -37c35 -23 73 -35 113 -35c30 0 58 6 84 19c47 23 87 61 120 115s53 116 61 187
c1 9 2 24 2 47c0 47 -3 85 -9 113c-21 105 -65 183 -131 233zM307 687c5 1 12 1 21 1c44 0 86 -14 126 -43s72 -68 97 -118c21 -40 36 -86 45 -137c4 -24 6 -55 6 -92c0 -29 -2 -55 -5 -77c-11 -69 -33 -128 -63 -177c-32 -49 -70 -85 -115 -107c-32 -15 -63 -23 -93 -23
c-44 0 -86 15 -126 45c-38 28 -70 67 -95 117s-41 104 -48 163c-2 21 -3 41 -3 61c0 102 24 190 74 264c48 74 108 115 179 123zM354 610c-10 6 -20 9 -31 9c-5 0 -10 -1 -15 -3c-27 -10 -49 -35 -68 -76c-19 -40 -32 -92 -39 -156c-2 -17 -3 -41 -3 -72c0 -42 1 -74 4 -95
c11 -83 32 -145 63 -186c19 -25 38 -37 59 -37c13 0 27 5 40 16c37 29 63 92 80 189c3 19 5 56 5 109s-2 89 -5 108c-19 107 -49 172 -90 194zM301 659c8 1 16 2 24 2c14 0 28 -1 41 -4c32 -7 62 -23 92 -48c28 -25 53 -58 72 -97c25 -53 40 -112 45 -178c1 -7 1 -18 1 -33
c0 -57 -9 -111 -26 -161c-18 -51 -43 -93 -75 -126c-44 -46 -92 -69 -144 -70c-54 0 -103 23 -147 68c-50 53 -82 122 -96 207c-3 17 -4 44 -4 81c0 41 2 70 5 86c9 48 23 89 40 124c18 37 41 69 69 95c32 30 66 48 103 54zM334 566c-11 5 -20 5 -28 -1
c-28 -19 -48 -71 -60 -158c-3 -21 -4 -55 -4 -103c0 -49 1 -84 4 -103c7 -49 17 -89 31 -119c14 -29 29 -44 45 -44h4c8 1 17 9 26 22c10 14 18 30 24 49c16 50 24 116 24 197c0 55 -2 93 -5 113c-15 85 -35 134 -61 147zM308 573c7 3 11 5 14 5s7 -2 14 -5
c15 -8 29 -26 40 -55c22 -56 33 -127 33 -214c0 -106 -15 -185 -45 -238c-13 -23 -27 -34 -43 -34c-17 0 -33 13 -47 40c-27 54 -41 130 -41 229c0 66 7 125 21 178c13 53 31 84 54 94z" />
    <glyph glyph-name="one" unicode="1" horiz-adv-x="780" 
d="M469 684c-17 3 -48 4 -91 4c-23 0 -40 -1 -50 -3l-21 -4l-1 -1v-3c-1 -1 -1 -3 -2 -4s-1 -3 -2 -5s-1 -4 -2 -5c-25 -73 -58 -123 -101 -150c-10 -7 -14 -11 -12 -14s15 -19 39 -47c23 -28 37 -45 40 -50l10 9c14 13 28 33 40 60c14 27 24 50 32 70c7 20 12 30 13 30
c5 0 7 -33 7 -98c0 -44 -2 -74 -5 -89c-10 -44 -34 -97 -73 -160c-16 -26 -27 -48 -32 -65c-6 -17 -9 -38 -9 -61c0 -3 0 -7 1 -12v-13c-28 -1 -59 -1 -93 -2c-61 -2 -93 -4 -94 -6c-2 -4 -3 -30 -3 -79v-76l330 2c219 1 329 2 330 3v9c0 27 0 51 -1 72l-2 82l-54 1
c-40 1 -76 2 -109 2h-55l-6 7c-21 25 -32 72 -32 140c0 31 3 69 8 115c7 57 11 114 11 173c0 40 -2 86 -7 139zM335 694c7 1 23 2 47 2c56 0 87 -3 92 -8c4 -4 8 -46 12 -125c1 -12 1 -29 1 -52c0 -57 -4 -111 -11 -162c-5 -33 -7 -72 -7 -116c0 -42 2 -72 6 -89
c7 -27 16 -46 25 -55c1 -1 38 -2 113 -3l111 -1l2 -88v-34c1 -14 1 -23 1 -28l-1 -27c-2 -2 -114 -3 -337 -3l-335 -1l1 85l1 86c28 1 59 2 93 3l92 2l1 27c1 22 5 41 10 59c6 16 17 38 33 64c39 61 62 112 71 152c4 16 6 54 6 114c0 20 0 33 -1 38l-2 17l-6 -17
c-14 -39 -31 -73 -51 -102c-5 -7 -11 -15 -20 -24c-9 -10 -14 -15 -15 -15s-15 17 -44 52s-44 54 -47 58c-1 1 0 3 3 5c3 3 7 6 12 9c43 28 77 77 102 147c5 13 9 20 11 22c4 3 14 5 31 8zM340 667c2 1 20 1 55 1l51 -1v-268l-7 -29c-10 -46 -15 -81 -15 -106
c0 -15 2 -36 5 -63c9 -67 23 -112 40 -135c3 -3 5 -6 5 -7c2 -1 4 -3 7 -4s7 -2 13 -3h20c23 0 45 0 64 1c9 0 20 0 35 1h29l27 -1c1 -1 2 -19 2 -52c0 -34 -1 -52 -3 -53l-279 -2l-277 -2v46c0 23 0 37 1 41s2 6 5 7c119 7 178 10 179 11s3 14 4 39c2 47 16 99 41 154
c28 59 45 109 52 149c3 14 4 30 4 47c0 23 -3 55 -10 97c-7 40 -11 64 -13 72c-1 2 -1 3 -2 3c-2 0 -9 -10 -22 -31c-37 -57 -61 -94 -74 -109l-8 -9l-8 9c-3 3 -7 10 -14 20l-6 11l12 15c34 40 59 83 74 129c5 14 10 21 13 22z" />
    <glyph glyph-name="two" unicode="2" horiz-adv-x="715" 
d="M532 129c0 -8 -1 -17 -4 -28l-85 2c-119 2 -179 4 -179 7c0 1 3 2 9 2h6c1 1 2 1 3 2c0 1 0 2 -1 3v3c0 9 10 17 31 25c91 39 159 79 202 120c11 10 22 23 34 39c11 15 18 26 19 31c4 11 6 18 7 20c13 29 19 61 19 94c0 16 -1 30 -4 43c-9 47 -30 88 -63 122
s-73 57 -120 69c-23 5 -43 8 -62 8c-50 0 -97 -15 -142 -44c-55 -36 -82 -80 -82 -132c0 -21 5 -42 16 -63c3 -5 10 -14 22 -26c12 -11 20 -18 25 -21c17 -9 50 -13 98 -13c34 0 58 1 71 2l17 2v87l-52 1c-34 1 -51 2 -51 3c1 1 11 2 32 3l32 1c-1 6 -2 10 -1 13s4 5 11 8
c6 3 13 4 22 4c11 0 23 -3 35 -9c24 -13 36 -37 36 -72v-13c-1 -26 -7 -48 -17 -68c-9 -18 -29 -45 -59 -80c-33 -39 -69 -67 -106 -86c-6 -3 -12 -7 -18 -10c-6 -4 -11 -7 -17 -10c-4 -2 -12 -4 -21 -7c-49 -16 -83 -34 -102 -54c-21 -23 -32 -50 -32 -82c0 -6 0 -11 1 -14
c3 -19 11 -37 24 -55c14 -16 30 -29 48 -36l18 -8h78c47 0 129 1 244 4c115 2 174 4 175 5s2 25 4 74s3 85 3 109v39h-19c-11 0 -31 -1 -62 -2l-43 -2v-10zM300 693c20 3 35 4 44 4c71 0 132 -25 182 -75c29 -29 51 -66 66 -111c4 -13 6 -34 6 -63c0 -25 -1 -42 -4 -53
c-2 -11 -8 -27 -17 -50c-31 -74 -115 -141 -254 -201c-24 -9 -36 -17 -36 -23c0 -1 1 -3 4 -6c2 -1 41 -3 118 -5l114 -2c1 0 2 7 3 20l1 20h67c44 0 67 -1 68 -2v-13c0 -27 -1 -69 -2 -129c-2 -58 -3 -88 -4 -89l-167 -4c-30 -1 -74 -1 -131 -3c-58 0 -94 -1 -108 -2h-30
c-13 -1 -22 -1 -27 -1c-6 0 -13 0 -21 1h-12c-29 4 -53 18 -74 42s-31 51 -31 80c0 27 9 52 28 77c19 24 52 43 100 58c67 24 121 59 161 104c35 40 57 70 67 91c12 24 18 50 18 77c0 14 -2 26 -6 36c-5 11 -13 20 -25 28s-24 12 -35 12c-5 0 -11 -1 -19 -4
c-7 -3 -11 -5 -11 -6c0 -6 8 -10 25 -11l15 -1c1 -11 1 -28 1 -49s0 -38 1 -49l-13 -2c-5 -1 -25 -2 -60 -3h-14c-5 -1 -9 -1 -12 -1c-39 0 -67 4 -86 11c-7 3 -16 8 -27 18c-11 8 -19 16 -23 22c-17 25 -26 51 -26 79v6c1 3 1 5 1 6c3 35 19 67 49 96c39 37 84 61 136 70z
M292 657c12 3 27 4 45 4h3c50 0 95 -13 134 -41c40 -26 68 -62 84 -106c7 -18 11 -39 11 -62c0 -22 -4 -47 -13 -74c-14 -40 -40 -74 -79 -102c-45 -33 -89 -60 -130 -82c-47 -25 -79 -45 -94 -60c-6 -6 -9 -15 -9 -26s2 -19 6 -22c4 -4 13 -7 27 -8c23 -1 83 -2 182 -2
c54 0 82 0 85 1l8 2v21c0 14 1 22 4 23h8c47 0 71 -1 71 -4c0 -31 -3 -77 -9 -140l-3 -36l-210 -2c-19 0 -44 0 -74 -1h-62c-52 0 -82 1 -90 2c-27 4 -47 14 -61 28c-15 16 -23 35 -24 58v10c0 9 2 18 5 25c7 19 21 36 43 50c27 18 50 30 68 35c11 5 25 13 43 24
c21 13 46 32 75 56s50 44 65 60c46 51 69 100 69 146c0 29 -8 51 -24 68c-23 25 -51 38 -85 38c-7 0 -20 -1 -39 -4c-27 -5 -48 -13 -63 -26c-8 -7 -12 -15 -12 -26c0 -3 0 -5 1 -6c3 -5 21 -8 52 -9l37 -2l3 -27l1 -26l-20 -2c-7 -1 -28 -1 -62 -1c-29 0 -48 2 -58 7
c-28 13 -47 38 -57 76c-2 8 -3 16 -3 24c0 39 15 70 45 93c25 20 61 35 106 46z" />
    <glyph glyph-name="three" unicode="3" horiz-adv-x="616" 
d="M394 683c-16 3 -28 4 -35 4s-19 -1 -35 -4c-19 -3 -37 -9 -52 -17c-15 -9 -36 -24 -63 -45c-52 -41 -84 -62 -95 -62h-2c-2 1 -3 6 -3 16v14h-54v-137h54v10c0 12 10 26 29 41s42 27 69 36c37 13 67 19 91 19c34 0 63 -13 87 -39c26 -26 39 -56 39 -91
c0 -27 -7 -50 -20 -72c-14 -20 -33 -37 -56 -48l-15 -7l12 -5c35 -12 61 -38 78 -78c5 -12 7 -27 7 -46s-3 -35 -8 -47c-15 -35 -41 -60 -78 -75c-9 -4 -24 -6 -44 -6c-21 0 -40 3 -55 8c-35 11 -65 27 -92 46c-24 17 -37 31 -38 42c-2 8 -4 12 -6 12h-5h-10
c-5 -1 -9 -1 -12 -1h-22v-20c0 -10 1 -33 2 -69l2 -48h18c14 0 26 1 36 3l-2 14c-1 9 0 14 2 14c9 0 31 -15 68 -45c39 -32 72 -54 99 -67c22 -11 50 -16 83 -16c23 0 43 3 59 8c39 13 71 36 96 69c25 32 38 70 38 115s-13 83 -38 115c-25 33 -57 56 -95 69
c-13 5 -20 8 -20 9l21 9c59 24 98 65 117 122c6 17 9 40 9 67c0 15 -1 25 -2 30c-9 39 -27 73 -56 100c-29 28 -63 46 -103 53zM328 689c13 1 24 2 31 2c53 0 99 -17 135 -50c38 -33 59 -75 66 -126c1 -11 2 -19 2 -24c0 -37 -11 -73 -32 -105c-22 -34 -51 -58 -87 -75
l-2 -1l-17 -9l20 -8c57 -24 95 -65 115 -124c5 -14 7 -34 7 -60c0 -24 -2 -43 -7 -58c-23 -65 -66 -109 -129 -131c-17 -5 -38 -8 -63 -8c-26 0 -47 3 -62 8c-31 11 -70 34 -115 70c-11 9 -26 20 -45 33l-22 15c-1 -3 -1 -7 -1 -14c0 -6 0 -11 -1 -14l-30 -2
c-19 -1 -30 -1 -31 0s-2 17 -4 50c-1 32 -2 58 -2 78c0 11 0 17 1 18c2 2 13 3 33 3h30l2 -13c1 -13 15 -28 41 -45c49 -33 96 -50 141 -50c31 0 56 9 77 26c31 25 47 58 47 98c0 35 -13 65 -38 90c-18 18 -38 29 -60 33c-7 1 -10 3 -10 4s5 4 15 8c41 17 67 44 80 82
c3 8 5 20 5 36c0 23 -3 40 -10 53c-23 49 -61 73 -115 73c-11 0 -23 -2 -38 -5c-90 -23 -137 -53 -141 -88l-1 -13c-7 0 -17 0 -31 -1s-25 -1 -32 -1v150h67v-29l15 8c16 9 42 28 79 57c42 34 81 54 117 59zM314 666c10 3 22 4 37 4c27 0 51 -5 71 -15c15 -7 30 -19 48 -35
c16 -15 30 -30 39 -45c15 -25 23 -52 23 -79c0 -28 -8 -58 -24 -89c-22 -45 -57 -77 -105 -96c-11 -5 -16 -8 -16 -9l3 -2c3 -1 6 -2 10 -4c4 -1 7 -3 10 -4c51 -21 86 -48 105 -83c17 -31 26 -62 26 -95c0 -51 -20 -96 -60 -134c-35 -33 -73 -49 -114 -49c-7 0 -19 1 -36 4
c-34 7 -73 27 -116 60c-33 25 -64 44 -93 59l-18 9v-17l1 -18l-15 -1h-16l-2 24c-1 17 -2 35 -2 54l-1 31l18 1c9 1 14 1 16 -1c2 0 2 -4 1 -9c0 -2 7 -9 20 -20s25 -20 35 -27c29 -19 52 -31 71 -36c24 -8 52 -12 84 -12c13 0 24 1 32 3c19 4 39 14 58 31
c23 22 36 54 39 97c0 2 0 5 1 8v7c0 35 -11 64 -33 85c-7 7 -18 14 -31 22c-14 8 -23 12 -28 12c-1 0 -4 1 -8 3c-1 1 2 3 9 6c2 1 5 2 8 3c35 13 60 42 77 89c3 9 5 25 5 46c0 16 -1 26 -1 31c-2 5 -4 12 -9 22c-15 32 -38 54 -69 65c-13 5 -30 7 -50 7
c-31 0 -65 -6 -102 -17c-36 -12 -66 -27 -89 -46c-15 -11 -23 -22 -24 -32c-1 -5 -1 -8 -2 -8c-1 -2 -3 -2 -7 -3c-3 -1 -11 0 -25 2c1 11 1 29 1 51c0 24 0 41 1 53h31v-11l1 -11l12 1c26 3 60 23 103 60c37 31 71 51 100 58z" />
    <glyph glyph-name="four" unicode="4" horiz-adv-x="643" 
d="M571 -2c-13 2 -30 3 -51 3h-35l-10 14c-19 27 -28 58 -28 95v11c2 20 11 46 26 78c15 34 24 68 26 103v16c0 12 0 18 -1 18s-3 -1 -7 -2s-6 -9 -7 -24c-2 -25 -10 -53 -25 -82c-21 -43 -34 -82 -39 -117c-1 -11 -2 -19 -2 -24c0 -22 4 -42 12 -60c7 -18 17 -31 30 -38
c9 -5 27 -8 53 -9l40 -1l-1 -27c-1 -18 -2 -27 -3 -28c-18 -1 -41 -1 -69 -1c-12 0 -36 0 -73 1h-89l-229 1v64l31 2c23 1 34 2 35 2c3 0 5 3 5 8c0 13 10 31 30 52c27 28 71 61 132 98c25 15 41 26 47 31c31 27 53 64 64 109c3 15 5 22 4 23s-3 0 -7 -1
c-3 -1 -7 -8 -13 -22c-12 -29 -34 -59 -65 -90c-41 -41 -93 -77 -156 -110c-13 -6 -24 -15 -34 -26c-12 -11 -20 -24 -24 -37l-6 -21l-33 -2c-23 -1 -34 -2 -35 -3l-2 -48l-1 -46l254 2l253 2c1 13 1 27 2 43zM416 406c-2 11 -6 23 -11 35s-12 25 -21 39
c-8 14 -14 25 -17 32l-11 23c-23 -44 -51 -77 -84 -100c-7 -4 -11 -7 -11 -9s12 -7 37 -14c37 -11 71 -17 101 -17h19zM446 491c-18 30 -30 52 -36 65c-5 14 -13 39 -22 74l-11 43l-14 -28c-37 -74 -89 -128 -156 -161c-36 -18 -62 -27 -79 -27c-4 0 -6 -1 -6 -3
c0 -3 6 -12 18 -27c11 -15 23 -28 35 -40c31 -31 68 -54 111 -68c15 -5 38 -7 69 -7s55 2 74 7c35 10 63 20 84 29c12 6 19 8 20 5c1 -1 2 -4 5 -11c2 -7 4 -13 7 -18c3 -6 5 -9 6 -9h1c19 5 28 10 28 15s-6 26 -18 64c-11 37 -17 57 -17 58c-3 10 -6 15 -9 15
c-1 0 -2 0 -3 -1s-3 -2 -5 -2c-3 -2 -5 -2 -8 -3c-9 -4 -14 -6 -14 -7c7 -18 10 -33 10 -44c0 -6 -21 -12 -64 -17c-9 -1 -24 -2 -44 -2c-34 0 -64 3 -90 10c-45 11 -68 19 -68 24c0 3 3 6 10 9c15 9 30 22 48 40c16 19 30 37 39 56c5 11 8 16 10 16s5 -6 9 -17
c3 -7 12 -25 27 -53c15 -27 25 -51 28 -70c1 -7 4 -11 9 -11c3 0 4 1 5 1c1 2 0 5 -1 10c-3 18 -11 37 -25 58c-13 20 -27 46 -40 77l-10 24c-3 -5 -7 -10 -10 -16c-26 -43 -59 -80 -99 -110l-18 -14l13 -10c2 -1 13 -8 34 -19c36 -17 72 -26 108 -26c23 0 47 4 73 11
c12 3 26 9 42 15c16 8 24 12 24 14v1c-1 1 -1 2 -2 3v4c-1 1 -1 3 -2 5s-1 4 -2 5c-2 6 -3 11 -3 14c0 5 5 8 16 9c2 1 3 1 4 1l17 -55c3 -8 5 -17 8 -27s5 -18 6 -22c2 -6 3 -8 3 -9s-1 -2 -4 -4s-6 -4 -9 -5s-5 -2 -6 -1s-4 8 -10 23c-5 14 -9 21 -10 22
c-2 1 -9 -1 -22 -6c-58 -24 -110 -36 -157 -36c-59 0 -109 19 -150 58c-9 9 -19 19 -28 30c-9 12 -14 19 -14 22c0 1 2 2 5 2c1 0 2 0 4 2c2 0 5 2 10 4c4 1 8 3 11 4c73 33 131 92 173 175c4 8 7 12 9 12c1 0 3 -5 6 -16c11 -51 30 -101 59 -150c5 -9 13 -24 24 -46
c7 -19 12 -28 14 -28l1 1h1c3 1 4 3 4 4c0 3 -5 16 -14 40c-10 22 -17 38 -22 45zM547 308c-1 0 -5 7 -10 20c-5 14 -8 21 -9 21c-3 0 -8 -2 -13 -5l-10 -5v-26c0 -37 -10 -77 -31 -122c-15 -33 -23 -61 -23 -85c0 -23 6 -47 19 -72c7 -15 13 -23 18 -24c4 -2 19 -3 44 -4
l44 -1l-1 -49l-1 -49c-78 -1 -164 -1 -259 -2l-259 -1l1 51c0 33 1 51 2 52s13 3 36 4l33 1l3 12c8 32 33 58 75 79c45 22 88 51 128 86c32 28 56 58 71 89c8 16 12 26 12 29c0 2 -1 3 -4 3s-6 0 -8 -1c-14 -2 -31 -3 -52 -3c-27 0 -47 2 -62 6c-48 12 -91 39 -130 81
c-10 11 -21 25 -32 40s-17 24 -17 27c0 1 3 2 8 2c3 0 12 2 27 6c93 25 163 86 212 182c10 20 15 30 15 31s1 3 3 5c3 3 6 1 7 -6c1 -3 1 -7 2 -13c11 -68 29 -120 54 -156c20 -29 35 -62 45 -97c3 -7 9 -9 20 -5c2 1 3 1 5 2c0 1 1 1 2 2v2c-8 20 -12 34 -12 42
c0 2 6 5 17 9c11 5 19 7 23 7c3 0 5 -2 7 -7s4 -11 5 -18s2 -12 3 -13c5 -16 14 -45 26 -87c1 -2 1 -4 2 -6c1 -3 1 -5 1 -6c1 -2 1 -4 2 -5v-3l1 -2c0 -1 -6 -5 -18 -10s-19 -8 -22 -8z" />
    <glyph glyph-name="five" unicode="5" horiz-adv-x="678" 
d="M551 581v106h-18c-12 0 -18 -2 -18 -5c0 -6 -9 -15 -27 -28c-21 -17 -44 -29 -69 -36c-23 -7 -47 -10 -72 -10c-53 0 -106 13 -161 39c-13 6 -21 9 -22 9v-2c0 -1 0 -2 1 -4l3 -6c11 -21 19 -46 25 -75c4 -20 6 -40 6 -59c0 -65 -23 -128 -69 -187c-5 -6 -7 -10 -7 -11h1
c1 0 3 0 4 1c2 1 4 1 6 2c54 23 109 38 164 46c14 2 30 3 47 3c29 0 51 -2 67 -7c29 -10 53 -29 73 -55c20 -28 30 -59 30 -95c0 -26 -5 -50 -16 -71c-27 -55 -68 -82 -125 -82c-28 0 -54 8 -80 25c-24 17 -42 36 -52 58c-6 13 -9 29 -9 50v30l-7 -1c-29 -7 -52 -14 -68 -22
c-17 -9 -34 -22 -52 -40c-27 -27 -41 -45 -41 -52c0 -2 2 -3 6 -3c3 0 11 -4 23 -12c11 -8 21 -16 28 -23s17 -19 29 -35c29 -39 64 -68 104 -87c34 -17 69 -25 104 -25c23 0 47 4 73 11c43 13 81 37 114 72s54 75 63 120c5 27 8 53 8 78c0 50 -8 90 -24 120
c-35 63 -86 98 -155 105c-3 1 -9 1 -17 1c-29 0 -64 -5 -103 -16s-68 -23 -85 -37l-3 -3l5 2c73 27 130 41 171 41c29 0 59 -7 88 -22c18 -9 34 -20 49 -35c17 -17 29 -31 35 -40c7 -10 13 -24 18 -41c6 -19 9 -41 9 -66c0 -48 -9 -91 -28 -130c-21 -43 -51 -77 -91 -102
s-83 -38 -129 -38c-40 0 -78 12 -115 35c-22 14 -41 33 -58 56c-24 34 -48 58 -71 71c-11 7 -16 11 -16 14s7 11 22 26c13 13 27 23 40 30c21 11 37 16 46 16l2 -1c1 -1 2 -8 5 -22c7 -35 24 -64 50 -89c31 -30 68 -45 112 -45c45 0 83 16 116 49c14 14 25 29 33 45
c13 28 20 55 20 82c0 33 -10 66 -31 97c-22 33 -53 56 -94 68c-12 4 -28 6 -49 6c-68 0 -134 -13 -199 -39c-16 -7 -23 -8 -22 -4c1 1 1 2 2 3c15 21 27 41 37 60c17 35 26 74 26 118c0 31 -5 64 -16 97c-3 10 -4 16 -3 17s6 0 15 -3c46 -17 90 -26 133 -26c33 0 63 5 90 14
c27 11 43 20 47 25c5 5 11 10 18 15c11 7 17 13 18 18c1 3 6 5 16 6l15 1c0 -9 0 -23 -1 -42s-1 -33 -1 -42h-15c-7 0 -12 0 -13 1s-2 3 -3 6l-2 7c-4 0 -10 -4 -18 -12c-9 -10 -33 -21 -72 -32c-19 -5 -41 -8 -68 -8c-38 0 -71 6 -99 17c-1 0 -2 0 -4 2c-1 0 -2 1 -3 1
s-2 -2 -2 -6c0 -9 1 -19 2 -29c1 -12 2 -21 2 -27c0 -43 -10 -86 -30 -128l-11 -24c0 -1 2 -1 5 0s9 10 18 27c9 16 15 30 18 42c6 20 9 41 9 64c0 15 -2 34 -5 57c-1 8 -1 12 0 12s7 -1 16 -4c25 -7 53 -11 84 -11c15 0 30 1 43 3c42 7 77 20 105 38c9 6 14 5 14 -3
c0 -3 6 -5 18 -5h18zM510 687v7h21c13 0 21 -1 24 -2c1 -1 2 -8 2 -20c0 -3 0 -8 -1 -17v-23l-1 -58h-8c-1 -1 -5 -1 -10 -1c-20 0 -30 3 -30 8s-4 4 -13 -3c0 -3 -11 -8 -34 -16c-22 -7 -40 -13 -55 -16c-13 -3 -30 -4 -51 -4c-27 0 -53 3 -76 8l-19 4l2 -15
c1 -9 2 -22 2 -39c0 -42 -7 -76 -20 -103l-9 -17l20 10c25 13 57 24 97 33c22 5 44 8 67 8c50 0 94 -18 133 -53c48 -42 72 -100 72 -175c0 -8 -1 -21 -2 -38c-4 -41 -13 -75 -26 -103c-23 -46 -55 -83 -98 -110s-88 -41 -137 -41c-23 0 -44 3 -65 9c-57 15 -105 47 -142 98
c-33 43 -61 68 -84 75c-9 4 -13 6 -13 7c0 3 6 12 17 26c11 15 22 26 31 35c29 28 63 47 102 57c15 3 24 5 28 5c5 0 7 -1 7 -3l-1 -1v-1c-1 -2 -2 -10 -3 -25v-10c0 -9 2 -20 6 -31c8 -24 22 -44 43 -61c28 -22 57 -33 87 -33c9 0 18 1 27 3c42 9 73 35 94 78
c11 23 16 46 16 68c0 23 -5 44 -15 64c-27 59 -74 88 -142 88c-6 0 -16 -1 -31 -2c-64 -7 -126 -23 -187 -48c-18 -8 -27 -10 -27 -7c0 1 5 8 14 20c29 36 50 76 63 121c4 13 6 35 6 66c0 29 -2 52 -5 69c-4 17 -13 40 -27 71l-7 19c1 1 10 -3 28 -12c36 -17 72 -29 107 -37
c18 -3 39 -5 63 -5c23 0 39 1 49 4c37 9 69 26 96 50c10 8 15 14 15 19z" />
    <glyph glyph-name="six" unicode="6" horiz-adv-x="604" 
d="M392 253v5c0 19 -4 35 -10 47c-8 12 -18 18 -32 18c-11 0 -23 -4 -35 -11c-8 -5 -18 -13 -31 -26c-12 -12 -22 -24 -30 -35c-30 -42 -50 -88 -60 -139c-3 -11 -4 -25 -4 -41c0 -45 13 -68 39 -68h2c19 1 40 12 63 34c27 26 50 59 68 101c19 40 29 79 30 115zM510 594
c0 17 -10 30 -31 39s-46 13 -75 13c-52 -1 -96 -13 -132 -37c-21 -13 -39 -32 -55 -56s-28 -50 -35 -78c-4 -15 -6 -35 -6 -59c0 -27 2 -48 6 -63s7 -23 9 -23c1 0 6 4 15 13l14 14l-7 15c-10 20 -15 42 -15 67c0 23 5 46 16 69c5 9 14 22 27 37s26 28 38 37
c43 33 90 50 142 50c54 0 81 -13 81 -40c0 -10 -6 -19 -17 -26c-11 -8 -24 -12 -38 -12c-5 0 -8 0 -11 1l-11 2c1 -4 3 -8 5 -12c3 -8 5 -16 5 -25c0 -8 -1 -15 -3 -21c-1 -5 -1 -8 0 -8s2 0 3 1s11 4 30 9c16 5 27 9 33 11c6 4 13 9 20 17c15 17 23 36 23 59
c0 27 -10 50 -31 67c-20 17 -49 29 -86 34c-12 2 -24 3 -37 3c-30 0 -60 -5 -90 -15c-32 -12 -63 -34 -94 -66c-23 -23 -40 -44 -51 -62c-12 -18 -25 -43 -38 -75c-37 -91 -55 -179 -55 -265c0 -11 1 -27 2 -48c5 -53 11 -92 20 -117c9 -27 25 -52 47 -74
c23 -23 47 -38 74 -47c12 -4 29 -6 51 -6c28 0 54 6 79 19c37 19 70 54 98 108c30 52 46 107 51 162c1 7 1 14 1 21c0 4 0 9 -2 14c0 5 -1 12 -2 20c-4 55 -31 95 -82 118c-17 8 -33 13 -49 15c-6 1 -13 1 -21 1c-6 0 -14 -1 -24 -3c-36 -8 -68 -27 -96 -57l-11 -13l4 -4
c2 -1 4 -2 5 -4c2 0 3 -1 4 -1s9 7 22 20c31 29 64 44 100 44c28 0 54 -9 77 -28c21 -17 36 -38 45 -62c5 -14 8 -29 8 -45c0 -47 -18 -106 -55 -177c-16 -31 -32 -54 -48 -69c-16 -16 -37 -29 -62 -38c-6 -2 -20 -4 -41 -5h-19c-10 0 -21 2 -33 5c-41 13 -71 37 -92 73
c-10 17 -18 44 -24 81c-7 38 -10 76 -10 113c0 16 0 28 1 35c4 53 15 105 32 157c25 72 54 127 89 166c34 39 79 68 136 87c20 7 42 11 66 11s47 -4 69 -11c26 -8 44 -22 55 -42c6 -11 9 -22 9 -33c0 -18 -5 -33 -14 -47c-9 -12 -22 -21 -37 -26c-7 -1 -14 -4 -21 -9
c-9 -5 -14 -6 -14 -3c0 1 1 3 2 6l1 2v2c0 3 -1 8 -4 14c-2 7 -3 11 -3 13c0 1 7 2 20 2c15 0 24 2 29 7c12 11 18 23 18 38zM345 695c14 2 28 3 42 3c45 0 83 -9 112 -27c33 -21 49 -49 49 -83c0 -18 -5 -35 -16 -52c-12 -19 -35 -33 -68 -42c-14 -3 -25 -6 -32 -10
c-6 -3 -9 -4 -10 -1c0 3 1 8 4 16c3 13 4 21 4 22c0 7 -3 16 -9 27c-7 13 -8 20 -4 19c1 0 3 -1 6 -2c3 -2 12 -3 26 -3c23 0 38 7 44 20c2 4 3 8 3 12c0 21 -26 31 -79 31c-23 0 -42 -2 -57 -7c-42 -12 -80 -37 -114 -75c-21 -23 -34 -49 -39 -78c-3 -16 -4 -25 -4 -27
c0 -3 1 -9 2 -18c5 -30 11 -49 18 -56c1 -1 8 2 20 9c27 18 56 27 87 27c45 0 83 -16 116 -49c13 -13 23 -27 28 -42c6 -15 10 -36 13 -65c1 -15 2 -25 2 -32c0 -3 0 -6 -1 -10v-7c-3 -29 -11 -61 -25 -96c-15 -40 -35 -76 -60 -109c-25 -32 -51 -54 -76 -65
c-27 -11 -51 -17 -72 -17s-43 4 -65 13c-20 7 -40 20 -60 38c-19 18 -34 37 -44 57c-21 41 -32 105 -32 192v25c3 87 22 172 59 255c21 47 49 89 85 126c45 46 94 73 147 81zM355 281c-3 6 -8 9 -15 9c-9 0 -20 -6 -33 -19c-21 -21 -41 -51 -59 -92s-27 -75 -27 -104
c0 -7 2 -15 5 -22s7 -11 12 -12h4c13 0 30 12 50 37c20 24 36 52 49 85c13 31 19 61 19 90c0 14 -2 23 -5 28zM326 290c5 3 10 4 15 4c11 0 18 -8 22 -24c1 -7 2 -12 2 -17c0 -27 -8 -61 -25 -100s-36 -70 -57 -92c-15 -15 -29 -23 -41 -23c-8 0 -14 3 -17 8
c-5 7 -7 19 -7 36c0 8 1 19 4 34c8 35 22 71 44 106c20 35 41 58 60 68z" />
    <glyph glyph-name="seven" unicode="7" horiz-adv-x="789" 
d="M282 684c11 2 25 3 44 3c21 0 40 -1 59 -4c31 -5 61 -16 90 -32c37 -19 66 -29 87 -29c24 0 43 12 58 35l7 12c11 -1 29 -1 53 -1s42 0 53 -1v-35c0 -56 -9 -106 -28 -151c-10 -23 -29 -50 -56 -80c-47 -52 -82 -100 -105 -145c-5 -9 -10 -23 -16 -42
c-5 -19 -8 -32 -8 -39c-1 -1 -1 -2 -2 -3c-1 1 -1 3 -1 6c0 9 3 22 7 42c6 18 11 33 17 44c25 46 63 96 114 151c16 18 28 35 37 52c18 35 30 85 35 149c1 23 2 36 2 39c0 2 -1 3 -2 5c-1 0 -4 1 -7 2h-10h-14h-17l-49 2l-4 -8c-3 -7 -8 -14 -16 -20c-9 -8 -17 -12 -25 -15
c-11 -3 -19 -4 -24 -4c-19 0 -50 10 -91 30c-43 21 -83 32 -121 34c-3 0 -6 0 -10 1h-9c-30 0 -55 -4 -76 -11c-16 -5 -29 -11 -38 -18c-10 -7 -24 -18 -41 -35c-19 -21 -30 -31 -33 -31c-1 0 -2 12 -2 35v32c-9 0 -22 0 -39 1s-30 1 -39 1v-82c0 -53 -1 -87 -2 -100l-2 -17
c9 1 23 1 40 1s31 0 40 1l8 15c18 30 41 45 69 45c15 0 33 -4 53 -13c18 -8 34 -13 48 -16c14 -2 36 -3 67 -3c48 0 86 4 113 13c29 9 58 25 87 48c3 3 6 4 7 6c1 0 3 0 4 -1c0 -5 -5 -17 -14 -37c-9 -21 -18 -37 -26 -50c-15 -23 -30 -43 -46 -58c-15 -15 -37 -32 -65 -51
c-31 -21 -55 -37 -74 -46c-42 -23 -71 -40 -86 -53c-40 -33 -72 -80 -97 -140c-25 -59 -37 -121 -37 -184v-17l85 2c213 4 320 7 322 9c1 0 0 2 -2 5c-1 3 -3 7 -6 12c-22 40 -34 83 -37 128v14c0 50 2 77 6 81l1 1c1 0 2 -3 2 -10c0 -1 -1 -11 -2 -28c-1 -16 -2 -28 -2 -35
c0 -59 13 -109 38 -152c9 -14 13 -21 12 -22s-39 -2 -114 -3c-17 -1 -52 -2 -104 -3c-51 -1 -87 -2 -106 -3c-25 -1 -53 -1 -86 -1h-12c-1 1 -1 4 -1 11c0 43 5 87 16 131c13 57 36 107 69 150c32 43 70 76 115 98c31 16 48 25 53 28c4 3 18 12 41 29c28 20 44 32 48 35
c36 30 65 68 86 113c9 19 13 29 13 30s-1 2 -2 2s-6 -3 -13 -8c-27 -19 -54 -32 -82 -39c-29 -8 -64 -12 -104 -12c-43 0 -76 5 -100 14c-34 13 -56 20 -66 20c-29 0 -52 -16 -69 -48l-6 -14h-88v83c0 54 1 89 2 105l1 21h90v-63l25 25c35 35 72 56 110 61zM101 623
c12 0 19 -1 23 -1c2 -2 4 -5 4 -10c0 -2 -1 -10 -2 -25c-1 -19 -1 -30 0 -31s8 6 23 20c27 25 51 42 71 54c20 10 43 19 69 24c16 3 32 4 47 4s31 -1 47 -4c22 -4 56 -17 102 -38c26 -12 52 -18 78 -18c15 0 28 2 38 6c18 8 30 19 37 34l4 10l34 -1h34l-1 -17
c-3 -55 -16 -107 -40 -156c-13 -27 -36 -57 -70 -92c-41 -42 -67 -76 -81 -102c-12 -26 -21 -62 -26 -107c-2 -15 -3 -32 -3 -51c0 -42 4 -86 13 -133c3 -17 5 -26 4 -27c-12 -1 -27 -1 -46 -1c-8 0 -24 0 -48 1h-58l-149 2v9c0 31 3 61 10 89c25 99 86 178 185 236
c70 41 115 71 134 92c35 40 62 96 79 169c3 15 5 22 5 23l-2 -1c-2 -1 -5 -2 -9 -5s-7 -5 -10 -6c-45 -28 -90 -45 -136 -51c-13 -1 -30 -2 -49 -2h-26c-56 2 -97 9 -123 22c-13 7 -28 10 -43 10s-28 -2 -38 -7c-19 -9 -35 -23 -46 -41l-7 -12l-26 -2c-16 -1 -25 -1 -27 1
c-1 6 -1 13 -1 21c0 3 0 11 1 21v27l2 66h23z" />
    <glyph glyph-name="eight" unicode="8" horiz-adv-x="508" 
d="M344 217c-25 25 -52 37 -83 37c-9 0 -21 -2 -34 -5c-27 -7 -49 -22 -67 -45c-17 -22 -26 -50 -26 -83c0 -35 11 -66 33 -91s49 -39 81 -41h10c32 0 59 10 82 31c29 27 44 61 44 101c0 37 -13 69 -40 96zM383 452c2 10 3 20 3 30c0 35 -12 66 -36 94c-23 26 -52 40 -86 40
c-19 0 -38 -4 -56 -13c-47 -23 -71 -63 -71 -119c0 -34 9 -63 28 -86s44 -38 76 -45c9 -2 16 -3 22 -3c3 0 8 1 16 2c25 5 47 16 66 34c19 17 31 39 38 66zM284 635c-13 1 -22 2 -26 2c-8 0 -17 -1 -28 -3c-25 -5 -47 -17 -66 -36c-20 -18 -34 -39 -42 -64
c-5 -15 -8 -32 -8 -50c0 -27 6 -51 20 -74c12 -23 28 -40 47 -53c12 -9 34 -18 65 -29c47 -17 80 -30 98 -40c18 -8 33 -20 46 -34c35 -37 53 -83 53 -137v-12c-3 -55 -26 -100 -68 -137c-35 -29 -74 -44 -119 -44c-28 0 -53 6 -76 17c-34 17 -61 41 -80 73s-29 66 -29 103
c0 41 11 77 32 110c13 21 31 39 52 53c7 7 10 11 8 12c-5 2 -11 0 -18 -5c-27 -19 -48 -43 -63 -75c-15 -30 -23 -63 -23 -96c0 -9 1 -22 4 -38c9 -49 32 -88 69 -119c36 -31 77 -46 124 -46c9 0 16 0 21 1c41 5 78 22 109 51c32 29 52 65 61 106c3 19 5 35 5 48
c0 57 -21 106 -62 147c-14 14 -33 27 -58 39c-24 11 -52 23 -85 36c-25 9 -43 17 -51 22c-10 5 -19 14 -30 26c-24 26 -36 58 -36 95c0 40 14 74 41 101c25 25 55 37 91 37c34 0 64 -13 90 -40c27 -27 40 -60 40 -100c0 -37 -11 -68 -32 -92c-22 -24 -49 -39 -80 -44l-20 -3
l13 -5c9 -3 17 -4 24 -2c29 8 55 26 77 54c21 28 32 60 32 95c0 24 -6 47 -17 70c-10 21 -25 38 -44 53s-40 24 -61 27zM297 680c-18 3 -33 5 -46 5c-53 0 -98 -19 -135 -57c-40 -40 -60 -90 -60 -150c0 -39 9 -74 28 -105c7 -13 18 -26 32 -40s27 -24 38 -29
c19 -10 49 -21 90 -34c31 -9 51 -15 61 -20c10 -4 20 -10 30 -17c37 -28 55 -65 55 -111c0 -30 -9 -59 -28 -86c-26 -37 -61 -55 -104 -55c-8 0 -16 1 -24 3c-31 7 -57 24 -77 49s-30 54 -30 87c0 12 1 21 2 27c5 31 21 58 46 81c20 17 41 27 64 30l15 2l-13 5
c-6 2 -11 3 -15 3c-3 0 -12 -3 -26 -8c-21 -9 -40 -24 -54 -43c-16 -19 -26 -41 -31 -65c-3 -15 -4 -26 -4 -33c0 -41 14 -76 41 -106c28 -30 62 -45 102 -46h4c41 0 75 15 102 44c28 28 42 64 42 109c0 29 -7 56 -22 81c-5 8 -12 17 -23 29c-11 10 -19 18 -26 21
c-7 4 -34 13 -79 27c-40 13 -67 22 -82 30c-15 6 -29 16 -42 29c-41 39 -61 87 -61 145c0 31 7 60 20 87c16 33 39 58 69 77c31 19 63 28 98 28c20 0 40 -3 59 -10c25 -9 46 -22 64 -39c42 -39 63 -87 63 -144c0 -41 -11 -78 -34 -111c-17 -24 -35 -42 -54 -54
c-3 -2 -6 -4 -7 -4c-1 -2 -2 -2 -3 -3c0 -1 0 -1 1 -2s2 -1 3 -2c3 -2 10 1 19 8c55 41 83 97 83 167c0 41 -11 79 -33 115c-30 45 -69 74 -118 85zM220 689c5 1 13 1 25 1c27 0 47 -2 61 -6c57 -17 99 -53 126 -107c15 -31 23 -63 23 -96c0 -44 -13 -85 -38 -122
c-18 -27 -35 -44 -51 -53l-6 -4c-2 -2 -2 -2 0 -4c0 0 2 -2 5 -3c5 -3 15 -11 28 -25c13 -13 23 -25 30 -34c23 -37 35 -76 35 -119c0 -29 -5 -57 -16 -83c-15 -38 -40 -69 -75 -92c-35 -24 -72 -36 -112 -36h-11c-36 3 -69 14 -100 35c-30 21 -53 48 -69 82
c-15 29 -22 61 -22 94c0 47 15 91 45 132c17 22 31 36 44 43c5 3 8 4 8 5l-9 7c-6 3 -15 11 -27 22c-11 12 -20 22 -26 31c-13 20 -23 38 -28 55c-6 17 -9 39 -9 68c0 28 2 48 6 61c13 39 34 71 63 99c29 26 63 43 100 49z" />
    <glyph glyph-name="nine" unicode="9" horiz-adv-x="642" 
d="M442 590c-7 3 -14 5 -22 5c-7 0 -14 -1 -20 -3c-27 -10 -55 -32 -83 -68c-28 -34 -49 -73 -63 -114c-9 -26 -13 -49 -13 -68c0 -39 14 -59 42 -59c24 0 51 15 81 46c29 29 54 67 75 114c14 31 21 62 21 93c0 18 -2 31 -6 39c-5 9 -9 14 -12 15zM199 -21
c-65 0 -98 15 -98 44c0 10 5 19 16 26s23 11 36 11c7 0 13 -1 16 -2l11 -2v2c-1 1 -1 3 -2 6s-1 5 -2 7c-1 3 -2 8 -2 15c0 6 2 16 6 30c1 3 1 5 -1 5l-9 -2c-7 -2 -17 -4 -30 -7c-31 -5 -55 -21 -70 -49c-4 -8 -6 -20 -6 -37s2 -30 7 -40c16 -30 47 -51 92 -63
c15 -4 38 -6 69 -6c28 0 48 1 62 4c12 3 28 9 45 18c57 31 102 70 133 116c37 54 65 115 84 182c11 37 18 67 21 91c3 25 5 59 5 102c0 46 -2 79 -6 99c-9 43 -30 79 -62 110s-70 46 -114 46h-5c-18 0 -35 -2 -50 -7c-25 -8 -52 -26 -79 -53c-41 -41 -71 -88 -91 -142
c-16 -41 -24 -81 -24 -119s9 -69 27 -93c25 -33 62 -54 109 -61c3 -1 9 -1 16 -1c45 0 84 16 118 49c8 7 12 11 12 14c0 2 -2 4 -6 6c-5 3 -11 1 -20 -8c-29 -28 -62 -42 -100 -42c-29 0 -56 8 -79 25c-37 26 -55 61 -55 106c0 52 26 117 77 196c29 44 61 72 97 85
c14 5 34 8 60 8c7 0 16 -1 25 -2c21 -4 43 -14 64 -31c22 -17 38 -35 47 -55c15 -32 23 -83 23 -152c0 -17 0 -30 -1 -38c-5 -81 -28 -161 -68 -240c-27 -55 -57 -96 -89 -126c-33 -28 -74 -51 -125 -66c-21 -7 -44 -10 -67 -10s-42 2 -57 6c-38 11 -62 24 -71 37
c-12 15 -18 32 -18 50c0 17 5 32 14 45c10 13 21 22 33 25c5 1 13 3 23 7c12 5 18 7 20 8c3 1 4 1 4 0c1 0 0 -1 -1 -4c-1 -1 -2 -5 -2 -12c0 -9 1 -16 2 -21c1 -2 1 -3 -1 -4c0 -1 -3 -1 -6 0c-5 1 -12 2 -21 2s-17 -3 -23 -9c-13 -12 -19 -24 -19 -37c0 -19 12 -33 36 -44
c23 -10 54 -15 92 -15c19 0 36 1 49 4c41 8 77 28 108 60c31 31 53 69 64 112c4 16 6 37 6 64c0 33 -3 53 -8 60c-3 3 -9 -1 -18 -10l-15 -15l5 -11c7 -15 10 -35 10 -59c0 -23 -3 -41 -8 -54c-7 -20 -19 -38 -35 -54c-37 -37 -77 -61 -118 -73c-15 -5 -36 -7 -62 -7z
M366 689c4 1 12 1 24 1c23 0 41 -2 54 -5c38 -11 69 -32 94 -63c19 -25 32 -50 40 -76c6 -26 10 -64 10 -114c0 -71 -9 -139 -28 -202c-9 -29 -23 -63 -42 -104c-21 -43 -43 -79 -66 -106c-24 -28 -54 -53 -89 -75c-23 -15 -43 -24 -60 -29c-17 -4 -40 -6 -71 -6
c-88 0 -144 25 -168 75c-5 10 -8 23 -8 40c0 55 31 87 93 96c1 0 4 1 9 3c6 1 12 3 17 4s9 2 12 2c1 0 2 0 3 -1s0 -6 -4 -15c-3 -9 -5 -18 -5 -27c0 -11 2 -20 7 -29s6 -14 3 -14c-1 -1 -4 0 -8 2c-7 5 -17 7 -29 7s-22 -3 -32 -8c-8 -5 -13 -13 -13 -22
c0 -21 25 -34 76 -39h7c3 -1 5 -1 7 -1c49 0 98 18 147 53c48 36 72 79 72 130c0 21 -4 41 -11 60l-5 10l-11 -8c-25 -16 -54 -24 -88 -24c-9 0 -16 0 -20 1c-47 7 -84 29 -113 66c-9 13 -16 26 -19 38s-5 30 -5 54c0 40 7 78 20 113c12 33 27 64 45 92c18 30 41 56 69 79
c27 23 56 37 86 42zM427 524c0 23 -6 34 -17 34c-6 0 -15 -4 -28 -11c-17 -11 -36 -31 -55 -60s-34 -58 -44 -87c-5 -15 -8 -32 -8 -49c0 -16 2 -26 5 -30c3 -3 7 -5 14 -5c8 0 16 3 23 8c23 17 47 46 72 88c25 41 37 79 38 112zM390 557c8 3 14 5 18 5c17 0 25 -12 25 -35
c0 -3 -1 -9 -2 -17c-5 -35 -21 -74 -47 -114c-25 -42 -50 -68 -73 -79c-8 -4 -14 -6 -18 -6c-5 0 -10 2 -15 7s-8 11 -8 20v11c0 17 3 35 9 52c11 33 28 65 50 96s42 51 61 60z" />
    <glyph glyph-name="colon" unicode=":" horiz-adv-x="251" 
d="M126 467c0 1 -1 2 -4 3c-3 0 -6 0 -10 -2c-3 0 -6 -2 -8 -4c-3 -3 -6 -9 -6 -16c-2 -7 -1 -12 2 -13h2c4 0 9 4 15 11c6 8 9 15 9 21zM130 521c5 2 10 3 14 3c14 0 24 -6 30 -18c3 -5 4 -11 4 -20c0 -18 -5 -37 -15 -57c-3 -6 -9 -13 -15 -21c-8 -7 -14 -12 -19 -15
c-9 -5 -18 -7 -27 -7c-16 0 -29 6 -39 18l-10 10l2 28c1 20 3 32 5 36c6 12 17 18 34 18c6 0 12 4 19 11c5 6 11 11 17 14zM141 159c0 1 0 2 -1 2c-2 0 -6 -3 -10 -11c-6 -6 -8 -12 -8 -15c0 -2 1 -3 3 -3c1 0 3 4 9 12c4 9 7 14 7 15zM118 212c4 1 11 2 20 2
c14 0 24 -2 31 -5c19 -9 28 -24 28 -45c0 -17 -7 -35 -19 -53c-14 -18 -26 -29 -38 -32c-7 -2 -13 -3 -20 -3c-14 0 -26 5 -34 14c-10 9 -14 21 -14 36c0 7 2 19 6 36s7 27 10 32c5 8 15 14 30 18z" />
    <glyph glyph-name="semicolon" unicode=";" horiz-adv-x="242" 
d="M120 450l10 10h-10c-6 0 -11 -3 -15 -10c-3 -4 -5 -8 -5 -11c0 -1 1 -2 2 -2c3 0 9 4 18 13zM100 509c7 7 14 10 20 9c10 -1 19 -1 28 0h3c1 1 2 1 3 1c10 0 18 -4 24 -11c7 -7 10 -16 10 -27c0 -7 -2 -16 -6 -25c-5 -9 -12 -20 -22 -32c-9 -11 -17 -19 -24 -22
c-11 -7 -23 -10 -35 -10c-13 0 -25 4 -33 12c-10 8 -14 18 -14 31c0 17 15 41 46 74zM127 177c4 1 7 2 8 2c11 0 21 -7 29 -21c8 -15 12 -32 12 -53c0 -27 -12 -53 -36 -77c-26 -26 -43 -39 -50 -39h-1c-1 1 -1 6 2 15c9 31 17 55 24 70c5 11 7 22 7 35c0 9 -1 18 -3 28
c-2 9 -3 16 -3 21c0 9 4 16 11 19z" />
    <glyph glyph-name="question" unicode="?" horiz-adv-x="402" 
d="M125 602c39 18 80 27 124 27c17 0 34 -2 50 -6c15 -4 26 -12 35 -25s13 -27 13 -43c0 -7 0 -12 -1 -15c-6 -32 -34 -76 -85 -131c-48 -53 -74 -83 -78 -91l-7 -13l11 -7c6 -4 11 -9 15 -16c5 -7 7 -11 8 -12l1 -1c0 -2 -5 -5 -14 -9s-16 -6 -21 -6c-17 0 -31 5 -44 14
c-12 10 -18 22 -18 37c0 9 2 17 7 26c13 25 34 53 65 84c41 42 69 73 85 93c16 21 24 36 24 47c0 4 -2 8 -5 13c-3 4 -17 6 -42 6c-67 0 -116 -16 -147 -47c-12 -12 -21 -18 -27 -18c-13 0 -19 6 -19 18c0 10 7 23 23 39c14 16 30 28 47 36zM189 106c-3 5 -9 8 -18 7
c-10 -2 -18 -9 -23 -20c-3 -8 -5 -14 -5 -18c0 -10 6 -15 17 -15c7 0 14 4 21 12c7 9 10 17 10 25c0 4 -1 7 -2 9zM206 140c11 0 20 -4 26 -12c8 -9 11 -20 11 -33v-5c-2 -37 -21 -63 -56 -80c-10 -4 -20 -6 -30 -6c-22 0 -40 7 -53 20s-19 29 -19 49c0 19 6 36 17 53
c9 12 19 21 30 26c7 3 14 4 21 4c21 0 34 -4 39 -11c3 -3 7 -5 14 -5z" />
    <glyph glyph-name="A" unicode="A" horiz-adv-x="556" 
d="M313 444c-7 45 -11 68 -12 69c-32 -119 -52 -193 -60 -220c-6 -20 -9 -30 -8 -31h2c29 0 61 2 97 6c3 0 6 0 8 1c3 1 4 1 5 2s1 2 0 3c-5 17 -15 73 -32 170zM280 688c5 2 10 3 14 3c10 0 19 -4 28 -13c7 -7 14 -21 20 -42s16 -67 31 -140c21 -106 51 -235 88 -387
c25 -103 38 -161 39 -175v-13c0 -9 -1 -15 -3 -19c-6 -11 -14 -16 -25 -16c-6 0 -13 3 -20 8c-12 11 -24 37 -36 79c-15 50 -32 118 -50 203c-4 17 -6 27 -7 29c0 1 -2 1 -5 1l-30 -2c-15 -1 -29 -2 -42 -2h-16c-7 1 -11 1 -14 1l-40 1l-3 -11c-1 -4 -8 -22 -20 -54
c-36 -94 -68 -151 -97 -170c-3 -2 -6 -3 -11 -3c-6 0 -11 2 -17 7c-4 5 -7 10 -7 16c0 3 5 14 14 31c23 43 48 111 76 203c51 164 83 292 98 385c5 29 9 48 14 58s12 17 21 22z" />
    <glyph glyph-name="B" unicode="B" horiz-adv-x="484" 
d="M310 329c-14 4 -32 6 -54 6c-29 0 -58 -3 -87 -9c-7 -2 -16 -3 -26 -3h-12l1 -83v-26c0 -71 -3 -130 -9 -177c-1 -12 -2 -18 -2 -19c0 -7 4 -11 11 -14c5 -2 13 -1 24 4c24 11 54 32 92 62c36 32 63 58 80 81c24 33 36 65 36 95c0 4 -1 10 -2 18c-5 33 -23 55 -52 65z
M251 678c-6 3 -19 5 -40 5c-28 0 -49 -2 -62 -5c-27 -7 -41 -11 -41 -13c0 -15 2 -46 5 -91s7 -87 11 -124l5 -57l40 29c45 33 75 61 91 84c16 22 24 47 24 75c0 21 -3 41 -10 61c-7 19 -14 31 -23 36zM89 706c47 21 89 32 128 32c17 0 35 -3 53 -8c22 -7 40 -24 54 -50
c15 -26 23 -57 24 -94v-10c1 -5 1 -8 1 -9c0 -8 -2 -19 -5 -32c-9 -35 -30 -70 -63 -105l-25 -26l21 -2c85 -7 135 -46 150 -117c2 -10 3 -23 3 -39c0 -20 -2 -38 -5 -53c-7 -27 -21 -55 -43 -84c-20 -27 -50 -57 -90 -91c-41 -35 -75 -59 -102 -73c-19 -9 -34 -14 -46 -14
c-15 0 -28 6 -41 18c-9 8 -16 12 -23 12c-15 1 -24 10 -28 26c-1 5 -2 14 -2 25c0 15 2 47 5 96c1 24 2 73 2 148v101c-1 73 -1 149 -1 227v46c0 11 0 20 1 27s1 11 1 12c1 1 2 3 3 7c1 2 2 4 3 5c3 8 6 13 9 15c3 3 8 6 16 10z" />
    <glyph glyph-name="C" unicode="C" horiz-adv-x="552" 
d="M316 734c11 3 22 4 35 4c36 0 67 -14 92 -43c11 -13 16 -23 16 -28c0 -3 -2 -7 -5 -12c-4 -5 -8 -7 -13 -7c-9 0 -19 6 -32 17c-15 13 -32 19 -53 19c-27 0 -54 -11 -82 -33c-33 -26 -60 -55 -81 -87c-43 -65 -64 -142 -64 -231c0 -19 1 -37 3 -55c6 -52 22 -96 48 -132
c25 -36 58 -60 98 -72c11 -3 24 -5 37 -5c18 0 34 3 49 8c23 9 50 27 79 55c27 24 42 38 47 42l4 -13c2 -6 3 -13 3 -20c0 -34 -18 -68 -55 -101c-25 -23 -54 -38 -87 -45c-11 -3 -26 -4 -43 -4c-33 0 -60 5 -81 14c-9 3 -14 5 -16 5c-11 1 -30 13 -55 36s-43 43 -54 62
c-35 58 -52 127 -52 207c0 83 16 157 47 221c31 63 74 115 129 155c29 21 57 35 86 43z" />
    <glyph glyph-name="D" unicode="D" horiz-adv-x="539" 
d="M255 647c-13 5 -32 7 -55 8c-7 1 -15 1 -24 1h-10c-3 -1 -6 -1 -10 -2c-5 -1 -9 -1 -14 -2c-10 -1 -17 -3 -20 -4c-1 -1 -2 -4 -2 -7c0 -2 2 -17 5 -46c16 -125 26 -256 30 -393c1 -37 2 -76 4 -117l1 -42l12 -2h6c17 0 37 5 58 15c31 15 62 43 92 82s52 81 67 126
c12 35 18 72 18 109c0 48 -10 96 -31 143c-13 31 -31 59 -54 82s-47 40 -73 49zM161 707c20 3 37 5 52 5c63 0 121 -27 174 -82c47 -49 78 -112 93 -187c5 -23 7 -50 7 -79c0 -28 -2 -54 -7 -77c-21 -98 -66 -180 -135 -246c-46 -44 -90 -66 -132 -66c-13 0 -25 2 -36 6
c-9 3 -17 7 -24 12c-5 4 -9 5 -13 3c-3 -1 -7 -2 -13 -2c-14 0 -25 6 -32 18c-5 8 -9 22 -11 42c-1 19 -3 64 -4 133c-7 257 -11 397 -11 422c0 14 -1 21 -3 21c-3 0 -5 2 -8 6s-4 8 -4 12c0 3 8 15 24 38c3 3 8 6 16 7c7 0 16 2 26 5c27 6 40 9 41 9z" />
    <glyph glyph-name="E" unicode="E" horiz-adv-x="494" 
d="M201 735c47 1 78 2 93 2c68 0 108 -3 119 -10c7 -4 10 -11 10 -20c0 -10 -8 -17 -24 -20c-5 -1 -43 -4 -111 -9c-70 -4 -105 -6 -108 -6l-18 -2l2 -14c4 -50 6 -117 6 -200v-20c-1 -9 -1 -14 -1 -17l-2 -50c21 5 62 8 124 10c3 0 7 0 13 1h9c9 0 15 -1 20 -4
c9 -5 14 -11 14 -18c0 -16 -16 -28 -48 -37c-19 -5 -47 -8 -82 -8c-17 0 -30 1 -38 3l-13 4l-2 -22c-7 -77 -13 -135 -18 -174l-9 -70c79 8 126 13 143 15c49 5 81 7 95 7c26 0 44 -4 53 -12c7 -7 10 -13 10 -20c0 -11 -5 -20 -16 -27c-13 -9 -55 -17 -128 -25
c-53 -5 -96 -10 -128 -15c-32 -4 -54 -6 -65 -6c-14 0 -25 5 -34 14c-8 10 -12 22 -12 36c0 15 4 51 12 108c21 136 31 287 31 453v37v47c0 25 1 41 3 47s7 11 15 15c7 3 36 6 85 7z" />
    <glyph glyph-name="F" unicode="F" horiz-adv-x="495" 
d="M351 764c20 2 36 3 47 3h6c22 -4 33 -16 33 -36c0 -11 -6 -21 -19 -29c-5 -4 -11 -5 -16 -3c-1 1 -6 1 -14 1c-15 0 -29 -1 -41 -2c-32 -3 -77 -5 -136 -5h-88l2 -46c0 -7 0 -20 1 -37v-62c1 -24 1 -44 1 -61l2 -113c35 7 65 11 90 11c15 0 25 -1 30 -4
c8 -4 12 -10 12 -18c0 -2 -1 -5 -2 -9c-3 -9 -11 -15 -23 -20c-12 -4 -34 -9 -65 -14l-39 -6l1 -53c1 -39 2 -80 2 -123c0 -46 -2 -74 -6 -83c-7 -15 -19 -23 -35 -23c-9 0 -16 3 -23 10c-5 7 -9 14 -12 21c-5 18 -8 121 -8 309c0 75 1 123 2 144c3 77 8 135 13 175
c1 3 1 7 1 12c0 3 0 7 -1 11c-1 5 -1 8 -1 10c0 8 4 14 11 19c3 3 25 5 66 6c53 2 122 7 209 15z" />
    <glyph glyph-name="G" unicode="G" horiz-adv-x="591" 
d="M354 715c8 1 20 2 37 2c16 -1 32 -5 47 -12c29 -14 43 -27 43 -40c0 -2 -1 -5 -4 -9s-8 -6 -14 -6c-7 0 -17 2 -28 7c-13 5 -25 8 -36 8c-4 0 -11 -1 -20 -2c-47 -8 -93 -41 -140 -99c-51 -64 -85 -132 -100 -205c-5 -23 -7 -49 -7 -76c0 -22 2 -41 5 -56
c19 -81 63 -134 132 -158c14 -5 31 -7 52 -7s36 2 45 7c19 9 38 29 55 59c2 3 6 9 12 19s10 17 12 21l11 19v41c0 27 -1 40 -3 40h-1c-1 0 -3 -1 -6 -2c-4 -2 -9 -4 -16 -6c-6 -3 -12 -5 -17 -7c-39 -14 -64 -21 -74 -21c-8 0 -15 3 -20 8s-7 11 -7 18c0 9 3 17 10 22
s23 13 49 23c34 13 59 24 76 33c19 10 33 15 42 15c7 0 14 -2 19 -7c9 -6 14 -16 18 -30c2 -15 6 -50 9 -105c3 -39 4 -79 4 -119c0 -59 -4 -98 -11 -119c-9 -22 -23 -33 -43 -33c-11 0 -21 4 -29 13c-7 7 -10 17 -10 29c0 3 1 11 2 23c2 14 3 23 3 27s-1 6 -2 6
s-6 -4 -15 -13c-31 -30 -70 -45 -119 -45c-63 0 -120 23 -170 70c-46 43 -75 99 -87 168c-2 14 -3 32 -3 54c0 40 3 71 8 93c19 80 52 150 100 210c9 12 23 27 41 46c17 19 30 31 38 38c39 32 76 51 112 58z" />
    <glyph glyph-name="H" unicode="H" horiz-adv-x="496" 
d="M64 670c4 11 12 16 23 16c5 0 10 -2 14 -5c5 -3 8 -10 10 -20s4 -29 5 -58c4 -55 7 -118 9 -190l2 -54h7c42 0 106 6 191 17l32 5l2 76c0 7 0 18 1 34v36v33c-1 13 -1 22 -1 26l-2 51l8 8c5 5 11 8 17 8c8 0 15 -5 20 -15c9 -17 17 -64 23 -141c6 -81 11 -212 14 -393
c1 -49 3 -76 4 -81c1 -3 2 -15 2 -36v-24l-1 -55l-9 -9c-9 -7 -17 -11 -26 -11c-13 0 -24 6 -32 19c-7 11 -12 35 -15 69c-3 36 -5 106 -6 213l-1 132l-11 -2c-35 -6 -81 -9 -140 -10l-75 -2v-163v-104c0 -39 -2 -63 -5 -70c-7 -15 -17 -22 -31 -22c-16 0 -28 8 -37 24
l-6 12v185c0 116 1 210 4 282c2 54 3 95 3 122c0 52 2 84 7 97z" />
    <glyph glyph-name="I" unicode="I" horiz-adv-x="481" 
d="M348 652c10 2 23 3 39 3h9c8 0 15 -3 20 -8c6 -6 9 -12 9 -19c0 -15 -14 -27 -42 -35c-31 -9 -64 -16 -97 -19l-19 -2l1 -10c3 -23 5 -80 8 -173v-30c1 -17 1 -31 1 -44c0 -33 -1 -86 -2 -158c-1 -89 -2 -140 -2 -152v-16h1c1 0 11 2 31 6c24 6 44 9 59 9
c11 0 20 -2 28 -5c14 -6 21 -15 21 -28c0 -11 -6 -19 -18 -25c-5 -3 -37 -9 -95 -20c-59 -10 -107 -17 -144 -22c-40 -5 -63 -7 -69 -7c-15 0 -24 5 -28 15c-1 4 -2 7 -2 9c0 11 5 18 14 22c5 3 26 8 61 15l53 11l-1 32v18c0 34 3 113 10 237c6 123 9 190 10 201
c3 62 4 95 5 100l2 13l-27 1c-20 1 -34 4 -42 9c-8 4 -12 11 -12 21c0 11 4 18 12 21c7 3 26 6 55 9c49 4 99 11 151 21z" />
    <glyph glyph-name="J" unicode="J" horiz-adv-x="472" 
d="M331 702c17 5 31 7 44 7c23 0 36 -9 39 -27v-5c0 -7 -4 -12 -14 -16c-8 -4 -33 -12 -72 -23c-11 -3 -23 -7 -36 -11l-30 -9l-9 -2c3 -12 7 -25 12 -38c22 -65 39 -146 51 -242c3 -23 4 -59 4 -108c0 -47 -1 -78 -4 -92c-13 -68 -39 -120 -77 -156
c-27 -27 -55 -40 -84 -40c-23 0 -45 10 -64 29c-17 17 -28 38 -34 63c-1 5 -2 12 -2 21c0 2 0 5 1 11v12l2 32c5 -9 18 -24 38 -47c21 -23 35 -36 42 -40c5 -3 9 -4 12 -4c6 0 15 4 27 12c49 33 73 101 73 206v13c-1 5 -1 10 -1 13c-4 92 -14 175 -29 250
c-8 43 -15 72 -21 87c0 1 -1 1 -4 1s-16 -2 -39 -7c-24 -4 -43 -6 -56 -6c-29 0 -44 9 -44 28c0 6 2 11 7 15s10 6 17 6c18 0 66 12 145 36c43 13 78 24 106 31z" />
    <glyph glyph-name="K" unicode="K" horiz-adv-x="503" 
d="M70 694c4 2 8 3 12 3c14 0 23 -7 28 -22c0 -1 7 -52 21 -155s21 -154 22 -155l1 -1c3 0 40 35 110 106c66 66 107 108 123 126c13 15 24 23 32 23c3 0 7 -1 11 -3c12 -7 18 -16 18 -28c0 -3 -1 -8 -4 -16c-5 -11 -15 -26 -31 -42c-16 -18 -53 -54 -110 -109
c-55 -52 -82 -78 -82 -79s3 -5 9 -12c11 -13 36 -50 76 -108c40 -60 69 -103 87 -132c29 -46 43 -78 44 -96v-5c0 -11 -3 -19 -7 -25c-6 -6 -12 -9 -20 -9c-15 0 -27 8 -38 23c-5 7 -23 38 -54 91c-7 11 -20 33 -38 65c-20 33 -32 55 -39 66c-23 39 -38 66 -44 80l-6 12
c-2 3 -4 6 -5 8s-2 3 -3 2l-10 -6c-5 -3 -8 -8 -8 -13c0 -2 4 -30 11 -85c12 -87 18 -139 18 -157c0 -14 -2 -24 -6 -31c-7 -15 -18 -23 -33 -23c-6 0 -11 1 -16 4c-11 6 -18 15 -21 26c-4 11 -9 42 -16 91c-32 247 -48 422 -48 526c0 28 2 45 5 50c5 5 9 9 11 10z" />
    <glyph glyph-name="L" unicode="L" horiz-adv-x="530" 
d="M67 675c5 3 9 4 11 4c4 0 8 -2 13 -5s8 -7 9 -10c11 -28 28 -222 49 -583l1 -30l20 2c5 1 27 1 66 1c97 0 156 -1 178 -4c40 -3 60 -14 60 -32s-15 -31 -46 -39c-8 -2 -18 -3 -30 -3h-15c-6 1 -14 1 -25 2h-29c-43 1 -71 2 -86 2c-45 0 -76 -2 -93 -6
c-17 -3 -29 -5 -37 -5c-9 0 -15 1 -20 4c-9 6 -14 13 -17 23c-2 8 -4 29 -5 62c-1 51 -3 93 -5 125c-9 154 -14 290 -14 407v22c1 9 1 14 1 16c1 17 3 28 5 34c1 6 4 10 9 13z" />
    <glyph glyph-name="M" unicode="M" horiz-adv-x="583" 
d="M405 688c4 2 8 3 12 3c16 0 27 -7 32 -22c9 -23 19 -109 28 -258c10 -158 23 -277 38 -358c8 -45 12 -71 12 -78c0 -5 0 -8 -1 -10c-2 -7 -6 -13 -14 -19c-6 -6 -13 -9 -19 -9c-21 0 -35 10 -42 31c-7 23 -15 58 -24 106c-14 82 -23 193 -27 333v19v17v13
c-1 5 -1 8 -2 10c-1 3 -1 4 -2 4c-2 0 -5 -6 -10 -19c-15 -40 -33 -86 -54 -138c-22 -52 -34 -80 -37 -83c-5 -5 -13 -8 -24 -8c-5 0 -8 0 -10 1c-15 3 -26 15 -32 34s-22 47 -47 83l-64 101c0 -8 5 -51 14 -129c10 -78 18 -140 25 -185c7 -44 10 -74 10 -89
c0 -7 -1 -13 -2 -18c-5 -19 -16 -29 -31 -29c-13 0 -23 8 -30 24c-7 15 -14 55 -22 121c-9 66 -15 132 -19 199c-7 147 -10 231 -10 254c0 19 7 28 21 28c5 0 11 -1 16 -4c7 -3 31 -41 71 -112c23 -41 49 -82 78 -121l24 -32l5 13c51 120 88 214 109 281c9 27 19 42 28 46z
" />
    <glyph glyph-name="N" unicode="N" horiz-adv-x="518" 
d="M66 605c5 5 13 7 23 6c17 -2 32 -10 45 -24c11 -15 49 -96 114 -244c43 -99 66 -149 68 -149c1 0 3 10 7 29c5 22 17 79 39 170c20 91 33 142 36 152c7 26 19 39 34 39c21 0 32 -20 32 -60c0 -5 -1 -15 -2 -28c-3 -29 -19 -109 -48 -238s-46 -199 -51 -210
c-9 -17 -21 -25 -37 -25c-9 0 -19 4 -28 11c-8 7 -21 34 -39 80c-25 59 -40 96 -46 111l-55 132c-5 12 -8 21 -11 27s-5 13 -9 20c-2 7 -5 12 -6 15s-2 4 -2 3c0 -9 5 -56 14 -141s17 -146 22 -185c6 -41 9 -68 9 -83c0 -10 -2 -18 -5 -25c-7 -13 -18 -20 -32 -20
c-9 0 -18 4 -26 11s-13 18 -16 31c-8 39 -16 111 -25 216c-9 106 -14 204 -17 293v22c-1 9 -1 14 -1 17c0 25 4 40 13 47z" />
    <glyph glyph-name="O" unicode="O" horiz-adv-x="609" 
d="M346 586c-17 3 -35 4 -55 4c-27 0 -44 -3 -53 -8c-11 -7 -24 -21 -39 -42s-27 -41 -36 -61c-14 -34 -24 -65 -30 -94c-4 -19 -6 -44 -6 -73s2 -54 6 -74c11 -51 30 -91 57 -118c21 -21 44 -32 67 -32c19 0 39 8 58 23c8 6 18 16 29 29s19 23 22 29c1 1 3 5 8 13
c5 6 8 13 11 18c32 55 56 113 73 176c9 33 13 63 13 92c0 40 -9 68 -26 83c-20 17 -53 28 -99 35zM233 661c16 7 41 10 75 10c25 0 48 -2 69 -6c83 -15 136 -47 159 -95c13 -27 19 -62 19 -105c0 -31 -2 -58 -7 -81c-17 -83 -49 -161 -95 -235c-31 -49 -59 -82 -84 -101
c-37 -27 -74 -41 -111 -41c-47 0 -89 20 -126 59c-40 42 -65 99 -75 170c-2 15 -3 32 -3 53c0 39 3 72 8 97c9 43 24 85 45 124c21 40 44 72 70 97c11 10 18 18 21 24c2 5 7 10 15 17s15 11 20 13z" />
    <glyph glyph-name="P" unicode="P" horiz-adv-x="496" 
d="M275 648c-15 7 -29 10 -44 10c-17 0 -38 -5 -62 -14c-29 -12 -43 -20 -43 -23c0 -1 0 -3 1 -7c1 -3 2 -8 3 -16c1 -6 3 -13 4 -19c10 -47 20 -125 31 -233l3 -30s2 -18 3 -23l1 -8c1 -1 2 0 3 1c1 2 11 4 28 6c12 1 24 6 37 14c33 20 60 43 83 70c32 38 48 75 48 111
c0 21 -5 42 -15 65c-9 20 -21 39 -36 58s-30 31 -45 38zM200 705c13 3 28 5 44 5c13 0 26 -1 38 -4c35 -9 66 -30 95 -63s48 -68 59 -105c4 -14 6 -33 6 -56c0 -19 -2 -35 -5 -48c-6 -24 -19 -50 -38 -79c-14 -21 -35 -43 -63 -68s-52 -42 -73 -52c-15 -7 -28 -11 -41 -11
c-12 0 -23 4 -34 11l-13 9l1 -31c5 -89 7 -159 7 -210c0 -22 -1 -42 -2 -59c-3 -35 -13 -52 -28 -52c-6 0 -12 3 -19 10c-9 9 -16 24 -20 45c-3 21 -6 57 -7 106c-1 84 -8 227 -19 430c-3 69 -6 105 -7 107c-1 3 -4 3 -8 2h-4c-7 0 -11 4 -11 11c0 11 5 22 14 31
c3 3 5 7 5 14s2 12 7 16c4 5 9 7 14 7c1 0 4 -1 8 -2c4 -2 13 1 26 8c25 14 48 23 68 28z" />
    <glyph glyph-name="Q" unicode="Q" horiz-adv-x="765" 
d="M229 566c-57 -46 -93 -113 -108 -202c-3 -21 -4 -42 -4 -62c0 -19 1 -40 4 -61c18 -99 65 -160 141 -184c13 -4 31 -6 56 -6c23 0 40 1 51 4l14 3l-19 37c-11 24 -18 40 -19 49c-1 8 1 14 6 19s11 8 17 8c4 0 8 -2 13 -5c8 -8 19 -23 33 -45c18 -27 28 -40 29 -40
c2 0 11 5 27 14c15 9 28 18 37 25c11 8 26 21 43 40c17 18 30 33 39 46c24 33 40 67 49 101c4 15 6 30 6 45c0 68 -40 122 -119 163c-60 32 -130 48 -210 48h-8h-17c-33 0 -49 2 -49 6v4c1 2 0 3 -1 2s-5 -3 -10 -8zM306 643c3 1 10 1 22 1h11c24 -1 36 -6 36 -16
c0 -3 1 -6 3 -6c1 -2 7 -2 17 -3c77 -7 148 -33 211 -78c35 -24 61 -51 78 -82c19 -33 28 -69 28 -107c0 -43 -12 -87 -35 -131c-39 -76 -103 -140 -192 -193c-4 -2 -2 -8 5 -17c17 -25 26 -44 26 -58c0 -6 -1 -11 -4 -16c-5 -7 -12 -11 -21 -11c-3 0 -6 0 -8 1
c-13 4 -28 19 -46 44c-12 18 -19 27 -22 27s-12 -2 -25 -5c-25 -6 -50 -9 -75 -9c-54 0 -102 14 -143 41c-12 8 -25 20 -40 35c-15 16 -26 30 -33 43c-30 52 -45 111 -45 177c0 53 10 104 29 154s47 93 83 130c40 41 87 67 140 79z" />
    <glyph glyph-name="R" unicode="R" horiz-adv-x="510" 
d="M298 590c-6 25 -15 43 -26 56c-12 12 -29 18 -50 18c-11 0 -24 -2 -39 -6c-23 -5 -47 -16 -71 -33l3 -20c11 -65 19 -126 24 -183c3 -37 6 -56 8 -58c1 -1 1 -1 2 -1c5 0 15 5 31 16c14 11 29 23 43 37c44 43 69 88 76 133c1 12 2 19 2 20c0 4 -1 11 -3 21zM182 714
c20 5 36 7 49 7c25 0 48 -6 68 -19c20 -12 36 -30 47 -55s17 -51 17 -80c0 -15 -1 -28 -4 -39c-1 -4 -2 -9 -3 -16c-1 -6 -2 -10 -2 -11c-1 -10 -7 -25 -18 -45s-22 -37 -34 -52c-19 -24 -41 -46 -66 -65l-15 -12l10 -8c28 -22 64 -59 107 -110c38 -45 60 -71 66 -77
c20 -22 33 -38 40 -49s10 -21 10 -31c0 -9 -3 -18 -10 -25s-14 -11 -22 -11c-11 0 -28 12 -52 37c-31 31 -60 65 -87 101c-53 69 -92 110 -118 125l-8 4c-1 0 -2 -2 -2 -6c0 -2 2 -22 5 -61c11 -140 17 -242 17 -305v-9c-3 -19 -10 -31 -21 -38c-4 -2 -9 -3 -14 -3
c-8 0 -15 2 -20 6c-11 7 -18 23 -22 49c-4 24 -7 77 -10 157c-1 31 -5 95 -10 192c-6 97 -10 173 -12 228c-3 64 -6 98 -9 101s-5 9 -5 18s2 17 5 22c3 7 5 12 5 17c0 7 2 14 6 19c4 6 9 9 16 9c3 0 5 0 6 -1c5 -1 12 1 19 6c19 12 43 22 71 30z" />
    <glyph glyph-name="S" unicode="S" horiz-adv-x="489" 
d="M266 672c9 3 19 4 31 4c25 0 50 -6 73 -19c24 -13 41 -29 51 -48c9 -17 13 -38 13 -65v-13c-2 -33 -9 -56 -20 -71c-10 -12 -21 -18 -32 -18c-7 0 -12 2 -16 6c-5 5 -8 11 -8 18c0 4 1 10 3 17c3 8 4 23 4 46c0 19 -1 32 -3 40c-3 11 -11 20 -24 29c-13 8 -26 12 -41 12
c-9 0 -18 -2 -27 -6c-16 -7 -30 -23 -42 -46c-11 -23 -17 -47 -17 -70v-9c1 -19 7 -38 17 -58s29 -50 56 -89c47 -69 78 -118 92 -147c15 -29 23 -60 24 -91v-16c0 -22 -4 -44 -13 -65c-17 -38 -45 -70 -84 -96c-31 -21 -61 -31 -90 -31c-28 0 -54 9 -79 28
c-35 27 -59 62 -72 106c-5 15 -7 34 -7 56c0 44 10 76 31 97c10 10 20 15 29 15s16 -4 20 -13c2 -4 3 -8 3 -12c0 -3 -1 -12 -3 -26c-3 -17 -4 -33 -4 -50c0 -39 12 -72 35 -97c17 -18 33 -27 48 -27h5c17 1 35 10 55 25c21 15 35 32 44 51c6 11 9 25 10 40v11
c0 21 -7 45 -21 72c-11 21 -43 71 -96 150c-31 46 -52 85 -61 116c-4 13 -6 32 -6 56c0 21 2 38 4 50c4 11 10 28 20 49s24 40 40 56c18 16 37 27 58 33z" />
    <glyph glyph-name="T" unicode="T" horiz-adv-x="579" 
d="M418 669c10 1 23 1 38 1c25 0 42 -2 52 -8c9 -4 14 -13 14 -25c0 -14 -7 -23 -22 -28c-9 -3 -45 -6 -106 -10c-33 -2 -49 -4 -50 -7c13 -191 22 -311 26 -362c7 -90 13 -161 20 -214c5 -33 7 -56 7 -71c0 -13 -5 -25 -14 -34c-5 -5 -13 -7 -22 -7s-16 2 -21 7
c-9 8 -15 25 -20 52c-19 123 -29 289 -29 498v130c-66 -9 -131 -13 -196 -13c-9 0 -14 0 -16 1c-15 3 -22 11 -22 24s7 22 20 26c15 5 62 12 141 21s146 16 200 19z" />
    <glyph glyph-name="U" unicode="U" horiz-adv-x="602" 
d="M444 659c5 3 11 4 17 4c16 0 26 -11 31 -34c3 -17 5 -66 7 -146c3 -113 7 -194 12 -243c5 -50 12 -99 23 -146c8 -36 12 -58 12 -67c0 -8 -3 -16 -9 -23c-9 -11 -19 -16 -30 -16c-17 0 -31 11 -42 32c-11 20 -20 56 -28 109c-3 21 -6 31 -7 31s-4 -5 -9 -16
c-36 -86 -82 -129 -138 -129c-23 0 -47 7 -71 22c-29 18 -57 46 -82 84s-45 81 -59 129c-11 41 -17 85 -17 132c0 43 4 84 13 123c15 66 30 105 45 117c4 3 9 5 16 5c15 0 22 -6 22 -17c0 -7 -2 -19 -7 -36c-12 -51 -18 -104 -18 -159c0 -35 1 -62 4 -79
c17 -97 52 -170 105 -219c19 -17 34 -26 46 -26c11 0 22 7 36 22c12 15 24 34 35 59c11 27 23 79 34 154c7 52 16 105 26 158c5 29 9 63 11 100c1 29 3 48 6 56c2 8 7 14 16 19z" />
    <glyph glyph-name="V" unicode="V" horiz-adv-x="546" 
d="M66 618c9 7 18 6 27 -3c6 -6 19 -35 40 -86c28 -70 61 -146 100 -229c38 -82 68 -144 89 -187c2 -3 3 -3 4 1c0 1 1 7 2 16c2 9 4 23 7 40s5 33 8 48c15 94 30 172 45 233c14 55 25 93 32 113c7 21 15 34 22 39c3 3 9 4 17 4s14 -1 17 -4c11 -7 16 -19 16 -35
c0 -17 -6 -53 -18 -108c-31 -149 -47 -231 -47 -246c0 -4 -3 -31 -10 -81c-10 -67 -18 -113 -25 -137c-7 -26 -15 -43 -24 -53c-9 -9 -19 -14 -28 -14c-3 0 -8 1 -13 2c-15 5 -27 21 -38 49c-13 33 -42 98 -86 194c-67 149 -111 264 -132 346c-10 39 -15 64 -15 75
c0 10 3 18 10 23z" />
    <glyph glyph-name="W" unicode="W" horiz-adv-x="669" 
d="M567 648c5 3 11 5 17 5c11 0 20 -5 26 -14c3 -3 4 -10 4 -19c0 -8 -1 -14 -2 -18c-9 -43 -23 -111 -44 -203s-34 -155 -41 -188c-11 -53 -19 -87 -23 -102c-4 -19 -6 -29 -6 -31c0 -5 -2 -12 -6 -21c-5 -9 -9 -15 -14 -18c-8 -7 -18 -11 -30 -11c-15 0 -27 7 -37 20
c-5 6 -14 30 -29 73c-14 43 -25 80 -33 112c-9 41 -15 61 -17 61s-8 -28 -18 -84c-10 -55 -18 -101 -23 -137c-1 -7 -3 -20 -7 -39c-1 -5 -5 -11 -12 -18c-7 -6 -13 -10 -19 -11c-2 -1 -5 -1 -9 -1c-19 0 -33 11 -42 34c-4 11 -18 59 -42 144s-40 143 -47 173
c-5 20 -15 60 -28 120c-3 13 -8 32 -13 55c-6 24 -9 38 -10 43c-4 17 -6 29 -6 38c0 14 8 21 24 21c6 0 11 -2 15 -5c11 -8 27 -45 49 -113c21 -66 41 -131 59 -194c18 -62 28 -93 30 -93l1 6c1 4 3 10 4 17c2 7 4 14 5 19c3 18 10 49 21 93c10 43 16 70 18 79
c5 22 9 36 13 41c7 12 18 18 32 18c13 0 24 -6 31 -17c6 -9 15 -35 28 -80c12 -45 23 -87 34 -127c10 -39 16 -59 19 -59c1 0 1 0 1 1s4 19 12 55c9 41 24 106 48 195c22 89 37 139 42 151s14 22 25 29z" />
    <glyph glyph-name="X" unicode="X" horiz-adv-x="566" 
d="M63 581c5 5 10 7 15 7c7 0 16 -6 27 -17c15 -17 56 -82 121 -197c22 -37 33 -55 34 -55l22 36c78 130 126 195 145 195c12 0 18 -7 18 -20c0 -6 -4 -16 -12 -30c-5 -8 -25 -48 -63 -120c-36 -71 -57 -110 -60 -116l-10 -19l6 -10c26 -47 53 -89 81 -127
c28 -39 59 -76 93 -109c19 -19 29 -33 29 -42c0 -5 -1 -8 -2 -11c-5 -15 -16 -23 -33 -23c-12 0 -25 4 -38 13c-18 12 -42 36 -70 72c-30 37 -57 77 -84 120c-13 23 -21 34 -23 34c-1 0 -19 -33 -52 -99c-39 -78 -63 -124 -72 -139c-9 -14 -18 -23 -29 -26
c-1 -1 -4 -1 -7 -1c-7 0 -14 5 -20 15c-3 5 -4 12 -4 21c0 12 2 27 7 44c10 33 47 108 112 225l22 39l-24 46c-34 64 -65 125 -94 183c-28 58 -42 90 -42 96c0 5 2 10 7 15z" />
    <glyph glyph-name="Y" unicode="Y" horiz-adv-x="456" 
d="M61 596c-3 5 -4 11 -4 18c0 16 7 24 22 24c10 0 21 -8 32 -24c11 -15 30 -48 55 -97c16 -31 33 -61 50 -90c23 -37 39 -55 48 -55c8 0 18 12 31 36c18 35 30 84 35 147c3 30 5 48 7 54c4 17 13 25 27 25c12 0 22 -7 29 -21c6 -13 9 -33 9 -60c0 -49 -7 -94 -22 -136
c-13 -37 -28 -64 -45 -83l-14 -15l4 -19c5 -27 11 -96 17 -207c1 -21 3 -48 4 -79s2 -49 2 -53v-9c1 -4 1 -7 1 -8c0 -19 -4 -33 -13 -41c-7 -7 -14 -10 -22 -10c-12 0 -22 5 -29 16s-12 29 -15 55s-5 83 -6 170v70c-1 26 -1 46 -2 59v23c0 5 0 8 -1 8c-1 2 -3 2 -7 3
c-1 1 -2 1 -3 1c-27 4 -55 27 -82 68c-23 35 -49 89 -78 160c-13 31 -23 55 -30 70z" />
    <glyph glyph-name="Z" unicode="Z" horiz-adv-x="679" 
d="M318 624c44 2 87 3 130 3c80 0 129 -3 146 -8c19 -5 29 -18 29 -39c0 -5 0 -8 -1 -10c-3 -8 -13 -20 -30 -37c-41 -39 -78 -77 -108 -112c-32 -35 -75 -90 -131 -164c-73 -96 -120 -157 -141 -182c-17 -21 -25 -31 -25 -32h2c3 0 16 1 40 4c96 12 174 18 234 18
c78 0 123 -10 136 -31c3 -7 5 -12 5 -17c0 -8 -2 -15 -8 -21c-4 -7 -11 -11 -19 -13c-1 -1 -5 -1 -10 -1c-6 0 -18 1 -35 3c-19 2 -41 3 -67 3c-73 0 -168 -7 -285 -22c-41 -5 -66 -7 -77 -7h-3c-22 5 -33 19 -33 40v6c2 11 16 33 43 64c39 47 86 106 140 177
c74 98 123 161 147 190c32 39 65 75 98 108c7 6 11 10 11 12c0 1 -13 2 -39 2c-13 0 -42 0 -87 -1c-46 -1 -83 -1 -111 -1c-117 0 -185 6 -203 18c-7 4 -10 10 -10 19s3 15 10 20c5 3 39 6 104 7c51 1 100 2 148 4z" />
    <glyph glyph-name="a" unicode="a" horiz-adv-x="519" 
d="M274 381c-3 11 -5 22 -7 35l-3 20l-21 -5c-37 -8 -66 -23 -85 -44c-13 -15 -24 -36 -34 -63c-8 -27 -13 -52 -13 -75c0 -11 1 -19 2 -24c4 -19 12 -33 23 -43c11 -11 25 -16 40 -16h6c28 2 52 18 70 50c20 30 29 67 29 108c0 20 -2 39 -7 57zM129 423c31 29 68 43 111 43
h12c17 -1 29 -2 36 -2c6 -1 11 -2 15 -2c4 -2 7 -4 9 -7c3 -3 4 -6 6 -9c0 -2 2 -6 4 -14c2 -6 4 -12 5 -16c25 -73 62 -158 110 -255c15 -30 23 -49 25 -58c1 -2 1 -5 1 -9c0 -10 -3 -18 -9 -26c-7 -6 -15 -10 -24 -10c-2 0 -6 1 -11 2c-21 7 -48 50 -80 129
c-1 4 -3 9 -5 14c-3 5 -5 9 -6 13c-1 2 -2 4 -2 5c-1 3 -4 0 -8 -8l-6 -10c-29 -55 -67 -88 -114 -98c-8 -2 -16 -3 -25 -3c-33 0 -61 13 -85 38c-22 26 -34 59 -34 99c0 11 1 24 3 37c5 27 15 55 28 83s28 49 44 64z" />
    <glyph glyph-name="b" unicode="b" horiz-adv-x="375" 
d="M236 350c-5 3 -12 4 -21 4c-21 0 -44 -8 -68 -24l-18 -12l1 -14c7 -53 11 -100 11 -142c0 -21 3 -32 10 -32c5 0 13 3 22 10c13 9 27 23 41 40s24 34 31 50c9 20 13 41 13 64c0 30 -7 49 -22 56zM54 595c5 17 11 25 20 25c4 0 8 -2 13 -7s11 -34 18 -85
c13 -90 19 -139 19 -147c0 -2 5 0 15 5c25 16 52 24 81 24c19 0 34 -2 45 -7c17 -7 31 -22 42 -43c9 -21 14 -43 14 -66v-14c-3 -60 -29 -116 -78 -168c-33 -35 -63 -52 -89 -52c-8 0 -17 2 -26 7c-5 3 -12 4 -21 4h-3c-13 0 -24 7 -31 21c-3 6 -6 30 -7 71
c-1 19 -1 37 -2 53c-1 15 -2 32 -3 50s-2 33 -3 46c0 15 -1 51 -3 108c-2 58 -3 100 -3 125c0 27 1 43 2 50z" />
    <glyph glyph-name="c" unicode="c" horiz-adv-x="466" 
d="M251 475c9 1 19 2 29 2c23 0 38 -2 47 -5c23 -10 34 -25 34 -45c0 -7 -2 -12 -5 -15c-4 -4 -9 -6 -14 -6c-6 0 -13 3 -20 8c-6 5 -16 8 -29 8c-33 -1 -64 -13 -93 -37s-51 -55 -65 -92c-6 -16 -9 -31 -9 -46c0 -19 4 -33 10 -43c8 -10 19 -19 34 -26c7 -3 21 -5 41 -5
c30 0 66 9 107 28c36 16 60 24 71 24c6 0 11 -2 16 -6s7 -10 7 -17s-3 -16 -10 -25c-13 -17 -36 -33 -67 -49c-42 -21 -82 -31 -120 -31h-15c-21 1 -37 3 -46 6c-67 23 -100 69 -100 136c0 41 14 82 43 125c41 62 93 99 154 111z" />
    <glyph glyph-name="d" unicode="d" horiz-adv-x="417" 
d="M254 386c-10 3 -21 5 -34 5c-24 0 -42 -4 -55 -11c-5 -3 -12 -9 -19 -16c-8 -8 -13 -15 -16 -21c-7 -15 -11 -30 -11 -47c0 -21 5 -41 15 -60c11 -18 24 -30 41 -35c7 -3 15 -4 23 -4c31 0 55 11 72 32l10 12l-5 58c0 2 0 5 -1 10c-3 45 -7 70 -11 73c-1 1 -3 2 -7 3z
M278 680c3 3 6 4 11 4c5 1 8 0 10 -3c4 -5 10 -38 17 -99c9 -68 14 -109 16 -123c21 -159 32 -262 32 -310v-14c0 -16 -1 -27 -2 -34c-2 -7 -7 -13 -14 -19s-14 -9 -22 -9c-25 0 -38 17 -41 50c-1 13 -3 20 -4 20l-12 -6c-1 -1 -4 -2 -11 -4c-6 -2 -12 -4 -18 -5
c-5 -2 -8 -3 -8 -4s-6 -2 -18 -2c-21 0 -38 1 -50 4c-33 9 -59 27 -79 56s-30 62 -30 99c0 11 1 23 3 34c5 27 14 51 28 71s29 34 46 41c5 2 7 4 7 5s6 4 18 8c12 3 23 6 34 7s19 2 26 2c17 0 32 -2 45 -5v85c0 60 3 105 9 134c3 9 5 15 7 17z" />
    <glyph glyph-name="e" unicode="e" horiz-adv-x="475" 
d="M350 395c-10 3 -21 4 -33 4c-39 0 -78 -17 -116 -52l-17 -15c7 -2 17 -3 32 -3c21 0 41 2 59 6c25 5 45 14 62 26c5 4 11 9 17 15c5 7 8 11 8 13c0 1 -4 3 -12 6zM305 458c7 1 15 1 26 0c29 -2 51 -9 67 -20s24 -26 24 -45v-6c-2 -23 -14 -44 -37 -63
c-23 -20 -51 -34 -86 -43c-15 -4 -34 -6 -58 -6c-25 0 -45 2 -62 7c-13 4 -21 6 -22 6c-4 0 -11 -11 -19 -32c-10 -22 -14 -40 -14 -54v-6c4 -22 26 -33 65 -33c47 0 102 23 165 68c19 14 32 21 41 21c4 0 7 0 8 -1c11 -4 17 -12 17 -24c0 -8 -3 -17 -8 -28
c-14 -26 -43 -51 -88 -75s-90 -36 -135 -36c-27 0 -53 5 -76 16c-39 20 -59 52 -59 95c0 14 2 28 7 42c11 35 30 69 57 104c28 35 58 62 89 81c30 18 63 29 98 32z" />
    <glyph glyph-name="f" unicode="f" horiz-adv-x="398" 
d="M184 598c22 19 47 29 75 29c15 0 28 -3 41 -10c16 -8 28 -21 36 -38c5 -11 7 -20 7 -27c0 -8 -2 -15 -7 -22l-7 -11l-11 5c-6 2 -13 7 -22 14c-12 11 -23 17 -34 17c-16 0 -26 -5 -31 -16c-3 -7 -4 -21 -4 -44c0 -8 1 -27 2 -56l3 -41h18c19 0 31 -5 35 -14
c3 -9 1 -18 -7 -25c-3 -3 -10 -8 -21 -14s-17 -9 -20 -9c-2 0 -3 -13 -3 -40c0 -26 -1 -57 -3 -94c-2 -36 -6 -64 -11 -83c-6 -22 -15 -33 -28 -33c-6 0 -11 1 -15 4c-5 4 -9 10 -11 19c-1 9 -2 27 -2 55c0 31 -1 66 -2 105l-1 52l-17 -1h-6c-4 -1 -6 -1 -8 -1
c-30 0 -50 3 -59 8c-10 5 -15 12 -15 21c0 7 2 12 7 17c5 7 27 11 67 14c14 1 22 2 23 3s2 6 2 15c0 15 0 28 -1 41s-1 29 -1 50c0 53 10 89 31 110z" />
    <glyph glyph-name="g" unicode="g" horiz-adv-x="422" 
d="M279 400c1 3 2 6 1 6c0 2 -1 2 -4 2c-18 -1 -36 -10 -54 -26c-17 -18 -29 -37 -35 -60c-3 -8 -4 -17 -4 -28c0 -35 12 -60 36 -77c10 -7 19 -10 27 -10c6 0 13 2 21 6c9 5 14 8 15 10v8c0 20 0 37 -1 51c-2 59 -3 92 -3 100c0 9 0 15 1 18zM282 148c-8 -3 -21 -4 -38 -4
s-31 3 -43 8c-25 11 -44 30 -57 55c-13 24 -19 49 -19 76c0 21 3 39 8 54c10 28 25 52 46 73s41 34 62 39c8 2 16 3 23 3c18 0 34 -4 50 -13c14 -9 24 -20 28 -33c1 -5 2 -12 3 -20c1 -9 3 -17 6 -26c13 -32 19 -61 19 -86c0 -17 -2 -32 -6 -43c-3 -6 -4 -13 -4 -22v-9
c1 -3 1 -8 2 -14v-18c1 -9 1 -23 1 -43c0 -56 -3 -106 -9 -151c-12 -81 -35 -136 -70 -163l-13 -11h-120l-12 7c-21 13 -38 31 -53 54c-11 16 -18 29 -21 39c-3 11 -6 24 -7 40c-1 11 -1 17 -1 20v8c3 0 13 -6 31 -18c18 -13 31 -23 39 -30c37 -33 66 -50 85 -50h2
c2 1 2 1 3 1c5 1 11 7 19 16c6 9 12 20 17 32c15 39 24 101 27 185z" />
    <glyph glyph-name="h" unicode="h" horiz-adv-x="360" 
d="M84 613c4 4 9 6 14 6c4 0 11 -4 20 -12v-108c0 -47 1 -95 3 -143c2 -49 4 -74 6 -76c11 17 19 29 23 35c36 53 69 79 100 79c11 0 21 -4 30 -11c11 -9 18 -21 22 -37s6 -41 6 -75v-26c-1 -37 -2 -63 -5 -77c-3 -15 -8 -26 -15 -33s-13 -10 -20 -10c-5 0 -9 1 -14 4
c-15 8 -22 24 -22 47c0 10 1 23 3 39c3 31 4 55 4 73v31l-11 -11c-29 -32 -60 -103 -92 -214c-8 -25 -19 -38 -33 -39h-5c-15 0 -26 6 -33 17c-4 7 -6 38 -7 93c-1 64 -3 113 -5 148c-1 12 -1 31 -1 56c0 82 6 153 19 213c3 15 8 25 13 31z" />
    <glyph glyph-name="i" unicode="i" horiz-adv-x="273" 
d="M109 565c9 0 16 -3 21 -9c5 -5 8 -12 8 -21s-2 -16 -7 -21s-12 -8 -19 -8s-14 3 -19 8c-7 7 -11 15 -11 24c0 7 2 14 8 19c4 5 11 8 19 8zM108 430c9 7 17 7 24 0c5 -5 8 -14 8 -26s-1 -29 -4 -50c-7 -65 -10 -110 -10 -134c0 -27 3 -44 8 -53c2 -3 4 -4 5 -4
c3 0 10 8 23 24c28 34 44 51 47 51l6 -24c3 -11 4 -20 4 -27s0 -12 -1 -17c-3 -28 -12 -50 -26 -65c-13 -15 -31 -23 -52 -23c-13 0 -24 2 -33 7c-35 17 -53 53 -53 106c0 11 0 20 1 27c5 55 18 114 37 176c5 17 10 27 16 32z" />
    <glyph glyph-name="j" unicode="j" horiz-adv-x="341" 
d="M188 548v3c-1 1 -1 2 -1 3c0 8 3 15 9 22c5 6 12 9 20 9c3 0 7 -1 14 -4c11 -5 16 -15 16 -30c0 -19 -9 -29 -27 -29c-17 0 -28 9 -31 26zM203 443c5 5 10 7 15 7c11 0 22 -9 31 -26c11 -22 21 -64 29 -128c7 -62 11 -127 11 -194c0 -56 -4 -97 -12 -123
c-9 -28 -24 -50 -44 -67c-20 -16 -42 -24 -66 -24c-17 0 -33 4 -49 12s-30 22 -43 41s-19 40 -19 61c0 15 1 27 2 35l2 12l36 -36c25 -25 41 -39 49 -42c6 -2 11 -3 16 -3c15 0 27 9 35 27c9 21 14 82 14 181c0 121 -3 197 -10 228c-2 11 -3 19 -3 24c0 6 2 11 6 15z" />
    <glyph glyph-name="k" unicode="k" horiz-adv-x="405" 
d="M176 363c0 3 -2 4 -5 4c-5 0 -14 -2 -26 -7l-19 -7l-1 -22c-1 -14 -1 -21 2 -21c1 0 8 4 19 13c20 15 30 29 30 40zM66 641c4 5 10 7 17 7c13 0 22 -8 26 -24c3 -13 7 -63 10 -150c0 -11 0 -22 1 -34s1 -22 2 -28v-13v-8l23 9c16 7 31 10 44 10c24 0 36 -13 36 -40
c0 -36 -20 -69 -59 -98c-11 -7 -16 -12 -16 -13s6 -6 19 -16c56 -45 93 -75 111 -88c29 -21 47 -36 56 -45s13 -19 13 -28c0 -19 -9 -28 -28 -28c-2 0 -6 1 -13 2c-35 9 -80 40 -133 92l-39 38v-52c0 -35 -2 -55 -6 -61c-9 -12 -18 -18 -29 -18c-9 0 -16 4 -22 11
c-5 5 -9 14 -11 26c-2 11 -5 38 -8 79c-6 72 -9 141 -9 208c0 61 2 116 7 165v12c1 4 1 7 2 10v5c0 4 -1 7 -3 9c-3 3 -4 8 -4 17c0 19 4 34 13 44z" />
    <glyph glyph-name="l" unicode="l" horiz-adv-x="290" 
d="M116 619c8 3 16 2 23 -4l8 -8v-61c0 -37 -2 -86 -7 -145c-5 -57 -7 -108 -7 -153c0 -65 6 -104 18 -115c4 -3 15 -5 34 -6c20 -1 33 -3 38 -5l10 -4l-5 -13c-3 -7 -9 -16 -19 -26c-15 -15 -34 -22 -57 -22c-24 0 -44 8 -60 25c-25 26 -38 73 -38 142c0 36 3 79 9 130
c3 25 5 41 5 48c0 5 4 29 10 72c8 43 13 74 18 94c6 30 13 47 20 51z" />
    <glyph glyph-name="m" unicode="m" horiz-adv-x="589" 
d="M265 479c6 2 11 3 16 3c19 0 34 -14 43 -41c7 -21 12 -53 15 -97c1 -15 3 -22 4 -22c21 53 43 90 64 112c20 21 40 31 59 31c17 0 31 -8 40 -23s16 -41 21 -78c7 -55 11 -129 11 -220c0 -47 -2 -77 -5 -89c-5 -15 -12 -26 -23 -32c-4 -2 -8 -3 -11 -3c-15 0 -26 8 -35 25
c-6 12 -9 34 -9 65c0 23 1 60 3 111c1 34 2 73 2 118c0 39 -1 59 -4 59c-1 0 -6 -6 -14 -19s-14 -23 -18 -32c-18 -41 -34 -97 -47 -168c-7 -39 -13 -62 -16 -69c-7 -15 -18 -23 -33 -23c-19 0 -33 12 -40 36c-9 29 -13 85 -14 167l-2 110c-1 4 -2 6 -3 6
c-2 0 -8 -7 -17 -21c-47 -71 -79 -164 -96 -278c-5 -31 -9 -47 -10 -50c-7 -13 -18 -19 -33 -19c-7 0 -13 2 -17 5c-7 5 -12 11 -16 17c-2 7 -6 21 -10 43c-11 62 -17 127 -17 194c0 71 4 122 12 153c3 12 10 18 20 18c13 0 21 -8 24 -23c2 -9 4 -28 5 -59
c1 -30 2 -58 4 -82c0 -26 2 -38 3 -38s4 8 10 23c16 42 36 80 60 115c29 43 53 68 74 75z" />
    <glyph glyph-name="n" unicode="n" horiz-adv-x="392" 
d="M64 481c6 5 11 7 15 7c5 0 11 -2 15 -6c6 -5 9 -10 11 -16c5 -18 10 -50 13 -95c1 -7 2 -16 2 -27c2 -12 2 -19 2 -21l2 -13l17 34c21 39 43 71 67 95c23 23 44 35 64 35c12 0 21 -3 28 -8c10 -8 17 -20 22 -36c4 -17 8 -47 11 -90c5 -75 8 -134 8 -179c0 -3 0 -8 -1 -14
v-12c-3 -50 -15 -77 -36 -81h-3c-1 -1 -2 -1 -3 -1c-15 0 -25 11 -32 33c-2 7 -4 35 -5 83s-2 94 -3 139c0 44 -1 67 -2 68c0 1 0 1 -1 1c-4 0 -12 -9 -23 -28c-25 -39 -50 -100 -75 -184c-13 -46 -22 -72 -26 -79c-8 -17 -21 -25 -38 -25c-15 0 -26 7 -33 22
c-3 6 -4 18 -4 35v25c0 71 -1 130 -2 176c-1 61 -2 95 -2 100c0 34 4 55 12 62z" />
    <glyph glyph-name="o" unicode="o" horiz-adv-x="475" 
d="M264 375c-22 2 -41 3 -56 3l-38 1l-11 -11c-26 -25 -39 -56 -39 -92c0 -30 9 -54 26 -73c18 -19 40 -28 67 -28c12 0 24 2 36 6c27 9 51 25 69 49c20 23 29 47 29 72c0 42 -28 66 -83 73zM203 451c8 2 17 3 27 3c36 0 74 -10 114 -29c52 -25 78 -66 78 -125
c0 -25 -6 -50 -18 -74c-13 -27 -33 -52 -60 -74c-27 -21 -55 -36 -84 -43c-15 -3 -31 -5 -48 -5s-30 1 -39 4c-26 7 -49 20 -69 38c-21 20 -35 42 -44 67c-4 13 -6 30 -6 52c0 31 6 57 17 80c29 57 73 92 132 106z" />
    <glyph glyph-name="p" unicode="p" horiz-adv-x="353" 
d="M230 427c-1 1 -5 1 -11 1c-7 0 -14 -1 -21 -3c-23 -7 -46 -20 -67 -37l-14 -11l1 -15c0 -5 1 -32 4 -81c2 -49 3 -74 4 -74c2 0 9 5 21 15c12 11 22 20 30 29c31 33 51 68 60 105c3 10 4 21 4 34c0 21 -4 34 -11 37zM192 470c9 3 20 5 33 5h2c40 0 64 -25 71 -74
c1 -4 1 -10 1 -18c0 -31 -8 -62 -24 -95c-13 -29 -33 -58 -60 -88c-27 -28 -53 -50 -78 -63l-15 -8l2 -50c2 -51 3 -82 4 -91c1 -16 2 -34 2 -54c0 -17 -2 -28 -5 -35c-7 -14 -17 -21 -30 -21s-24 7 -31 20c-4 7 -7 30 -9 68s-3 78 -3 120c0 61 2 117 6 169c3 49 4 78 4 86
v7c-1 11 0 20 2 25c3 7 4 13 4 20c0 19 3 32 9 38c3 3 6 5 10 5c5 0 11 -5 19 -15l17 13c24 17 47 29 69 36z" />
    <glyph glyph-name="q" unicode="q" horiz-adv-x="534" 
d="M285 103c-2 3 -6 8 -13 13c-7 6 -12 9 -15 9c-1 0 -2 -3 -2 -10s3 -34 9 -82c1 -8 2 -17 4 -25c3 -10 5 -17 7 -22c2 -6 4 -9 5 -9c6 0 9 29 9 86c0 23 -1 37 -4 40zM218 451c0 1 -3 1 -10 1c-7 -2 -13 -3 -19 -5c-34 -13 -58 -42 -72 -86c-5 -17 -7 -38 -7 -65
c0 -9 1 -16 2 -20c13 -27 22 -43 28 -47s11 -6 16 -6c4 0 10 2 17 6c5 3 9 6 10 8s2 6 3 13c5 45 12 96 23 152c6 31 9 48 9 49zM169 483c10 3 20 5 31 5c13 0 23 -2 29 -7c3 -3 5 -4 7 -4c1 0 4 1 7 1c3 2 7 2 10 2c24 0 36 -26 36 -78c0 -11 0 -19 -1 -26
c-3 -44 -10 -82 -21 -115c-7 -21 -11 -36 -11 -46c0 -7 2 -10 6 -10c12 0 45 14 100 41l62 32l28 1c11 1 17 1 20 1h8c0 -4 -6 -15 -18 -34c-7 -11 -20 -23 -40 -37c-22 -15 -41 -27 -56 -35l-14 -7c-4 -3 -8 -5 -11 -6l-4 -2l1 -1c0 -1 1 -2 2 -4c2 -3 3 -5 4 -6
c13 -19 20 -46 20 -83c0 -28 -4 -62 -12 -101c-7 -33 -16 -56 -27 -69c-10 -11 -23 -17 -40 -17h-7c-18 2 -34 12 -50 29c-14 17 -26 40 -33 68c-9 33 -14 78 -14 133v54h-23c-16 0 -30 3 -41 9c-42 21 -63 60 -63 119c0 11 1 23 3 35c5 37 18 70 38 99s45 48 74 59z" />
    <glyph glyph-name="r" unicode="r" horiz-adv-x="359" 
d="M212 509c5 1 10 2 14 2c16 0 31 -7 46 -20c14 -13 24 -30 30 -51c2 -7 1 -16 -2 -27c-2 -7 -4 -12 -4 -13c-2 -1 -4 -2 -7 -1s-7 1 -11 2s-7 1 -8 1c-2 1 -4 2 -7 3s-5 3 -7 5c-3 2 -6 5 -10 9c-11 10 -18 14 -20 13c-3 -3 -10 -15 -19 -34s-17 -37 -22 -53
c-13 -37 -24 -92 -35 -165c-6 -45 -12 -74 -17 -85c-8 -17 -20 -25 -37 -25c-15 0 -26 7 -34 22l-6 12l-2 135c-1 77 -2 123 -2 137c0 43 1 73 4 89c2 16 6 26 12 30c9 7 17 6 26 -2c5 -3 9 -21 13 -54c3 -30 6 -47 8 -51c1 -1 2 1 5 6c3 4 7 10 11 19c27 56 54 88 81 96z
" />
    <glyph glyph-name="s" unicode="s" horiz-adv-x="461" 
d="M207 439c28 25 67 38 116 38c22 -1 36 -3 42 -6c15 -9 22 -19 22 -32c0 -5 -2 -11 -5 -18c-6 -10 -13 -15 -21 -15c-4 0 -8 1 -11 4c-4 3 -6 5 -6 8s-5 4 -14 4c-5 0 -15 -1 -30 -4c-16 -3 -30 -9 -43 -18c-13 -8 -19 -15 -19 -22s18 -21 54 -42c19 -11 31 -19 36 -23
c53 -39 79 -80 79 -124c0 -17 -4 -32 -12 -47c-11 -19 -27 -35 -50 -47c-11 -6 -16 -9 -17 -10c-10 -9 -33 -13 -69 -13c-19 0 -37 2 -52 6c-37 9 -70 26 -97 50c-37 31 -55 60 -55 89c0 9 2 17 7 24l7 10l12 -6c7 -3 17 -11 31 -24c50 -45 99 -69 146 -72h11
c24 0 37 2 39 6c2 2 6 5 11 8c11 7 17 16 17 27c0 15 -10 32 -30 51c-10 9 -26 20 -48 33c-23 13 -39 24 -49 31c-25 19 -38 41 -38 67c0 23 12 46 36 67z" />
    <glyph glyph-name="t" unicode="t" horiz-adv-x="466" 
d="M204 539c5 6 10 9 16 9c7 0 13 -4 16 -13c1 -3 2 -6 2 -9c0 -4 -2 -15 -6 -32c-7 -31 -12 -60 -15 -89l-2 -17c16 4 39 10 71 20c30 8 49 14 56 15c9 1 17 2 23 2c31 0 47 -8 47 -23c0 -11 -8 -20 -23 -26c-15 -8 -48 -17 -97 -30l-76 -19v-14c0 -23 3 -45 10 -69
c6 -22 14 -39 23 -48c5 -6 11 -9 18 -9c15 0 35 16 59 49c31 41 49 61 55 61c7 0 10 -13 11 -40c0 -19 -2 -33 -6 -44c-15 -45 -41 -76 -77 -94c-11 -5 -25 -8 -43 -8s-32 3 -43 8c-47 23 -74 75 -79 155l-4 33c-7 -1 -14 -2 -22 -4c-15 -3 -27 -5 -35 -5c-9 0 -16 2 -20 6
c-5 5 -7 9 -7 12c0 9 17 21 52 34l38 15l2 14c3 29 11 61 22 93c12 34 23 56 34 67z" />
    <glyph glyph-name="u" unicode="u" horiz-adv-x="462" 
d="M310 504c5 1 9 2 11 2c10 0 18 -5 25 -14c6 -10 9 -22 9 -37c0 -29 5 -75 15 -140c11 -65 20 -111 29 -140c5 -16 8 -27 9 -34v-4c1 -2 1 -3 1 -4c0 -13 -4 -23 -13 -33c-9 -8 -19 -13 -31 -13h-6c-13 1 -23 8 -31 19c-8 12 -15 31 -22 57l-7 30l-10 -18
c-29 -54 -62 -81 -99 -81h-7c-44 3 -78 30 -101 80c-19 38 -28 83 -28 135c0 39 5 75 14 110c10 40 22 60 36 60c3 0 7 -1 11 -3c9 -4 13 -12 13 -24c0 -7 -2 -27 -5 -59c-1 -10 -2 -25 -2 -44c0 -37 4 -70 13 -101c8 -31 19 -53 34 -66c9 -7 15 -11 19 -11c7 0 16 9 27 27
c12 19 24 44 34 75c12 31 19 61 24 88c2 11 5 35 8 70c2 26 5 44 9 54s11 16 21 19z" />
    <glyph glyph-name="v" unicode="v" horiz-adv-x="482" 
d="M381 457c9 7 16 11 23 11c5 0 11 -3 16 -8s7 -13 7 -24c0 -7 -1 -15 -4 -24c-3 -8 -7 -19 -13 -32l-10 -21c-9 -21 -18 -39 -26 -56c-25 -53 -48 -113 -67 -182c-11 -39 -18 -60 -21 -65c-9 -20 -24 -30 -43 -30c-5 0 -8 0 -10 1c-11 3 -22 12 -33 26s-25 39 -42 74
c-69 137 -103 238 -103 302c0 11 2 18 7 23s10 8 15 8c7 0 12 -3 17 -10c4 -7 10 -21 18 -43c10 -26 22 -55 36 -88c51 -111 79 -167 84 -168l7 13l2 8c20 72 50 143 91 212c8 13 12 20 12 23c1 3 6 11 15 24s17 21 22 26z" />
    <glyph glyph-name="w" unicode="w" horiz-adv-x="581" 
d="M429 478c8 8 17 12 28 12c13 0 26 -6 39 -19c21 -23 32 -60 32 -113c0 -60 -13 -113 -38 -158c-17 -29 -38 -52 -64 -70s-51 -27 -75 -27c-9 0 -15 1 -19 2c-20 5 -35 16 -45 31c-5 8 -8 12 -9 12s-5 -5 -11 -16c-10 -16 -23 -30 -39 -40c-16 -12 -32 -17 -49 -17
c-20 0 -38 8 -54 25c-28 29 -49 90 -63 181c-5 32 -8 68 -8 109c0 10 0 16 1 19c3 15 11 22 24 22c9 0 15 -3 19 -11c3 -6 8 -26 15 -57c17 -72 30 -121 39 -147c13 -35 22 -54 28 -59l1 -1h1c4 0 12 9 23 27c25 43 40 88 45 137c1 15 4 26 7 33c7 15 19 22 34 22
c17 0 28 -7 34 -22c3 -6 4 -20 4 -41c0 -29 5 -61 14 -94c5 -17 8 -25 11 -25c1 0 1 0 2 1c1 0 2 0 4 1c1 1 3 1 4 2c36 20 60 61 72 123c4 21 6 40 6 55c0 23 -4 43 -12 59c-5 11 -8 19 -8 26c0 6 2 12 7 18z" />
    <glyph glyph-name="x" unicode="x" horiz-adv-x="480" 
d="M93 460c5 5 9 7 14 7c7 0 18 -5 31 -16c29 -22 62 -55 100 -100l19 -23l15 18c31 35 59 63 85 84c22 15 37 23 46 23c3 0 5 0 6 -1c11 -4 17 -11 17 -21v-2c-1 -1 -1 -1 -1 -2c-1 -3 -7 -12 -19 -25c-11 -11 -22 -23 -31 -35c-10 -12 -25 -31 -44 -57
c-19 -25 -29 -39 -29 -40c0 -5 28 -41 83 -108c11 -13 21 -26 28 -38c3 -7 5 -13 5 -19c0 -9 -4 -17 -10 -24c-8 -7 -16 -10 -26 -10c-5 0 -11 1 -17 3c-21 9 -51 41 -91 98c-3 4 -7 9 -10 14c-4 5 -7 9 -9 12c-2 2 -3 3 -4 3l-5 -7c-3 -4 -7 -10 -12 -18
c-6 -7 -12 -14 -17 -21c-35 -48 -63 -85 -85 -112c-14 -16 -28 -24 -43 -24c-14 0 -24 7 -30 21c-2 4 -3 8 -3 13c0 15 23 53 68 112c35 45 54 70 59 75c14 17 21 27 21 30c0 6 -29 47 -86 124c-21 29 -32 46 -32 53c0 4 2 8 7 13z" />
    <glyph glyph-name="y" unicode="y" horiz-adv-x="443" 
d="M115 420c3 3 7 4 12 4c7 0 14 -4 19 -11s13 -23 23 -46c21 -51 38 -87 49 -106c22 -39 40 -58 53 -58h3c8 3 16 15 25 35c2 6 5 27 9 62c5 58 11 92 16 102c7 13 17 20 31 20c9 0 16 -3 22 -9s10 -13 11 -21c2 -9 3 -24 3 -46c0 -18 -1 -34 -3 -48c-1 -15 -4 -30 -6 -46
c-4 -16 -6 -30 -7 -43c-8 -90 -24 -164 -49 -222s-56 -96 -94 -114c-16 -7 -31 -11 -44 -11c-29 0 -56 13 -81 40c-20 21 -35 45 -44 74c-5 12 -7 22 -7 31c0 8 1 17 4 28l4 19l19 -13c15 -9 29 -23 43 -40c26 -31 44 -48 55 -51h3c7 0 17 5 28 16c11 10 22 23 31 39
c13 23 24 53 34 92l8 29l-17 2c-23 2 -43 11 -60 26c-18 15 -36 41 -53 76s-32 76 -43 121c-5 17 -7 31 -7 42c0 12 3 21 10 27z" />
    <glyph glyph-name="z" unicode="z" horiz-adv-x="553" 
d="M363 481c7 1 16 1 28 1c41 0 66 -10 73 -31c3 -8 4 -14 4 -17c0 -12 -6 -26 -18 -41c-13 -15 -35 -38 -68 -69c-17 -17 -40 -36 -68 -58c-27 -23 -50 -41 -68 -56l-28 -22h1c5 0 19 2 44 7c82 17 141 25 177 25h6c2 -1 3 -1 4 -1c32 -5 48 -16 48 -35
c0 -21 -21 -33 -62 -38c-65 -8 -134 -20 -207 -35c-58 -12 -97 -18 -117 -18c-21 0 -34 2 -39 6c-11 7 -17 19 -17 34c0 12 5 23 14 33c10 10 36 31 77 62c11 8 19 14 25 19c46 35 81 62 105 81c65 53 98 81 98 86h-5c-11 0 -46 -2 -107 -7h-14c-33 0 -56 3 -68 8
c-11 6 -17 14 -17 25c0 4 1 8 3 12c4 8 20 13 49 14c60 4 109 9 147 15z" />
    <glyph glyph-name="nbsp" 
 />
  </font>
</defs>
</svg>
